<svg xmlns="http://www.w3.org/2000/svg" width="900" height="890">
<rect width="100%" height="100%" fill="#fafafa"/>
<g stroke="#ddd" stroke-width="0.5" fill="none">
<line x1="66.28369421122403" y1="823.716305788776" x2="66.28369421122403" y2="44.882898806893536"/>
<line x1="99.42554131683606" y1="823.716305788776" x2="99.42554131683606" y2="44.882898806893536"/>
<line x1="132.56738842244806" y1="823.716305788776" x2="132.56738842244806" y2="44.882898806893536"/>
<line x1="165.7092355280601" y1="823.716305788776" x2="165.7092355280601" y2="44.882898806893536"/>
<line x1="198.85108263367212" y1="823.716305788776" x2="198.85108263367212" y2="44.882898806893536"/>
<line x1="231.99292973928414" y1="823.716305788776" x2="231.99292973928414" y2="44.882898806893536"/>
<line x1="265.1347768448961" y1="823.716305788776" x2="265.1347768448961" y2="44.882898806893536"/>
<line x1="298.27662395050817" y1="823.716305788776" x2="298.27662395050817" y2="44.882898806893536"/>
<line x1="331.4184710561202" y1="823.716305788776" x2="331.4184710561202" y2="44.882898806893536"/>
<line x1="364.5603181617322" y1="823.716305788776" x2="364.5603181617322" y2="44.882898806893536"/>
<line x1="397.70216526734424" y1="823.716305788776" x2="397.70216526734424" y2="44.882898806893536"/>
<line x1="430.84401237295623" y1="823.716305788776" x2="430.84401237295623" y2="44.882898806893536"/>
<line x1="463.9858594785683" y1="823.716305788776" x2="463.9858594785683" y2="44.882898806893536"/>
<line x1="497.12770658418026" y1="823.716305788776" x2="497.12770658418026" y2="44.882898806893536"/>
<line x1="530.2695536897922" y1="823.716305788776" x2="530.2695536897922" y2="44.882898806893536"/>
<line x1="563.4114007954043" y1="823.716305788776" x2="563.4114007954043" y2="44.882898806893536"/>
<line x1="596.5532479010163" y1="823.716305788776" x2="596.5532479010163" y2="44.882898806893536"/>
<line x1="629.6950950066283" y1="823.716305788776" x2="629.6950950066283" y2="44.882898806893536"/>
<line x1="662.8369421122404" y1="823.716305788776" x2="662.8369421122404" y2="44.882898806893536"/>
<line x1="695.9787892178524" y1="823.716305788776" x2="695.9787892178524" y2="44.882898806893536"/>
<line x1="729.1206363234644" y1="823.716305788776" x2="729.1206363234644" y2="44.882898806893536"/>
<line x1="762.2624834290764" y1="823.716305788776" x2="762.2624834290764" y2="44.882898806893536"/>
<line x1="795.4043305346885" y1="823.716305788776" x2="795.4043305346885" y2="44.882898806893536"/>
<line x1="828.5461776403005" y1="823.716305788776" x2="828.5461776403005" y2="44.882898806893536"/>
<line x1="861.6880247459125" y1="823.716305788776" x2="861.6880247459125" y2="44.882898806893536"/>
<line x1="66.28369421122403" y1="823.716305788776" x2="861.6880247459125" y2="823.716305788776"/>
<line x1="66.28369421122403" y1="790.5744586831639" x2="861.6880247459125" y2="790.5744586831639"/>
<line x1="66.28369421122403" y1="757.4326115775519" x2="861.6880247459125" y2="757.4326115775519"/>
<line x1="66.28369421122403" y1="724.2907644719398" x2="861.6880247459125" y2="724.2907644719398"/>
<line x1="66.28369421122403" y1="691.1489173663279" x2="861.6880247459125" y2="691.1489173663279"/>
<line x1="66.28369421122403" y1="658.0070702607159" x2="861.6880247459125" y2="658.0070702607159"/>
<line x1="66.28369421122403" y1="624.8652231551039" x2="861.6880247459125" y2="624.8652231551039"/>
<line x1="66.28369421122403" y1="591.7233760494919" x2="861.6880247459125" y2="591.7233760494919"/>
<line x1="66.28369421122403" y1="558.5815289438798" x2="861.6880247459125" y2="558.5815289438798"/>
<line x1="66.28369421122403" y1="525.4396818382678" x2="861.6880247459125" y2="525.4396818382678"/>
<line x1="66.28369421122403" y1="492.29783473265576" x2="861.6880247459125" y2="492.29783473265576"/>
<line x1="66.28369421122403" y1="459.15598762704377" x2="861.6880247459125" y2="459.15598762704377"/>
<line x1="66.28369421122403" y1="426.0141405214317" x2="861.6880247459125" y2="426.0141405214317"/>
<line x1="66.28369421122403" y1="392.87229341581974" x2="861.6880247459125" y2="392.87229341581974"/>
<line x1="66.28369421122403" y1="359.73044631020775" x2="861.6880247459125" y2="359.73044631020775"/>
<line x1="66.28369421122403" y1="326.58859920459565" x2="861.6880247459125" y2="326.58859920459565"/>
<line x1="66.28369421122403" y1="293.44675209898367" x2="861.6880247459125" y2="293.44675209898367"/>
<line x1="66.28369421122403" y1="260.3049049933717" x2="861.6880247459125" y2="260.3049049933717"/>
<line x1="66.28369421122403" y1="227.16305788775958" x2="861.6880247459125" y2="227.16305788775958"/>
<line x1="66.28369421122403" y1="194.0212107821476" x2="861.6880247459125" y2="194.0212107821476"/>
<line x1="66.28369421122403" y1="160.8793636765356" x2="861.6880247459125" y2="160.8793636765356"/>
<line x1="66.28369421122403" y1="127.73751657092362" x2="861.6880247459125" y2="127.73751657092362"/>
<line x1="66.28369421122403" y1="94.59566946531152" x2="861.6880247459125" y2="94.59566946531152"/>
<line x1="66.28369421122403" y1="61.45382235969953" x2="861.6880247459125" y2="61.45382235969953"/>
</g>
<g stroke="#bbb" stroke-width="1" fill="none">
<line x1="66.28369421122403" y1="823.716305788776" x2="66.28369421122403" y2="44.882898806893536"/>
<line x1="231.99292973928414" y1="823.716305788776" x2="231.99292973928414" y2="44.882898806893536"/>
<line x1="397.70216526734424" y1="823.716305788776" x2="397.70216526734424" y2="44.882898806893536"/>
<line x1="563.4114007954043" y1="823.716305788776" x2="563.4114007954043" y2="44.882898806893536"/>
<line x1="729.1206363234644" y1="823.716305788776" x2="729.1206363234644" y2="44.882898806893536"/>
<line x1="66.28369421122403" y1="823.716305788776" x2="861.6880247459125" y2="823.716305788776"/>
<line x1="66.28369421122403" y1="658.0070702607159" x2="861.6880247459125" y2="658.0070702607159"/>
<line x1="66.28369421122403" y1="492.29783473265576" x2="861.6880247459125" y2="492.29783473265576"/>
<line x1="66.28369421122403" y1="326.58859920459565" x2="861.6880247459125" y2="326.58859920459565"/>
<line x1="66.28369421122403" y1="160.8793636765356" x2="861.6880247459125" y2="160.8793636765356"/>
</g>
<g font-size="10" fill="#999" font-family="monospace">
<text x="68.28369421122403" y="835.716305788776">0</text>
<text x="399.70216526734424" y="835.716305788776">100</text>
<text x="731.1206363234644" y="835.716305788776">200</text>
<text x="68.28369421122403" y="835.716305788776">0</text>
<text x="68.28369421122403" y="504.29783473265576">100</text>
<text x="68.28369421122403" y="172.8793636765356">200</text>
</g>
<g stroke="#00aa00" stroke-width="1.5" fill="none">
<line x1="221.3" y1="823.7" x2="629.0" y2="823.7"/>
<line x1="629.0" y1="823.7" x2="629.0" y2="376.3"/>
<line x1="629.0" y1="376.3" x2="221.3" y2="376.3"/>
<line x1="221.3" y1="376.3" x2="221.3" y2="823.7"/>
<line x1="784.0" y1="823.7" x2="784.0" y2="376.3"/>
</g>
<g stroke="#ff0000" stroke-width="2" fill="none">
<line x1="66.3" y1="66.2" x2="93.9" y2="443.4"/>
<line x1="93.9" y1="443.4" x2="66.3" y2="675.3"/>
<line x1="66.3" y1="675.3" x2="92.7" y2="640.7"/>
<line x1="92.7" y1="640.7" x2="66.3" y2="823.7"/>
<line x1="66.3" y1="823.7" x2="833.7" y2="823.7"/>
<line x1="833.7" y1="823.7" x2="833.7" y2="146.6"/>
<line x1="833.7" y1="146.6" x2="785.7" y2="105.3"/>
<line x1="785.7" y1="105.3" x2="797.1" y2="84.0"/>
<line x1="797.1" y1="84.0" x2="833.7" y2="123.1"/>
<line x1="833.7" y1="123.1" x2="833.7" y2="66.2"/>
<line x1="833.7" y1="66.2" x2="66.3" y2="66.2"/>
</g>
<g font-size="14" fill="#333" font-family="Arial">
<text x="425.143614670791" y="600.0088378258948" text-anchor="middle" font-weight="bold">底板 123.0×135.0</text>
</g>
<g font-size="11" font-family="Arial">
<rect x="10" y="10" width="200" height="65" fill="white" stroke="#ccc" rx="4"/>
<line x1="20" y1="28" x2="50" y2="28" stroke="red" stroke-width="2"/><text x="55" y="32">CUT 切割线</text>
<line x1="20" y1="45" x2="50" y2="45" stroke="#00aa00" stroke-width="1.5"/><text x="55" y="49">SCORE 折叠线</text>
<text x="20" y="65" fill="#666">Scale: 0.1812×0.1341 mm/px</text>
</g>
</svg>