<svg xmlns="http://www.w3.org/2000/svg" width="1186" height="1174">
<rect width="100%" height="100%" fill="#fafafa"/>
<g stroke="#eee" stroke-width="0.5">
<line x1="50.0" y1="50.0" x2="50.0" y2="1124.2" stroke="#ccc" stroke-width="1"/>
<line x1="90.0" y1="50.0" x2="90.0" y2="1124.2" stroke="#eee" stroke-width="0.5"/>
<line x1="130.0" y1="50.0" x2="130.0" y2="1124.2" stroke="#eee" stroke-width="0.5"/>
<line x1="170.0" y1="50.0" x2="170.0" y2="1124.2" stroke="#eee" stroke-width="0.5"/>
<line x1="210.0" y1="50.0" x2="210.0" y2="1124.2" stroke="#eee" stroke-width="0.5"/>
<line x1="250.0" y1="50.0" x2="250.0" y2="1124.2" stroke="#ccc" stroke-width="1"/>
<line x1="290.0" y1="50.0" x2="290.0" y2="1124.2" stroke="#eee" stroke-width="0.5"/>
<line x1="330.0" y1="50.0" x2="330.0" y2="1124.2" stroke="#eee" stroke-width="0.5"/>
<line x1="370.0" y1="50.0" x2="370.0" y2="1124.2" stroke="#eee" stroke-width="0.5"/>
<line x1="410.0" y1="50.0" x2="410.0" y2="1124.2" stroke="#eee" stroke-width="0.5"/>
<line x1="450.0" y1="50.0" x2="450.0" y2="1124.2" stroke="#ccc" stroke-width="1"/>
<line x1="490.0" y1="50.0" x2="490.0" y2="1124.2" stroke="#eee" stroke-width="0.5"/>
<line x1="530.0" y1="50.0" x2="530.0" y2="1124.2" stroke="#eee" stroke-width="0.5"/>
<line x1="570.0" y1="50.0" x2="570.0" y2="1124.2" stroke="#eee" stroke-width="0.5"/>
<line x1="610.0" y1="50.0" x2="610.0" y2="1124.2" stroke="#eee" stroke-width="0.5"/>
<line x1="650.0" y1="50.0" x2="650.0" y2="1124.2" stroke="#ccc" stroke-width="1"/>
<line x1="690.0" y1="50.0" x2="690.0" y2="1124.2" stroke="#eee" stroke-width="0.5"/>
<line x1="730.0" y1="50.0" x2="730.0" y2="1124.2" stroke="#eee" stroke-width="0.5"/>
<line x1="770.0" y1="50.0" x2="770.0" y2="1124.2" stroke="#eee" stroke-width="0.5"/>
<line x1="810.0" y1="50.0" x2="810.0" y2="1124.2" stroke="#eee" stroke-width="0.5"/>
<line x1="850.0" y1="50.0" x2="850.0" y2="1124.2" stroke="#ccc" stroke-width="1"/>
<line x1="890.0" y1="50.0" x2="890.0" y2="1124.2" stroke="#eee" stroke-width="0.5"/>
<line x1="930.0" y1="50.0" x2="930.0" y2="1124.2" stroke="#eee" stroke-width="0.5"/>
<line x1="970.0" y1="50.0" x2="970.0" y2="1124.2" stroke="#eee" stroke-width="0.5"/>
<line x1="1010.0" y1="50.0" x2="1010.0" y2="1124.2" stroke="#eee" stroke-width="0.5"/>
<line x1="1050.0" y1="50.0" x2="1050.0" y2="1124.2" stroke="#ccc" stroke-width="1"/>
<line x1="1090.0" y1="50.0" x2="1090.0" y2="1124.2" stroke="#eee" stroke-width="0.5"/>
<line x1="1130.0" y1="50.0" x2="1130.0" y2="1124.2" stroke="#eee" stroke-width="0.5"/>
<line x1="50.0" y1="1124.2" x2="1136.2" y2="1124.2" stroke="#ccc" stroke-width="1"/>
<line x1="50.0" y1="1084.2" x2="1136.2" y2="1084.2" stroke="#eee" stroke-width="0.5"/>
<line x1="50.0" y1="1044.2" x2="1136.2" y2="1044.2" stroke="#eee" stroke-width="0.5"/>
<line x1="50.0" y1="1004.2" x2="1136.2" y2="1004.2" stroke="#eee" stroke-width="0.5"/>
<line x1="50.0" y1="964.2" x2="1136.2" y2="964.2" stroke="#eee" stroke-width="0.5"/>
<line x1="50.0" y1="924.2" x2="1136.2" y2="924.2" stroke="#ccc" stroke-width="1"/>
<line x1="50.0" y1="884.2" x2="1136.2" y2="884.2" stroke="#eee" stroke-width="0.5"/>
<line x1="50.0" y1="844.2" x2="1136.2" y2="844.2" stroke="#eee" stroke-width="0.5"/>
<line x1="50.0" y1="804.2" x2="1136.2" y2="804.2" stroke="#eee" stroke-width="0.5"/>
<line x1="50.0" y1="764.2" x2="1136.2" y2="764.2" stroke="#eee" stroke-width="0.5"/>
<line x1="50.0" y1="724.2" x2="1136.2" y2="724.2" stroke="#ccc" stroke-width="1"/>
<line x1="50.0" y1="684.2" x2="1136.2" y2="684.2" stroke="#eee" stroke-width="0.5"/>
<line x1="50.0" y1="644.2" x2="1136.2" y2="644.2" stroke="#eee" stroke-width="0.5"/>
<line x1="50.0" y1="604.2" x2="1136.2" y2="604.2" stroke="#eee" stroke-width="0.5"/>
<line x1="50.0" y1="564.2" x2="1136.2" y2="564.2" stroke="#eee" stroke-width="0.5"/>
<line x1="50.0" y1="524.2" x2="1136.2" y2="524.2" stroke="#ccc" stroke-width="1"/>
<line x1="50.0" y1="484.2" x2="1136.2" y2="484.2" stroke="#eee" stroke-width="0.5"/>
<line x1="50.0" y1="444.2" x2="1136.2" y2="444.2" stroke="#eee" stroke-width="0.5"/>
<line x1="50.0" y1="404.2" x2="1136.2" y2="404.2" stroke="#eee" stroke-width="0.5"/>
<line x1="50.0" y1="364.2" x2="1136.2" y2="364.2" stroke="#eee" stroke-width="0.5"/>
<line x1="50.0" y1="324.2" x2="1136.2" y2="324.2" stroke="#ccc" stroke-width="1"/>
<line x1="50.0" y1="284.2" x2="1136.2" y2="284.2" stroke="#eee" stroke-width="0.5"/>
<line x1="50.0" y1="244.2" x2="1136.2" y2="244.2" stroke="#eee" stroke-width="0.5"/>
<line x1="50.0" y1="204.2" x2="1136.2" y2="204.2" stroke="#eee" stroke-width="0.5"/>
<line x1="50.0" y1="164.2" x2="1136.2" y2="164.2" stroke="#eee" stroke-width="0.5"/>
<line x1="50.0" y1="124.2" x2="1136.2" y2="124.2" stroke="#ccc" stroke-width="1"/>
<line x1="50.0" y1="84.2" x2="1136.2" y2="84.2" stroke="#eee" stroke-width="0.5"/>
</g>
<g font-size="7" fill="#999" font-family="monospace">
<text x="52.0" y="1136.2">0</text>
<text x="252.0" y="1136.2">50</text>
<text x="452.0" y="1136.2">100</text>
<text x="652.0" y="1136.2">150</text>
<text x="852.0" y="1136.2">200</text>
<text x="1052.0" y="1136.2">250</text>
<text x="2" y="1127.2">0</text>
<text x="2" y="927.2">50</text>
<text x="2" y="727.2">100</text>
<text x="2" y="527.2">150</text>
<text x="2" y="327.2">200</text>
<text x="2" y="127.2">250</text>
</g>
<g stroke="#00aa00" stroke-width="1.5" stroke-dasharray="6,3" fill="none">
<line x1="337.12" y1="837.12" x2="829.12" y2="837.12" stroke="#000" stroke-width="1"/>
<line x1="337.12" y1="297.12" x2="829.12" y2="297.12" stroke="#000" stroke-width="1"/>
<line x1="337.12" y1="1024.24" x2="337.12" y2="110.00" stroke="#000" stroke-width="1"/>
<line x1="829.12" y1="1024.24" x2="829.12" y2="110.00" stroke="#000" stroke-width="1"/>
<line x1="1016.24" y1="1024.24" x2="1016.24" y2="110.00" stroke="#000" stroke-width="1"/>
</g>
<g stroke="#008888" stroke-width="1" fill="none">
<line x1="150.00" y1="1024.24" x2="56.44" y2="1000.85" stroke="#000" stroke-width="1"/>
<line x1="56.44" y1="1000.85" x2="150.00" y2="977.46" stroke="#000" stroke-width="1"/>
<line x1="150.00" y1="977.46" x2="56.44" y2="954.07" stroke="#000" stroke-width="1"/>
<line x1="56.44" y1="954.07" x2="150.00" y2="930.68" stroke="#000" stroke-width="1"/>
<line x1="150.00" y1="930.68" x2="56.44" y2="907.29" stroke="#000" stroke-width="1"/>
<line x1="56.44" y1="907.29" x2="150.00" y2="883.90" stroke="#000" stroke-width="1"/>
<line x1="150.00" y1="883.90" x2="56.44" y2="860.51" stroke="#000" stroke-width="1"/>
<line x1="56.44" y1="860.51" x2="150.00" y2="837.12" stroke="#000" stroke-width="1"/>
<line x1="337.12" y1="1024.24" x2="398.62" y2="1117.80" stroke="#000" stroke-width="1"/>
<line x1="398.62" y1="1117.80" x2="460.12" y2="1024.24" stroke="#000" stroke-width="1"/>
<line x1="460.12" y1="1024.24" x2="521.62" y2="1117.80" stroke="#000" stroke-width="1"/>
<line x1="521.62" y1="1117.80" x2="583.12" y2="1024.24" stroke="#000" stroke-width="1"/>
<line x1="583.12" y1="1024.24" x2="644.62" y2="1117.80" stroke="#000" stroke-width="1"/>
<line x1="644.62" y1="1117.80" x2="706.12" y2="1024.24" stroke="#000" stroke-width="1"/>
<line x1="706.12" y1="1024.24" x2="767.62" y2="1117.80" stroke="#000" stroke-width="1"/>
<line x1="767.62" y1="1117.80" x2="829.12" y2="1024.24" stroke="#000" stroke-width="1"/>
<line x1="150.00" y1="297.12" x2="56.44" y2="273.73" stroke="#000" stroke-width="1"/>
<line x1="56.44" y1="273.73" x2="150.00" y2="250.34" stroke="#000" stroke-width="1"/>
<line x1="150.00" y1="250.34" x2="56.44" y2="226.95" stroke="#000" stroke-width="1"/>
<line x1="56.44" y1="226.95" x2="150.00" y2="203.56" stroke="#000" stroke-width="1"/>
<line x1="150.00" y1="203.56" x2="56.44" y2="180.17" stroke="#000" stroke-width="1"/>
<line x1="56.44" y1="180.17" x2="150.00" y2="156.78" stroke="#000" stroke-width="1"/>
<line x1="150.00" y1="156.78" x2="56.44" y2="133.39" stroke="#000" stroke-width="1"/>
<line x1="56.44" y1="133.39" x2="150.00" y2="110.00" stroke="#000" stroke-width="1"/>
<line x1="337.12" y1="297.12" x2="398.62" y2="203.56" stroke="#000" stroke-width="1"/>
<line x1="398.62" y1="203.56" x2="460.12" y2="297.12" stroke="#000" stroke-width="1"/>
<line x1="460.12" y1="297.12" x2="521.62" y2="203.56" stroke="#000" stroke-width="1"/>
<line x1="521.62" y1="203.56" x2="583.12" y2="297.12" stroke="#000" stroke-width="1"/>
<line x1="583.12" y1="297.12" x2="644.62" y2="203.56" stroke="#000" stroke-width="1"/>
<line x1="644.62" y1="203.56" x2="706.12" y2="297.12" stroke="#000" stroke-width="1"/>
<line x1="706.12" y1="297.12" x2="767.62" y2="203.56" stroke="#000" stroke-width="1"/>
<line x1="767.62" y1="203.56" x2="829.12" y2="297.12" stroke="#000" stroke-width="1"/>
</g>
<g stroke="#9900cc" stroke-width="1.5" fill="none">
<line x1="357.12" y1="847.12" x2="357.12" y2="827.12" stroke="#000" stroke-width="1"/>
<line x1="337.12" y1="847.12" x2="377.12" y2="847.12" stroke="#000" stroke-width="1"/>
<line x1="337.12" y1="827.12" x2="377.12" y2="827.12" stroke="#000" stroke-width="1"/>
<line x1="809.12" y1="847.12" x2="809.12" y2="827.12" stroke="#000" stroke-width="1"/>
<line x1="789.12" y1="847.12" x2="829.12" y2="847.12" stroke="#000" stroke-width="1"/>
<line x1="789.12" y1="827.12" x2="829.12" y2="827.12" stroke="#000" stroke-width="1"/>
<line x1="357.12" y1="307.12" x2="357.12" y2="287.12" stroke="#000" stroke-width="1"/>
<line x1="337.12" y1="307.12" x2="377.12" y2="307.12" stroke="#000" stroke-width="1"/>
<line x1="337.12" y1="287.12" x2="377.12" y2="287.12" stroke="#000" stroke-width="1"/>
<line x1="809.12" y1="307.12" x2="809.12" y2="287.12" stroke="#000" stroke-width="1"/>
<line x1="789.12" y1="307.12" x2="829.12" y2="307.12" stroke="#000" stroke-width="1"/>
<line x1="789.12" y1="287.12" x2="829.12" y2="287.12" stroke="#000" stroke-width="1"/>
</g>
<g stroke="#cc8800" stroke-width="1.5" fill="#fff8e0">
<line x1="341.12" y1="1024.24" x2="341.12" y2="976.24" stroke="#000" stroke-width="1"/>
<line x1="373.12" y1="1024.24" x2="373.12" y2="976.24" stroke="#000" stroke-width="1"/>
<line x1="341.12" y1="976.24" x2="373.12" y2="976.24" stroke="#000" stroke-width="1"/>
<line x1="793.12" y1="1024.24" x2="793.12" y2="976.24" stroke="#000" stroke-width="1"/>
<line x1="825.12" y1="1024.24" x2="825.12" y2="976.24" stroke="#000" stroke-width="1"/>
<line x1="793.12" y1="976.24" x2="825.12" y2="976.24" stroke="#000" stroke-width="1"/>
<line x1="341.12" y1="110.00" x2="341.12" y2="158.00" stroke="#000" stroke-width="1"/>
<line x1="373.12" y1="110.00" x2="373.12" y2="158.00" stroke="#000" stroke-width="1"/>
<line x1="341.12" y1="158.00" x2="373.12" y2="158.00" stroke="#000" stroke-width="1"/>
<line x1="793.12" y1="110.00" x2="793.12" y2="158.00" stroke="#000" stroke-width="1"/>
<line x1="825.12" y1="110.00" x2="825.12" y2="158.00" stroke="#000" stroke-width="1"/>
<line x1="793.12" y1="158.00" x2="825.12" y2="158.00" stroke="#000" stroke-width="1"/>
</g>
<g stroke="#0066ff" stroke-width="1.5" fill="none">
<line x1="341.12" y1="988.24" x2="333.12" y2="976.24" stroke="#000" stroke-width="1"/>
<line x1="373.12" y1="988.24" x2="381.12" y2="976.24" stroke="#000" stroke-width="1"/>
<line x1="793.12" y1="988.24" x2="785.12" y2="976.24" stroke="#000" stroke-width="1"/>
<line x1="825.12" y1="988.24" x2="833.12" y2="976.24" stroke="#000" stroke-width="1"/>
<line x1="341.12" y1="146.00" x2="333.12" y2="158.00" stroke="#000" stroke-width="1"/>
<line x1="373.12" y1="146.00" x2="381.12" y2="158.00" stroke="#000" stroke-width="1"/>
<line x1="793.12" y1="146.00" x2="785.12" y2="158.00" stroke="#000" stroke-width="1"/>
<line x1="825.12" y1="146.00" x2="833.12" y2="158.00" stroke="#000" stroke-width="1"/>
</g>
<g stroke="#ff0000" stroke-width="2" fill="none">
<line x1="150.00" y1="837.12" x2="150.00" y2="1024.24" stroke="#000" stroke-width="1"/>
<line x1="150.00" y1="1024.24" x2="337.12" y2="1024.24" stroke="#000" stroke-width="1"/>
<line x1="337.12" y1="1024.24" x2="829.12" y2="1024.24" stroke="#000" stroke-width="1"/>
<line x1="829.12" y1="1024.24" x2="829.12" y2="837.12" stroke="#000" stroke-width="1"/>
<line x1="829.12" y1="837.12" x2="1016.24" y2="837.12" stroke="#000" stroke-width="1"/>
<line x1="1016.24" y1="837.12" x2="1016.24" y2="110.00" stroke="#000" stroke-width="1"/>
<line x1="1016.24" y1="110.00" x2="829.12" y2="110.00" stroke="#000" stroke-width="1"/>
<line x1="829.12" y1="110.00" x2="337.12" y2="110.00" stroke="#000" stroke-width="1"/>
<line x1="337.12" y1="110.00" x2="150.00" y2="110.00" stroke="#000" stroke-width="1"/>
<line x1="150.00" y1="110.00" x2="150.00" y2="297.12" stroke="#000" stroke-width="1"/>
<line x1="150.00" y1="297.12" x2="337.12" y2="297.12" stroke="#000" stroke-width="1"/>
<line x1="337.12" y1="297.12" x2="829.12" y2="297.12" stroke="#000" stroke-width="1"/>
<line x1="829.12" y1="297.12" x2="1016.24" y2="297.12" stroke="#000" stroke-width="1"/>
<line x1="1016.24" y1="297.12" x2="1016.24" y2="837.12" stroke="#000" stroke-width="1"/>
<line x1="1016.24" y1="1024.24" x2="1076.24" y2="1024.24" stroke="#000" stroke-width="1"/>
<line x1="1076.24" y1="1024.24" x2="1076.24" y2="110.00" stroke="#000" stroke-width="1"/>
<line x1="1076.24" y1="110.00" x2="1016.24" y2="110.00" stroke="#000" stroke-width="1"/>
</g>
<g stroke="#ff00ff" stroke-width="0.8" stroke-dasharray="3,3" opacity="0.5">
<line x1="583.1" y1="1044.2" x2="583.1" y2="90.0"/>
</g>
<g fill="none">
<line x1="337.12" y1="1084.24" x2="337.12" y2="1092.24" stroke="#888" stroke-width="0.5"/><line x1="829.12" y1="1084.24" x2="829.12" y2="1092.24" stroke="#888" stroke-width="0.5"/><line x1="337.12" y1="1092.24" x2="829.12" y2="1092.24" stroke="#888" stroke-width="0.5"/><text x="583.1" y="1089.2" font-size="8" fill="#888" text-anchor="middle" font-family="monospace">W=123</text>
<line x1="90.00" y1="837.12" x2="98.00" y2="837.12" stroke="#888" stroke-width="0.5"/><line x1="90.00" y1="297.12" x2="98.00" y2="297.12" stroke="#888" stroke-width="0.5"/><line x1="98.00" y1="837.12" x2="98.00" y2="297.12" stroke="#888" stroke-width="0.5"/><text x="98.0" y="564.1" font-size="8" fill="#888" text-anchor="middle" font-family="monospace">L=135</text>
<line x1="90.00" y1="1024.24" x2="98.00" y2="1024.24" stroke="#888" stroke-width="0.5"/><line x1="90.00" y1="837.12" x2="98.00" y2="837.12" stroke="#888" stroke-width="0.5"/><line x1="98.00" y1="1024.24" x2="98.00" y2="837.12" stroke="#888" stroke-width="0.5"/><text x="98.0" y="927.7" font-size="8" fill="#888" text-anchor="middle" font-family="monospace">H=46.78</text>
</g>
<g font-size="9" fill="#666" text-anchor="middle" font-family="sans-serif">
<text x="583" y="567">底板 123×135</text>
<text x="244" y="931" transform="rotate(-90,244,931)">前墙 123×46.78</text>
<text x="923" y="931" transform="rotate(90,923,931)">右墙 135×46.78</text>
<text x="583" y="204">后墙 123×46.78</text>
<text x="1046" y="931" transform="rotate(90,1046,931)">糊边 15</text>
</g>
<rect x="10" y="5" width="280" height="110" fill="white" fill-opacity="0.95" stroke="#ccc" rx="4"/>
<line x1="20" y1="15" x2="45" y2="15" stroke="red" stroke-width="2"/><text x="50" y="19" fill="#333" font-size="9" font-family="sans-serif">CUT 切割线</text>
<line x1="20" y1="30" x2="45" y2="30" stroke="#00aa00" stroke-width="1.5" stroke-dasharray="6,3"/><text x="50" y="34" fill="#333" font-size="9" font-family="sans-serif">SCORE 压线/折叠线</text>
<line x1="20" y1="45" x2="45" y2="45" stroke="#0066ff" stroke-width="1.5"/><text x="50" y="49" fill="#333" font-size="9" font-family="sans-serif">HOOK 勾脚</text>
<line x1="20" y1="60" x2="45" y2="60" stroke="#9900cc" stroke-width="1.5"/><text x="50" y="64" fill="#333" font-size="9" font-family="sans-serif">SLOT 锁口</text>
<line x1="20" y1="75" x2="45" y2="75" stroke="#cc8800" stroke-width="1.5"/><text x="50" y="79" fill="#333" font-size="9" font-family="sans-serif">TONGUE 锁舌</text>
<line x1="20" y1="90" x2="45" y2="90" stroke="#008888" stroke-width="1"/><text x="50" y="94" fill="#333" font-size="9" font-family="sans-serif">FLAP 防撞翼片</text>
<line x1="20" y1="105" x2="45" y2="105" stroke="#ff00ff" stroke-width="0.8" stroke-dasharray="3,3" opacity="0.5"/><text x="50" y="109" fill="#333" font-size="9" font-family="sans-serif">对称轴(底板中心)</text>
</svg>