  0
SECTION
  2
HEADER
  9
$ACADVER
  1
AC1015
  9
$ACADMAINTVER
 70
6
  9
$DWGCODEPAGE
  3
ANSI_1252
  9
$INSBASE
 10
0.0
 20
0.0
 30
0.0
  9
$EXTMIN
 10
1e+20
 20
1e+20
 30
1e+20
  9
$EXTMAX
 10
-1e+20
 20
-1e+20
 30
-1e+20
  9
$LIMMIN
 10
0.0
 20
0.0
  9
$LIMMAX
 10
420.0
 20
297.0
  9
$ORTHOMODE
 70
0
  9
$REGENMODE
 70
1
  9
$FILLMODE
 70
1
  9
$QTEXTMODE
 70
0
  9
$MIRRTEXT
 70
1
  9
$LTSCALE
 40
1.0
  9
$ATTMODE
 70
1
  9
$TEXTSIZE
 40
2.5
  9
$TRACEWID
 40
1.0
  9
$TEXTSTYLE
  7
Standard
  9
$CLAYER
  8
0
  9
$CELTYPE
  6
ByLayer
  9
$CECOLOR
 62
256
  9
$CELTSCALE
 40
1.0
  9
$DISPSILH
 70
0
  9
$DIMSCALE
 40
1.0
  9
$DIMASZ
 40
2.5
  9
$DIMEXO
 40
0.625
  9
$DIMDLI
 40
3.75
  9
$DIMRND
 40
0.0
  9
$DIMDLE
 40
0.0
  9
$DIMEXE
 40
1.25
  9
$DIMTP
 40
0.0
  9
$DIMTM
 40
0.0
  9
$DIMTXT
 40
2.5
  9
$DIMCEN
 40
2.5
  9
$DIMTSZ
 40
0.0
  9
$DIMTOL
 70
0
  9
$DIMLIM
 70
0
  9
$DIMTIH
 70
0
  9
$DIMTOH
 70
0
  9
$DIMSE1
 70
0
  9
$DIMSE2
 70
0
  9
$DIMTAD
 70
1
  9
$DIMZIN
 70
8
  9
$DIMBLK
  1

  9
$DIMASO
 70
1
  9
$DIMSHO
 70
1
  9
$DIMPOST
  1

  9
$DIMAPOST
  1

  9
$DIMALT
 70
0
  9
$DIMALTD
 70
3
  9
$DIMALTF
 40
0.03937007874
  9
$DIMLFAC
 40
1.0
  9
$DIMTOFL
 70
1
  9
$DIMTVP
 40
0.0
  9
$DIMTIX
 70
0
  9
$DIMSOXD
 70
0
  9
$DIMSAH
 70
0
  9
$DIMBLK1
  1

  9
$DIMBLK2
  1

  9
$DIMSTYLE
  2
ISO-25
  9
$DIMCLRD
 70
0
  9
$DIMCLRE
 70
0
  9
$DIMCLRT
 70
0
  9
$DIMTFAC
 40
1.0
  9
$DIMGAP
 40
0.625
  9
$DIMJUST
 70
0
  9
$DIMSD1
 70
0
  9
$DIMSD2
 70
0
  9
$DIMTOLJ
 70
0
  9
$DIMTZIN
 70
8
  9
$DIMALTZ
 70
0
  9
$DIMALTTZ
 70
0
  9
$DIMUPT
 70
0
  9
$DIMDEC
 70
2
  9
$DIMTDEC
 70
2
  9
$DIMALTU
 70
2
  9
$DIMALTTD
 70
3
  9
$DIMTXSTY
  7
Standard
  9
$DIMAUNIT
 70
0
  9
$DIMADEC
 70
0
  9
$DIMALTRND
 40
0.0
  9
$DIMAZIN
 70
0
  9
$DIMDSEP
 70
44
  9
$DIMATFIT
 70
3
  9
$DIMFRAC
 70
0
  9
$DIMLDRBLK
  1

  9
$DIMLUNIT
 70
2
  9
$DIMLWD
 70
-2
  9
$DIMLWE
 70
-2
  9
$DIMTMOVE
 70
0
  9
$LUNITS
 70
2
  9
$LUPREC
 70
4
  9
$SKETCHINC
 40
1.0
  9
$FILLETRAD
 40
10.0
  9
$AUNITS
 70
0
  9
$AUPREC
 70
2
  9
$MENU
  1
.
  9
$ELEVATION
 40
0.0
  9
$PELEVATION
 40
0.0
  9
$THICKNESS
 40
0.0
  9
$LIMCHECK
 70
0
  9
$CHAMFERA
 40
0.0
  9
$CHAMFERB
 40
0.0
  9
$CHAMFERC
 40
0.0
  9
$CHAMFERD
 40
0.0
  9
$SKPOLY
 70
0
  9
$TDCREATE
 40
2461129.735127315
  9
$TDUCREATE
 40
2458532.153996898
  9
$TDUPDATE
 40
2461129.735127315
  9
$TDUUPDATE
 40
2458532.1544311
  9
$TDINDWG
 40
0.0
  9
$TDUSRTIMER
 40
0.0
  9
$USRTIMER
 70
1
  9
$ANGBASE
 50
0.0
  9
$ANGDIR
 70
0
  9
$PDMODE
 70
0
  9
$PDSIZE
 40
0.0
  9
$PLINEWID
 40
0.0
  9
$SPLFRAME
 70
0
  9
$SPLINETYPE
 70
6
  9
$SPLINESEGS
 70
8
  9
$HANDSEED
  5
1A7
  9
$SURFTAB1
 70
6
  9
$SURFTAB2
 70
6
  9
$SURFTYPE
 70
6
  9
$SURFU
 70
6
  9
$SURFV
 70
6
  9
$UCSBASE
  2

  9
$UCSNAME
  2

  9
$UCSORG
 10
0.0
 20
0.0
 30
0.0
  9
$UCSXDIR
 10
1.0
 20
0.0
 30
0.0
  9
$UCSYDIR
 10
0.0
 20
1.0
 30
0.0
  9
$UCSORTHOREF
  2

  9
$UCSORTHOVIEW
 70
0
  9
$UCSORGTOP
 10
0.0
 20
0.0
 30
0.0
  9
$UCSORGBOTTOM
 10
0.0
 20
0.0
 30
0.0
  9
$UCSORGLEFT
 10
0.0
 20
0.0
 30
0.0
  9
$UCSORGRIGHT
 10
0.0
 20
0.0
 30
0.0
  9
$UCSORGFRONT
 10
0.0
 20
0.0
 30
0.0
  9
$UCSORGBACK
 10
0.0
 20
0.0
 30
0.0
  9
$PUCSBASE
  2

  9
$PUCSNAME
  2

  9
$PUCSORG
 10
0.0
 20
0.0
 30
0.0
  9
$PUCSXDIR
 10
1.0
 20
0.0
 30
0.0
  9
$PUCSYDIR
 10
0.0
 20
1.0
 30
0.0
  9
$PUCSORTHOREF
  2

  9
$PUCSORTHOVIEW
 70
0
  9
$PUCSORGTOP
 10
0.0
 20
0.0
 30
0.0
  9
$PUCSORGBOTTOM
 10
0.0
 20
0.0
 30
0.0
  9
$PUCSORGLEFT
 10
0.0
 20
0.0
 30
0.0
  9
$PUCSORGRIGHT
 10
0.0
 20
0.0
 30
0.0
  9
$PUCSORGFRONT
 10
0.0
 20
0.0
 30
0.0
  9
$PUCSORGBACK
 10
0.0
 20
0.0
 30
0.0
  9
$USERI1
 70
0
  9
$USERI2
 70
0
  9
$USERI3
 70
0
  9
$USERI4
 70
0
  9
$USERI5
 70
0
  9
$USERR1
 40
0.0
  9
$USERR2
 40
0.0
  9
$USERR3
 40
0.0
  9
$USERR4
 40
0.0
  9
$USERR5
 40
0.0
  9
$WORLDVIEW
 70
1
  9
$SHADEDGE
 70
3
  9
$SHADEDIF
 70
70
  9
$TILEMODE
 70
1
  9
$MAXACTVP
 70
64
  9
$PINSBASE
 10
0.0
 20
0.0
 30
0.0
  9
$PLIMCHECK
 70
0
  9
$PEXTMIN
 10
1e+20
 20
1e+20
 30
1e+20
  9
$PEXTMAX
 10
-1e+20
 20
-1e+20
 30
-1e+20
  9
$PLIMMIN
 10
0.0
 20
0.0
  9
$PLIMMAX
 10
420.0
 20
297.0
  9
$UNITMODE
 70
0
  9
$VISRETAIN
 70
1
  9
$PLINEGEN
 70
0
  9
$PSLTSCALE
 70
1
  9
$TREEDEPTH
 70
3020
  9
$CMLSTYLE
  2
Standard
  9
$CMLJUST
 70
0
  9
$CMLSCALE
 40
20.0
  9
$PROXYGRAPHICS
 70
1
  9
$MEASUREMENT
 70
1
  9
$CELWEIGHT
370
-1
  9
$ENDCAPS
280
0
  9
$JOINSTYLE
280
0
  9
$LWDISPLAY
290
0
  9
$INSUNITS
 70
6
  9
$HYPERLINKBASE
  1

  9
$STYLESHEET
  1

  9
$XEDIT
290
1
  9
$CEPSNTYPE
380
0
  9
$PSTYLEMODE
290
1
  9
$FINGERPRINTGUID
  2
{854A9D00-8071-4D1A-A03F-6062542B1614}
  9
$VERSIONGUID
  2
{9D6B20D6-5930-4472-8A4D-B43B72650657}
  9
$EXTNAMES
290
1
  9
$PSVPSCALE
 40
0.0
  9
$OLESTARTUP
290
0
  0
ENDSEC
  0
SECTION
  2
CLASSES
  0
CLASS
  1
ACDBDICTIONARYWDFLT
  2
AcDbDictionaryWithDefault
  3
ObjectDBX Classes
 90
0
280
0
281
0
  0
CLASS
  1
SUN
  2
AcDbSun
  3
SCENEOE
 90
1153
280
0
281
0
  0
CLASS
  1
VISUALSTYLE
  2
AcDbVisualStyle
  3
ObjectDBX Classes
 90
4095
280
0
281
0
  0
CLASS
  1
MATERIAL
  2
AcDbMaterial
  3
ObjectDBX Classes
 90
1153
280
0
281
0
  0
CLASS
  1
SCALE
  2
AcDbScale
  3
ObjectDBX Classes
 90
1153
280
0
281
0
  0
CLASS
  1
TABLESTYLE
  2
AcDbTableStyle
  3
ObjectDBX Classes
 90
4095
280
0
281
0
  0
CLASS
  1
MLEADERSTYLE
  2
AcDbMLeaderStyle
  3
ACDB_MLEADERSTYLE_CLASS
 90
4095
280
0
281
0
  0
CLASS
  1
DICTIONARYVAR
  2
AcDbDictionaryVar
  3
ObjectDBX Classes
 90
0
280
0
281
0
  0
CLASS
  1
CELLSTYLEMAP
  2
AcDbCellStyleMap
  3
ObjectDBX Classes
 90
1152
280
0
281
0
  0
CLASS
  1
MENTALRAYRENDERSETTINGS
  2
AcDbMentalRayRenderSettings
  3
SCENEOE
 90
1024
280
0
281
0
  0
CLASS
  1
ACDBDETAILVIEWSTYLE
  2
AcDbDetailViewStyle
  3
ObjectDBX Classes
 90
1025
280
0
281
0
  0
CLASS
  1
ACDBSECTIONVIEWSTYLE
  2
AcDbSectionViewStyle
  3
ObjectDBX Classes
 90
1025
280
0
281
0
  0
CLASS
  1
RASTERVARIABLES
  2
AcDbRasterVariables
  3
ISM
 90
0
280
0
281
0
  0
CLASS
  1
ACDBPLACEHOLDER
  2
AcDbPlaceHolder
  3
ObjectDBX Classes
 90
0
280
0
281
0
  0
CLASS
  1
LAYOUT
  2
AcDbLayout
  3
ObjectDBX Classes
 90
0
280
0
281
0
  0
ENDSEC
  0
SECTION
  2
TABLES
  0
TABLE
  2
VPORT
  5
8
330
0
100
AcDbSymbolTable
 70
1
  0
VPORT
  5
23
330
8
100
AcDbSymbolTableRecord
100
AcDbViewportTableRecord
  2
*Active
 70
0
 10
0.0
 20
0.0
 11
1.0
 21
1.0
 12
0.0
 22
0.0
 13
0.0
 23
0.0
 14
0.5
 24
0.5
 15
0.5
 25
0.5
 16
0.0
 26
0.0
 36
1.0
 17
0.0
 27
0.0
 37
0.0
 40
1000.0
 41
1.34
 42
50.0
 43
0.0
 44
0.0
 50
0.0
 51
0.0
 71
0
 72
1000
 73
1
 74
3
 75
0
 76
0
 77
0
 78
0
281
0
 65
0
146
0.0
  0
ENDTAB
  0
TABLE
  2
LTYPE
  5
2
330
0
100
AcDbSymbolTable
 70
3
  0
LTYPE
  5
24
330
2
100
AcDbSymbolTableRecord
100
AcDbLinetypeTableRecord
  2
ByBlock
 70
0
  3

 72
65
 73
0
 40
0.0
  0
LTYPE
  5
25
330
2
100
AcDbSymbolTableRecord
100
AcDbLinetypeTableRecord
  2
ByLayer
 70
0
  3

 72
65
 73
0
 40
0.0
  0
LTYPE
  5
26
330
2
100
AcDbSymbolTableRecord
100
AcDbLinetypeTableRecord
  2
Continuous
 70
0
  3

 72
65
 73
0
 40
0.0
  0
ENDTAB
  0
TABLE
  2
LAYER
  5
1
330
0
100
AcDbSymbolTable
 70
5
  0
LAYER
  5
27
330
1
100
AcDbSymbolTableRecord
100
AcDbLayerTableRecord
  2
0
 70
0
 62
7
  6
Continuous
370
-3
390
13
  0
LAYER
  5
28
330
1
100
AcDbSymbolTableRecord
100
AcDbLayerTableRecord
  2
Defpoints
 70
0
 62
7
  6
Continuous
290
0
370
-3
390
13
  0
LAYER
  5
2F
330
1
100
AcDbSymbolTableRecord
100
AcDbLayerTableRecord
  2
CUT
 70
0
 62
1
  6
Continuous
370
-3
390
13
  0
LAYER
  5
30
330
1
100
AcDbSymbolTableRecord
100
AcDbLayerTableRecord
  2
SCORE
 70
0
 62
3
  6
Continuous
370
-3
390
13
  0
LAYER
  5
31
330
1
100
AcDbSymbolTableRecord
100
AcDbLayerTableRecord
  2
FLAP
 70
0
 62
1
  6
Continuous
370
-3
390
13
  0
ENDTAB
  0
TABLE
  2
STYLE
  5
5
330
0
100
AcDbSymbolTable
 70
1
  0
STYLE
  5
29
330
5
100
AcDbSymbolTableRecord
100
AcDbTextStyleTableRecord
  2
Standard
 70
0
 40
0.0
 41
1.0
 50
0.0
 71
0
 42
2.5
  3
txt
  4

  0
ENDTAB
  0
TABLE
  2
VIEW
  5
7
330
0
100
AcDbSymbolTable
 70
0
  0
ENDTAB
  0
TABLE
  2
UCS
  5
6
330
0
100
AcDbSymbolTable
 70
0
  0
ENDTAB
  0
TABLE
  2
APPID
  5
3
330
0
100
AcDbSymbolTable
 70
3
  0
APPID
  5
2A
330
3
100
AcDbSymbolTableRecord
100
AcDbRegAppTableRecord
  2
ACAD
 70
0
  0
APPID
  5
1A4
330
3
100
AcDbSymbolTableRecord
100
AcDbRegAppTableRecord
  2
HATCHBACKGROUNDCOLOR
 70
0
  0
APPID
  5
1A5
330
3
100
AcDbSymbolTableRecord
100
AcDbRegAppTableRecord
  2
EZDXF
 70
0
  0
ENDTAB
  0
TABLE
  2
DIMSTYLE
  5
4
330
0
100
AcDbSymbolTable
 70
1
100
AcDbDimStyleTable
  0
DIMSTYLE
105
2B
330
4
100
AcDbSymbolTableRecord
100
AcDbDimStyleTableRecord
  2
Standard
 70
0
  3

  4

 40
1.0
 41
2.5
 42
0.625
 43
3.75
 44
1.25
 45
0.0
 46
0.0
 47
0.0
 48
0.0
140
2.5
141
2.5
142
0.0
143
0.03937007874
144
1.0
145
0.0
146
1.0
147
0.625
148
0.0
 71
0
 72
0
 73
0
 74
0
 75
0
 76
0
 77
1
 78
8
 79
3
170
0
171
3
172
1
173
0
174
0
175
0
176
0
177
0
178
0
179
2
271
2
272
2
273
2
274
3
275
0
276
0
277
2
278
44
279
0
280
0
281
0
282
0
283
0
284
8
285
0
286
0
288
0
289
3
371
-2
372
-2
  0
ENDTAB
  0
TABLE
  2
BLOCK_RECORD
  5
9
330
0
100
AcDbSymbolTable
 70
2
  0
BLOCK_RECORD
  5
17
330
9
100
AcDbSymbolTableRecord
100
AcDbBlockTableRecord
  2
*Model_Space
340
1A
  0
BLOCK_RECORD
  5
1B
330
9
100
AcDbSymbolTableRecord
100
AcDbBlockTableRecord
  2
*Paper_Space
340
1E
  0
ENDTAB
  0
ENDSEC
  0
SECTION
  2
BLOCKS
  0
BLOCK
  5
18
330
17
100
AcDbEntity
  8
0
100
AcDbBlockBegin
  2
*Model_Space
 70
0
 10
0.0
 20
0.0
 30
0.0
  3
*Model_Space
  1

  0
ENDBLK
  5
19
330
17
100
AcDbEntity
  8
0
100
AcDbBlockEnd
  0
BLOCK
  5
1C
330
1B
100
AcDbEntity
  8
0
100
AcDbBlockBegin
  2
*Paper_Space
 70
0
 10
0.0
 20
0.0
 30
0.0
  3
*Paper_Space
  1

  0
ENDBLK
  5
1D
330
1B
100
AcDbEntity
  8
0
100
AcDbBlockEnd
  0
ENDSEC
  0
SECTION
  2
ENTITIES
  0
LINE
  5
32
330
17
100
AcDbEntity
  8
CUT
100
AcDbLine
 10
3.275706170561916
 20
65.51412341123833
 30
0.0
 11
4.731575579700546
 21
64.42222135438436
 31
0.0
  0
LINE
  5
33
330
17
100
AcDbEntity
  8
CUT
100
AcDbLine
 10
4.731575579700546
 20
64.42222135438436
 30
0.0
 11
0.0
 21
53.13923343355998
 31
0.0
  0
LINE
  5
34
330
17
100
AcDbEntity
  8
CUT
100
AcDbLine
 10
0.0
 20
53.13923343355998
 30
0.0
 11
5.823477636554518
 21
43.312114921874226
 31
0.0
  0
LINE
  5
35
330
17
100
AcDbEntity
  8
CUT
100
AcDbLine
 10
5.823477636554518
 20
43.312114921874226
 30
0.0
 11
5.823477636554518
 21
37.12466993303505
 31
0.0
  0
LINE
  5
36
330
17
100
AcDbEntity
  8
CUT
100
AcDbLine
 10
5.823477636554518
 20
37.12466993303505
 30
0.0
 11
14.558694091386295
 21
30.20929023962656
 31
0.0
  0
LINE
  5
37
330
17
100
AcDbEntity
  8
CUT
100
AcDbLine
 10
14.558694091386295
 20
30.20929023962656
 30
0.0
 11
14.558694091386295
 21
25.113747307641358
 31
0.0
  0
LINE
  5
38
330
17
100
AcDbEntity
  8
CUT
100
AcDbLine
 10
14.558694091386295
 20
25.113747307641358
 30
0.0
 11
16.74249820509424
 21
20.382171727940815
 31
0.0
  0
LINE
  5
39
330
17
100
AcDbEntity
  8
CUT
100
AcDbLine
 10
16.74249820509424
 20
20.382171727940815
 30
0.0
 11
24.021845250787386
 21
12.738857329963007
 31
0.0
  0
LINE
  5
3A
330
17
100
AcDbEntity
  8
CUT
100
AcDbLine
 10
24.021845250787386
 20
12.738857329963007
 30
0.0
 11
30.57325759191122
 21
8.37124910254712
 31
0.0
  0
LINE
  5
3B
330
17
100
AcDbEntity
  8
CUT
100
AcDbLine
 10
30.57325759191122
 20
8.37124910254712
 30
0.0
 11
32.393094353334504
 21
2.911738818277259
 31
0.0
  0
LINE
  5
3C
330
17
100
AcDbEntity
  8
CUT
100
AcDbLine
 10
32.393094353334504
 20
2.911738818277259
 30
0.0
 11
37.852604637604365
 21
0.0
 31
0.0
  0
LINE
  5
3D
330
17
100
AcDbEntity
  8
CUT
100
AcDbLine
 10
37.852604637604365
 20
0.0
 30
0.0
 11
41.492278160450944
 21
0.7279347045693147
 31
0.0
  0
LINE
  5
3E
330
17
100
AcDbEntity
  8
CUT
100
AcDbLine
 10
41.492278160450944
 20
0.7279347045693147
 30
0.0
 11
47.31575579700546
 21
13.83075938681698
 31
0.0
  0
LINE
  5
3F
330
17
100
AcDbEntity
  8
CUT
100
AcDbLine
 10
47.31575579700546
 20
13.83075938681698
 30
0.0
 11
53.13923343355998
 21
14.922661443670952
 31
0.0
  0
LINE
  5
40
330
17
100
AcDbEntity
  8
CUT
100
AcDbLine
 10
53.13923343355998
 20
14.922661443670952
 30
0.0
 11
55.32303754726792
 21
17.106465557378897
 31
0.0
  0
LINE
  5
41
330
17
100
AcDbEntity
  8
CUT
100
AcDbLine
 10
55.32303754726792
 20
17.106465557378897
 30
0.0
 11
45.131951683297515
 21
15.650596148240266
 31
0.0
  0
LINE
  5
42
330
17
100
AcDbEntity
  8
CUT
100
AcDbLine
 10
45.131951683297515
 20
15.650596148240266
 30
0.0
 11
45.85988638786683
 21
13.466792034532324
 31
0.0
  0
LINE
  5
43
330
17
100
AcDbEntity
  8
CUT
100
AcDbLine
 10
45.85988638786683
 20
13.466792034532324
 30
0.0
 11
40.76434345588163
 21
1.8198367614232869
 31
0.0
  0
LINE
  5
44
330
17
100
AcDbEntity
  8
CUT
100
AcDbLine
 10
40.76434345588163
 20
1.8198367614232869
 30
0.0
 11
37.12466993303505
 21
1.4558694091386295
 31
0.0
  0
LINE
  5
45
330
17
100
AcDbEntity
  8
CUT
100
AcDbLine
 10
37.12466993303505
 20
1.4558694091386295
 30
0.0
 11
33.48499641018848
 21
3.6396735228465737
 31
0.0
  0
LINE
  5
46
330
17
100
AcDbEntity
  8
CUT
100
AcDbLine
 10
33.48499641018848
 20
3.6396735228465737
 30
0.0
 11
32.393094353334504
 21
7.643314397977805
 31
0.0
  0
LINE
  5
47
330
17
100
AcDbEntity
  8
CUT
100
AcDbLine
 10
32.393094353334504
 20
7.643314397977805
 30
0.0
 11
39.308474046742994
 21
13.102824682247665
 31
0.0
  0
LINE
  5
48
330
17
100
AcDbEntity
  8
CUT
100
AcDbLine
 10
39.308474046742994
 20
13.102824682247665
 30
0.0
 11
43.67608227415889
 21
21.838041137079443
 31
0.0
  0
LINE
  5
49
330
17
100
AcDbEntity
  8
CUT
100
AcDbLine
 10
43.67608227415889
 20
21.838041137079443
 30
0.0
 11
43.67608227415889
 21
26.933584069064647
 31
0.0
  0
LINE
  5
4A
330
17
100
AcDbEntity
  8
CUT
100
AcDbLine
 10
43.67608227415889
 20
26.933584069064647
 30
0.0
 11
46.22385374015148
 21
27.66151877363396
 31
0.0
  0
LINE
  5
4B
330
17
100
AcDbEntity
  8
CUT
100
AcDbLine
 10
46.22385374015148
 20
27.66151877363396
 30
0.0
 11
50.591461967567376
 21
24.021845250787386
 31
0.0
  0
LINE
  5
4C
330
17
100
AcDbEntity
  8
CUT
100
AcDbLine
 10
50.591461967567376
 20
24.021845250787386
 30
0.0
 11
48.77162520614409
 21
19.654237023371497
 31
0.0
  0
LINE
  5
4D
330
17
100
AcDbEntity
  8
CUT
100
AcDbLine
 10
48.77162520614409
 20
19.654237023371497
 30
0.0
 11
46.22385374015148
 21
17.470432909663554
 31
0.0
  0
LINE
  5
4E
330
17
100
AcDbEntity
  8
CUT
100
AcDbLine
 10
46.22385374015148
 20
17.470432909663554
 30
0.0
 11
52.77526608127532
 21
17.106465557378897
 31
0.0
  0
LINE
  5
4F
330
17
100
AcDbEntity
  8
CUT
100
AcDbLine
 10
52.77526608127532
 20
17.106465557378897
 30
0.0
 11
57.506841660975866
 21
19.654237023371497
 31
0.0
  0
LINE
  5
50
330
17
100
AcDbEntity
  8
CUT
100
AcDbLine
 10
57.506841660975866
 20
19.654237023371497
 30
0.0
 11
49.4995599107134
 21
18.926302318802183
 31
0.0
  0
LINE
  5
51
330
17
100
AcDbEntity
  8
CUT
100
AcDbLine
 10
49.4995599107134
 20
18.926302318802183
 30
0.0
 11
52.047331376706005
 21
24.021845250787386
 31
0.0
  0
LINE
  5
52
330
17
100
AcDbEntity
  8
CUT
100
AcDbLine
 10
52.047331376706005
 20
24.021845250787386
 30
0.0
 11
49.13559255842875
 21
27.66151877363396
 31
0.0
  0
LINE
  5
53
330
17
100
AcDbEntity
  8
CUT
100
AcDbLine
 10
49.13559255842875
 20
27.66151877363396
 30
0.0
 11
42.22021286502026
 21
28.389453478203276
 31
0.0
  0
LINE
  5
54
330
17
100
AcDbEntity
  8
CUT
100
AcDbLine
 10
42.22021286502026
 20
28.389453478203276
 30
0.0
 11
27.66151877363396
 21
38.94450669445834
 31
0.0
  0
LINE
  5
55
330
17
100
AcDbEntity
  8
CUT
100
AcDbLine
 10
27.66151877363396
 20
38.94450669445834
 30
0.0
 11
23.65787789850273
 21
40.40037610359697
 31
0.0
  0
LINE
  5
56
330
17
100
AcDbEntity
  8
CUT
100
AcDbLine
 10
23.65787789850273
 20
40.40037610359697
 30
0.0
 11
21.11010643251013
 21
39.672441399027655
 31
0.0
  0
LINE
  5
57
330
17
100
AcDbEntity
  8
CUT
100
AcDbLine
 10
21.11010643251013
 20
39.672441399027655
 30
0.0
 11
17.83440026194821
 21
41.8562455127356
 31
0.0
  0
LINE
  5
58
330
17
100
AcDbEntity
  8
CUT
100
AcDbLine
 10
17.83440026194821
 20
41.8562455127356
 30
0.0
 11
17.83440026194821
 21
45.131951683297515
 31
0.0
  0
LINE
  5
59
330
17
100
AcDbEntity
  8
CUT
100
AcDbLine
 10
17.83440026194821
 20
45.131951683297515
 30
0.0
 11
12.37488997767835
 21
52.41129872899066
 31
0.0
  0
LINE
  5
5A
330
17
100
AcDbEntity
  8
CUT
100
AcDbLine
 10
12.37488997767835
 20
52.41129872899066
 30
0.0
 11
12.738857329963007
 21
53.867168138129294
 31
0.0
  0
LINE
  5
5B
330
17
100
AcDbEntity
  8
CUT
100
AcDbLine
 10
12.738857329963007
 20
53.867168138129294
 30
0.0
 11
4.003640875131231
 21
65.15015605895367
 31
0.0
  0
LINE
  5
5C
330
17
100
AcDbEntity
  8
CUT
100
AcDbLine
 10
4.003640875131231
 20
65.15015605895367
 30
0.0
 11
5.823477636554518
 21
65.51412341123833
 31
0.0
  0
LINE
  5
5D
330
17
100
AcDbEntity
  8
CUT
100
AcDbLine
 10
5.823477636554518
 20
65.51412341123833
 30
0.0
 11
3.275706170561916
 21
65.51412341123833
 31
0.0
  0
LINE
  5
5E
330
17
100
AcDbEntity
  8
SCORE
100
AcDbLine
 10
170.70068822150432
 20
213.70083112713453
 30
0.0
 11
282.8026327251788
 21
213.70083112713453
 31
0.0
  0
LINE
  5
5F
330
17
100
AcDbEntity
  8
SCORE
100
AcDbLine
 10
21.474073784794786
 20
83.25753183511537
 30
0.0
 11
129.9363447656227
 21
83.25753183511537
 31
0.0
  0
LINE
  5
60
330
17
100
AcDbEntity
  8
SCORE
100
AcDbLine
 10
231.11926870075743
 20
55.777996737623745
 30
0.0
 11
256.2330160083988
 21
55.777996737623745
 31
0.0
  0
LINE
  5
61
330
17
100
AcDbEntity
  8
SCORE
100
AcDbLine
 10
-45.49591903558217
 20
13.60327979163907
 30
0.0
 11
369.79082992121187
 21
13.60327979163907
 31
0.0
  0
LINE
  5
62
330
17
100
AcDbEntity
  8
SCORE
100
AcDbLine
 10
149.59058178899417
 20
156.39677127671726
 30
0.0
 11
290.08197977087195
 21
156.39677127671726
 31
0.0
  0
LINE
  5
63
330
17
100
AcDbEntity
  8
SCORE
100
AcDbLine
 10
234.39497487131936
 20
60.782547831537784
 30
0.0
 11
262.7844283495226
 21
60.782547831537784
 31
0.0
  0
LINE
  5
64
330
17
100
AcDbEntity
  8
SCORE
100
AcDbLine
 10
-72.06553575236217
 20
27.47953509749163
 30
0.0
 11
41.492278160450944
 21
27.47953509749163
 31
0.0
  0
LINE
  5
65
330
17
100
AcDbEntity
  8
SCORE
100
AcDbLine
 10
-37.12466993303505
 20
4.18562455127356
 30
0.0
 11
243.85812603072043
 21
4.18562455127356
 31
0.0
  0
LINE
  5
66
330
17
100
AcDbEntity
  8
SCORE
100
AcDbLine
 10
-24.7497799553567
 20
-65.75676831276142
 30
0.0
 11
449.1357127192672
 21
-65.75676831276142
 31
0.0
  0
LINE
  5
67
330
17
100
AcDbEntity
  8
SCORE
100
AcDbLine
 10
-40.76434345588163
 20
17.652416585805884
 30
0.0
 11
370.15479727349657
 21
17.652416585805884
 31
0.0
  0
LINE
  5
68
330
17
100
AcDbEntity
  8
SCORE
100
AcDbLine
 10
383.25762195574424
 20
73.5214051615008
 30
0.0
 11
408.00740191110094
 21
73.5214051615008
 31
0.0
  0
LINE
  5
69
330
17
100
AcDbEntity
  8
SCORE
100
AcDbLine
 10
46.22385374015148
 20
218.38041137079443
 30
0.0
 11
199.09014169970757
 21
218.38041137079443
 31
0.0
  0
LINE
  5
6A
330
17
100
AcDbEntity
  8
SCORE
100
AcDbLine
 10
-90.62787071887969
 20
8.735216454831777
 30
0.0
 11
-10.919020568539722
 21
8.735216454831777
 31
0.0
  0
LINE
  5
6B
330
17
100
AcDbEntity
  8
SCORE
100
AcDbLine
 10
-13.83075938681698
 20
123.56691610064118
 30
0.0
 11
52.41129872899066
 21
123.56691610064118
 31
0.0
  0
LINE
  5
6C
330
17
100
AcDbEntity
  8
SCORE
100
AcDbLine
 10
133.93998564075392
 20
-117.19748743565968
 30
0.0
 11
198.72617434742293
 21
-117.19748743565968
 31
0.0
  0
LINE
  5
6D
330
17
100
AcDbEntity
  8
SCORE
100
AcDbLine
 10
-60.782547831537784
 20
-92.6296911564453
 30
0.0
 11
-40.03640875131231
 21
-92.6296911564453
 31
0.0
  0
LINE
  5
6E
330
17
100
AcDbEntity
  8
SCORE
100
AcDbLine
 10
173.97639439206623
 20
50.95542931985203
 30
0.0
 11
197.63427229056896
 21
50.95542931985203
 31
0.0
  0
LINE
  5
6F
330
17
100
AcDbEntity
  8
SCORE
100
AcDbLine
 10
-53.13923343355998
 20
-62.602384592961066
 30
0.0
 11
-30.20929023962656
 21
-62.602384592961066
 31
0.0
  0
LINE
  5
70
330
17
100
AcDbEntity
  8
SCORE
100
AcDbLine
 10
327.5706170561916
 20
189.99095789259115
 30
0.0
 11
351.59246230697903
 21
189.99095789259115
 31
0.0
  0
LINE
  5
71
330
17
100
AcDbEntity
  8
SCORE
100
AcDbLine
 10
279.52692655461686
 20
142.6752020955857
 30
0.0
 11
306.4605106236815
 21
142.6752020955857
 31
0.0
  0
LINE
  5
72
330
17
100
AcDbEntity
  8
SCORE
100
AcDbLine
 10
-83.34852367318653
 20
-3.8216571989889023
 30
0.0
 11
251.13747307641358
 21
-3.8216571989889023
 31
0.0
  0
LINE
  5
73
330
17
100
AcDbEntity
  8
SCORE
100
AcDbLine
 10
-17.83440026194821
 20
86.98819719603311
 30
0.0
 11
13.83075938681698
 21
86.98819719603311
 31
0.0
  0
LINE
  5
74
330
17
100
AcDbEntity
  8
SCORE
100
AcDbLine
 10
-42.22021286502026
 20
-104.00367091534085
 30
0.0
 11
-5.095542931985204
 21
-104.00367091534085
 31
0.0
  0
LINE
  5
75
330
17
100
AcDbEntity
  8
SCORE
100
AcDbLine
 10
11.282987920824379
 20
-17.470432909663554
 30
0.0
 11
33.84896376247313
 21
-17.470432909663554
 31
0.0
  0
LINE
  5
76
330
17
100
AcDbEntity
  8
SCORE
100
AcDbLine
 10
6.551412341123832
 20
-71.82289085083907
 30
0.0
 11
387.98919753544476
 21
-71.82289085083907
 31
0.0
  0
LINE
  5
77
330
17
100
AcDbEntity
  8
SCORE
100
AcDbLine
 10
120.47319360622159
 20
-171.7925902783583
 30
0.0
 11
147.0428103230016
 21
-171.7925902783583
 31
0.0
  0
LINE
  5
78
330
17
100
AcDbEntity
  8
SCORE
100
AcDbLine
 10
364.33131963694206
 20
120.29120993007926
 30
0.0
 11
383.98555666031353
 21
120.29120993007926
 31
0.0
  0
LINE
  5
79
330
17
100
AcDbEntity
  8
SCORE
100
AcDbLine
 10
86.94270127699752
 20
-135.03188769760789
 30
0.0
 11
86.94270127699752
 21
92.44770748030297
 31
0.0
  0
LINE
  5
7A
330
17
100
AcDbEntity
  8
SCORE
100
AcDbLine
 10
297.0216239544327
 20
-199.45410905199225
 30
0.0
 11
297.0216239544327
 21
62.602384592961066
 31
0.0
  0
LINE
  5
7B
330
17
100
AcDbEntity
  8
SCORE
100
AcDbLine
 10
144.82867559660323
 20
-106.27846686711996
 30
0.0
 11
144.82867559660323
 21
135.7598224021772
 31
0.0
  0
LINE
  5
7C
330
17
100
AcDbEntity
  8
SCORE
100
AcDbLine
 10
90.99183807116434
 20
16.014563500524925
 30
0.0
 11
90.99183807116434
 21
68.06189487723093
 31
0.0
  0
LINE
  5
7D
330
17
100
AcDbEntity
  8
SCORE
100
AcDbLine
 10
355.1593423593686
 20
-165.24117793723445
 30
0.0
 11
355.1593423593686
 21
108.82623833311256
 31
0.0
  0
LINE
  5
7E
330
17
100
AcDbEntity
  8
SCORE
100
AcDbLine
 10
129.48138557526687
 20
-145.95090826614762
 30
0.0
 11
129.48138557526687
 21
-100.45498923056543
 31
0.0
  0
LINE
  5
7F
330
17
100
AcDbEntity
  8
SCORE
100
AcDbLine
 10
364.51330331308435
 20
-1.4558694091386295
 30
0.0
 11
364.51330331308435
 21
185.98731701745993
 31
0.0
  0
LINE
  5
80
330
17
100
AcDbEntity
  8
SCORE
100
AcDbLine
 10
423.90064296086433
 20
-32.393094353334504
 30
0.0
 11
423.90064296086433
 21
81.8926542640479
 31
0.0
  0
LINE
  5
81
330
17
100
AcDbEntity
  8
SCORE
100
AcDbLine
 10
242.82688519924724
 20
-204.91361933626212
 30
0.0
 11
242.82688519924724
 21
8.37124910254712
 31
0.0
  0
LINE
  5
82
330
17
100
AcDbEntity
  8
SCORE
100
AcDbLine
 10
267.92041209842836
 20
-216.19660725708647
 30
0.0
 11
267.92041209842836
 21
65.51412341123833
 31
0.0
  0
LINE
  5
83
330
17
100
AcDbEntity
  8
SCORE
100
AcDbLine
 10
206.4604805834719
 20
-219.4723134276484
 30
0.0
 11
206.4604805834719
 21
8.37124910254712
 31
0.0
  0
LINE
  5
84
330
17
100
AcDbEntity
  8
SCORE
100
AcDbLine
 10
148.08921646081998
 20
-77.52504603663202
 30
0.0
 11
148.08921646081998
 21
189.26302318802183
 31
0.0
  0
LINE
  5
85
330
17
100
AcDbEntity
  8
SCORE
100
AcDbLine
 10
256.59698336068345
 20
-206.36948874540073
 30
0.0
 11
256.59698336068345
 21
-59.326678422399155
 31
0.0
  0
LINE
  5
86
330
17
100
AcDbEntity
  8
SCORE
100
AcDbLine
 10
238.53510350355734
 20
-206.36948874540073
 30
0.0
 11
238.53510350355734
 21
66.96999282037696
 31
0.0
  0
LINE
  5
87
330
17
100
AcDbEntity
  8
SCORE
100
AcDbLine
 10
351.92003292403524
 20
-77.88901338891668
 30
0.0
 11
351.92003292403524
 21
82.25662161633257
 31
0.0
  0
LINE
  5
88
330
17
100
AcDbEntity
  8
SCORE
100
AcDbLine
 10
303.685259562511
 20
64.0582540020997
 30
0.0
 11
303.685259562511
 21
169.24481881236568
 31
0.0
  0
LINE
  5
89
330
17
100
AcDbEntity
  8
SCORE
100
AcDbLine
 10
230.58469165208933
 20
-205.6415540408314
 30
0.0
 11
230.58469165208933
 21
168.51688410779636
 31
0.0
  0
LINE
  5
8A
330
17
100
AcDbEntity
  8
SCORE
100
AcDbLine
 10
263.5578589731275
 20
-206.73345609768538
 30
0.0
 11
263.5578589731275
 21
-180.8917740854747
 31
0.0
  0
LINE
  5
8B
330
17
100
AcDbEntity
  8
SCORE
100
AcDbLine
 10
299.9090982825577
 20
-69.88173163865422
 30
0.0
 11
299.9090982825577
 21
97.90721776457283
 31
0.0
  0
LINE
  5
8C
330
17
100
AcDbEntity
  8
SCORE
100
AcDbLine
 10
218.9263623992214
 20
-202.3658478702695
 30
0.0
 11
218.9263623992214
 21
-177.98003526719745
 31
0.0
  0
LINE
  5
8D
330
17
100
AcDbEntity
  8
SCORE
100
AcDbLine
 10
201.3346070387963
 20
-209.64519491596263
 30
0.0
 11
201.3346070387963
 21
169.24481881236568
 31
0.0
  0
LINE
  5
8E
330
17
100
AcDbEntity
  8
SCORE
100
AcDbLine
 10
134.9863917785723
 20
-84.44042573004052
 30
0.0
 11
134.9863917785723
 21
-46.587821092436144
 31
0.0
  0
LINE
  5
8F
330
17
100
AcDbEntity
  8
SCORE
100
AcDbLine
 10
247.9345603763086
 20
-204.1856846316928
 30
0.0
 11
247.9345603763086
 21
70.97363369550818
 31
0.0
  0
LINE
  5
90
330
17
100
AcDbEntity
  8
SCORE
100
AcDbLine
 10
152.13835325498678
 20
99.36308717371146
 30
0.0
 11
152.13835325498678
 21
187.80715377888322
 31
0.0
  0
LINE
  5
91
330
17
100
AcDbEntity
  8
SCORE
100
AcDbLine
 10
291.03739407061914
 20
14.922661443670952
 30
0.0
 11
291.03739407061914
 21
153.95819001641007
 31
0.0
  0
LINE
  5
92
330
17
100
AcDbEntity
  8
SCORE
100
AcDbLine
 10
81.61967874983442
 20
-90.99183807116434
 30
0.0
 11
81.61967874983442
 21
-18.926302318802183
 31
0.0
  0
LINE
  5
93
330
17
100
AcDbEntity
  8
SCORE
100
AcDbLine
 10
179.79987202862074
 20
103.00276069655804
 30
0.0
 11
179.79987202862074
 21
124.47683448135282
 31
0.0
  0
LINE
  5
94
330
17
100
AcDbEntity
  8
SCORE
100
AcDbLine
 10
193.99459876772238
 20
-4.3676082274158885
 30
0.0
 11
193.99459876772238
 21
74.97727457063942
 31
0.0
  0
LINE
  5
95
330
17
100
AcDbEntity
  8
SCORE
100
AcDbLine
 10
211.46503167738592
 20
-201.27394581341554
 30
0.0
 11
211.46503167738592
 21
-181.25574143775938
 31
0.0
  0
LINE
  5
96
330
17
100
AcDbEntity
  8
SCORE
100
AcDbLine
 10
345.7689846704245
 20
100.45498923056543
 30
0.0
 11
345.7689846704245
 21
120.10922625393694
 31
0.0
  0
LINE
  5
97
330
17
100
AcDbEntity
  8
SCORE
100
AcDbLine
 10
308.64431473738944
 20
-74.61330721835476
 30
0.0
 11
308.64431473738944
 21
-55.32303754726792
 31
0.0
  0
LINE
  5
98
330
17
100
AcDbEntity
  8
SCORE
100
AcDbLine
 10
358.50784200038754
 20
53.50320078584463
 30
0.0
 11
358.50784200038754
 21
148.13471237985556
 31
0.0
  0
LINE
  5
99
330
17
100
AcDbEntity
  8
SCORE
100
AcDbLine
 10
283.89453478203274
 20
-91.71977277573366
 30
0.0
 11
283.89453478203274
 21
-73.15743780921613
 31
0.0
  0
LINE
  5
9A
330
17
100
AcDbEntity
  8
SCORE
100
AcDbLine
 10
140.18809185497386
 20
-32.757061705619165
 30
0.0
 11
140.18809185497386
 21
49.4995599107134
 31
0.0
  0
LINE
  5
9B
330
17
100
AcDbEntity
  8
FLAP
100
AcDbLine
 10
-14.558694091386295
 20
41.12831080816628
 30
0.0
 11
40.40037610359697
 21
68.06189487723093
 31
0.0
  0
LINE
  5
9C
330
17
100
AcDbEntity
  8
FLAP
100
AcDbLine
 10
196.17840288143032
 20
-168.51688410779636
 30
0.0
 11
234.758942223604
 21
-207.09742344997005
 31
0.0
  0
LINE
  5
9D
330
17
100
AcDbEntity
  8
FLAP
100
AcDbLine
 10
179.07193732405142
 20
-182.711610846898
 30
0.0
 11
217.28850931394047
 21
-220.92818283678702
 31
0.0
  0
LINE
  5
9E
330
17
100
AcDbEntity
  8
FLAP
100
AcDbLine
 10
-10.919020568539722
 20
84.07645837775586
 30
0.0
 11
30.937224944195876
 21
50.227494615282716
 31
0.0
  0
LINE
  5
9F
330
17
100
AcDbEntity
  8
FLAP
100
AcDbLine
 10
4.3676082274158885
 20
96.81531570771887
 30
0.0
 11
41.8562455127356
 21
59.326678422399155
 31
0.0
  0
LINE
  5
A0
330
17
100
AcDbEntity
  8
FLAP
100
AcDbLine
 10
5.823477636554518
 20
40.40037610359697
 30
0.0
 11
50.227494615282716
 21
14.922661443670952
 31
0.0
  0
LINE
  5
A1
330
17
100
AcDbEntity
  8
FLAP
100
AcDbLine
 10
2.547771465992602
 20
75.34124192292407
 30
0.0
 11
38.58053934217368
 21
40.40037610359697
 31
0.0
  0
LINE
  5
A2
330
17
100
AcDbEntity
  8
FLAP
100
AcDbLine
 10
194.35856612000703
 20
-167.4249820509424
 30
0.0
 11
226.38769312105688
 21
-205.6415540408314
 31
0.0
  0
LINE
  5
A3
330
17
100
AcDbEntity
  8
FLAP
100
AcDbLine
 10
188.5350884834525
 20
-186.71525172202922
 30
0.0
 11
222.38405224592566
 21
-220.56421548450237
 31
0.0
  0
LINE
  5
A4
330
17
100
AcDbEntity
  8
FLAP
100
AcDbLine
 10
-17.83440026194821
 20
58.962711070114494
 30
0.0
 11
22.929943193933415
 21
34.57689846704245
 31
0.0
  0
LINE
  5
A5
330
17
100
AcDbEntity
  8
FLAP
100
AcDbLine
 10
188.17112113116787
 20
-175.79623115348952
 30
0.0
 11
211.8289990296706
 21
-216.9245419616558
 31
0.0
  0
LINE
  5
A6
330
17
100
AcDbEntity
  8
FLAP
100
AcDbLine
 10
185.62334966517525
 20
-181.25574143775938
 30
0.0
 11
211.46503167738592
 21
-220.92818283678702
 31
0.0
  0
LINE
  5
A7
330
17
100
AcDbEntity
  8
FLAP
100
AcDbLine
 10
10.191085863970407
 20
30.937224944195876
 30
0.0
 11
42.94814756958957
 21
-1.8198367614232869
 31
0.0
  0
LINE
  5
A8
330
17
100
AcDbEntity
  8
FLAP
100
AcDbLine
 10
12.37488997767835
 20
37.852604637604365
 30
0.0
 11
52.047331376706005
 21
14.922661443670952
 31
0.0
  0
LINE
  5
A9
330
17
100
AcDbEntity
  8
FLAP
100
AcDbLine
 10
251.50144042869826
 20
-175.43226380120487
 30
0.0
 11
283.5305674297481
 21
-207.4613908022547
 31
0.0
  0
LINE
  5
AA
330
17
100
AcDbEntity
  8
FLAP
100
AcDbLine
 10
251.13747307641358
 20
-176.16019850577416
 30
0.0
 11
282.8026327251788
 21
-207.82535815453937
 31
0.0
  0
LINE
  5
AB
330
17
100
AcDbEntity
  8
FLAP
100
AcDbLine
 10
16.014563500524925
 20
87.71613190060243
 30
0.0
 11
40.76434345588163
 21
50.95542931985203
 31
0.0
  0
LINE
  5
AC
330
17
100
AcDbEntity
  8
FLAP
100
AcDbLine
 10
197.63427229056896
 20
-171.7925902783583
 30
0.0
 11
225.29579106420292
 21
-205.6415540408314
 31
0.0
  0
LINE
  5
AD
330
17
100
AcDbEntity
  8
FLAP
100
AcDbLine
 10
193.99459876772238
 20
-184.89541496060593
 30
0.0
 11
218.38041137079443
 21
-220.92818283678702
 31
0.0
  0
LINE
  5
AE
330
17
100
AcDbEntity
  8
FLAP
100
AcDbLine
 10
-0.3639673522846574
 20
16.014563500524925
 30
0.0
 11
42.58418021730491
 21
22.565975841648758
 31
0.0
  0
LINE
  5
AF
330
17
100
AcDbEntity
  8
FLAP
100
AcDbLine
 10
22.2020084893641
 20
40.03640875131231
 30
0.0
 11
52.77526608127532
 21
9.463151159401091
 31
0.0
  0
LINE
  5
B0
330
17
100
AcDbEntity
  8
FLAP
100
AcDbLine
 10
-5.095542931985204
 20
74.2493398660701
 30
0.0
 11
30.57325759191122
 21
50.227494615282716
 31
0.0
  0
LINE
  5
B1
330
17
100
AcDbEntity
  8
FLAP
100
AcDbLine
 10
3.6396735228465737
 20
59.326678422399155
 30
0.0
 11
44.4040169787282
 21
46.587821092436144
 31
0.0
  0
LINE
  5
B2
330
17
100
AcDbEntity
  8
FLAP
100
AcDbLine
 10
197.9982396428536
 20
-167.78894940322704
 30
0.0
 11
227.84356253019553
 21
-197.63427229056896
 31
0.0
  0
LINE
  5
B3
330
17
100
AcDbEntity
  8
FLAP
100
AcDbLine
 10
272.2475795089237
 20
-181.25574143775938
 30
0.0
 11
302.09290239626563
 21
-211.10106432510128
 31
0.0
  0
LINE
  5
B4
330
17
100
AcDbEntity
  8
FLAP
100
AcDbLine
 10
246.0419301444284
 20
19.654237023371497
 30
0.0
 11
268.9718733383618
 21
-15.650596148240266
 31
0.0
  0
LINE
  5
B5
330
17
100
AcDbEntity
  8
FLAP
100
AcDbLine
 10
197.63427229056896
 20
-184.5314476083213
 30
0.0
 11
219.83628077993305
 21
-220.20024813221772
 31
0.0
  0
LINE
  5
B6
330
17
100
AcDbEntity
  8
FLAP
100
AcDbLine
 10
5.823477636554518
 20
40.03640875131231
 30
0.0
 11
40.40037610359697
 21
18.19836761423287
 31
0.0
  0
LINE
  5
B7
330
17
100
AcDbEntity
  8
FLAP
100
AcDbLine
 10
230.3913339961881
 20
6.551412341123832
 30
0.0
 11
257.68888541753745
 21
-23.65787789850273
 31
0.0
  0
LINE
  5
B8
330
17
100
AcDbEntity
  8
FLAP
100
AcDbLine
 10
5.823477636554518
 20
38.58053934217368
 30
0.0
 11
39.672441399027655
 21
16.74249820509424
 31
0.0
  0
LINE
  5
B9
330
17
100
AcDbEntity
  8
FLAP
100
AcDbLine
 10
-46.22385374015148
 20
24.7497799553567
 30
0.0
 11
-11.282987920824379
 21
4.731575579700546
 31
0.0
  0
LINE
  5
BA
330
17
100
AcDbEntity
  8
FLAP
100
AcDbLine
 10
9.827118511685748
 20
40.03640875131231
 30
0.0
 11
38.216571989889026
 21
11.646955273109036
 31
0.0
  0
LINE
  5
BB
330
17
100
AcDbEntity
  8
FLAP
100
AcDbLine
 10
-4.3676082274158885
 20
17.106465557378897
 30
0.0
 11
31.301192296480533
 21
-1.0919020568539721
 31
0.0
  0
LINE
  5
BC
330
17
100
AcDbEntity
  8
FLAP
100
AcDbLine
 10
236.21481163274262
 20
-176.52416585805884
 30
0.0
 11
267.5160039292232
 21
-200.90997846113086
 31
0.0
  0
LINE
  5
BD
330
17
100
AcDbEntity
  8
FLAP
100
AcDbLine
 10
1.8198367614232869
 20
7.2793470456931475
 30
0.0
 11
33.84896376247313
 21
-16.014563500524925
 31
0.0
  0
LINE
  5
BE
330
17
100
AcDbEntity
  8
FLAP
100
AcDbLine
 10
3.6396735228465737
 20
95.72341365086488
 30
0.0
 11
31.66515964876519
 21
68.42586222951559
 31
0.0
  0
LINE
  5
BF
330
17
100
AcDbEntity
  8
FLAP
100
AcDbLine
 10
-2.547771465992602
 20
18.19836761423287
 30
0.0
 11
31.301192296480533
 21
-0.7279347045693147
 31
0.0
  0
LINE
  5
C0
330
17
100
AcDbEntity
  8
FLAP
100
AcDbLine
 10
191.81079465401444
 20
-176.52416585805884
 30
0.0
 11
219.10834607536373
 21
-203.82171727940812
 31
0.0
  0
LINE
  5
C1
330
17
100
AcDbEntity
  8
FLAP
100
AcDbLine
 10
205.27758668854676
 20
-177.25210056262813
 30
0.0
 11
229.66339929161882
 21
-207.09742344997005
 31
0.0
  0
LINE
  5
C2
330
17
100
AcDbEntity
  8
FLAP
100
AcDbLine
 10
-30.20929023962656
 20
108.82623833311256
 30
0.0
 11
-3.275706170561916
 21
81.8926542640479
 31
0.0
  0
LINE
  5
C3
330
17
100
AcDbEntity
  8
FLAP
100
AcDbLine
 10
17.83440026194821
 20
79.70885015033997
 30
0.0
 11
44.767984331012855
 21
52.77526608127532
 31
0.0
  0
LINE
  5
C4
330
17
100
AcDbEntity
  8
FLAP
100
AcDbLine
 10
224.20388900734895
 20
-191.44682730172977
 30
0.0
 11
251.13747307641358
 21
-218.38041137079443
 31
0.0
  0
LINE
  5
C5
330
17
100
AcDbEntity
  8
FLAP
100
AcDbLine
 10
260.9645915880993
 20
-180.8917740854747
 30
0.0
 11
287.5342083048793
 21
-207.4613908022547
 31
0.0
  0
LINE
  5
C6
330
17
100
AcDbEntity
  8
FLAP
100
AcDbLine
 10
222.020084893641
 20
-179.79987202862074
 30
0.0
 11
248.58970161042097
 21
-206.36948874540073
 31
0.0
  0
LINE
  5
C7
330
17
100
AcDbEntity
  8
FLAP
100
AcDbLine
 10
-12.37488997767835
 20
7.2793470456931475
 30
0.0
 11
19.654237023371497
 21
26.56961671677999
 31
0.0
  0
LINE
  5
C8
330
17
100
AcDbEntity
  8
FLAP
100
AcDbLine
 10
5.823477636554518
 20
41.8562455127356
 30
0.0
 11
33.12102905790382
 21
16.378530852809583
 31
0.0
  0
LINE
  5
C9
330
17
100
AcDbEntity
  8
FLAP
100
AcDbLine
 10
188.8990558357372
 20
-183.07557819918267
 30
0.0
 11
208.91726021139334
 21
-214.37677049566318
 31
0.0
  0
LINE
  5
CA
330
17
100
AcDbEntity
  8
FLAP
100
AcDbLine
 10
186.71525172202922
 20
-178.70796997176677
 30
0.0
 11
213.2848684388092
 21
-204.1856846316928
 31
0.0
  0
LINE
  5
CB
330
17
100
AcDbEntity
  8
FLAP
100
AcDbLine
 10
200.54601110884622
 20
-178.34400261948213
 30
0.0
 11
224.93182371191827
 21
-205.6415540408314
 31
0.0
  0
LINE
  5
CC
330
17
100
AcDbEntity
  8
FLAP
100
AcDbLine
 10
292.9937185891492
 20
-168.51688410779636
 30
0.0
 11
325.3868129424837
 21
-184.89541496060593
 31
0.0
  0
LINE
  5
CD
330
17
100
AcDbEntity
  8
FLAP
100
AcDbLine
 10
4.3676082274158885
 20
75.34124192292407
 30
0.0
 11
31.66515964876519
 21
51.683364024421344
 31
0.0
  0
LINE
  5
CE
330
17
100
AcDbEntity
  8
FLAP
100
AcDbLine
 10
227.84356253019553
 20
-104.09466275341201
 30
0.0
 11
258.7807874743914
 21
-122.65699771992954
 31
0.0
  0
LINE
  5
CF
330
17
100
AcDbEntity
  8
FLAP
100
AcDbLine
 10
216.9245419616558
 20
-177.98003526719745
 30
0.0
 11
242.03828926929717
 21
-203.09378257483883
 31
0.0
  0
LINE
  5
D0
330
17
100
AcDbEntity
  8
FLAP
100
AcDbLine
 10
15.28662879595561
 20
40.76434345588163
 30
0.0
 11
40.40037610359697
 21
15.650596148240266
 31
0.0
  0
LINE
  5
D1
330
17
100
AcDbEntity
  8
FLAP
100
AcDbLine
 10
9.099183807116434
 20
-38.216571989889026
 30
0.0
 11
34.212931114757794
 21
-13.102824682247665
 31
0.0
  0
LINE
  5
D2
330
17
100
AcDbEntity
  8
FLAP
100
AcDbLine
 10
218.38041137079443
 20
-178.34400261948213
 30
0.0
 11
243.13019132615113
 21
-203.09378257483883
 31
0.0
  0
LINE
  5
D3
330
17
100
AcDbEntity
  8
FLAP
100
AcDbLine
 10
193.99459876772238
 20
-177.25210056262813
 30
0.0
 11
218.74437872307908
 21
-202.00188051798483
 31
0.0
  0
LINE
  5
D4
330
17
100
AcDbEntity
  8
FLAP
100
AcDbLine
 10
18.562334966517525
 20
80.07281750262462
 30
0.0
 11
44.04004962644354
 21
56.41493960412189
 31
0.0
  0
LINE
  5
D5
330
17
100
AcDbEntity
  8
FLAP
100
AcDbLine
 10
-9.827118511685748
 20
70.97363369550818
 30
0.0
 11
22.929943193933415
 21
59.69064577468381
 31
0.0
  0
LINE
  5
D6
330
17
100
AcDbEntity
  8
FLAP
100
AcDbLine
 10
229.66339929161882
 20
6.187444988839175
 30
0.0
 11
252.59334248555223
 21
-19.29026967108684
 31
0.0
  0
LINE
  5
D7
330
17
100
AcDbEntity
  8
FLAP
100
AcDbLine
 10
173.97639439206623
 20
66.24205811580764
 30
0.0
 11
182.34764349461335
 21
33.12102905790382
 31
0.0
  0
LINE
  5
D8
330
17
100
AcDbEntity
  8
FLAP
100
AcDbLine
 10
14.194726739101638
 20
67.33396017266162
 30
0.0
 11
40.40037610359697
 21
45.49591903558217
 31
0.0
  0
LINE
  5
D9
330
17
100
AcDbEntity
  8
FLAP
100
AcDbLine
 10
5.095542931985204
 20
76.43314397977805
 30
0.0
 11
28.389453478203276
 21
51.683364024421344
 31
0.0
  0
LINE
  5
DA
330
17
100
AcDbEntity
  8
FLAP
100
AcDbLine
 10
270.79171009978506
 20
-180.8917740854747
 30
0.0
 11
294.81355535057247
 21
-204.91361933626212
 31
0.0
  0
LINE
  5
DB
330
17
100
AcDbEntity
  8
FLAP
100
AcDbLine
 10
305.00464121454286
 20
136.12378975446185
 30
0.0
 11
334.1220293973155
 21
153.59422266412543
 31
0.0
  0
LINE
  5
DC
330
17
100
AcDbEntity
  8
FLAP
100
AcDbLine
 10
194.35856612000703
 20
-177.98003526719745
 30
0.0
 11
212.92090108652457
 21
-206.36948874540073
 31
0.0
  0
LINE
  5
DD
330
17
100
AcDbEntity
  8
FLAP
100
AcDbLine
 10
245.31399543985907
 20
-178.34400261948213
 30
0.0
 11
270.4277427475004
 21
-200.90997846113086
 31
0.0
  0
LINE
  5
DE
330
17
100
AcDbEntity
  8
FLAP
100
AcDbLine
 10
70.24569899093888
 20
-51.31939667213669
 30
0.0
 11
95.35944629858024
 21
-28.753420830487933
 31
0.0
  0
LINE
  5
DF
330
17
100
AcDbEntity
  8
FLAP
100
AcDbLine
 10
10.191085863970407
 20
61.14651518382244
 30
0.0
 11
41.8562455127356
 21
50.227494615282716
 31
0.0
  0
LINE
  5
E0
330
17
100
AcDbEntity
  8
FLAP
100
AcDbLine
 10
56.41493960412189
 20
28.02548612591862
 30
0.0
 11
80.07281750262462
 21
4.3676082274158885
 31
0.0
  0
LINE
  5
E1
330
17
100
AcDbEntity
  8
FLAP
100
AcDbLine
 10
18.19836761423287
 20
75.34124192292407
 30
0.0
 11
41.8562455127356
 21
51.683364024421344
 31
0.0
  0
LINE
  5
E2
330
17
100
AcDbEntity
  8
FLAP
100
AcDbLine
 10
15.28662879595561
 20
41.12831080816628
 30
0.0
 11
43.67608227415889
 21
24.021845250787386
 31
0.0
  0
LINE
  5
E3
330
17
100
AcDbEntity
  8
FLAP
100
AcDbLine
 10
-29.481355535057247
 20
17.470432909663554
 30
0.0
 11
-0.7279347045693147
 21
1.0919020568539721
 31
0.0
  0
LINE
  5
E4
330
17
100
AcDbEntity
  8
FLAP
100
AcDbLine
 10
228.9354645870495
 20
-177.6160679149128
 30
0.0
 11
252.22937513326755
 21
-200.90997846113086
 31
0.0
  0
LINE
  5
E5
330
17
100
AcDbEntity
  8
FLAP
100
AcDbLine
 10
201.63791316570018
 20
-88.44406660517174
 30
0.0
 11
224.93182371191827
 21
-111.73797715138981
 31
0.0
  0
LINE
  5
E6
330
17
100
AcDbEntity
  8
FLAP
100
AcDbLine
 10
18.926302318802183
 20
75.70520927520873
 30
0.0
 11
42.22021286502026
 21
52.41129872899066
 31
0.0
  0
LINE
  5
E7
330
17
100
AcDbEntity
  8
FLAP
100
AcDbLine
 10
189.26302318802183
 20
-183.07557819918267
 30
0.0
 11
212.55693373423992
 21
-206.36948874540073
 31
0.0
  0
LINE
  5
E8
330
17
100
AcDbEntity
  8
FLAP
100
AcDbLine
 10
207.82535815453937
 20
-173.97639439206623
 30
0.0
 11
231.11926870075743
 21
-197.27030493828428
 31
0.0
  0
LINE
  5
E9
330
17
100
AcDbEntity
  8
FLAP
100
AcDbLine
 10
32.393094353334504
 20
8.007281750262463
 30
0.0
 11
58.962711070114494
 21
-11.282987920824379
 31
0.0
  0
LINE
  5
EA
330
17
100
AcDbEntity
  8
FLAP
100
AcDbLine
 10
204.91361933626212
 20
-178.70796997176677
 30
0.0
 11
226.38769312105688
 21
-203.45774992712347
 31
0.0
  0
LINE
  5
EB
330
17
100
AcDbEntity
  8
FLAP
100
AcDbLine
 10
237.67068104188127
 20
-173.2484596874969
 30
0.0
 11
246.0419301444284
 21
-204.91361933626212
 31
0.0
  0
LINE
  5
EC
330
17
100
AcDbEntity
  8
FLAP
100
AcDbLine
 10
203.82171727940812
 20
-96.08738100314955
 30
0.0
 11
233.30307281446537
 21
-109.91814038996652
 31
0.0
  0
LINE
  5
ED
330
17
100
AcDbEntity
  8
FLAP
100
AcDbLine
 10
248.22573425813633
 20
-176.88813321034348
 30
0.0
 11
271.15567745206977
 21
-199.8180764042769
 31
0.0
  0
LINE
  5
EE
330
17
100
AcDbEntity
  8
FLAP
100
AcDbLine
 10
19.29026967108684
 20
76.43314397977805
 30
0.0
 11
42.22021286502026
 21
53.50320078584463
 31
0.0
  0
LINE
  5
EF
330
17
100
AcDbEntity
  8
FLAP
100
AcDbLine
 10
-50.591461967567376
 20
145.2229735615783
 30
0.0
 11
-25.113747307641358
 21
125.20476918592213
 31
0.0
  0
LINE
  5
F0
330
17
100
AcDbEntity
  8
FLAP
100
AcDbLine
 10
-2.547771465992602
 20
7.2793470456931475
 30
0.0
 11
25.113747307641358
 21
-9.463151159401091
 31
0.0
  0
LINE
  5
F1
330
17
100
AcDbEntity
  8
FLAP
100
AcDbLine
 10
-15.28662879595561
 20
51.683364024421344
 30
0.0
 11
6.187444988839175
 21
28.02548612591862
 31
0.0
  0
LINE
  5
F2
330
17
100
AcDbEntity
  8
FLAP
100
AcDbLine
 10
189.99095789259115
 20
-183.43954555146732
 30
0.0
 11
212.92090108652457
 21
-205.6415540408314
 31
0.0
  0
LINE
  5
F3
330
17
100
AcDbEntity
  8
FLAP
100
AcDbLine
 10
231.84720340532675
 20
-175.43226380120487
 30
0.0
 11
238.76258309873523
 21
-206.36948874540073
 31
0.0
  0
LINE
  5
F4
330
17
100
AcDbEntity
  8
FLAP
100
AcDbLine
 10
207.4613908022547
 20
-188.17112113116787
 30
0.0
 11
232.57513810989607
 21
-207.09742344997005
 31
0.0
  0
LINE
  5
F5
330
17
100
AcDbEntity
  8
FLAP
100
AcDbLine
 10
12.010922625393693
 20
-32.757061705619165
 30
0.0
 11
34.212931114757794
 21
-10.555053216255065
 31
0.0
  0
LINE
  5
F6
330
17
100
AcDbEntity
  8
FLAP
100
AcDbLine
 10
128.84444270876872
 20
-154.32215736869472
 30
0.0
 11
133.2120509361846
 21
-123.38493242449886
 31
0.0
  0
LINE
  5
F7
330
17
100
AcDbEntity
  8
FLAP
100
AcDbLine
 10
199.09014169970757
 20
-178.34400261948213
 30
0.0
 11
216.9245419616558
 21
-203.82171727940812
 31
0.0
  0
LINE
  5
F8
330
17
100
AcDbEntity
  8
FLAP
100
AcDbLine
 10
26.20564936449533
 20
30.937224944195876
 30
0.0
 11
52.77526608127532
 21
14.922661443670952
 31
0.0
  0
LINE
  5
F9
330
17
100
AcDbEntity
  8
FLAP
100
AcDbLine
 10
275.8872530317703
 20
-177.25210056262813
 30
0.0
 11
297.72529416884976
 21
-199.09014169970757
 31
0.0
  0
LINE
  5
FA
330
17
100
AcDbEntity
  8
FLAP
100
AcDbLine
 10
278.0710571454782
 20
-180.8917740854747
 30
0.0
 11
303.18480445311957
 21
-198.72617434742293
 31
0.0
  0
LINE
  5
FB
330
17
100
AcDbEntity
  8
FLAP
100
AcDbLine
 10
207.82535815453937
 20
-173.61242703978158
 30
0.0
 11
231.11926870075743
 21
-193.26666406315306
 31
0.0
  0
LINE
  5
FC
330
17
100
AcDbEntity
  8
FLAP
100
AcDbLine
 10
191.08285994944512
 20
-183.07557819918267
 30
0.0
 11
212.55693373423992
 21
-204.54965198397744
 31
0.0
  0
LINE
  5
FD
330
17
100
AcDbEntity
  8
FLAP
100
AcDbLine
 10
-37.852604637604365
 20
146.31487561843227
 30
0.0
 11
-16.378530852809583
 21
124.84080183363749
 31
0.0
  0
LINE
  5
FE
330
17
100
AcDbEntity
  8
FLAP
100
AcDbLine
 10
-6.551412341123832
 20
56.41493960412189
 30
0.0
 11
1.8198367614232869
 21
27.297551421349304
 31
0.0
  0
LINE
  5
FF
330
17
100
AcDbEntity
  8
FLAP
100
AcDbLine
 10
-29.481355535057247
 20
60.782547831537784
 30
0.0
 11
-1.8198367614232869
 21
72.79347045693147
 31
0.0
  0
LINE
  5
100
330
17
100
AcDbEntity
  8
FLAP
100
AcDbLine
 10
19.654237023371497
 20
16.74249820509424
 30
0.0
 11
43.67608227415889
 21
-1.4558694091386295
 31
0.0
  0
LINE
  5
101
330
17
100
AcDbEntity
  8
FLAP
100
AcDbLine
 10
-41.8562455127356
 20
115.74161802652104
 30
0.0
 11
-34.212931114757794
 21
86.62422984374845
 31
0.0
  0
LINE
  5
102
330
17
100
AcDbEntity
  8
FLAP
100
AcDbLine
 10
-26.933584069064647
 20
21.11010643251013
 30
0.0
 11
-5.823477636554518
 21
0.0
 31
0.0
  0
LINE
  5
103
330
17
100
AcDbEntity
  8
FLAP
100
AcDbLine
 10
235.48687692817333
 20
-2.911738818277259
 30
0.0
 11
256.59698336068345
 21
-24.021845250787386
 31
0.0
  0
LINE
  5
104
330
17
100
AcDbEntity
  8
FLAP
100
AcDbLine
 10
17.83440026194821
 20
74.97727457063942
 30
0.0
 11
33.48499641018848
 21
49.86352726299806
 31
0.0
  0
LINE
  5
105
330
17
100
AcDbEntity
  8
FLAP
100
AcDbLine
 10
-8.735216454831777
 20
-76.43314397977805
 30
0.0
 11
20.382171727940815
 21
-80.80075220719394
 31
0.0
  0
LINE
  5
106
330
17
100
AcDbEntity
  8
FLAP
100
AcDbLine
 10
4.731575579700546
 20
73.5214051615008
 30
0.0
 11
25.841682012210672
 21
53.13923343355998
 31
0.0
  0
LINE
  5
107
330
17
100
AcDbEntity
  8
FLAP
100
AcDbLine
 10
224.20388900734895
 20
-177.98003526719745
 30
0.0
 11
244.95002808757442
 21
-198.72617434742293
 31
0.0
  0
LINE
  5
108
330
17
100
AcDbEntity
  8
FLAP
100
AcDbLine
 10
-15.650596148240266
 20
6.91537969340849
 30
0.0
 11
8.37124910254712
 21
23.65787789850273
 31
0.0
  0
LINE
  5
109
330
17
100
AcDbEntity
  8
FLAP
100
AcDbLine
 10
200.18204375656157
 20
-178.34400261948213
 30
0.0
 11
218.38041137079443
 21
-201.27394581341554
 31
0.0
  0
LINE
  5
10A
330
17
100
AcDbEntity
  8
FLAP
100
AcDbLine
 10
10.919020568539722
 20
87.35216454831777
 30
0.0
 11
28.389453478203276
 21
110.64607509453585
 31
0.0
  0
LINE
  5
10B
330
17
100
AcDbEntity
  8
FLAP
100
AcDbLine
 10
232.93910546218072
 20
49.86352726299806
 30
0.0
 11
258.7807874743914
 21
36.7607025807504
 31
0.0
  0
LINE
  5
10C
330
17
100
AcDbEntity
  8
FLAP
100
AcDbLine
 10
129.20841006105337
 20
-102.63879334427338
 30
0.0
 11
147.77074502757088
 21
-124.84080183363749
 31
0.0
  0
LINE
  5
10D
330
17
100
AcDbEntity
  8
FLAP
100
AcDbLine
 10
230.02736664390346
 20
6.187444988839175
 30
0.0
 11
249.3176363149903
 21
-15.28662879595561
 31
0.0
  0
LINE
  5
10E
330
17
100
AcDbEntity
  8
FLAP
100
AcDbLine
 10
-2.547771465992602
 20
20.382171727940815
 30
0.0
 11
17.83440026194821
 21
0.0
 31
0.0
  0
LINE
  5
10F
330
17
100
AcDbEntity
  8
FLAP
100
AcDbLine
 10
231.84720340532675
 20
48.40765785385943
 30
0.0
 11
257.32491806525275
 21
34.94086581932711
 31
0.0
  0
LINE
  5
110
330
17
100
AcDbEntity
  8
FLAP
100
AcDbLine
 10
224.20388900734895
 20
-194.35856612000703
 30
0.0
 11
240.21845250787388
 21
-218.01644401850976
 31
0.0
  0
LINE
  5
111
330
17
100
AcDbEntity
  8
FLAP
100
AcDbLine
 10
205.6415540408314
 20
-197.9982396428536
 30
0.0
 11
223.47595430277963
 21
-220.20024813221772
 31
0.0
  0
LINE
  5
112
330
17
100
AcDbEntity
  8
FLAP
100
AcDbLine
 10
196.17840288143032
 20
-177.98003526719745
 30
0.0
 11
212.55693373423992
 21
-201.27394581341554
 31
0.0
  0
LINE
  5
113
330
17
100
AcDbEntity
  8
FLAP
100
AcDbLine
 10
219.10834607536373
 20
-184.5314476083213
 30
0.0
 11
240.58241986015852
 21
-203.09378257483883
 31
0.0
  0
LINE
  5
114
330
17
100
AcDbEntity
  8
FLAP
100
AcDbLine
 10
45.85988638786683
 20
50.591461967567376
 30
0.0
 11
66.6060254680923
 21
31.301192296480533
 31
0.0
  0
LINE
  5
115
330
17
100
AcDbEntity
  8
FLAP
100
AcDbLine
 10
190.3549252448758
 20
-185.2593823128906
 30
0.0
 11
207.4613908022547
 21
-207.82535815453937
 31
0.0
  0
LINE
  5
116
330
17
100
AcDbEntity
  8
FLAP
100
AcDbLine
 10
220.56421548450237
 20
-93.17564218487229
 30
0.0
 11
240.94638721244317
 21
-112.82987920824378
 31
0.0
  0
LINE
  5
117
330
17
100
AcDbEntity
  8
FLAP
100
AcDbLine
 10
128.84444270876872
 20
-101.54689128741941
 30
0.0
 11
148.86264708442488
 21
-121.56509566307557
 31
0.0
  0
LINE
  5
118
330
17
100
AcDbEntity
  8
FLAP
100
AcDbLine
 10
206.73345609768538
 20
-181.61970879004403
 30
0.0
 11
226.75166047334153
 21
-201.63791316570018
 31
0.0
  0
LINE
  5
119
330
17
100
AcDbEntity
  8
FLAP
100
AcDbLine
 10
-35.66880052389642
 20
145.2229735615783
 30
0.0
 11
-15.650596148240266
 21
125.20476918592213
 31
0.0
  0
LINE
  5
11A
330
17
100
AcDbEntity
  8
FLAP
100
AcDbLine
 10
-38.216571989889026
 20
18.19836761423287
 30
0.0
 11
-10.555053216255065
 21
22.2020084893641
 31
0.0
  0
LINE
  5
11B
330
17
100
AcDbEntity
  8
FLAP
100
AcDbLine
 10
220.20024813221772
 20
-191.81079465401444
 30
0.0
 11
236.94274633731195
 21
-214.01280314337853
 31
0.0
  0
LINE
  5
11C
330
17
100
AcDbEntity
  8
FLAP
100
AcDbLine
 10
9.463151159401091
 20
-13.466792034532324
 30
0.0
 11
33.84896376247313
 21
-26.56961671677999
 31
0.0
  0
LINE
  5
11D
330
17
100
AcDbEntity
  8
FLAP
100
AcDbLine
 10
197.9982396428536
 20
-186.35128436974458
 30
0.0
 11
219.4723134276484
 21
-203.82171727940812
 31
0.0
  0
LINE
  5
11E
330
17
100
AcDbEntity
  8
FLAP
100
AcDbLine
 10
200.90997846113086
 20
-177.25210056262813
 30
0.0
 11
218.74437872307908
 21
-198.36220699513828
 31
0.0
  0
LINE
  5
11F
330
17
100
AcDbEntity
  8
FLAP
100
AcDbLine
 10
1.4558694091386295
 20
50.591461967567376
 30
0.0
 11
20.746139080225472
 21
30.937224944195876
 31
0.0
  0
LINE
  5
120
330
17
100
AcDbEntity
  8
FLAP
100
AcDbLine
 10
11.282987920824379
 20
-12.010922625393693
 30
0.0
 11
34.57689846704245
 21
2.547771465992602
 31
0.0
  0
LINE
  5
121
330
17
100
AcDbEntity
  8
FLAP
100
AcDbLine
 10
206.00552139311608
 20
-204.91361933626212
 30
0.0
 11
219.83628077993305
 21
-181.25574143775938
 31
0.0
  0
LINE
  5
122
330
17
100
AcDbEntity
  8
FLAP
100
AcDbLine
 10
305.7325759191122
 20
-113.19384656052844
 30
0.0
 11
327.93458440847627
 21
-129.20841006105337
 31
0.0
  0
LINE
  5
123
330
17
100
AcDbEntity
  8
FLAP
100
AcDbLine
 10
20.382171727940815
 20
66.96999282037696
 30
0.0
 11
39.672441399027655
 21
47.67972314929012
 31
0.0
  0
LINE
  5
124
330
17
100
AcDbEntity
  8
FLAP
100
AcDbLine
 10
-31.66515964876519
 20
23.293910546218072
 30
0.0
 11
-12.37488997767835
 21
4.003640875131231
 31
0.0
  0
LINE
  5
125
330
17
100
AcDbEntity
  8
FLAP
100
AcDbLine
 10
197.9982396428536
 20
-178.34400261948213
 30
0.0
 11
213.2848684388092
 21
-200.90997846113086
 31
0.0
  0
LINE
  5
126
330
17
100
AcDbEntity
  8
FLAP
100
AcDbLine
 10
-37.48863728531971
 20
18.562334966517525
 30
0.0
 11
-14.194726739101638
 21
4.731575579700546
 31
0.0
  0
LINE
  5
127
330
17
100
AcDbEntity
  8
FLAP
100
AcDbLine
 10
-38.58053934217368
 20
97.17928306000351
 30
0.0
 11
-18.19836761423287
 21
79.34488279805531
 31
0.0
  0
LINE
  5
128
330
17
100
AcDbEntity
  8
FLAP
100
AcDbLine
 10
214.37677049566318
 20
-184.5314476083213
 30
0.0
 11
229.29943193933414
 21
-207.09742344997005
 31
0.0
  0
LINE
  5
129
330
17
100
AcDbEntity
  8
FLAP
100
AcDbLine
 10
14.194726739101638
 20
58.23477636554518
 30
0.0
 11
35.30483317161177
 21
41.492278160450944
 31
0.0
  0
LINE
  5
12A
330
17
100
AcDbEntity
  8
FLAP
100
AcDbLine
 10
128.48047535648405
 20
-99.72705452599612
 30
0.0
 11
147.40677767528624
 21
-118.65335684479831
 31
0.0
  0
LINE
  5
12B
330
17
100
AcDbEntity
  8
FLAP
100
AcDbLine
 10
-43.312114921874226
 20
144.13107150472433
 30
0.0
 11
-24.385812603072043
 21
125.20476918592213
 31
0.0
  0
LINE
  5
12C
330
17
100
AcDbEntity
  8
FLAP
100
AcDbLine
 10
278.43502449776287
 20
-85.16836043460982
 30
0.0
 11
297.36132681656505
 21
-104.09466275341201
 31
0.0
  0
LINE
  5
12D
330
17
100
AcDbEntity
  8
FLAP
100
AcDbLine
 10
226.75166047334153
 20
-23.293910546218072
 30
0.0
 11
252.95730983783687
 21
-28.389453478203276
 31
0.0
  0
LINE
  5
12E
330
17
100
AcDbEntity
  8
FLAP
100
AcDbLine
 10
213.2848684388092
 20
155.05009207326404
 30
0.0
 11
234.0310075190347
 21
171.7925902783583
 31
0.0
  0
LINE
  5
12F
330
17
100
AcDbEntity
  8
FLAP
100
AcDbLine
 10
191.08285994944512
 20
-188.5350884834525
 30
0.0
 11
211.46503167738592
 21
-205.6415540408314
 31
0.0
  0
LINE
  5
130
330
17
100
AcDbEntity
  8
FLAP
100
AcDbLine
 10
13.83075938681698
 20
72.06553575236217
 30
0.0
 11
33.12102905790382
 21
53.867168138129294
 31
0.0
  0
LINE
  5
131
330
17
100
AcDbEntity
  8
FLAP
100
AcDbLine
 10
21.474073784794786
 20
74.61330721835476
 30
0.0
 11
40.76434345588163
 21
56.41493960412189
 31
0.0
  0
LINE
  5
132
330
17
100
AcDbEntity
  8
FLAP
100
AcDbLine
 10
336.66980086330807
 20
-44.04004962644354
 30
0.0
 11
362.51148287551877
 21
-49.4995599107134
 31
0.0
  0
LINE
  5
133
330
17
100
AcDbEntity
  8
FLAP
100
AcDbLine
 10
237.67068104188127
 20
-176.16019850577416
 30
0.0
 11
242.76622397386646
 21
-202.00188051798483
 31
0.0
  0
LINE
  5
134
330
17
100
AcDbEntity
  8
FLAP
100
AcDbLine
 10
-43.67608227415889
 20
143.403136800155
 30
0.0
 11
-24.7497799553567
 21
125.20476918592213
 31
0.0
  0
LINE
  5
135
330
17
100
AcDbEntity
  8
FLAP
100
AcDbLine
 10
230.02736664390346
 20
-177.25210056262813
 30
0.0
 11
248.58970161042097
 21
-195.81443552914567
 31
0.0
  0
LINE
  5
136
330
17
100
AcDbEntity
  8
FLAP
100
AcDbLine
 10
54.23113549041395
 20
44.4040169787282
 30
0.0
 11
72.79347045693147
 21
25.841682012210672
 31
0.0
  0
LINE
  5
137
330
17
100
AcDbEntity
  8
FLAP
100
AcDbLine
 10
252.59334248555223
 20
33.48499641018848
 30
0.0
 11
271.15567745206977
 21
52.047331376706005
 31
0.0
  0
LINE
  5
138
330
17
100
AcDbEntity
  8
FLAP
100
AcDbLine
 10
205.27758668854676
 20
-189.62699054030648
 30
0.0
 11
226.02372576877224
 21
-205.6415540408314
 31
0.0
  0
LINE
  5
139
330
17
100
AcDbEntity
  8
FLAP
100
AcDbLine
 10
258.0528527698221
 20
-185.2593823128906
 30
0.0
 11
271.88361215663906
 21
-207.4613908022547
 31
0.0
  0
LINE
  5
13A
330
17
100
AcDbEntity
  8
FLAP
100
AcDbLine
 10
207.4613908022547
 20
42.94814756958957
 30
0.0
 11
212.92090108652457
 21
68.42586222951559
 31
0.0
  0
LINE
  5
13B
330
17
100
AcDbEntity
  8
FLAP
100
AcDbLine
 10
206.73345609768538
 20
-178.70796997176677
 30
0.0
 11
225.29579106420292
 21
-196.90633758599964
 31
0.0
  0
LINE
  5
13C
330
17
100
AcDbEntity
  8
FLAP
100
AcDbLine
 10
221.2921501890717
 20
-91.71977277573366
 30
0.0
 11
236.21481163274262
 21
-112.82987920824378
 31
0.0
  0
LINE
  5
13D
330
17
100
AcDbEntity
  8
FLAP
100
AcDbLine
 10
3.275706170561916
 20
67.33396017266162
 30
0.0
 11
17.106465557378897
 21
45.49591903558217
 31
0.0
  0
LINE
  5
13E
330
17
100
AcDbEntity
  8
FLAP
100
AcDbLine
 10
210.73709697281663
 20
-185.98731701745993
 30
0.0
 11
227.47959517791085
 21
-205.6415540408314
 31
0.0
  0
LINE
  5
13F
330
17
100
AcDbEntity
  8
FLAP
100
AcDbLine
 10
236.21481163274262
 20
-103.00276069655804
 30
0.0
 11
258.41682012210674
 21
-116.1055853788057
 31
0.0
  0
LINE
  5
140
330
17
100
AcDbEntity
  8
FLAP
100
AcDbLine
 10
272.61154686120835
 20
-181.25574143775938
 30
0.0
 11
291.53784918001054
 21
-198.72617434742293
 31
0.0
  0
LINE
  5
141
330
17
100
AcDbEntity
  8
FLAP
100
AcDbLine
 10
280.9827959637555
 20
-181.25574143775938
 30
0.0
 11
299.18116357798834
 21
-199.45410905199225
 31
0.0
  0
LINE
  5
142
330
17
100
AcDbEntity
  8
FLAP
100
AcDbLine
 10
-18.19836761423287
 20
56.77890695640655
 30
0.0
 11
0.0
 21
38.58053934217368
 31
0.0
  0
LINE
  5
143
330
17
100
AcDbEntity
  8
FLAP
100
AcDbLine
 10
-38.216571989889026
 20
144.49503885700898
 30
0.0
 11
-20.018204375656154
 21
126.29667124277611
 31
0.0
  0
LINE
  5
144
330
17
100
AcDbEntity
  8
FLAP
100
AcDbLine
 10
173.2484596874969
 20
-98.9991198214268
 30
0.0
 11
195.45046817686102
 21
-111.73797715138981
 31
0.0
  0
LINE
  5
145
330
17
100
AcDbEntity
  8
FLAP
100
AcDbLine
 10
226.75166047334153
 20
-105.55053216255064
 30
0.0
 11
249.3176363149903
 21
-117.56145478794433
 31
0.0
  0
LINE
  5
146
330
17
100
AcDbEntity
  8
FLAP
100
AcDbLine
 10
-40.03640875131231
 20
-3.275706170561916
 30
0.0
 11
-17.106465557378897
 21
-14.558694091386295
 31
0.0
  0
LINE
  5
147
330
17
100
AcDbEntity
  8
FLAP
100
AcDbLine
 10
204.1856846316928
 20
-180.8917740854747
 30
0.0
 11
221.2921501890717
 21
-199.8180764042769
 31
0.0
  0
LINE
  5
148
330
17
100
AcDbEntity
  8
FLAP
100
AcDbLine
 10
22.565975841648758
 20
40.03640875131231
 30
0.0
 11
43.67608227415889
 21
25.841682012210672
 31
0.0
  0
LINE
  5
149
330
17
100
AcDbEntity
  8
FLAP
100
AcDbLine
 10
243.13019132615113
 20
-15.28662879595561
 30
0.0
 11
268.2439386337925
 21
-18.926302318802183
 31
0.0
  0
LINE
  5
14A
330
17
100
AcDbEntity
  8
FLAP
100
AcDbLine
 10
208.18932550682402
 20
-77.52504603663202
 30
0.0
 11
231.84720340532675
 21
-86.62422984374845
 31
0.0
  0
LINE
  5
14B
330
17
100
AcDbEntity
  8
FLAP
100
AcDbLine
 10
284.2585021343174
 20
-173.2484596874969
 30
0.0
 11
303.18480445311957
 21
-189.99095789259115
 31
0.0
  0
LINE
  5
14C
330
17
100
AcDbEntity
  8
FLAP
100
AcDbLine
 10
214.74073784794786
 20
-188.5350884834525
 30
0.0
 11
232.57513810989607
 21
-206.36948874540073
 31
0.0
  0
LINE
  5
14D
330
17
100
AcDbEntity
  8
FLAP
100
AcDbLine
 10
-37.12466993303505
 20
147.77074502757088
 30
0.0
 11
-19.29026967108684
 21
129.9363447656227
 31
0.0
  0
LINE
  5
14E
330
17
100
AcDbEntity
  8
FLAP
100
AcDbLine
 10
80.43678485490928
 20
101.54689128741941
 30
0.0
 11
98.2711851168575
 21
83.7124910254712
 31
0.0
  0
LINE
  5
14F
330
17
100
AcDbEntity
  8
FLAP
100
AcDbLine
 10
-42.22021286502026
 20
77.52504603663202
 30
0.0
 11
-20.746139080225472
 21
64.42222135438436
 31
0.0
  0
LINE
  5
150
330
17
100
AcDbEntity
  8
FLAP
100
AcDbLine
 10
204.1856846316928
 20
-208.55329285910867
 30
0.0
 11
211.46503167738592
 21
-184.5314476083213
 31
0.0
  0
LINE
  5
151
330
17
100
AcDbEntity
  8
FLAP
100
AcDbLine
 10
15.650596148240266
 20
65.87809076352299
 30
0.0
 11
34.57689846704245
 21
49.4995599107134
 31
0.0
  0
LINE
  5
152
330
17
100
AcDbEntity
  8
FLAP
100
AcDbLine
 10
241.6743219170125
 20
62.602384592961066
 30
0.0
 11
260.23665688353003
 21
45.85988638786683
 31
0.0
  0
LINE
  5
153
330
17
100
AcDbEntity
  8
FLAP
100
AcDbLine
 10
207.4613908022547
 20
-211.46503167738592
 30
0.0
 11
214.37677049566318
 21
-187.44318642659854
 31
0.0
  0
LINE
  5
154
330
17
100
AcDbEntity
  8
FLAP
100
AcDbLine
 10
-17.470432909663554
 20
60.05461312696847
 30
0.0
 11
-0.3639673522846574
 21
41.8562455127356
 31
0.0
  0
LINE
  5
155
330
17
100
AcDbEntity
  8
FLAP
100
AcDbLine
 10
231.11926870075743
 20
-197.9982396428536
 30
0.0
 11
235.85084428045798
 21
-173.61242703978158
 31
0.0
  0
LINE
  5
156
330
17
100
AcDbEntity
  8
FLAP
100
AcDbLine
 10
175.0682964489202
 20
64.0582540020997
 30
0.0
 11
181.25574143775938
 21
40.03640875131231
 31
0.0
  0
LINE
  5
157
330
17
100
AcDbEntity
  8
FLAP
100
AcDbLine
 10
2.911738818277259
 20
7.643314397977805
 30
0.0
 11
23.65787789850273
 21
-5.823477636554518
 31
0.0
  0
LINE
  5
158
330
17
100
AcDbEntity
  8
FLAP
100
AcDbLine
 10
-45.131951683297515
 20
143.403136800155
 30
0.0
 11
-28.02548612591862
 21
125.56873653820679
 31
0.0
  0
LINE
  5
159
330
17
100
AcDbEntity
  8
FLAP
100
AcDbLine
 10
269.6998080429311
 20
-181.25574143775938
 30
0.0
 11
287.17024095259467
 21
-198.72617434742293
 31
0.0
  0
LINE
  5
15A
330
17
100
AcDbEntity
  8
FLAP
100
AcDbLine
 10
264.96823246323055
 20
-181.25574143775938
 30
0.0
 11
282.43866537289415
 21
-198.72617434742293
 31
0.0
  0
LINE
  5
15B
330
17
100
AcDbEntity
  8
FLAP
100
AcDbLine
 10
283.16660007746344
 20
-160.14563500524923
 30
0.0
 11
300.637032987127
 21
-177.6160679149128
 31
0.0
  0
LINE
  5
15C
330
17
100
AcDbEntity
  8
FLAP
100
AcDbLine
 10
173.97639439206623
 20
64.78618870666901
 30
0.0
 11
197.9982396428536
 21
69.88173163865422
 31
0.0
  0
LINE
  5
15D
330
17
100
AcDbEntity
  8
FLAP
100
AcDbLine
 10
260.6006242358147
 20
-184.89541496060593
 30
0.0
 11
280.61882861147086
 21
-199.09014169970757
 31
0.0
  0
LINE
  5
15E
330
17
100
AcDbEntity
  8
FLAP
100
AcDbLine
 10
175.43226380120487
 20
121.56509566307557
 30
0.0
 11
192.1747620062991
 21
139.39949592502379
 31
0.0
  0
LINE
  5
15F
330
17
100
AcDbEntity
  8
FLAP
100
AcDbLine
 10
52.77526608127532
 20
-2.1838041137079442
 30
0.0
 11
71.7015684000775
 21
13.102824682247665
 31
0.0
  0
LINE
  5
160
330
17
100
AcDbEntity
  8
FLAP
100
AcDbLine
 10
264.24029775866126
 20
9.827118511685748
 30
0.0
 11
271.15567745206977
 21
-13.466792034532324
 31
0.0
  0
LINE
  5
161
330
17
100
AcDbEntity
  8
FLAP
100
AcDbLine
 10
-33.48499641018848
 20
103.36672804884269
 30
0.0
 11
-17.83440026194821
 21
84.80439308232516
 31
0.0
  0
LINE
  5
162
330
17
100
AcDbEntity
  8
FLAP
100
AcDbLine
 10
12.738857329963007
 20
23.65787789850273
 30
0.0
 11
36.39673522846574
 21
18.19836761423287
 31
0.0
  0
LINE
  5
163
330
17
100
AcDbEntity
  8
FLAP
100
AcDbLine
 10
133.93998564075392
 20
-32.02912700104985
 30
0.0
 11
151.04645119813281
 21
-49.13559255842875
 31
0.0
  0
LINE
  5
164
330
17
100
AcDbEntity
  8
FLAP
100
AcDbLine
 10
132.48411623161527
 20
-36.39673522846574
 30
0.0
 11
149.59058178899417
 21
-53.50320078584463
 31
0.0
  0
LINE
  5
165
330
17
100
AcDbEntity
  8
FLAP
100
AcDbLine
 10
-2.547771465992602
 20
5.459510284269861
 30
0.0
 11
14.558694091386295
 21
-11.646955273109036
 31
0.0
  0
LINE
  5
166
330
17
100
AcDbEntity
  8
FLAP
100
AcDbLine
 10
15.28662879595561
 20
89.53596866202571
 30
0.0
 11
32.393094353334504
 21
72.42950310464681
 31
0.0
  0
LINE
  5
167
330
17
100
AcDbEntity
  8
FLAP
100
AcDbLine
 10
180.52780673319006
 20
78.25298074120134
 30
0.0
 11
197.63427229056896
 21
61.14651518382244
 31
0.0
  0
LINE
  5
168
330
17
100
AcDbEntity
  8
FLAP
100
AcDbLine
 10
61.87444988839175
 20
20.382171727940815
 30
0.0
 11
78.98091544577065
 21
3.275706170561916
 31
0.0
  0
LINE
  5
169
330
17
100
AcDbEntity
  8
FLAP
100
AcDbLine
 10
-18.926302318802183
 20
24.385812603072043
 30
0.0
 11
-1.8198367614232869
 21
7.2793470456931475
 31
0.0
  0
LINE
  5
16A
330
17
100
AcDbEntity
  8
FLAP
100
AcDbLine
 10
239.49051780330456
 20
53.50320078584463
 30
0.0
 11
244.2220933830051
 21
29.845322887341904
 31
0.0
  0
LINE
  5
16B
330
17
100
AcDbEntity
  8
FLAP
100
AcDbLine
 10
-46.22385374015148
 20
24.385812603072043
 30
0.0
 11
-23.65787789850273
 21
16.014563500524925
 31
0.0
  0
LINE
  5
16C
330
17
100
AcDbEntity
  8
FLAP
100
AcDbLine
 10
236.5787789850273
 20
42.22021286502026
 30
0.0
 11
258.0528527698221
 21
31.66515964876519
 31
0.0
  0
LINE
  5
16D
330
17
100
AcDbEntity
  8
FLAP
100
AcDbLine
 10
135.39585504989253
 20
-103.73069540112735
 30
0.0
 11
147.77074502757088
 21
-124.11286712906816
 31
0.0
  0
LINE
  5
16E
330
17
100
AcDbEntity
  8
FLAP
100
AcDbLine
 10
-29.481355535057247
 20
71.33760104779284
 30
0.0
 11
-9.827118511685748
 21
57.87080901326052
 31
0.0
  0
LINE
  5
16F
330
17
100
AcDbEntity
  8
FLAP
100
AcDbLine
 10
-34.57689846704245
 20
13.102824682247665
 30
0.0
 11
-12.738857329963007
 21
3.6396735228465737
 31
0.0
  0
LINE
  5
170
330
17
100
AcDbEntity
  8
FLAP
100
AcDbLine
 10
140.8553653341624
 20
120.47319360622159
 30
0.0
 11
162.3294391189572
 21
130.66427947019199
 31
0.0
  0
LINE
  5
171
330
17
100
AcDbEntity
  8
FLAP
100
AcDbLine
 10
264.24029775866126
 20
-183.80351290375197
 30
0.0
 11
282.43866537289415
 21
-199.09014169970757
 31
0.0
  0
LINE
  5
172
330
17
100
AcDbEntity
  8
FLAP
100
AcDbLine
 10
239.1265504510199
 20
-101.54689128741941
 30
0.0
 11
259.14475482667604
 21
-114.28574861738241
 31
0.0
  0
LINE
  5
173
330
17
100
AcDbEntity
  8
FLAP
100
AcDbLine
 10
-18.19836761423287
 20
45.85988638786683
 30
0.0
 11
-1.8198367614232869
 21
28.753420830487933
 31
0.0
  0
LINE
  5
174
330
17
100
AcDbEntity
  8
FLAP
100
AcDbLine
 10
-44.04004962644354
 20
143.403136800155
 30
0.0
 11
-27.66151877363396
 21
126.29667124277611
 31
0.0
  0
LINE
  5
175
330
17
100
AcDbEntity
  8
FLAP
100
AcDbLine
 10
231.48323605304208
 20
52.41129872899066
 30
0.0
 11
248.22573425813633
 21
35.66880052389642
 31
0.0
  0
LINE
  5
176
330
17
100
AcDbEntity
  8
FLAP
100
AcDbLine
 10
5.823477636554518
 20
94.99547894629558
 30
0.0
 11
22.565975841648758
 21
78.25298074120134
 31
0.0
  0
LINE
  5
177
330
17
100
AcDbEntity
  8
FLAP
100
AcDbLine
 10
-42.58418021730491
 20
74.61330721835476
 30
0.0
 11
-22.565975841648758
 21
62.23841724067641
 31
0.0
  0
LINE
  5
178
330
17
100
AcDbEntity
  8
FLAP
100
AcDbLine
 10
239.49051780330456
 20
-100.45498923056543
 30
0.0
 11
259.5087221789607
 21
-112.82987920824378
 31
0.0
  0
LINE
  5
179
330
17
100
AcDbEntity
  8
FLAP
100
AcDbLine
 10
210.0091622682473
 20
-80.80075220719394
 30
0.0
 11
230.02736664390346
 21
-93.17564218487229
 31
0.0
  0
LINE
  5
17A
330
17
100
AcDbEntity
  8
FLAP
100
AcDbLine
 10
132.12014887933063
 20
-37.12466993303505
 30
0.0
 11
151.04645119813281
 21
-50.95542931985203
 31
0.0
  0
LINE
  5
17B
330
17
100
AcDbEntity
  8
FLAP
100
AcDbLine
 10
264.6042651109459
 20
-183.80351290375197
 30
0.0
 11
284.2585021343174
 21
-196.542370233715
 31
0.0
  0
LINE
  5
17C
330
17
100
AcDbEntity
  8
FLAP
100
AcDbLine
 10
-45.85988638786683
 20
70.97363369550818
 30
0.0
 11
-23.65787789850273
 21
63.69428664981504
 31
0.0
  0
LINE
  5
17D
330
17
100
AcDbEntity
  8
FLAP
100
AcDbLine
 10
3.275706170561916
 20
46.951788444720805
 30
0.0
 11
23.293910546218072
 21
34.94086581932711
 31
0.0
  0
LINE
  5
17E
330
17
100
AcDbEntity
  8
FLAP
100
AcDbLine
 10
22.929943193933415
 20
84.44042573004052
 30
0.0
 11
34.94086581932711
 21
64.42222135438436
 31
0.0
  0
LINE
  5
17F
330
17
100
AcDbEntity
  8
FLAP
100
AcDbLine
 10
62.23841724067641
 20
16.74249820509424
 30
0.0
 11
75.34124192292407
 21
-2.547771465992602
 31
0.0
  0
LINE
  5
180
330
17
100
AcDbEntity
  8
FLAP
100
AcDbLine
 10
282.8026327251788
 20
-91.71977277573366
 30
0.0
 11
288.6261103617333
 21
-114.28574861738241
 31
0.0
  0
LINE
  5
181
330
17
100
AcDbEntity
  8
FLAP
100
AcDbLine
 10
266.06013452008455
 20
-184.16748025603664
 30
0.0
 11
284.2585021343174
 21
-198.72617434742293
 31
0.0
  0
LINE
  5
182
330
17
100
AcDbEntity
  8
FLAP
100
AcDbLine
 10
-41.8562455127356
 20
16.74249820509424
 30
0.0
 11
-21.474073784794786
 21
5.459510284269861
 31
0.0
  0
LINE
  5
183
330
17
100
AcDbEntity
  8
FLAP
100
AcDbLine
 10
133.2120509361846
 20
-34.94086581932711
 30
0.0
 11
153.59422266412543
 21
-46.22385374015148
 31
0.0
  0
LINE
  5
184
330
17
100
AcDbEntity
  8
FLAP
100
AcDbLine
 10
291.1738818277259
 20
-166.69704734637307
 30
0.0
 11
311.92002090795137
 21
-177.25210056262813
 31
0.0
  0
LINE
  5
185
330
17
100
AcDbEntity
  8
FLAP
100
AcDbLine
 10
243.13019132615113
 20
-178.70796997176677
 30
0.0
 11
251.13747307641358
 21
-200.54601110884622
 31
0.0
  0
LINE
  5
186
330
17
100
AcDbEntity
  8
FLAP
100
AcDbLine
 10
233.30307281446537
 20
-178.34400261948213
 30
0.0
 11
238.76258309873523
 21
-200.90997846113086
 31
0.0
  0
LINE
  5
187
330
17
100
AcDbEntity
  8
FLAP
100
AcDbLine
 10
268.6079059860771
 20
-191.08285994944512
 30
0.0
 11
284.98643683888673
 21
-207.4613908022547
 31
0.0
  0
LINE
  5
188
330
17
100
AcDbEntity
  8
FLAP
100
AcDbLine
 10
283.89453478203274
 20
-169.60878616465033
 30
0.0
 11
300.27306563484234
 21
-185.98731701745993
 31
0.0
  0
LINE
  5
189
330
17
100
AcDbEntity
  8
FLAP
100
AcDbLine
 10
241.31035456472785
 20
0.7279347045693147
 30
0.0
 11
244.58606073528975
 21
-22.2020084893641
 31
0.0
  0
LINE
  5
18A
330
17
100
AcDbEntity
  8
FLAP
100
AcDbLine
 10
12.738857329963007
 20
-33.48499641018848
 30
0.0
 11
29.11738818277259
 21
-17.106465557378897
 31
0.0
  0
LINE
  5
18B
330
17
100
AcDbEntity
  8
FLAP
100
AcDbLine
 10
13.466792034532324
 20
89.89993601431037
 30
0.0
 11
29.845322887341904
 21
73.5214051615008
 31
0.0
  0
LINE
  5
18C
330
17
100
AcDbEntity
  8
FLAP
100
AcDbLine
 10
-16.378530852809583
 20
1.0919020568539721
 30
0.0
 11
5.459510284269861
 21
-6.551412341123832
 31
0.0
  0
LINE
  5
18D
330
17
100
AcDbEntity
  8
FLAP
100
AcDbLine
 10
159.05373294839526
 20
-175.43226380120487
 30
0.0
 11
165.24117793723445
 21
-197.63427229056896
 31
0.0
  0
LINE
  5
18E
330
17
100
AcDbEntity
  8
FLAP
100
AcDbLine
 10
247.497799553567
 20
19.654237023371497
 30
0.0
 11
251.8654077809829
 21
-2.911738818277259
 31
0.0
  0
LINE
  5
18F
330
17
100
AcDbEntity
  8
FLAP
100
AcDbLine
 10
364.33131963694206
 20
164.87721058494978
 30
0.0
 11
379.61794843289766
 21
181.98367614232868
 31
0.0
  0
LINE
  5
190
330
17
100
AcDbEntity
  8
FLAP
100
AcDbLine
 10
9.827118511685748
 20
-12.010922625393693
 30
0.0
 11
28.389453478203276
 21
1.4558694091386295
 31
0.0
  0
LINE
  5
191
330
17
100
AcDbEntity
  8
FLAP
100
AcDbLine
 10
12.738857329963007
 20
-29.11738818277259
 30
0.0
 11
28.389453478203276
 21
-12.37488997767835
 31
0.0
  0
LINE
  5
192
330
17
100
AcDbEntity
  8
FLAP
100
AcDbLine
 10
-22.929943193933415
 20
25.477714659926015
 30
0.0
 11
-3.6396735228465737
 21
13.102824682247665
 31
0.0
  0
LINE
  5
193
330
17
100
AcDbEntity
  8
FLAP
100
AcDbLine
 10
9.827118511685748
 20
69.51776428636956
 30
0.0
 11
31.301192296480533
 21
61.87444988839175
 31
0.0
  0
LINE
  5
194
330
17
100
AcDbEntity
  8
FLAP
100
AcDbLine
 10
-22.2020084893641
 20
65.51412341123833
 30
0.0
 11
-1.4558694091386295
 21
74.61330721835476
 31
0.0
  0
LINE
  5
195
330
17
100
AcDbEntity
  8
FLAP
100
AcDbLine
 10
-25.477714659926015
 20
139.0355285727391
 30
0.0
 11
-9.463151159401091
 21
123.0209650722142
 31
0.0
  0
LINE
  5
196
330
17
100
AcDbEntity
  8
FLAP
100
AcDbLine
 10
226.02372576877224
 20
-126.66063859506076
 30
0.0
 11
244.58606073528975
 21
-139.39949592502379
 31
0.0
  0
LINE
  5
197
330
17
100
AcDbEntity
  8
FLAP
100
AcDbLine
 10
-46.22385374015148
 20
12.37488997767835
 30
0.0
 11
-28.753420830487933
 21
-1.8198367614232869
 31
0.0
  0
LINE
  5
198
330
17
100
AcDbEntity
  8
FLAP
100
AcDbLine
 10
6.551412341123832
 20
65.87809076352299
 30
0.0
 11
26.56961671677999
 21
76.06917662749339
 31
0.0
  0
LINE
  5
199
330
17
100
AcDbEntity
  8
FLAP
100
AcDbLine
 10
244.58606073528975
 20
-179.4359046763361
 30
0.0
 11
252.22937513326755
 21
-200.54601110884622
 31
0.0
  0
LINE
  5
19A
330
17
100
AcDbEntity
  8
FLAP
100
AcDbLine
 10
134.66792034532324
 20
-100.09102187828078
 30
0.0
 11
148.13471237985556
 21
-117.92542214022899
 31
0.0
  0
LINE
  5
19B
330
17
100
AcDbEntity
  8
FLAP
100
AcDbLine
 10
333.0301273404615
 20
-45.49591903558217
 30
0.0
 11
354.1402337729716
 21
-52.77526608127532
 31
0.0
  0
LINE
  5
19C
330
17
100
AcDbEntity
  8
FLAP
100
AcDbLine
 10
-4.3676082274158885
 20
-2.911738818277259
 30
0.0
 11
14.922661443670952
 21
-13.83075938681698
 31
0.0
  0
LINE
  5
19D
330
17
100
AcDbEntity
  8
FLAP
100
AcDbLine
 10
17.470432909663554
 20
21.838041137079443
 30
0.0
 11
32.757061705619165
 21
5.823477636554518
 31
0.0
  0
LINE
  5
19E
330
17
100
AcDbEntity
  8
FLAP
100
AcDbLine
 10
2.547771465992602
 20
74.97727457063942
 30
0.0
 11
18.19836761423287
 21
59.326678422399155
 31
0.0
  0
LINE
  5
19F
330
17
100
AcDbEntity
  8
FLAP
100
AcDbLine
 10
26.933584069064647
 20
10.919020568539722
 30
0.0
 11
42.58418021730491
 21
-4.731575579700546
 31
0.0
  0
LINE
  5
1A0
330
17
100
AcDbEntity
  8
FLAP
100
AcDbLine
 10
20.018204375656154
 20
76.06917662749339
 30
0.0
 11
37.852604637604365
 21
62.96635194524573
 31
0.0
  0
LINE
  5
1A1
330
17
100
AcDbEntity
  8
FLAP
100
AcDbLine
 10
19.654237023371497
 20
23.65787789850273
 30
0.0
 11
38.58053934217368
 21
12.37488997767835
 31
0.0
  0
LINE
  5
1A2
330
17
100
AcDbEntity
  8
FLAP
100
AcDbLine
 10
131.3922141747613
 20
-97.54325041228817
 30
0.0
 11
141.94726739101637
 21
-116.83352008337502
 31
0.0
  0
LINE
  5
1A3
330
17
100
AcDbEntity
  8
FLAP
100
AcDbLine
 10
296.63339211199576
 20
-171.06465557378897
 30
0.0
 11
315.55969443079795
 21
-181.98367614232868
 31
0.0
  0
ENDSEC
  0
SECTION
  2
OBJECTS
  0
DICTIONARY
  5
A
330
0
100
AcDbDictionary
281
1
  3
ACAD_COLOR
350
B
  3
ACAD_GROUP
350
C
  3
ACAD_LAYOUT
350
D
  3
ACAD_MATERIAL
350
E
  3
ACAD_MLEADERSTYLE
350
F
  3
ACAD_MLINESTYLE
350
10
  3
ACAD_PLOTSETTINGS
350
11
  3
ACAD_PLOTSTYLENAME
350
12
  3
ACAD_SCALELIST
350
14
  3
ACAD_TABLESTYLE
350
15
  3
ACAD_VISUALSTYLE
350
16
  3
EZDXF_META
350
2D
  0
DICTIONARY
  5
B
330
A
100
AcDbDictionary
281
1
  0
DICTIONARY
  5
C
330
A
100
AcDbDictionary
281
1
  0
DICTIONARY
  5
D
330
A
100
AcDbDictionary
281
1
  3
Model
350
1A
  3
Layout1
350
1E
  0
DICTIONARY
  5
E
330
A
100
AcDbDictionary
281
1
  3
ByBlock
350
1F
  3
ByLayer
350
20
  3
Global
350
21
  0
DICTIONARY
  5
F
330
A
100
AcDbDictionary
281
1
  3
Standard
350
2C
  0
DICTIONARY
  5
10
330
A
100
AcDbDictionary
281
1
  3
Standard
350
22
  0
DICTIONARY
  5
11
330
A
100
AcDbDictionary
281
1
  0
ACDBDICTIONARYWDFLT
  5
12
330
A
100
AcDbDictionary
281
1
  3
Normal
350
13
100
AcDbDictionaryWithDefault
340
13
  0
ACDBPLACEHOLDER
  5
13
330
12
  0
DICTIONARY
  5
14
330
A
100
AcDbDictionary
281
1
  0
DICTIONARY
  5
15
330
A
100
AcDbDictionary
281
1
  0
DICTIONARY
  5
16
330
A
100
AcDbDictionary
281
1
  0
LAYOUT
  5
1A
330
D
100
AcDbPlotSettings
  1

  4
A3
  6

 40
7.5
 41
20.0
 42
7.5
 43
20.0
 44
420.0
 45
297.0
 46
0.0
 47
0.0
 48
0.0
 49
0.0
140
0.0
141
0.0
142
1.0
143
1.0
 70
1024
 72
1
 73
0
 74
5
  7

 75
16
 76
0
 77
2
 78
300
147
1.0
148
0.0
149
0.0
100
AcDbLayout
  1
Model
 70
1
 71
0
 10
0.0
 20
0.0
 11
420.0
 21
297.0
 12
0.0
 22
0.0
 32
0.0
 14
1e+20
 24
1e+20
 34
1e+20
 15
-1e+20
 25
-1e+20
 35
-1e+20
146
0.0
 13
0.0
 23
0.0
 33
0.0
 16
1.0
 26
0.0
 36
0.0
 17
0.0
 27
1.0
 37
0.0
 76
1
330
17
  0
LAYOUT
  5
1E
330
D
100
AcDbPlotSettings
  1

  4
A3
  6

 40
7.5
 41
20.0
 42
7.5
 43
20.0
 44
420.0
 45
297.0
 46
0.0
 47
0.0
 48
0.0
 49
0.0
140
0.0
141
0.0
142
1.0
143
1.0
 70
0
 72
1
 73
0
 74
5
  7

 75
16
 76
0
 77
2
 78
300
147
1.0
148
0.0
149
0.0
100
AcDbLayout
  1
Layout1
 70
1
 71
1
 10
0.0
 20
0.0
 11
420.0
 21
297.0
 12
0.0
 22
0.0
 32
0.0
 14
1e+20
 24
1e+20
 34
1e+20
 15
-1e+20
 25
-1e+20
 35
-1e+20
146
0.0
 13
0.0
 23
0.0
 33
0.0
 16
1.0
 26
0.0
 36
0.0
 17
0.0
 27
1.0
 37
0.0
 76
1
330
1B
  0
MATERIAL
  5
1F
102
{ACAD_REACTORS
330
E
102
}
330
E
100
AcDbMaterial
  1
ByBlock
  2

 70
0
 40
1.0
 71
1
 41
1.0
 91
-1023410177
 42
1.0
 72
1
  3

 73
1
 74
1
 75
1
 44
0.5
 73
0
 45
1.0
 46
1.0
 77
1
  4

 78
1
 79
1
170
1
 48
1.0
171
1
  6

172
1
173
1
174
1
140
1.0
141
1.0
175
1
  7

176
1
177
1
178
1
143
1.0
179
1
  8

270
1
271
1
272
1
145
1.0
146
1.0
273
1
  9

274
1
275
1
276
1
 42
1.0
 72
1
  3

 73
1
 74
1
 75
1
 94
63
  0
MATERIAL
  5
20
102
{ACAD_REACTORS
330
E
102
}
330
E
100
AcDbMaterial
  1
ByLayer
  2

 70
0
 40
1.0
 71
1
 41
1.0
 91
-1023410177
 42
1.0
 72
1
  3

 73
1
 74
1
 75
1
 44
0.5
 73
0
 45
1.0
 46
1.0
 77
1
  4

 78
1
 79
1
170
1
 48
1.0
171
1
  6

172
1
173
1
174
1
140
1.0
141
1.0
175
1
  7

176
1
177
1
178
1
143
1.0
179
1
  8

270
1
271
1
272
1
145
1.0
146
1.0
273
1
  9

274
1
275
1
276
1
 42
1.0
 72
1
  3

 73
1
 74
1
 75
1
 94
63
  0
MATERIAL
  5
21
102
{ACAD_REACTORS
330
E
102
}
330
E
100
AcDbMaterial
  1
Global
  2

 70
0
 40
1.0
 71
1
 41
1.0
 91
-1023410177
 42
1.0
 72
1
  3

 73
1
 74
1
 75
1
 44
0.5
 73
0
 45
1.0
 46
1.0
 77
1
  4

 78
1
 79
1
170
1
 48
1.0
171
1
  6

172
1
173
1
174
1
140
1.0
141
1.0
175
1
  7

176
1
177
1
178
1
143
1.0
179
1
  8

270
1
271
1
272
1
145
1.0
146
1.0
273
1
  9

274
1
275
1
276
1
 42
1.0
 72
1
  3

 73
1
 74
1
 75
1
 94
63
  0
MLINESTYLE
  5
22
102
{ACAD_REACTORS
330
10
102
}
330
10
100
AcDbMlineStyle
  2
Standard
 70
0
  3

 62
256
 51
90.0
 52
90.0
 71
2
 49
0.5
 62
256
  6
BYLAYER
 49
-0.5
 62
256
  6
BYLAYER
  0
MLEADERSTYLE
  5
2C
102
{ACAD_REACTORS
330
F
102
}
330
F
100
AcDbMLeaderStyle
179
2
170
2
171
1
172
0
 90
2
 40
0.0
 41
0.0
173
1
 91
-1056964608
 92
-2
290
1
 42
2.0
291
1
 43
8.0
  3
Standard
 44
4.0
300

342
29
174
1
175
1
176
0
178
1
 93
-1056964608
 45
4.0
292
0
297
0
 46
4.0
 94
-1056964608
 47
1.0
 49
1.0
140
1.0
294
1
141
0.0
177
0
142
1.0
295
0
296
0
143
3.75
271
0
272
9
273
9
  0
DICTIONARY
  5
2D
330
A
100
AcDbDictionary
280
1
281
1
  3
CREATED_BY_EZDXF
350
2E
  3
WRITTEN_BY_EZDXF
350
1A6
  0
DICTIONARYVAR
  5
2E
330
2D
100
DictionaryVariables
280
0
  1
1.4.2 @ 2026-03-29T09:38:35.935946+00:00
  0
DICTIONARYVAR
  5
1A6
330
2D
100
DictionaryVariables
280
0
  1
1.4.2 @ 2026-03-29T09:38:35.947575+00:00
  0
ENDSEC
  0
EOF
