<svg xmlns="http://www.w3.org/2000/svg" width="800" height="873">
<rect width="100%" height="100%" fill="#f8f8f8"/>
<g stroke="#00aa00" stroke-width="1.5" fill="none">
<line x1="189.0" y1="744.6" x2="565.2" y2="744.6"/>
<line x1="565.2" y1="744.6" x2="565.2" y2="331.7"/>
<line x1="565.2" y1="331.7" x2="189.0" y2="331.7"/>
<line x1="189.0" y1="331.7" x2="189.0" y2="744.6"/>
<line x1="708.2" y1="744.6" x2="708.2" y2="331.7"/>
</g>
<g stroke="#ff0000" stroke-width="2" fill="none">
<line x1="45.9" y1="45.5" x2="45.9" y2="232.1"/>
<line x1="45.9" y1="232.1" x2="59.2" y2="230.7"/>
<line x1="59.2" y1="230.7" x2="45.9" y2="254.1"/>
<line x1="45.9" y1="254.1" x2="64.7" y2="258.2"/>
<line x1="64.7" y1="258.2" x2="45.9" y2="261.9"/>
<line x1="45.9" y1="261.9" x2="63.6" y2="274.7"/>
<line x1="63.6" y1="274.7" x2="45.9" y2="297.2"/>
<line x1="45.9" y1="297.2" x2="68.0" y2="297.2"/>
<line x1="68.0" y1="297.2" x2="45.9" y2="300.9"/>
<line x1="45.9" y1="300.9" x2="45.9" y2="382.0"/>
<line x1="45.9" y1="382.0" x2="59.2" y2="375.6"/>
<line x1="59.2" y1="375.6" x2="63.1" y2="388.4"/>
<line x1="63.1" y1="388.4" x2="45.9" y2="384.8"/>
<line x1="45.9" y1="384.8" x2="68.6" y2="386.1"/>
<line x1="68.6" y1="386.1" x2="70.8" y2="472.3"/>
<line x1="70.8" y1="472.3" x2="45.9" y2="487.4"/>
<line x1="45.9" y1="487.4" x2="45.9" y2="673.6"/>
<line x1="45.9" y1="673.6" x2="69.7" y2="637.3"/>
<line x1="69.7" y1="637.3" x2="72.5" y2="669.0"/>
<line x1="72.5" y1="669.0" x2="46.4" y2="701.1"/>
<line x1="46.4" y1="701.1" x2="45.9" y2="827.1"/>
<line x1="45.9" y1="827.1" x2="754.1" y2="827.1"/>
<line x1="754.1" y1="827.1" x2="754.1" y2="128.1"/>
<line x1="754.1" y1="128.1" x2="720.3" y2="113.4"/>
<line x1="720.3" y1="113.4" x2="708.7" y2="85.4"/>
<line x1="708.7" y1="85.4" x2="719.8" y2="63.4"/>
<line x1="719.8" y1="63.4" x2="717.0" y2="89.1"/>
<line x1="717.0" y1="89.1" x2="754.1" y2="103.8"/>
<line x1="754.1" y1="103.8" x2="754.1" y2="45.5"/>
<line x1="754.1" y1="45.5" x2="45.9" y2="45.5"/>
</g>
<g font-size="12" fill="#333" font-family="Arial">
<text x="377.0607126471937" y="538.1549968787529" text-anchor="middle" font-size="15" font-weight="bold">底板 123.0×135.0</text>
<text x="377.0607126471937" y="260.1614198792116" text-anchor="middle" fill="#00aa00">顶墙 H=46.78</text>
<text x="377.0607126471937" y="816.148573878294" text-anchor="middle" fill="#00aa00">底墙 H=46.78</text>
</g>
<g font-size="11" font-family="Arial">
<line x1="10" y1="15" x2="40" y2="15" stroke="red" stroke-width="2"/>
<text x="45" y="19">CUT 切割线 (外轮廓)</text>
<line x1="10" y1="32" x2="40" y2="32" stroke="#00aa00" stroke-width="1.5"/>
<text x="45" y="36">SCORE 折叠线 (底板边界)</text>
<text x="10" y="53" fill="#666">外轮廓从白底黑线图提取(30点), 精确双比例校准</text>
<text x="10" y="68" fill="#666">Scale: H=0.1812 V=0.1499 mm/px</text>
</g>
</svg>