<svg xmlns="http://www.w3.org/2000/svg" width="950" height="939">
<rect width="100%" height="100%" fill="#fafafa"/>
<g stroke="#eee" stroke-width="0.5">
<line x1="84.35147037931524" y1="888.3891177724108" x2="84.35147037931524" y2="44.87441397925841"/>
<line x1="118.09205853104133" y1="888.3891177724108" x2="118.09205853104133" y2="44.87441397925841"/>
<line x1="151.83264668276743" y1="888.3891177724108" x2="151.83264668276743" y2="44.87441397925841"/>
<line x1="185.57323483449352" y1="888.3891177724108" x2="185.57323483449352" y2="44.87441397925841"/>
<line x1="219.31382298621963" y1="888.3891177724108" x2="219.31382298621963" y2="44.87441397925841"/>
<line x1="253.05441113794572" y1="888.3891177724108" x2="253.05441113794572" y2="44.87441397925841"/>
<line x1="286.7949992896718" y1="888.3891177724108" x2="286.7949992896718" y2="44.87441397925841"/>
<line x1="320.5355874413979" y1="888.3891177724108" x2="320.5355874413979" y2="44.87441397925841"/>
<line x1="354.27617559312404" y1="888.3891177724108" x2="354.27617559312404" y2="44.87441397925841"/>
<line x1="388.0167637448501" y1="888.3891177724108" x2="388.0167637448501" y2="44.87441397925841"/>
<line x1="421.7573518965762" y1="888.3891177724108" x2="421.7573518965762" y2="44.87441397925841"/>
<line x1="455.4979400483023" y1="888.3891177724108" x2="455.4979400483023" y2="44.87441397925841"/>
<line x1="489.2385282000284" y1="888.3891177724108" x2="489.2385282000284" y2="44.87441397925841"/>
<line x1="522.9791163517544" y1="888.3891177724108" x2="522.9791163517544" y2="44.87441397925841"/>
<line x1="556.7197045034806" y1="888.3891177724108" x2="556.7197045034806" y2="44.87441397925841"/>
<line x1="590.4602926552067" y1="888.3891177724108" x2="590.4602926552067" y2="44.87441397925841"/>
<line x1="624.2008808069328" y1="888.3891177724108" x2="624.2008808069328" y2="44.87441397925841"/>
<line x1="657.9414689586589" y1="888.3891177724108" x2="657.9414689586589" y2="44.87441397925841"/>
<line x1="691.682057110385" y1="888.3891177724108" x2="691.682057110385" y2="44.87441397925841"/>
<line x1="725.422645262111" y1="888.3891177724108" x2="725.422645262111" y2="44.87441397925841"/>
<line x1="759.1632334138371" y1="888.3891177724108" x2="759.1632334138371" y2="44.87441397925841"/>
<line x1="792.9038215655632" y1="888.3891177724108" x2="792.9038215655632" y2="44.87441397925841"/>
<line x1="826.6444097172894" y1="888.3891177724108" x2="826.6444097172894" y2="44.87441397925841"/>
<line x1="860.3849978690155" y1="888.3891177724108" x2="860.3849978690155" y2="44.87441397925841"/>
<line x1="894.1255860207416" y1="888.3891177724108" x2="894.1255860207416" y2="44.87441397925841"/>
<line x1="50.610882227589144" y1="854.6485296206847" x2="927.8661741724676" y2="854.6485296206847"/>
<line x1="50.610882227589144" y1="820.9079414689587" x2="927.8661741724676" y2="820.9079414689587"/>
<line x1="50.610882227589144" y1="787.1673533172326" x2="927.8661741724676" y2="787.1673533172326"/>
<line x1="50.610882227589144" y1="753.4267651655065" x2="927.8661741724676" y2="753.4267651655065"/>
<line x1="50.610882227589144" y1="719.6861770137804" x2="927.8661741724676" y2="719.6861770137804"/>
<line x1="50.610882227589144" y1="685.9455888620543" x2="927.8661741724676" y2="685.9455888620543"/>
<line x1="50.610882227589144" y1="652.2050007103282" x2="927.8661741724676" y2="652.2050007103282"/>
<line x1="50.610882227589144" y1="618.4644125586021" x2="927.8661741724676" y2="618.4644125586021"/>
<line x1="50.610882227589144" y1="584.723824406876" x2="927.8661741724676" y2="584.723824406876"/>
<line x1="50.610882227589144" y1="550.9832362551499" x2="927.8661741724676" y2="550.9832362551499"/>
<line x1="50.610882227589144" y1="517.2426481034238" x2="927.8661741724676" y2="517.2426481034238"/>
<line x1="50.610882227589144" y1="483.5020599516977" x2="927.8661741724676" y2="483.5020599516977"/>
<line x1="50.610882227589144" y1="449.7614717999716" x2="927.8661741724676" y2="449.7614717999716"/>
<line x1="50.610882227589144" y1="416.02088364824556" x2="927.8661741724676" y2="416.02088364824556"/>
<line x1="50.610882227589144" y1="382.28029549651944" x2="927.8661741724676" y2="382.28029549651944"/>
<line x1="50.610882227589144" y1="348.5397073447933" x2="927.8661741724676" y2="348.5397073447933"/>
<line x1="50.610882227589144" y1="314.7991191930672" x2="927.8661741724676" y2="314.7991191930672"/>
<line x1="50.610882227589144" y1="281.0585310413411" x2="927.8661741724676" y2="281.0585310413411"/>
<line x1="50.610882227589144" y1="247.31794288961498" x2="927.8661741724676" y2="247.31794288961498"/>
<line x1="50.610882227589144" y1="213.57735473788898" x2="927.8661741724676" y2="213.57735473788898"/>
<line x1="50.610882227589144" y1="179.83676658616287" x2="927.8661741724676" y2="179.83676658616287"/>
<line x1="50.610882227589144" y1="146.09617843443675" x2="927.8661741724676" y2="146.09617843443675"/>
<line x1="50.610882227589144" y1="112.35559028271064" x2="927.8661741724676" y2="112.35559028271064"/>
<line x1="50.610882227589144" y1="78.61500213098452" x2="927.8661741724676" y2="78.61500213098452"/>
</g>
<g stroke="#ccc" stroke-width="1">
<line x1="84.35147037931524" y1="888.3891177724108" x2="84.35147037931524" y2="44.87441397925841"/>
<line x1="253.05441113794572" y1="888.3891177724108" x2="253.05441113794572" y2="44.87441397925841"/>
<line x1="421.7573518965762" y1="888.3891177724108" x2="421.7573518965762" y2="44.87441397925841"/>
<line x1="590.4602926552067" y1="888.3891177724108" x2="590.4602926552067" y2="44.87441397925841"/>
<line x1="759.1632334138371" y1="888.3891177724108" x2="759.1632334138371" y2="44.87441397925841"/>
<line x1="50.610882227589144" y1="854.6485296206847" x2="927.8661741724676" y2="854.6485296206847"/>
<line x1="50.610882227589144" y1="685.9455888620543" x2="927.8661741724676" y2="685.9455888620543"/>
<line x1="50.610882227589144" y1="517.2426481034238" x2="927.8661741724676" y2="517.2426481034238"/>
<line x1="50.610882227589144" y1="348.5397073447933" x2="927.8661741724676" y2="348.5397073447933"/>
<line x1="50.610882227589144" y1="179.83676658616287" x2="927.8661741724676" y2="179.83676658616287"/>
</g>
<g font-size="9" fill="#bbb" font-family="monospace">
<text x="86.35147037931524" y="864.7707060662026">0</text>
<text x="255.05441113794572" y="864.7707060662026">50</text>
<text x="423.7573518965762" y="864.7707060662026">100</text>
<text x="592.4602926552067" y="864.7707060662026">150</text>
<text x="761.1632334138371" y="864.7707060662026">200</text>
<text x="43.862764597243924" y="857.6485296206847">0</text>
<text x="43.862764597243924" y="688.9455888620543">50</text>
<text x="43.862764597243924" y="520.2426481034238">100</text>
<text x="43.862764597243924" y="351.5397073447933">150</text>
<text x="43.862764597243924" y="182.83676658616287">200</text>
</g>
<g stroke="#008888" stroke-width="1" fill="none">
<line x1="182.8" y1="140.5" x2="187.1" y2="140.5"/>
<line x1="187.1" y1="140.5" x2="187.7" y2="140.9"/>
<line x1="187.7" y1="140.9" x2="209.7" y2="140.9"/>
<line x1="209.7" y1="140.9" x2="210.3" y2="141.4"/>
<line x1="210.3" y1="141.4" x2="283.0" y2="141.4"/>
<line x1="283.0" y1="141.4" x2="283.6" y2="141.8"/>
<line x1="283.6" y1="141.8" x2="299.5" y2="141.8"/>
<line x1="299.5" y1="141.8" x2="300.2" y2="142.3"/>
<line x1="300.2" y1="142.3" x2="314.8" y2="142.3"/>
<line x1="314.8" y1="142.3" x2="315.4" y2="142.7"/>
<line x1="315.4" y1="142.7" x2="342.3" y2="142.7"/>
<line x1="342.3" y1="142.7" x2="342.9" y2="143.2"/>
<line x1="342.9" y1="143.2" x2="447.5" y2="143.2"/>
<line x1="447.5" y1="143.2" x2="448.1" y2="143.6"/>
<line x1="448.1" y1="143.6" x2="449.9" y2="143.6"/>
<line x1="449.9" y1="143.6" x2="450.5" y2="143.2"/>
<line x1="450.5" y1="143.2" x2="451.8" y2="143.2"/>
<line x1="451.8" y1="143.2" x2="452.4" y2="143.6"/>
<line x1="452.4" y1="143.6" x2="452.4" y2="144.1"/>
<line x1="452.4" y1="144.1" x2="451.8" y2="144.5"/>
<line x1="451.8" y1="144.5" x2="451.8" y2="145.0"/>
<line x1="451.8" y1="145.0" x2="451.2" y2="145.4"/>
<line x1="451.2" y1="145.4" x2="451.2" y2="145.9"/>
<line x1="451.2" y1="145.9" x2="449.9" y2="146.8"/>
<line x1="449.9" y1="146.8" x2="449.9" y2="147.2"/>
<line x1="449.9" y1="147.2" x2="449.3" y2="147.7"/>
<line x1="449.3" y1="147.7" x2="449.3" y2="148.6"/>
<line x1="449.3" y1="148.6" x2="448.7" y2="149.1"/>
<line x1="448.7" y1="149.1" x2="448.7" y2="150.4"/>
<line x1="448.7" y1="150.4" x2="448.1" y2="150.9"/>
<line x1="448.1" y1="150.9" x2="448.1" y2="151.8"/>
<line x1="448.1" y1="151.8" x2="447.5" y2="152.2"/>
<line x1="447.5" y1="152.2" x2="447.5" y2="152.7"/>
<line x1="447.5" y1="152.7" x2="446.9" y2="153.1"/>
<line x1="446.9" y1="153.1" x2="446.9" y2="154.9"/>
<line x1="446.9" y1="154.9" x2="446.3" y2="155.4"/>
<line x1="446.3" y1="155.4" x2="446.3" y2="156.3"/>
<line x1="446.3" y1="156.3" x2="445.7" y2="156.7"/>
<line x1="445.7" y1="156.7" x2="445.7" y2="157.7"/>
<line x1="445.7" y1="157.7" x2="445.0" y2="158.1"/>
<line x1="445.0" y1="158.1" x2="445.0" y2="159.5"/>
<line x1="445.0" y1="159.5" x2="444.4" y2="159.9"/>
<line x1="444.4" y1="159.9" x2="444.4" y2="160.8"/>
<line x1="444.4" y1="160.8" x2="443.8" y2="161.3"/>
<line x1="443.8" y1="161.3" x2="443.8" y2="162.2"/>
<line x1="443.8" y1="162.2" x2="444.4" y2="162.6"/>
<line x1="444.4" y1="162.6" x2="444.4" y2="164.9"/>
<line x1="444.4" y1="164.9" x2="443.8" y2="165.3"/>
<line x1="443.8" y1="165.3" x2="430.4" y2="165.3"/>
<line x1="430.4" y1="165.3" x2="429.8" y2="164.9"/>
<line x1="429.8" y1="164.9" x2="405.3" y2="164.9"/>
<line x1="405.3" y1="164.9" x2="404.7" y2="164.4"/>
<line x1="404.7" y1="164.4" x2="387.0" y2="164.4"/>
<line x1="387.0" y1="164.4" x2="386.4" y2="164.9"/>
<line x1="386.4" y1="164.9" x2="386.4" y2="170.3"/>
<line x1="386.4" y1="170.3" x2="387.0" y2="170.8"/>
<line x1="387.0" y1="170.8" x2="387.0" y2="175.7"/>
<line x1="387.0" y1="175.7" x2="386.4" y2="176.2"/>
<line x1="386.4" y1="176.2" x2="386.4" y2="176.6"/>
<line x1="386.4" y1="176.6" x2="385.1" y2="177.6"/>
<line x1="385.1" y1="177.6" x2="383.9" y2="177.6"/>
<line x1="383.9" y1="177.6" x2="383.3" y2="178.0"/>
<line x1="383.3" y1="178.0" x2="381.5" y2="178.0"/>
<line x1="381.5" y1="178.0" x2="380.9" y2="178.5"/>
<line x1="380.9" y1="178.5" x2="379.0" y2="178.5"/>
<line x1="379.0" y1="178.5" x2="378.4" y2="178.9"/>
<line x1="378.4" y1="178.9" x2="377.2" y2="178.9"/>
<line x1="377.2" y1="178.9" x2="376.6" y2="179.4"/>
<line x1="376.6" y1="179.4" x2="375.4" y2="179.4"/>
<line x1="375.4" y1="179.4" x2="374.7" y2="179.8"/>
<line x1="374.7" y1="179.8" x2="373.5" y2="179.8"/>
<line x1="373.5" y1="179.8" x2="372.9" y2="180.3"/>
<line x1="372.9" y1="180.3" x2="371.1" y2="180.3"/>
<line x1="371.1" y1="180.3" x2="370.5" y2="180.7"/>
<line x1="370.5" y1="180.7" x2="367.4" y2="180.7"/>
<line x1="367.4" y1="180.7" x2="366.8" y2="181.2"/>
<line x1="366.8" y1="181.2" x2="366.2" y2="181.2"/>
<line x1="366.2" y1="181.2" x2="365.6" y2="181.6"/>
<line x1="365.6" y1="181.6" x2="363.7" y2="181.6"/>
<line x1="363.7" y1="181.6" x2="363.1" y2="182.1"/>
<line x1="363.1" y1="182.1" x2="361.9" y2="182.1"/>
<line x1="361.9" y1="182.1" x2="361.3" y2="182.5"/>
<line x1="361.3" y1="182.5" x2="359.5" y2="182.5"/>
<line x1="359.5" y1="182.5" x2="358.8" y2="183.0"/>
<line x1="358.8" y1="183.0" x2="356.4" y2="183.0"/>
<line x1="356.4" y1="183.0" x2="355.8" y2="183.4"/>
<line x1="355.8" y1="183.4" x2="354.0" y2="183.4"/>
<line x1="354.0" y1="183.4" x2="353.3" y2="183.9"/>
<line x1="353.3" y1="183.9" x2="352.1" y2="183.9"/>
<line x1="352.1" y1="183.9" x2="351.5" y2="184.3"/>
<line x1="351.5" y1="184.3" x2="349.7" y2="184.3"/>
<line x1="349.7" y1="184.3" x2="349.1" y2="184.8"/>
<line x1="349.1" y1="184.8" x2="347.8" y2="184.8"/>
<line x1="347.8" y1="184.8" x2="347.2" y2="185.2"/>
<line x1="347.2" y1="185.2" x2="345.4" y2="185.2"/>
<line x1="345.4" y1="185.2" x2="344.8" y2="185.7"/>
<line x1="344.8" y1="185.7" x2="342.9" y2="185.7"/>
<line x1="342.9" y1="185.7" x2="342.3" y2="186.1"/>
<line x1="342.3" y1="186.1" x2="341.1" y2="186.1"/>
<line x1="341.1" y1="186.1" x2="340.5" y2="186.6"/>
<line x1="340.5" y1="186.6" x2="338.1" y2="186.6"/>
<line x1="338.1" y1="186.6" x2="337.4" y2="187.1"/>
<line x1="337.4" y1="187.1" x2="335.6" y2="187.1"/>
<line x1="335.6" y1="187.1" x2="335.0" y2="187.5"/>
<line x1="335.0" y1="187.5" x2="334.4" y2="187.5"/>
<line x1="334.4" y1="187.5" x2="333.8" y2="188.0"/>
<line x1="333.8" y1="188.0" x2="332.6" y2="188.0"/>
<line x1="332.6" y1="188.0" x2="331.9" y2="188.4"/>
<line x1="331.9" y1="188.4" x2="331.3" y2="188.4"/>
<line x1="331.3" y1="188.4" x2="330.7" y2="188.9"/>
<line x1="330.7" y1="188.9" x2="330.1" y2="188.9"/>
<line x1="330.1" y1="188.9" x2="328.9" y2="189.8"/>
<line x1="328.9" y1="189.8" x2="328.3" y2="189.8"/>
<line x1="328.3" y1="189.8" x2="323.4" y2="193.4"/>
<line x1="323.4" y1="193.4" x2="323.4" y2="193.8"/>
<line x1="323.4" y1="193.8" x2="322.2" y2="194.7"/>
<line x1="322.2" y1="194.7" x2="322.2" y2="195.2"/>
<line x1="322.2" y1="195.2" x2="321.6" y2="195.6"/>
<line x1="321.6" y1="195.6" x2="321.6" y2="196.1"/>
<line x1="321.6" y1="196.1" x2="320.9" y2="196.5"/>
<line x1="320.9" y1="196.5" x2="320.9" y2="197.0"/>
<line x1="320.9" y1="197.0" x2="320.3" y2="197.5"/>
<line x1="320.3" y1="197.5" x2="320.3" y2="198.4"/>
<line x1="320.3" y1="198.4" x2="319.7" y2="198.8"/>
<line x1="319.7" y1="198.8" x2="319.7" y2="200.2"/>
<line x1="319.7" y1="200.2" x2="319.1" y2="200.6"/>
<line x1="319.1" y1="200.6" x2="319.1" y2="202.9"/>
<line x1="319.1" y1="202.9" x2="318.5" y2="203.3"/>
<line x1="318.5" y1="203.3" x2="318.5" y2="207.4"/>
<line x1="318.5" y1="207.4" x2="319.1" y2="207.9"/>
<line x1="319.1" y1="207.9" x2="319.1" y2="213.7"/>
<line x1="319.1" y1="213.7" x2="319.7" y2="214.2"/>
<line x1="319.7" y1="214.2" x2="319.7" y2="224.6"/>
<line x1="319.7" y1="224.6" x2="320.3" y2="225.0"/>
<line x1="320.3" y1="225.0" x2="320.3" y2="239.1"/>
<line x1="320.3" y1="239.1" x2="320.9" y2="239.5"/>
<line x1="320.9" y1="239.5" x2="320.9" y2="258.5"/>
<line x1="320.9" y1="258.5" x2="321.6" y2="259.0"/>
<line x1="321.6" y1="259.0" x2="321.6" y2="267.1"/>
<line x1="321.6" y1="267.1" x2="322.2" y2="267.6"/>
<line x1="322.2" y1="267.6" x2="322.2" y2="278.9"/>
<line x1="322.2" y1="278.9" x2="322.8" y2="279.3"/>
<line x1="322.8" y1="279.3" x2="322.8" y2="290.6"/>
<line x1="322.8" y1="290.6" x2="323.4" y2="291.1"/>
<line x1="323.4" y1="291.1" x2="323.4" y2="304.2"/>
<line x1="323.4" y1="304.2" x2="324.0" y2="304.6"/>
<line x1="324.0" y1="304.6" x2="324.0" y2="320.9"/>
<line x1="324.0" y1="320.9" x2="324.6" y2="321.4"/>
<line x1="324.6" y1="321.4" x2="324.6" y2="335.4"/>
<line x1="324.6" y1="335.4" x2="325.2" y2="335.9"/>
<line x1="325.2" y1="335.9" x2="325.2" y2="337.7"/>
<line x1="325.2" y1="337.7" x2="325.8" y2="338.1"/>
<line x1="325.8" y1="338.1" x2="325.8" y2="339.0"/>
<line x1="325.8" y1="339.0" x2="326.4" y2="339.5"/>
<line x1="326.4" y1="339.5" x2="326.4" y2="340.4"/>
<line x1="326.4" y1="340.4" x2="327.1" y2="340.8"/>
<line x1="327.1" y1="340.8" x2="327.1" y2="341.3"/>
<line x1="327.1" y1="341.3" x2="327.7" y2="341.7"/>
<line x1="327.7" y1="341.7" x2="327.7" y2="342.2"/>
<line x1="327.7" y1="342.2" x2="328.3" y2="342.6"/>
<line x1="328.3" y1="342.6" x2="328.3" y2="343.1"/>
<line x1="328.3" y1="343.1" x2="328.9" y2="343.5"/>
<line x1="328.9" y1="343.5" x2="328.9" y2="344.0"/>
<line x1="328.9" y1="344.0" x2="330.1" y2="344.9"/>
<line x1="330.1" y1="344.9" x2="330.1" y2="345.4"/>
<line x1="330.1" y1="345.4" x2="338.1" y2="351.2"/>
<line x1="338.1" y1="351.2" x2="338.7" y2="351.2"/>
<line x1="338.7" y1="351.2" x2="339.3" y2="351.7"/>
<line x1="339.3" y1="351.7" x2="339.9" y2="351.7"/>
<line x1="339.9" y1="351.7" x2="341.1" y2="352.6"/>
<line x1="341.1" y1="352.6" x2="341.7" y2="352.6"/>
<line x1="341.7" y1="352.6" x2="342.3" y2="353.0"/>
<line x1="342.3" y1="353.0" x2="342.9" y2="353.0"/>
<line x1="342.9" y1="353.0" x2="343.6" y2="353.5"/>
<line x1="343.6" y1="353.5" x2="344.8" y2="353.5"/>
<line x1="344.8" y1="353.5" x2="345.4" y2="354.0"/>
<line x1="345.4" y1="354.0" x2="346.0" y2="354.0"/>
<line x1="346.0" y1="354.0" x2="346.6" y2="354.4"/>
<line x1="346.6" y1="354.4" x2="347.2" y2="354.4"/>
<line x1="347.2" y1="354.4" x2="347.8" y2="354.9"/>
<line x1="347.8" y1="354.9" x2="349.1" y2="354.9"/>
<line x1="349.1" y1="354.9" x2="349.7" y2="355.3"/>
<line x1="349.7" y1="355.3" x2="350.3" y2="355.3"/>
<line x1="350.3" y1="355.3" x2="350.9" y2="355.8"/>
<line x1="350.9" y1="355.8" x2="351.5" y2="355.8"/>
<line x1="351.5" y1="355.8" x2="352.1" y2="356.2"/>
<line x1="352.1" y1="356.2" x2="353.3" y2="356.2"/>
<line x1="353.3" y1="356.2" x2="354.0" y2="356.7"/>
<line x1="354.0" y1="356.7" x2="354.6" y2="356.7"/>
<line x1="354.6" y1="356.7" x2="355.2" y2="357.1"/>
<line x1="355.2" y1="357.1" x2="355.2" y2="358.5"/>
<line x1="355.2" y1="358.5" x2="354.6" y2="358.9"/>
<line x1="354.6" y1="358.9" x2="354.6" y2="360.3"/>
<line x1="354.6" y1="360.3" x2="354.0" y2="360.7"/>
<line x1="354.0" y1="360.7" x2="354.0" y2="362.1"/>
<line x1="354.0" y1="362.1" x2="353.3" y2="362.5"/>
<line x1="353.3" y1="362.5" x2="353.3" y2="363.9"/>
<line x1="353.3" y1="363.9" x2="352.7" y2="364.4"/>
<line x1="352.7" y1="364.4" x2="352.7" y2="365.7"/>
<line x1="352.7" y1="365.7" x2="357.0" y2="368.9"/>
<line x1="357.0" y1="368.9" x2="357.6" y2="368.9"/>
<line x1="357.6" y1="368.9" x2="359.5" y2="370.2"/>
<line x1="359.5" y1="370.2" x2="359.5" y2="370.7"/>
<line x1="359.5" y1="370.7" x2="360.1" y2="371.1"/>
<line x1="360.1" y1="371.1" x2="360.7" y2="371.1"/>
<line x1="360.7" y1="371.1" x2="365.0" y2="374.3"/>
<line x1="365.0" y1="374.3" x2="365.0" y2="374.8"/>
<line x1="365.0" y1="374.8" x2="364.3" y2="375.2"/>
<line x1="364.3" y1="375.2" x2="362.5" y2="375.2"/>
<line x1="362.5" y1="375.2" x2="361.9" y2="374.8"/>
<line x1="361.9" y1="374.8" x2="360.1" y2="374.8"/>
<line x1="360.1" y1="374.8" x2="359.5" y2="375.2"/>
<line x1="359.5" y1="375.2" x2="358.2" y2="375.2"/>
<line x1="358.2" y1="375.2" x2="357.6" y2="374.8"/>
<line x1="357.6" y1="374.8" x2="356.4" y2="374.8"/>
<line x1="356.4" y1="374.8" x2="355.8" y2="375.2"/>
<line x1="355.8" y1="375.2" x2="354.0" y2="375.2"/>
<line x1="354.0" y1="375.2" x2="353.3" y2="374.8"/>
<line x1="353.3" y1="374.8" x2="295.3" y2="374.8"/>
<line x1="295.3" y1="374.8" x2="294.7" y2="374.3"/>
<line x1="294.7" y1="374.3" x2="281.8" y2="374.3"/>
<line x1="281.8" y1="374.3" x2="281.2" y2="374.8"/>
<line x1="281.2" y1="374.8" x2="280.6" y2="374.8"/>
<line x1="280.6" y1="374.8" x2="280.6" y2="375.2"/>
<line x1="280.6" y1="375.2" x2="279.4" y2="376.1"/>
<line x1="279.4" y1="376.1" x2="279.4" y2="376.6"/>
<line x1="279.4" y1="376.6" x2="277.5" y2="377.9"/>
<line x1="277.5" y1="377.9" x2="277.5" y2="378.4"/>
<line x1="277.5" y1="378.4" x2="276.3" y2="379.3"/>
<line x1="276.3" y1="379.3" x2="276.3" y2="379.7"/>
<line x1="276.3" y1="379.7" x2="275.1" y2="380.6"/>
<line x1="275.1" y1="380.6" x2="275.1" y2="381.1"/>
<line x1="275.1" y1="381.1" x2="274.5" y2="381.5"/>
<line x1="274.5" y1="381.5" x2="274.5" y2="382.0"/>
<line x1="274.5" y1="382.0" x2="272.6" y2="383.3"/>
<line x1="272.6" y1="383.3" x2="272.6" y2="383.8"/>
<line x1="272.6" y1="383.8" x2="272.0" y2="384.3"/>
<line x1="272.0" y1="384.3" x2="272.0" y2="384.7"/>
<line x1="272.0" y1="384.7" x2="270.8" y2="385.6"/>
<line x1="270.8" y1="385.6" x2="270.8" y2="386.1"/>
<line x1="270.8" y1="386.1" x2="269.6" y2="387.0"/>
<line x1="269.6" y1="387.0" x2="269.6" y2="387.4"/>
<line x1="269.6" y1="387.4" x2="267.8" y2="388.8"/>
<line x1="267.8" y1="388.8" x2="267.8" y2="389.2"/>
<line x1="267.8" y1="389.2" x2="266.5" y2="390.1"/>
<line x1="266.5" y1="390.1" x2="266.5" y2="390.6"/>
<line x1="266.5" y1="390.6" x2="265.3" y2="391.5"/>
<line x1="265.3" y1="391.5" x2="265.3" y2="391.9"/>
<line x1="265.3" y1="391.9" x2="264.7" y2="392.4"/>
<line x1="264.7" y1="392.4" x2="264.7" y2="392.8"/>
<line x1="264.7" y1="392.8" x2="262.9" y2="394.2"/>
<line x1="262.9" y1="394.2" x2="262.9" y2="394.7"/>
<line x1="262.9" y1="394.7" x2="260.4" y2="396.5"/>
<line x1="260.4" y1="396.5" x2="259.2" y2="396.5"/>
<line x1="259.2" y1="396.5" x2="258.6" y2="396.0"/>
<line x1="258.6" y1="396.0" x2="258.6" y2="394.7"/>
<line x1="258.6" y1="394.7" x2="258.0" y2="394.2"/>
<line x1="258.0" y1="394.2" x2="258.0" y2="393.8"/>
<line x1="258.0" y1="393.8" x2="256.1" y2="392.4"/>
<line x1="256.1" y1="392.4" x2="254.9" y2="392.4"/>
<line x1="254.9" y1="392.4" x2="253.7" y2="391.5"/>
<line x1="253.7" y1="391.5" x2="253.1" y2="391.9"/>
<line x1="253.1" y1="391.9" x2="248.2" y2="391.9"/>
<line x1="248.2" y1="391.9" x2="247.6" y2="392.4"/>
<line x1="247.6" y1="392.4" x2="244.5" y2="392.4"/>
<line x1="244.5" y1="392.4" x2="243.9" y2="391.9"/>
<line x1="243.9" y1="391.9" x2="243.3" y2="391.9"/>
<line x1="243.3" y1="391.9" x2="242.7" y2="391.5"/>
<line x1="242.7" y1="391.5" x2="242.1" y2="391.5"/>
<line x1="242.1" y1="391.5" x2="241.5" y2="391.0"/>
<line x1="241.5" y1="391.0" x2="240.9" y2="391.0"/>
<line x1="240.9" y1="391.0" x2="240.2" y2="390.6"/>
<line x1="240.2" y1="390.6" x2="236.6" y2="390.6"/>
<line x1="236.6" y1="390.6" x2="236.0" y2="390.1"/>
<line x1="236.0" y1="390.1" x2="233.5" y2="390.1"/>
<line x1="233.5" y1="390.1" x2="232.9" y2="390.6"/>
<line x1="232.9" y1="390.6" x2="231.1" y2="390.6"/>
<line x1="231.1" y1="390.6" x2="230.5" y2="390.1"/>
<line x1="230.5" y1="390.1" x2="221.9" y2="390.1"/>
<line x1="221.9" y1="390.1" x2="221.3" y2="390.6"/>
<line x1="221.3" y1="390.6" x2="219.5" y2="390.6"/>
<line x1="219.5" y1="390.6" x2="218.8" y2="390.1"/>
<line x1="218.8" y1="390.1" x2="197.5" y2="390.1"/>
<line x1="197.5" y1="390.1" x2="196.8" y2="389.7"/>
<line x1="196.8" y1="389.7" x2="192.6" y2="389.7"/>
<line x1="192.6" y1="389.7" x2="191.9" y2="390.1"/>
<line x1="191.9" y1="390.1" x2="191.3" y2="390.1"/>
<line x1="191.3" y1="390.1" x2="190.7" y2="389.7"/>
<line x1="190.7" y1="389.7" x2="190.1" y2="389.7"/>
<line x1="190.1" y1="389.7" x2="189.5" y2="389.2"/>
<line x1="189.5" y1="389.2" x2="189.5" y2="372.0"/>
<line x1="189.5" y1="372.0" x2="188.9" y2="371.6"/>
<line x1="188.9" y1="371.6" x2="188.9" y2="353.5"/>
<line x1="188.9" y1="353.5" x2="188.3" y2="353.0"/>
<line x1="188.3" y1="353.0" x2="188.3" y2="334.5"/>
<line x1="188.3" y1="334.5" x2="187.7" y2="334.0"/>
<line x1="187.7" y1="334.0" x2="187.7" y2="319.1"/>
<line x1="187.7" y1="319.1" x2="187.1" y2="318.7"/>
<line x1="187.1" y1="318.7" x2="187.1" y2="299.7"/>
<line x1="187.1" y1="299.7" x2="186.4" y2="299.2"/>
<line x1="186.4" y1="299.2" x2="186.4" y2="282.9"/>
<line x1="186.4" y1="282.9" x2="185.8" y2="282.5"/>
<line x1="185.8" y1="282.5" x2="185.8" y2="268.5"/>
<line x1="185.8" y1="268.5" x2="185.2" y2="268.0"/>
<line x1="185.2" y1="268.0" x2="185.2" y2="255.3"/>
<line x1="185.2" y1="255.3" x2="184.6" y2="254.9"/>
<line x1="184.6" y1="254.9" x2="184.6" y2="236.8"/>
<line x1="184.6" y1="236.8" x2="184.0" y2="236.4"/>
<line x1="184.0" y1="236.4" x2="184.0" y2="217.8"/>
<line x1="184.0" y1="217.8" x2="183.4" y2="217.4"/>
<line x1="183.4" y1="217.4" x2="183.4" y2="190.7"/>
<line x1="183.4" y1="190.7" x2="182.8" y2="190.2"/>
<line x1="182.8" y1="190.2" x2="182.8" y2="171.2"/>
<line x1="182.8" y1="171.2" x2="182.2" y2="170.8"/>
<line x1="182.2" y1="170.8" x2="182.2" y2="151.3"/>
<line x1="182.2" y1="151.3" x2="181.6" y2="150.9"/>
<line x1="181.6" y1="150.9" x2="181.6" y2="141.4"/>
<line x1="181.6" y1="141.4" x2="182.8" y2="140.5"/>
</g>
<g stroke="#cc8800" stroke-width="1.5" fill="#fff8e0">
<line x1="355.8" y1="358.0" x2="356.4" y2="357.6"/>
<line x1="356.4" y1="357.6" x2="357.6" y2="357.6"/>
<line x1="357.6" y1="357.6" x2="358.2" y2="358.0"/>
<line x1="358.2" y1="358.0" x2="359.5" y2="358.0"/>
<line x1="359.5" y1="358.0" x2="360.1" y2="358.5"/>
<line x1="360.1" y1="358.5" x2="360.7" y2="358.5"/>
<line x1="360.7" y1="358.5" x2="361.3" y2="358.9"/>
<line x1="361.3" y1="358.9" x2="362.5" y2="358.9"/>
<line x1="362.5" y1="358.9" x2="363.1" y2="359.4"/>
<line x1="363.1" y1="359.4" x2="363.7" y2="359.4"/>
<line x1="363.7" y1="359.4" x2="364.3" y2="359.8"/>
<line x1="364.3" y1="359.8" x2="365.6" y2="359.8"/>
<line x1="365.6" y1="359.8" x2="366.2" y2="360.3"/>
<line x1="366.2" y1="360.3" x2="367.4" y2="360.3"/>
<line x1="367.4" y1="360.3" x2="368.0" y2="360.7"/>
<line x1="368.0" y1="360.7" x2="368.6" y2="360.7"/>
<line x1="368.6" y1="360.7" x2="369.2" y2="361.2"/>
<line x1="369.2" y1="361.2" x2="369.8" y2="361.2"/>
<line x1="369.8" y1="361.2" x2="370.5" y2="361.6"/>
<line x1="370.5" y1="361.6" x2="371.7" y2="361.6"/>
<line x1="371.7" y1="361.6" x2="372.3" y2="362.1"/>
<line x1="372.3" y1="362.1" x2="374.1" y2="362.1"/>
<line x1="374.1" y1="362.1" x2="374.7" y2="362.5"/>
<line x1="374.7" y1="362.5" x2="375.4" y2="362.5"/>
<line x1="375.4" y1="362.5" x2="376.0" y2="363.0"/>
<line x1="376.0" y1="363.0" x2="377.2" y2="363.0"/>
<line x1="377.2" y1="363.0" x2="377.8" y2="363.4"/>
<line x1="377.8" y1="363.4" x2="378.4" y2="363.4"/>
<line x1="378.4" y1="363.4" x2="379.0" y2="363.9"/>
<line x1="379.0" y1="363.9" x2="380.2" y2="363.9"/>
<line x1="380.2" y1="363.9" x2="381.5" y2="364.8"/>
<line x1="381.5" y1="364.8" x2="382.7" y2="364.8"/>
<line x1="382.7" y1="364.8" x2="383.3" y2="365.3"/>
<line x1="383.3" y1="365.3" x2="384.5" y2="365.3"/>
<line x1="384.5" y1="365.3" x2="385.1" y2="365.7"/>
<line x1="385.1" y1="365.7" x2="385.7" y2="365.7"/>
<line x1="385.7" y1="365.7" x2="386.4" y2="366.2"/>
<line x1="386.4" y1="366.2" x2="387.6" y2="366.2"/>
<line x1="387.6" y1="366.2" x2="388.2" y2="366.6"/>
<line x1="388.2" y1="366.6" x2="388.8" y2="366.6"/>
<line x1="388.8" y1="366.6" x2="389.4" y2="367.1"/>
<line x1="389.4" y1="367.1" x2="390.6" y2="367.1"/>
<line x1="390.6" y1="367.1" x2="391.2" y2="367.5"/>
<line x1="391.2" y1="367.5" x2="392.5" y2="367.5"/>
<line x1="392.5" y1="367.5" x2="393.1" y2="368.0"/>
<line x1="393.1" y1="368.0" x2="393.1" y2="368.4"/>
<line x1="393.1" y1="368.4" x2="393.7" y2="368.9"/>
<line x1="393.7" y1="368.9" x2="393.7" y2="369.3"/>
<line x1="393.7" y1="369.3" x2="393.1" y2="369.8"/>
<line x1="393.1" y1="369.8" x2="393.1" y2="370.2"/>
<line x1="393.1" y1="370.2" x2="392.5" y2="370.7"/>
<line x1="392.5" y1="370.7" x2="391.2" y2="370.7"/>
<line x1="391.2" y1="370.7" x2="390.6" y2="371.1"/>
<line x1="390.6" y1="371.1" x2="389.4" y2="371.1"/>
<line x1="389.4" y1="371.1" x2="388.2" y2="372.0"/>
<line x1="388.2" y1="372.0" x2="388.2" y2="373.4"/>
<line x1="388.2" y1="373.4" x2="387.6" y2="373.9"/>
<line x1="387.6" y1="373.9" x2="386.4" y2="373.9"/>
<line x1="386.4" y1="373.9" x2="385.7" y2="374.3"/>
<line x1="385.7" y1="374.3" x2="383.9" y2="374.3"/>
<line x1="383.9" y1="374.3" x2="383.3" y2="374.8"/>
<line x1="383.3" y1="374.8" x2="382.7" y2="374.8"/>
<line x1="382.7" y1="374.8" x2="382.1" y2="375.2"/>
<line x1="382.1" y1="375.2" x2="368.6" y2="375.2"/>
<line x1="368.6" y1="375.2" x2="368.0" y2="374.8"/>
<line x1="368.0" y1="374.8" x2="367.4" y2="375.2"/>
<line x1="367.4" y1="375.2" x2="366.8" y2="375.2"/>
<line x1="366.8" y1="375.2" x2="366.2" y2="374.8"/>
<line x1="366.2" y1="374.8" x2="366.2" y2="374.3"/>
<line x1="366.2" y1="374.3" x2="365.0" y2="373.4"/>
<line x1="365.0" y1="373.4" x2="364.3" y2="373.4"/>
<line x1="364.3" y1="373.4" x2="363.1" y2="372.5"/>
<line x1="363.1" y1="372.5" x2="363.1" y2="372.0"/>
<line x1="363.1" y1="372.0" x2="362.5" y2="372.0"/>
<line x1="362.5" y1="372.0" x2="355.2" y2="366.6"/>
<line x1="355.2" y1="366.6" x2="354.6" y2="366.6"/>
<line x1="354.6" y1="366.6" x2="353.3" y2="365.7"/>
<line x1="353.3" y1="365.7" x2="353.3" y2="363.9"/>
<line x1="353.3" y1="363.9" x2="354.0" y2="363.4"/>
<line x1="354.0" y1="363.4" x2="354.0" y2="362.1"/>
<line x1="354.0" y1="362.1" x2="354.6" y2="361.6"/>
<line x1="354.6" y1="361.6" x2="354.6" y2="360.7"/>
<line x1="354.6" y1="360.7" x2="355.2" y2="360.3"/>
<line x1="355.2" y1="360.3" x2="355.2" y2="358.9"/>
<line x1="355.2" y1="358.9" x2="355.8" y2="358.5"/>
<line x1="355.8" y1="358.5" x2="355.8" y2="358.0"/>
<line x1="526.4" y1="144.1" x2="527.0" y2="143.6"/>
<line x1="527.0" y1="143.6" x2="527.6" y2="143.6"/>
<line x1="527.6" y1="143.6" x2="528.2" y2="144.1"/>
<line x1="528.2" y1="144.1" x2="528.8" y2="144.1"/>
<line x1="528.8" y1="144.1" x2="529.4" y2="143.6"/>
<line x1="529.4" y1="143.6" x2="534.3" y2="143.6"/>
<line x1="534.3" y1="143.6" x2="534.9" y2="144.1"/>
<line x1="534.9" y1="144.1" x2="539.2" y2="144.1"/>
<line x1="539.2" y1="144.1" x2="539.8" y2="143.6"/>
<line x1="539.8" y1="143.6" x2="550.8" y2="143.6"/>
<line x1="550.8" y1="143.6" x2="551.4" y2="144.1"/>
<line x1="551.4" y1="144.1" x2="558.8" y2="144.1"/>
<line x1="558.8" y1="144.1" x2="559.4" y2="143.6"/>
<line x1="559.4" y1="143.6" x2="563.6" y2="143.6"/>
<line x1="563.6" y1="143.6" x2="564.3" y2="144.1"/>
<line x1="564.3" y1="144.1" x2="564.9" y2="144.1"/>
<line x1="564.9" y1="144.1" x2="565.5" y2="143.6"/>
<line x1="565.5" y1="143.6" x2="567.3" y2="143.6"/>
<line x1="567.3" y1="143.6" x2="567.9" y2="144.1"/>
<line x1="567.9" y1="144.1" x2="612.6" y2="144.1"/>
<line x1="612.6" y1="144.1" x2="613.2" y2="144.5"/>
<line x1="613.2" y1="144.5" x2="613.2" y2="155.8"/>
<line x1="613.2" y1="155.8" x2="613.8" y2="156.3"/>
<line x1="613.8" y1="156.3" x2="613.8" y2="180.7"/>
<line x1="613.8" y1="180.7" x2="613.2" y2="181.2"/>
<line x1="613.2" y1="181.2" x2="611.3" y2="181.2"/>
<line x1="611.3" y1="181.2" x2="610.7" y2="180.7"/>
<line x1="610.7" y1="180.7" x2="608.3" y2="180.7"/>
<line x1="608.3" y1="180.7" x2="607.7" y2="180.3"/>
<line x1="607.7" y1="180.3" x2="605.8" y2="180.3"/>
<line x1="605.8" y1="180.3" x2="605.2" y2="179.8"/>
<line x1="605.2" y1="179.8" x2="603.4" y2="179.8"/>
<line x1="603.4" y1="179.8" x2="602.8" y2="179.4"/>
<line x1="602.8" y1="179.4" x2="596.7" y2="179.4"/>
<line x1="596.7" y1="179.4" x2="596.0" y2="178.9"/>
<line x1="596.0" y1="178.9" x2="595.4" y2="178.9"/>
<line x1="595.4" y1="178.9" x2="594.2" y2="178.0"/>
<line x1="594.2" y1="178.0" x2="592.4" y2="178.0"/>
<line x1="592.4" y1="178.0" x2="591.2" y2="177.1"/>
<line x1="591.2" y1="177.1" x2="591.2" y2="172.6"/>
<line x1="591.2" y1="172.6" x2="590.5" y2="172.1"/>
<line x1="590.5" y1="172.1" x2="590.5" y2="166.7"/>
<line x1="590.5" y1="166.7" x2="589.9" y2="166.2"/>
<line x1="589.9" y1="166.2" x2="589.9" y2="165.3"/>
<line x1="589.9" y1="165.3" x2="533.1" y2="165.3"/>
<line x1="533.1" y1="165.3" x2="532.5" y2="164.9"/>
<line x1="532.5" y1="164.9" x2="532.5" y2="164.0"/>
<line x1="532.5" y1="164.0" x2="533.7" y2="163.1"/>
<line x1="533.7" y1="163.1" x2="533.7" y2="162.6"/>
<line x1="533.7" y1="162.6" x2="534.3" y2="162.2"/>
<line x1="534.3" y1="162.2" x2="534.3" y2="159.9"/>
<line x1="534.3" y1="159.9" x2="533.7" y2="159.5"/>
<line x1="533.7" y1="159.5" x2="533.7" y2="158.6"/>
<line x1="533.7" y1="158.6" x2="533.1" y2="158.1"/>
<line x1="533.1" y1="158.1" x2="533.1" y2="157.2"/>
<line x1="533.1" y1="157.2" x2="532.5" y2="156.7"/>
<line x1="532.5" y1="156.7" x2="532.5" y2="155.4"/>
<line x1="532.5" y1="155.4" x2="531.9" y2="154.9"/>
<line x1="531.9" y1="154.9" x2="531.9" y2="154.0"/>
<line x1="531.9" y1="154.0" x2="531.2" y2="153.6"/>
<line x1="531.2" y1="153.6" x2="531.2" y2="152.2"/>
<line x1="531.2" y1="152.2" x2="530.6" y2="151.8"/>
<line x1="530.6" y1="151.8" x2="530.6" y2="151.3"/>
<line x1="530.6" y1="151.3" x2="530.0" y2="150.9"/>
<line x1="530.0" y1="150.9" x2="530.0" y2="150.4"/>
<line x1="530.0" y1="150.4" x2="529.4" y2="150.0"/>
<line x1="529.4" y1="150.0" x2="529.4" y2="149.1"/>
<line x1="529.4" y1="149.1" x2="528.8" y2="148.6"/>
<line x1="528.8" y1="148.6" x2="528.8" y2="148.2"/>
<line x1="528.8" y1="148.2" x2="528.2" y2="147.7"/>
<line x1="528.2" y1="147.7" x2="528.2" y2="146.8"/>
<line x1="528.2" y1="146.8" x2="527.6" y2="146.3"/>
<line x1="527.6" y1="146.3" x2="527.6" y2="145.9"/>
<line x1="527.6" y1="145.9" x2="526.4" y2="145.0"/>
<line x1="526.4" y1="145.0" x2="526.4" y2="144.1"/>
</g>
<g stroke="#0066ff" stroke-width="1.5" fill="none">
<line x1="119.2" y1="439.4" x2="119.8" y2="439.4"/>
<line x1="119.8" y1="439.4" x2="120.4" y2="439.9"/>
<line x1="120.4" y1="439.9" x2="122.3" y2="439.9"/>
<line x1="122.3" y1="439.9" x2="122.9" y2="440.3"/>
<line x1="122.9" y1="440.3" x2="122.9" y2="440.8"/>
<line x1="122.9" y1="440.8" x2="122.3" y2="441.2"/>
<line x1="122.3" y1="441.2" x2="122.9" y2="441.7"/>
<line x1="122.9" y1="441.7" x2="122.9" y2="442.1"/>
<line x1="122.9" y1="442.1" x2="123.5" y2="442.6"/>
<line x1="123.5" y1="442.6" x2="123.5" y2="443.1"/>
<line x1="123.5" y1="443.1" x2="123.5" y2="441.7"/>
<line x1="123.5" y1="441.7" x2="124.1" y2="441.2"/>
<line x1="124.1" y1="441.2" x2="125.3" y2="441.2"/>
<line x1="125.3" y1="441.2" x2="126.5" y2="442.1"/>
<line x1="126.5" y1="442.1" x2="126.5" y2="442.6"/>
<line x1="126.5" y1="442.6" x2="127.1" y2="442.6"/>
<line x1="127.1" y1="442.6" x2="127.1" y2="441.2"/>
<line x1="127.1" y1="441.2" x2="127.8" y2="440.8"/>
<line x1="127.8" y1="440.8" x2="129.0" y2="440.8"/>
<line x1="129.0" y1="440.8" x2="129.6" y2="441.2"/>
<line x1="129.6" y1="441.2" x2="129.6" y2="447.6"/>
<line x1="129.6" y1="447.6" x2="129.0" y2="448.0"/>
<line x1="129.0" y1="448.0" x2="127.1" y2="448.0"/>
<line x1="127.1" y1="448.0" x2="126.5" y2="447.6"/>
<line x1="126.5" y1="447.6" x2="126.5" y2="444.0"/>
<line x1="126.5" y1="444.0" x2="125.9" y2="444.0"/>
<line x1="125.9" y1="444.0" x2="125.9" y2="461.6"/>
<line x1="125.9" y1="461.6" x2="126.5" y2="461.6"/>
<line x1="126.5" y1="461.6" x2="127.1" y2="462.1"/>
<line x1="127.1" y1="462.1" x2="127.1" y2="467.5"/>
<line x1="127.1" y1="467.5" x2="126.5" y2="467.9"/>
<line x1="126.5" y1="467.9" x2="126.5" y2="472.0"/>
<line x1="126.5" y1="472.0" x2="125.9" y2="472.5"/>
<line x1="125.9" y1="472.5" x2="125.9" y2="476.1"/>
<line x1="125.9" y1="476.1" x2="126.5" y2="476.5"/>
<line x1="126.5" y1="476.5" x2="126.5" y2="479.7"/>
<line x1="126.5" y1="479.7" x2="125.9" y2="480.1"/>
<line x1="125.9" y1="480.1" x2="125.9" y2="481.5"/>
<line x1="125.9" y1="481.5" x2="126.5" y2="482.0"/>
<line x1="126.5" y1="482.0" x2="126.5" y2="487.4"/>
<line x1="126.5" y1="487.4" x2="127.1" y2="487.8"/>
<line x1="127.1" y1="487.8" x2="127.1" y2="498.2"/>
<line x1="127.1" y1="498.2" x2="126.5" y2="498.7"/>
<line x1="126.5" y1="498.7" x2="126.5" y2="499.6"/>
<line x1="126.5" y1="499.6" x2="125.9" y2="500.0"/>
<line x1="125.9" y1="500.0" x2="125.9" y2="500.5"/>
<line x1="125.9" y1="500.5" x2="126.5" y2="500.9"/>
<line x1="126.5" y1="500.9" x2="126.5" y2="501.9"/>
<line x1="126.5" y1="501.9" x2="125.9" y2="502.3"/>
<line x1="125.9" y1="502.3" x2="125.9" y2="505.5"/>
<line x1="125.9" y1="505.5" x2="126.5" y2="505.9"/>
<line x1="126.5" y1="505.9" x2="126.5" y2="510.4"/>
<line x1="126.5" y1="510.4" x2="127.1" y2="510.9"/>
<line x1="127.1" y1="510.9" x2="127.1" y2="521.8"/>
<line x1="127.1" y1="521.8" x2="126.5" y2="522.2"/>
<line x1="126.5" y1="522.2" x2="126.5" y2="540.8"/>
<line x1="126.5" y1="540.8" x2="127.1" y2="540.8"/>
<line x1="127.1" y1="540.8" x2="127.8" y2="541.2"/>
<line x1="127.8" y1="541.2" x2="127.8" y2="543.5"/>
<line x1="127.8" y1="543.5" x2="127.1" y2="543.9"/>
<line x1="127.1" y1="543.9" x2="127.1" y2="557.5"/>
<line x1="127.1" y1="557.5" x2="126.5" y2="557.9"/>
<line x1="126.5" y1="557.9" x2="125.9" y2="557.9"/>
<line x1="125.9" y1="557.9" x2="125.3" y2="557.5"/>
<line x1="125.3" y1="557.5" x2="125.3" y2="554.3"/>
<line x1="125.3" y1="554.3" x2="125.3" y2="559.7"/>
<line x1="125.3" y1="559.7" x2="125.9" y2="560.2"/>
<line x1="125.9" y1="560.2" x2="125.9" y2="562.0"/>
<line x1="125.9" y1="562.0" x2="126.5" y2="562.5"/>
<line x1="126.5" y1="562.5" x2="126.5" y2="565.2"/>
<line x1="126.5" y1="565.2" x2="125.9" y2="565.6"/>
<line x1="125.9" y1="565.6" x2="125.9" y2="566.5"/>
<line x1="125.9" y1="566.5" x2="126.5" y2="567.0"/>
<line x1="126.5" y1="567.0" x2="126.5" y2="568.3"/>
<line x1="126.5" y1="568.3" x2="125.3" y2="569.2"/>
<line x1="125.3" y1="569.2" x2="125.3" y2="569.7"/>
<line x1="125.3" y1="569.7" x2="124.1" y2="570.6"/>
<line x1="124.1" y1="570.6" x2="120.4" y2="570.6"/>
<line x1="120.4" y1="570.6" x2="119.8" y2="570.2"/>
<line x1="119.8" y1="570.2" x2="119.2" y2="570.6"/>
<line x1="119.2" y1="570.6" x2="118.6" y2="570.6"/>
<line x1="118.6" y1="570.6" x2="116.8" y2="569.2"/>
<line x1="116.8" y1="569.2" x2="116.8" y2="567.9"/>
<line x1="116.8" y1="567.9" x2="116.1" y2="567.4"/>
<line x1="116.1" y1="567.4" x2="116.1" y2="567.0"/>
<line x1="116.1" y1="567.0" x2="116.8" y2="566.5"/>
<line x1="116.8" y1="566.5" x2="116.8" y2="565.6"/>
<line x1="116.8" y1="565.6" x2="116.1" y2="565.2"/>
<line x1="116.1" y1="565.2" x2="116.1" y2="563.8"/>
<line x1="116.1" y1="563.8" x2="116.8" y2="563.4"/>
<line x1="116.8" y1="563.4" x2="116.1" y2="562.9"/>
<line x1="116.1" y1="562.9" x2="116.1" y2="561.1"/>
<line x1="116.1" y1="561.1" x2="116.8" y2="560.7"/>
<line x1="116.8" y1="560.7" x2="116.8" y2="558.8"/>
<line x1="116.8" y1="558.8" x2="116.1" y2="558.4"/>
<line x1="116.1" y1="558.4" x2="116.1" y2="557.9"/>
<line x1="116.1" y1="557.9" x2="116.8" y2="557.5"/>
<line x1="116.8" y1="557.5" x2="115.5" y2="556.6"/>
<line x1="115.5" y1="556.6" x2="115.5" y2="556.1"/>
<line x1="115.5" y1="556.1" x2="116.1" y2="555.7"/>
<line x1="116.1" y1="555.7" x2="116.1" y2="555.2"/>
<line x1="116.1" y1="555.2" x2="115.5" y2="554.8"/>
<line x1="115.5" y1="554.8" x2="115.5" y2="553.0"/>
<line x1="115.5" y1="553.0" x2="116.1" y2="552.5"/>
<line x1="116.1" y1="552.5" x2="116.1" y2="548.9"/>
<line x1="116.1" y1="548.9" x2="116.8" y2="548.4"/>
<line x1="116.8" y1="548.4" x2="116.8" y2="545.7"/>
<line x1="116.8" y1="545.7" x2="117.4" y2="545.3"/>
<line x1="117.4" y1="545.3" x2="117.4" y2="544.8"/>
<line x1="117.4" y1="544.8" x2="116.8" y2="544.4"/>
<line x1="116.8" y1="544.4" x2="116.8" y2="543.5"/>
<line x1="116.8" y1="543.5" x2="117.4" y2="543.0"/>
<line x1="117.4" y1="543.0" x2="117.4" y2="536.7"/>
<line x1="117.4" y1="536.7" x2="117.4" y2="543.0"/>
<line x1="117.4" y1="543.0" x2="116.8" y2="543.5"/>
<line x1="116.8" y1="543.5" x2="116.1" y2="543.5"/>
<line x1="116.1" y1="543.5" x2="115.5" y2="543.0"/>
<line x1="115.5" y1="543.0" x2="115.5" y2="533.5"/>
<line x1="115.5" y1="533.5" x2="116.1" y2="533.1"/>
<line x1="116.1" y1="533.1" x2="116.8" y2="533.1"/>
<line x1="116.8" y1="533.1" x2="116.8" y2="530.3"/>
<line x1="116.8" y1="530.3" x2="116.1" y2="529.9"/>
<line x1="116.1" y1="529.9" x2="116.1" y2="528.5"/>
<line x1="116.1" y1="528.5" x2="115.5" y2="528.1"/>
<line x1="115.5" y1="528.1" x2="115.5" y2="519.9"/>
<line x1="115.5" y1="519.9" x2="116.1" y2="519.5"/>
<line x1="116.1" y1="519.5" x2="116.1" y2="519.0"/>
<line x1="116.1" y1="519.0" x2="115.5" y2="518.6"/>
<line x1="115.5" y1="518.6" x2="115.5" y2="516.3"/>
<line x1="115.5" y1="516.3" x2="116.1" y2="515.9"/>
<line x1="116.1" y1="515.9" x2="116.1" y2="514.1"/>
<line x1="116.1" y1="514.1" x2="115.5" y2="513.6"/>
<line x1="115.5" y1="513.6" x2="115.5" y2="510.0"/>
<line x1="115.5" y1="510.0" x2="114.9" y2="509.5"/>
<line x1="114.9" y1="509.5" x2="114.9" y2="504.1"/>
<line x1="114.9" y1="504.1" x2="115.5" y2="503.7"/>
<line x1="115.5" y1="503.7" x2="114.9" y2="503.2"/>
<line x1="114.9" y1="503.2" x2="114.9" y2="502.8"/>
<line x1="114.9" y1="502.8" x2="115.5" y2="502.3"/>
<line x1="115.5" y1="502.3" x2="114.9" y2="501.9"/>
<line x1="114.9" y1="501.9" x2="114.9" y2="500.5"/>
<line x1="114.9" y1="500.5" x2="115.5" y2="500.0"/>
<line x1="115.5" y1="500.0" x2="115.5" y2="499.1"/>
<line x1="115.5" y1="499.1" x2="116.1" y2="498.7"/>
<line x1="116.1" y1="498.7" x2="116.8" y2="498.7"/>
<line x1="116.8" y1="498.7" x2="118.0" y2="497.8"/>
<line x1="118.0" y1="497.8" x2="118.6" y2="497.8"/>
<line x1="118.6" y1="497.8" x2="118.6" y2="497.3"/>
<line x1="118.6" y1="497.3" x2="117.4" y2="497.3"/>
<line x1="117.4" y1="497.3" x2="116.8" y2="496.9"/>
<line x1="116.8" y1="496.9" x2="116.8" y2="495.5"/>
<line x1="116.8" y1="495.5" x2="118.6" y2="494.2"/>
<line x1="118.6" y1="494.2" x2="118.6" y2="493.7"/>
<line x1="118.6" y1="493.7" x2="119.2" y2="493.3"/>
<line x1="119.2" y1="493.3" x2="118.0" y2="493.3"/>
<line x1="118.0" y1="493.3" x2="117.4" y2="493.7"/>
<line x1="117.4" y1="493.7" x2="116.1" y2="493.7"/>
<line x1="116.1" y1="493.7" x2="114.9" y2="492.8"/>
<line x1="114.9" y1="492.8" x2="114.9" y2="491.5"/>
<line x1="114.9" y1="491.5" x2="115.5" y2="491.0"/>
<line x1="115.5" y1="491.0" x2="115.5" y2="490.1"/>
<line x1="115.5" y1="490.1" x2="116.1" y2="489.6"/>
<line x1="116.1" y1="489.6" x2="116.1" y2="486.9"/>
<line x1="116.1" y1="486.9" x2="116.8" y2="486.5"/>
<line x1="116.8" y1="486.5" x2="116.1" y2="486.0"/>
<line x1="116.1" y1="486.0" x2="115.5" y2="486.0"/>
<line x1="115.5" y1="486.0" x2="114.9" y2="485.6"/>
<line x1="114.9" y1="485.6" x2="114.9" y2="484.7"/>
<line x1="114.9" y1="484.7" x2="115.5" y2="484.2"/>
<line x1="115.5" y1="484.2" x2="116.1" y2="484.2"/>
<line x1="116.1" y1="484.2" x2="116.1" y2="483.8"/>
<line x1="116.1" y1="483.8" x2="115.5" y2="483.3"/>
<line x1="115.5" y1="483.3" x2="115.5" y2="482.4"/>
<line x1="115.5" y1="482.4" x2="116.1" y2="482.0"/>
<line x1="116.1" y1="482.0" x2="116.1" y2="480.6"/>
<line x1="116.1" y1="480.6" x2="117.4" y2="479.7"/>
<line x1="117.4" y1="479.7" x2="117.4" y2="479.2"/>
<line x1="117.4" y1="479.2" x2="118.6" y2="478.3"/>
<line x1="118.6" y1="478.3" x2="118.0" y2="478.8"/>
<line x1="118.0" y1="478.8" x2="116.8" y2="478.8"/>
<line x1="116.8" y1="478.8" x2="116.1" y2="478.3"/>
<line x1="116.1" y1="478.3" x2="116.1" y2="476.5"/>
<line x1="116.1" y1="476.5" x2="115.5" y2="476.1"/>
<line x1="115.5" y1="476.1" x2="115.5" y2="475.6"/>
<line x1="115.5" y1="475.6" x2="116.1" y2="475.2"/>
<line x1="116.1" y1="475.2" x2="116.1" y2="474.7"/>
<line x1="116.1" y1="474.7" x2="116.8" y2="474.3"/>
<line x1="116.8" y1="474.3" x2="114.9" y2="472.9"/>
<line x1="114.9" y1="472.9" x2="114.9" y2="465.7"/>
<line x1="114.9" y1="465.7" x2="115.5" y2="465.2"/>
<line x1="115.5" y1="465.2" x2="115.5" y2="464.8"/>
<line x1="115.5" y1="464.8" x2="114.9" y2="464.3"/>
<line x1="114.9" y1="464.3" x2="114.9" y2="453.5"/>
<line x1="114.9" y1="453.5" x2="115.5" y2="453.0"/>
<line x1="115.5" y1="453.0" x2="115.5" y2="451.6"/>
<line x1="115.5" y1="451.6" x2="114.9" y2="451.2"/>
<line x1="114.9" y1="451.2" x2="114.9" y2="448.9"/>
<line x1="114.9" y1="448.9" x2="115.5" y2="448.5"/>
<line x1="115.5" y1="448.5" x2="114.9" y2="448.0"/>
<line x1="114.9" y1="448.0" x2="114.9" y2="447.6"/>
<line x1="114.9" y1="447.6" x2="115.5" y2="447.1"/>
<line x1="115.5" y1="447.1" x2="115.5" y2="446.7"/>
<line x1="115.5" y1="446.7" x2="116.1" y2="446.2"/>
<line x1="116.1" y1="446.2" x2="116.1" y2="445.8"/>
<line x1="116.1" y1="445.8" x2="115.5" y2="445.8"/>
<line x1="115.5" y1="445.8" x2="114.9" y2="445.3"/>
<line x1="114.9" y1="445.3" x2="114.9" y2="444.9"/>
<line x1="114.9" y1="444.9" x2="115.5" y2="444.4"/>
<line x1="115.5" y1="444.4" x2="116.8" y2="444.4"/>
<line x1="116.8" y1="444.4" x2="116.1" y2="444.0"/>
<line x1="116.1" y1="444.0" x2="115.5" y2="444.0"/>
<line x1="115.5" y1="444.0" x2="114.9" y2="443.5"/>
<line x1="114.9" y1="443.5" x2="114.9" y2="442.6"/>
<line x1="114.9" y1="442.6" x2="115.5" y2="442.1"/>
<line x1="115.5" y1="442.1" x2="116.1" y2="442.1"/>
<line x1="116.1" y1="442.1" x2="116.8" y2="442.6"/>
<line x1="116.8" y1="442.6" x2="117.4" y2="442.1"/>
<line x1="117.4" y1="442.1" x2="115.5" y2="442.1"/>
<line x1="115.5" y1="442.1" x2="114.9" y2="441.7"/>
<line x1="114.9" y1="441.7" x2="114.9" y2="441.2"/>
<line x1="114.9" y1="441.2" x2="116.1" y2="440.3"/>
<line x1="116.1" y1="440.3" x2="117.4" y2="440.3"/>
<line x1="117.4" y1="440.3" x2="118.0" y2="440.8"/>
<line x1="118.0" y1="440.8" x2="118.0" y2="440.3"/>
<line x1="118.0" y1="440.3" x2="119.2" y2="439.4"/>
<line x1="141.2" y1="435.8" x2="141.8" y2="435.4"/>
<line x1="141.8" y1="435.4" x2="142.4" y2="435.4"/>
<line x1="142.4" y1="435.4" x2="143.0" y2="435.8"/>
<line x1="143.0" y1="435.8" x2="147.3" y2="435.8"/>
<line x1="147.3" y1="435.8" x2="147.9" y2="436.3"/>
<line x1="147.9" y1="436.3" x2="147.9" y2="437.2"/>
<line x1="147.9" y1="437.2" x2="148.5" y2="437.2"/>
<line x1="148.5" y1="437.2" x2="149.2" y2="437.6"/>
<line x1="149.2" y1="437.6" x2="149.2" y2="438.1"/>
<line x1="149.2" y1="438.1" x2="147.9" y2="439.0"/>
<line x1="147.9" y1="439.0" x2="149.8" y2="439.0"/>
<line x1="149.8" y1="439.0" x2="149.8" y2="436.7"/>
<line x1="149.8" y1="436.7" x2="150.4" y2="436.3"/>
<line x1="150.4" y1="436.3" x2="151.6" y2="436.3"/>
<line x1="151.6" y1="436.3" x2="152.2" y2="436.7"/>
<line x1="152.2" y1="436.7" x2="152.8" y2="436.7"/>
<line x1="152.8" y1="436.7" x2="154.7" y2="438.1"/>
<line x1="154.7" y1="438.1" x2="154.7" y2="438.5"/>
<line x1="154.7" y1="438.5" x2="154.0" y2="439.0"/>
<line x1="154.0" y1="439.0" x2="152.2" y2="439.0"/>
<line x1="152.2" y1="439.0" x2="152.2" y2="440.3"/>
<line x1="152.2" y1="440.3" x2="152.8" y2="440.8"/>
<line x1="152.8" y1="440.8" x2="152.8" y2="441.7"/>
<line x1="152.8" y1="441.7" x2="153.4" y2="441.7"/>
<line x1="153.4" y1="441.7" x2="154.0" y2="442.1"/>
<line x1="154.0" y1="442.1" x2="154.0" y2="442.6"/>
<line x1="154.0" y1="442.6" x2="153.4" y2="443.1"/>
<line x1="153.4" y1="443.1" x2="153.4" y2="443.5"/>
<line x1="153.4" y1="443.5" x2="154.0" y2="444.0"/>
<line x1="154.0" y1="444.0" x2="154.0" y2="446.2"/>
<line x1="154.0" y1="446.2" x2="154.7" y2="446.7"/>
<line x1="154.7" y1="446.7" x2="154.7" y2="447.6"/>
<line x1="154.7" y1="447.6" x2="154.0" y2="448.0"/>
<line x1="154.0" y1="448.0" x2="147.9" y2="448.0"/>
<line x1="147.9" y1="448.0" x2="147.3" y2="448.5"/>
<line x1="147.3" y1="448.5" x2="147.3" y2="448.9"/>
<line x1="147.3" y1="448.9" x2="146.7" y2="449.4"/>
<line x1="146.7" y1="449.4" x2="147.3" y2="449.8"/>
<line x1="147.3" y1="449.8" x2="147.3" y2="451.2"/>
<line x1="147.3" y1="451.2" x2="146.7" y2="451.6"/>
<line x1="146.7" y1="451.6" x2="146.1" y2="451.6"/>
<line x1="146.1" y1="451.6" x2="145.5" y2="451.2"/>
<line x1="145.5" y1="451.2" x2="145.5" y2="450.7"/>
<line x1="145.5" y1="450.7" x2="144.9" y2="450.7"/>
<line x1="144.9" y1="450.7" x2="144.9" y2="451.6"/>
<line x1="144.9" y1="451.6" x2="145.5" y2="452.1"/>
<line x1="145.5" y1="452.1" x2="145.5" y2="452.6"/>
<line x1="145.5" y1="452.6" x2="146.7" y2="453.5"/>
<line x1="146.7" y1="453.5" x2="146.7" y2="453.9"/>
<line x1="146.7" y1="453.9" x2="147.3" y2="454.4"/>
<line x1="147.3" y1="454.4" x2="147.3" y2="463.0"/>
<line x1="147.3" y1="463.0" x2="147.9" y2="463.4"/>
<line x1="147.9" y1="463.4" x2="147.9" y2="474.3"/>
<line x1="147.9" y1="474.3" x2="148.5" y2="474.7"/>
<line x1="148.5" y1="474.7" x2="148.5" y2="491.0"/>
<line x1="148.5" y1="491.0" x2="149.2" y2="491.5"/>
<line x1="149.2" y1="491.5" x2="149.2" y2="504.6"/>
<line x1="149.2" y1="504.6" x2="149.8" y2="505.0"/>
<line x1="149.8" y1="505.0" x2="149.8" y2="512.7"/>
<line x1="149.8" y1="512.7" x2="150.4" y2="513.2"/>
<line x1="150.4" y1="513.2" x2="150.4" y2="514.1"/>
<line x1="150.4" y1="514.1" x2="149.8" y2="514.5"/>
<line x1="149.8" y1="514.5" x2="149.8" y2="517.7"/>
<line x1="149.8" y1="517.7" x2="150.4" y2="518.1"/>
<line x1="150.4" y1="518.1" x2="150.4" y2="534.0"/>
<line x1="150.4" y1="534.0" x2="151.0" y2="534.4"/>
<line x1="151.0" y1="534.4" x2="151.0" y2="551.2"/>
<line x1="151.0" y1="551.2" x2="151.6" y2="551.6"/>
<line x1="151.6" y1="551.6" x2="151.6" y2="558.8"/>
<line x1="151.6" y1="558.8" x2="151.0" y2="559.3"/>
<line x1="151.0" y1="559.3" x2="151.0" y2="561.1"/>
<line x1="151.0" y1="561.1" x2="150.4" y2="561.6"/>
<line x1="150.4" y1="561.6" x2="149.8" y2="561.6"/>
<line x1="149.8" y1="561.6" x2="149.8" y2="562.0"/>
<line x1="149.8" y1="562.0" x2="149.2" y2="562.5"/>
<line x1="149.2" y1="562.5" x2="147.3" y2="562.5"/>
<line x1="147.3" y1="562.5" x2="146.1" y2="561.6"/>
<line x1="146.1" y1="561.6" x2="146.1" y2="560.7"/>
<line x1="146.1" y1="560.7" x2="146.7" y2="560.2"/>
<line x1="146.7" y1="560.2" x2="146.7" y2="549.3"/>
<line x1="146.7" y1="549.3" x2="146.1" y2="548.9"/>
<line x1="146.1" y1="548.9" x2="146.1" y2="547.1"/>
<line x1="146.1" y1="547.1" x2="146.7" y2="546.6"/>
<line x1="146.7" y1="546.6" x2="146.7" y2="545.3"/>
<line x1="146.7" y1="545.3" x2="146.1" y2="544.8"/>
<line x1="146.1" y1="544.8" x2="146.1" y2="540.8"/>
<line x1="146.1" y1="540.8" x2="145.5" y2="540.3"/>
<line x1="145.5" y1="540.3" x2="145.5" y2="538.9"/>
<line x1="145.5" y1="538.9" x2="146.1" y2="538.5"/>
<line x1="146.1" y1="538.5" x2="146.7" y2="538.5"/>
<line x1="146.7" y1="538.5" x2="146.7" y2="536.7"/>
<line x1="146.7" y1="536.7" x2="146.1" y2="536.7"/>
<line x1="146.1" y1="536.7" x2="145.5" y2="536.2"/>
<line x1="145.5" y1="536.2" x2="145.5" y2="534.9"/>
<line x1="145.5" y1="534.9" x2="146.1" y2="534.4"/>
<line x1="146.1" y1="534.4" x2="146.1" y2="522.2"/>
<line x1="146.1" y1="522.2" x2="146.7" y2="521.8"/>
<line x1="146.7" y1="521.8" x2="146.7" y2="519.9"/>
<line x1="146.7" y1="519.9" x2="146.1" y2="519.5"/>
<line x1="146.1" y1="519.5" x2="146.1" y2="516.8"/>
<line x1="146.1" y1="516.8" x2="145.5" y2="516.8"/>
<line x1="145.5" y1="516.8" x2="144.9" y2="516.3"/>
<line x1="144.9" y1="516.3" x2="144.9" y2="514.5"/>
<line x1="144.9" y1="514.5" x2="145.5" y2="514.1"/>
<line x1="145.5" y1="514.1" x2="145.5" y2="504.6"/>
<line x1="145.5" y1="504.6" x2="144.9" y2="504.1"/>
<line x1="144.9" y1="504.1" x2="144.9" y2="499.6"/>
<line x1="144.9" y1="499.6" x2="144.3" y2="499.1"/>
<line x1="144.3" y1="499.1" x2="144.3" y2="501.9"/>
<line x1="144.3" y1="501.9" x2="143.7" y2="502.3"/>
<line x1="143.7" y1="502.3" x2="143.7" y2="506.8"/>
<line x1="143.7" y1="506.8" x2="143.0" y2="507.3"/>
<line x1="143.0" y1="507.3" x2="143.0" y2="517.7"/>
<line x1="143.0" y1="517.7" x2="142.4" y2="518.1"/>
<line x1="142.4" y1="518.1" x2="142.4" y2="523.6"/>
<line x1="142.4" y1="523.6" x2="141.8" y2="524.0"/>
<line x1="141.8" y1="524.0" x2="141.8" y2="526.3"/>
<line x1="141.8" y1="526.3" x2="142.4" y2="526.7"/>
<line x1="142.4" y1="526.7" x2="142.4" y2="536.7"/>
<line x1="142.4" y1="536.7" x2="141.8" y2="537.1"/>
<line x1="141.8" y1="537.1" x2="141.8" y2="538.9"/>
<line x1="141.8" y1="538.9" x2="141.2" y2="539.4"/>
<line x1="141.2" y1="539.4" x2="141.2" y2="540.8"/>
<line x1="141.2" y1="540.8" x2="141.8" y2="541.2"/>
<line x1="141.8" y1="541.2" x2="141.8" y2="542.1"/>
<line x1="141.8" y1="542.1" x2="141.2" y2="542.6"/>
<line x1="141.2" y1="542.6" x2="141.2" y2="553.9"/>
<line x1="141.2" y1="553.9" x2="140.6" y2="554.3"/>
<line x1="140.6" y1="554.3" x2="140.6" y2="555.7"/>
<line x1="140.6" y1="555.7" x2="141.2" y2="556.1"/>
<line x1="141.2" y1="556.1" x2="141.2" y2="556.6"/>
<line x1="141.2" y1="556.6" x2="140.6" y2="557.0"/>
<line x1="140.6" y1="557.0" x2="140.6" y2="558.4"/>
<line x1="140.6" y1="558.4" x2="140.0" y2="558.8"/>
<line x1="140.0" y1="558.8" x2="140.0" y2="562.9"/>
<line x1="140.0" y1="562.9" x2="139.4" y2="563.4"/>
<line x1="139.4" y1="563.4" x2="138.8" y2="563.4"/>
<line x1="138.8" y1="563.4" x2="138.1" y2="563.8"/>
<line x1="138.1" y1="563.8" x2="138.8" y2="563.8"/>
<line x1="138.8" y1="563.8" x2="139.4" y2="564.3"/>
<line x1="139.4" y1="564.3" x2="139.4" y2="564.7"/>
<line x1="139.4" y1="564.7" x2="138.8" y2="565.2"/>
<line x1="138.8" y1="565.2" x2="136.9" y2="565.2"/>
<line x1="136.9" y1="565.2" x2="136.3" y2="564.7"/>
<line x1="136.3" y1="564.7" x2="136.3" y2="564.3"/>
<line x1="136.3" y1="564.3" x2="136.3" y2="566.5"/>
<line x1="136.3" y1="566.5" x2="135.7" y2="567.0"/>
<line x1="135.7" y1="567.0" x2="135.1" y2="567.0"/>
<line x1="135.1" y1="567.0" x2="134.5" y2="567.4"/>
<line x1="134.5" y1="567.4" x2="135.1" y2="567.9"/>
<line x1="135.1" y1="567.9" x2="135.1" y2="568.3"/>
<line x1="135.1" y1="568.3" x2="134.5" y2="568.8"/>
<line x1="134.5" y1="568.8" x2="134.5" y2="569.7"/>
<line x1="134.5" y1="569.7" x2="133.9" y2="570.2"/>
<line x1="133.9" y1="570.2" x2="133.3" y2="570.2"/>
<line x1="133.3" y1="570.2" x2="132.6" y2="569.7"/>
<line x1="132.6" y1="569.7" x2="132.6" y2="568.8"/>
<line x1="132.6" y1="568.8" x2="133.3" y2="568.3"/>
<line x1="133.3" y1="568.3" x2="133.3" y2="567.9"/>
<line x1="133.3" y1="567.9" x2="132.6" y2="567.4"/>
<line x1="132.6" y1="567.4" x2="132.6" y2="567.0"/>
<line x1="132.6" y1="567.0" x2="133.3" y2="566.5"/>
<line x1="133.3" y1="566.5" x2="133.3" y2="565.2"/>
<line x1="133.3" y1="565.2" x2="132.6" y2="564.7"/>
<line x1="132.6" y1="564.7" x2="132.6" y2="558.4"/>
<line x1="132.6" y1="558.4" x2="132.0" y2="557.9"/>
<line x1="132.0" y1="557.9" x2="132.0" y2="557.5"/>
<line x1="132.0" y1="557.5" x2="132.6" y2="557.0"/>
<line x1="132.6" y1="557.0" x2="132.6" y2="550.7"/>
<line x1="132.6" y1="550.7" x2="132.0" y2="550.2"/>
<line x1="132.0" y1="550.2" x2="132.0" y2="548.0"/>
<line x1="132.0" y1="548.0" x2="132.6" y2="547.5"/>
<line x1="132.6" y1="547.5" x2="132.6" y2="540.8"/>
<line x1="132.6" y1="540.8" x2="132.0" y2="540.3"/>
<line x1="132.0" y1="540.3" x2="132.0" y2="538.5"/>
<line x1="132.0" y1="538.5" x2="132.6" y2="538.0"/>
<line x1="132.6" y1="538.0" x2="132.6" y2="533.1"/>
<line x1="132.6" y1="533.1" x2="132.0" y2="533.1"/>
<line x1="132.0" y1="533.1" x2="131.4" y2="532.6"/>
<line x1="131.4" y1="532.6" x2="131.4" y2="531.7"/>
<line x1="131.4" y1="531.7" x2="132.0" y2="531.3"/>
<line x1="132.0" y1="531.3" x2="132.6" y2="531.3"/>
<line x1="132.6" y1="531.3" x2="132.6" y2="530.8"/>
<line x1="132.6" y1="530.8" x2="132.0" y2="530.3"/>
<line x1="132.0" y1="530.3" x2="132.0" y2="515.9"/>
<line x1="132.0" y1="515.9" x2="132.6" y2="515.4"/>
<line x1="132.6" y1="515.4" x2="132.0" y2="515.0"/>
<line x1="132.0" y1="515.0" x2="132.0" y2="514.5"/>
<line x1="132.0" y1="514.5" x2="132.6" y2="514.1"/>
<line x1="132.6" y1="514.1" x2="132.6" y2="513.2"/>
<line x1="132.6" y1="513.2" x2="132.0" y2="512.7"/>
<line x1="132.0" y1="512.7" x2="132.0" y2="511.8"/>
<line x1="132.0" y1="511.8" x2="132.6" y2="511.4"/>
<line x1="132.6" y1="511.4" x2="132.6" y2="508.6"/>
<line x1="132.6" y1="508.6" x2="132.0" y2="508.6"/>
<line x1="132.0" y1="508.6" x2="131.4" y2="508.2"/>
<line x1="131.4" y1="508.2" x2="131.4" y2="507.7"/>
<line x1="131.4" y1="507.7" x2="132.0" y2="507.3"/>
<line x1="132.0" y1="507.3" x2="132.0" y2="506.8"/>
<line x1="132.0" y1="506.8" x2="131.4" y2="506.4"/>
<line x1="131.4" y1="506.4" x2="131.4" y2="505.5"/>
<line x1="131.4" y1="505.5" x2="132.6" y2="504.6"/>
<line x1="132.6" y1="504.6" x2="132.6" y2="503.7"/>
<line x1="132.6" y1="503.7" x2="132.0" y2="503.2"/>
<line x1="132.0" y1="503.2" x2="132.0" y2="500.0"/>
<line x1="132.0" y1="500.0" x2="132.6" y2="499.6"/>
<line x1="132.6" y1="499.6" x2="132.6" y2="498.2"/>
<line x1="132.6" y1="498.2" x2="132.0" y2="497.8"/>
<line x1="132.0" y1="497.8" x2="132.0" y2="486.5"/>
<line x1="132.0" y1="486.5" x2="131.4" y2="486.0"/>
<line x1="131.4" y1="486.0" x2="131.4" y2="478.3"/>
<line x1="131.4" y1="478.3" x2="132.0" y2="477.9"/>
<line x1="132.0" y1="477.9" x2="132.6" y2="477.9"/>
<line x1="132.6" y1="477.9" x2="132.6" y2="477.4"/>
<line x1="132.6" y1="477.4" x2="132.0" y2="477.4"/>
<line x1="132.0" y1="477.4" x2="131.4" y2="477.0"/>
<line x1="131.4" y1="477.0" x2="131.4" y2="465.2"/>
<line x1="131.4" y1="465.2" x2="132.0" y2="464.8"/>
<line x1="132.0" y1="464.8" x2="132.0" y2="460.2"/>
<line x1="132.0" y1="460.2" x2="132.6" y2="459.8"/>
<line x1="132.6" y1="459.8" x2="132.6" y2="450.7"/>
<line x1="132.6" y1="450.7" x2="133.3" y2="450.3"/>
<line x1="133.3" y1="450.3" x2="133.3" y2="447.6"/>
<line x1="133.3" y1="447.6" x2="132.6" y2="448.0"/>
<line x1="132.6" y1="448.0" x2="132.0" y2="448.0"/>
<line x1="132.0" y1="448.0" x2="131.4" y2="447.6"/>
<line x1="131.4" y1="447.6" x2="131.4" y2="447.1"/>
<line x1="131.4" y1="447.1" x2="132.6" y2="446.2"/>
<line x1="132.6" y1="446.2" x2="132.6" y2="445.8"/>
<line x1="132.6" y1="445.8" x2="133.3" y2="445.3"/>
<line x1="133.3" y1="445.3" x2="133.3" y2="444.9"/>
<line x1="133.3" y1="444.9" x2="132.6" y2="444.4"/>
<line x1="132.6" y1="444.4" x2="132.6" y2="442.1"/>
<line x1="132.6" y1="442.1" x2="133.3" y2="441.7"/>
<line x1="133.3" y1="441.7" x2="133.9" y2="441.7"/>
<line x1="133.9" y1="441.7" x2="133.3" y2="441.2"/>
<line x1="133.3" y1="441.2" x2="133.3" y2="440.8"/>
<line x1="133.3" y1="440.8" x2="133.9" y2="440.3"/>
<line x1="133.9" y1="440.3" x2="134.5" y2="440.3"/>
<line x1="134.5" y1="440.3" x2="135.7" y2="441.2"/>
<line x1="135.7" y1="441.2" x2="135.7" y2="441.7"/>
<line x1="135.7" y1="441.7" x2="136.3" y2="441.7"/>
<line x1="136.3" y1="441.7" x2="135.7" y2="441.2"/>
<line x1="135.7" y1="441.2" x2="135.7" y2="439.9"/>
<line x1="135.7" y1="439.9" x2="136.3" y2="439.4"/>
<line x1="136.3" y1="439.4" x2="136.9" y2="439.4"/>
<line x1="136.9" y1="439.4" x2="137.5" y2="439.9"/>
<line x1="137.5" y1="439.9" x2="137.5" y2="438.5"/>
<line x1="137.5" y1="438.5" x2="138.1" y2="438.1"/>
<line x1="138.1" y1="438.1" x2="140.0" y2="438.1"/>
<line x1="140.0" y1="438.1" x2="140.6" y2="437.6"/>
<line x1="140.6" y1="437.6" x2="141.2" y2="437.6"/>
<line x1="141.2" y1="437.6" x2="141.8" y2="438.1"/>
<line x1="141.8" y1="438.1" x2="143.0" y2="438.1"/>
<line x1="143.0" y1="438.1" x2="143.7" y2="437.6"/>
<line x1="143.7" y1="437.6" x2="144.3" y2="437.6"/>
<line x1="144.3" y1="437.6" x2="144.9" y2="438.1"/>
<line x1="144.9" y1="438.1" x2="144.9" y2="439.0"/>
<line x1="144.9" y1="439.0" x2="144.9" y2="438.5"/>
<line x1="144.9" y1="438.5" x2="145.5" y2="438.1"/>
<line x1="145.5" y1="438.1" x2="146.1" y2="438.1"/>
<line x1="146.1" y1="438.1" x2="146.1" y2="437.6"/>
<line x1="146.1" y1="437.6" x2="141.2" y2="437.6"/>
<line x1="141.2" y1="437.6" x2="140.0" y2="436.7"/>
<line x1="140.0" y1="436.7" x2="140.0" y2="436.3"/>
<line x1="140.0" y1="436.3" x2="140.6" y2="435.8"/>
<line x1="140.6" y1="435.8" x2="141.2" y2="435.8"/>
</g>
<g stroke="#9900cc" stroke-width="1.5" fill="#f5e0ff">
<line x1="611.9" y1="437.2" x2="612.6" y2="436.7"/>
<line x1="612.6" y1="436.7" x2="617.4" y2="436.7"/>
<line x1="617.4" y1="436.7" x2="618.1" y2="437.2"/>
<line x1="618.1" y1="437.2" x2="619.9" y2="437.2"/>
<line x1="619.9" y1="437.2" x2="620.5" y2="437.6"/>
<line x1="620.5" y1="437.6" x2="620.5" y2="441.2"/>
<line x1="620.5" y1="441.2" x2="621.1" y2="441.7"/>
<line x1="621.1" y1="441.7" x2="621.1" y2="444.0"/>
<line x1="621.1" y1="444.0" x2="620.5" y2="444.4"/>
<line x1="620.5" y1="444.4" x2="619.9" y2="444.4"/>
<line x1="619.9" y1="444.4" x2="616.8" y2="442.1"/>
<line x1="616.8" y1="442.1" x2="616.2" y2="442.1"/>
<line x1="616.2" y1="442.1" x2="614.4" y2="440.8"/>
<line x1="614.4" y1="440.8" x2="613.8" y2="440.8"/>
<line x1="613.8" y1="440.8" x2="613.2" y2="440.3"/>
<line x1="613.2" y1="440.3" x2="611.9" y2="440.3"/>
<line x1="611.9" y1="440.3" x2="611.3" y2="439.9"/>
<line x1="611.3" y1="439.9" x2="610.1" y2="439.9"/>
<line x1="610.1" y1="439.9" x2="609.5" y2="439.4"/>
<line x1="609.5" y1="439.4" x2="608.3" y2="439.4"/>
<line x1="608.3" y1="439.4" x2="607.7" y2="439.0"/>
<line x1="607.7" y1="439.0" x2="607.7" y2="437.6"/>
<line x1="607.7" y1="437.6" x2="608.3" y2="437.2"/>
<line x1="608.3" y1="437.2" x2="611.9" y2="437.2"/>
<line x1="171.2" y1="434.9" x2="171.8" y2="434.5"/>
<line x1="171.8" y1="434.5" x2="172.4" y2="434.5"/>
<line x1="172.4" y1="434.5" x2="173.0" y2="434.9"/>
<line x1="173.0" y1="434.9" x2="173.0" y2="437.2"/>
<line x1="173.0" y1="437.2" x2="172.4" y2="437.6"/>
<line x1="172.4" y1="437.6" x2="172.4" y2="438.1"/>
<line x1="172.4" y1="438.1" x2="173.6" y2="439.0"/>
<line x1="173.6" y1="439.0" x2="173.6" y2="439.9"/>
<line x1="173.6" y1="439.9" x2="173.0" y2="440.3"/>
<line x1="173.0" y1="440.3" x2="172.4" y2="440.3"/>
<line x1="172.4" y1="440.3" x2="172.4" y2="440.8"/>
<line x1="172.4" y1="440.8" x2="173.0" y2="440.8"/>
<line x1="173.0" y1="440.8" x2="173.6" y2="441.2"/>
<line x1="173.6" y1="441.2" x2="173.6" y2="441.7"/>
<line x1="173.6" y1="441.7" x2="173.0" y2="442.1"/>
<line x1="173.0" y1="442.1" x2="172.4" y2="442.1"/>
<line x1="172.4" y1="442.1" x2="172.4" y2="442.6"/>
<line x1="172.4" y1="442.6" x2="173.6" y2="443.5"/>
<line x1="173.6" y1="443.5" x2="173.6" y2="444.4"/>
<line x1="173.6" y1="444.4" x2="173.0" y2="444.9"/>
<line x1="173.0" y1="444.9" x2="173.0" y2="445.3"/>
<line x1="173.0" y1="445.3" x2="173.6" y2="445.8"/>
<line x1="173.6" y1="445.8" x2="173.6" y2="446.7"/>
<line x1="173.6" y1="446.7" x2="174.2" y2="447.1"/>
<line x1="174.2" y1="447.1" x2="174.2" y2="447.6"/>
<line x1="174.2" y1="447.6" x2="173.0" y2="448.5"/>
<line x1="173.0" y1="448.5" x2="163.8" y2="448.5"/>
<line x1="163.8" y1="448.5" x2="162.6" y2="447.6"/>
<line x1="162.6" y1="447.6" x2="162.6" y2="445.8"/>
<line x1="162.6" y1="445.8" x2="163.2" y2="445.3"/>
<line x1="163.2" y1="445.3" x2="163.2" y2="442.1"/>
<line x1="163.2" y1="442.1" x2="162.6" y2="441.7"/>
<line x1="162.6" y1="441.7" x2="162.6" y2="441.2"/>
<line x1="162.6" y1="441.2" x2="163.2" y2="440.8"/>
<line x1="163.2" y1="440.8" x2="163.2" y2="440.3"/>
<line x1="163.2" y1="440.3" x2="162.6" y2="439.9"/>
<line x1="162.6" y1="439.9" x2="162.6" y2="438.5"/>
<line x1="162.6" y1="438.5" x2="163.8" y2="437.6"/>
<line x1="163.8" y1="437.6" x2="162.6" y2="437.6"/>
<line x1="162.6" y1="437.6" x2="162.0" y2="437.2"/>
<line x1="162.0" y1="437.2" x2="162.0" y2="436.7"/>
<line x1="162.0" y1="436.7" x2="162.6" y2="436.3"/>
<line x1="162.6" y1="436.3" x2="163.8" y2="436.3"/>
<line x1="163.8" y1="436.3" x2="163.8" y2="435.8"/>
<line x1="163.8" y1="435.8" x2="164.4" y2="435.4"/>
<line x1="164.4" y1="435.4" x2="165.0" y2="435.4"/>
<line x1="165.0" y1="435.4" x2="166.3" y2="436.3"/>
<line x1="166.3" y1="436.3" x2="166.3" y2="436.7"/>
<line x1="166.3" y1="436.7" x2="165.7" y2="437.2"/>
<line x1="165.7" y1="437.2" x2="166.3" y2="437.2"/>
<line x1="166.3" y1="437.2" x2="167.5" y2="438.1"/>
<line x1="167.5" y1="438.1" x2="167.5" y2="439.9"/>
<line x1="167.5" y1="439.9" x2="167.5" y2="439.0"/>
<line x1="167.5" y1="439.0" x2="168.7" y2="438.1"/>
<line x1="168.7" y1="438.1" x2="168.1" y2="437.6"/>
<line x1="168.1" y1="437.6" x2="166.9" y2="437.6"/>
<line x1="166.9" y1="437.6" x2="166.3" y2="437.2"/>
<line x1="166.3" y1="437.2" x2="166.3" y2="436.7"/>
<line x1="166.3" y1="436.7" x2="166.9" y2="436.3"/>
<line x1="166.9" y1="436.3" x2="170.6" y2="436.3"/>
<line x1="170.6" y1="436.3" x2="171.2" y2="435.8"/>
<line x1="171.2" y1="435.8" x2="171.2" y2="434.9"/>
<line x1="615.6" y1="360.7" x2="616.2" y2="360.3"/>
<line x1="616.2" y1="360.3" x2="618.1" y2="360.3"/>
<line x1="618.1" y1="360.3" x2="618.7" y2="360.7"/>
<line x1="618.7" y1="360.7" x2="618.7" y2="371.1"/>
<line x1="618.7" y1="371.1" x2="618.1" y2="371.6"/>
<line x1="618.1" y1="371.6" x2="611.3" y2="371.6"/>
<line x1="611.3" y1="371.6" x2="610.7" y2="372.0"/>
<line x1="610.7" y1="372.0" x2="605.8" y2="372.0"/>
<line x1="605.8" y1="372.0" x2="605.2" y2="371.6"/>
<line x1="605.2" y1="371.6" x2="604.6" y2="371.6"/>
<line x1="604.6" y1="371.6" x2="603.4" y2="370.7"/>
<line x1="603.4" y1="370.7" x2="603.4" y2="369.3"/>
<line x1="603.4" y1="369.3" x2="602.8" y2="368.9"/>
<line x1="602.8" y1="368.9" x2="602.8" y2="368.4"/>
<line x1="602.8" y1="368.4" x2="601.5" y2="368.4"/>
<line x1="601.5" y1="368.4" x2="600.9" y2="368.0"/>
<line x1="600.9" y1="368.0" x2="599.7" y2="368.0"/>
<line x1="599.7" y1="368.0" x2="598.5" y2="367.1"/>
<line x1="598.5" y1="367.1" x2="598.5" y2="366.2"/>
<line x1="598.5" y1="366.2" x2="599.1" y2="365.7"/>
<line x1="599.1" y1="365.7" x2="599.1" y2="365.3"/>
<line x1="599.1" y1="365.3" x2="599.7" y2="364.8"/>
<line x1="599.7" y1="364.8" x2="600.3" y2="364.8"/>
<line x1="600.3" y1="364.8" x2="600.9" y2="364.4"/>
<line x1="600.9" y1="364.4" x2="602.2" y2="364.4"/>
<line x1="602.2" y1="364.4" x2="602.8" y2="363.9"/>
<line x1="602.8" y1="363.9" x2="604.0" y2="363.9"/>
<line x1="604.0" y1="363.9" x2="604.6" y2="363.4"/>
<line x1="604.6" y1="363.4" x2="605.8" y2="363.4"/>
<line x1="605.8" y1="363.4" x2="606.4" y2="363.0"/>
<line x1="606.4" y1="363.0" x2="607.7" y2="363.0"/>
<line x1="607.7" y1="363.0" x2="608.3" y2="362.5"/>
<line x1="608.3" y1="362.5" x2="608.9" y2="362.5"/>
<line x1="608.9" y1="362.5" x2="609.5" y2="362.1"/>
<line x1="609.5" y1="362.1" x2="610.7" y2="362.1"/>
<line x1="610.7" y1="362.1" x2="611.3" y2="361.6"/>
<line x1="611.3" y1="361.6" x2="611.9" y2="361.6"/>
<line x1="611.9" y1="361.6" x2="612.6" y2="361.2"/>
<line x1="612.6" y1="361.2" x2="613.8" y2="361.2"/>
<line x1="613.8" y1="361.2" x2="614.4" y2="360.7"/>
<line x1="614.4" y1="360.7" x2="615.6" y2="360.7"/>
<line x1="89.2" y1="315.5" x2="89.9" y2="315.1"/>
<line x1="89.9" y1="315.1" x2="94.1" y2="315.1"/>
<line x1="94.1" y1="315.1" x2="94.7" y2="315.5"/>
<line x1="94.7" y1="315.5" x2="94.7" y2="318.7"/>
<line x1="94.7" y1="318.7" x2="96.6" y2="318.7"/>
<line x1="96.6" y1="318.7" x2="97.2" y2="319.1"/>
<line x1="97.2" y1="319.1" x2="97.2" y2="322.3"/>
<line x1="97.2" y1="322.3" x2="96.6" y2="322.7"/>
<line x1="96.6" y1="322.7" x2="89.9" y2="322.7"/>
<line x1="89.9" y1="322.7" x2="89.2" y2="322.3"/>
<line x1="89.2" y1="322.3" x2="89.2" y2="320.9"/>
<line x1="89.2" y1="320.9" x2="88.6" y2="320.9"/>
<line x1="88.6" y1="320.9" x2="86.8" y2="319.6"/>
<line x1="86.8" y1="319.6" x2="86.8" y2="319.1"/>
<line x1="86.8" y1="319.1" x2="87.4" y2="318.7"/>
<line x1="87.4" y1="318.7" x2="89.2" y2="318.7"/>
<line x1="89.2" y1="318.7" x2="89.2" y2="315.5"/>
</g>
<g stroke="#00aa00" stroke-width="1.5" fill="none">
<line x1="242.2" y1="696.8" x2="657.2" y2="696.8"/>
<line x1="657.2" y1="696.8" x2="657.2" y2="241.3"/>
<line x1="657.2" y1="241.3" x2="242.2" y2="241.3"/>
<line x1="242.2" y1="241.3" x2="242.2" y2="696.8"/>
<line x1="815.0" y1="696.8" x2="815.0" y2="241.3"/>
</g>
<g stroke="#ff0000" stroke-width="2" fill="none">
<line x1="84.4" y1="83.5" x2="84.4" y2="268.0"/>
<line x1="84.4" y1="268.0" x2="99.6" y2="266.7"/>
<line x1="99.6" y1="266.7" x2="84.4" y2="289.7"/>
<line x1="84.4" y1="289.7" x2="104.5" y2="290.2"/>
<line x1="104.5" y1="290.2" x2="84.4" y2="297.4"/>
<line x1="84.4" y1="297.4" x2="104.5" y2="310.1"/>
<line x1="104.5" y1="310.1" x2="84.4" y2="315.5"/>
<line x1="84.4" y1="315.5" x2="84.4" y2="332.2"/>
<line x1="84.4" y1="332.2" x2="103.3" y2="333.1"/>
<line x1="103.3" y1="333.1" x2="84.4" y2="335.9"/>
<line x1="84.4" y1="335.9" x2="84.4" y2="415.9"/>
<line x1="84.4" y1="415.9" x2="99.6" y2="409.6"/>
<line x1="99.6" y1="409.6" x2="103.9" y2="422.2"/>
<line x1="103.9" y1="422.2" x2="84.4" y2="420.4"/>
<line x1="84.4" y1="420.4" x2="110.6" y2="425.0"/>
<line x1="110.6" y1="425.0" x2="112.5" y2="505.0"/>
<line x1="112.5" y1="505.0" x2="84.4" y2="519.9"/>
<line x1="84.4" y1="519.9" x2="84.4" y2="703.6"/>
<line x1="84.4" y1="703.6" x2="111.3" y2="668.3"/>
<line x1="111.3" y1="668.3" x2="114.3" y2="699.1"/>
<line x1="114.3" y1="699.1" x2="84.4" y2="731.2"/>
<line x1="84.4" y1="731.2" x2="84.4" y2="854.6"/>
<line x1="84.4" y1="854.6" x2="865.6" y2="854.6"/>
<line x1="865.6" y1="854.6" x2="865.6" y2="165.3"/>
<line x1="865.6" y1="165.3" x2="829.0" y2="150.9"/>
<line x1="829.0" y1="150.9" x2="816.7" y2="123.3"/>
<line x1="816.7" y1="123.3" x2="828.4" y2="101.6"/>
<line x1="828.4" y1="101.6" x2="825.3" y2="126.9"/>
<line x1="825.3" y1="126.9" x2="865.6" y2="141.4"/>
<line x1="865.6" y1="141.4" x2="865.6" y2="83.5"/>
<line x1="865.6" y1="83.5" x2="84.4" y2="83.5"/>
</g>
<g font-family="Arial">
<text x="448.7498224179571" y="470.00582469100726" text-anchor="middle" font-size="14" font-weight="bold" fill="#333">底板 123×135</text>
<text x="448.7498224179571" y="162.9664725102998" text-anchor="middle" font-size="11" fill="#00aa00">顶墙 H=46.78</text>
<text x="448.7498224179571" y="777.0451768717147" text-anchor="middle" font-size="11" fill="#00aa00">底墙 H=46.78</text>
<text x="161.95482312828526" y="503.7464128427334" text-anchor="middle" font-size="9" fill="#0066ff">锁扣缝</text>
<text x="317.16152862622533" y="267.56229578065063" text-anchor="middle" font-size="9" fill="#008888">翼片区</text>
<text x="570.215939764171" y="156.21835487995452" text-anchor="middle" font-size="9" fill="#cc8800">顶墙锁舌</text>
</g>
<g font-size="10" font-family="Arial">
<rect x="10" y="10" width="200" height="105" fill="white" fill-opacity="0.95" stroke="#ccc" rx="4"/>
<line x1="20" y1="25" x2="45" y2="25" stroke="red" stroke-width="2"/><text x="50" y="29" fill="#333">CUT 切割线</text>
<line x1="20" y1="40" x2="45" y2="40" stroke="#00aa00" stroke-width="1.5"/><text x="50" y="44" fill="#333">SCORE 压线/折叠线</text>
<line x1="20" y1="55" x2="45" y2="55" stroke="#0066ff" stroke-width="1.5"/><text x="50" y="59" fill="#333">HOOK 锁扣缝(勾脚)</text>
<line x1="20" y1="70" x2="45" y2="70" stroke="#9900cc" stroke-width="1.5"/><text x="50" y="74" fill="#333">SLOT 锁口/定位孔</text>
<line x1="20" y1="85" x2="45" y2="85" stroke="#cc8800" stroke-width="1.5"/><text x="50" y="89" fill="#333">TONGUE 锁舌/插舌</text>
<line x1="20" y1="100" x2="45" y2="100" stroke="#008888" stroke-width="1"/><text x="50" y="104" fill="#333">FLAP 防撞翼片</text>
</g>
</svg>