  0
SECTION
  2
HEADER
  9
$ACADVER
  1
AC1015
  9
$INSBASE
 10
0.0
 20
0.0
 30
0.0
  9
$EXTMIN
 10
-25.0
 20
-25.0
 30
0.0
  9
$EXTMAX
 10
236.6
 20
233.6
 30
0.0
  0
ENDSEC
  0
SECTION
  2
TABLES
  0
TABLE
  2
LAYER
  5
1
330
0
100
AcDbSymbolTable
 70
8
  0
LAYER
  5
27
330
1
100
AcDbSymbolTableRecord
100
AcDbLayerTableRecord
  2
0
 70
0
 62
7
  6
Continuous
  0
LAYER
  5
2F
330
1
100
AcDbSymbolTableRecord
100
AcDbLayerTableRecord
  2
CUT
 70
0
 62
1
  6
Continuous
  0
LAYER
  5
30
330
1
100
AcDbSymbolTableRecord
100
AcDbLayerTableRecord
  2
SCORE
 70
0
 62
3
  6
Continuous
  0
LAYER
  5
31
330
1
100
AcDbSymbolTableRecord
100
AcDbLayerTableRecord
  2
HOOK
 70
0
 62
4
  6
Continuous
  0
LAYER
  5
32
330
1
100
AcDbSymbolTableRecord
100
AcDbLayerTableRecord
  2
SLOT
 70
0
 62
6
  6
Continuous
  0
LAYER
  5
33
330
1
100
AcDbSymbolTableRecord
100
AcDbLayerTableRecord
  2
TONGUE
 70
0
 62
2
  6
Continuous
  0
LAYER
  5
34
330
1
100
AcDbSymbolTableRecord
100
AcDbLayerTableRecord
  2
FLAP
 70
0
 62
8
  6
Continuous
  0
ENDTAB
  0
ENDSEC
  0
SECTION
  2
BLOCKS
  0
BLOCK
  5
18
330
17
100
AcDbEntity
  8
0
100
AcDbBlockBegin
  2
*Model_Space
 70
0
 10
0.0
 20
0.0
 30
0.0
  3
*Model_Space
  1

  0
ENDBLK
  5
19
330
17
100
AcDbEntity
  8
0
100
AcDbBlockEnd
  0
ENDSEC
  0
SECTION
  2
ENTITIES
  0
LINE
  8
CUT
 10
0.00
 20
46.78
 30
0.0
 11
0.00
 21
0.00
 31
0.0
  0
LINE
  8
CUT
 10
0.00
 20
0.00
 30
0.0
 11
46.78
 21
0.00
 31
0.0
  0
LINE
  8
CUT
 10
46.78
 20
0.00
 30
0.0
 11
169.78
 21
0.00
 31
0.0
  0
LINE
  8
CUT
 10
169.78
 20
0.00
 30
0.0
 11
169.78
 21
46.78
 31
0.0
  0
LINE
  8
CUT
 10
169.78
 20
46.78
 30
0.0
 11
216.56
 21
46.78
 31
0.0
  0
LINE
  8
CUT
 10
216.56
 20
46.78
 30
0.0
 11
216.56
 21
228.56
 31
0.0
  0
LINE
  8
CUT
 10
216.56
 20
228.56
 30
0.0
 11
169.78
 21
228.56
 31
0.0
  0
LINE
  8
CUT
 10
169.78
 20
228.56
 30
0.0
 11
46.78
 21
228.56
 31
0.0
  0
LINE
  8
CUT
 10
46.78
 20
228.56
 30
0.0
 11
0.00
 21
228.56
 31
0.0
  0
LINE
  8
CUT
 10
0.00
 20
228.56
 30
0.0
 11
0.00
 21
181.78
 31
0.0
  0
LINE
  8
CUT
 10
0.00
 20
181.78
 30
0.0
 11
46.78
 21
181.78
 31
0.0
  0
LINE
  8
CUT
 10
46.78
 20
181.78
 30
0.0
 11
169.78
 21
181.78
 31
0.0
  0
LINE
  8
CUT
 10
169.78
 20
181.78
 30
0.0
 11
216.56
 21
181.78
 31
0.0
  0
LINE
  8
CUT
 10
216.56
 20
181.78
 30
0.0
 11
216.56
 21
46.78
 31
0.0
  0
LINE
  8
CUT
 10
216.56
 20
0.00
 30
0.0
 11
231.56
 21
0.00
 31
0.0
  0
LINE
  8
CUT
 10
231.56
 20
0.00
 30
0.0
 11
231.56
 21
228.56
 31
0.0
  0
LINE
  8
CUT
 10
231.56
 20
228.56
 30
0.0
 11
216.56
 21
228.56
 31
0.0
  0
LINE
  8
FLAP
 10
0.00
 20
0.00
 30
0.0
 11
-23.39
 21
5.85
 31
0.0
  0
LINE
  8
FLAP
 10
-23.39
 20
5.85
 30
0.0
 11
0.00
 21
11.70
 31
0.0
  0
LINE
  8
FLAP
 10
0.00
 20
11.70
 30
0.0
 11
-23.39
 21
17.54
 31
0.0
  0
LINE
  8
FLAP
 10
-23.39
 20
17.54
 30
0.0
 11
0.00
 21
23.39
 31
0.0
  0
LINE
  8
FLAP
 10
0.00
 20
23.39
 30
0.0
 11
-23.39
 21
29.24
 31
0.0
  0
LINE
  8
FLAP
 10
-23.39
 20
29.24
 30
0.0
 11
0.00
 21
35.09
 31
0.0
  0
LINE
  8
FLAP
 10
0.00
 20
35.09
 30
0.0
 11
-23.39
 21
40.93
 31
0.0
  0
LINE
  8
FLAP
 10
-23.39
 20
40.93
 30
0.0
 11
0.00
 21
46.78
 31
0.0
  0
LINE
  8
FLAP
 10
46.78
 20
0.00
 30
0.0
 11
62.16
 21
-23.39
 31
0.0
  0
LINE
  8
FLAP
 10
62.16
 20
-23.39
 30
0.0
 11
77.53
 21
0.00
 31
0.0
  0
LINE
  8
FLAP
 10
77.53
 20
0.00
 30
0.0
 11
92.91
 21
-23.39
 31
0.0
  0
LINE
  8
FLAP
 10
92.91
 20
-23.39
 30
0.0
 11
108.28
 21
0.00
 31
0.0
  0
LINE
  8
FLAP
 10
108.28
 20
0.00
 30
0.0
 11
123.66
 21
-23.39
 31
0.0
  0
LINE
  8
FLAP
 10
123.66
 20
-23.39
 30
0.0
 11
139.03
 21
0.00
 31
0.0
  0
LINE
  8
FLAP
 10
139.03
 20
0.00
 30
0.0
 11
154.41
 21
-23.39
 31
0.0
  0
LINE
  8
FLAP
 10
154.41
 20
-23.39
 30
0.0
 11
169.78
 21
0.00
 31
0.0
  0
LINE
  8
FLAP
 10
0.00
 20
181.78
 30
0.0
 11
-23.39
 21
187.63
 31
0.0
  0
LINE
  8
FLAP
 10
-23.39
 20
187.63
 30
0.0
 11
0.00
 21
193.47
 31
0.0
  0
LINE
  8
FLAP
 10
0.00
 20
193.47
 30
0.0
 11
-23.39
 21
199.32
 31
0.0
  0
LINE
  8
FLAP
 10
-23.39
 20
199.32
 30
0.0
 11
0.00
 21
205.17
 31
0.0
  0
LINE
  8
FLAP
 10
0.00
 20
205.17
 30
0.0
 11
-23.39
 21
211.02
 31
0.0
  0
LINE
  8
FLAP
 10
-23.39
 20
211.02
 30
0.0
 11
0.00
 21
216.87
 31
0.0
  0
LINE
  8
FLAP
 10
0.00
 20
216.87
 30
0.0
 11
-23.39
 21
222.71
 31
0.0
  0
LINE
  8
FLAP
 10
-23.39
 20
222.71
 30
0.0
 11
0.00
 21
228.56
 31
0.0
  0
LINE
  8
FLAP
 10
46.78
 20
181.78
 30
0.0
 11
62.16
 21
205.17
 31
0.0
  0
LINE
  8
FLAP
 10
62.16
 20
205.17
 30
0.0
 11
77.53
 21
181.78
 31
0.0
  0
LINE
  8
FLAP
 10
77.53
 20
181.78
 30
0.0
 11
92.91
 21
205.17
 31
0.0
  0
LINE
  8
FLAP
 10
92.91
 20
205.17
 30
0.0
 11
108.28
 21
181.78
 31
0.0
  0
LINE
  8
FLAP
 10
108.28
 20
181.78
 30
0.0
 11
123.66
 21
205.17
 31
0.0
  0
LINE
  8
FLAP
 10
123.66
 20
205.17
 30
0.0
 11
139.03
 21
181.78
 31
0.0
  0
LINE
  8
FLAP
 10
139.03
 20
181.78
 30
0.0
 11
154.41
 21
205.17
 31
0.0
  0
LINE
  8
FLAP
 10
154.41
 20
205.17
 30
0.0
 11
169.78
 21
181.78
 31
0.0
  0
LINE
  8
SCORE
 10
46.78
 20
46.78
 30
0.0
 11
169.78
 21
46.78
 31
0.0
  0
LINE
  8
SCORE
 10
46.78
 20
181.78
 30
0.0
 11
169.78
 21
181.78
 31
0.0
  0
LINE
  8
SCORE
 10
46.78
 20
0.00
 30
0.0
 11
46.78
 21
228.56
 31
0.0
  0
LINE
  8
SCORE
 10
169.78
 20
0.00
 30
0.0
 11
169.78
 21
228.56
 31
0.0
  0
LINE
  8
SCORE
 10
216.56
 20
0.00
 30
0.0
 11
216.56
 21
228.56
 31
0.0
  0
LINE
  8
HOOK
 10
47.78
 20
9.00
 30
0.0
 11
45.78
 21
12.00
 31
0.0
  0
LINE
  8
HOOK
 10
55.78
 20
9.00
 30
0.0
 11
57.78
 21
12.00
 31
0.0
  0
LINE
  8
HOOK
 10
160.78
 20
9.00
 30
0.0
 11
158.78
 21
12.00
 31
0.0
  0
LINE
  8
HOOK
 10
168.78
 20
9.00
 30
0.0
 11
170.78
 21
12.00
 31
0.0
  0
LINE
  8
HOOK
 10
47.78
 20
219.56
 30
0.0
 11
45.78
 21
216.56
 31
0.0
  0
LINE
  8
HOOK
 10
55.78
 20
219.56
 30
0.0
 11
57.78
 21
216.56
 31
0.0
  0
LINE
  8
HOOK
 10
160.78
 20
219.56
 30
0.0
 11
158.78
 21
216.56
 31
0.0
  0
LINE
  8
HOOK
 10
168.78
 20
219.56
 30
0.0
 11
170.78
 21
216.56
 31
0.0
  0
LINE
  8
SLOT
 10
51.78
 20
44.28
 30
0.0
 11
51.78
 21
49.28
 31
0.0
  0
LINE
  8
SLOT
 10
46.78
 20
44.28
 30
0.0
 11
56.78
 21
44.28
 31
0.0
  0
LINE
  8
SLOT
 10
46.78
 20
49.28
 30
0.0
 11
56.78
 21
49.28
 31
0.0
  0
LINE
  8
SLOT
 10
164.78
 20
44.28
 30
0.0
 11
164.78
 21
49.28
 31
0.0
  0
LINE
  8
SLOT
 10
159.78
 20
44.28
 30
0.0
 11
169.78
 21
44.28
 31
0.0
  0
LINE
  8
SLOT
 10
159.78
 20
49.28
 30
0.0
 11
169.78
 21
49.28
 31
0.0
  0
LINE
  8
SLOT
 10
51.78
 20
179.28
 30
0.0
 11
51.78
 21
184.28
 31
0.0
  0
LINE
  8
SLOT
 10
46.78
 20
179.28
 30
0.0
 11
56.78
 21
179.28
 31
0.0
  0
LINE
  8
SLOT
 10
46.78
 20
184.28
 30
0.0
 11
56.78
 21
184.28
 31
0.0
  0
LINE
  8
SLOT
 10
164.78
 20
179.28
 30
0.0
 11
164.78
 21
184.28
 31
0.0
  0
LINE
  8
SLOT
 10
159.78
 20
179.28
 30
0.0
 11
169.78
 21
179.28
 31
0.0
  0
LINE
  8
SLOT
 10
159.78
 20
184.28
 30
0.0
 11
169.78
 21
184.28
 31
0.0
  0
LINE
  8
TONGUE
 10
47.78
 20
0.00
 30
0.0
 11
47.78
 21
12.00
 31
0.0
  0
LINE
  8
TONGUE
 10
55.78
 20
0.00
 30
0.0
 11
55.78
 21
12.00
 31
0.0
  0
LINE
  8
TONGUE
 10
47.78
 20
12.00
 30
0.0
 11
55.78
 21
12.00
 31
0.0
  0
LINE
  8
TONGUE
 10
160.78
 20
0.00
 30
0.0
 11
160.78
 21
12.00
 31
0.0
  0
LINE
  8
TONGUE
 10
168.78
 20
0.00
 30
0.0
 11
168.78
 21
12.00
 31
0.0
  0
LINE
  8
TONGUE
 10
160.78
 20
12.00
 30
0.0
 11
168.78
 21
12.00
 31
0.0
  0
LINE
  8
TONGUE
 10
47.78
 20
228.56
 30
0.0
 11
47.78
 21
216.56
 31
0.0
  0
LINE
  8
TONGUE
 10
55.78
 20
228.56
 30
0.0
 11
55.78
 21
216.56
 31
0.0
  0
LINE
  8
TONGUE
 10
47.78
 20
216.56
 30
0.0
 11
55.78
 21
216.56
 31
0.0
  0
LINE
  8
TONGUE
 10
160.78
 20
228.56
 30
0.0
 11
160.78
 21
216.56
 31
0.0
  0
LINE
  8
TONGUE
 10
168.78
 20
228.56
 30
0.0
 11
168.78
 21
216.56
 31
0.0
  0
LINE
  8
TONGUE
 10
160.78
 20
216.56
 30
0.0
 11
168.78
 21
216.56
 31
0.0
  0
ENDSEC
  0
EOF
