<svg xmlns="http://www.w3.org/2000/svg" width="900" height="890">
<rect width="100%" height="100%" fill="#fafafa"/>
<g stroke="#eee" stroke-width="0.5">
<line x1="79.91191930671971" y1="842.0528484159681" x2="79.91191930671971" y2="42.93365534877114"/>
<line x1="111.87668702940758" y1="842.0528484159681" x2="111.87668702940758" y2="42.93365534877114"/>
<line x1="143.84145475209547" y1="842.0528484159681" x2="143.84145475209547" y2="42.93365534877114"/>
<line x1="175.80622247478334" y1="842.0528484159681" x2="175.80622247478334" y2="42.93365534877114"/>
<line x1="207.77099019747124" y1="842.0528484159681" x2="207.77099019747124" y2="42.93365534877114"/>
<line x1="239.7357579201591" y1="842.0528484159681" x2="239.7357579201591" y2="42.93365534877114"/>
<line x1="271.70052564284697" y1="842.0528484159681" x2="271.70052564284697" y2="42.93365534877114"/>
<line x1="303.66529336553486" y1="842.0528484159681" x2="303.66529336553486" y2="42.93365534877114"/>
<line x1="335.63006108822276" y1="842.0528484159681" x2="335.63006108822276" y2="42.93365534877114"/>
<line x1="367.59482881091066" y1="842.0528484159681" x2="367.59482881091066" y2="42.93365534877114"/>
<line x1="399.5595965335985" y1="842.0528484159681" x2="399.5595965335985" y2="42.93365534877114"/>
<line x1="431.5243642562864" y1="842.0528484159681" x2="431.5243642562864" y2="42.93365534877114"/>
<line x1="463.4891319789743" y1="842.0528484159681" x2="463.4891319789743" y2="42.93365534877114"/>
<line x1="495.4538997016622" y1="842.0528484159681" x2="495.4538997016622" y2="42.93365534877114"/>
<line x1="527.41866742435" y1="842.0528484159681" x2="527.41866742435" y2="42.93365534877114"/>
<line x1="559.383435147038" y1="842.0528484159681" x2="559.383435147038" y2="42.93365534877114"/>
<line x1="591.3482028697258" y1="842.0528484159681" x2="591.3482028697258" y2="42.93365534877114"/>
<line x1="623.3129705924136" y1="842.0528484159681" x2="623.3129705924136" y2="42.93365534877114"/>
<line x1="655.2777383151016" y1="842.0528484159681" x2="655.2777383151016" y2="42.93365534877114"/>
<line x1="687.2425060377894" y1="842.0528484159681" x2="687.2425060377894" y2="42.93365534877114"/>
<line x1="719.2072737604773" y1="842.0528484159681" x2="719.2072737604773" y2="42.93365534877114"/>
<line x1="751.1720414831652" y1="842.0528484159681" x2="751.1720414831652" y2="42.93365534877114"/>
<line x1="783.1368092058531" y1="842.0528484159681" x2="783.1368092058531" y2="42.93365534877114"/>
<line x1="815.101576928541" y1="842.0528484159681" x2="815.101576928541" y2="42.93365534877114"/>
<line x1="847.0663446512289" y1="842.0528484159681" x2="847.0663446512289" y2="42.93365534877114"/>
<line x1="47.94715158403182" y1="810.0880806932803" x2="879.0311123739167" y2="810.0880806932803"/>
<line x1="47.94715158403182" y1="778.1233129705925" x2="879.0311123739167" y2="778.1233129705925"/>
<line x1="47.94715158403182" y1="746.1585452479045" x2="879.0311123739167" y2="746.1585452479045"/>
<line x1="47.94715158403182" y1="714.1937775252167" x2="879.0311123739167" y2="714.1937775252167"/>
<line x1="47.94715158403182" y1="682.2290098025287" x2="879.0311123739167" y2="682.2290098025287"/>
<line x1="47.94715158403182" y1="650.2642420798409" x2="879.0311123739167" y2="650.2642420798409"/>
<line x1="47.94715158403182" y1="618.299474357153" x2="879.0311123739167" y2="618.299474357153"/>
<line x1="47.94715158403182" y1="586.3347066344652" x2="879.0311123739167" y2="586.3347066344652"/>
<line x1="47.94715158403182" y1="554.3699389117772" x2="879.0311123739167" y2="554.3699389117772"/>
<line x1="47.94715158403182" y1="522.4051711890893" x2="879.0311123739167" y2="522.4051711890893"/>
<line x1="47.94715158403182" y1="490.4404034664015" x2="879.0311123739167" y2="490.4404034664015"/>
<line x1="47.94715158403182" y1="458.4756357437136" x2="879.0311123739167" y2="458.4756357437136"/>
<line x1="47.94715158403182" y1="426.5108680210257" x2="879.0311123739167" y2="426.5108680210257"/>
<line x1="47.94715158403182" y1="394.5461002983378" x2="879.0311123739167" y2="394.5461002983378"/>
<line x1="47.94715158403182" y1="362.58133257565" x2="879.0311123739167" y2="362.58133257565"/>
<line x1="47.94715158403182" y1="330.61656485296203" x2="879.0311123739167" y2="330.61656485296203"/>
<line x1="47.94715158403182" y1="298.6517971302742" x2="879.0311123739167" y2="298.6517971302742"/>
<line x1="47.94715158403182" y1="266.68702940758635" x2="879.0311123739167" y2="266.68702940758635"/>
<line x1="47.94715158403182" y1="234.7222616848984" x2="879.0311123739167" y2="234.7222616848984"/>
<line x1="47.94715158403182" y1="202.75749396221056" x2="879.0311123739167" y2="202.75749396221056"/>
<line x1="47.94715158403182" y1="170.79272623952272" x2="879.0311123739167" y2="170.79272623952272"/>
<line x1="47.94715158403182" y1="138.82795851683477" x2="879.0311123739167" y2="138.82795851683477"/>
<line x1="47.94715158403182" y1="106.86319079414693" x2="879.0311123739167" y2="106.86319079414693"/>
<line x1="47.94715158403182" y1="74.89842307145898" x2="879.0311123739167" y2="74.89842307145898"/>
</g>
<g stroke="#ccc" stroke-width="1">
<line x1="79.91191930671971" y1="842.0528484159681" x2="79.91191930671971" y2="42.93365534877114"/>
<line x1="239.7357579201591" y1="842.0528484159681" x2="239.7357579201591" y2="42.93365534877114"/>
<line x1="399.5595965335985" y1="842.0528484159681" x2="399.5595965335985" y2="42.93365534877114"/>
<line x1="559.383435147038" y1="842.0528484159681" x2="559.383435147038" y2="42.93365534877114"/>
<line x1="719.2072737604773" y1="842.0528484159681" x2="719.2072737604773" y2="42.93365534877114"/>
<line x1="47.94715158403182" y1="810.0880806932803" x2="879.0311123739167" y2="810.0880806932803"/>
<line x1="47.94715158403182" y1="650.2642420798409" x2="879.0311123739167" y2="650.2642420798409"/>
<line x1="47.94715158403182" y1="490.4404034664015" x2="879.0311123739167" y2="490.4404034664015"/>
<line x1="47.94715158403182" y1="330.61656485296203" x2="879.0311123739167" y2="330.61656485296203"/>
<line x1="47.94715158403182" y1="170.79272623952272" x2="879.0311123739167" y2="170.79272623952272"/>
</g>
<g font-size="10" fill="#aaa" font-family="monospace">
<text x="81.91191930671971" y="819.6775110100866">0</text>
<text x="241.7357579201591" y="819.6775110100866">50</text>
<text x="401.5595965335985" y="819.6775110100866">100</text>
<text x="561.383435147038" y="819.6775110100866">150</text>
<text x="721.2072737604773" y="819.6775110100866">200</text>
<text x="31.96476772268788" y="814.0880806932803">0</text>
<text x="31.96476772268788" y="654.2642420798409">50</text>
<text x="31.96476772268788" y="494.4404034664015">100</text>
<text x="31.96476772268788" y="334.61656485296203">150</text>
<text x="31.96476772268788" y="174.79272623952272">200</text>
</g>
<g stroke="#00aa00" stroke-width="1.5" fill="none">
<line x1="229.4" y1="810.1" x2="622.6" y2="810.1"/>
<line x1="622.6" y1="810.1" x2="622.6" y2="378.6"/>
<line x1="622.6" y1="378.6" x2="229.4" y2="378.6"/>
<line x1="229.4" y1="378.6" x2="229.4" y2="810.1"/>
<line x1="772.1" y1="810.1" x2="772.1" y2="378.6"/>
</g>
<g stroke="#ff0000" stroke-width="2" fill="none">
<line x1="79.9" y1="79.5" x2="79.9" y2="94.5"/>
<line x1="79.9" y1="94.5" x2="79.9" y2="101.4"/>
<line x1="79.9" y1="101.4" x2="79.9" y2="236.3"/>
<line x1="79.9" y1="236.3" x2="82.2" y2="244.1"/>
<line x1="82.2" y1="244.1" x2="82.8" y2="249.6"/>
<line x1="82.8" y1="249.6" x2="81.6" y2="254.3"/>
<line x1="81.6" y1="254.3" x2="86.8" y2="252.6"/>
<line x1="86.8" y1="252.6" x2="93.2" y2="252.6"/>
<line x1="93.2" y1="252.6" x2="92.7" y2="254.8"/>
<line x1="92.7" y1="254.8" x2="92.1" y2="263.3"/>
<line x1="92.1" y1="263.3" x2="90.9" y2="265.0"/>
<line x1="90.9" y1="265.0" x2="86.3" y2="262.9"/>
<line x1="86.3" y1="262.9" x2="85.1" y2="262.1"/>
<line x1="85.1" y1="262.1" x2="84.5" y2="263.3"/>
<line x1="84.5" y1="263.3" x2="82.2" y2="263.3"/>
<line x1="82.2" y1="263.3" x2="79.9" y2="266.3"/>
<line x1="79.9" y1="266.3" x2="84.0" y2="268.0"/>
<line x1="84.0" y1="268.0" x2="85.7" y2="268.9"/>
<line x1="85.7" y1="268.9" x2="79.9" y2="270.2"/>
<line x1="79.9" y1="270.2" x2="83.4" y2="274.9"/>
<line x1="83.4" y1="274.9" x2="85.7" y2="274.9"/>
<line x1="85.7" y1="274.9" x2="88.6" y2="274.9"/>
<line x1="88.6" y1="274.9" x2="93.8" y2="271.0"/>
<line x1="93.8" y1="271.0" x2="98.5" y2="280.5"/>
<line x1="98.5" y1="280.5" x2="89.8" y2="280.9"/>
<line x1="89.8" y1="280.9" x2="88.0" y2="282.2"/>
<line x1="88.0" y1="282.2" x2="84.5" y2="282.2"/>
<line x1="84.5" y1="282.2" x2="79.9" y2="288.2"/>
<line x1="79.9" y1="288.2" x2="83.4" y2="290.3"/>
<line x1="83.4" y1="290.3" x2="87.5" y2="292.0"/>
<line x1="87.5" y1="292.0" x2="90.9" y2="292.0"/>
<line x1="90.9" y1="292.0" x2="95.5" y2="293.8"/>
<line x1="95.5" y1="293.8" x2="92.7" y2="299.3"/>
<line x1="92.7" y1="299.3" x2="86.8" y2="295.9"/>
<line x1="86.8" y1="295.9" x2="85.1" y2="297.6"/>
<line x1="85.1" y1="297.6" x2="84.5" y2="299.3"/>
<line x1="84.5" y1="299.3" x2="82.8" y2="299.3"/>
<line x1="82.8" y1="299.3" x2="79.9" y2="311.3"/>
<line x1="79.9" y1="311.3" x2="82.8" y2="315.2"/>
<line x1="82.8" y1="315.2" x2="88.0" y2="315.2"/>
<line x1="88.0" y1="315.2" x2="93.8" y2="315.2"/>
<line x1="93.8" y1="315.2" x2="93.8" y2="321.6"/>
<line x1="93.8" y1="321.6" x2="82.8" y2="318.6"/>
<line x1="82.8" y1="318.6" x2="81.1" y2="318.6"/>
<line x1="81.1" y1="318.6" x2="79.9" y2="342.2"/>
<line x1="79.9" y1="342.2" x2="86.8" y2="363.6"/>
<line x1="86.8" y1="363.6" x2="86.3" y2="365.7"/>
<line x1="86.3" y1="365.7" x2="79.9" y2="376.0"/>
<line x1="79.9" y1="376.0" x2="79.9" y2="387.2"/>
<line x1="79.9" y1="387.2" x2="79.9" y2="393.6"/>
<line x1="79.9" y1="393.6" x2="83.4" y2="392.3"/>
<line x1="83.4" y1="392.3" x2="82.2" y2="388.4"/>
<line x1="82.2" y1="388.4" x2="88.6" y2="388.0"/>
<line x1="88.6" y1="388.0" x2="94.4" y2="389.7"/>
<line x1="94.4" y1="389.7" x2="99.0" y2="399.6"/>
<line x1="99.0" y1="399.6" x2="92.7" y2="402.2"/>
<line x1="92.7" y1="402.2" x2="91.5" y2="400.5"/>
<line x1="91.5" y1="400.5" x2="82.8" y2="397.0"/>
<line x1="82.8" y1="397.0" x2="90.9" y2="401.7"/>
<line x1="90.9" y1="401.7" x2="93.8" y2="405.2"/>
<line x1="93.8" y1="405.2" x2="97.3" y2="403.4"/>
<line x1="97.3" y1="403.4" x2="98.5" y2="403.0"/>
<line x1="98.5" y1="403.0" x2="99.0" y2="412.4"/>
<line x1="99.0" y1="412.4" x2="106.5" y2="464.3"/>
<line x1="106.5" y1="464.3" x2="98.5" y2="486.2"/>
<line x1="98.5" y1="486.2" x2="85.1" y2="492.6"/>
<line x1="85.1" y1="492.6" x2="79.9" y2="511.9"/>
<line x1="79.9" y1="511.9" x2="79.9" y2="647.7"/>
<line x1="79.9" y1="647.7" x2="79.9" y2="652.0"/>
<line x1="79.9" y1="652.0" x2="84.0" y2="661.8"/>
<line x1="84.0" y1="661.8" x2="89.8" y2="651.5"/>
<line x1="89.8" y1="651.5" x2="92.7" y2="648.1"/>
<line x1="92.7" y1="648.1" x2="98.5" y2="638.7"/>
<line x1="98.5" y1="638.7" x2="102.5" y2="634.4"/>
<line x1="102.5" y1="634.4" x2="106.0" y2="634.8"/>
<line x1="106.0" y1="634.8" x2="107.1" y2="639.6"/>
<line x1="107.1" y1="639.6" x2="107.7" y2="644.7"/>
<line x1="107.7" y1="644.7" x2="107.7" y2="649.4"/>
<line x1="107.7" y1="649.4" x2="103.1" y2="670.8"/>
<line x1="103.1" y1="670.8" x2="83.4" y2="691.8"/>
<line x1="83.4" y1="691.8" x2="79.9" y2="708.1"/>
<line x1="79.9" y1="708.1" x2="79.9" y2="788.7"/>
<line x1="79.9" y1="788.7" x2="79.9" y2="802.8"/>
<line x1="79.9" y1="802.8" x2="79.9" y2="805.8"/>
<line x1="79.9" y1="805.8" x2="79.9" y2="808.8"/>
<line x1="79.9" y1="808.8" x2="82.2" y2="810.1"/>
<line x1="82.2" y1="810.1" x2="86.3" y2="810.1"/>
<line x1="86.3" y1="810.1" x2="90.3" y2="810.1"/>
<line x1="90.3" y1="810.1" x2="109.4" y2="810.1"/>
<line x1="109.4" y1="810.1" x2="791.1" y2="810.1"/>
<line x1="791.1" y1="810.1" x2="810.2" y2="810.1"/>
<line x1="810.2" y1="810.1" x2="814.3" y2="810.1"/>
<line x1="814.3" y1="810.1" x2="818.4" y2="810.1"/>
<line x1="818.4" y1="810.1" x2="820.1" y2="808.4"/>
<line x1="820.1" y1="808.4" x2="820.1" y2="805.4"/>
<line x1="820.1" y1="805.4" x2="820.1" y2="802.4"/>
<line x1="820.1" y1="802.4" x2="820.1" y2="788.2"/>
<line x1="820.1" y1="788.2" x2="820.1" y2="173.8"/>
<line x1="820.1" y1="173.8" x2="809.1" y2="155.4"/>
<line x1="809.1" y1="155.4" x2="806.8" y2="152.3"/>
<line x1="806.8" y1="152.3" x2="802.1" y2="151.1"/>
<line x1="802.1" y1="151.1" x2="794.0" y2="148.5"/>
<line x1="794.0" y1="148.5" x2="789.4" y2="143.3"/>
<line x1="789.4" y1="143.3" x2="774.9" y2="117.6"/>
<line x1="774.9" y1="117.6" x2="776.6" y2="107.8"/>
<line x1="776.6" y1="107.8" x2="784.8" y2="98.8"/>
<line x1="784.8" y1="98.8" x2="784.8" y2="100.1"/>
<line x1="784.8" y1="100.1" x2="780.1" y2="108.7"/>
<line x1="780.1" y1="108.7" x2="780.7" y2="110.3"/>
<line x1="780.7" y1="110.3" x2="781.3" y2="115.9"/>
<line x1="781.3" y1="115.9" x2="803.3" y2="129.6"/>
<line x1="803.3" y1="129.6" x2="806.8" y2="132.6"/>
<line x1="806.8" y1="132.6" x2="812.5" y2="134.4"/>
<line x1="812.5" y1="134.4" x2="820.1" y2="134.4"/>
<line x1="820.1" y1="134.4" x2="820.1" y2="128.8"/>
<line x1="820.1" y1="128.8" x2="820.1" y2="123.2"/>
<line x1="820.1" y1="123.2" x2="820.1" y2="112.5"/>
<line x1="820.1" y1="112.5" x2="820.1" y2="100.9"/>
<line x1="820.1" y1="100.9" x2="820.1" y2="86.8"/>
<line x1="820.1" y1="86.8" x2="820.1" y2="83.8"/>
<line x1="820.1" y1="83.8" x2="820.1" y2="80.8"/>
<line x1="820.1" y1="80.8" x2="817.8" y2="79.5"/>
<line x1="817.8" y1="79.5" x2="813.7" y2="79.5"/>
<line x1="813.7" y1="79.5" x2="809.7" y2="79.5"/>
<line x1="809.7" y1="79.5" x2="790.6" y2="79.5"/>
<line x1="790.6" y1="79.5" x2="108.9" y2="79.5"/>
<line x1="108.9" y1="79.5" x2="100.2" y2="79.5"/>
<line x1="100.2" y1="79.5" x2="79.9" y2="79.5"/>
<line x1="79.9" y1="79.5" x2="79.9" y2="79.5"/>
</g>
<text x="426.02642420798406" y="594.3258985651371" text-anchor="middle" font-size="16" font-weight="bold" fill="#333" font-family="Arial">底板 123.0×135.0</text>
<text x="426.02642420798406" y="303.798124733627" text-anchor="middle" font-size="12" fill="#00aa00" font-family="Arial">顶墙 H=46.78</text>
<text x="426.02642420798406" y="884.8536723966472" text-anchor="middle" font-size="12" fill="#00aa00" font-family="Arial">底墙 H=46.78</text>
<g font-size="11" font-family="Arial">
<rect x="10" y="10" width="250" height="80" fill="white" fill-opacity="0.95" stroke="#ccc" rx="4"/>
<line x1="20" y1="28" x2="50" y2="28" stroke="red" stroke-width="2"/><text x="55" y="32" fill="#333">CUT 外轮廓(微分还原)</text>
<line x1="20" y1="48" x2="50" y2="48" stroke="#00aa00" stroke-width="1.5"/><text x="55" y="52" fill="#333">SCORE 折叠线</text>
<text x="20" y="72" fill="#666">7102点高密度采样 → 微分分类 → 还原</text>
<text x="20" y="85" fill="#666">透视缓变段已校正为直线</text>
</g>
</svg>