<svg xmlns="http://www.w3.org/2000/svg" width="900" height="890">
<rect width="100%" height="100%" fill="#fafafa"/>
<g stroke="#e8e8e8" stroke-width="0.5">
<line x1="79.91191930671971" y1="842.0528484159681" x2="79.91191930671971" y2="42.93365534877114"/>
<line x1="111.87668702940758" y1="842.0528484159681" x2="111.87668702940758" y2="42.93365534877114"/>
<line x1="143.84145475209547" y1="842.0528484159681" x2="143.84145475209547" y2="42.93365534877114"/>
<line x1="175.80622247478334" y1="842.0528484159681" x2="175.80622247478334" y2="42.93365534877114"/>
<line x1="207.77099019747124" y1="842.0528484159681" x2="207.77099019747124" y2="42.93365534877114"/>
<line x1="239.7357579201591" y1="842.0528484159681" x2="239.7357579201591" y2="42.93365534877114"/>
<line x1="271.70052564284697" y1="842.0528484159681" x2="271.70052564284697" y2="42.93365534877114"/>
<line x1="303.66529336553486" y1="842.0528484159681" x2="303.66529336553486" y2="42.93365534877114"/>
<line x1="335.63006108822276" y1="842.0528484159681" x2="335.63006108822276" y2="42.93365534877114"/>
<line x1="367.59482881091066" y1="842.0528484159681" x2="367.59482881091066" y2="42.93365534877114"/>
<line x1="399.5595965335985" y1="842.0528484159681" x2="399.5595965335985" y2="42.93365534877114"/>
<line x1="431.5243642562864" y1="842.0528484159681" x2="431.5243642562864" y2="42.93365534877114"/>
<line x1="463.4891319789743" y1="842.0528484159681" x2="463.4891319789743" y2="42.93365534877114"/>
<line x1="495.4538997016622" y1="842.0528484159681" x2="495.4538997016622" y2="42.93365534877114"/>
<line x1="527.41866742435" y1="842.0528484159681" x2="527.41866742435" y2="42.93365534877114"/>
<line x1="559.383435147038" y1="842.0528484159681" x2="559.383435147038" y2="42.93365534877114"/>
<line x1="591.3482028697258" y1="842.0528484159681" x2="591.3482028697258" y2="42.93365534877114"/>
<line x1="623.3129705924136" y1="842.0528484159681" x2="623.3129705924136" y2="42.93365534877114"/>
<line x1="655.2777383151016" y1="842.0528484159681" x2="655.2777383151016" y2="42.93365534877114"/>
<line x1="687.2425060377894" y1="842.0528484159681" x2="687.2425060377894" y2="42.93365534877114"/>
<line x1="719.2072737604773" y1="842.0528484159681" x2="719.2072737604773" y2="42.93365534877114"/>
<line x1="751.1720414831652" y1="842.0528484159681" x2="751.1720414831652" y2="42.93365534877114"/>
<line x1="783.1368092058531" y1="842.0528484159681" x2="783.1368092058531" y2="42.93365534877114"/>
<line x1="815.101576928541" y1="842.0528484159681" x2="815.101576928541" y2="42.93365534877114"/>
<line x1="847.0663446512289" y1="842.0528484159681" x2="847.0663446512289" y2="42.93365534877114"/>
<line x1="47.94715158403182" y1="810.0880806932803" x2="879.0311123739167" y2="810.0880806932803"/>
<line x1="47.94715158403182" y1="778.1233129705925" x2="879.0311123739167" y2="778.1233129705925"/>
<line x1="47.94715158403182" y1="746.1585452479045" x2="879.0311123739167" y2="746.1585452479045"/>
<line x1="47.94715158403182" y1="714.1937775252167" x2="879.0311123739167" y2="714.1937775252167"/>
<line x1="47.94715158403182" y1="682.2290098025287" x2="879.0311123739167" y2="682.2290098025287"/>
<line x1="47.94715158403182" y1="650.2642420798409" x2="879.0311123739167" y2="650.2642420798409"/>
<line x1="47.94715158403182" y1="618.299474357153" x2="879.0311123739167" y2="618.299474357153"/>
<line x1="47.94715158403182" y1="586.3347066344652" x2="879.0311123739167" y2="586.3347066344652"/>
<line x1="47.94715158403182" y1="554.3699389117772" x2="879.0311123739167" y2="554.3699389117772"/>
<line x1="47.94715158403182" y1="522.4051711890893" x2="879.0311123739167" y2="522.4051711890893"/>
<line x1="47.94715158403182" y1="490.4404034664015" x2="879.0311123739167" y2="490.4404034664015"/>
<line x1="47.94715158403182" y1="458.4756357437136" x2="879.0311123739167" y2="458.4756357437136"/>
<line x1="47.94715158403182" y1="426.5108680210257" x2="879.0311123739167" y2="426.5108680210257"/>
<line x1="47.94715158403182" y1="394.5461002983378" x2="879.0311123739167" y2="394.5461002983378"/>
<line x1="47.94715158403182" y1="362.58133257565" x2="879.0311123739167" y2="362.58133257565"/>
<line x1="47.94715158403182" y1="330.61656485296203" x2="879.0311123739167" y2="330.61656485296203"/>
<line x1="47.94715158403182" y1="298.6517971302742" x2="879.0311123739167" y2="298.6517971302742"/>
<line x1="47.94715158403182" y1="266.68702940758635" x2="879.0311123739167" y2="266.68702940758635"/>
<line x1="47.94715158403182" y1="234.7222616848984" x2="879.0311123739167" y2="234.7222616848984"/>
<line x1="47.94715158403182" y1="202.75749396221056" x2="879.0311123739167" y2="202.75749396221056"/>
<line x1="47.94715158403182" y1="170.79272623952272" x2="879.0311123739167" y2="170.79272623952272"/>
<line x1="47.94715158403182" y1="138.82795851683477" x2="879.0311123739167" y2="138.82795851683477"/>
<line x1="47.94715158403182" y1="106.86319079414693" x2="879.0311123739167" y2="106.86319079414693"/>
<line x1="47.94715158403182" y1="74.89842307145898" x2="879.0311123739167" y2="74.89842307145898"/>
</g>
<g stroke="#ccc" stroke-width="1">
<line x1="79.91191930671971" y1="842.0528484159681" x2="79.91191930671971" y2="42.93365534877114"/>
<line x1="239.7357579201591" y1="842.0528484159681" x2="239.7357579201591" y2="42.93365534877114"/>
<line x1="399.5595965335985" y1="842.0528484159681" x2="399.5595965335985" y2="42.93365534877114"/>
<line x1="559.383435147038" y1="842.0528484159681" x2="559.383435147038" y2="42.93365534877114"/>
<line x1="719.2072737604773" y1="842.0528484159681" x2="719.2072737604773" y2="42.93365534877114"/>
<line x1="47.94715158403182" y1="810.0880806932803" x2="879.0311123739167" y2="810.0880806932803"/>
<line x1="47.94715158403182" y1="650.2642420798409" x2="879.0311123739167" y2="650.2642420798409"/>
<line x1="47.94715158403182" y1="490.4404034664015" x2="879.0311123739167" y2="490.4404034664015"/>
<line x1="47.94715158403182" y1="330.61656485296203" x2="879.0311123739167" y2="330.61656485296203"/>
<line x1="47.94715158403182" y1="170.79272623952272" x2="879.0311123739167" y2="170.79272623952272"/>
</g>
<g font-size="10" fill="#aaa" font-family="monospace">
<text x="82.91191930671971" y="826.0704645546242">0</text>
<text x="402.5595965335985" y="826.0704645546242">100</text>
<text x="722.2072737604773" y="826.0704645546242">200</text>
<text x="22.375337405881517" y="814.0880806932803">0</text>
<text x="22.375337405881517" y="494.4404034664015">100</text>
<text x="22.375337405881517" y="174.79272623952272">200</text>
</g>
<g stroke="#00aa00" stroke-width="1.5" fill="none">
<line x1="229.4" y1="810.1" x2="622.6" y2="810.1"/>
<line x1="622.6" y1="810.1" x2="622.6" y2="378.6"/>
<line x1="622.6" y1="378.6" x2="229.4" y2="378.6"/>
<line x1="229.4" y1="378.6" x2="229.4" y2="810.1"/>
<line x1="772.1" y1="810.1" x2="772.1" y2="378.6"/>
</g>
<g stroke="#ff0000" stroke-width="2" fill="none">
<line x1="79.9" y1="79.5" x2="79.9" y2="254.3"/>
<line x1="79.9" y1="254.3" x2="94.4" y2="253.0"/>
<line x1="94.4" y1="253.0" x2="79.9" y2="274.9"/>
<line x1="79.9" y1="274.9" x2="99.0" y2="275.3"/>
<line x1="99.0" y1="275.3" x2="79.9" y2="282.2"/>
<line x1="79.9" y1="282.2" x2="99.0" y2="294.2"/>
<line x1="99.0" y1="294.2" x2="79.9" y2="299.3"/>
<line x1="79.9" y1="299.3" x2="79.9" y2="315.2"/>
<line x1="79.9" y1="315.2" x2="97.9" y2="316.0"/>
<line x1="97.9" y1="316.0" x2="79.9" y2="318.6"/>
<line x1="79.9" y1="318.6" x2="79.9" y2="394.5"/>
<line x1="79.9" y1="394.5" x2="94.4" y2="388.4"/>
<line x1="94.4" y1="388.4" x2="98.5" y2="400.5"/>
<line x1="98.5" y1="400.5" x2="79.9" y2="398.7"/>
<line x1="79.9" y1="398.7" x2="104.8" y2="403.0"/>
<line x1="104.8" y1="403.0" x2="106.5" y2="478.9"/>
<line x1="106.5" y1="478.9" x2="79.9" y2="493.0"/>
<line x1="79.9" y1="493.0" x2="79.9" y2="667.0"/>
<line x1="79.9" y1="667.0" x2="105.4" y2="633.5"/>
<line x1="105.4" y1="633.5" x2="108.3" y2="662.7"/>
<line x1="108.3" y1="662.7" x2="79.9" y2="693.1"/>
<line x1="79.9" y1="693.1" x2="79.9" y2="810.1"/>
<line x1="79.9" y1="810.1" x2="820.1" y2="810.1"/>
<line x1="820.1" y1="810.1" x2="820.1" y2="157.0"/>
<line x1="820.1" y1="157.0" x2="785.3" y2="143.3"/>
<line x1="785.3" y1="143.3" x2="773.7" y2="117.2"/>
<line x1="773.7" y1="117.2" x2="784.8" y2="96.6"/>
<line x1="784.8" y1="96.6" x2="781.9" y2="120.6"/>
<line x1="781.9" y1="120.6" x2="820.1" y2="134.4"/>
<line x1="820.1" y1="134.4" x2="820.1" y2="79.5"/>
<line x1="820.1" y1="79.5" x2="79.9" y2="79.5"/>
</g>
<g font-family="Arial">
<text x="426.02642420798406" y="594.3258985651371" text-anchor="middle" font-size="16" font-weight="bold" fill="#333">底板 123.0×135.0</text>
<text x="426.02642420798406" y="303.798124733627" text-anchor="middle" font-size="12" fill="#00aa00">顶墙 H=46.78</text>
<text x="426.02642420798406" y="884.8536723966472" text-anchor="middle" font-size="12" fill="#00aa00">底墙 H=46.78</text>
<text x="154.67751101008665" y="594.3258985651371" text-anchor="middle" font-size="11" fill="#00aa00" transform="rotate(-90,154.67751101008665,594.3258985651371)">左墙</text>
<text x="697.3753374058815" y="594.3258985651371" text-anchor="middle" font-size="11" fill="#00aa00" transform="rotate(90,697.3753374058815,594.3258985651371)">右墙</text>
</g>
<g font-size="11" font-family="Arial">
<rect x="10" y="10" width="220" height="80" fill="white" fill-opacity="0.9" stroke="#ccc" rx="4"/>
<line x1="20" y1="28" x2="50" y2="28" stroke="red" stroke-width="2"/><text x="55" y="32" fill="#333">CUT 切割线 (外轮廓)</text>
<line x1="20" y1="48" x2="50" y2="48" stroke="#00aa00" stroke-width="1.5"/><text x="55" y="52" fill="#333">SCORE 折叠线 (底板边界)</text>
<text x="20" y="72" fill="#888">网格: 10mm/格, 50mm粗线</text>
<text x="20" y="85" fill="#888">30pts外轮廓 + 双比例校准</text>
</g>
</svg>