<svg xmlns="http://www.w3.org/2000/svg" width="800" height="790" viewBox="0 0 800 790">
<rect width="100%" height="100%" fill="white"/>
<g stroke="#00aa00" stroke-width="1" fill="none">
  <line x1="180.6" y1="609.4" x2="571.7" y2="609.4"/>
  <line x1="571.7" y1="609.4" x2="571.7" y2="180.1"/>
  <line x1="571.7" y1="180.1" x2="180.6" y2="180.1"/>
  <line x1="180.6" y1="180.1" x2="180.6" y2="609.4"/>
  <line x1="720.5" y1="609.4" x2="720.5" y2="180.1"/>
</g>
<g stroke="#0066ff" stroke-width="1" stroke-dasharray="4,3" fill="none">
  <line x1="180.6" y1="180.1" x2="180.6" y2="105.7"/>
  <line x1="571.7" y1="180.1" x2="571.7" y2="105.7"/>
  <line x1="180.6" y1="609.4" x2="180.6" y2="683.8"/>
  <line x1="571.7" y1="609.4" x2="571.7" y2="683.8"/>
</g>
<g stroke="#ff0000" stroke-width="2.5" fill="none">
  <line x1="180.6" y1="180.1" x2="571.7" y2="180.1"/>
  <line x1="571.7" y1="180.1" x2="571.7" y2="31.3"/>
  <line x1="571.7" y1="31.3" x2="180.6" y2="31.3"/>
  <line x1="180.6" y1="31.3" x2="180.6" y2="180.1"/>
  <line x1="180.6" y1="609.4" x2="571.7" y2="609.4"/>
  <line x1="571.7" y1="609.4" x2="571.7" y2="758.2"/>
  <line x1="571.7" y1="758.2" x2="180.6" y2="758.2"/>
  <line x1="180.6" y1="758.2" x2="180.6" y2="609.4"/>
  <line x1="180.6" y1="609.4" x2="180.6" y2="180.1"/>
  <line x1="180.6" y1="180.1" x2="31.8" y2="180.1"/>
  <line x1="31.8" y1="180.1" x2="31.8" y2="609.4"/>
  <line x1="31.8" y1="609.4" x2="180.6" y2="609.4"/>
  <line x1="571.7" y1="609.4" x2="571.7" y2="180.1"/>
  <line x1="571.7" y1="180.1" x2="720.5" y2="180.1"/>
  <line x1="720.5" y1="180.1" x2="720.5" y2="609.4"/>
  <line x1="720.5" y1="609.4" x2="571.7" y2="609.4"/>
  <line x1="106.2" y1="180.1" x2="180.6" y2="180.1"/>
  <line x1="180.6" y1="31.3" x2="106.2" y2="105.7"/>
  <line x1="106.2" y1="105.7" x2="106.2" y2="180.1"/>
  <line x1="571.7" y1="180.1" x2="646.1" y2="180.1"/>
  <line x1="571.7" y1="31.3" x2="646.1" y2="105.7"/>
  <line x1="646.1" y1="105.7" x2="646.1" y2="180.1"/>
  <line x1="106.2" y1="609.4" x2="180.6" y2="609.4"/>
  <line x1="180.6" y1="758.2" x2="106.2" y2="683.8"/>
  <line x1="106.2" y1="683.8" x2="106.2" y2="609.4"/>
  <line x1="571.7" y1="609.4" x2="646.1" y2="609.4"/>
  <line x1="571.7" y1="758.2" x2="646.1" y2="683.8"/>
  <line x1="646.1" y1="683.8" x2="646.1" y2="609.4"/>
  <line x1="720.5" y1="609.4" x2="768.2" y2="619.0"/>
  <line x1="768.2" y1="619.0" x2="768.2" y2="170.6"/>
  <line x1="768.2" y1="170.6" x2="720.5" y2="180.1"/>
</g>
<g font-size="11" fill="#333" font-family="Arial">
  <text x="376" y="395" text-anchor="middle" font-size="14">底板 123×135</text>
  <text x="376" y="106" text-anchor="middle" fill="#00aa00">顶墙 H=46.78</text>
  <text x="376" y="684" text-anchor="middle" fill="#00aa00">底墙 H=46.78</text>
  <text x="106" y="395" text-anchor="middle" fill="#00aa00" transform="rotate(-90,106,395)">左墙</text>
  <text x="671" y="395" text-anchor="middle" fill="#00aa00" transform="rotate(90,671,395)">右墙+糊边</text>
</g>
<g font-size="12" font-family="Arial">
  <line x1="10" y1="15" x2="40" y2="15" stroke="red" stroke-width="2.5"/>
  <text x="45" y="19" fill="#333">CUT 切割线</text>
  <line x1="10" y1="32" x2="40" y2="32" stroke="#00aa00" stroke-width="1"/>
  <text x="45" y="36" fill="#333">SCORE 折叠线</text>
  <line x1="10" y1="49" x2="40" y2="49" stroke="#0066ff" stroke-width="1" stroke-dasharray="4,3"/>
  <text x="45" y="53" fill="#333">FLAP 翼片折叠线</text>
</g>
</svg>