  0
SECTION
  2
HEADER
  9
$ACADVER
  1
AC1024
  9
$ACADMAINTVER
 70
6
  9
$DWGCODEPAGE
  3
ANSI_1252
  9
$LASTSAVEDBY
  1
ezdxf
  9
$INSBASE
 10
0.0
 20
0.0
 30
0.0
  9
$EXTMIN
 10
1e+20
 20
1e+20
 30
1e+20
  9
$EXTMAX
 10
-1e+20
 20
-1e+20
 30
-1e+20
  9
$LIMMIN
 10
0.0
 20
0.0
  9
$LIMMAX
 10
420.0
 20
297.0
  9
$ORTHOMODE
 70
0
  9
$REGENMODE
 70
1
  9
$FILLMODE
 70
1
  9
$QTEXTMODE
 70
0
  9
$MIRRTEXT
 70
1
  9
$LTSCALE
 40
1.0
  9
$ATTMODE
 70
1
  9
$TEXTSIZE
 40
2.5
  9
$TRACEWID
 40
1.0
  9
$TEXTSTYLE
  7
Standard
  9
$CLAYER
  8
0
  9
$CELTYPE
  6
ByLayer
  9
$CECOLOR
 62
256
  9
$CELTSCALE
 40
1.0
  9
$DISPSILH
 70
0
  9
$DIMSCALE
 40
1.0
  9
$DIMASZ
 40
2.5
  9
$DIMEXO
 40
0.625
  9
$DIMDLI
 40
3.75
  9
$DIMRND
 40
0.0
  9
$DIMDLE
 40
0.0
  9
$DIMEXE
 40
1.25
  9
$DIMTP
 40
0.0
  9
$DIMTM
 40
0.0
  9
$DIMTXT
 40
2.5
  9
$DIMCEN
 40
2.5
  9
$DIMTSZ
 40
0.0
  9
$DIMTOL
 70
0
  9
$DIMLIM
 70
0
  9
$DIMTIH
 70
0
  9
$DIMTOH
 70
0
  9
$DIMSE1
 70
0
  9
$DIMSE2
 70
0
  9
$DIMTAD
 70
1
  9
$DIMZIN
 70
8
  9
$DIMBLK
  1

  9
$DIMASO
 70
1
  9
$DIMSHO
 70
1
  9
$DIMPOST
  1

  9
$DIMAPOST
  1

  9
$DIMALT
 70
0
  9
$DIMALTD
 70
3
  9
$DIMALTF
 40
0.03937007874
  9
$DIMLFAC
 40
1.0
  9
$DIMTOFL
 70
1
  9
$DIMTVP
 40
0.0
  9
$DIMTIX
 70
0
  9
$DIMSOXD
 70
0
  9
$DIMSAH
 70
0
  9
$DIMBLK1
  1

  9
$DIMBLK2
  1

  9
$DIMSTYLE
  2
ISO-25
  9
$DIMCLRD
 70
0
  9
$DIMCLRE
 70
0
  9
$DIMCLRT
 70
0
  9
$DIMTFAC
 40
1.0
  9
$DIMGAP
 40
0.625
  9
$DIMJUST
 70
0
  9
$DIMSD1
 70
0
  9
$DIMSD2
 70
0
  9
$DIMTOLJ
 70
0
  9
$DIMTZIN
 70
8
  9
$DIMALTZ
 70
0
  9
$DIMALTTZ
 70
0
  9
$DIMUPT
 70
0
  9
$DIMDEC
 70
2
  9
$DIMTDEC
 70
2
  9
$DIMALTU
 70
2
  9
$DIMALTTD
 70
3
  9
$DIMTXSTY
  7
Standard
  9
$DIMAUNIT
 70
0
  9
$DIMADEC
 70
0
  9
$DIMALTRND
 40
0.0
  9
$DIMAZIN
 70
0
  9
$DIMDSEP
 70
44
  9
$DIMATFIT
 70
3
  9
$DIMFRAC
 70
0
  9
$DIMLDRBLK
  1

  9
$DIMLUNIT
 70
2
  9
$DIMLWD
 70
-2
  9
$DIMLWE
 70
-2
  9
$DIMTMOVE
 70
0
  9
$DIMFXL
 40
1.0
  9
$DIMFXLON
 70
0
  9
$DIMJOGANG
 40
0.785398163397
  9
$DIMTFILL
 70
0
  9
$DIMTFILLCLR
 70
0
  9
$DIMARCSYM
 70
0
  9
$DIMLTYPE
  6

  9
$DIMLTEX1
  6

  9
$DIMLTEX2
  6

  9
$DIMTXTDIRECTION
 70
0
  9
$LUNITS
 70
2
  9
$LUPREC
 70
4
  9
$SKETCHINC
 40
1.0
  9
$FILLETRAD
 40
10.0
  9
$AUNITS
 70
0
  9
$AUPREC
 70
2
  9
$MENU
  1
.
  9
$ELEVATION
 40
0.0
  9
$PELEVATION
 40
0.0
  9
$THICKNESS
 40
0.0
  9
$LIMCHECK
 70
0
  9
$CHAMFERA
 40
0.0
  9
$CHAMFERB
 40
0.0
  9
$CHAMFERC
 40
0.0
  9
$CHAMFERD
 40
0.0
  9
$SKPOLY
 70
0
  9
$TDCREATE
 40
2461131.750914352
  9
$TDUCREATE
 40
2458532.153996898
  9
$TDUPDATE
 40
2461131.750914352
  9
$TDUUPDATE
 40
2458532.1544311
  9
$TDINDWG
 40
0.0
  9
$TDUSRTIMER
 40
0.0
  9
$USRTIMER
 70
1
  9
$ANGBASE
 50
0.0
  9
$ANGDIR
 70
0
  9
$PDMODE
 70
0
  9
$PDSIZE
 40
0.0
  9
$PLINEWID
 40
0.0
  9
$SPLFRAME
 70
0
  9
$SPLINETYPE
 70
6
  9
$SPLINESEGS
 70
8
  9
$HANDSEED
  5
45E
  9
$SURFTAB1
 70
6
  9
$SURFTAB2
 70
6
  9
$SURFTYPE
 70
6
  9
$SURFU
 70
6
  9
$SURFV
 70
6
  9
$UCSBASE
  2

  9
$UCSNAME
  2

  9
$UCSORG
 10
0.0
 20
0.0
 30
0.0
  9
$UCSXDIR
 10
1.0
 20
0.0
 30
0.0
  9
$UCSYDIR
 10
0.0
 20
1.0
 30
0.0
  9
$UCSORTHOREF
  2

  9
$UCSORTHOVIEW
 70
0
  9
$UCSORGTOP
 10
0.0
 20
0.0
 30
0.0
  9
$UCSORGBOTTOM
 10
0.0
 20
0.0
 30
0.0
  9
$UCSORGLEFT
 10
0.0
 20
0.0
 30
0.0
  9
$UCSORGRIGHT
 10
0.0
 20
0.0
 30
0.0
  9
$UCSORGFRONT
 10
0.0
 20
0.0
 30
0.0
  9
$UCSORGBACK
 10
0.0
 20
0.0
 30
0.0
  9
$PUCSBASE
  2

  9
$PUCSNAME
  2

  9
$PUCSORG
 10
0.0
 20
0.0
 30
0.0
  9
$PUCSXDIR
 10
1.0
 20
0.0
 30
0.0
  9
$PUCSYDIR
 10
0.0
 20
1.0
 30
0.0
  9
$PUCSORTHOREF
  2

  9
$PUCSORTHOVIEW
 70
0
  9
$PUCSORGTOP
 10
0.0
 20
0.0
 30
0.0
  9
$PUCSORGBOTTOM
 10
0.0
 20
0.0
 30
0.0
  9
$PUCSORGLEFT
 10
0.0
 20
0.0
 30
0.0
  9
$PUCSORGRIGHT
 10
0.0
 20
0.0
 30
0.0
  9
$PUCSORGFRONT
 10
0.0
 20
0.0
 30
0.0
  9
$PUCSORGBACK
 10
0.0
 20
0.0
 30
0.0
  9
$USERI1
 70
0
  9
$USERI2
 70
0
  9
$USERI3
 70
0
  9
$USERI4
 70
0
  9
$USERI5
 70
0
  9
$USERR1
 40
0.0
  9
$USERR2
 40
0.0
  9
$USERR3
 40
0.0
  9
$USERR4
 40
0.0
  9
$USERR5
 40
0.0
  9
$WORLDVIEW
 70
1
  9
$SHADEDGE
 70
3
  9
$SHADEDIF
 70
70
  9
$TILEMODE
 70
1
  9
$MAXACTVP
 70
64
  9
$PINSBASE
 10
0.0
 20
0.0
 30
0.0
  9
$PLIMCHECK
 70
0
  9
$PEXTMIN
 10
1e+20
 20
1e+20
 30
1e+20
  9
$PEXTMAX
 10
-1e+20
 20
-1e+20
 30
-1e+20
  9
$PLIMMIN
 10
0.0
 20
0.0
  9
$PLIMMAX
 10
420.0
 20
297.0
  9
$UNITMODE
 70
0
  9
$VISRETAIN
 70
1
  9
$PLINEGEN
 70
0
  9
$PSLTSCALE
 70
1
  9
$TREEDEPTH
 70
3020
  9
$CMLSTYLE
  2
Standard
  9
$CMLJUST
 70
0
  9
$CMLSCALE
 40
20.0
  9
$PROXYGRAPHICS
 70
1
  9
$MEASUREMENT
 70
1
  9
$CELWEIGHT
370
-1
  9
$ENDCAPS
280
0
  9
$JOINSTYLE
280
0
  9
$LWDISPLAY
290
0
  9
$INSUNITS
 70
6
  9
$HYPERLINKBASE
  1

  9
$STYLESHEET
  1

  9
$XEDIT
290
1
  9
$CEPSNTYPE
380
0
  9
$PSTYLEMODE
290
1
  9
$FINGERPRINTGUID
  2
{B5E5A614-AE50-49BE-A039-E192CEFA0550}
  9
$VERSIONGUID
  2
{AF2776CE-A94B-4D7B-B1BA-DC75500B1978}
  9
$EXTNAMES
290
1
  9
$PSVPSCALE
 40
0.0
  9
$OLESTARTUP
290
0
  9
$SORTENTS
280
127
  9
$INDEXCTL
280
0
  9
$HIDETEXT
280
1
  9
$XCLIPFRAME
280
1
  9
$HALOGAP
280
0
  9
$OBSCOLOR
 70
257
  9
$OBSLTYPE
280
0
  9
$INTERSECTIONDISPLAY
280
0
  9
$INTERSECTIONCOLOR
 70
257
  9
$DIMASSOC
280
2
  9
$PROJECTNAME
  1

  9
$CAMERADISPLAY
290
0
  9
$LENSLENGTH
 40
50.0
  9
$CAMERAHEIGHT
 40
0.0
  9
$STEPSPERSEC
 40
24.0
  9
$STEPSIZE
 40
100.0
  9
$3DDWFPREC
 40
2.0
  9
$PSOLWIDTH
 40
0.005
  9
$PSOLHEIGHT
 40
0.08
  9
$LOFTANG1
 40
1.570796326795
  9
$LOFTANG2
 40
1.570796326795
  9
$LOFTMAG1
 40
0.0
  9
$LOFTMAG2
 40
0.0
  9
$LOFTPARAM
 70
7
  9
$LOFTNORMALS
280
1
  9
$LATITUDE
 40
37.795
  9
$LONGITUDE
 40
-122.394
  9
$NORTHDIRECTION
 40
0.0
  9
$TIMEZONE
 70
-8000
  9
$LIGHTGLYPHDISPLAY
280
1
  9
$TILEMODELIGHTSYNCH
280
1
  9
$CMATERIAL
347
20
  9
$SOLIDHIST
280
0
  9
$SHOWHIST
280
1
  9
$DWFFRAME
280
2
  9
$DGNFRAME
280
2
  9
$REALWORLDSCALE
290
1
  9
$INTERFERECOLOR
 62
256
  9
$CSHADOW
280
0
  9
$SHADOWPLANELOCATION
 40
0.0
  0
ENDSEC
  0
SECTION
  2
CLASSES
  0
CLASS
  1
ACDBDICTIONARYWDFLT
  2
AcDbDictionaryWithDefault
  3
ObjectDBX Classes
 90
0
 91
0
280
0
281
0
  0
CLASS
  1
SUN
  2
AcDbSun
  3
SCENEOE
 90
1153
 91
0
280
0
281
0
  0
CLASS
  1
VISUALSTYLE
  2
AcDbVisualStyle
  3
ObjectDBX Classes
 90
4095
 91
0
280
0
281
0
  0
CLASS
  1
MATERIAL
  2
AcDbMaterial
  3
ObjectDBX Classes
 90
1153
 91
0
280
0
281
0
  0
CLASS
  1
SCALE
  2
AcDbScale
  3
ObjectDBX Classes
 90
1153
 91
0
280
0
281
0
  0
CLASS
  1
TABLESTYLE
  2
AcDbTableStyle
  3
ObjectDBX Classes
 90
4095
 91
0
280
0
281
0
  0
CLASS
  1
MLEADERSTYLE
  2
AcDbMLeaderStyle
  3
ACDB_MLEADERSTYLE_CLASS
 90
4095
 91
0
280
0
281
0
  0
CLASS
  1
DICTIONARYVAR
  2
AcDbDictionaryVar
  3
ObjectDBX Classes
 90
0
 91
0
280
0
281
0
  0
CLASS
  1
CELLSTYLEMAP
  2
AcDbCellStyleMap
  3
ObjectDBX Classes
 90
1152
 91
0
280
0
281
0
  0
CLASS
  1
MENTALRAYRENDERSETTINGS
  2
AcDbMentalRayRenderSettings
  3
SCENEOE
 90
1024
 91
0
280
0
281
0
  0
CLASS
  1
ACDBDETAILVIEWSTYLE
  2
AcDbDetailViewStyle
  3
ObjectDBX Classes
 90
1025
 91
0
280
0
281
0
  0
CLASS
  1
ACDBSECTIONVIEWSTYLE
  2
AcDbSectionViewStyle
  3
ObjectDBX Classes
 90
1025
 91
0
280
0
281
0
  0
CLASS
  1
RASTERVARIABLES
  2
AcDbRasterVariables
  3
ISM
 90
0
 91
0
280
0
281
0
  0
CLASS
  1
LAYOUT
  2
AcDbLayout
  3
ObjectDBX Classes
 90
0
 91
0
280
0
281
0
  0
CLASS
  1
ACDBPLACEHOLDER
  2
AcDbPlaceHolder
  3
ObjectDBX Classes
 90
0
 91
0
280
0
281
0
  0
ENDSEC
  0
SECTION
  2
TABLES
  0
TABLE
  2
VPORT
  5
8
330
0
100
AcDbSymbolTable
 70
1
  0
VPORT
  5
23
330
8
100
AcDbSymbolTableRecord
100
AcDbViewportTableRecord
  2
*Active
 70
0
 10
0.0
 20
0.0
 11
1.0
 21
1.0
 12
0.0
 22
0.0
 13
0.0
 23
0.0
 14
0.5
 24
0.5
 15
0.5
 25
0.5
 16
0.0
 26
0.0
 36
1.0
 17
0.0
 27
0.0
 37
0.0
 40
1000.0
 41
1.34
 42
50.0
 43
0.0
 44
0.0
 50
0.0
 51
0.0
 71
0
 72
1000
 73
1
 74
3
 75
0
 76
0
 77
0
 78
0
281
0
 65
0
146
0.0
  0
ENDTAB
  0
TABLE
  2
LTYPE
  5
2
330
0
100
AcDbSymbolTable
 70
3
  0
LTYPE
  5
24
330
2
100
AcDbSymbolTableRecord
100
AcDbLinetypeTableRecord
  2
ByBlock
 70
0
  3

 72
65
 73
0
 40
0.0
  0
LTYPE
  5
25
330
2
100
AcDbSymbolTableRecord
100
AcDbLinetypeTableRecord
  2
ByLayer
 70
0
  3

 72
65
 73
0
 40
0.0
  0
LTYPE
  5
26
330
2
100
AcDbSymbolTableRecord
100
AcDbLinetypeTableRecord
  2
Continuous
 70
0
  3

 72
65
 73
0
 40
0.0
  0
ENDTAB
  0
TABLE
  2
LAYER
  5
1
330
0
100
AcDbSymbolTable
 70
7
  0
LAYER
  5
27
330
1
100
AcDbSymbolTableRecord
100
AcDbLayerTableRecord
  2
0
 70
0
 62
7
  6
Continuous
370
-3
390
13
347
21
  0
LAYER
  5
28
330
1
100
AcDbSymbolTableRecord
100
AcDbLayerTableRecord
  2
Defpoints
 70
0
 62
7
  6
Continuous
290
0
370
-3
390
13
347
21
  0
LAYER
  5
2F
330
1
100
AcDbSymbolTableRecord
100
AcDbLayerTableRecord
  2
CUT
 70
0
 62
7
  6
Continuous
370
-3
390
13
347
21
  0
LAYER
  5
30
330
1
100
AcDbSymbolTableRecord
100
AcDbLayerTableRecord
  2
FOLD
 70
0
 62
1
  6
Continuous
370
-3
390
13
347
21
  0
LAYER
  5
31
330
1
100
AcDbSymbolTableRecord
100
AcDbLayerTableRecord
  2
CREASE
 70
0
 62
3
  6
Continuous
370
-3
390
13
347
21
  0
LAYER
  5
32
330
1
100
AcDbSymbolTableRecord
100
AcDbLayerTableRecord
  2
SLOT
 70
0
 62
5
  6
Continuous
370
-3
390
13
347
21
  0
LAYER
  5
33
330
1
100
AcDbSymbolTableRecord
100
AcDbLayerTableRecord
  2
BRIDGE
 70
0
 62
6
  6
Continuous
370
-3
390
13
347
21
  0
ENDTAB
  0
TABLE
  2
STYLE
  5
5
330
0
100
AcDbSymbolTable
 70
1
  0
STYLE
  5
29
330
5
100
AcDbSymbolTableRecord
100
AcDbTextStyleTableRecord
  2
Standard
 70
0
 40
0.0
 41
1.0
 50
0.0
 71
0
 42
2.5
  3
txt
  4

  0
ENDTAB
  0
TABLE
  2
VIEW
  5
7
330
0
100
AcDbSymbolTable
 70
0
  0
ENDTAB
  0
TABLE
  2
UCS
  5
6
330
0
100
AcDbSymbolTable
 70
0
  0
ENDTAB
  0
TABLE
  2
APPID
  5
3
330
0
100
AcDbSymbolTable
 70
3
  0
APPID
  5
2A
330
3
100
AcDbSymbolTableRecord
100
AcDbRegAppTableRecord
  2
ACAD
 70
0
  0
APPID
  5
45B
330
3
100
AcDbSymbolTableRecord
100
AcDbRegAppTableRecord
  2
HATCHBACKGROUNDCOLOR
 70
0
  0
APPID
  5
45C
330
3
100
AcDbSymbolTableRecord
100
AcDbRegAppTableRecord
  2
EZDXF
 70
0
  0
ENDTAB
  0
TABLE
  2
DIMSTYLE
  5
4
330
0
100
AcDbSymbolTable
 70
1
100
AcDbDimStyleTable
  0
DIMSTYLE
105
2B
330
4
100
AcDbSymbolTableRecord
100
AcDbDimStyleTableRecord
  2
Standard
 70
0
 40
1.0
 41
2.5
 42
0.625
 43
3.75
 44
1.25
 45
0.0
 46
0.0
 47
0.0
 48
0.0
 49
2.5
140
2.5
141
2.5
142
0.0
143
0.03937007874
144
1.0
145
0.0
146
1.0
147
0.625
148
0.0
 69
0
 70
0
 71
0
 72
0
 73
0
 74
0
 75
0
 76
0
 77
1
 78
8
 79
3
170
0
171
3
172
1
173
0
174
0
175
0
176
0
177
0
178
0
179
2
271
2
272
2
273
2
274
3
275
0
276
0
277
2
278
44
279
0
280
0
281
0
282
0
283
0
284
8
285
0
286
0
288
0
289
3
290
0
371
-2
372
-2
  0
ENDTAB
  0
TABLE
  2
BLOCK_RECORD
  5
9
330
0
100
AcDbSymbolTable
 70
2
  0
BLOCK_RECORD
  5
17
330
9
100
AcDbSymbolTableRecord
100
AcDbBlockTableRecord
  2
*Model_Space
340
1A
 70
0
280
1
281
0
  0
BLOCK_RECORD
  5
1B
330
9
100
AcDbSymbolTableRecord
100
AcDbBlockTableRecord
  2
*Paper_Space
340
1E
 70
0
280
1
281
0
  0
ENDTAB
  0
ENDSEC
  0
SECTION
  2
BLOCKS
  0
BLOCK
  5
18
330
17
100
AcDbEntity
  8
0
100
AcDbBlockBegin
  2
*Model_Space
 70
0
 10
0.0
 20
0.0
 30
0.0
  3
*Model_Space
  1

  0
ENDBLK
  5
19
330
17
100
AcDbEntity
  8
0
100
AcDbBlockEnd
  0
BLOCK
  5
1C
330
1B
100
AcDbEntity
  8
0
100
AcDbBlockBegin
  2
*Paper_Space
 70
0
 10
0.0
 20
0.0
 30
0.0
  3
*Paper_Space
  1

  0
ENDBLK
  5
1D
330
1B
100
AcDbEntity
  8
0
100
AcDbBlockEnd
  0
ENDSEC
  0
SECTION
  2
ENTITIES
  0
LINE
  5
34
330
17
100
AcDbEntity
  8
FOLD
100
AcDbLine
 10
163.5
 20
877.5
 30
0.0
 11
174.25
 21
877.5
 31
0.0
  0
LINE
  5
35
330
17
100
AcDbEntity
  8
CREASE
100
AcDbLine
 10
130.75
 20
624.25
 30
0.0
 11
130.75
 21
645.5
 31
0.0
  0
LINE
  5
36
330
17
100
AcDbEntity
  8
CUT
100
AcDbLine
 10
152.5
 20
772.75
 30
0.0
 11
166.5
 21
772.75
 31
0.0
  0
LINE
  5
37
330
17
100
AcDbEntity
  8
CREASE
100
AcDbLine
 10
74.5
 20
772.5
 30
0.0
 11
74.5
 21
794.0
 31
0.0
  0
LINE
  5
38
330
17
100
AcDbEntity
  8
FOLD
100
AcDbLine
 10
209.75
 20
721.5
 30
0.0
 11
210.0
 21
711.25
 31
0.0
  0
LINE
  5
39
330
17
100
AcDbEntity
  8
FOLD
100
AcDbLine
 10
216.0
 20
857.25
 30
0.0
 11
218.75
 21
776.0
 31
0.0
  0
LINE
  5
3A
330
17
100
AcDbEntity
  8
FOLD
100
AcDbLine
 10
166.0
 20
878.25
 30
0.0
 11
173.0
 21
878.25
 31
0.0
  0
LINE
  5
3B
330
17
100
AcDbEntity
  8
FOLD
100
AcDbLine
 10
263.0
 20
856.75
 30
0.0
 11
264.5
 21
809.5
 31
0.0
  0
LINE
  5
3C
330
17
100
AcDbEntity
  8
FOLD
100
AcDbLine
 10
34.5
 20
808.25
 30
0.0
 11
34.5
 21
818.0
 31
0.0
  0
LINE
  5
3D
330
17
100
AcDbEntity
  8
FOLD
100
AcDbLine
 10
128.0
 20
873.5
 30
0.0
 11
128.0
 21
914.0
 31
0.0
  0
LINE
  5
3E
330
17
100
AcDbEntity
  8
CREASE
100
AcDbLine
 10
212.0
 20
673.75
 30
0.0
 11
213.5
 21
629.75
 31
0.0
  0
LINE
  5
3F
330
17
100
AcDbEntity
  8
CREASE
100
AcDbLine
 10
265.75
 20
806.25
 30
0.0
 11
266.0
 21
795.0
 31
0.0
  0
LINE
  5
40
330
17
100
AcDbEntity
  8
CREASE
100
AcDbLine
 10
129.75
 20
914.75
 30
0.0
 11
175.75
 21
914.0
 31
0.0
  0
LINE
  5
41
330
17
100
AcDbEntity
  8
FOLD
100
AcDbLine
 10
43.5
 20
775.25
 30
0.0
 11
63.75
 21
775.0
 31
0.0
  0
LINE
  5
42
330
17
100
AcDbEntity
  8
FOLD
100
AcDbLine
 10
170.75
 20
735.5
 30
0.0
 11
181.25
 21
735.5
 31
0.0
  0
LINE
  5
43
330
17
100
AcDbEntity
  8
FOLD
100
AcDbLine
 10
74.25
 20
821.25
 30
0.0
 11
74.25
 21
830.5
 31
0.0
  0
LINE
  5
44
330
17
100
AcDbEntity
  8
CREASE
100
AcDbLine
 10
36.75
 20
866.0
 30
0.0
 11
36.75
 21
875.75
 31
0.0
  0
LINE
  5
45
330
17
100
AcDbEntity
  8
FOLD
100
AcDbLine
 10
127.5
 20
733.5
 30
0.0
 11
164.5
 21
734.0
 31
0.0
  0
LINE
  5
46
330
17
100
AcDbEntity
  8
FOLD
100
AcDbLine
 10
103.5
 20
663.0
 30
0.0
 11
103.5
 21
671.75
 31
0.0
  0
LINE
  5
47
330
17
100
AcDbEntity
  8
FOLD
100
AcDbLine
 10
121.0
 20
819.75
 30
0.0
 11
121.0
 21
853.75
 31
0.0
  0
LINE
  5
48
330
17
100
AcDbEntity
  8
CUT
100
AcDbLine
 10
129.75
 20
664.25
 30
0.0
 11
129.75
 21
697.5
 31
0.0
  0
LINE
  5
49
330
17
100
AcDbEntity
  8
CREASE
100
AcDbLine
 10
256.75
 20
828.0
 30
0.0
 11
257.75
 21
792.5
 31
0.0
  0
LINE
  5
4A
330
17
100
AcDbEntity
  8
FOLD
100
AcDbLine
 10
220.75
 20
878.5
 30
0.0
 11
251.25
 21
880.0
 31
0.0
  0
LINE
  5
4B
330
17
100
AcDbEntity
  8
CREASE
100
AcDbLine
 10
302.75
 20
876.0
 30
0.0
 11
304.0
 21
841.25
 31
0.0
  0
LINE
  5
4C
330
17
100
AcDbEntity
  8
FOLD
100
AcDbLine
 10
129.5
 20
928.0
 30
0.0
 11
129.5
 21
953.75
 31
0.0
  0
LINE
  5
4D
330
17
100
AcDbEntity
  8
CREASE
100
AcDbLine
 10
150.0
 20
773.75
 30
0.0
 11
164.75
 21
773.75
 31
0.0
  0
LINE
  5
4E
330
17
100
AcDbEntity
  8
CREASE
100
AcDbLine
 10
136.0
 20
921.0
 30
0.0
 11
184.5
 21
920.0
 31
0.0
  0
LINE
  5
4F
330
17
100
AcDbEntity
  8
FOLD
100
AcDbLine
 10
140.25
 20
921.5
 30
0.0
 11
168.0
 21
921.25
 31
0.0
  0
LINE
  5
50
330
17
100
AcDbEntity
  8
CREASE
100
AcDbLine
 10
217.0
 20
846.75
 30
0.0
 11
217.5
 21
829.0
 31
0.0
  0
LINE
  5
51
330
17
100
AcDbEntity
  8
FOLD
100
AcDbLine
 10
212.75
 20
752.75
 30
0.0
 11
213.0
 21
741.25
 31
0.0
  0
LINE
  5
52
330
17
100
AcDbEntity
  8
FOLD
100
AcDbLine
 10
208.75
 20
912.0
 30
0.0
 11
252.5
 21
914.5
 31
0.0
  0
LINE
  5
53
330
17
100
AcDbEntity
  8
FOLD
100
AcDbLine
 10
81.5
 20
782.5
 30
0.0
 11
81.5
 21
790.75
 31
0.0
  0
LINE
  5
54
330
17
100
AcDbEntity
  8
CREASE
100
AcDbLine
 10
121.5
 20
862.5
 30
0.0
 11
121.75
 21
841.25
 31
0.0
  0
LINE
  5
55
330
17
100
AcDbEntity
  8
CUT
100
AcDbLine
 10
130.0
 20
627.25
 30
0.0
 11
130.0
 21
646.75
 31
0.0
  0
LINE
  5
56
330
17
100
AcDbEntity
  8
FOLD
100
AcDbLine
 10
81.75
 20
780.75
 30
0.0
 11
96.75
 21
780.75
 31
0.0
  0
LINE
  5
57
330
17
100
AcDbEntity
  8
FOLD
100
AcDbLine
 10
129.5
 20
773.5
 30
0.0
 11
150.0
 21
773.5
 31
0.0
  0
LINE
  5
58
330
17
100
AcDbEntity
  8
CUT
100
AcDbLine
 10
123.5
 20
878.0
 30
0.0
 11
140.25
 21
878.0
 31
0.0
  0
LINE
  5
59
330
17
100
AcDbEntity
  8
FOLD
100
AcDbLine
 10
193.25
 20
736.0
 30
0.0
 11
215.75
 21
736.0
 31
0.0
  0
LINE
  5
5A
330
17
100
AcDbEntity
  8
CREASE
100
AcDbLine
 10
35.5
 20
810.0
 30
0.0
 11
36.25
 21
838.5
 31
0.0
  0
LINE
  5
5B
330
17
100
AcDbEntity
  8
CREASE
100
AcDbLine
 10
33.75
 20
774.25
 30
0.0
 11
42.0
 21
774.25
 31
0.0
  0
LINE
  5
5C
330
17
100
AcDbEntity
  8
FOLD
100
AcDbLine
 10
121.25
 20
788.0
 30
0.0
 11
121.25
 21
809.75
 31
0.0
  0
LINE
  5
5D
330
17
100
AcDbEntity
  8
CREASE
100
AcDbLine
 10
182.5
 20
641.0
 30
0.0
 11
183.0
 21
649.25
 31
0.0
  0
LINE
  5
5E
330
17
100
AcDbEntity
  8
SLOT
100
AcDbLine
 10
184.5
 20
609.25
 30
0.0
 11
184.5
 21
615.5
 31
0.0
  0
LINE
  5
5F
330
17
100
AcDbEntity
  8
CREASE
100
AcDbLine
 10
183.5
 20
806.75
 30
0.0
 11
184.0
 21
796.0
 31
0.0
  0
LINE
  5
60
330
17
100
AcDbEntity
  8
FOLD
100
AcDbLine
 10
35.25
 20
838.25
 30
0.0
 11
35.25
 21
848.5
 31
0.0
  0
LINE
  5
61
330
17
100
AcDbEntity
  8
SLOT
100
AcDbLine
 10
211.75
 20
664.5
 30
0.0
 11
211.75
 21
657.5
 31
0.0
  0
LINE
  5
62
330
17
100
AcDbEntity
  8
CREASE
100
AcDbLine
 10
212.0
 20
876.75
 30
0.0
 11
233.0
 21
878.0
 31
0.0
  0
LINE
  5
63
330
17
100
AcDbEntity
  8
CREASE
100
AcDbLine
 10
264.75
 20
828.25
 30
0.0
 11
265.25
 21
811.0
 31
0.0
  0
LINE
  5
64
330
17
100
AcDbEntity
  8
SLOT
100
AcDbLine
 10
130.75
 20
692.0
 30
0.0
 11
130.75
 21
686.0
 31
0.0
  0
LINE
  5
65
330
17
100
AcDbEntity
  8
CREASE
100
AcDbLine
 10
188.0
 20
694.25
 30
0.0
 11
188.75
 21
703.5
 31
0.0
  0
LINE
  5
66
330
17
100
AcDbEntity
  8
CREASE
100
AcDbLine
 10
82.25
 20
811.5
 30
0.0
 11
82.25
 21
841.75
 31
0.0
  0
LINE
  5
67
330
17
100
AcDbEntity
  8
FOLD
100
AcDbLine
 10
303.5
 20
830.0
 30
0.0
 11
304.5
 21
800.0
 31
0.0
  0
LINE
  5
68
330
17
100
AcDbEntity
  8
CREASE
100
AcDbLine
 10
212.5
 20
780.5
 30
0.0
 11
214.25
 21
732.75
 31
0.0
  0
LINE
  5
69
330
17
100
AcDbEntity
  8
FOLD
100
AcDbLine
 10
208.75
 20
907.75
 30
0.0
 11
210.25
 21
877.5
 31
0.0
  0
LINE
  5
6A
330
17
100
AcDbEntity
  8
CUT
100
AcDbLine
 10
144.0
 20
637.0
 30
0.0
 11
148.25
 21
658.0
 31
0.0
  0
LINE
  5
6B
330
17
100
AcDbEntity
  8
SLOT
100
AcDbLine
 10
185.75
 20
725.25
 30
0.0
 11
185.75
 21
731.0
 31
0.0
  0
LINE
  5
6C
330
17
100
AcDbEntity
  8
SLOT
100
AcDbLine
 10
184.25
 20
609.25
 30
0.0
 11
184.25
 21
616.75
 31
0.0
  0
LINE
  5
6D
330
17
100
AcDbEntity
  8
FOLD
100
AcDbLine
 10
127.5
 20
733.75
 30
0.0
 11
127.5
 21
764.5
 31
0.0
  0
LINE
  5
6E
330
17
100
AcDbEntity
  8
FOLD
100
AcDbLine
 10
81.75
 20
845.75
 30
0.0
 11
81.75
 21
855.5
 31
0.0
  0
LINE
  5
6F
330
17
100
AcDbEntity
  8
FOLD
100
AcDbLine
 10
256.25
 20
819.5
 30
0.0
 11
257.0
 21
791.0
 31
0.0
  0
LINE
  5
70
330
17
100
AcDbEntity
  8
CREASE
100
AcDbLine
 10
150.25
 20
878.5
 30
0.0
 11
157.25
 21
878.5
 31
0.0
  0
LINE
  5
71
330
17
100
AcDbEntity
  8
CREASE
100
AcDbLine
 10
206.5
 20
918.0
 30
0.0
 11
207.0
 21
924.75
 31
0.0
  0
LINE
  5
72
330
17
100
AcDbEntity
  8
SLOT
100
AcDbLine
 10
191.25
 20
798.25
 30
0.0
 11
191.25
 21
803.75
 31
0.0
  0
LINE
  5
73
330
17
100
AcDbEntity
  8
CUT
100
AcDbLine
 10
190.25
 20
838.75
 30
0.0
 11
190.75
 21
852.5
 31
0.0
  0
LINE
  5
74
330
17
100
AcDbEntity
  8
CREASE
100
AcDbLine
 10
105.25
 20
695.75
 30
0.0
 11
105.5
 21
710.0
 31
0.0
  0
LINE
  5
75
330
17
100
AcDbEntity
  8
CREASE
100
AcDbLine
 10
130.0
 20
733.25
 30
0.0
 11
130.5
 21
704.0
 31
0.0
  0
LINE
  5
76
330
17
100
AcDbEntity
  8
BRIDGE
100
AcDbLine
 10
154.5
 20
807.0
 30
0.0
 11
154.75
 21
797.75
 31
0.0
  0
LINE
  5
77
330
17
100
AcDbEntity
  8
SLOT
100
AcDbLine
 10
183.25
 20
726.5
 30
0.0
 11
183.25
 21
720.0
 31
0.0
  0
LINE
  5
78
330
17
100
AcDbEntity
  8
SLOT
100
AcDbLine
 10
192.25
 20
685.25
 30
0.0
 11
192.5
 21
680.0
 31
0.0
  0
LINE
  5
79
330
17
100
AcDbEntity
  8
CUT
100
AcDbLine
 10
89.25
 20
735.25
 30
0.0
 11
124.75
 21
735.25
 31
0.0
  0
LINE
  5
7A
330
17
100
AcDbEntity
  8
CREASE
100
AcDbLine
 10
305.5
 20
806.75
 30
0.0
 11
306.5
 21
775.25
 31
0.0
  0
LINE
  5
7B
330
17
100
AcDbEntity
  8
FOLD
100
AcDbLine
 10
185.0
 20
796.0
 30
0.0
 11
185.0
 21
813.0
 31
0.0
  0
LINE
  5
7C
330
17
100
AcDbEntity
  8
CREASE
100
AcDbLine
 10
128.25
 20
731.75
 30
0.0
 11
128.25
 21
763.5
 31
0.0
  0
LINE
  5
7D
330
17
100
AcDbEntity
  8
FOLD
100
AcDbLine
 10
135.5
 20
956.75
 30
0.0
 11
164.0
 21
955.25
 31
0.0
  0
LINE
  5
7E
330
17
100
AcDbEntity
  8
CREASE
100
AcDbLine
 10
183.25
 20
644.75
 30
0.0
 11
184.75
 21
638.5
 31
0.0
  0
LINE
  5
7F
330
17
100
AcDbEntity
  8
CUT
100
AcDbLine
 10
188.25
 20
658.5
 30
0.0
 11
195.5
 21
645.75
 31
0.0
  0
LINE
  5
80
330
17
100
AcDbEntity
  8
CREASE
100
AcDbLine
 10
191.0
 20
834.75
 30
0.0
 11
191.5
 21
846.75
 31
0.0
  0
LINE
  5
81
330
17
100
AcDbEntity
  8
CUT
100
AcDbLine
 10
156.0
 20
654.25
 30
0.0
 11
160.75
 21
682.0
 31
0.0
  0
LINE
  5
82
330
17
100
AcDbEntity
  8
FOLD
100
AcDbLine
 10
75.5
 20
849.75
 30
0.0
 11
75.5
 21
881.75
 31
0.0
  0
LINE
  5
83
330
17
100
AcDbEntity
  8
CREASE
100
AcDbLine
 10
264.25
 20
845.75
 30
0.0
 11
264.5
 21
832.25
 31
0.0
  0
LINE
  5
84
330
17
100
AcDbEntity
  8
CREASE
100
AcDbLine
 10
206.25
 20
908.5
 30
0.0
 11
207.25
 21
917.5
 31
0.0
  0
LINE
  5
85
330
17
100
AcDbEntity
  8
SLOT
100
AcDbLine
 10
187.25
 20
615.75
 30
0.0
 11
187.25
 21
610.25
 31
0.0
  0
LINE
  5
86
330
17
100
AcDbEntity
  8
CUT
100
AcDbLine
 10
189.75
 20
686.5
 30
0.0
 11
190.25
 21
672.0
 31
0.0
  0
LINE
  5
87
330
17
100
AcDbEntity
  8
FOLD
100
AcDbLine
 10
74.25
 20
846.75
 30
0.0
 11
74.5
 21
831.0
 31
0.0
  0
LINE
  5
88
330
17
100
AcDbEntity
  8
CREASE
100
AcDbLine
 10
176.5
 20
623.0
 30
0.0
 11
177.25
 21
629.0
 31
0.0
  0
LINE
  5
89
330
17
100
AcDbEntity
  8
FOLD
100
AcDbLine
 10
35.25
 20
848.75
 30
0.0
 11
35.5
 21
872.5
 31
0.0
  0
LINE
  5
8A
330
17
100
AcDbEntity
  8
SLOT
100
AcDbLine
 10
177.5
 20
688.75
 30
0.0
 11
178.75
 21
683.5
 31
0.0
  0
LINE
  5
8B
330
17
100
AcDbEntity
  8
CREASE
100
AcDbLine
 10
117.0
 20
646.5
 30
0.0
 11
125.0
 21
653.0
 31
0.0
  0
LINE
  5
8C
330
17
100
AcDbEntity
  8
CREASE
100
AcDbLine
 10
170.5
 20
697.0
 30
0.0
 11
171.5
 21
705.5
 31
0.0
  0
LINE
  5
8D
330
17
100
AcDbEntity
  8
CREASE
100
AcDbLine
 10
180.5
 20
796.25
 30
0.0
 11
182.25
 21
805.0
 31
0.0
  0
LINE
  5
8E
330
17
100
AcDbEntity
  8
FOLD
100
AcDbLine
 10
81.0
 20
798.75
 30
0.0
 11
81.0
 21
805.75
 31
0.0
  0
LINE
  5
8F
330
17
100
AcDbEntity
  8
CREASE
100
AcDbLine
 10
153.75
 20
654.25
 30
0.0
 11
155.25
 21
663.5
 31
0.0
  0
LINE
  5
90
330
17
100
AcDbEntity
  8
SLOT
100
AcDbLine
 10
188.0
 20
697.5
 30
0.0
 11
188.25
 21
703.5
 31
0.0
  0
LINE
  5
91
330
17
100
AcDbEntity
  8
SLOT
100
AcDbLine
 10
182.25
 20
720.75
 30
0.0
 11
182.25
 21
725.75
 31
0.0
  0
LINE
  5
92
330
17
100
AcDbEntity
  8
CREASE
100
AcDbLine
 10
180.25
 20
670.25
 30
0.0
 11
180.5
 21
680.0
 31
0.0
  0
LINE
  5
93
330
17
100
AcDbEntity
  8
CUT
100
AcDbLine
 10
99.0
 20
772.5
 30
0.0
 11
123.25
 21
772.5
 31
0.0
  0
LINE
  5
94
330
17
100
AcDbEntity
  8
CREASE
100
AcDbLine
 10
187.75
 20
690.5
 30
0.0
 11
188.0
 21
682.0
 31
0.0
  0
LINE
  5
95
330
17
100
AcDbEntity
  8
CUT
100
AcDbLine
 10
153.75
 20
670.0
 30
0.0
 11
173.5
 21
689.75
 31
0.0
  0
LINE
  5
96
330
17
100
AcDbEntity
  8
FOLD
100
AcDbLine
 10
87.25
 20
883.0
 30
0.0
 11
135.75
 21
878.75
 31
0.0
  0
LINE
  5
97
330
17
100
AcDbEntity
  8
CREASE
100
AcDbLine
 10
128.75
 20
879.0
 30
0.0
 11
128.75
 21
914.0
 31
0.0
  0
LINE
  5
98
330
17
100
AcDbEntity
  8
CREASE
100
AcDbLine
 10
166.25
 20
684.25
 30
0.0
 11
172.5
 21
690.5
 31
0.0
  0
LINE
  5
99
330
17
100
AcDbEntity
  8
CREASE
100
AcDbLine
 10
183.75
 20
726.75
 30
0.0
 11
184.25
 21
719.25
 31
0.0
  0
LINE
  5
9A
330
17
100
AcDbEntity
  8
FOLD
100
AcDbLine
 10
74.0
 20
919.75
 30
0.0
 11
122.5
 21
914.5
 31
0.0
  0
LINE
  5
9B
330
17
100
AcDbEntity
  8
CREASE
100
AcDbLine
 10
174.0
 20
734.25
 30
0.0
 11
190.0
 21
734.75
 31
0.0
  0
LINE
  5
9C
330
17
100
AcDbEntity
  8
CREASE
100
AcDbLine
 10
123.25
 20
649.75
 30
0.0
 11
128.25
 21
655.0
 31
0.0
  0
LINE
  5
9D
330
17
100
AcDbEntity
  8
CREASE
100
AcDbLine
 10
128.5
 20
955.75
 30
0.0
 11
152.0
 21
955.0
 31
0.0
  0
LINE
  5
9E
330
17
100
AcDbEntity
  8
CREASE
100
AcDbLine
 10
208.0
 20
917.5
 30
0.0
 11
208.25
 21
941.75
 31
0.0
  0
LINE
  5
9F
330
17
100
AcDbEntity
  8
SLOT
100
AcDbLine
 10
166.5
 20
699.75
 30
0.0
 11
167.25
 21
706.25
 31
0.0
  0
LINE
  5
A0
330
17
100
AcDbEntity
  8
CREASE
100
AcDbLine
 10
155.0
 20
735.0
 30
0.0
 11
168.0
 21
735.0
 31
0.0
  0
LINE
  5
A1
330
17
100
AcDbEntity
  8
FOLD
100
AcDbLine
 10
122.0
 20
813.75
 30
0.0
 11
122.0
 21
832.5
 31
0.0
  0
LINE
  5
A2
330
17
100
AcDbEntity
  8
FOLD
100
AcDbLine
 10
81.5
 20
836.0
 30
0.0
 11
81.5
 21
825.25
 31
0.0
  0
LINE
  5
A3
330
17
100
AcDbEntity
  8
CREASE
100
AcDbLine
 10
201.25
 20
691.0
 30
0.0
 11
203.25
 21
698.25
 31
0.0
  0
LINE
  5
A4
330
17
100
AcDbEntity
  8
CUT
100
AcDbLine
 10
182.75
 20
796.5
 30
0.0
 11
183.0
 21
813.0
 31
0.0
  0
LINE
  5
A5
330
17
100
AcDbEntity
  8
CREASE
100
AcDbLine
 10
71.0
 20
753.75
 30
0.0
 11
78.75
 21
746.0
 31
0.0
  0
LINE
  5
A6
330
17
100
AcDbEntity
  8
CREASE
100
AcDbLine
 10
180.25
 20
645.25
 30
0.0
 11
180.5
 21
656.5
 31
0.0
  0
LINE
  5
A7
330
17
100
AcDbEntity
  8
CUT
100
AcDbLine
 10
185.25
 20
638.25
 30
0.0
 11
185.5
 21
661.5
 31
0.0
  0
LINE
  5
A8
330
17
100
AcDbEntity
  8
CREASE
100
AcDbLine
 10
186.0
 20
725.25
 30
0.0
 11
186.0
 21
730.5
 31
0.0
  0
LINE
  5
A9
330
17
100
AcDbEntity
  8
CREASE
100
AcDbLine
 10
184.5
 20
619.5
 30
0.0
 11
185.0
 21
609.25
 31
0.0
  0
LINE
  5
AA
330
17
100
AcDbEntity
  8
CREASE
100
AcDbLine
 10
162.75
 20
680.25
 30
0.0
 11
164.0
 21
688.25
 31
0.0
  0
LINE
  5
AB
330
17
100
AcDbEntity
  8
FOLD
100
AcDbLine
 10
237.75
 20
716.75
 30
0.0
 11
238.75
 21
664.5
 31
0.0
  0
LINE
  5
AC
330
17
100
AcDbEntity
  8
CUT
100
AcDbLine
 10
185.75
 20
637.75
 30
0.0
 11
185.75
 21
654.5
 31
0.0
  0
LINE
  5
AD
330
17
100
AcDbEntity
  8
CREASE
100
AcDbLine
 10
245.75
 20
780.25
 30
0.0
 11
258.0
 21
780.5
 31
0.0
  0
LINE
  5
AE
330
17
100
AcDbEntity
  8
CREASE
100
AcDbLine
 10
181.75
 20
796.25
 30
0.0
 11
182.5
 21
805.0
 31
0.0
  0
LINE
  5
AF
330
17
100
AcDbEntity
  8
CUT
100
AcDbLine
 10
169.75
 20
690.25
 30
0.0
 11
180.75
 21
700.5
 31
0.0
  0
LINE
  5
B0
330
17
100
AcDbEntity
  8
FOLD
100
AcDbLine
 10
162.75
 20
711.0
 30
0.0
 11
164.0
 21
719.5
 31
0.0
  0
LINE
  5
B1
330
17
100
AcDbEntity
  8
CUT
100
AcDbLine
 10
149.25
 20
672.75
 30
0.0
 11
160.5
 21
681.5
 31
0.0
  0
LINE
  5
B2
330
17
100
AcDbEntity
  8
CUT
100
AcDbLine
 10
114.0
 20
631.25
 30
0.0
 11
123.0
 21
640.25
 31
0.0
  0
LINE
  5
B3
330
17
100
AcDbEntity
  8
CREASE
100
AcDbLine
 10
208.25
 20
948.25
 30
0.0
 11
208.75
 21
954.5
 31
0.0
  0
LINE
  5
B4
330
17
100
AcDbEntity
  8
CREASE
100
AcDbLine
 10
256.25
 20
914.25
 30
0.0
 11
274.0
 21
915.5
 31
0.0
  0
LINE
  5
B5
330
17
100
AcDbEntity
  8
CREASE
100
AcDbLine
 10
141.75
 20
660.75
 30
0.0
 11
147.75
 21
666.75
 31
0.0
  0
LINE
  5
B6
330
17
100
AcDbEntity
  8
CREASE
100
AcDbLine
 10
189.25
 20
690.25
 30
0.0
 11
189.5
 21
699.0
 31
0.0
  0
LINE
  5
B7
330
17
100
AcDbEntity
  8
CUT
100
AcDbLine
 10
171.0
 20
665.0
 30
0.0
 11
174.75
 21
688.0
 31
0.0
  0
LINE
  5
B8
330
17
100
AcDbEntity
  8
FOLD
100
AcDbLine
 10
224.25
 20
780.75
 30
0.0
 11
258.0
 21
781.25
 31
0.0
  0
LINE
  5
B9
330
17
100
AcDbEntity
  8
FOLD
100
AcDbLine
 10
177.5
 20
845.25
 30
0.0
 11
178.0
 21
833.75
 31
0.0
  0
LINE
  5
BA
330
17
100
AcDbEntity
  8
CREASE
100
AcDbLine
 10
179.75
 20
796.25
 30
0.0
 11
180.75
 21
804.75
 31
0.0
  0
LINE
  5
BB
330
17
100
AcDbEntity
  8
CREASE
100
AcDbLine
 10
180.25
 20
713.75
 30
0.0
 11
180.5
 21
722.75
 31
0.0
  0
LINE
  5
BC
330
17
100
AcDbEntity
  8
CUT
100
AcDbLine
 10
141.75
 20
683.5
 30
0.0
 11
172.75
 21
652.5
 31
0.0
  0
LINE
  5
BD
330
17
100
AcDbEntity
  8
CREASE
100
AcDbLine
 10
171.5
 20
714.0
 30
0.0
 11
172.5
 21
723.0
 31
0.0
  0
LINE
  5
BE
330
17
100
AcDbEntity
  8
CUT
100
AcDbLine
 10
191.75
 20
699.75
 30
0.0
 11
197.5
 21
717.0
 31
0.0
  0
LINE
  5
BF
330
17
100
AcDbEntity
  8
CUT
100
AcDbLine
 10
178.75
 20
636.5
 30
0.0
 11
180.25
 21
664.0
 31
0.0
  0
LINE
  5
C0
330
17
100
AcDbEntity
  8
CREASE
100
AcDbLine
 10
183.75
 20
796.0
 30
0.0
 11
184.5
 21
813.0
 31
0.0
  0
LINE
  5
C1
330
17
100
AcDbEntity
  8
CREASE
100
AcDbLine
 10
190.5
 20
638.5
 30
0.0
 11
190.5
 21
643.5
 31
0.0
  0
LINE
  5
C2
330
17
100
AcDbEntity
  8
CUT
100
AcDbLine
 10
177.0
 20
671.25
 30
0.0
 11
198.25
 21
689.75
 31
0.0
  0
LINE
  5
C3
330
17
100
AcDbEntity
  8
CREASE
100
AcDbLine
 10
75.25
 20
820.0
 30
0.0
 11
75.25
 21
840.0
 31
0.0
  0
LINE
  5
C4
330
17
100
AcDbEntity
  8
CUT
100
AcDbLine
 10
178.0
 20
772.75
 30
0.0
 11
192.0
 21
772.75
 31
0.0
  0
LINE
  5
C5
330
17
100
AcDbEntity
  8
CREASE
100
AcDbLine
 10
130.5
 20
648.5
 30
0.0
 11
136.75
 21
654.75
 31
0.0
  0
LINE
  5
C6
330
17
100
AcDbEntity
  8
CUT
100
AcDbLine
 10
114.5
 20
630.25
 30
0.0
 11
128.5
 21
644.25
 31
0.0
  0
LINE
  5
C7
330
17
100
AcDbEntity
  8
FOLD
100
AcDbLine
 10
128.0
 20
772.25
 30
0.0
 11
152.25
 21
772.75
 31
0.0
  0
LINE
  5
C8
330
17
100
AcDbEntity
  8
FOLD
100
AcDbLine
 10
176.5
 20
845.75
 30
0.0
 11
177.0
 21
835.5
 31
0.0
  0
LINE
  5
C9
330
17
100
AcDbEntity
  8
CREASE
100
AcDbLine
 10
186.5
 20
700.0
 30
0.0
 11
186.75
 21
694.25
 31
0.0
  0
LINE
  5
CA
330
17
100
AcDbEntity
  8
CREASE
100
AcDbLine
 10
179.5
 20
714.0
 30
0.0
 11
180.25
 21
722.75
 31
0.0
  0
LINE
  5
CB
330
17
100
AcDbEntity
  8
CREASE
100
AcDbLine
 10
180.5
 20
624.0
 30
0.0
 11
181.5
 21
617.0
 31
0.0
  0
LINE
  5
CC
330
17
100
AcDbEntity
  8
CREASE
100
AcDbLine
 10
184.0
 20
719.5
 30
0.0
 11
188.0
 21
727.75
 31
0.0
  0
LINE
  5
CD
330
17
100
AcDbEntity
  8
CREASE
100
AcDbLine
 10
190.75
 20
646.5
 30
0.0
 11
190.75
 21
656.0
 31
0.0
  0
LINE
  5
CE
330
17
100
AcDbEntity
  8
SLOT
100
AcDbLine
 10
195.75
 20
843.75
 30
0.0
 11
196.25
 21
849.75
 31
0.0
  0
LINE
  5
CF
330
17
100
AcDbEntity
  8
CREASE
100
AcDbLine
 10
145.0
 20
850.25
 30
0.0
 11
146.25
 21
842.5
 31
0.0
  0
LINE
  5
D0
330
17
100
AcDbEntity
  8
SLOT
100
AcDbLine
 10
197.75
 20
848.75
 30
0.0
 11
198.25
 21
854.25
 31
0.0
  0
LINE
  5
D1
330
17
100
AcDbEntity
  8
CREASE
100
AcDbLine
 10
219.5
 20
782.0
 30
0.0
 11
219.75
 21
776.25
 31
0.0
  0
LINE
  5
D2
330
17
100
AcDbEntity
  8
FOLD
100
AcDbLine
 10
68.5
 20
774.5
 30
0.0
 11
74.25
 21
774.5
 31
0.0
  0
LINE
  5
D3
330
17
100
AcDbEntity
  8
CUT
100
AcDbLine
 10
186.25
 20
637.5
 30
0.0
 11
187.5
 21
663.5
 31
0.0
  0
LINE
  5
D4
330
17
100
AcDbEntity
  8
CREASE
100
AcDbLine
 10
158.25
 20
629.25
 30
0.0
 11
159.25
 21
637.25
 31
0.0
  0
LINE
  5
D5
330
17
100
AcDbEntity
  8
CREASE
100
AcDbLine
 10
72.5
 20
918.75
 30
0.0
 11
93.0
 21
916.5
 31
0.0
  0
LINE
  5
D6
330
17
100
AcDbEntity
  8
CREASE
100
AcDbLine
 10
192.5
 20
954.75
 30
0.0
 11
209.0
 21
954.75
 31
0.0
  0
LINE
  5
D7
330
17
100
AcDbEntity
  8
CREASE
100
AcDbLine
 10
156.75
 20
841.75
 30
0.0
 11
157.25
 21
852.0
 31
0.0
  0
LINE
  5
D8
330
17
100
AcDbEntity
  8
CUT
100
AcDbLine
 10
180.0
 20
796.25
 30
0.0
 11
181.5
 21
808.75
 31
0.0
  0
LINE
  5
D9
330
17
100
AcDbEntity
  8
CUT
100
AcDbLine
 10
171.25
 20
693.75
 30
0.0
 11
172.0
 21
706.25
 31
0.0
  0
LINE
  5
DA
330
17
100
AcDbEntity
  8
CREASE
100
AcDbLine
 10
239.0
 20
716.25
 30
0.0
 11
239.25
 21
693.75
 31
0.0
  0
LINE
  5
DB
330
17
100
AcDbEntity
  8
CREASE
100
AcDbLine
 10
208.75
 20
910.75
 30
0.0
 11
216.5
 21
911.5
 31
0.0
  0
LINE
  5
DC
330
17
100
AcDbEntity
  8
CUT
100
AcDbLine
 10
178.0
 20
722.5
 30
0.0
 11
184.5
 21
709.75
 31
0.0
  0
LINE
  5
DD
330
17
100
AcDbEntity
  8
CREASE
100
AcDbLine
 10
34.75
 20
781.5
 30
0.0
 11
35.5
 21
809.75
 31
0.0
  0
LINE
  5
DE
330
17
100
AcDbEntity
  8
CREASE
100
AcDbLine
 10
156.75
 20
654.25
 30
0.0
 11
166.0
 21
662.25
 31
0.0
  0
LINE
  5
DF
330
17
100
AcDbEntity
  8
CREASE
100
AcDbLine
 10
180.75
 20
654.5
 30
0.0
 11
185.5
 21
644.25
 31
0.0
  0
LINE
  5
E0
330
17
100
AcDbEntity
  8
CUT
100
AcDbLine
 10
156.5
 20
654.25
 30
0.0
 11
161.0
 21
682.0
 31
0.0
  0
LINE
  5
E1
330
17
100
AcDbEntity
  8
SLOT
100
AcDbLine
 10
192.75
 20
685.5
 30
0.0
 11
193.0
 21
680.0
 31
0.0
  0
LINE
  5
E2
330
17
100
AcDbEntity
  8
CREASE
100
AcDbLine
 10
160.75
 20
694.0
 30
0.0
 11
165.5
 21
702.0
 31
0.0
  0
LINE
  5
E3
330
17
100
AcDbEntity
  8
FOLD
100
AcDbLine
 10
178.5
 20
642.0
 30
0.0
 11
179.75
 21
659.25
 31
0.0
  0
LINE
  5
E4
330
17
100
AcDbEntity
  8
SLOT
100
AcDbLine
 10
164.5
 20
673.5
 30
0.0
 11
165.25
 21
680.75
 31
0.0
  0
LINE
  5
E5
330
17
100
AcDbEntity
  8
CREASE
100
AcDbLine
 10
166.5
 20
688.5
 30
0.0
 11
170.0
 21
681.0
 31
0.0
  0
LINE
  5
E6
330
17
100
AcDbEntity
  8
CREASE
100
AcDbLine
 10
82.5
 20
780.25
 30
0.0
 11
82.5
 21
789.5
 31
0.0
  0
LINE
  5
E7
330
17
100
AcDbEntity
  8
SLOT
100
AcDbLine
 10
190.75
 20
714.0
 30
0.0
 11
191.25
 21
706.75
 31
0.0
  0
LINE
  5
E8
330
17
100
AcDbEntity
  8
FOLD
100
AcDbLine
 10
255.25
 20
854.75
 30
0.0
 11
255.5
 21
841.0
 31
0.0
  0
LINE
  5
E9
330
17
100
AcDbEntity
  8
CREASE
100
AcDbLine
 10
196.25
 20
667.0
 30
0.0
 11
198.5
 21
675.0
 31
0.0
  0
LINE
  5
EA
330
17
100
AcDbEntity
  8
CREASE
100
AcDbLine
 10
177.75
 20
656.25
 30
0.0
 11
178.25
 21
661.25
 31
0.0
  0
LINE
  5
EB
330
17
100
AcDbEntity
  8
CREASE
100
AcDbLine
 10
166.5
 20
686.5
 30
0.0
 11
168.0
 21
675.25
 31
0.0
  0
LINE
  5
EC
330
17
100
AcDbEntity
  8
CREASE
100
AcDbLine
 10
185.0
 20
669.25
 30
0.0
 11
187.0
 21
659.25
 31
0.0
  0
LINE
  5
ED
330
17
100
AcDbEntity
  8
CUT
100
AcDbLine
 10
163.25
 20
704.25
 30
0.0
 11
174.75
 21
715.75
 31
0.0
  0
LINE
  5
EE
330
17
100
AcDbEntity
  8
CREASE
100
AcDbLine
 10
98.0
 20
996.0
 30
0.0
 11
104.0
 21
999.25
 31
0.0
  0
LINE
  5
EF
330
17
100
AcDbEntity
  8
CREASE
100
AcDbLine
 10
168.5
 20
686.0
 30
0.0
 11
169.25
 21
677.5
 31
0.0
  0
LINE
  5
F0
330
17
100
AcDbEntity
  8
CREASE
100
AcDbLine
 10
144.75
 20
634.0
 30
0.0
 11
146.75
 21
644.5
 31
0.0
  0
LINE
  5
F1
330
17
100
AcDbEntity
  8
CREASE
100
AcDbLine
 10
191.25
 20
655.0
 30
0.0
 11
191.5
 21
644.25
 31
0.0
  0
LINE
  5
F2
330
17
100
AcDbEntity
  8
CREASE
100
AcDbLine
 10
122.75
 20
914.25
 30
0.0
 11
152.75
 21
913.75
 31
0.0
  0
LINE
  5
F3
330
17
100
AcDbEntity
  8
CREASE
100
AcDbLine
 10
95.5
 20
881.5
 30
0.0
 11
112.0
 21
879.5
 31
0.0
  0
LINE
  5
F4
330
17
100
AcDbEntity
  8
CUT
100
AcDbLine
 10
212.0
 20
651.25
 30
0.0
 11
213.0
 21
630.0
 31
0.0
  0
LINE
  5
F5
330
17
100
AcDbEntity
  8
CREASE
100
AcDbLine
 10
172.5
 20
714.0
 30
0.0
 11
173.25
 21
721.0
 31
0.0
  0
LINE
  5
F6
330
17
100
AcDbEntity
  8
CREASE
100
AcDbLine
 10
210.25
 20
895.0
 30
0.0
 11
210.5
 21
884.75
 31
0.0
  0
LINE
  5
F7
330
17
100
AcDbEntity
  8
CREASE
100
AcDbLine
 10
104.5
 20
639.75
 30
0.0
 11
104.5
 21
668.25
 31
0.0
  0
LINE
  5
F8
330
17
100
AcDbEntity
  8
CREASE
100
AcDbLine
 10
143.5
 20
639.75
 30
0.0
 11
145.25
 21
647.75
 31
0.0
  0
LINE
  5
F9
330
17
100
AcDbEntity
  8
SLOT
100
AcDbLine
 10
197.0
 20
844.25
 30
0.0
 11
197.75
 21
851.0
 31
0.0
  0
LINE
  5
FA
330
17
100
AcDbEntity
  8
CREASE
100
AcDbLine
 10
164.0
 20
707.75
 30
0.0
 11
167.75
 21
701.0
 31
0.0
  0
LINE
  5
FB
330
17
100
AcDbEntity
  8
CUT
100
AcDbLine
 10
124.75
 20
653.0
 30
0.0
 11
132.75
 21
661.0
 31
0.0
  0
LINE
  5
FC
330
17
100
AcDbEntity
  8
CREASE
100
AcDbLine
 10
154.0
 20
842.5
 30
0.0
 11
154.0
 21
852.25
 31
0.0
  0
LINE
  5
FD
330
17
100
AcDbEntity
  8
CREASE
100
AcDbLine
 10
154.75
 20
668.0
 30
0.0
 11
159.75
 21
678.0
 31
0.0
  0
LINE
  5
FE
330
17
100
AcDbEntity
  8
CUT
100
AcDbLine
 10
147.0
 20
675.5
 30
0.0
 11
153.25
 21
682.25
 31
0.0
  0
LINE
  5
FF
330
17
100
AcDbEntity
  8
CREASE
100
AcDbLine
 10
82.75
 20
871.75
 30
0.0
 11
117.5
 21
870.0
 31
0.0
  0
LINE
  5
100
330
17
100
AcDbEntity
  8
CREASE
100
AcDbLine
 10
187.75
 20
662.75
 30
0.0
 11
188.5
 21
650.0
 31
0.0
  0
LINE
  5
101
330
17
100
AcDbEntity
  8
SLOT
100
AcDbLine
 10
178.75
 20
716.25
 30
0.0
 11
179.5
 21
722.75
 31
0.0
  0
LINE
  5
102
330
17
100
AcDbEntity
  8
CREASE
100
AcDbLine
 10
166.5
 20
659.75
 30
0.0
 11
167.25
 21
669.75
 31
0.0
  0
LINE
  5
103
330
17
100
AcDbEntity
  8
FOLD
100
AcDbLine
 10
159.5
 20
646.25
 30
0.0
 11
165.0
 21
635.0
 31
0.0
  0
LINE
  5
104
330
17
100
AcDbEntity
  8
CREASE
100
AcDbLine
 10
186.0
 20
644.0
 30
0.0
 11
190.5
 21
635.25
 31
0.0
  0
LINE
  5
105
330
17
100
AcDbEntity
  8
CREASE
100
AcDbLine
 10
140.25
 20
689.25
 30
0.0
 11
144.75
 21
678.5
 31
0.0
  0
LINE
  5
106
330
17
100
AcDbEntity
  8
CUT
100
AcDbLine
 10
169.5
 20
695.25
 30
0.0
 11
180.0
 21
673.5
 31
0.0
  0
LINE
  5
107
330
17
100
AcDbEntity
  8
CREASE
100
AcDbLine
 10
122.25
 20
786.0
 30
0.0
 11
122.25
 21
807.5
 31
0.0
  0
LINE
  5
108
330
17
100
AcDbEntity
  8
FOLD
100
AcDbLine
 10
201.75
 20
877.75
 30
0.0
 11
209.25
 21
877.75
 31
0.0
  0
LINE
  5
109
330
17
100
AcDbEntity
  8
CREASE
100
AcDbLine
 10
185.75
 20
698.5
 30
0.0
 11
186.0
 21
693.0
 31
0.0
  0
LINE
  5
10A
330
17
100
AcDbEntity
  8
CREASE
100
AcDbLine
 10
255.0
 20
870.0
 30
0.0
 11
260.0
 21
878.75
 31
0.0
  0
LINE
  5
10B
330
17
100
AcDbEntity
  8
FOLD
100
AcDbLine
 10
191.25
 20
634.25
 30
0.0
 11
192.25
 21
653.5
 31
0.0
  0
LINE
  5
10C
330
17
100
AcDbEntity
  8
CUT
100
AcDbLine
 10
162.0
 20
674.0
 30
0.0
 11
180.25
 21
692.25
 31
0.0
  0
LINE
  5
10D
330
17
100
AcDbEntity
  8
CREASE
100
AcDbLine
 10
130.75
 20
934.25
 30
0.0
 11
131.0
 21
927.75
 31
0.0
  0
LINE
  5
10E
330
17
100
AcDbEntity
  8
CREASE
100
AcDbLine
 10
256.25
 20
847.75
 30
0.0
 11
257.0
 21
821.0
 31
0.0
  0
LINE
  5
10F
330
17
100
AcDbEntity
  8
SLOT
100
AcDbLine
 10
174.0
 20
850.25
 30
0.0
 11
174.25
 21
844.75
 31
0.0
  0
LINE
  5
110
330
17
100
AcDbEntity
  8
CREASE
100
AcDbLine
 10
150.25
 20
669.5
 30
0.0
 11
158.75
 21
678.0
 31
0.0
  0
LINE
  5
111
330
17
100
AcDbEntity
  8
SLOT
100
AcDbLine
 10
151.5
 20
659.75
 30
0.0
 11
154.5
 21
654.25
 31
0.0
  0
LINE
  5
112
330
17
100
AcDbEntity
  8
SLOT
100
AcDbLine
 10
179.25
 20
623.0
 30
0.0
 11
179.25
 21
628.0
 31
0.0
  0
LINE
  5
113
330
17
100
AcDbEntity
  8
FOLD
100
AcDbLine
 10
282.25
 20
775.75
 30
0.0
 11
305.5
 21
776.75
 31
0.0
  0
LINE
  5
114
330
17
100
AcDbEntity
  8
CREASE
100
AcDbLine
 10
141.75
 20
844.0
 30
0.0
 11
142.5
 21
834.5
 31
0.0
  0
LINE
  5
115
330
17
100
AcDbEntity
  8
CREASE
100
AcDbLine
 10
68.5
 20
977.25
 30
0.0
 11
88.0
 21
990.75
 31
0.0
  0
LINE
  5
116
330
17
100
AcDbEntity
  8
FOLD
100
AcDbLine
 10
129.5
 20
724.5
 30
0.0
 11
129.5
 21
717.5
 31
0.0
  0
LINE
  5
117
330
17
100
AcDbEntity
  8
CUT
100
AcDbLine
 10
130.25
 20
702.5
 30
0.0
 11
131.0
 21
657.75
 31
0.0
  0
LINE
  5
118
330
17
100
AcDbEntity
  8
FOLD
100
AcDbLine
 10
103.75
 20
674.25
 30
0.0
 11
104.0
 21
702.5
 31
0.0
  0
LINE
  5
119
330
17
100
AcDbEntity
  8
CUT
100
AcDbLine
 10
115.75
 20
637.75
 30
0.0
 11
128.5
 21
645.5
 31
0.0
  0
LINE
  5
11A
330
17
100
AcDbEntity
  8
SLOT
100
AcDbLine
 10
194.0
 20
713.5
 30
0.0
 11
194.0
 21
707.0
 31
0.0
  0
LINE
  5
11B
330
17
100
AcDbEntity
  8
SLOT
100
AcDbLine
 10
158.0
 20
636.0
 30
0.0
 11
158.5
 21
629.25
 31
0.0
  0
LINE
  5
11C
330
17
100
AcDbEntity
  8
CREASE
100
AcDbLine
 10
278.0
 20
775.0
 30
0.0
 11
284.5
 21
775.0
 31
0.0
  0
LINE
  5
11D
330
17
100
AcDbEntity
  8
SLOT
100
AcDbLine
 10
189.5
 20
646.0
 30
0.0
 11
189.75
 21
639.5
 31
0.0
  0
LINE
  5
11E
330
17
100
AcDbEntity
  8
CUT
100
AcDbLine
 10
186.0
 20
645.25
 30
0.0
 11
186.5
 21
663.25
 31
0.0
  0
LINE
  5
11F
330
17
100
AcDbEntity
  8
FOLD
100
AcDbLine
 10
104.25
 20
780.75
 30
0.0
 11
121.5
 21
780.25
 31
0.0
  0
LINE
  5
120
330
17
100
AcDbEntity
  8
CREASE
100
AcDbLine
 10
163.0
 20
657.0
 30
0.0
 11
164.5
 21
669.0
 31
0.0
  0
LINE
  5
121
330
17
100
AcDbEntity
  8
CREASE
100
AcDbLine
 10
188.75
 20
694.5
 30
0.0
 11
189.0
 21
703.25
 31
0.0
  0
LINE
  5
122
330
17
100
AcDbEntity
  8
CREASE
100
AcDbLine
 10
169.75
 20
690.5
 30
0.0
 11
173.25
 21
697.5
 31
0.0
  0
LINE
  5
123
330
17
100
AcDbEntity
  8
SLOT
100
AcDbLine
 10
169.25
 20
637.75
 30
0.0
 11
171.25
 21
632.5
 31
0.0
  0
LINE
  5
124
330
17
100
AcDbEntity
  8
CREASE
100
AcDbLine
 10
168.25
 20
637.0
 30
0.0
 11
170.25
 21
632.0
 31
0.0
  0
LINE
  5
125
330
17
100
AcDbEntity
  8
CUT
100
AcDbLine
 10
180.5
 20
643.25
 30
0.0
 11
183.0
 21
659.25
 31
0.0
  0
LINE
  5
126
330
17
100
AcDbEntity
  8
CREASE
100
AcDbLine
 10
178.5
 20
670.5
 30
0.0
 11
178.75
 21
679.75
 31
0.0
  0
LINE
  5
127
330
17
100
AcDbEntity
  8
CREASE
100
AcDbLine
 10
192.25
 20
711.5
 30
0.0
 11
192.5
 21
703.5
 31
0.0
  0
LINE
  5
128
330
17
100
AcDbEntity
  8
CREASE
100
AcDbLine
 10
189.0
 20
671.5
 30
0.0
 11
192.75
 21
660.75
 31
0.0
  0
LINE
  5
129
330
17
100
AcDbEntity
  8
CUT
100
AcDbLine
 10
110.25
 20
776.5
 30
0.0
 11
122.75
 21
776.0
 31
0.0
  0
LINE
  5
12A
330
17
100
AcDbEntity
  8
CUT
100
AcDbLine
 10
151.25
 20
698.75
 30
0.0
 11
156.5
 21
683.75
 31
0.0
  0
LINE
  5
12B
330
17
100
AcDbEntity
  8
CUT
100
AcDbLine
 10
145.75
 20
634.75
 30
0.0
 11
153.5
 21
642.5
 31
0.0
  0
LINE
  5
12C
330
17
100
AcDbEntity
  8
SLOT
100
AcDbLine
 10
190.75
 20
665.75
 30
0.0
 11
194.0
 21
660.25
 31
0.0
  0
LINE
  5
12D
330
17
100
AcDbEntity
  8
CREASE
100
AcDbLine
 10
139.75
 20
677.5
 30
0.0
 11
143.0
 21
668.5
 31
0.0
  0
LINE
  5
12E
330
17
100
AcDbEntity
  8
FOLD
100
AcDbLine
 10
190.25
 20
623.0
 30
0.0
 11
213.25
 21
622.75
 31
0.0
  0
LINE
  5
12F
330
17
100
AcDbEntity
  8
CREASE
100
AcDbLine
 10
164.25
 20
679.75
 30
0.0
 11
165.25
 21
688.25
 31
0.0
  0
LINE
  5
130
330
17
100
AcDbEntity
  8
CUT
100
AcDbLine
 10
169.25
 20
696.75
 30
0.0
 11
183.25
 21
671.25
 31
0.0
  0
LINE
  5
131
330
17
100
AcDbEntity
  8
CREASE
100
AcDbLine
 10
239.75
 20
682.5
 30
0.0
 11
240.25
 21
652.75
 31
0.0
  0
LINE
  5
132
330
17
100
AcDbEntity
  8
CREASE
100
AcDbLine
 10
153.25
 20
668.25
 30
0.0
 11
156.0
 21
677.75
 31
0.0
  0
LINE
  5
133
330
17
100
AcDbEntity
  8
FOLD
100
AcDbLine
 10
263.75
 20
915.75
 30
0.0
 11
279.75
 21
917.25
 31
0.0
  0
LINE
  5
134
330
17
100
AcDbEntity
  8
CREASE
100
AcDbLine
 10
194.0
 20
695.75
 30
0.0
 11
194.25
 21
685.75
 31
0.0
  0
LINE
  5
135
330
17
100
AcDbEntity
  8
SLOT
100
AcDbLine
 10
186.0
 20
676.75
 30
0.0
 11
186.25
 21
682.0
 31
0.0
  0
LINE
  5
136
330
17
100
AcDbEntity
  8
CREASE
100
AcDbLine
 10
190.25
 20
703.0
 30
0.0
 11
190.75
 21
692.0
 31
0.0
  0
LINE
  5
137
330
17
100
AcDbEntity
  8
CUT
100
AcDbLine
 10
142.75
 20
695.75
 30
0.0
 11
155.0
 21
668.0
 31
0.0
  0
LINE
  5
138
330
17
100
AcDbEntity
  8
SLOT
100
AcDbLine
 10
167.25
 20
630.75
 30
0.0
 11
167.75
 21
637.0
 31
0.0
  0
LINE
  5
139
330
17
100
AcDbEntity
  8
CUT
100
AcDbLine
 10
53.75
 20
774.0
 30
0.0
 11
67.25
 21
774.0
 31
0.0
  0
LINE
  5
13A
330
17
100
AcDbEntity
  8
FOLD
100
AcDbLine
 10
129.75
 20
923.25
 30
0.0
 11
130.0
 21
914.5
 31
0.0
  0
LINE
  5
13B
330
17
100
AcDbEntity
  8
FOLD
100
AcDbLine
 10
48.0
 20
745.25
 30
0.0
 11
48.75
 21
766.75
 31
0.0
  0
LINE
  5
13C
330
17
100
AcDbEntity
  8
CREASE
100
AcDbLine
 10
154.75
 20
654.25
 30
0.0
 11
156.5
 21
665.0
 31
0.0
  0
LINE
  5
13D
330
17
100
AcDbEntity
  8
SLOT
100
AcDbLine
 10
185.0
 20
691.25
 30
0.0
 11
185.0
 21
696.75
 31
0.0
  0
LINE
  5
13E
330
17
100
AcDbEntity
  8
SLOT
100
AcDbLine
 10
141.0
 20
668.75
 30
0.0
 11
146.25
 21
674.0
 31
0.0
  0
LINE
  5
13F
330
17
100
AcDbEntity
  8
CREASE
100
AcDbLine
 10
142.5
 20
846.5
 30
0.0
 11
144.25
 21
835.25
 31
0.0
  0
LINE
  5
140
330
17
100
AcDbEntity
  8
CREASE
100
AcDbLine
 10
81.0
 20
876.25
 30
0.0
 11
83.25
 21
868.75
 31
0.0
  0
LINE
  5
141
330
17
100
AcDbEntity
  8
SLOT
100
AcDbLine
 10
148.5
 20
644.75
 30
0.0
 11
148.5
 21
651.25
 31
0.0
  0
LINE
  5
142
330
17
100
AcDbEntity
  8
CUT
100
AcDbLine
 10
185.5
 20
669.5
 30
0.0
 11
189.75
 21
657.5
 31
0.0
  0
LINE
  5
143
330
17
100
AcDbEntity
  8
CREASE
100
AcDbLine
 10
171.5
 20
681.75
 30
0.0
 11
173.25
 21
670.0
 31
0.0
  0
LINE
  5
144
330
17
100
AcDbEntity
  8
CREASE
100
AcDbLine
 10
152.0
 20
664.0
 30
0.0
 11
155.5
 21
654.25
 31
0.0
  0
LINE
  5
145
330
17
100
AcDbEntity
  8
CUT
100
AcDbLine
 10
184.5
 20
660.75
 30
0.0
 11
184.75
 21
646.25
 31
0.0
  0
LINE
  5
146
330
17
100
AcDbEntity
  8
CREASE
100
AcDbLine
 10
33.5
 20
775.25
 30
0.0
 11
40.0
 21
775.25
 31
0.0
  0
LINE
  5
147
330
17
100
AcDbEntity
  8
SLOT
100
AcDbLine
 10
182.5
 20
687.5
 30
0.0
 11
182.75
 21
693.25
 31
0.0
  0
LINE
  5
148
330
17
100
AcDbEntity
  8
FOLD
100
AcDbLine
 10
83.0
 20
872.75
 30
0.0
 11
122.0
 21
870.75
 31
0.0
  0
LINE
  5
149
330
17
100
AcDbEntity
  8
CUT
100
AcDbLine
 10
165.25
 20
915.5
 30
0.0
 11
185.0
 21
915.5
 31
0.0
  0
LINE
  5
14A
330
17
100
AcDbEntity
  8
CREASE
100
AcDbLine
 10
171.75
 20
673.75
 30
0.0
 11
172.5
 21
667.5
 31
0.0
  0
LINE
  5
14B
330
17
100
AcDbEntity
  8
CUT
100
AcDbLine
 10
153.75
 20
668.25
 30
0.0
 11
161.25
 21
682.25
 31
0.0
  0
LINE
  5
14C
330
17
100
AcDbEntity
  8
SLOT
100
AcDbLine
 10
178.75
 20
693.75
 30
0.0
 11
183.75
 21
698.75
 31
0.0
  0
LINE
  5
14D
330
17
100
AcDbEntity
  8
CUT
100
AcDbLine
 10
153.25
 20
684.5
 30
0.0
 11
156.25
 21
699.0
 31
0.0
  0
LINE
  5
14E
330
17
100
AcDbEntity
  8
SLOT
100
AcDbLine
 10
191.25
 20
846.5
 30
0.0
 11
191.25
 21
852.5
 31
0.0
  0
LINE
  5
14F
330
17
100
AcDbEntity
  8
CUT
100
AcDbLine
 10
165.25
 20
673.5
 30
0.0
 11
167.0
 21
693.5
 31
0.0
  0
LINE
  5
150
330
17
100
AcDbEntity
  8
CUT
100
AcDbLine
 10
218.75
 20
779.75
 30
0.0
 11
239.25
 21
779.75
 31
0.0
  0
LINE
  5
151
330
17
100
AcDbEntity
  8
CREASE
100
AcDbLine
 10
177.5
 20
695.75
 30
0.0
 11
179.5
 21
710.75
 31
0.0
  0
LINE
  5
152
330
17
100
AcDbEntity
  8
CREASE
100
AcDbLine
 10
150.5
 20
637.75
 30
0.0
 11
159.5
 21
646.75
 31
0.0
  0
LINE
  5
153
330
17
100
AcDbEntity
  8
CUT
100
AcDbLine
 10
159.0
 20
654.75
 30
0.0
 11
161.25
 21
668.75
 31
0.0
  0
LINE
  5
154
330
17
100
AcDbEntity
  8
SLOT
100
AcDbLine
 10
187.5
 20
636.75
 30
0.0
 11
189.25
 21
642.5
 31
0.0
  0
LINE
  5
155
330
17
100
AcDbEntity
  8
SLOT
100
AcDbLine
 10
176.25
 20
672.75
 30
0.0
 11
176.25
 21
677.75
 31
0.0
  0
LINE
  5
156
330
17
100
AcDbEntity
  8
CUT
100
AcDbLine
 10
178.0
 20
682.75
 30
0.0
 11
180.25
 21
700.5
 31
0.0
  0
LINE
  5
157
330
17
100
AcDbEntity
  8
CREASE
100
AcDbLine
 10
163.0
 20
680.25
 30
0.0
 11
164.25
 21
688.75
 31
0.0
  0
LINE
  5
158
330
17
100
AcDbEntity
  8
CREASE
100
AcDbLine
 10
153.75
 20
851.75
 30
0.0
 11
156.25
 21
840.75
 31
0.0
  0
LINE
  5
159
330
17
100
AcDbEntity
  8
CREASE
100
AcDbLine
 10
284.75
 20
775.0
 30
0.0
 11
297.5
 21
775.25
 31
0.0
  0
LINE
  5
15A
330
17
100
AcDbEntity
  8
FOLD
100
AcDbLine
 10
157.5
 20
878.5
 30
0.0
 11
169.5
 21
878.5
 31
0.0
  0
LINE
  5
15B
330
17
100
AcDbEntity
  8
SLOT
100
AcDbLine
 10
162.25
 20
661.75
 30
0.0
 11
163.0
 21
668.75
 31
0.0
  0
LINE
  5
15C
330
17
100
AcDbEntity
  8
CREASE
100
AcDbLine
 10
140.25
 20
848.5
 30
0.0
 11
141.25
 21
838.75
 31
0.0
  0
LINE
  5
15D
330
17
100
AcDbEntity
  8
CREASE
100
AcDbLine
 10
152.75
 20
668.5
 30
0.0
 11
154.25
 21
676.75
 31
0.0
  0
LINE
  5
15E
330
17
100
AcDbEntity
  8
BRIDGE
100
AcDbLine
 10
153.75
 20
877.75
 30
0.0
 11
163.25
 21
877.75
 31
0.0
  0
LINE
  5
15F
330
17
100
AcDbEntity
  8
CREASE
100
AcDbLine
 10
159.75
 20
629.25
 30
0.0
 11
161.25
 21
642.75
 31
0.0
  0
LINE
  5
160
330
17
100
AcDbEntity
  8
CREASE
100
AcDbLine
 10
149.5
 20
809.25
 30
0.0
 11
150.75
 21
799.0
 31
0.0
  0
LINE
  5
161
330
17
100
AcDbEntity
  8
CREASE
100
AcDbLine
 10
181.25
 20
670.5
 30
0.0
 11
181.5
 21
679.0
 31
0.0
  0
LINE
  5
162
330
17
100
AcDbEntity
  8
SLOT
100
AcDbLine
 10
178.75
 20
641.75
 30
0.0
 11
179.25
 21
647.0
 31
0.0
  0
LINE
  5
163
330
17
100
AcDbEntity
  8
SLOT
100
AcDbLine
 10
146.75
 20
651.75
 30
0.0
 11
148.0
 21
658.0
 31
0.0
  0
LINE
  5
164
330
17
100
AcDbEntity
  8
CUT
100
AcDbLine
 10
262.25
 20
879.25
 30
0.0
 11
262.5
 21
871.0
 31
0.0
  0
LINE
  5
165
330
17
100
AcDbEntity
  8
CREASE
100
AcDbLine
 10
107.75
 20
771.75
 30
0.0
 11
115.75
 21
771.75
 31
0.0
  0
LINE
  5
166
330
17
100
AcDbEntity
  8
SLOT
100
AcDbLine
 10
196.0
 20
843.75
 30
0.0
 11
196.5
 21
850.25
 31
0.0
  0
LINE
  5
167
330
17
100
AcDbEntity
  8
SLOT
100
AcDbLine
 10
180.25
 20
796.25
 30
0.0
 11
181.25
 21
801.5
 31
0.0
  0
LINE
  5
168
330
17
100
AcDbEntity
  8
CREASE
100
AcDbLine
 10
217.75
 20
828.75
 30
0.0
 11
219.25
 21
782.5
 31
0.0
  0
LINE
  5
169
330
17
100
AcDbEntity
  8
CUT
100
AcDbLine
 10
163.75
 20
704.25
 30
0.0
 11
174.75
 21
715.25
 31
0.0
  0
LINE
  5
16A
330
17
100
AcDbEntity
  8
SLOT
100
AcDbLine
 10
182.5
 20
817.0
 30
0.0
 11
184.25
 21
822.75
 31
0.0
  0
LINE
  5
16B
330
17
100
AcDbEntity
  8
CREASE
100
AcDbLine
 10
164.5
 20
714.0
 30
0.0
 11
165.25
 21
706.0
 31
0.0
  0
LINE
  5
16C
330
17
100
AcDbEntity
  8
SLOT
100
AcDbLine
 10
179.25
 20
796.25
 30
0.0
 11
180.25
 21
801.5
 31
0.0
  0
LINE
  5
16D
330
17
100
AcDbEntity
  8
CREASE
100
AcDbLine
 10
164.75
 20
679.5
 30
0.0
 11
165.75
 21
688.25
 31
0.0
  0
LINE
  5
16E
330
17
100
AcDbEntity
  8
CREASE
100
AcDbLine
 10
189.5
 20
709.75
 30
0.0
 11
189.75
 21
719.0
 31
0.0
  0
LINE
  5
16F
330
17
100
AcDbEntity
  8
SLOT
100
AcDbLine
 10
147.75
 20
682.0
 30
0.0
 11
149.25
 21
689.0
 31
0.0
  0
LINE
  5
170
330
17
100
AcDbEntity
  8
CREASE
100
AcDbLine
 10
171.25
 20
658.0
 30
0.0
 11
172.0
 21
651.5
 31
0.0
  0
LINE
  5
171
330
17
100
AcDbEntity
  8
CREASE
100
AcDbLine
 10
186.25
 20
796.25
 30
0.0
 11
186.25
 21
801.5
 31
0.0
  0
LINE
  5
172
330
17
100
AcDbEntity
  8
FOLD
100
AcDbLine
 10
181.0
 20
774.0
 30
0.0
 11
202.75
 21
773.5
 31
0.0
  0
LINE
  5
173
330
17
100
AcDbEntity
  8
CREASE
100
AcDbLine
 10
211.0
 20
706.0
 30
0.0
 11
211.0
 21
699.25
 31
0.0
  0
LINE
  5
174
330
17
100
AcDbEntity
  8
SLOT
100
AcDbLine
 10
138.5
 20
807.5
 30
0.0
 11
140.0
 21
802.0
 31
0.0
  0
LINE
  5
175
330
17
100
AcDbEntity
  8
CUT
100
AcDbLine
 10
193.25
 20
692.5
 30
0.0
 11
201.0
 21
678.0
 31
0.0
  0
LINE
  5
176
330
17
100
AcDbEntity
  8
CREASE
100
AcDbLine
 10
116.25
 20
639.5
 30
0.0
 11
123.5
 21
647.5
 31
0.0
  0
LINE
  5
177
330
17
100
AcDbEntity
  8
CREASE
100
AcDbLine
 10
170.0
 20
658.0
 30
0.0
 11
172.5
 21
652.0
 31
0.0
  0
LINE
  5
178
330
17
100
AcDbEntity
  8
CREASE
100
AcDbLine
 10
162.5
 20
641.25
 30
0.0
 11
163.0
 21
629.5
 31
0.0
  0
LINE
  5
179
330
17
100
AcDbEntity
  8
CUT
100
AcDbLine
 10
139.5
 20
677.5
 30
0.0
 11
145.25
 21
696.75
 31
0.0
  0
LINE
  5
17A
330
17
100
AcDbEntity
  8
CUT
100
AcDbLine
 10
126.0
 20
635.5
 30
0.0
 11
130.75
 21
653.75
 31
0.0
  0
LINE
  5
17B
330
17
100
AcDbEntity
  8
CUT
100
AcDbLine
 10
136.25
 20
686.25
 30
0.0
 11
141.0
 21
673.5
 31
0.0
  0
LINE
  5
17C
330
17
100
AcDbEntity
  8
SLOT
100
AcDbLine
 10
183.25
 20
652.25
 30
0.0
 11
183.25
 21
659.5
 31
0.0
  0
LINE
  5
17D
330
17
100
AcDbEntity
  8
CREASE
100
AcDbLine
 10
190.0
 20
832.75
 30
0.0
 11
190.5
 21
841.75
 31
0.0
  0
LINE
  5
17E
330
17
100
AcDbEntity
  8
CREASE
100
AcDbLine
 10
161.75
 20
629.25
 30
0.0
 11
162.5
 21
636.75
 31
0.0
  0
LINE
  5
17F
330
17
100
AcDbEntity
  8
SLOT
100
AcDbLine
 10
161.0
 20
672.0
 30
0.0
 11
161.75
 21
677.0
 31
0.0
  0
LINE
  5
180
330
17
100
AcDbEntity
  8
FOLD
100
AcDbLine
 10
78.5
 20
986.0
 30
0.0
 11
94.0
 21
996.0
 31
0.0
  0
LINE
  5
181
330
17
100
AcDbEntity
  8
CREASE
100
AcDbLine
 10
156.0
 20
774.0
 30
0.0
 11
161.75
 21
774.0
 31
0.0
  0
LINE
  5
182
330
17
100
AcDbEntity
  8
CUT
100
AcDbLine
 10
187.0
 20
650.25
 30
0.0
 11
187.25
 21
636.75
 31
0.0
  0
LINE
  5
183
330
17
100
AcDbEntity
  8
CREASE
100
AcDbLine
 10
209.25
 20
948.25
 30
0.0
 11
209.75
 21
954.25
 31
0.0
  0
LINE
  5
184
330
17
100
AcDbEntity
  8
SLOT
100
AcDbLine
 10
144.5
 20
678.25
 30
0.0
 11
145.0
 21
671.0
 31
0.0
  0
LINE
  5
185
330
17
100
AcDbEntity
  8
CREASE
100
AcDbLine
 10
157.25
 20
664.5
 30
0.0
 11
161.75
 21
656.25
 31
0.0
  0
LINE
  5
186
330
17
100
AcDbEntity
  8
SLOT
100
AcDbLine
 10
177.0
 20
671.0
 30
0.0
 11
177.5
 21
677.75
 31
0.0
  0
LINE
  5
187
330
17
100
AcDbEntity
  8
SLOT
100
AcDbLine
 10
148.25
 20
850.75
 30
0.0
 11
149.0
 21
844.25
 31
0.0
  0
LINE
  5
188
330
17
100
AcDbEntity
  8
CREASE
100
AcDbLine
 10
198.0
 20
849.0
 30
0.0
 11
198.5
 21
854.5
 31
0.0
  0
LINE
  5
189
330
17
100
AcDbEntity
  8
CREASE
100
AcDbLine
 10
152.5
 20
654.25
 30
0.0
 11
154.5
 21
662.75
 31
0.0
  0
LINE
  5
18A
330
17
100
AcDbEntity
  8
CREASE
100
AcDbLine
 10
167.25
 20
687.0
 30
0.0
 11
167.75
 21
678.25
 31
0.0
  0
LINE
  5
18B
330
17
100
AcDbEntity
  8
CREASE
100
AcDbLine
 10
183.75
 20
672.5
 30
0.0
 11
184.0
 21
677.75
 31
0.0
  0
LINE
  5
18C
330
17
100
AcDbEntity
  8
CREASE
100
AcDbLine
 10
210.25
 20
728.5
 30
0.0
 11
210.5
 21
716.0
 31
0.0
  0
LINE
  5
18D
330
17
100
AcDbEntity
  8
CUT
100
AcDbLine
 10
146.75
 20
671.0
 30
0.0
 11
147.0
 21
689.25
 31
0.0
  0
LINE
  5
18E
330
17
100
AcDbEntity
  8
CREASE
100
AcDbLine
 10
91.25
 20
916.5
 30
0.0
 11
129.0
 21
912.5
 31
0.0
  0
LINE
  5
18F
330
17
100
AcDbEntity
  8
CUT
100
AcDbLine
 10
103.5
 20
779.5
 30
0.0
 11
121.5
 21
779.0
 31
0.0
  0
LINE
  5
190
330
17
100
AcDbEntity
  8
CREASE
100
AcDbLine
 10
177.75
 20
707.0
 30
0.0
 11
178.25
 21
712.0
 31
0.0
  0
LINE
  5
191
330
17
100
AcDbEntity
  8
CUT
100
AcDbLine
 10
152.25
 20
679.5
 30
0.0
 11
157.75
 21
698.75
 31
0.0
  0
LINE
  5
192
330
17
100
AcDbEntity
  8
CREASE
100
AcDbLine
 10
178.5
 20
661.5
 30
0.0
 11
179.25
 21
656.5
 31
0.0
  0
LINE
  5
193
330
17
100
AcDbEntity
  8
SLOT
100
AcDbLine
 10
156.5
 20
678.5
 30
0.0
 11
158.75
 21
672.5
 31
0.0
  0
LINE
  5
194
330
17
100
AcDbEntity
  8
SLOT
100
AcDbLine
 10
166.75
 20
630.5
 30
0.0
 11
167.0
 21
637.5
 31
0.0
  0
LINE
  5
195
330
17
100
AcDbEntity
  8
CREASE
100
AcDbLine
 10
8.5
 20
943.5
 30
0.0
 11
13.0
 21
934.25
 31
0.0
  0
LINE
  5
196
330
17
100
AcDbEntity
  8
BRIDGE
100
AcDbLine
 10
143.0
 20
668.25
 30
0.0
 11
147.75
 21
674.75
 31
0.0
  0
LINE
  5
197
330
17
100
AcDbEntity
  8
SLOT
100
AcDbLine
 10
174.75
 20
641.0
 30
0.0
 11
176.0
 21
634.75
 31
0.0
  0
LINE
  5
198
330
17
100
AcDbEntity
  8
CREASE
100
AcDbLine
 10
155.0
 20
954.75
 30
0.0
 11
164.25
 21
954.75
 31
0.0
  0
LINE
  5
199
330
17
100
AcDbEntity
  8
SLOT
100
AcDbLine
 10
195.0
 20
850.0
 30
0.0
 11
195.0
 21
857.5
 31
0.0
  0
LINE
  5
19A
330
17
100
AcDbEntity
  8
CREASE
100
AcDbLine
 10
198.25
 20
649.5
 30
0.0
 11
198.75
 21
644.5
 31
0.0
  0
LINE
  5
19B
330
17
100
AcDbEntity
  8
FOLD
100
AcDbLine
 10
229.5
 20
878.0
 30
0.0
 11
241.25
 21
878.5
 31
0.0
  0
LINE
  5
19C
330
17
100
AcDbEntity
  8
CREASE
100
AcDbLine
 10
187.75
 20
647.75
 30
0.0
 11
188.0
 21
655.5
 31
0.0
  0
LINE
  5
19D
330
17
100
AcDbEntity
  8
CREASE
100
AcDbLine
 10
81.5
 20
878.25
 30
0.0
 11
83.75
 21
873.0
 31
0.0
  0
LINE
  5
19E
330
17
100
AcDbEntity
  8
BRIDGE
100
AcDbLine
 10
192.5
 20
877.25
 30
0.0
 11
200.25
 21
877.25
 31
0.0
  0
LINE
  5
19F
330
17
100
AcDbEntity
  8
CREASE
100
AcDbLine
 10
178.75
 20
710.25
 30
0.0
 11
179.0
 21
704.25
 31
0.0
  0
LINE
  5
1A0
330
17
100
AcDbEntity
  8
CUT
100
AcDbLine
 10
148.25
 20
809.5
 30
0.0
 11
150.75
 21
795.0
 31
0.0
  0
LINE
  5
1A1
330
17
100
AcDbEntity
  8
SLOT
100
AcDbLine
 10
153.0
 20
680.25
 30
0.0
 11
156.5
 21
686.0
 31
0.0
  0
LINE
  5
1A2
330
17
100
AcDbEntity
  8
CREASE
100
AcDbLine
 10
188.25
 20
691.0
 30
0.0
 11
188.5
 21
681.5
 31
0.0
  0
LINE
  5
1A3
330
17
100
AcDbEntity
  8
SLOT
100
AcDbLine
 10
166.25
 20
701.5
 30
0.0
 11
167.25
 21
708.75
 31
0.0
  0
LINE
  5
1A4
330
17
100
AcDbEntity
  8
CREASE
100
AcDbLine
 10
147.0
 20
677.5
 30
0.0
 11
149.75
 21
669.5
 31
0.0
  0
LINE
  5
1A5
330
17
100
AcDbEntity
  8
SLOT
100
AcDbLine
 10
178.0
 20
684.0
 30
0.0
 11
178.0
 21
690.25
 31
0.0
  0
LINE
  5
1A6
330
17
100
AcDbEntity
  8
SLOT
100
AcDbLine
 10
154.0
 20
801.5
 30
0.0
 11
154.5
 21
796.5
 31
0.0
  0
LINE
  5
1A7
330
17
100
AcDbEntity
  8
CREASE
100
AcDbLine
 10
36.5
 20
855.0
 30
0.0
 11
36.75
 21
865.75
 31
0.0
  0
LINE
  5
1A8
330
17
100
AcDbEntity
  8
CREASE
100
AcDbLine
 10
192.5
 20
622.0
 30
0.0
 11
205.25
 21
622.0
 31
0.0
  0
LINE
  5
1A9
330
17
100
AcDbEntity
  8
SLOT
100
AcDbLine
 10
181.0
 20
652.0
 30
0.0
 11
181.25
 21
657.0
 31
0.0
  0
LINE
  5
1AA
330
17
100
AcDbEntity
  8
CUT
100
AcDbLine
 10
195.75
 20
717.0
 30
0.0
 11
205.5
 21
701.25
 31
0.0
  0
LINE
  5
1AB
330
17
100
AcDbEntity
  8
SLOT
100
AcDbLine
 10
27.25
 20
944.5
 30
0.0
 11
30.75
 21
938.5
 31
0.0
  0
LINE
  5
1AC
330
17
100
AcDbEntity
  8
CUT
100
AcDbLine
 10
163.5
 20
668.75
 30
0.0
 11
171.5
 21
651.5
 31
0.0
  0
LINE
  5
1AD
330
17
100
AcDbEntity
  8
CREASE
100
AcDbLine
 10
170.5
 20
688.75
 30
0.0
 11
171.0
 21
695.25
 31
0.0
  0
LINE
  5
1AE
330
17
100
AcDbEntity
  8
SLOT
100
AcDbLine
 10
174.5
 20
640.75
 30
0.0
 11
175.25
 21
634.5
 31
0.0
  0
LINE
  5
1AF
330
17
100
AcDbEntity
  8
CREASE
100
AcDbLine
 10
177.75
 20
670.75
 30
0.0
 11
178.25
 21
675.75
 31
0.0
  0
LINE
  5
1B0
330
17
100
AcDbEntity
  8
CREASE
100
AcDbLine
 10
173.5
 20
850.0
 30
0.0
 11
173.75
 21
845.0
 31
0.0
  0
LINE
  5
1B1
330
17
100
AcDbEntity
  8
SLOT
100
AcDbLine
 10
176.0
 20
684.75
 30
0.0
 11
176.5
 21
690.75
 31
0.0
  0
LINE
  5
1B2
330
17
100
AcDbEntity
  8
CREASE
100
AcDbLine
 10
182.5
 20
670.75
 30
0.0
 11
182.75
 21
677.0
 31
0.0
  0
LINE
  5
1B3
330
17
100
AcDbEntity
  8
CREASE
100
AcDbLine
 10
134.75
 20
645.0
 30
0.0
 11
136.75
 21
653.5
 31
0.0
  0
LINE
  5
1B4
330
17
100
AcDbEntity
  8
CREASE
100
AcDbLine
 10
136.25
 20
818.25
 30
0.0
 11
155.0
 21
818.25
 31
0.0
  0
LINE
  5
1B5
330
17
100
AcDbEntity
  8
CREASE
100
AcDbLine
 10
115.25
 20
630.25
 30
0.0
 11
120.25
 21
635.25
 31
0.0
  0
LINE
  5
1B6
330
17
100
AcDbEntity
  8
SLOT
100
AcDbLine
 10
166.0
 20
710.25
 30
0.0
 11
166.5
 21
704.0
 31
0.0
  0
LINE
  5
1B7
330
17
100
AcDbEntity
  8
CREASE
100
AcDbLine
 10
182.75
 20
648.0
 30
0.0
 11
183.0
 21
657.75
 31
0.0
  0
LINE
  5
1B8
330
17
100
AcDbEntity
  8
CREASE
100
AcDbLine
 10
163.0
 20
658.25
 30
0.0
 11
163.5
 21
667.75
 31
0.0
  0
LINE
  5
1B9
330
17
100
AcDbEntity
  8
CREASE
100
AcDbLine
 10
189.25
 20
703.25
 30
0.0
 11
190.25
 21
691.5
 31
0.0
  0
LINE
  5
1BA
330
17
100
AcDbEntity
  8
SLOT
100
AcDbLine
 10
196.0
 20
650.0
 30
0.0
 11
196.0
 21
644.25
 31
0.0
  0
LINE
  5
1BB
330
17
100
AcDbEntity
  8
CUT
100
AcDbLine
 10
172.0
 20
677.25
 30
0.0
 11
173.75
 21
689.75
 31
0.0
  0
LINE
  5
1BC
330
17
100
AcDbEntity
  8
CREASE
100
AcDbLine
 10
174.0
 20
693.75
 30
0.0
 11
175.25
 21
702.5
 31
0.0
  0
LINE
  5
1BD
330
17
100
AcDbEntity
  8
CREASE
100
AcDbLine
 10
157.75
 20
679.5
 30
0.0
 11
158.0
 21
665.25
 31
0.0
  0
LINE
  5
1BE
330
17
100
AcDbEntity
  8
CREASE
100
AcDbLine
 10
263.75
 20
861.25
 30
0.0
 11
264.0
 21
846.0
 31
0.0
  0
LINE
  5
1BF
330
17
100
AcDbEntity
  8
SLOT
100
AcDbLine
 10
182.25
 20
646.25
 30
0.0
 11
182.25
 21
641.0
 31
0.0
  0
LINE
  5
1C0
330
17
100
AcDbEntity
  8
SLOT
100
AcDbLine
 10
168.25
 20
631.0
 30
0.0
 11
168.5
 21
637.25
 31
0.0
  0
LINE
  5
1C1
330
17
100
AcDbEntity
  8
SLOT
100
AcDbLine
 10
183.25
 20
842.25
 30
0.0
 11
184.0
 21
847.75
 31
0.0
  0
LINE
  5
1C2
330
17
100
AcDbEntity
  8
CUT
100
AcDbLine
 10
183.5
 20
639.75
 30
0.0
 11
184.0
 21
660.25
 31
0.0
  0
LINE
  5
1C3
330
17
100
AcDbEntity
  8
CREASE
100
AcDbLine
 10
157.5
 20
666.5
 30
0.0
 11
161.5
 21
657.25
 31
0.0
  0
LINE
  5
1C4
330
17
100
AcDbEntity
  8
CREASE
100
AcDbLine
 10
182.75
 20
670.75
 30
0.0
 11
183.0
 21
678.25
 31
0.0
  0
LINE
  5
1C5
330
17
100
AcDbEntity
  8
CREASE
100
AcDbLine
 10
183.25
 20
773.5
 30
0.0
 11
189.5
 21
773.5
 31
0.0
  0
LINE
  5
1C6
330
17
100
AcDbEntity
  8
CREASE
100
AcDbLine
 10
157.0
 20
665.75
 30
0.0
 11
158.25
 21
654.5
 31
0.0
  0
LINE
  5
1C7
330
17
100
AcDbEntity
  8
CUT
100
AcDbLine
 10
152.25
 20
686.5
 30
0.0
 11
155.25
 21
699.0
 31
0.0
  0
LINE
  5
1C8
330
17
100
AcDbEntity
  8
CREASE
100
AcDbLine
 10
164.5
 20
679.5
 30
0.0
 11
165.5
 21
688.5
 31
0.0
  0
LINE
  5
1C9
330
17
100
AcDbEntity
  8
CREASE
100
AcDbLine
 10
163.75
 20
629.75
 30
0.0
 11
165.0
 21
638.75
 31
0.0
  0
LINE
  5
1CA
330
17
100
AcDbEntity
  8
CREASE
100
AcDbLine
 10
178.0
 20
693.25
 30
0.0
 11
179.0
 21
701.0
 31
0.0
  0
LINE
  5
1CB
330
17
100
AcDbEntity
  8
SLOT
100
AcDbLine
 10
184.5
 20
697.75
 30
0.0
 11
184.75
 21
690.75
 31
0.0
  0
LINE
  5
1CC
330
17
100
AcDbEntity
  8
CUT
100
AcDbLine
 10
139.5
 20
848.0
 30
0.0
 11
140.5
 21
834.25
 31
0.0
  0
LINE
  5
1CD
330
17
100
AcDbEntity
  8
CUT
100
AcDbLine
 10
192.5
 20
694.75
 30
0.0
 11
193.5
 21
679.0
 31
0.0
  0
LINE
  5
1CE
330
17
100
AcDbEntity
  8
SLOT
100
AcDbLine
 10
165.0
 20
633.0
 30
0.0
 11
165.5
 21
638.25
 31
0.0
  0
LINE
  5
1CF
330
17
100
AcDbEntity
  8
CUT
100
AcDbLine
 10
144.5
 20
647.0
 30
0.0
 11
149.75
 21
631.75
 31
0.0
  0
LINE
  5
1D0
330
17
100
AcDbEntity
  8
SLOT
100
AcDbLine
 10
120.0
 20
638.75
 30
0.0
 11
124.25
 21
644.75
 31
0.0
  0
LINE
  5
1D1
330
17
100
AcDbEntity
  8
CUT
100
AcDbLine
 10
189.5
 20
658.25
 30
0.0
 11
197.5
 21
644.5
 31
0.0
  0
LINE
  5
1D2
330
17
100
AcDbEntity
  8
CREASE
100
AcDbLine
 10
186.75
 20
704.0
 30
0.0
 11
187.25
 21
694.25
 31
0.0
  0
LINE
  5
1D3
330
17
100
AcDbEntity
  8
CREASE
100
AcDbLine
 10
299.0
 20
775.25
 30
0.0
 11
306.75
 21
775.5
 31
0.0
  0
LINE
  5
1D4
330
17
100
AcDbEntity
  8
CREASE
100
AcDbLine
 10
182.75
 20
805.0
 30
0.0
 11
183.0
 21
796.25
 31
0.0
  0
LINE
  5
1D5
330
17
100
AcDbEntity
  8
CREASE
100
AcDbLine
 10
173.0
 20
679.25
 30
0.0
 11
177.25
 21
689.5
 31
0.0
  0
LINE
  5
1D6
330
17
100
AcDbEntity
  8
CREASE
100
AcDbLine
 10
216.75
 20
851.75
 30
0.0
 11
217.0
 21
861.75
 31
0.0
  0
LINE
  5
1D7
330
17
100
AcDbEntity
  8
SLOT
100
AcDbLine
 10
180.75
 20
685.5
 30
0.0
 11
181.5
 21
692.0
 31
0.0
  0
LINE
  5
1D8
330
17
100
AcDbEntity
  8
CREASE
100
AcDbLine
 10
179.0
 20
670.0
 30
0.0
 11
179.25
 21
679.75
 31
0.0
  0
LINE
  5
1D9
330
17
100
AcDbEntity
  8
CREASE
100
AcDbLine
 10
178.25
 20
646.5
 30
0.0
 11
178.5
 21
654.0
 31
0.0
  0
LINE
  5
1DA
330
17
100
AcDbEntity
  8
CUT
100
AcDbLine
 10
164.25
 20
710.75
 30
0.0
 11
171.5
 21
723.25
 31
0.0
  0
LINE
  5
1DB
330
17
100
AcDbEntity
  8
CREASE
100
AcDbLine
 10
120.25
 20
778.75
 30
0.0
 11
124.25
 21
771.5
 31
0.0
  0
LINE
  5
1DC
330
17
100
AcDbEntity
  8
CREASE
100
AcDbLine
 10
125.75
 20
773.25
 30
0.0
 11
128.0
 21
767.75
 31
0.0
  0
LINE
  5
1DD
330
17
100
AcDbEntity
  8
CREASE
100
AcDbLine
 10
176.5
 20
877.5
 30
0.0
 11
190.5
 21
877.25
 31
0.0
  0
LINE
  5
1DE
330
17
100
AcDbEntity
  8
CREASE
100
AcDbLine
 10
19.0
 20
934.25
 30
0.0
 11
28.25
 21
937.5
 31
0.0
  0
LINE
  5
1DF
330
17
100
AcDbEntity
  8
CREASE
100
AcDbLine
 10
154.5
 20
655.25
 30
0.0
 11
155.75
 21
664.0
 31
0.0
  0
LINE
  5
1E0
330
17
100
AcDbEntity
  8
CREASE
100
AcDbLine
 10
140.25
 20
799.75
 30
0.0
 11
144.25
 21
793.0
 31
0.0
  0
LINE
  5
1E1
330
17
100
AcDbEntity
  8
CREASE
100
AcDbLine
 10
177.5
 20
609.75
 30
0.0
 11
186.75
 21
610.0
 31
0.0
  0
LINE
  5
1E2
330
17
100
AcDbEntity
  8
SLOT
100
AcDbLine
 10
153.75
 20
681.0
 30
0.0
 11
155.5
 21
687.0
 31
0.0
  0
LINE
  5
1E3
330
17
100
AcDbEntity
  8
CREASE
100
AcDbLine
 10
164.75
 20
658.25
 30
0.0
 11
166.75
 21
669.5
 31
0.0
  0
LINE
  5
1E4
330
17
100
AcDbEntity
  8
CUT
100
AcDbLine
 10
171.0
 20
687.75
 30
0.0
 11
177.75
 21
700.5
 31
0.0
  0
LINE
  5
1E5
330
17
100
AcDbEntity
  8
FOLD
100
AcDbLine
 10
178.5
 20
878.25
 30
0.0
 11
192.5
 21
878.0
 31
0.0
  0
LINE
  5
1E6
330
17
100
AcDbEntity
  8
CREASE
100
AcDbLine
 10
189.0
 20
654.25
 30
0.0
 11
192.0
 21
649.0
 31
0.0
  0
LINE
  5
1E7
330
17
100
AcDbEntity
  8
CREASE
100
AcDbLine
 10
136.25
 20
808.5
 30
0.0
 11
141.0
 21
800.75
 31
0.0
  0
LINE
  5
1E8
330
17
100
AcDbEntity
  8
CREASE
100
AcDbLine
 10
164.25
 20
658.0
 30
0.0
 11
165.0
 21
664.25
 31
0.0
  0
LINE
  5
1E9
330
17
100
AcDbEntity
  8
SLOT
100
AcDbLine
 10
182.25
 20
687.25
 30
0.0
 11
182.25
 21
693.0
 31
0.0
  0
LINE
  5
1EA
330
17
100
AcDbEntity
  8
SLOT
100
AcDbLine
 10
207.25
 20
699.75
 30
0.0
 11
211.25
 21
693.5
 31
0.0
  0
LINE
  5
1EB
330
17
100
AcDbEntity
  8
SLOT
100
AcDbLine
 10
181.25
 20
686.0
 30
0.0
 11
182.0
 21
692.75
 31
0.0
  0
LINE
  5
1EC
330
17
100
AcDbEntity
  8
CREASE
100
AcDbLine
 10
195.25
 20
772.75
 30
0.0
 11
208.0
 21
772.5
 31
0.0
  0
LINE
  5
1ED
330
17
100
AcDbEntity
  8
SLOT
100
AcDbLine
 10
137.0
 20
659.75
 30
0.0
 11
138.5
 21
665.0
 31
0.0
  0
LINE
  5
1EE
330
17
100
AcDbEntity
  8
CUT
100
AcDbLine
 10
210.0
 20
696.25
 30
0.0
 11
210.25
 21
704.25
 31
0.0
  0
LINE
  5
1EF
330
17
100
AcDbEntity
  8
SLOT
100
AcDbLine
 10
148.75
 20
675.75
 30
0.0
 11
151.0
 21
669.25
 31
0.0
  0
LINE
  5
1F0
330
17
100
AcDbEntity
  8
FOLD
100
AcDbLine
 10
194.0
 20
666.5
 30
0.0
 11
202.5
 21
680.5
 31
0.0
  0
LINE
  5
1F1
330
17
100
AcDbEntity
  8
CREASE
100
AcDbLine
 10
222.5
 20
912.0
 30
0.0
 11
229.75
 21
911.75
 31
0.0
  0
LINE
  5
1F2
330
17
100
AcDbEntity
  8
CREASE
100
AcDbLine
 10
155.75
 20
851.5
 30
0.0
 11
156.5
 21
841.25
 31
0.0
  0
LINE
  5
1F3
330
17
100
AcDbEntity
  8
SLOT
100
AcDbLine
 10
156.25
 20
664.75
 30
0.0
 11
165.5
 21
660.5
 31
0.0
  0
LINE
  5
1F4
330
17
100
AcDbEntity
  8
FOLD
100
AcDbLine
 10
305.0
 20
794.5
 30
0.0
 11
305.25
 21
776.5
 31
0.0
  0
LINE
  5
1F5
330
17
100
AcDbEntity
  8
FOLD
100
AcDbLine
 10
50.5
 20
897.0
 30
0.0
 11
50.5
 21
912.75
 31
0.0
  0
LINE
  5
1F6
330
17
100
AcDbEntity
  8
CUT
100
AcDbLine
 10
145.0
 20
686.0
 30
0.0
 11
148.5
 21
698.0
 31
0.0
  0
LINE
  5
1F7
330
17
100
AcDbEntity
  8
CUT
100
AcDbLine
 10
136.5
 20
812.5
 30
0.0
 11
156.5
 21
813.0
 31
0.0
  0
LINE
  5
1F8
330
17
100
AcDbEntity
  8
CREASE
100
AcDbLine
 10
157.0
 20
812.75
 30
0.0
 11
157.25
 21
807.25
 31
0.0
  0
LINE
  5
1F9
330
17
100
AcDbEntity
  8
SLOT
100
AcDbLine
 10
172.0
 20
717.0
 30
0.0
 11
172.75
 21
722.75
 31
0.0
  0
LINE
  5
1FA
330
17
100
AcDbEntity
  8
CUT
100
AcDbLine
 10
194.75
 20
675.25
 30
0.0
 11
194.75
 21
690.75
 31
0.0
  0
LINE
  5
1FB
330
17
100
AcDbEntity
  8
CREASE
100
AcDbLine
 10
168.75
 20
676.5
 30
0.0
 11
170.0
 21
684.25
 31
0.0
  0
LINE
  5
1FC
330
17
100
AcDbEntity
  8
FOLD
100
AcDbLine
 10
74.5
 20
869.75
 30
0.0
 11
74.5
 21
855.75
 31
0.0
  0
LINE
  5
1FD
330
17
100
AcDbEntity
  8
CREASE
100
AcDbLine
 10
171.75
 20
682.0
 30
0.0
 11
172.5
 21
691.25
 31
0.0
  0
LINE
  5
1FE
330
17
100
AcDbEntity
  8
CUT
100
AcDbLine
 10
185.25
 20
648.5
 30
0.0
 11
185.25
 21
661.5
 31
0.0
  0
LINE
  5
1FF
330
17
100
AcDbEntity
  8
SLOT
100
AcDbLine
 10
169.0
 20
696.75
 30
0.0
 11
170.0
 21
689.5
 31
0.0
  0
LINE
  5
200
330
17
100
AcDbEntity
  8
SLOT
100
AcDbLine
 10
184.75
 20
682.5
 30
0.0
 11
185.25
 21
687.5
 31
0.0
  0
LINE
  5
201
330
17
100
AcDbEntity
  8
CREASE
100
AcDbLine
 10
178.5
 20
722.75
 30
0.0
 11
183.25
 21
715.0
 31
0.0
  0
LINE
  5
202
330
17
100
AcDbEntity
  8
SLOT
100
AcDbLine
 10
183.75
 20
842.25
 30
0.0
 11
184.75
 21
848.0
 31
0.0
  0
LINE
  5
203
330
17
100
AcDbEntity
  8
CUT
100
AcDbLine
 10
184.75
 20
661.0
 30
0.0
 11
185.0
 21
645.5
 31
0.0
  0
LINE
  5
204
330
17
100
AcDbEntity
  8
CREASE
100
AcDbLine
 10
208.75
 20
698.5
 30
0.0
 11
211.25
 21
682.25
 31
0.0
  0
LINE
  5
205
330
17
100
AcDbEntity
  8
CUT
100
AcDbLine
 10
143.0
 20
847.75
 30
0.0
 11
145.0
 21
834.0
 31
0.0
  0
LINE
  5
206
330
17
100
AcDbEntity
  8
SLOT
100
AcDbLine
 10
151.0
 20
678.25
 30
0.0
 11
151.0
 21
685.75
 31
0.0
  0
LINE
  5
207
330
17
100
AcDbEntity
  8
CREASE
100
AcDbLine
 10
197.75
 20
717.0
 30
0.0
 11
201.25
 21
711.5
 31
0.0
  0
LINE
  5
208
330
17
100
AcDbEntity
  8
CREASE
100
AcDbLine
 10
152.0
 20
668.75
 30
0.0
 11
153.25
 21
674.75
 31
0.0
  0
LINE
  5
209
330
17
100
AcDbEntity
  8
CREASE
100
AcDbLine
 10
114.75
 20
683.5
 30
0.0
 11
130.75
 21
675.0
 31
0.0
  0
LINE
  5
20A
330
17
100
AcDbEntity
  8
SLOT
100
AcDbLine
 10
176.75
 20
681.75
 30
0.0
 11
177.75
 21
688.75
 31
0.0
  0
LINE
  5
20B
330
17
100
AcDbEntity
  8
FOLD
100
AcDbLine
 10
81.5
 20
816.75
 30
0.0
 11
81.5
 21
823.75
 31
0.0
  0
LINE
  5
20C
330
17
100
AcDbEntity
  8
FOLD
100
AcDbLine
 10
206.5
 20
920.25
 30
0.0
 11
207.25
 21
934.25
 31
0.0
  0
LINE
  5
20D
330
17
100
AcDbEntity
  8
SLOT
100
AcDbLine
 10
151.5
 20
669.0
 30
0.0
 11
153.25
 21
676.0
 31
0.0
  0
LINE
  5
20E
330
17
100
AcDbEntity
  8
CREASE
100
AcDbLine
 10
189.25
 20
636.25
 30
0.0
 11
189.75
 21
646.25
 31
0.0
  0
LINE
  5
20F
330
17
100
AcDbEntity
  8
BRIDGE
100
AcDbLine
 10
192.0
 20
685.0
 30
0.0
 11
192.0
 21
680.0
 31
0.0
  0
LINE
  5
210
330
17
100
AcDbEntity
  8
SLOT
100
AcDbLine
 10
126.5
 20
637.0
 30
0.0
 11
128.25
 21
643.0
 31
0.0
  0
LINE
  5
211
330
17
100
AcDbEntity
  8
CUT
100
AcDbLine
 10
154.5
 20
852.5
 30
0.0
 11
155.5
 21
838.75
 31
0.0
  0
LINE
  5
212
330
17
100
AcDbEntity
  8
FOLD
100
AcDbLine
 10
196.0
 20
676.0
 30
0.0
 11
211.25
 21
688.0
 31
0.0
  0
LINE
  5
213
330
17
100
AcDbEntity
  8
CREASE
100
AcDbLine
 10
184.75
 20
718.75
 30
0.0
 11
185.0
 21
726.5
 31
0.0
  0
LINE
  5
214
330
17
100
AcDbEntity
  8
CREASE
100
AcDbLine
 10
140.5
 20
633.5
 30
0.0
 11
142.75
 21
641.75
 31
0.0
  0
LINE
  5
215
330
17
100
AcDbEntity
  8
SLOT
100
AcDbLine
 10
171.75
 20
651.5
 30
0.0
 11
172.25
 21
658.0
 31
0.0
  0
LINE
  5
216
330
17
100
AcDbEntity
  8
CUT
100
AcDbLine
 10
132.5
 20
690.5
 30
0.0
 11
145.5
 21
695.5
 31
0.0
  0
LINE
  5
217
330
17
100
AcDbEntity
  8
CREASE
100
AcDbLine
 10
190.0
 20
642.0
 30
0.0
 11
190.25
 21
653.25
 31
0.0
  0
LINE
  5
218
330
17
100
AcDbEntity
  8
CREASE
100
AcDbLine
 10
150.25
 20
663.75
 30
0.0
 11
155.25
 21
654.25
 31
0.0
  0
LINE
  5
219
330
17
100
AcDbEntity
  8
CREASE
100
AcDbLine
 10
105.0
 20
678.75
 30
0.0
 11
105.0
 21
698.0
 31
0.0
  0
LINE
  5
21A
330
17
100
AcDbEntity
  8
CREASE
100
AcDbLine
 10
165.0
 20
711.25
 30
0.0
 11
166.5
 21
717.0
 31
0.0
  0
LINE
  5
21B
330
17
100
AcDbEntity
  8
CREASE
100
AcDbLine
 10
163.25
 20
657.25
 30
0.0
 11
163.75
 21
668.75
 31
0.0
  0
LINE
  5
21C
330
17
100
AcDbEntity
  8
CREASE
100
AcDbLine
 10
141.0
 20
664.75
 30
0.0
 11
145.5
 21
655.5
 31
0.0
  0
LINE
  5
21D
330
17
100
AcDbEntity
  8
FOLD
100
AcDbLine
 10
47.5
 20
886.25
 30
0.0
 11
73.0
 21
881.0
 31
0.0
  0
LINE
  5
21E
330
17
100
AcDbEntity
  8
FOLD
100
AcDbLine
 10
256.0
 20
822.75
 30
0.0
 11
256.0
 21
832.25
 31
0.0
  0
LINE
  5
21F
330
17
100
AcDbEntity
  8
CUT
100
AcDbLine
 10
136.25
 20
817.0
 30
0.0
 11
157.5
 21
817.0
 31
0.0
  0
LINE
  5
220
330
17
100
AcDbEntity
  8
CREASE
100
AcDbLine
 10
24.25
 20
958.75
 30
0.0
 11
27.25
 21
949.25
 31
0.0
  0
LINE
  5
221
330
17
100
AcDbEntity
  8
CREASE
100
AcDbLine
 10
147.75
 20
650.0
 30
0.0
 11
149.75
 21
644.5
 31
0.0
  0
LINE
  5
222
330
17
100
AcDbEntity
  8
SLOT
100
AcDbLine
 10
179.0
 20
715.5
 30
0.0
 11
180.0
 21
722.75
 31
0.0
  0
LINE
  5
223
330
17
100
AcDbEntity
  8
CREASE
100
AcDbLine
 10
140.25
 20
677.25
 30
0.0
 11
144.5
 21
670.5
 31
0.0
  0
LINE
  5
224
330
17
100
AcDbEntity
  8
FOLD
100
AcDbLine
 10
134.0
 20
692.5
 30
0.0
 11
152.25
 21
699.0
 31
0.0
  0
LINE
  5
225
330
17
100
AcDbEntity
  8
CREASE
100
AcDbLine
 10
192.25
 20
644.25
 30
0.0
 11
192.75
 21
635.75
 31
0.0
  0
LINE
  5
226
330
17
100
AcDbEntity
  8
CREASE
100
AcDbLine
 10
182.25
 20
671.0
 30
0.0
 11
182.5
 21
678.75
 31
0.0
  0
LINE
  5
227
330
17
100
AcDbEntity
  8
CREASE
100
AcDbLine
 10
204.25
 20
690.5
 30
0.0
 11
206.5
 21
684.5
 31
0.0
  0
LINE
  5
228
330
17
100
AcDbEntity
  8
CREASE
100
AcDbLine
 10
177.5
 20
676.0
 30
0.0
 11
177.5
 21
670.75
 31
0.0
  0
LINE
  5
229
330
17
100
AcDbEntity
  8
SLOT
100
AcDbLine
 10
195.75
 20
678.75
 30
0.0
 11
200.75
 21
683.75
 31
0.0
  0
LINE
  5
22A
330
17
100
AcDbEntity
  8
CREASE
100
AcDbLine
 10
179.25
 20
676.5
 30
0.0
 11
179.25
 21
670.0
 31
0.0
  0
LINE
  5
22B
330
17
100
AcDbEntity
  8
CREASE
100
AcDbLine
 10
174.25
 20
711.75
 30
0.0
 11
175.0
 21
717.0
 31
0.0
  0
LINE
  5
22C
330
17
100
AcDbEntity
  8
CUT
100
AcDbLine
 10
159.25
 20
664.5
 30
0.0
 11
161.25
 21
677.25
 31
0.0
  0
LINE
  5
22D
330
17
100
AcDbEntity
  8
SLOT
100
AcDbLine
 10
186.0
 20
637.75
 30
0.0
 11
186.25
 21
645.0
 31
0.0
  0
LINE
  5
22E
330
17
100
AcDbEntity
  8
CREASE
100
AcDbLine
 10
136.5
 20
807.25
 30
0.0
 11
141.0
 21
800.25
 31
0.0
  0
LINE
  5
22F
330
17
100
AcDbEntity
  8
CREASE
100
AcDbLine
 10
140.75
 20
672.25
 30
0.0
 11
143.5
 21
663.5
 31
0.0
  0
LINE
  5
230
330
17
100
AcDbEntity
  8
CREASE
100
AcDbLine
 10
191.5
 20
706.0
 30
0.0
 11
191.5
 21
712.75
 31
0.0
  0
LINE
  5
231
330
17
100
AcDbEntity
  8
CREASE
100
AcDbLine
 10
190.75
 20
808.25
 30
0.0
 11
191.0
 21
813.5
 31
0.0
  0
LINE
  5
232
330
17
100
AcDbEntity
  8
CUT
100
AcDbLine
 10
140.75
 20
633.0
 30
0.0
 11
144.0
 21
646.5
 31
0.0
  0
LINE
  5
233
330
17
100
AcDbEntity
  8
CREASE
100
AcDbLine
 10
187.25
 20
682.75
 30
0.0
 11
187.5
 21
690.25
 31
0.0
  0
LINE
  5
234
330
17
100
AcDbEntity
  8
SLOT
100
AcDbLine
 10
177.75
 20
673.25
 30
0.0
 11
177.75
 21
678.75
 31
0.0
  0
LINE
  5
235
330
17
100
AcDbEntity
  8
SLOT
100
AcDbLine
 10
143.25
 20
878.75
 30
0.0
 11
143.75
 21
873.75
 31
0.0
  0
LINE
  5
236
330
17
100
AcDbEntity
  8
SLOT
100
AcDbLine
 10
183.5
 20
652.75
 30
0.0
 11
183.5
 21
659.75
 31
0.0
  0
LINE
  5
237
330
17
100
AcDbEntity
  8
CREASE
100
AcDbLine
 10
239.5
 20
682.75
 30
0.0
 11
239.5
 21
693.5
 31
0.0
  0
LINE
  5
238
330
17
100
AcDbEntity
  8
CUT
100
AcDbLine
 10
137.25
 20
813.5
 30
0.0
 11
154.5
 21
813.5
 31
0.0
  0
LINE
  5
239
330
17
100
AcDbEntity
  8
FOLD
100
AcDbLine
 10
168.25
 20
921.25
 30
0.0
 11
182.0
 21
921.0
 31
0.0
  0
LINE
  5
23A
330
17
100
AcDbEntity
  8
CREASE
100
AcDbLine
 10
160.25
 20
622.5
 30
0.0
 11
177.0
 21
623.0
 31
0.0
  0
LINE
  5
23B
330
17
100
AcDbEntity
  8
CREASE
100
AcDbLine
 10
209.0
 20
903.25
 30
0.0
 11
209.75
 21
908.75
 31
0.0
  0
LINE
  5
23C
330
17
100
AcDbEntity
  8
CREASE
100
AcDbLine
 10
130.5
 20
690.75
 30
0.0
 11
134.75
 21
681.25
 31
0.0
  0
LINE
  5
23D
330
17
100
AcDbEntity
  8
SLOT
100
AcDbLine
 10
160.75
 20
705.75
 30
0.0
 11
161.75
 21
711.75
 31
0.0
  0
LINE
  5
23E
330
17
100
AcDbEntity
  8
SLOT
100
AcDbLine
 10
179.75
 20
713.75
 30
0.0
 11
180.0
 21
707.0
 31
0.0
  0
LINE
  5
23F
330
17
100
AcDbEntity
  8
SLOT
100
AcDbLine
 10
195.25
 20
844.0
 30
0.0
 11
195.5
 21
849.5
 31
0.0
  0
LINE
  5
240
330
17
100
AcDbEntity
  8
SLOT
100
AcDbLine
 10
180.75
 20
717.5
 30
0.0
 11
181.0
 21
722.5
 31
0.0
  0
LINE
  5
241
330
17
100
AcDbEntity
  8
CREASE
100
AcDbLine
 10
170.75
 20
703.25
 30
0.0
 11
177.75
 21
710.25
 31
0.0
  0
LINE
  5
242
330
17
100
AcDbEntity
  8
CREASE
100
AcDbLine
 10
69.0
 20
977.75
 30
0.0
 11
70.0
 21
971.75
 31
0.0
  0
LINE
  5
243
330
17
100
AcDbEntity
  8
CREASE
100
AcDbLine
 10
139.75
 20
669.25
 30
0.0
 11
145.0
 21
676.25
 31
0.0
  0
LINE
  5
244
330
17
100
AcDbEntity
  8
CREASE
100
AcDbLine
 10
210.75
 20
873.75
 30
0.0
 11
210.75
 21
884.5
 31
0.0
  0
LINE
  5
245
330
17
100
AcDbEntity
  8
BRIDGE
100
AcDbLine
 10
178.75
 20
650.75
 30
0.0
 11
181.25
 21
645.5
 31
0.0
  0
LINE
  5
246
330
17
100
AcDbEntity
  8
CREASE
100
AcDbLine
 10
31.5
 20
964.75
 30
0.0
 11
36.25
 21
957.25
 31
0.0
  0
LINE
  5
247
330
17
100
AcDbEntity
  8
CREASE
100
AcDbLine
 10
168.25
 20
965.0
 30
0.0
 11
169.0
 21
972.5
 31
0.0
  0
LINE
  5
248
330
17
100
AcDbEntity
  8
CUT
100
AcDbLine
 10
191.25
 20
678.25
 30
0.0
 11
207.0
 21
700.75
 31
0.0
  0
LINE
  5
249
330
17
100
AcDbEntity
  8
SLOT
100
AcDbLine
 10
170.5
 20
670.5
 30
0.0
 11
171.25
 21
676.0
 31
0.0
  0
LINE
  5
24A
330
17
100
AcDbEntity
  8
CREASE
100
AcDbLine
 10
122.0
 20
864.0
 30
0.0
 11
122.0
 21
873.5
 31
0.0
  0
LINE
  5
24B
330
17
100
AcDbEntity
  8
FOLD
100
AcDbLine
 10
270.25
 20
746.25
 30
0.0
 11
275.75
 21
746.5
 31
0.0
  0
LINE
  5
24C
330
17
100
AcDbEntity
  8
CREASE
100
AcDbLine
 10
194.0
 20
694.5
 30
0.0
 11
194.0
 21
688.0
 31
0.0
  0
LINE
  5
24D
330
17
100
AcDbEntity
  8
SLOT
100
AcDbLine
 10
195.0
 20
716.0
 30
0.0
 11
195.25
 21
709.25
 31
0.0
  0
LINE
  5
24E
330
17
100
AcDbEntity
  8
FOLD
100
AcDbLine
 10
134.25
 20
858.0
 30
0.0
 11
156.25
 21
858.0
 31
0.0
  0
LINE
  5
24F
330
17
100
AcDbEntity
  8
CREASE
100
AcDbLine
 10
163.25
 20
608.5
 30
0.0
 11
185.25
 21
609.25
 31
0.0
  0
LINE
  5
250
330
17
100
AcDbEntity
  8
CREASE
100
AcDbLine
 10
161.0
 20
705.25
 30
0.0
 11
162.25
 21
712.0
 31
0.0
  0
LINE
  5
251
330
17
100
AcDbEntity
  8
CREASE
100
AcDbLine
 10
119.5
 20
682.25
 30
0.0
 11
121.75
 21
676.0
 31
0.0
  0
LINE
  5
252
330
17
100
AcDbEntity
  8
CREASE
100
AcDbLine
 10
185.0
 20
718.5
 30
0.0
 11
185.5
 21
726.5
 31
0.0
  0
LINE
  5
253
330
17
100
AcDbEntity
  8
CREASE
100
AcDbLine
 10
143.75
 20
683.5
 30
0.0
 11
146.25
 21
692.5
 31
0.0
  0
LINE
  5
254
330
17
100
AcDbEntity
  8
CREASE
100
AcDbLine
 10
170.25
 20
682.75
 30
0.0
 11
173.25
 21
689.75
 31
0.0
  0
LINE
  5
255
330
17
100
AcDbEntity
  8
CREASE
100
AcDbLine
 10
178.5
 20
623.25
 30
0.0
 11
179.0
 21
628.25
 31
0.0
  0
LINE
  5
256
330
17
100
AcDbEntity
  8
CREASE
100
AcDbLine
 10
253.75
 20
772.75
 30
0.0
 11
266.5
 21
773.0
 31
0.0
  0
LINE
  5
257
330
17
100
AcDbEntity
  8
CREASE
100
AcDbLine
 10
131.25
 20
690.5
 30
0.0
 11
134.0
 21
681.75
 31
0.0
  0
LINE
  5
258
330
17
100
AcDbEntity
  8
CREASE
100
AcDbLine
 10
81.75
 20
891.5
 30
0.0
 11
87.75
 21
882.0
 31
0.0
  0
LINE
  5
259
330
17
100
AcDbEntity
  8
CREASE
100
AcDbLine
 10
148.0
 20
982.5
 30
0.0
 11
152.5
 21
974.5
 31
0.0
  0
LINE
  5
25A
330
17
100
AcDbEntity
  8
CREASE
100
AcDbLine
 10
202.5
 20
708.0
 30
0.0
 11
208.5
 21
698.5
 31
0.0
  0
LINE
  5
25B
330
17
100
AcDbEntity
  8
CREASE
100
AcDbLine
 10
134.25
 20
856.75
 30
0.0
 11
146.0
 21
857.0
 31
0.0
  0
LINE
  5
25C
330
17
100
AcDbEntity
  8
CREASE
100
AcDbLine
 10
140.0
 20
639.25
 30
0.0
 11
143.75
 21
646.5
 31
0.0
  0
LINE
  5
25D
330
17
100
AcDbEntity
  8
CREASE
100
AcDbLine
 10
188.75
 20
681.25
 30
0.0
 11
188.75
 21
691.5
 31
0.0
  0
LINE
  5
25E
330
17
100
AcDbEntity
  8
CREASE
100
AcDbLine
 10
198.5
 20
688.25
 30
0.0
 11
203.0
 21
680.75
 31
0.0
  0
LINE
  5
25F
330
17
100
AcDbEntity
  8
CREASE
100
AcDbLine
 10
28.25
 20
939.25
 30
0.0
 11
37.75
 21
942.25
 31
0.0
  0
LINE
  5
260
330
17
100
AcDbEntity
  8
CREASE
100
AcDbLine
 10
109.75
 20
631.25
 30
0.0
 11
131.0
 21
627.0
 31
0.0
  0
LINE
  5
261
330
17
100
AcDbEntity
  8
CREASE
100
AcDbLine
 10
93.25
 20
731.0
 30
0.0
 11
102.0
 21
731.25
 31
0.0
  0
LINE
  5
262
330
17
100
AcDbEntity
  8
SLOT
100
AcDbLine
 10
171.5
 20
634.25
 30
0.0
 11
172.0
 21
639.25
 31
0.0
  0
LINE
  5
263
330
17
100
AcDbEntity
  8
FOLD
100
AcDbLine
 10
33.75
 20
779.75
 30
0.0
 11
34.25
 21
800.75
 31
0.0
  0
LINE
  5
264
330
17
100
AcDbEntity
  8
CREASE
100
AcDbLine
 10
191.0
 20
850.0
 30
0.0
 11
191.0
 21
839.25
 31
0.0
  0
LINE
  5
265
330
17
100
AcDbEntity
  8
CREASE
100
AcDbLine
 10
146.25
 20
684.5
 30
0.0
 11
148.75
 21
677.0
 31
0.0
  0
LINE
  5
266
330
17
100
AcDbEntity
  8
CREASE
100
AcDbLine
 10
256.25
 20
860.25
 30
0.0
 11
256.25
 21
867.25
 31
0.0
  0
LINE
  5
267
330
17
100
AcDbEntity
  8
SLOT
100
AcDbLine
 10
149.5
 20
692.5
 30
0.0
 11
151.75
 21
698.75
 31
0.0
  0
LINE
  5
268
330
17
100
AcDbEntity
  8
CREASE
100
AcDbLine
 10
75.0
 20
808.0
 30
0.0
 11
75.0
 21
825.75
 31
0.0
  0
LINE
  5
269
330
17
100
AcDbEntity
  8
CREASE
100
AcDbLine
 10
153.0
 20
668.5
 30
0.0
 11
155.0
 21
677.0
 31
0.0
  0
LINE
  5
26A
330
17
100
AcDbEntity
  8
CREASE
100
AcDbLine
 10
82.5
 20
868.0
 30
0.0
 11
83.25
 21
863.0
 31
0.0
  0
LINE
  5
26B
330
17
100
AcDbEntity
  8
SLOT
100
AcDbLine
 10
176.25
 20
651.0
 30
0.0
 11
176.75
 21
657.5
 31
0.0
  0
LINE
  5
26C
330
17
100
AcDbEntity
  8
CUT
100
AcDbLine
 10
183.75
 20
660.0
 30
0.0
 11
184.0
 21
646.75
 31
0.0
  0
LINE
  5
26D
330
17
100
AcDbEntity
  8
CREASE
100
AcDbLine
 10
153.75
 20
682.5
 30
0.0
 11
156.25
 21
694.5
 31
0.0
  0
LINE
  5
26E
330
17
100
AcDbEntity
  8
CREASE
100
AcDbLine
 10
187.25
 20
672.75
 30
0.0
 11
194.5
 21
681.75
 31
0.0
  0
LINE
  5
26F
330
17
100
AcDbEntity
  8
FOLD
100
AcDbLine
 10
274.75
 20
775.5
 30
0.0
 11
286.5
 21
776.0
 31
0.0
  0
LINE
  5
270
330
17
100
AcDbEntity
  8
FOLD
100
AcDbLine
 10
204.5
 20
668.0
 30
0.0
 11
206.25
 21
674.0
 31
0.0
  0
LINE
  5
271
330
17
100
AcDbEntity
  8
SLOT
100
AcDbLine
 10
196.5
 20
844.0
 30
0.0
 11
197.0
 21
850.5
 31
0.0
  0
LINE
  5
272
330
17
100
AcDbEntity
  8
CREASE
100
AcDbLine
 10
271.5
 20
745.75
 30
0.0
 11
290.5
 21
745.75
 31
0.0
  0
LINE
  5
273
330
17
100
AcDbEntity
  8
CREASE
100
AcDbLine
 10
254.75
 20
870.75
 30
0.0
 11
257.75
 21
877.25
 31
0.0
  0
LINE
  5
274
330
17
100
AcDbEntity
  8
CREASE
100
AcDbLine
 10
136.25
 20
832.5
 30
0.0
 11
141.75
 21
834.75
 31
0.0
  0
LINE
  5
275
330
17
100
AcDbEntity
  8
BRIDGE
100
AcDbLine
 10
179.25
 20
683.75
 30
0.0
 11
184.5
 21
690.5
 31
0.0
  0
LINE
  5
276
330
17
100
AcDbEntity
  8
CREASE
100
AcDbLine
 10
139.25
 20
735.0
 30
0.0
 11
151.5
 21
735.0
 31
0.0
  0
LINE
  5
277
330
17
100
AcDbEntity
  8
CREASE
100
AcDbLine
 10
181.0
 20
648.0
 30
0.0
 11
182.5
 21
658.75
 31
0.0
  0
LINE
  5
278
330
17
100
AcDbEntity
  8
SLOT
100
AcDbLine
 10
179.5
 20
692.5
 30
0.0
 11
180.25
 21
699.5
 31
0.0
  0
LINE
  5
279
330
17
100
AcDbEntity
  8
CREASE
100
AcDbLine
 10
132.25
 20
691.25
 30
0.0
 11
135.5
 21
681.0
 31
0.0
  0
LINE
  5
27A
330
17
100
AcDbEntity
  8
CREASE
100
AcDbLine
 10
169.75
 20
631.75
 30
0.0
 11
170.5
 21
638.5
 31
0.0
  0
LINE
  5
27B
330
17
100
AcDbEntity
  8
CUT
100
AcDbLine
 10
190.0
 20
803.75
 30
0.0
 11
190.25
 21
813.25
 31
0.0
  0
LINE
  5
27C
330
17
100
AcDbEntity
  8
CREASE
100
AcDbLine
 10
150.25
 20
697.5
 30
0.0
 11
153.25
 21
690.0
 31
0.0
  0
LINE
  5
27D
330
17
100
AcDbEntity
  8
CREASE
100
AcDbLine
 10
171.75
 20
658.0
 30
0.0
 11
172.75
 21
652.25
 31
0.0
  0
LINE
  5
27E
330
17
100
AcDbEntity
  8
CREASE
100
AcDbLine
 10
172.0
 20
699.5
 30
0.0
 11
172.75
 21
707.25
 31
0.0
  0
LINE
  5
27F
330
17
100
AcDbEntity
  8
CREASE
100
AcDbLine
 10
130.75
 20
945.75
 30
0.0
 11
130.75
 21
940.0
 31
0.0
  0
LINE
  5
280
330
17
100
AcDbEntity
  8
CREASE
100
AcDbLine
 10
174.0
 20
844.75
 30
0.0
 11
174.25
 21
850.25
 31
0.0
  0
LINE
  5
281
330
17
100
AcDbEntity
  8
CREASE
100
AcDbLine
 10
190.25
 20
643.5
 30
0.0
 11
190.5
 21
633.5
 31
0.0
  0
LINE
  5
282
330
17
100
AcDbEntity
  8
CREASE
100
AcDbLine
 10
156.5
 20
690.75
 30
0.0
 11
158.25
 21
698.75
 31
0.0
  0
LINE
  5
283
330
17
100
AcDbEntity
  8
FOLD
100
AcDbLine
 10
148.5
 20
735.25
 30
0.0
 11
154.75
 21
735.25
 31
0.0
  0
LINE
  5
284
330
17
100
AcDbEntity
  8
CUT
100
AcDbLine
 10
110.0
 20
776.75
 30
0.0
 11
117.5
 21
777.25
 31
0.0
  0
LINE
  5
285
330
17
100
AcDbEntity
  8
CUT
100
AcDbLine
 10
115.75
 20
636.25
 30
0.0
 11
125.25
 21
653.25
 31
0.0
  0
LINE
  5
286
330
17
100
AcDbEntity
  8
FOLD
100
AcDbLine
 10
73.5
 20
772.5
 30
0.0
 11
74.25
 21
821.0
 31
0.0
  0
LINE
  5
287
330
17
100
AcDbEntity
  8
CREASE
100
AcDbLine
 10
139.75
 20
641.0
 30
0.0
 11
141.75
 21
633.25
 31
0.0
  0
LINE
  5
288
330
17
100
AcDbEntity
  8
CREASE
100
AcDbLine
 10
188.5
 20
714.75
 30
0.0
 11
188.5
 21
719.75
 31
0.0
  0
LINE
  5
289
330
17
100
AcDbEntity
  8
SLOT
100
AcDbLine
 10
105.75
 20
776.0
 30
0.0
 11
113.0
 21
776.0
 31
0.0
  0
LINE
  5
28A
330
17
100
AcDbEntity
  8
CREASE
100
AcDbLine
 10
156.25
 20
671.5
 30
0.0
 11
157.5
 21
679.25
 31
0.0
  0
LINE
  5
28B
330
17
100
AcDbEntity
  8
SLOT
100
AcDbLine
 10
154.25
 20
642.75
 30
0.0
 11
161.5
 21
650.0
 31
0.0
  0
LINE
  5
28C
330
17
100
AcDbEntity
  8
SLOT
100
AcDbLine
 10
184.0
 20
823.0
 30
0.0
 11
184.0
 21
817.0
 31
0.0
  0
LINE
  5
28D
330
17
100
AcDbEntity
  8
FOLD
100
AcDbLine
 10
148.75
 20
655.25
 30
0.0
 11
157.5
 21
664.5
 31
0.0
  0
LINE
  5
28E
330
17
100
AcDbEntity
  8
CREASE
100
AcDbLine
 10
151.75
 20
803.0
 30
0.0
 11
152.75
 21
794.5
 31
0.0
  0
LINE
  5
28F
330
17
100
AcDbEntity
  8
CREASE
100
AcDbLine
 10
82.0
 20
791.75
 30
0.0
 11
82.0
 21
801.25
 31
0.0
  0
LINE
  5
290
330
17
100
AcDbEntity
  8
CREASE
100
AcDbLine
 10
175.0
 20
681.0
 30
0.0
 11
176.0
 21
690.25
 31
0.0
  0
LINE
  5
291
330
17
100
AcDbEntity
  8
CREASE
100
AcDbLine
 10
136.25
 20
810.5
 30
0.0
 11
140.75
 21
802.25
 31
0.0
  0
LINE
  5
292
330
17
100
AcDbEntity
  8
FOLD
100
AcDbLine
 10
264.75
 20
890.75
 30
0.0
 11
283.25
 21
892.75
 31
0.0
  0
LINE
  5
293
330
17
100
AcDbEntity
  8
SLOT
100
AcDbLine
 10
163.0
 20
640.5
 30
0.0
 11
165.5
 21
634.75
 31
0.0
  0
LINE
  5
294
330
17
100
AcDbEntity
  8
CUT
100
AcDbLine
 10
137.75
 20
688.5
 30
0.0
 11
145.25
 21
672.75
 31
0.0
  0
LINE
  5
295
330
17
100
AcDbEntity
  8
CREASE
100
AcDbLine
 10
166.0
 20
684.5
 30
0.0
 11
166.75
 21
693.0
 31
0.0
  0
LINE
  5
296
330
17
100
AcDbEntity
  8
CREASE
100
AcDbLine
 10
47.25
 20
885.25
 30
0.0
 11
61.0
 21
882.25
 31
0.0
  0
LINE
  5
297
330
17
100
AcDbEntity
  8
SLOT
100
AcDbLine
 10
165.5
 20
669.25
 30
0.0
 11
168.0
 21
662.75
 31
0.0
  0
LINE
  5
298
330
17
100
AcDbEntity
  8
SLOT
100
AcDbLine
 10
182.75
 20
650.75
 30
0.0
 11
182.75
 21
656.25
 31
0.0
  0
LINE
  5
299
330
17
100
AcDbEntity
  8
SLOT
100
AcDbLine
 10
181.25
 20
642.25
 30
0.0
 11
182.0
 21
649.5
 31
0.0
  0
LINE
  5
29A
330
17
100
AcDbEntity
  8
SLOT
100
AcDbLine
 10
196.75
 20
680.0
 30
0.0
 11
197.0
 21
674.5
 31
0.0
  0
LINE
  5
29B
330
17
100
AcDbEntity
  8
CREASE
100
AcDbLine
 10
191.75
 20
712.5
 30
0.0
 11
192.25
 21
704.25
 31
0.0
  0
LINE
  5
29C
330
17
100
AcDbEntity
  8
CUT
100
AcDbLine
 10
26.5
 20
966.25
 30
0.0
 11
35.5
 21
957.25
 31
0.0
  0
LINE
  5
29D
330
17
100
AcDbEntity
  8
CREASE
100
AcDbLine
 10
36.25
 20
838.75
 30
0.0
 11
36.5
 21
852.0
 31
0.0
  0
LINE
  5
29E
330
17
100
AcDbEntity
  8
CREASE
100
AcDbLine
 10
144.0
 20
639.5
 30
0.0
 11
145.75
 21
648.25
 31
0.0
  0
LINE
  5
29F
330
17
100
AcDbEntity
  8
CREASE
100
AcDbLine
 10
140.25
 20
798.0
 30
0.0
 11
143.5
 21
793.0
 31
0.0
  0
LINE
  5
2A0
330
17
100
AcDbEntity
  8
CREASE
100
AcDbLine
 10
172.75
 20
691.75
 30
0.0
 11
173.0
 21
696.75
 31
0.0
  0
LINE
  5
2A1
330
17
100
AcDbEntity
  8
CREASE
100
AcDbLine
 10
171.0
 20
670.25
 30
0.0
 11
171.75
 21
677.0
 31
0.0
  0
LINE
  5
2A2
330
17
100
AcDbEntity
  8
CREASE
100
AcDbLine
 10
48.75
 20
749.25
 30
0.0
 11
50.0
 21
769.75
 31
0.0
  0
LINE
  5
2A3
330
17
100
AcDbEntity
  8
CUT
100
AcDbLine
 10
199.0
 20
711.25
 30
0.0
 11
209.0
 21
695.25
 31
0.0
  0
LINE
  5
2A4
330
17
100
AcDbEntity
  8
CUT
100
AcDbLine
 10
160.75
 20
655.75
 30
0.0
 11
162.25
 21
668.75
 31
0.0
  0
LINE
  5
2A5
330
17
100
AcDbEntity
  8
CUT
100
AcDbLine
 10
157.5
 20
654.25
 30
0.0
 11
160.75
 21
677.5
 31
0.0
  0
LINE
  5
2A6
330
17
100
AcDbEntity
  8
CREASE
100
AcDbLine
 10
193.75
 20
636.5
 30
0.0
 11
193.75
 21
641.5
 31
0.0
  0
LINE
  5
2A7
330
17
100
AcDbEntity
  8
CREASE
100
AcDbLine
 10
166.75
 20
677.75
 30
0.0
 11
168.0
 21
686.25
 31
0.0
  0
LINE
  5
2A8
330
17
100
AcDbEntity
  8
CREASE
100
AcDbLine
 10
121.0
 20
780.5
 30
0.0
 11
123.25
 21
775.0
 31
0.0
  0
LINE
  5
2A9
330
17
100
AcDbEntity
  8
CUT
100
AcDbLine
 10
135.5
 20
651.75
 30
0.0
 11
136.25
 21
662.75
 31
0.0
  0
LINE
  5
2AA
330
17
100
AcDbEntity
  8
CREASE
100
AcDbLine
 10
151.5
 20
654.5
 30
0.0
 11
152.5
 21
660.75
 31
0.0
  0
LINE
  5
2AB
330
17
100
AcDbEntity
  8
CREASE
100
AcDbLine
 10
205.0
 20
696.0
 30
0.0
 11
208.5
 21
685.25
 31
0.0
  0
LINE
  5
2AC
330
17
100
AcDbEntity
  8
FOLD
100
AcDbLine
 10
122.75
 20
680.25
 30
0.0
 11
134.75
 21
675.0
 31
0.0
  0
LINE
  5
2AD
330
17
100
AcDbEntity
  8
CREASE
100
AcDbLine
 10
192.5
 20
635.75
 30
0.0
 11
196.25
 21
645.0
 31
0.0
  0
LINE
  5
2AE
330
17
100
AcDbEntity
  8
CUT
100
AcDbLine
 10
138.25
 20
687.25
 30
0.0
 11
145.0
 21
672.5
 31
0.0
  0
LINE
  5
2AF
330
17
100
AcDbEntity
  8
CREASE
100
AcDbLine
 10
216.0
 20
867.0
 30
0.0
 11
222.5
 21
869.75
 31
0.0
  0
LINE
  5
2B0
330
17
100
AcDbEntity
  8
SLOT
100
AcDbLine
 10
176.25
 20
702.25
 30
0.0
 11
179.5
 21
696.0
 31
0.0
  0
LINE
  5
2B1
330
17
100
AcDbEntity
  8
CREASE
100
AcDbLine
 10
233.5
 20
912.25
 30
0.0
 11
256.0
 21
914.0
 31
0.0
  0
LINE
  5
2B2
330
17
100
AcDbEntity
  8
CREASE
100
AcDbLine
 10
179.5
 20
644.5
 30
0.0
 11
180.25
 21
654.25
 31
0.0
  0
LINE
  5
2B3
330
17
100
AcDbEntity
  8
CREASE
100
AcDbLine
 10
212.0
 20
778.0
 30
0.0
 11
217.75
 21
772.0
 31
0.0
  0
LINE
  5
2B4
330
17
100
AcDbEntity
  8
CREASE
100
AcDbLine
 10
186.5
 20
646.75
 30
0.0
 11
186.5
 21
658.75
 31
0.0
  0
LINE
  5
2B5
330
17
100
AcDbEntity
  8
CUT
100
AcDbLine
 10
96.5
 20
735.75
 30
0.0
 11
118.25
 21
736.0
 31
0.0
  0
LINE
  5
2B6
330
17
100
AcDbEntity
  8
CREASE
100
AcDbLine
 10
148.25
 20
646.25
 30
0.0
 11
156.25
 21
649.75
 31
0.0
  0
LINE
  5
2B7
330
17
100
AcDbEntity
  8
CUT
100
AcDbLine
 10
150.5
 20
687.75
 30
0.0
 11
158.75
 21
698.5
 31
0.0
  0
LINE
  5
2B8
330
17
100
AcDbEntity
  8
SLOT
100
AcDbLine
 10
153.5
 20
699.0
 30
0.0
 11
155.5
 21
694.0
 31
0.0
  0
LINE
  5
2B9
330
17
100
AcDbEntity
  8
CREASE
100
AcDbLine
 10
165.5
 20
630.25
 30
0.0
 11
166.25
 21
638.0
 31
0.0
  0
LINE
  5
2BA
330
17
100
AcDbEntity
  8
CREASE
100
AcDbLine
 10
20.75
 20
944.25
 30
0.0
 11
27.75
 21
950.25
 31
0.0
  0
LINE
  5
2BB
330
17
100
AcDbEntity
  8
SLOT
100
AcDbLine
 10
185.5
 20
804.25
 30
0.0
 11
185.5
 21
798.5
 31
0.0
  0
LINE
  5
2BC
330
17
100
AcDbEntity
  8
CREASE
100
AcDbLine
 10
153.0
 20
687.75
 30
0.0
 11
155.5
 21
699.0
 31
0.0
  0
LINE
  5
2BD
330
17
100
AcDbEntity
  8
FOLD
100
AcDbLine
 10
303.0
 20
846.0
 30
0.0
 11
303.25
 21
827.25
 31
0.0
  0
LINE
  5
2BE
330
17
100
AcDbEntity
  8
CREASE
100
AcDbLine
 10
209.25
 20
734.5
 30
0.0
 11
218.25
 21
734.0
 31
0.0
  0
LINE
  5
2BF
330
17
100
AcDbEntity
  8
CREASE
100
AcDbLine
 10
193.5
 20
646.0
 30
0.0
 11
193.5
 21
651.75
 31
0.0
  0
LINE
  5
2C0
330
17
100
AcDbEntity
  8
CREASE
100
AcDbLine
 10
204.25
 20
691.75
 30
0.0
 11
207.0
 21
700.5
 31
0.0
  0
LINE
  5
2C1
330
17
100
AcDbEntity
  8
SLOT
100
AcDbLine
 10
185.75
 20
796.25
 30
0.0
 11
185.75
 21
801.5
 31
0.0
  0
LINE
  5
2C2
330
17
100
AcDbEntity
  8
CREASE
100
AcDbLine
 10
211.5
 20
664.75
 30
0.0
 11
211.5
 21
673.75
 31
0.0
  0
LINE
  5
2C3
330
17
100
AcDbEntity
  8
CREASE
100
AcDbLine
 10
171.0
 20
665.25
 30
0.0
 11
172.25
 21
676.0
 31
0.0
  0
LINE
  5
2C4
330
17
100
AcDbEntity
  8
BRIDGE
100
AcDbLine
 10
146.0
 20
850.5
 30
0.0
 11
147.0
 21
842.5
 31
0.0
  0
LINE
  5
2C5
330
17
100
AcDbEntity
  8
SLOT
100
AcDbLine
 10
180.5
 20
645.25
 30
0.0
 11
181.0
 21
650.5
 31
0.0
  0
LINE
  5
2C6
330
17
100
AcDbEntity
  8
CREASE
100
AcDbLine
 10
151.0
 20
659.5
 30
0.0
 11
152.75
 21
654.25
 31
0.0
  0
LINE
  5
2C7
330
17
100
AcDbEntity
  8
CREASE
100
AcDbLine
 10
216.25
 20
772.0
 30
0.0
 11
221.5
 21
772.0
 31
0.0
  0
LINE
  5
2C8
330
17
100
AcDbEntity
  8
CREASE
100
AcDbLine
 10
192.0
 20
841.25
 30
0.0
 11
194.5
 21
848.5
 31
0.0
  0
LINE
  5
2C9
330
17
100
AcDbEntity
  8
CREASE
100
AcDbLine
 10
184.75
 20
730.5
 30
0.0
 11
185.25
 21
735.5
 31
0.0
  0
LINE
  5
2CA
330
17
100
AcDbEntity
  8
BRIDGE
100
AcDbLine
 10
74.75
 20
983.25
 30
0.0
 11
81.25
 21
987.5
 31
0.0
  0
LINE
  5
2CB
330
17
100
AcDbEntity
  8
CREASE
100
AcDbLine
 10
54.0
 20
920.75
 30
0.0
 11
85.5
 21
917.5
 31
0.0
  0
LINE
  5
2CC
330
17
100
AcDbEntity
  8
CUT
100
AcDbLine
 10
3.75
 20
930.0
 30
0.0
 11
18.0
 21
944.25
 31
0.0
  0
LINE
  5
2CD
330
17
100
AcDbEntity
  8
CREASE
100
AcDbLine
 10
190.25
 20
708.75
 30
0.0
 11
190.25
 21
718.75
 31
0.0
  0
LINE
  5
2CE
330
17
100
AcDbEntity
  8
SLOT
100
AcDbLine
 10
208.75
 20
692.5
 30
0.0
 11
210.0
 21
682.0
 31
0.0
  0
LINE
  5
2CF
330
17
100
AcDbEntity
  8
CREASE
100
AcDbLine
 10
186.25
 20
699.5
 30
0.0
 11
190.25
 21
693.0
 31
0.0
  0
LINE
  5
2D0
330
17
100
AcDbEntity
  8
CREASE
100
AcDbLine
 10
154.5
 20
668.0
 30
0.0
 11
156.25
 21
677.0
 31
0.0
  0
LINE
  5
2D1
330
17
100
AcDbEntity
  8
CUT
100
AcDbLine
 10
186.0
 20
645.5
 30
0.0
 11
186.0
 21
661.75
 31
0.0
  0
LINE
  5
2D2
330
17
100
AcDbEntity
  8
SLOT
100
AcDbLine
 10
193.75
 20
713.0
 30
0.0
 11
193.75
 21
707.0
 31
0.0
  0
LINE
  5
2D3
330
17
100
AcDbEntity
  8
CREASE
100
AcDbLine
 10
176.25
 20
706.5
 30
0.0
 11
183.75
 21
714.0
 31
0.0
  0
LINE
  5
2D4
330
17
100
AcDbEntity
  8
CREASE
100
AcDbLine
 10
170.75
 20
632.25
 30
0.0
 11
171.25
 21
638.75
 31
0.0
  0
LINE
  5
2D5
330
17
100
AcDbEntity
  8
CREASE
100
AcDbLine
 10
143.75
 20
639.75
 30
0.0
 11
145.5
 21
648.0
 31
0.0
  0
LINE
  5
2D6
330
17
100
AcDbEntity
  8
CREASE
100
AcDbLine
 10
171.25
 20
684.75
 30
0.0
 11
172.25
 21
695.25
 31
0.0
  0
LINE
  5
2D7
330
17
100
AcDbEntity
  8
CUT
100
AcDbLine
 10
130.5
 20
694.0
 30
0.0
 11
135.25
 21
681.0
 31
0.0
  0
LINE
  5
2D8
330
17
100
AcDbEntity
  8
CREASE
100
AcDbLine
 10
137.5
 20
688.25
 30
0.0
 11
140.75
 21
678.0
 31
0.0
  0
LINE
  5
2D9
330
17
100
AcDbEntity
  8
SLOT
100
AcDbLine
 10
175.0
 20
844.75
 30
0.0
 11
175.25
 21
850.5
 31
0.0
  0
LINE
  5
2DA
330
17
100
AcDbEntity
  8
CUT
100
AcDbLine
 10
54.0
 20
772.0
 30
0.0
 11
64.0
 21
771.75
 31
0.0
  0
LINE
  5
2DB
330
17
100
AcDbEntity
  8
CREASE
100
AcDbLine
 10
181.5
 20
670.5
 30
0.0
 11
182.25
 21
678.75
 31
0.0
  0
LINE
  5
2DC
330
17
100
AcDbEntity
  8
CREASE
100
AcDbLine
 10
188.0
 20
651.5
 30
0.0
 11
188.25
 21
641.75
 31
0.0
  0
LINE
  5
2DD
330
17
100
AcDbEntity
  8
CREASE
100
AcDbLine
 10
172.75
 20
962.5
 30
0.0
 11
179.25
 21
958.0
 31
0.0
  0
LINE
  5
2DE
330
17
100
AcDbEntity
  8
SLOT
100
AcDbLine
 10
188.5
 20
684.0
 30
0.0
 11
191.25
 21
679.0
 31
0.0
  0
LINE
  5
2DF
330
17
100
AcDbEntity
  8
SLOT
100
AcDbLine
 10
189.0
 20
644.5
 30
0.0
 11
189.0
 21
651.5
 31
0.0
  0
LINE
  5
2E0
330
17
100
AcDbEntity
  8
FOLD
100
AcDbLine
 10
121.0
 20
808.5
 30
0.0
 11
121.25
 21
821.75
 31
0.0
  0
LINE
  5
2E1
330
17
100
AcDbEntity
  8
CREASE
100
AcDbLine
 10
187.5
 20
652.25
 30
0.0
 11
187.5
 21
658.5
 31
0.0
  0
LINE
  5
2E2
330
17
100
AcDbEntity
  8
SLOT
100
AcDbLine
 10
164.75
 20
663.0
 30
0.0
 11
165.25
 21
669.25
 31
0.0
  0
LINE
  5
2E3
330
17
100
AcDbEntity
  8
CREASE
100
AcDbLine
 10
164.0
 20
679.75
 30
0.0
 11
170.0
 21
685.25
 31
0.0
  0
LINE
  5
2E4
330
17
100
AcDbEntity
  8
CUT
100
AcDbLine
 10
125.25
 20
651.75
 30
0.0
 11
138.0
 21
664.5
 31
0.0
  0
LINE
  5
2E5
330
17
100
AcDbEntity
  8
CREASE
100
AcDbLine
 10
176.0
 20
721.0
 30
0.0
 11
180.0
 21
713.75
 31
0.0
  0
LINE
  5
2E6
330
17
100
AcDbEntity
  8
CREASE
100
AcDbLine
 10
164.0
 20
657.75
 30
0.0
 11
165.0
 21
669.0
 31
0.0
  0
LINE
  5
2E7
330
17
100
AcDbEntity
  8
CUT
100
AcDbLine
 10
140.0
 20
681.75
 30
0.0
 11
144.0
 21
669.75
 31
0.0
  0
LINE
  5
2E8
330
17
100
AcDbEntity
  8
SLOT
100
AcDbLine
 10
155.5
 20
670.25
 30
0.0
 11
156.75
 21
677.5
 31
0.0
  0
LINE
  5
2E9
330
17
100
AcDbEntity
  8
SLOT
100
AcDbLine
 10
187.0
 20
683.25
 30
0.0
 11
187.0
 21
689.75
 31
0.0
  0
LINE
  5
2EA
330
17
100
AcDbEntity
  8
CREASE
100
AcDbLine
 10
239.25
 20
663.0
 30
0.0
 11
239.5
 21
643.0
 31
0.0
  0
LINE
  5
2EB
330
17
100
AcDbEntity
  8
CREASE
100
AcDbLine
 10
195.0
 20
679.25
 30
0.0
 11
195.0
 21
690.5
 31
0.0
  0
LINE
  5
2EC
330
17
100
AcDbEntity
  8
CREASE
100
AcDbLine
 10
18.5
 20
943.75
 30
0.0
 11
24.25
 21
937.75
 31
0.0
  0
LINE
  5
2ED
330
17
100
AcDbEntity
  8
CREASE
100
AcDbLine
 10
171.25
 20
687.75
 30
0.0
 11
172.0
 21
696.75
 31
0.0
  0
LINE
  5
2EE
330
17
100
AcDbEntity
  8
CREASE
100
AcDbLine
 10
142.75
 20
683.75
 30
0.0
 11
145.5
 21
693.25
 31
0.0
  0
LINE
  5
2EF
330
17
100
AcDbEntity
  8
SLOT
100
AcDbLine
 10
199.5
 20
697.75
 30
0.0
 11
203.0
 21
691.75
 31
0.0
  0
LINE
  5
2F0
330
17
100
AcDbEntity
  8
CREASE
100
AcDbLine
 10
192.75
 20
705.75
 30
0.0
 11
199.5
 21
715.25
 31
0.0
  0
LINE
  5
2F1
330
17
100
AcDbEntity
  8
CREASE
100
AcDbLine
 10
216.75
 20
630.5
 30
0.0
 11
236.0
 21
636.75
 31
0.0
  0
LINE
  5
2F2
330
17
100
AcDbEntity
  8
SLOT
100
AcDbLine
 10
187.75
 20
632.5
 30
0.0
 11
188.25
 21
637.5
 31
0.0
  0
LINE
  5
2F3
330
17
100
AcDbEntity
  8
CREASE
100
AcDbLine
 10
138.0
 20
685.0
 30
0.0
 11
149.5
 21
698.25
 31
0.0
  0
LINE
  5
2F4
330
17
100
AcDbEntity
  8
SLOT
100
AcDbLine
 10
174.75
 20
702.25
 30
0.0
 11
177.5
 21
697.0
 31
0.0
  0
LINE
  5
2F5
330
17
100
AcDbEntity
  8
CREASE
100
AcDbLine
 10
159.5
 20
629.25
 30
0.0
 11
160.75
 21
641.5
 31
0.0
  0
LINE
  5
2F6
330
17
100
AcDbEntity
  8
CREASE
100
AcDbLine
 10
182.25
 20
665.25
 30
0.0
 11
189.75
 21
672.75
 31
0.0
  0
LINE
  5
2F7
330
17
100
AcDbEntity
  8
SLOT
100
AcDbLine
 10
186.75
 20
651.75
 30
0.0
 11
187.0
 21
657.5
 31
0.0
  0
LINE
  5
2F8
330
17
100
AcDbEntity
  8
CREASE
100
AcDbLine
 10
155.75
 20
655.25
 30
0.0
 11
156.75
 21
663.5
 31
0.0
  0
LINE
  5
2F9
330
17
100
AcDbEntity
  8
SLOT
100
AcDbLine
 10
178.75
 20
689.75
 30
0.0
 11
178.75
 21
695.5
 31
0.0
  0
LINE
  5
2FA
330
17
100
AcDbEntity
  8
CREASE
100
AcDbLine
 10
155.0
 20
615.25
 30
0.0
 11
157.0
 21
609.25
 31
0.0
  0
LINE
  5
2FB
330
17
100
AcDbEntity
  8
CREASE
100
AcDbLine
 10
104.75
 20
686.75
 30
0.0
 11
104.75
 21
680.25
 31
0.0
  0
LINE
  5
2FC
330
17
100
AcDbEntity
  8
SLOT
100
AcDbLine
 10
210.5
 20
879.75
 30
0.0
 11
210.5
 21
873.75
 31
0.0
  0
LINE
  5
2FD
330
17
100
AcDbEntity
  8
CREASE
100
AcDbLine
 10
149.5
 20
687.75
 30
0.0
 11
157.25
 21
697.5
 31
0.0
  0
LINE
  5
2FE
330
17
100
AcDbEntity
  8
CREASE
100
AcDbLine
 10
304.5
 20
827.25
 30
0.0
 11
305.25
 21
808.5
 31
0.0
  0
LINE
  5
2FF
330
17
100
AcDbEntity
  8
CREASE
100
AcDbLine
 10
146.75
 20
639.0
 30
0.0
 11
149.0
 21
632.25
 31
0.0
  0
LINE
  5
300
330
17
100
AcDbEntity
  8
CUT
100
AcDbLine
 10
154.25
 20
681.5
 30
0.0
 11
161.25
 21
697.75
 31
0.0
  0
LINE
  5
301
330
17
100
AcDbEntity
  8
SLOT
100
AcDbLine
 10
169.5
 20
637.75
 30
0.0
 11
171.5
 21
632.5
 31
0.0
  0
LINE
  5
302
330
17
100
AcDbEntity
  8
CREASE
100
AcDbLine
 10
194.75
 20
714.5
 30
0.0
 11
199.0
 21
707.5
 31
0.0
  0
LINE
  5
303
330
17
100
AcDbEntity
  8
CREASE
100
AcDbLine
 10
263.5
 20
863.25
 30
0.0
 11
263.5
 21
873.25
 31
0.0
  0
LINE
  5
304
330
17
100
AcDbEntity
  8
SLOT
100
AcDbLine
 10
165.5
 20
680.25
 30
0.0
 11
167.75
 21
674.75
 31
0.0
  0
LINE
  5
305
330
17
100
AcDbEntity
  8
CREASE
100
AcDbLine
 10
132.25
 20
692.25
 30
0.0
 11
134.75
 21
684.25
 31
0.0
  0
LINE
  5
306
330
17
100
AcDbEntity
  8
CREASE
100
AcDbLine
 10
170.5
 20
632.0
 30
0.0
 11
170.75
 21
638.5
 31
0.0
  0
LINE
  5
307
330
17
100
AcDbEntity
  8
SLOT
100
AcDbLine
 10
136.5
 20
686.5
 30
0.0
 11
138.75
 21
680.5
 31
0.0
  0
LINE
  5
308
330
17
100
AcDbEntity
  8
SLOT
100
AcDbLine
 10
180.75
 20
624.0
 30
0.0
 11
181.75
 21
617.75
 31
0.0
  0
LINE
  5
309
330
17
100
AcDbEntity
  8
CREASE
100
AcDbLine
 10
130.25
 20
636.0
 30
0.0
 11
135.75
 21
646.0
 31
0.0
  0
LINE
  5
30A
330
17
100
AcDbEntity
  8
CREASE
100
AcDbLine
 10
177.5
 20
628.75
 30
0.0
 11
178.25
 21
623.25
 31
0.0
  0
LINE
  5
30B
330
17
100
AcDbEntity
  8
CREASE
100
AcDbLine
 10
148.5
 20
656.5
 30
0.0
 11
155.5
 21
663.5
 31
0.0
  0
LINE
  5
30C
330
17
100
AcDbEntity
  8
CREASE
100
AcDbLine
 10
179.75
 20
694.5
 30
0.0
 11
183.0
 21
688.25
 31
0.0
  0
LINE
  5
30D
330
17
100
AcDbEntity
  8
CREASE
100
AcDbLine
 10
189.5
 20
633.0
 30
0.0
 11
194.5
 21
643.0
 31
0.0
  0
LINE
  5
30E
330
17
100
AcDbEntity
  8
CREASE
100
AcDbLine
 10
165.25
 20
711.0
 30
0.0
 11
165.75
 21
706.0
 31
0.0
  0
LINE
  5
30F
330
17
100
AcDbEntity
  8
BRIDGE
100
AcDbLine
 10
148.0
 20
836.5
 30
0.0
 11
156.0
 21
840.0
 31
0.0
  0
LINE
  5
310
330
17
100
AcDbEntity
  8
CREASE
100
AcDbLine
 10
136.75
 20
687.0
 30
0.0
 11
141.25
 21
674.5
 31
0.0
  0
LINE
  5
311
330
17
100
AcDbEntity
  8
FOLD
100
AcDbLine
 10
35.0
 20
825.25
 30
0.0
 11
35.0
 21
838.0
 31
0.0
  0
LINE
  5
312
330
17
100
AcDbEntity
  8
CREASE
100
AcDbLine
 10
29.0
 20
938.0
 30
0.0
 11
37.0
 21
940.5
 31
0.0
  0
LINE
  5
313
330
17
100
AcDbEntity
  8
SLOT
100
AcDbLine
 10
188.5
 20
691.25
 30
0.0
 11
188.5
 21
685.0
 31
0.0
  0
LINE
  5
314
330
17
100
AcDbEntity
  8
SLOT
100
AcDbLine
 10
161.0
 20
656.0
 30
0.0
 11
161.5
 21
661.25
 31
0.0
  0
LINE
  5
315
330
17
100
AcDbEntity
  8
SLOT
100
AcDbLine
 10
152.5
 20
668.5
 30
0.0
 11
153.75
 21
675.25
 31
0.0
  0
LINE
  5
316
330
17
100
AcDbEntity
  8
CREASE
100
AcDbLine
 10
147.5
 20
650.0
 30
0.0
 11
149.5
 21
644.25
 31
0.0
  0
LINE
  5
317
330
17
100
AcDbEntity
  8
CREASE
100
AcDbLine
 10
51.25
 20
903.0
 30
0.0
 11
51.25
 21
910.5
 31
0.0
  0
LINE
  5
318
330
17
100
AcDbEntity
  8
SLOT
100
AcDbLine
 10
191.25
 20
673.0
 30
0.0
 11
193.75
 21
666.75
 31
0.0
  0
LINE
  5
319
330
17
100
AcDbEntity
  8
CREASE
100
AcDbLine
 10
126.5
 20
669.75
 30
0.0
 11
132.75
 21
675.75
 31
0.0
  0
LINE
  5
31A
330
17
100
AcDbEntity
  8
SLOT
100
AcDbLine
 10
199.0
 20
651.0
 30
0.0
 11
199.5
 21
645.25
 31
0.0
  0
LINE
  5
31B
330
17
100
AcDbEntity
  8
BRIDGE
100
AcDbLine
 10
210.75
 20
706.5
 30
0.0
 11
210.75
 21
713.0
 31
0.0
  0
LINE
  5
31C
330
17
100
AcDbEntity
  8
SLOT
100
AcDbLine
 10
127.0
 20
636.0
 30
0.0
 11
130.25
 21
641.25
 31
0.0
  0
LINE
  5
31D
330
17
100
AcDbEntity
  8
SLOT
100
AcDbLine
 10
175.25
 20
696.5
 30
0.0
 11
175.75
 21
702.5
 31
0.0
  0
LINE
  5
31E
330
17
100
AcDbEntity
  8
FOLD
100
AcDbLine
 10
212.0
 20
770.25
 30
0.0
 11
212.5
 21
754.75
 31
0.0
  0
LINE
  5
31F
330
17
100
AcDbEntity
  8
SLOT
100
AcDbLine
 10
172.0
 20
681.5
 30
0.0
 11
172.75
 21
688.0
 31
0.0
  0
LINE
  5
320
330
17
100
AcDbEntity
  8
SLOT
100
AcDbLine
 10
149.5
 20
840.0
 30
0.0
 11
149.5
 21
833.75
 31
0.0
  0
LINE
  5
321
330
17
100
AcDbEntity
  8
CREASE
100
AcDbLine
 10
114.25
 20
681.0
 30
0.0
 11
116.0
 21
673.5
 31
0.0
  0
LINE
  5
322
330
17
100
AcDbEntity
  8
CREASE
100
AcDbLine
 10
14.5
 20
943.0
 30
0.0
 11
20.5
 21
937.0
 31
0.0
  0
LINE
  5
323
330
17
100
AcDbEntity
  8
CREASE
100
AcDbLine
 10
87.75
 20
882.25
 30
0.0
 11
101.0
 21
880.75
 31
0.0
  0
LINE
  5
324
330
17
100
AcDbEntity
  8
CREASE
100
AcDbLine
 10
189.25
 20
644.75
 30
0.0
 11
189.25
 21
655.0
 31
0.0
  0
LINE
  5
325
330
17
100
AcDbEntity
  8
SLOT
100
AcDbLine
 10
156.0
 20
629.25
 30
0.0
 11
156.75
 21
635.0
 31
0.0
  0
LINE
  5
326
330
17
100
AcDbEntity
  8
CREASE
100
AcDbLine
 10
148.5
 20
683.0
 30
0.0
 11
157.0
 21
691.5
 31
0.0
  0
LINE
  5
327
330
17
100
AcDbEntity
  8
CUT
100
AcDbLine
 10
196.0
 20
877.0
 30
0.0
 11
211.75
 21
877.0
 31
0.0
  0
LINE
  5
328
330
17
100
AcDbEntity
  8
CREASE
100
AcDbLine
 10
164.25
 20
681.5
 30
0.0
 11
165.0
 21
688.0
 31
0.0
  0
LINE
  5
329
330
17
100
AcDbEntity
  8
CREASE
100
AcDbLine
 10
31.75
 20
973.0
 30
0.0
 11
37.0
 21
964.75
 31
0.0
  0
LINE
  5
32A
330
17
100
AcDbEntity
  8
SLOT
100
AcDbLine
 10
167.0
 20
630.75
 30
0.0
 11
167.5
 21
637.25
 31
0.0
  0
LINE
  5
32B
330
17
100
AcDbEntity
  8
CREASE
100
AcDbLine
 10
51.5
 20
911.5
 30
0.0
 11
51.5
 21
918.75
 31
0.0
  0
LINE
  5
32C
330
17
100
AcDbEntity
  8
CREASE
100
AcDbLine
 10
142.25
 20
845.25
 30
0.0
 11
143.75
 21
835.0
 31
0.0
  0
LINE
  5
32D
330
17
100
AcDbEntity
  8
SLOT
100
AcDbLine
 10
151.0
 20
698.75
 30
0.0
 11
153.0
 21
693.25
 31
0.0
  0
LINE
  5
32E
330
17
100
AcDbEntity
  8
CUT
100
AcDbLine
 10
138.75
 20
682.25
 30
0.0
 11
148.25
 21
697.75
 31
0.0
  0
LINE
  5
32F
330
17
100
AcDbEntity
  8
CUT
100
AcDbLine
 10
193.0
 20
690.75
 30
0.0
 11
195.0
 21
675.0
 31
0.0
  0
LINE
  5
330
330
17
100
AcDbEntity
  8
CREASE
100
AcDbLine
 10
67.25
 20
880.5
 30
0.0
 11
79.25
 21
880.0
 31
0.0
  0
LINE
  5
331
330
17
100
AcDbEntity
  8
SLOT
100
AcDbLine
 10
165.25
 20
630.0
 30
0.0
 11
166.0
 21
637.0
 31
0.0
  0
LINE
  5
332
330
17
100
AcDbEntity
  8
SLOT
100
AcDbLine
 10
167.5
 20
974.5
 30
0.0
 11
168.0
 21
968.75
 31
0.0
  0
LINE
  5
333
330
17
100
AcDbEntity
  8
SLOT
100
AcDbLine
 10
41.25
 20
988.75
 30
0.0
 11
43.0
 21
983.5
 31
0.0
  0
LINE
  5
334
330
17
100
AcDbEntity
  8
CREASE
100
AcDbLine
 10
187.5
 20
703.75
 30
0.0
 11
187.75
 21
694.25
 31
0.0
  0
LINE
  5
335
330
17
100
AcDbEntity
  8
SLOT
100
AcDbLine
 10
69.75
 20
980.5
 30
0.0
 11
75.75
 21
983.75
 31
0.0
  0
LINE
  5
336
330
17
100
AcDbEntity
  8
SLOT
100
AcDbLine
 10
160.75
 20
671.75
 30
0.0
 11
161.5
 21
677.0
 31
0.0
  0
LINE
  5
337
330
17
100
AcDbEntity
  8
CREASE
100
AcDbLine
 10
156.0
 20
844.25
 30
0.0
 11
156.5
 21
851.75
 31
0.0
  0
LINE
  5
338
330
17
100
AcDbEntity
  8
CREASE
100
AcDbLine
 10
117.0
 20
630.5
 30
0.0
 11
117.0
 21
641.25
 31
0.0
  0
LINE
  5
339
330
17
100
AcDbEntity
  8
SLOT
100
AcDbLine
 10
153.75
 20
660.25
 30
0.0
 11
155.5
 21
655.25
 31
0.0
  0
LINE
  5
33A
330
17
100
AcDbEntity
  8
SLOT
100
AcDbLine
 10
131.5
 20
652.0
 30
0.0
 11
133.0
 21
645.5
 31
0.0
  0
LINE
  5
33B
330
17
100
AcDbEntity
  8
CREASE
100
AcDbLine
 10
198.5
 20
849.5
 30
0.0
 11
199.25
 21
854.75
 31
0.0
  0
LINE
  5
33C
330
17
100
AcDbEntity
  8
CREASE
100
AcDbLine
 10
115.0
 20
647.25
 30
0.0
 11
122.25
 21
652.25
 31
0.0
  0
LINE
  5
33D
330
17
100
AcDbEntity
  8
CREASE
100
AcDbLine
 10
78.5
 20
880.5
 30
0.0
 11
82.75
 21
873.5
 31
0.0
  0
LINE
  5
33E
330
17
100
AcDbEntity
  8
FOLD
100
AcDbLine
 10
156.0
 20
623.25
 30
0.0
 11
168.25
 21
623.5
 31
0.0
  0
LINE
  5
33F
330
17
100
AcDbEntity
  8
CREASE
100
AcDbLine
 10
103.5
 20
651.75
 30
0.0
 11
103.5
 21
660.0
 31
0.0
  0
LINE
  5
340
330
17
100
AcDbEntity
  8
CREASE
100
AcDbLine
 10
186.0
 20
688.5
 30
0.0
 11
189.75
 21
679.75
 31
0.0
  0
LINE
  5
341
330
17
100
AcDbEntity
  8
SLOT
100
AcDbLine
 10
161.75
 20
662.0
 30
0.0
 11
162.5
 21
668.75
 31
0.0
  0
LINE
  5
342
330
17
100
AcDbEntity
  8
CREASE
100
AcDbLine
 10
168.0
 20
694.75
 30
0.0
 11
171.5
 21
701.5
 31
0.0
  0
LINE
  5
343
330
17
100
AcDbEntity
  8
CREASE
100
AcDbLine
 10
154.25
 20
668.0
 30
0.0
 11
155.75
 21
676.5
 31
0.0
  0
LINE
  5
344
330
17
100
AcDbEntity
  8
CREASE
100
AcDbLine
 10
141.5
 20
690.0
 30
0.0
 11
146.5
 21
680.0
 31
0.0
  0
LINE
  5
345
330
17
100
AcDbEntity
  8
CREASE
100
AcDbLine
 10
133.0
 20
638.5
 30
0.0
 11
135.5
 21
648.5
 31
0.0
  0
LINE
  5
346
330
17
100
AcDbEntity
  8
CREASE
100
AcDbLine
 10
165.5
 20
673.5
 30
0.0
 11
166.5
 21
684.25
 31
0.0
  0
LINE
  5
347
330
17
100
AcDbEntity
  8
CREASE
100
AcDbLine
 10
144.5
 20
681.25
 30
0.0
 11
147.75
 21
688.25
 31
0.0
  0
LINE
  5
348
330
17
100
AcDbEntity
  8
CREASE
100
AcDbLine
 10
213.5
 20
781.5
 30
0.0
 11
219.0
 21
776.0
 31
0.0
  0
LINE
  5
349
330
17
100
AcDbEntity
  8
CREASE
100
AcDbLine
 10
251.0
 20
879.25
 30
0.0
 11
253.75
 21
885.25
 31
0.0
  0
LINE
  5
34A
330
17
100
AcDbEntity
  8
SLOT
100
AcDbLine
 10
118.25
 20
630.25
 30
0.0
 11
119.25
 21
635.75
 31
0.0
  0
LINE
  5
34B
330
17
100
AcDbEntity
  8
CREASE
100
AcDbLine
 10
159.25
 20
632.75
 30
0.0
 11
159.75
 21
637.75
 31
0.0
  0
LINE
  5
34C
330
17
100
AcDbEntity
  8
FOLD
100
AcDbLine
 10
216.0
 20
870.75
 30
0.0
 11
216.25
 21
857.5
 31
0.0
  0
LINE
  5
34D
330
17
100
AcDbEntity
  8
CREASE
100
AcDbLine
 10
210.0
 20
732.25
 30
0.0
 11
215.0
 21
736.75
 31
0.0
  0
LINE
  5
34E
330
17
100
AcDbEntity
  8
CREASE
100
AcDbLine
 10
158.25
 20
670.25
 30
0.0
 11
159.5
 21
681.0
 31
0.0
  0
LINE
  5
34F
330
17
100
AcDbEntity
  8
CREASE
100
AcDbLine
 10
92.75
 20
993.25
 30
0.0
 11
104.0
 21
999.75
 31
0.0
  0
LINE
  5
350
330
17
100
AcDbEntity
  8
CREASE
100
AcDbLine
 10
52.75
 20
895.0
 30
0.0
 11
70.75
 21
893.25
 31
0.0
  0
LINE
  5
351
330
17
100
AcDbEntity
  8
CREASE
100
AcDbLine
 10
192.0
 20
643.5
 30
0.0
 11
192.5
 21
637.25
 31
0.0
  0
LINE
  5
352
330
17
100
AcDbEntity
  8
CREASE
100
AcDbLine
 10
120.0
 20
640.75
 30
0.0
 11
127.5
 21
646.25
 31
0.0
  0
LINE
  5
353
330
17
100
AcDbEntity
  8
SLOT
100
AcDbLine
 10
164.0
 20
705.5
 30
0.0
 11
164.5
 21
711.75
 31
0.0
  0
LINE
  5
354
330
17
100
AcDbEntity
  8
SLOT
100
AcDbLine
 10
197.75
 20
714.5
 30
0.0
 11
201.75
 21
708.25
 31
0.0
  0
LINE
  5
355
330
17
100
AcDbEntity
  8
SLOT
100
AcDbLine
 10
144.25
 20
687.25
 30
0.0
 11
145.75
 21
693.5
 31
0.0
  0
LINE
  5
356
330
17
100
AcDbEntity
  8
FOLD
100
AcDbLine
 10
181.0
 20
954.75
 30
0.0
 11
188.75
 21
954.75
 31
0.0
  0
LINE
  5
357
330
17
100
AcDbEntity
  8
SLOT
100
AcDbLine
 10
159.75
 20
655.25
 30
0.0
 11
160.25
 21
661.0
 31
0.0
  0
LINE
  5
358
330
17
100
AcDbEntity
  8
CREASE
100
AcDbLine
 10
16.5
 20
952.75
 30
0.0
 11
20.25
 21
944.25
 31
0.0
  0
LINE
  5
359
330
17
100
AcDbEntity
  8
CREASE
100
AcDbLine
 10
207.5
 20
691.0
 30
0.0
 11
211.25
 21
684.5
 31
0.0
  0
LINE
  5
35A
330
17
100
AcDbEntity
  8
SLOT
100
AcDbLine
 10
192.25
 20
841.25
 30
0.0
 11
193.0
 21
846.75
 31
0.0
  0
LINE
  5
35B
330
17
100
AcDbEntity
  8
FOLD
100
AcDbLine
 10
198.5
 20
649.75
 30
0.0
 11
201.25
 21
656.75
 31
0.0
  0
LINE
  5
35C
330
17
100
AcDbEntity
  8
SLOT
100
AcDbLine
 10
204.5
 20
684.0
 30
0.0
 11
208.0
 21
689.75
 31
0.0
  0
LINE
  5
35D
330
17
100
AcDbEntity
  8
BRIDGE
100
AcDbLine
 10
144.5
 20
635.0
 30
0.0
 11
146.25
 21
644.0
 31
0.0
  0
LINE
  5
35E
330
17
100
AcDbEntity
  8
CREASE
100
AcDbLine
 10
173.25
 20
674.75
 30
0.0
 11
173.25
 21
684.5
 31
0.0
  0
LINE
  5
35F
330
17
100
AcDbEntity
  8
FOLD
100
AcDbLine
 10
264.75
 20
806.5
 30
0.0
 11
265.0
 21
799.5
 31
0.0
  0
LINE
  5
360
330
17
100
AcDbEntity
  8
CREASE
100
AcDbLine
 10
176.0
 20
844.75
 30
0.0
 11
176.0
 21
850.5
 31
0.0
  0
LINE
  5
361
330
17
100
AcDbEntity
  8
CREASE
100
AcDbLine
 10
118.75
 20
644.0
 30
0.0
 11
125.0
 21
651.0
 31
0.0
  0
LINE
  5
362
330
17
100
AcDbEntity
  8
CREASE
100
AcDbLine
 10
197.5
 20
689.25
 30
0.0
 11
202.75
 21
680.5
 31
0.0
  0
LINE
  5
363
330
17
100
AcDbEntity
  8
CREASE
100
AcDbLine
 10
184.75
 20
919.75
 30
0.0
 11
207.75
 21
919.0
 31
0.0
  0
LINE
  5
364
330
17
100
AcDbEntity
  8
CUT
100
AcDbLine
 10
119.75
 20
636.75
 30
0.0
 11
120.75
 21
644.75
 31
0.0
  0
LINE
  5
365
330
17
100
AcDbEntity
  8
FOLD
100
AcDbLine
 10
305.0
 20
783.0
 30
0.0
 11
305.0
 21
776.5
 31
0.0
  0
LINE
  5
366
330
17
100
AcDbEntity
  8
CREASE
100
AcDbLine
 10
23.5
 20
950.75
 30
0.0
 11
32.25
 21
959.5
 31
0.0
  0
LINE
  5
367
330
17
100
AcDbEntity
  8
CUT
100
AcDbLine
 10
186.25
 20
675.5
 30
0.0
 11
190.25
 21
664.5
 31
0.0
  0
LINE
  5
368
330
17
100
AcDbEntity
  8
SLOT
100
AcDbLine
 10
150.5
 20
669.25
 30
0.0
 11
151.75
 21
674.75
 31
0.0
  0
LINE
  5
369
330
17
100
AcDbEntity
  8
CREASE
100
AcDbLine
 10
82.25
 20
892.25
 30
0.0
 11
87.0
 21
884.25
 31
0.0
  0
LINE
  5
36A
330
17
100
AcDbEntity
  8
CREASE
100
AcDbLine
 10
286.25
 20
905.5
 30
0.0
 11
286.75
 21
893.25
 31
0.0
  0
LINE
  5
36B
330
17
100
AcDbEntity
  8
SLOT
100
AcDbLine
 10
201.5
 20
693.25
 30
0.0
 11
204.75
 21
687.75
 31
0.0
  0
LINE
  5
36C
330
17
100
AcDbEntity
  8
CUT
100
AcDbLine
 10
139.5
 20
796.0
 30
0.0
 11
141.0
 21
809.0
 31
0.0
  0
LINE
  5
36D
330
17
100
AcDbEntity
  8
CREASE
100
AcDbLine
 10
26.25
 20
966.0
 30
0.0
 11
30.5
 21
959.75
 31
0.0
  0
LINE
  5
36E
330
17
100
AcDbEntity
  8
FOLD
100
AcDbLine
 10
119.0
 20
880.25
 30
0.0
 11
128.5
 21
879.5
 31
0.0
  0
LINE
  5
36F
330
17
100
AcDbEntity
  8
CREASE
100
AcDbLine
 10
147.75
 20
674.5
 30
0.0
 11
149.75
 21
684.5
 31
0.0
  0
LINE
  5
370
330
17
100
AcDbEntity
  8
CREASE
100
AcDbLine
 10
177.25
 20
696.0
 30
0.0
 11
177.25
 21
701.75
 31
0.0
  0
LINE
  5
371
330
17
100
AcDbEntity
  8
SLOT
100
AcDbLine
 10
184.75
 20
723.0
 30
0.0
 11
185.5
 21
729.25
 31
0.0
  0
LINE
  5
372
330
17
100
AcDbEntity
  8
CREASE
100
AcDbLine
 10
184.0
 20
806.75
 30
0.0
 11
184.75
 21
796.0
 31
0.0
  0
LINE
  5
373
330
17
100
AcDbEntity
  8
CREASE
100
AcDbLine
 10
104.5
 20
731.75
 30
0.0
 11
114.75
 21
731.75
 31
0.0
  0
LINE
  5
374
330
17
100
AcDbEntity
  8
CUT
100
AcDbLine
 10
144.25
 20
682.75
 30
0.0
 11
149.0
 21
698.25
 31
0.0
  0
LINE
  5
375
330
17
100
AcDbEntity
  8
FOLD
100
AcDbLine
 10
136.0
 20
878.75
 30
0.0
 11
145.0
 21
878.75
 31
0.0
  0
LINE
  5
376
330
17
100
AcDbEntity
  8
CREASE
100
AcDbLine
 10
168.75
 20
641.75
 30
0.0
 11
169.0
 21
646.75
 31
0.0
  0
LINE
  5
377
330
17
100
AcDbEntity
  8
FOLD
100
AcDbLine
 10
194.0
 20
913.25
 30
0.0
 11
206.5
 21
913.0
 31
0.0
  0
LINE
  5
378
330
17
100
AcDbEntity
  8
CREASE
100
AcDbLine
 10
137.25
 20
802.0
 30
0.0
 11
143.25
 21
793.0
 31
0.0
  0
LINE
  5
379
330
17
100
AcDbEntity
  8
CREASE
100
AcDbLine
 10
196.5
 20
717.25
 30
0.0
 11
197.25
 21
708.25
 31
0.0
  0
LINE
  5
37A
330
17
100
AcDbEntity
  8
FOLD
100
AcDbLine
 10
255.0
 20
873.0
 30
0.0
 11
255.25
 21
862.75
 31
0.0
  0
LINE
  5
37B
330
17
100
AcDbEntity
  8
CREASE
100
AcDbLine
 10
181.0
 20
679.25
 30
0.0
 11
181.0
 21
673.25
 31
0.0
  0
LINE
  5
37C
330
17
100
AcDbEntity
  8
CREASE
100
AcDbLine
 10
130.75
 20
620.0
 30
0.0
 11
135.75
 21
620.25
 31
0.0
  0
LINE
  5
37D
330
17
100
AcDbEntity
  8
CREASE
100
AcDbLine
 10
203.75
 20
734.5
 30
0.0
 11
209.0
 21
734.5
 31
0.0
  0
LINE
  5
37E
330
17
100
AcDbEntity
  8
SLOT
100
AcDbLine
 10
87.0
 20
775.75
 30
0.0
 11
92.5
 21
776.0
 31
0.0
  0
LINE
  5
37F
330
17
100
AcDbEntity
  8
BRIDGE
100
AcDbLine
 10
187.75
 20
657.75
 30
0.0
 11
190.5
 21
652.75
 31
0.0
  0
LINE
  5
380
330
17
100
AcDbEntity
  8
CREASE
100
AcDbLine
 10
147.0
 20
983.25
 30
0.0
 11
152.5
 21
974.25
 31
0.0
  0
LINE
  5
381
330
17
100
AcDbEntity
  8
CUT
100
AcDbLine
 10
93.5
 20
731.75
 30
0.0
 11
107.0
 21
732.25
 31
0.0
  0
LINE
  5
382
330
17
100
AcDbEntity
  8
BRIDGE
100
AcDbLine
 10
154.0
 20
798.75
 30
0.0
 11
154.25
 21
806.75
 31
0.0
  0
LINE
  5
383
330
17
100
AcDbEntity
  8
CREASE
100
AcDbLine
 10
158.5
 20
657.25
 30
0.0
 11
159.75
 21
664.5
 31
0.0
  0
LINE
  5
384
330
17
100
AcDbEntity
  8
SLOT
100
AcDbLine
 10
177.25
 20
706.0
 30
0.0
 11
178.0
 21
712.5
 31
0.0
  0
LINE
  5
385
330
17
100
AcDbEntity
  8
FOLD
100
AcDbLine
 10
36.0
 20
880.75
 30
0.0
 11
47.0
 21
878.5
 31
0.0
  0
LINE
  5
386
330
17
100
AcDbEntity
  8
CREASE
100
AcDbLine
 10
139.0
 20
843.75
 30
0.0
 11
146.5
 21
834.25
 31
0.0
  0
LINE
  5
387
330
17
100
AcDbEntity
  8
CREASE
100
AcDbLine
 10
139.75
 20
856.5
 30
0.0
 11
144.75
 21
856.5
 31
0.0
  0
LINE
  5
388
330
17
100
AcDbEntity
  8
CREASE
100
AcDbLine
 10
153.25
 20
837.5
 30
0.0
 11
154.25
 21
845.0
 31
0.0
  0
LINE
  5
389
330
17
100
AcDbEntity
  8
CREASE
100
AcDbLine
 10
260.75
 20
774.25
 30
0.0
 11
266.75
 21
774.25
 31
0.0
  0
LINE
  5
38A
330
17
100
AcDbEntity
  8
SLOT
100
AcDbLine
 10
158.5
 20
654.5
 30
0.0
 11
159.5
 21
661.25
 31
0.0
  0
LINE
  5
38B
330
17
100
AcDbEntity
  8
CREASE
100
AcDbLine
 10
255.0
 20
884.75
 30
0.0
 11
257.75
 21
889.75
 31
0.0
  0
LINE
  5
38C
330
17
100
AcDbEntity
  8
SLOT
100
AcDbLine
 10
136.5
 20
686.25
 30
0.0
 11
138.5
 21
680.75
 31
0.0
  0
LINE
  5
38D
330
17
100
AcDbEntity
  8
CREASE
100
AcDbLine
 10
179.0
 20
647.25
 30
0.0
 11
179.5
 21
652.75
 31
0.0
  0
LINE
  5
38E
330
17
100
AcDbEntity
  8
SLOT
100
AcDbLine
 10
194.5
 20
689.0
 30
0.0
 11
194.5
 21
696.0
 31
0.0
  0
LINE
  5
38F
330
17
100
AcDbEntity
  8
SLOT
100
AcDbLine
 10
150.25
 20
685.0
 30
0.0
 11
150.25
 21
690.25
 31
0.0
  0
LINE
  5
390
330
17
100
AcDbEntity
  8
SLOT
100
AcDbLine
 10
31.0
 20
947.5
 30
0.0
 11
34.75
 21
941.75
 31
0.0
  0
LINE
  5
391
330
17
100
AcDbEntity
  8
FOLD
100
AcDbLine
 10
55.0
 20
921.25
 30
0.0
 11
65.75
 21
920.75
 31
0.0
  0
LINE
  5
392
330
17
100
AcDbEntity
  8
CREASE
100
AcDbLine
 10
130.25
 20
647.0
 30
0.0
 11
131.75
 21
652.0
 31
0.0
  0
LINE
  5
393
330
17
100
AcDbEntity
  8
CREASE
100
AcDbLine
 10
156.25
 20
668.75
 30
0.0
 11
157.5
 21
677.75
 31
0.0
  0
LINE
  5
394
330
17
100
AcDbEntity
  8
FOLD
100
AcDbLine
 10
88.75
 20
992.5
 30
0.0
 11
97.75
 21
998.0
 31
0.0
  0
LINE
  5
395
330
17
100
AcDbEntity
  8
SLOT
100
AcDbLine
 10
169.25
 20
631.5
 30
0.0
 11
169.75
 21
638.0
 31
0.0
  0
LINE
  5
396
330
17
100
AcDbEntity
  8
BRIDGE
100
AcDbLine
 10
98.75
 20
771.75
 30
0.0
 11
107.5
 21
771.75
 31
0.0
  0
LINE
  5
397
330
17
100
AcDbEntity
  8
SLOT
100
AcDbLine
 10
193.25
 20
695.25
 30
0.0
 11
193.75
 21
690.25
 31
0.0
  0
LINE
  5
398
330
17
100
AcDbEntity
  8
CREASE
100
AcDbLine
 10
176.25
 20
654.75
 30
0.0
 11
185.0
 21
658.0
 31
0.0
  0
LINE
  5
399
330
17
100
AcDbEntity
  8
CREASE
100
AcDbLine
 10
151.0
 20
809.0
 30
0.0
 11
152.25
 21
800.0
 31
0.0
  0
LINE
  5
39A
330
17
100
AcDbEntity
  8
CREASE
100
AcDbLine
 10
213.75
 20
781.5
 30
0.0
 11
219.25
 21
776.0
 31
0.0
  0
LINE
  5
39B
330
17
100
AcDbEntity
  8
CREASE
100
AcDbLine
 10
129.25
 20
724.75
 30
0.0
 11
129.25
 21
733.75
 31
0.0
  0
LINE
  5
39C
330
17
100
AcDbEntity
  8
CREASE
100
AcDbLine
 10
132.0
 20
646.5
 30
0.0
 11
134.25
 21
654.75
 31
0.0
  0
LINE
  5
39D
330
17
100
AcDbEntity
  8
CREASE
100
AcDbLine
 10
128.75
 20
676.25
 30
0.0
 11
130.5
 21
669.0
 31
0.0
  0
LINE
  5
39E
330
17
100
AcDbEntity
  8
SLOT
100
AcDbLine
 10
149.25
 20
676.25
 30
0.0
 11
150.75
 21
683.0
 31
0.0
  0
LINE
  5
39F
330
17
100
AcDbEntity
  8
CREASE
100
AcDbLine
 10
200.25
 20
711.75
 30
0.0
 11
203.25
 21
706.75
 31
0.0
  0
LINE
  5
3A0
330
17
100
AcDbEntity
  8
SLOT
100
AcDbLine
 10
174.25
 20
697.0
 30
0.0
 11
174.25
 21
702.25
 31
0.0
  0
LINE
  5
3A1
330
17
100
AcDbEntity
  8
CREASE
100
AcDbLine
 10
192.5
 20
711.0
 30
0.0
 11
193.0
 21
705.25
 31
0.0
  0
LINE
  5
3A2
330
17
100
AcDbEntity
  8
CREASE
100
AcDbLine
 10
126.0
 20
771.5
 30
0.0
 11
128.0
 21
766.5
 31
0.0
  0
LINE
  5
3A3
330
17
100
AcDbEntity
  8
CREASE
100
AcDbLine
 10
189.75
 20
713.5
 30
0.0
 11
193.5
 21
707.0
 31
0.0
  0
LINE
  5
3A4
330
17
100
AcDbEntity
  8
FOLD
100
AcDbLine
 10
190.75
 20
920.75
 30
0.0
 11
204.25
 21
920.25
 31
0.0
  0
LINE
  5
3A5
330
17
100
AcDbEntity
  8
CREASE
100
AcDbLine
 10
0.25
 20
926.25
 30
0.0
 11
15.25
 21
936.0
 31
0.0
  0
LINE
  5
3A6
330
17
100
AcDbEntity
  8
SLOT
100
AcDbLine
 10
114.75
 20
676.75
 30
0.0
 11
119.75
 21
671.75
 31
0.0
  0
LINE
  5
3A7
330
17
100
AcDbEntity
  8
CREASE
100
AcDbLine
 10
24.25
 20
955.0
 30
0.0
 11
26.5
 21
949.5
 31
0.0
  0
LINE
  5
3A8
330
17
100
AcDbEntity
  8
CREASE
100
AcDbLine
 10
226.25
 20
736.5
 30
0.0
 11
236.25
 21
737.0
 31
0.0
  0
LINE
  5
3A9
330
17
100
AcDbEntity
  8
CREASE
100
AcDbLine
 10
132.0
 20
692.0
 30
0.0
 11
134.25
 21
684.25
 31
0.0
  0
LINE
  5
3AA
330
17
100
AcDbEntity
  8
CREASE
100
AcDbLine
 10
127.75
 20
873.5
 30
0.0
 11
133.25
 21
873.5
 31
0.0
  0
LINE
  5
3AB
330
17
100
AcDbEntity
  8
SLOT
100
AcDbLine
 10
159.25
 20
632.25
 30
0.0
 11
160.0
 21
638.0
 31
0.0
  0
LINE
  5
3AC
330
17
100
AcDbEntity
  8
SLOT
100
AcDbLine
 10
193.0
 20
695.0
 30
0.0
 11
193.5
 21
688.25
 31
0.0
  0
LINE
  5
3AD
330
17
100
AcDbEntity
  8
SLOT
100
AcDbLine
 10
184.25
 20
822.25
 30
0.0
 11
184.75
 21
817.25
 31
0.0
  0
LINE
  5
3AE
330
17
100
AcDbEntity
  8
SLOT
100
AcDbLine
 10
136.0
 20
685.75
 30
0.0
 11
137.75
 21
680.0
 31
0.0
  0
LINE
  5
3AF
330
17
100
AcDbEntity
  8
CREASE
100
AcDbLine
 10
195.25
 20
684.5
 30
0.0
 11
195.5
 21
675.0
 31
0.0
  0
LINE
  5
3B0
330
17
100
AcDbEntity
  8
CREASE
100
AcDbLine
 10
52.75
 20
986.0
 30
0.0
 11
57.25
 21
977.75
 31
0.0
  0
LINE
  5
3B1
330
17
100
AcDbEntity
  8
CREASE
100
AcDbLine
 10
27.75
 20
938.75
 30
0.0
 11
34.75
 21
941.25
 31
0.0
  0
LINE
  5
3B2
330
17
100
AcDbEntity
  8
SLOT
100
AcDbLine
 10
181.25
 20
687.5
 30
0.0
 11
181.75
 21
692.5
 31
0.0
  0
LINE
  5
3B3
330
17
100
AcDbEntity
  8
SLOT
100
AcDbLine
 10
137.0
 20
687.25
 30
0.0
 11
139.0
 21
682.25
 31
0.0
  0
LINE
  5
3B4
330
17
100
AcDbEntity
  8
CREASE
100
AcDbLine
 10
125.5
 20
635.25
 30
0.0
 11
127.25
 21
641.25
 31
0.0
  0
LINE
  5
3B5
330
17
100
AcDbEntity
  8
CREASE
100
AcDbLine
 10
148.75
 20
839.5
 30
0.0
 11
149.25
 21
834.5
 31
0.0
  0
LINE
  5
3B6
330
17
100
AcDbEntity
  8
CREASE
100
AcDbLine
 10
117.5
 20
672.25
 30
0.0
 11
124.5
 21
667.25
 31
0.0
  0
LINE
  5
3B7
330
17
100
AcDbEntity
  8
SLOT
100
AcDbLine
 10
58.5
 20
970.75
 30
0.0
 11
60.5
 21
965.0
 31
0.0
  0
LINE
  5
3B8
330
17
100
AcDbEntity
  8
CREASE
100
AcDbLine
 10
143.75
 20
640.5
 30
0.0
 11
145.0
 21
646.25
 31
0.0
  0
LINE
  5
3B9
330
17
100
AcDbEntity
  8
CREASE
100
AcDbLine
 10
184.25
 20
660.5
 30
0.0
 11
184.25
 21
649.25
 31
0.0
  0
LINE
  5
3BA
330
17
100
AcDbEntity
  8
CREASE
100
AcDbLine
 10
9.5
 20
962.5
 30
0.0
 11
13.0
 21
955.25
 31
0.0
  0
LINE
  5
3BB
330
17
100
AcDbEntity
  8
CREASE
100
AcDbLine
 10
254.75
 20
884.5
 30
0.0
 11
257.25
 21
890.5
 31
0.0
  0
LINE
  5
3BC
330
17
100
AcDbEntity
  8
CUT
100
AcDbLine
 10
147.5
 20
674.25
 30
0.0
 11
156.75
 21
684.25
 31
0.0
  0
LINE
  5
3BD
330
17
100
AcDbEntity
  8
SLOT
100
AcDbLine
 10
151.5
 20
809.0
 30
0.0
 11
152.5
 21
802.0
 31
0.0
  0
LINE
  5
3BE
330
17
100
AcDbEntity
  8
FOLD
100
AcDbLine
 10
128.5
 20
947.25
 30
0.0
 11
128.5
 21
952.5
 31
0.0
  0
LINE
  5
3BF
330
17
100
AcDbEntity
  8
CREASE
100
AcDbLine
 10
184.5
 20
733.25
 30
0.0
 11
189.25
 21
725.25
 31
0.0
  0
LINE
  5
3C0
330
17
100
AcDbEntity
  8
CREASE
100
AcDbLine
 10
130.75
 20
929.5
 30
0.0
 11
131.0
 21
921.5
 31
0.0
  0
LINE
  5
3C1
330
17
100
AcDbEntity
  8
CREASE
100
AcDbLine
 10
17.5
 20
952.75
 30
0.0
 11
21.0
 21
945.25
 31
0.0
  0
LINE
  5
3C2
330
17
100
AcDbEntity
  8
CREASE
100
AcDbLine
 10
166.5
 20
678.0
 30
0.0
 11
167.0
 21
685.75
 31
0.0
  0
LINE
  5
3C3
330
17
100
AcDbEntity
  8
CREASE
100
AcDbLine
 10
180.5
 20
953.75
 30
0.0
 11
188.25
 21
953.75
 31
0.0
  0
LINE
  5
3C4
330
17
100
AcDbEntity
  8
BRIDGE
100
AcDbLine
 10
23.25
 20
954.25
 30
0.0
 11
25.25
 21
949.25
 31
0.0
  0
LINE
  5
3C5
330
17
100
AcDbEntity
  8
CREASE
100
AcDbLine
 10
39.0
 20
970.5
 30
0.0
 11
42.0
 21
963.0
 31
0.0
  0
LINE
  5
3C6
330
17
100
AcDbEntity
  8
CREASE
100
AcDbLine
 10
193.25
 20
681.5
 30
0.0
 11
197.25
 21
671.5
 31
0.0
  0
LINE
  5
3C7
330
17
100
AcDbEntity
  8
SLOT
100
AcDbLine
 10
146.25
 20
848.75
 30
0.0
 11
147.5
 21
842.5
 31
0.0
  0
LINE
  5
3C8
330
17
100
AcDbEntity
  8
CREASE
100
AcDbLine
 10
187.5
 20
649.0
 30
0.0
 11
188.0
 21
637.75
 31
0.0
  0
LINE
  5
3C9
330
17
100
AcDbEntity
  8
CREASE
100
AcDbLine
 10
131.0
 20
692.0
 30
0.0
 11
132.5
 21
686.75
 31
0.0
  0
LINE
  5
3CA
330
17
100
AcDbEntity
  8
CREASE
100
AcDbLine
 10
133.0
 20
832.25
 30
0.0
 11
143.25
 21
837.0
 31
0.0
  0
LINE
  5
3CB
330
17
100
AcDbEntity
  8
CREASE
100
AcDbLine
 10
252.5
 20
881.0
 30
0.0
 11
254.75
 21
886.75
 31
0.0
  0
LINE
  5
3CC
330
17
100
AcDbEntity
  8
CREASE
100
AcDbLine
 10
148.0
 20
645.25
 30
0.0
 11
148.0
 21
651.75
 31
0.0
  0
LINE
  5
3CD
330
17
100
AcDbEntity
  8
SLOT
100
AcDbLine
 10
157.0
 20
655.25
 30
0.0
 11
158.0
 21
661.25
 31
0.0
  0
LINE
  5
3CE
330
17
100
AcDbEntity
  8
SLOT
100
AcDbLine
 10
154.0
 20
689.0
 30
0.0
 11
156.0
 21
699.0
 31
0.0
  0
LINE
  5
3CF
330
17
100
AcDbEntity
  8
CREASE
100
AcDbLine
 10
174.75
 20
685.25
 30
0.0
 11
176.75
 21
690.25
 31
0.0
  0
LINE
  5
3D0
330
17
100
AcDbEntity
  8
BRIDGE
100
AcDbLine
 10
117.0
 20
644.5
 30
0.0
 11
122.0
 21
652.0
 31
0.0
  0
LINE
  5
3D1
330
17
100
AcDbEntity
  8
SLOT
100
AcDbLine
 10
22.25
 20
951.25
 30
0.0
 11
24.25
 21
945.5
 31
0.0
  0
LINE
  5
3D2
330
17
100
AcDbEntity
  8
CREASE
100
AcDbLine
 10
165.25
 20
658.75
 30
0.0
 11
166.0
 21
663.75
 31
0.0
  0
LINE
  5
3D3
330
17
100
AcDbEntity
  8
CREASE
100
AcDbLine
 10
206.0
 20
702.25
 30
0.0
 11
211.25
 21
694.0
 31
0.0
  0
LINE
  5
3D4
330
17
100
AcDbEntity
  8
CREASE
100
AcDbLine
 10
114.25
 20
679.25
 30
0.0
 11
115.25
 21
685.0
 31
0.0
  0
LINE
  5
3D5
330
17
100
AcDbEntity
  8
CREASE
100
AcDbLine
 10
120.0
 20
633.0
 30
0.0
 11
121.0
 21
639.75
 31
0.0
  0
LINE
  5
3D6
330
17
100
AcDbEntity
  8
SLOT
100
AcDbLine
 10
198.5
 20
697.5
 30
0.0
 11
201.5
 21
692.0
 31
0.0
  0
LINE
  5
3D7
330
17
100
AcDbEntity
  8
SLOT
100
AcDbLine
 10
41.25
 20
979.5
 30
0.0
 11
43.25
 21
974.5
 31
0.0
  0
LINE
  5
3D8
330
17
100
AcDbEntity
  8
CREASE
100
AcDbLine
 10
120.25
 20
771.5
 30
0.0
 11
126.25
 21
771.5
 31
0.0
  0
LINE
  5
3D9
330
17
100
AcDbEntity
  8
CUT
100
AcDbLine
 10
157.25
 20
915.75
 30
0.0
 11
165.0
 21
915.75
 31
0.0
  0
LINE
  5
3DA
330
17
100
AcDbEntity
  8
SLOT
100
AcDbLine
 10
158.5
 20
665.75
 30
0.0
 11
159.5
 21
670.75
 31
0.0
  0
LINE
  5
3DB
330
17
100
AcDbEntity
  8
SLOT
100
AcDbLine
 10
160.0
 20
668.75
 30
0.0
 11
161.0
 21
675.0
 31
0.0
  0
LINE
  5
3DC
330
17
100
AcDbEntity
  8
CREASE
100
AcDbLine
 10
126.0
 20
644.75
 30
0.0
 11
128.5
 21
636.75
 31
0.0
  0
LINE
  5
3DD
330
17
100
AcDbEntity
  8
SLOT
100
AcDbLine
 10
192.0
 20
813.0
 30
0.0
 11
198.5
 21
813.0
 31
0.0
  0
LINE
  5
3DE
330
17
100
AcDbEntity
  8
CREASE
100
AcDbLine
 10
80.25
 20
743.0
 30
0.0
 11
86.5
 21
735.0
 31
0.0
  0
LINE
  5
3DF
330
17
100
AcDbEntity
  8
SLOT
100
AcDbLine
 10
187.5
 20
682.5
 30
0.0
 11
187.5
 21
687.75
 31
0.0
  0
LINE
  5
3E0
330
17
100
AcDbEntity
  8
SLOT
100
AcDbLine
 10
149.5
 20
676.75
 30
0.0
 11
150.75
 21
682.0
 31
0.0
  0
LINE
  5
3E1
330
17
100
AcDbEntity
  8
CREASE
100
AcDbLine
 10
16.0
 20
952.5
 30
0.0
 11
21.0
 21
944.25
 31
0.0
  0
LINE
  5
3E2
330
17
100
AcDbEntity
  8
CREASE
100
AcDbLine
 10
7.75
 20
931.5
 30
0.0
 11
14.25
 21
933.75
 31
0.0
  0
LINE
  5
3E3
330
17
100
AcDbEntity
  8
CREASE
100
AcDbLine
 10
116.5
 20
640.0
 30
0.0
 11
123.25
 21
644.75
 31
0.0
  0
LINE
  5
3E4
330
17
100
AcDbEntity
  8
CREASE
100
AcDbLine
 10
140.75
 20
834.5
 30
0.0
 11
141.5
 21
844.0
 31
0.0
  0
LINE
  5
3E5
330
17
100
AcDbEntity
  8
SLOT
100
AcDbLine
 10
159.0
 20
645.0
 30
0.0
 11
159.75
 21
651.25
 31
0.0
  0
LINE
  5
3E6
330
17
100
AcDbEntity
  8
SLOT
100
AcDbLine
 10
200.5
 20
698.0
 30
0.0
 11
203.5
 21
693.0
 31
0.0
  0
LINE
  5
3E7
330
17
100
AcDbEntity
  8
FOLD
100
AcDbLine
 10
59.0
 20
895.25
 30
0.0
 11
70.5
 21
894.25
 31
0.0
  0
LINE
  5
3E8
330
17
100
AcDbEntity
  8
CREASE
100
AcDbLine
 10
139.0
 20
645.25
 30
0.0
 11
141.25
 21
637.5
 31
0.0
  0
LINE
  5
3E9
330
17
100
AcDbEntity
  8
CUT
100
AcDbLine
 10
52.75
 20
985.75
 30
0.0
 11
59.0
 21
974.0
 31
0.0
  0
LINE
  5
3EA
330
17
100
AcDbEntity
  8
SLOT
100
AcDbLine
 10
196.25
 20
717.25
 30
0.0
 11
200.0
 21
711.75
 31
0.0
  0
LINE
  5
3EB
330
17
100
AcDbEntity
  8
FOLD
100
AcDbLine
 10
302.0
 20
865.25
 30
0.0
 11
302.25
 21
857.25
 31
0.0
  0
LINE
  5
3EC
330
17
100
AcDbEntity
  8
SLOT
100
AcDbLine
 10
172.0
 20
680.75
 30
0.0
 11
173.25
 21
688.0
 31
0.0
  0
LINE
  5
3ED
330
17
100
AcDbEntity
  8
CREASE
100
AcDbLine
 10
168.25
 20
974.25
 30
0.0
 11
169.0
 21
965.5
 31
0.0
  0
LINE
  5
3EE
330
17
100
AcDbEntity
  8
SLOT
100
AcDbLine
 10
193.0
 20
671.5
 30
0.0
 11
196.0
 21
665.75
 31
0.0
  0
LINE
  5
3EF
330
17
100
AcDbEntity
  8
CREASE
100
AcDbLine
 10
31.0
 20
981.75
 30
0.0
 11
36.0
 21
973.0
 31
0.0
  0
LINE
  5
3F0
330
17
100
AcDbEntity
  8
SLOT
100
AcDbLine
 10
190.75
 20
841.0
 30
0.0
 11
190.75
 21
847.5
 31
0.0
  0
LINE
  5
3F1
330
17
100
AcDbEntity
  8
CREASE
100
AcDbLine
 10
144.25
 20
842.5
 30
0.0
 11
145.5
 21
834.0
 31
0.0
  0
LINE
  5
3F2
330
17
100
AcDbEntity
  8
CREASE
100
AcDbLine
 10
155.75
 20
654.25
 30
0.0
 11
157.25
 21
665.75
 31
0.0
  0
LINE
  5
3F3
330
17
100
AcDbEntity
  8
SLOT
100
AcDbLine
 10
140.5
 20
685.75
 30
0.0
 11
143.25
 21
680.0
 31
0.0
  0
LINE
  5
3F4
330
17
100
AcDbEntity
  8
SLOT
100
AcDbLine
 10
32.75
 20
982.5
 30
0.0
 11
39.0
 21
983.5
 31
0.0
  0
LINE
  5
3F5
330
17
100
AcDbEntity
  8
FOLD
100
AcDbLine
 10
302.0
 20
869.0
 30
0.0
 11
302.25
 21
863.0
 31
0.0
  0
LINE
  5
3F6
330
17
100
AcDbEntity
  8
SLOT
100
AcDbLine
 10
155.0
 20
690.5
 30
0.0
 11
156.0
 21
695.5
 31
0.0
  0
LINE
  5
3F7
330
17
100
AcDbEntity
  8
SLOT
100
AcDbLine
 10
159.75
 20
662.0
 30
0.0
 11
160.75
 21
668.75
 31
0.0
  0
LINE
  5
3F8
330
17
100
AcDbEntity
  8
CREASE
100
AcDbLine
 10
12.5
 20
948.0
 30
0.0
 11
16.25
 21
940.25
 31
0.0
  0
LINE
  5
3F9
330
17
100
AcDbEntity
  8
CREASE
100
AcDbLine
 10
144.75
 20
856.75
 30
0.0
 11
157.5
 21
857.0
 31
0.0
  0
LINE
  5
3FA
330
17
100
AcDbEntity
  8
CREASE
100
AcDbLine
 10
74.75
 20
794.25
 30
0.0
 11
74.75
 21
807.75
 31
0.0
  0
LINE
  5
3FB
330
17
100
AcDbEntity
  8
SLOT
100
AcDbLine
 10
205.25
 20
697.5
 30
0.0
 11
208.75
 21
691.75
 31
0.0
  0
LINE
  5
3FC
330
17
100
AcDbEntity
  8
SLOT
100
AcDbLine
 10
145.75
 20
834.0
 30
0.0
 11
146.0
 21
839.0
 31
0.0
  0
LINE
  5
3FD
330
17
100
AcDbEntity
  8
CREASE
100
AcDbLine
 10
169.5
 20
684.5
 30
0.0
 11
170.0
 21
678.5
 31
0.0
  0
LINE
  5
3FE
330
17
100
AcDbEntity
  8
CREASE
100
AcDbLine
 10
141.5
 20
838.75
 30
0.0
 11
142.0
 21
844.75
 31
0.0
  0
LINE
  5
3FF
330
17
100
AcDbEntity
  8
CREASE
100
AcDbLine
 10
179.5
 20
670.0
 30
0.0
 11
180.25
 21
680.25
 31
0.0
  0
LINE
  5
400
330
17
100
AcDbEntity
  8
FOLD
100
AcDbLine
 10
40.25
 20
775.5
 30
0.0
 11
47.5
 21
775.5
 31
0.0
  0
LINE
  5
401
330
17
100
AcDbEntity
  8
CREASE
100
AcDbLine
 10
188.75
 20
701.5
 30
0.0
 11
189.25
 21
694.75
 31
0.0
  0
LINE
  5
402
330
17
100
AcDbEntity
  8
CREASE
100
AcDbLine
 10
114.75
 20
685.25
 30
0.0
 11
116.25
 21
679.25
 31
0.0
  0
LINE
  5
403
330
17
100
AcDbEntity
  8
CREASE
100
AcDbLine
 10
290.75
 20
874.25
 30
0.0
 11
298.75
 21
875.75
 31
0.0
  0
LINE
  5
404
330
17
100
AcDbEntity
  8
CREASE
100
AcDbLine
 10
192.5
 20
685.25
 30
0.0
 11
195.5
 21
677.75
 31
0.0
  0
LINE
  5
405
330
17
100
AcDbEntity
  8
SLOT
100
AcDbLine
 10
174.0
 20
684.75
 30
0.0
 11
174.0
 21
690.0
 31
0.0
  0
LINE
  5
406
330
17
100
AcDbEntity
  8
SLOT
100
AcDbLine
 10
182.0
 20
700.0
 30
0.0
 11
185.25
 21
694.5
 31
0.0
  0
LINE
  5
407
330
17
100
AcDbEntity
  8
SLOT
100
AcDbLine
 10
139.5
 20
843.5
 30
0.0
 11
140.0
 21
848.5
 31
0.0
  0
LINE
  5
408
330
17
100
AcDbEntity
  8
CREASE
100
AcDbLine
 10
142.0
 20
878.5
 30
0.0
 11
150.0
 21
878.5
 31
0.0
  0
LINE
  5
409
330
17
100
AcDbEntity
  8
CREASE
100
AcDbLine
 10
155.75
 20
657.0
 30
0.0
 11
156.75
 21
665.25
 31
0.0
  0
LINE
  5
40A
330
17
100
AcDbEntity
  8
SLOT
100
AcDbLine
 10
132.5
 20
688.0
 30
0.0
 11
134.5
 21
682.5
 31
0.0
  0
LINE
  5
40B
330
17
100
AcDbEntity
  8
CREASE
100
AcDbLine
 10
267.25
 20
890.25
 30
0.0
 11
285.25
 21
892.0
 31
0.0
  0
LINE
  5
40C
330
17
100
AcDbEntity
  8
CREASE
100
AcDbLine
 10
143.75
 20
769.75
 30
0.0
 11
154.25
 21
770.0
 31
0.0
  0
LINE
  5
40D
330
17
100
AcDbEntity
  8
SLOT
100
AcDbLine
 10
201.25
 20
698.25
 30
0.0
 11
203.5
 21
693.25
 31
0.0
  0
LINE
  5
40E
330
17
100
AcDbEntity
  8
CREASE
100
AcDbLine
 10
113.75
 20
650.25
 30
0.0
 11
119.0
 21
647.75
 31
0.0
  0
LINE
  5
40F
330
17
100
AcDbEntity
  8
FOLD
100
AcDbLine
 10
103.25
 20
640.5
 30
0.0
 11
103.25
 21
651.5
 31
0.0
  0
LINE
  5
410
330
17
100
AcDbEntity
  8
CREASE
100
AcDbLine
 10
25.5
 20
980.0
 30
0.0
 11
33.75
 21
981.5
 31
0.0
  0
LINE
  5
411
330
17
100
AcDbEntity
  8
CREASE
100
AcDbLine
 10
188.0
 20
654.5
 30
0.0
 11
188.25
 21
661.0
 31
0.0
  0
LINE
  5
412
330
17
100
AcDbEntity
  8
CREASE
100
AcDbLine
 10
211.25
 20
680.0
 30
0.0
 11
211.5
 21
687.75
 31
0.0
  0
LINE
  5
413
330
17
100
AcDbEntity
  8
FOLD
100
AcDbLine
 10
255.75
 20
834.75
 30
0.0
 11
255.75
 21
840.75
 31
0.0
  0
LINE
  5
414
330
17
100
AcDbEntity
  8
SLOT
100
AcDbLine
 10
11.75
 20
939.5
 30
0.0
 11
14.5
 21
933.75
 31
0.0
  0
LINE
  5
415
330
17
100
AcDbEntity
  8
CREASE
100
AcDbLine
 10
33.5
 20
964.5
 30
0.0
 11
39.25
 21
958.75
 31
0.0
  0
LINE
  5
416
330
17
100
AcDbEntity
  8
CREASE
100
AcDbLine
 10
276.0
 20
746.5
 30
0.0
 11
286.0
 21
746.5
 31
0.0
  0
LINE
  5
417
330
17
100
AcDbEntity
  8
CREASE
100
AcDbLine
 10
1.75
 20
948.5
 30
0.0
 11
7.75
 21
942.5
 31
0.0
  0
LINE
  5
418
330
17
100
AcDbEntity
  8
CREASE
100
AcDbLine
 10
203.5
 20
697.0
 30
0.0
 11
204.25
 21
690.75
 31
0.0
  0
LINE
  5
419
330
17
100
AcDbEntity
  8
CREASE
100
AcDbLine
 10
265.25
 20
784.25
 30
0.0
 11
265.25
 21
796.5
 31
0.0
  0
LINE
  5
41A
330
17
100
AcDbEntity
  8
SLOT
100
AcDbLine
 10
176.25
 20
682.75
 30
0.0
 11
176.5
 21
688.75
 31
0.0
  0
LINE
  5
41B
330
17
100
AcDbEntity
  8
CREASE
100
AcDbLine
 10
154.25
 20
972.5
 30
0.0
 11
161.25
 21
958.75
 31
0.0
  0
LINE
  5
41C
330
17
100
AcDbEntity
  8
CREASE
100
AcDbLine
 10
118.5
 20
772.75
 30
0.0
 11
126.0
 21
773.0
 31
0.0
  0
LINE
  5
41D
330
17
100
AcDbEntity
  8
CREASE
100
AcDbLine
 10
23.75
 20
961.75
 30
0.0
 11
27.25
 21
955.25
 31
0.0
  0
LINE
  5
41E
330
17
100
AcDbEntity
  8
CREASE
100
AcDbLine
 10
120.0
 20
680.0
 30
0.0
 11
121.0
 21
674.75
 31
0.0
  0
LINE
  5
41F
330
17
100
AcDbEntity
  8
FOLD
100
AcDbLine
 10
34.75
 20
815.5
 30
0.0
 11
34.75
 21
825.0
 31
0.0
  0
LINE
  5
420
330
17
100
AcDbEntity
  8
CREASE
100
AcDbLine
 10
163.5
 20
680.0
 30
0.0
 11
164.0
 21
685.0
 31
0.0
  0
LINE
  5
421
330
17
100
AcDbEntity
  8
CREASE
100
AcDbLine
 10
152.25
 20
668.75
 30
0.0
 11
153.5
 21
675.0
 31
0.0
  0
LINE
  5
422
330
17
100
AcDbEntity
  8
CREASE
100
AcDbLine
 10
138.25
 20
800.0
 30
0.0
 11
142.75
 21
793.5
 31
0.0
  0
LINE
  5
423
330
17
100
AcDbEntity
  8
CREASE
100
AcDbLine
 10
212.0
 20
653.75
 30
0.0
 11
212.75
 21
647.5
 31
0.0
  0
LINE
  5
424
330
17
100
AcDbEntity
  8
CREASE
100
AcDbLine
 10
213.0
 20
744.0
 30
0.0
 11
214.25
 21
739.0
 31
0.0
  0
LINE
  5
425
330
17
100
AcDbEntity
  8
SLOT
100
AcDbLine
 10
189.0
 20
681.0
 30
0.0
 11
189.0
 21
687.0
 31
0.0
  0
LINE
  5
426
330
17
100
AcDbEntity
  8
CREASE
100
AcDbLine
 10
145.25
 20
850.25
 30
0.0
 11
146.5
 21
842.5
 31
0.0
  0
LINE
  5
427
330
17
100
AcDbEntity
  8
SLOT
100
AcDbLine
 10
170.25
 20
977.0
 30
0.0
 11
170.75
 21
972.0
 31
0.0
  0
LINE
  5
428
330
17
100
AcDbEntity
  8
SLOT
100
AcDbLine
 10
142.25
 20
877.75
 30
0.0
 11
149.25
 21
877.75
 31
0.0
  0
LINE
  5
429
330
17
100
AcDbEntity
  8
CREASE
100
AcDbLine
 10
198.75
 20
954.0
 30
0.0
 11
203.75
 21
954.0
 31
0.0
  0
LINE
  5
42A
330
17
100
AcDbEntity
  8
CREASE
100
AcDbLine
 10
266.0
 20
793.75
 30
0.0
 11
266.25
 21
788.25
 31
0.0
  0
LINE
  5
42B
330
17
100
AcDbEntity
  8
CREASE
100
AcDbLine
 10
278.75
 20
879.25
 30
0.0
 11
286.5
 21
881.5
 31
0.0
  0
LINE
  5
42C
330
17
100
AcDbEntity
  8
SLOT
100
AcDbLine
 10
155.5
 20
812.0
 30
0.0
 11
155.5
 21
806.75
 31
0.0
  0
LINE
  5
42D
330
17
100
AcDbEntity
  8
SLOT
100
AcDbLine
 10
170.0
 20
971.75
 30
0.0
 11
170.0
 21
977.25
 31
0.0
  0
LINE
  5
42E
330
17
100
AcDbEntity
  8
CREASE
100
AcDbLine
 10
138.25
 20
799.75
 30
0.0
 11
142.75
 21
793.25
 31
0.0
  0
LINE
  5
42F
330
17
100
AcDbEntity
  8
SLOT
100
AcDbLine
 10
142.0
 20
683.75
 30
0.0
 11
143.75
 21
690.0
 31
0.0
  0
LINE
  5
430
330
17
100
AcDbEntity
  8
CREASE
100
AcDbLine
 10
177.25
 20
654.5
 30
0.0
 11
177.75
 21
649.5
 31
0.0
  0
LINE
  5
431
330
17
100
AcDbEntity
  8
BRIDGE
100
AcDbLine
 10
83.75
 20
780.0
 30
0.0
 11
93.75
 21
780.0
 31
0.0
  0
LINE
  5
432
330
17
100
AcDbEntity
  8
SLOT
100
AcDbLine
 10
22.5
 20
951.5
 30
0.0
 11
24.5
 21
946.0
 31
0.0
  0
LINE
  5
433
330
17
100
AcDbEntity
  8
CREASE
100
AcDbLine
 10
170.25
 20
773.75
 30
0.0
 11
177.0
 21
773.75
 31
0.0
  0
LINE
  5
434
330
17
100
AcDbEntity
  8
CREASE
100
AcDbLine
 10
186.0
 20
801.5
 30
0.0
 11
186.0
 21
796.25
 31
0.0
  0
LINE
  5
435
330
17
100
AcDbEntity
  8
FOLD
100
AcDbLine
 10
175.0
 20
849.75
 30
0.0
 11
175.25
 21
844.75
 31
0.0
  0
LINE
  5
436
330
17
100
AcDbEntity
  8
CREASE
100
AcDbLine
 10
104.75
 20
677.25
 30
0.0
 11
104.75
 21
665.25
 31
0.0
  0
LINE
  5
437
330
17
100
AcDbEntity
  8
CREASE
100
AcDbLine
 10
116.0
 20
647.0
 30
0.0
 11
121.5
 21
650.25
 31
0.0
  0
LINE
  5
438
330
17
100
AcDbEntity
  8
FOLD
100
AcDbLine
 10
104.25
 20
713.5
 30
0.0
 11
104.25
 21
707.75
 31
0.0
  0
LINE
  5
439
330
17
100
AcDbEntity
  8
SLOT
100
AcDbLine
 10
174.25
 20
640.5
 30
0.0
 11
175.0
 21
634.25
 31
0.0
  0
LINE
  5
43A
330
17
100
AcDbEntity
  8
FOLD
100
AcDbLine
 10
47.25
 20
885.75
 30
0.0
 11
47.25
 21
877.75
 31
0.0
  0
LINE
  5
43B
330
17
100
AcDbEntity
  8
CREASE
100
AcDbLine
 10
49.25
 20
744.25
 30
0.0
 11
49.25
 21
754.5
 31
0.0
  0
LINE
  5
43C
330
17
100
AcDbEntity
  8
SLOT
100
AcDbLine
 10
137.25
 20
802.25
 30
0.0
 11
137.25
 21
808.25
 31
0.0
  0
LINE
  5
43D
330
17
100
AcDbEntity
  8
SLOT
100
AcDbLine
 10
171.75
 20
632.75
 30
0.0
 11
172.0
 21
638.0
 31
0.0
  0
LINE
  5
43E
330
17
100
AcDbEntity
  8
CREASE
100
AcDbLine
 10
67.5
 20
773.75
 30
0.0
 11
74.25
 21
774.25
 31
0.0
  0
LINE
  5
43F
330
17
100
AcDbEntity
  8
CREASE
100
AcDbLine
 10
126.5
 20
644.75
 30
0.0
 11
133.75
 21
652.0
 31
0.0
  0
LINE
  5
440
330
17
100
AcDbEntity
  8
FOLD
100
AcDbLine
 10
129.5
 20
701.5
 30
0.0
 11
129.5
 21
713.25
 31
0.0
  0
LINE
  5
441
330
17
100
AcDbEntity
  8
CREASE
100
AcDbLine
 10
125.0
 20
635.0
 30
0.0
 11
131.25
 21
638.0
 31
0.0
  0
LINE
  5
442
330
17
100
AcDbEntity
  8
SLOT
100
AcDbLine
 10
157.0
 20
654.25
 30
0.0
 11
158.0
 21
659.75
 31
0.0
  0
LINE
  5
443
330
17
100
AcDbEntity
  8
CUT
100
AcDbLine
 10
15.25
 20
973.25
 30
0.0
 11
29.5
 21
976.25
 31
0.0
  0
LINE
  5
444
330
17
100
AcDbEntity
  8
CREASE
100
AcDbLine
 10
116.0
 20
638.5
 30
0.0
 11
121.5
 21
645.5
 31
0.0
  0
LINE
  5
445
330
17
100
AcDbEntity
  8
CREASE
100
AcDbLine
 10
190.0
 20
912.5
 30
0.0
 11
208.25
 21
912.25
 31
0.0
  0
LINE
  5
446
330
17
100
AcDbEntity
  8
SLOT
100
AcDbLine
 10
24.5
 20
955.25
 30
0.0
 11
27.5
 21
949.25
 31
0.0
  0
LINE
  5
447
330
17
100
AcDbEntity
  8
CREASE
100
AcDbLine
 10
116.0
 20
869.75
 30
0.0
 11
121.0
 21
870.0
 31
0.0
  0
LINE
  5
448
330
17
100
AcDbEntity
  8
CREASE
100
AcDbLine
 10
156.25
 20
654.25
 30
0.0
 11
157.0
 21
659.75
 31
0.0
  0
LINE
  5
449
330
17
100
AcDbEntity
  8
CREASE
100
AcDbLine
 10
121.75
 20
824.0
 30
0.0
 11
121.75
 21
841.0
 31
0.0
  0
LINE
  5
44A
330
17
100
AcDbEntity
  8
SLOT
100
AcDbLine
 10
145.0
 20
686.25
 30
0.0
 11
147.5
 21
692.25
 31
0.0
  0
LINE
  5
44B
330
17
100
AcDbEntity
  8
SLOT
100
AcDbLine
 10
195.75
 20
675.5
 30
0.0
 11
195.75
 21
681.0
 31
0.0
  0
LINE
  5
44C
330
17
100
AcDbEntity
  8
CREASE
100
AcDbLine
 10
146.75
 20
697.25
 30
0.0
 11
149.75
 21
689.5
 31
0.0
  0
LINE
  5
44D
330
17
100
AcDbEntity
  8
BRIDGE
100
AcDbLine
 10
17.75
 20
944.25
 30
0.0
 11
21.25
 21
937.25
 31
0.0
  0
LINE
  5
44E
330
17
100
AcDbEntity
  8
SLOT
100
AcDbLine
 10
120.5
 20
634.25
 30
0.0
 11
125.5
 21
636.5
 31
0.0
  0
LINE
  5
44F
330
17
100
AcDbEntity
  8
CREASE
100
AcDbLine
 10
124.25
 20
668.75
 30
0.0
 11
132.0
 21
676.0
 31
0.0
  0
LINE
  5
450
330
17
100
AcDbEntity
  8
SLOT
100
AcDbLine
 10
166.75
 20
679.5
 30
0.0
 11
167.25
 21
684.75
 31
0.0
  0
LINE
  5
451
330
17
100
AcDbEntity
  8
CREASE
100
AcDbLine
 10
135.75
 20
685.5
 30
0.0
 11
145.5
 21
693.0
 31
0.0
  0
LINE
  5
452
330
17
100
AcDbEntity
  8
SLOT
100
AcDbLine
 10
166.75
 20
772.75
 30
0.0
 11
177.75
 21
772.75
 31
0.0
  0
LINE
  5
453
330
17
100
AcDbEntity
  8
SLOT
100
AcDbLine
 10
36.5
 20
965.25
 30
0.0
 11
38.5
 21
959.0
 31
0.0
  0
LINE
  5
454
330
17
100
AcDbEntity
  8
CREASE
100
AcDbLine
 10
58.5
 20
770.5
 30
0.0
 11
64.0
 21
771.25
 31
0.0
  0
LINE
  5
455
330
17
100
AcDbEntity
  8
CREASE
100
AcDbLine
 10
205.75
 20
697.5
 30
0.0
 11
211.75
 21
687.5
 31
0.0
  0
LINE
  5
456
330
17
100
AcDbEntity
  8
CREASE
100
AcDbLine
 10
194.0
 20
678.75
 30
0.0
 11
200.5
 21
685.25
 31
0.0
  0
LINE
  5
457
330
17
100
AcDbEntity
  8
SLOT
100
AcDbLine
 10
38.5
 20
970.75
 30
0.0
 11
41.25
 21
965.75
 31
0.0
  0
LINE
  5
458
330
17
100
AcDbEntity
  8
FOLD
100
AcDbLine
 10
67.0
 20
920.5
 30
0.0
 11
88.75
 21
918.25
 31
0.0
  0
LINE
  5
459
330
17
100
AcDbEntity
  8
CREASE
100
AcDbLine
 10
11.5
 20
950.75
 30
0.0
 11
15.5
 21
942.5
 31
0.0
  0
LINE
  5
45A
330
17
100
AcDbEntity
  8
CREASE
100
AcDbLine
 10
7.0
 20
932.25
 30
0.0
 11
15.75
 21
941.0
 31
0.0
  0
ENDSEC
  0
SECTION
  2
OBJECTS
  0
DICTIONARY
  5
A
330
0
100
AcDbDictionary
281
1
  3
ACAD_COLOR
350
B
  3
ACAD_GROUP
350
C
  3
ACAD_LAYOUT
350
D
  3
ACAD_MATERIAL
350
E
  3
ACAD_MLEADERSTYLE
350
F
  3
ACAD_MLINESTYLE
350
10
  3
ACAD_PLOTSETTINGS
350
11
  3
ACAD_PLOTSTYLENAME
350
12
  3
ACAD_SCALELIST
350
14
  3
ACAD_TABLESTYLE
350
15
  3
ACAD_VISUALSTYLE
350
16
  3
EZDXF_META
350
2D
  0
DICTIONARY
  5
B
330
A
100
AcDbDictionary
281
1
  0
DICTIONARY
  5
C
330
A
100
AcDbDictionary
281
1
  0
DICTIONARY
  5
D
330
A
100
AcDbDictionary
281
1
  3
Model
350
1A
  3
Layout1
350
1E
  0
DICTIONARY
  5
E
330
A
100
AcDbDictionary
281
1
  3
ByBlock
350
1F
  3
ByLayer
350
20
  3
Global
350
21
  0
DICTIONARY
  5
F
330
A
100
AcDbDictionary
281
1
  3
Standard
350
2C
  0
DICTIONARY
  5
10
330
A
100
AcDbDictionary
281
1
  3
Standard
350
22
  0
DICTIONARY
  5
11
330
A
100
AcDbDictionary
281
1
  0
ACDBDICTIONARYWDFLT
  5
12
330
A
100
AcDbDictionary
281
1
  3
Normal
350
13
100
AcDbDictionaryWithDefault
340
13
  0
ACDBPLACEHOLDER
  5
13
330
12
  0
DICTIONARY
  5
14
330
A
100
AcDbDictionary
281
1
  0
DICTIONARY
  5
15
330
A
100
AcDbDictionary
281
1
  0
DICTIONARY
  5
16
330
A
100
AcDbDictionary
281
1
  0
LAYOUT
  5
1A
330
D
100
AcDbPlotSettings
  1

  4
A3
  6

 40
7.5
 41
20.0
 42
7.5
 43
20.0
 44
420.0
 45
297.0
 46
0.0
 47
0.0
 48
0.0
 49
0.0
140
0.0
141
0.0
142
1.0
143
1.0
 70
1024
 72
1
 73
0
 74
5
  7

 75
16
 76
0
 77
2
 78
300
147
1.0
148
0.0
149
0.0
100
AcDbLayout
  1
Model
 70
1
 71
0
 10
0.0
 20
0.0
 11
420.0
 21
297.0
 12
0.0
 22
0.0
 32
0.0
 14
1e+20
 24
1e+20
 34
1e+20
 15
-1e+20
 25
-1e+20
 35
-1e+20
146
0.0
 13
0.0
 23
0.0
 33
0.0
 16
1.0
 26
0.0
 36
0.0
 17
0.0
 27
1.0
 37
0.0
 76
1
330
17
  0
LAYOUT
  5
1E
330
D
100
AcDbPlotSettings
  1

  4
A3
  6

 40
7.5
 41
20.0
 42
7.5
 43
20.0
 44
420.0
 45
297.0
 46
0.0
 47
0.0
 48
0.0
 49
0.0
140
0.0
141
0.0
142
1.0
143
1.0
 70
0
 72
1
 73
0
 74
5
  7

 75
16
 76
0
 77
2
 78
300
147
1.0
148
0.0
149
0.0
100
AcDbLayout
  1
Layout1
 70
1
 71
1
 10
0.0
 20
0.0
 11
420.0
 21
297.0
 12
0.0
 22
0.0
 32
0.0
 14
1e+20
 24
1e+20
 34
1e+20
 15
-1e+20
 25
-1e+20
 35
-1e+20
146
0.0
 13
0.0
 23
0.0
 33
0.0
 16
1.0
 26
0.0
 36
0.0
 17
0.0
 27
1.0
 37
0.0
 76
1
330
1B
  0
MATERIAL
  5
1F
102
{ACAD_REACTORS
330
E
102
}
330
E
100
AcDbMaterial
  1
ByBlock
  2

 70
0
 40
1.0
 71
1
 41
1.0
 91
-1023410177
 42
1.0
 72
1
  3

 73
1
 74
1
 75
1
 44
0.5
 73
0
 45
1.0
 46
1.0
 77
1
  4

 78
1
 79
1
170
1
 48
1.0
171
1
  6

172
1
173
1
174
1
140
1.0
141
1.0
175
1
  7

176
1
177
1
178
1
143
1.0
179
1
  8

270
1
271
1
272
1
145
1.0
146
1.0
273
1
  9

274
1
275
1
276
1
 42
1.0
 72
1
  3

 73
1
 74
1
 75
1
 94
63
  0
MATERIAL
  5
20
102
{ACAD_REACTORS
330
E
102
}
330
E
100
AcDbMaterial
  1
ByLayer
  2

 70
0
 40
1.0
 71
1
 41
1.0
 91
-1023410177
 42
1.0
 72
1
  3

 73
1
 74
1
 75
1
 44
0.5
 73
0
 45
1.0
 46
1.0
 77
1
  4

 78
1
 79
1
170
1
 48
1.0
171
1
  6

172
1
173
1
174
1
140
1.0
141
1.0
175
1
  7

176
1
177
1
178
1
143
1.0
179
1
  8

270
1
271
1
272
1
145
1.0
146
1.0
273
1
  9

274
1
275
1
276
1
 42
1.0
 72
1
  3

 73
1
 74
1
 75
1
 94
63
  0
MATERIAL
  5
21
102
{ACAD_REACTORS
330
E
102
}
330
E
100
AcDbMaterial
  1
Global
  2

 70
0
 40
1.0
 71
1
 41
1.0
 91
-1023410177
 42
1.0
 72
1
  3

 73
1
 74
1
 75
1
 44
0.5
 73
0
 45
1.0
 46
1.0
 77
1
  4

 78
1
 79
1
170
1
 48
1.0
171
1
  6

172
1
173
1
174
1
140
1.0
141
1.0
175
1
  7

176
1
177
1
178
1
143
1.0
179
1
  8

270
1
271
1
272
1
145
1.0
146
1.0
273
1
  9

274
1
275
1
276
1
 42
1.0
 72
1
  3

 73
1
 74
1
 75
1
 94
63
  0
MLINESTYLE
  5
22
102
{ACAD_REACTORS
330
10
102
}
330
10
100
AcDbMlineStyle
  2
Standard
 70
0
  3

 62
256
 51
90.0
 52
90.0
 71
2
 49
0.5
 62
256
  6
BYLAYER
 49
-0.5
 62
256
  6
BYLAYER
  0
MLEADERSTYLE
  5
2C
102
{ACAD_REACTORS
330
F
102
}
330
F
100
AcDbMLeaderStyle
179
2
170
2
171
1
172
0
 90
2
 40
0.0
 41
0.0
173
1
 91
-1056964608
 92
-2
290
1
 42
2.0
291
1
 43
8.0
  3
Standard
 44
4.0
300

342
29
174
1
175
1
176
0
178
1
 93
-1056964608
 45
4.0
292
0
297
0
 46
4.0
 94
-1056964608
 47
1.0
 49
1.0
140
1.0
294
1
141
0.0
177
0
142
1.0
295
0
296
0
143
3.75
271
0
272
9
273
9
  0
DICTIONARY
  5
2D
330
A
100
AcDbDictionary
280
1
281
1
  3
CREATED_BY_EZDXF
350
2E
  3
WRITTEN_BY_EZDXF
350
45D
  0
DICTIONARYVAR
  5
2E
330
2D
100
DictionaryVariables
280
0
  1
1.4.2 @ 2026-03-31T10:01:19.291141+00:00
  0
DICTIONARYVAR
  5
45D
330
2D
100
DictionaryVariables
280
0
  1
1.4.2 @ 2026-03-31T10:01:19.310768+00:00
  0
ENDSEC
  0
EOF
