<?xml version="1.0" encoding="UTF-8"?>
<svg xmlns="http://www.w3.org/2000/svg" width="1309" height="1069" viewBox="0 0 1309 1069">
  <rect width="100%" height="100%" fill="white"/>
  <line x1="901.0" y1="324.0" x2="936.0" y2="324.0" stroke="black" stroke-width="0.5"/>
  <line x1="303.0" y1="314.0" x2="335.0" y2="314.0" stroke="black" stroke-width="0.5"/>
  <line x1="859.0" y1="322.0" x2="889.0" y2="322.0" stroke="black" stroke-width="0.5"/>
  <line x1="1218.0" y1="318.0" x2="1249.0" y2="318.0" stroke="black" stroke-width="0.5"/>
  <line x1="328.0" y1="319.0" x2="405.0" y2="320.0" stroke="black" stroke-width="0.5"/>
  <line x1="336.0" y1="315.0" x2="401.0" y2="315.0" stroke="black" stroke-width="0.5"/>
  <line x1="423.0" y1="731.0" x2="424.0" y2="683.0" stroke="black" stroke-width="0.5"/>
  <line x1="791.0" y1="317.0" x2="841.0" y2="317.0" stroke="black" stroke-width="0.5"/>
  <line x1="991.0" y1="329.0" x2="1028.0" y2="330.0" stroke="black" stroke-width="0.5"/>
  <line x1="630.0" y1="482.0" x2="693.0" y2="483.0" stroke="black" stroke-width="0.5"/>
  <line x1="139.0" y1="302.0" x2="232.0" y2="301.0" stroke="black" stroke-width="0.5"/>
  <line x1="394.0" y1="321.0" x2="472.0" y2="321.0" stroke="black" stroke-width="0.5"/>
  <line x1="440.0" y1="277.0" x2="477.0" y2="278.0" stroke="black" stroke-width="0.5"/>
  <line x1="1153.0" y1="322.0" x2="1209.0" y2="322.0" stroke="black" stroke-width="0.5"/>
  <line x1="402.0" y1="316.0" x2="448.0" y2="316.0" stroke="black" stroke-width="0.5"/>
  <line x1="268.0" y1="302.0" x2="289.0" y2="303.0" stroke="black" stroke-width="0.5"/>
  <line x1="902.0" y1="323.0" x2="929.0" y2="323.0" stroke="black" stroke-width="0.5"/>
  <line x1="134.0" y1="0.0" x2="136.0" y2="118.0" stroke="black" stroke-width="0.5"/>
  <line x1="418.0" y1="737.0" x2="423.0" y2="624.0" stroke="black" stroke-width="0.5"/>
  <line x1="724.0" y1="25.0" x2="818.0" y2="25.0" stroke="black" stroke-width="0.5"/>
  <line x1="1250.0" y1="297.0" x2="1253.0" y2="184.0" stroke="black" stroke-width="0.5"/>
  <line x1="1101.0" y1="191.0" x2="1105.0" y2="86.0" stroke="black" stroke-width="0.5"/>
  <line x1="525.0" y1="476.0" x2="670.0" y2="476.0" stroke="black" stroke-width="0.5"/>
  <line x1="678.0" y1="319.0" x2="734.0" y2="320.0" stroke="black" stroke-width="0.5"/>
  <line x1="141.0" y1="288.0" x2="141.0" y2="98.0" stroke="black" stroke-width="0.5"/>
  <line x1="938.0" y1="111.0" x2="941.0" y2="161.0" stroke="black" stroke-width="0.5"/>
  <line x1="137.0" y1="293.0" x2="137.0" y2="136.0" stroke="black" stroke-width="0.5"/>
  <line x1="542.0" y1="480.0" x2="580.0" y2="480.0" stroke="black" stroke-width="0.5"/>
  <line x1="661.0" y1="477.0" x2="830.0" y2="477.0" stroke="black" stroke-width="0.5"/>
  <line x1="725.0" y1="29.0" x2="795.0" y2="29.0" stroke="black" stroke-width="0.5"/>
  <line x1="1249.0" y1="170.0" x2="1251.0" y2="66.0" stroke="black" stroke-width="0.5"/>
  <line x1="860.0" y1="318.0" x2="893.0" y2="318.0" stroke="black" stroke-width="0.5"/>
  <line x1="967.0" y1="292.0" x2="996.0" y2="292.0" stroke="black" stroke-width="0.5"/>
  <line x1="140.0" y1="177.0" x2="140.0" y2="136.0" stroke="black" stroke-width="0.5"/>
  <line x1="356.0" y1="275.0" x2="439.0" y2="276.0" stroke="black" stroke-width="0.5"/>
  <line x1="428.0" y1="617.0" x2="430.0" y2="578.0" stroke="black" stroke-width="0.5"/>
  <line x1="704.0" y1="775.0" x2="720.0" y2="695.0" stroke="black" stroke-width="0.5"/>
  <line x1="371.0" y1="462.0" x2="402.0" y2="462.0" stroke="black" stroke-width="0.5"/>
  <line x1="701.0" y1="712.0" x2="718.0" y2="637.0" stroke="black" stroke-width="0.5"/>
  <line x1="909.0" y1="473.0" x2="996.0" y2="474.0" stroke="black" stroke-width="0.5"/>
  <line x1="1098.0" y1="190.0" x2="1100.0" y2="132.0" stroke="black" stroke-width="0.5"/>
  <line x1="475.0" y1="282.0" x2="498.0" y2="283.0" stroke="black" stroke-width="0.5"/>
  <line x1="622.0" y1="19.0" x2="678.0" y2="19.0" stroke="black" stroke-width="0.5"/>
  <line x1="533.0" y1="282.0" x2="587.0" y2="283.0" stroke="black" stroke-width="0.5"/>
  <line x1="936.0" y1="25.0" x2="938.0" y2="81.0" stroke="black" stroke-width="0.5"/>
  <line x1="348.0" y1="279.0" x2="413.0" y2="279.0" stroke="black" stroke-width="0.5"/>
  <line x1="1088.0" y1="327.0" x2="1109.0" y2="327.0" stroke="black" stroke-width="0.5"/>
  <line x1="418.0" y1="838.0" x2="422.0" y2="759.0" stroke="black" stroke-width="0.5"/>
  <line x1="326.0" y1="23.0" x2="351.0" y2="23.0" stroke="black" stroke-width="0.5"/>
  <line x1="391.0" y1="466.0" x2="462.0" y2="467.0" stroke="black" stroke-width="0.5"/>
  <line x1="966.0" y1="643.0" x2="970.0" y2="723.0" stroke="black" stroke-width="0.5"/>
  <line x1="971.0" y1="638.0" x2="973.0" y2="722.0" stroke="black" stroke-width="0.5"/>
  <line x1="970.0" y1="470.0" x2="1015.0" y2="470.0" stroke="black" stroke-width="0.5"/>
  <line x1="598.0" y1="318.0" x2="645.0" y2="319.0" stroke="black" stroke-width="0.5"/>
  <line x1="1254.0" y1="110.0" x2="1256.0" y2="70.0" stroke="black" stroke-width="0.5"/>
  <line x1="713.0" y1="682.0" x2="722.0" y2="634.0" stroke="black" stroke-width="0.5"/>
  <line x1="776.0" y1="670.0" x2="778.0" y2="648.0" stroke="black" stroke-width="0.5"/>
  <line x1="1068.0" y1="240.0" x2="1071.0" y2="149.0" stroke="black" stroke-width="0.5"/>
  <line x1="438.0" y1="463.0" x2="518.0" y2="465.0" stroke="black" stroke-width="0.5"/>
  <line x1="242.0" y1="306.0" x2="316.0" y2="306.0" stroke="black" stroke-width="0.5"/>
  <line x1="812.0" y1="15.0" x2="840.0" y2="15.0" stroke="black" stroke-width="0.5"/>
  <line x1="898.0" y1="469.0" x2="969.0" y2="469.0" stroke="black" stroke-width="0.5"/>
  <line x1="322.0" y1="21.0" x2="325.0" y2="100.0" stroke="black" stroke-width="0.5"/>
  <line x1="818.0" y1="262.0" x2="861.0" y2="259.0" stroke="black" stroke-width="0.5"/>
  <line x1="491.0" y1="126.0" x2="496.0" y2="208.0" stroke="black" stroke-width="0.5"/>
  <line x1="696.0" y1="772.0" x2="713.0" y2="676.0" stroke="black" stroke-width="0.5"/>
  <line x1="801.0" y1="321.0" x2="857.0" y2="321.0" stroke="black" stroke-width="0.5"/>
  <line x1="908.0" y1="292.0" x2="947.0" y2="291.0" stroke="black" stroke-width="0.5"/>
  <line x1="641.0" y1="28.0" x2="671.0" y2="29.0" stroke="black" stroke-width="0.5"/>
  <line x1="497.0" y1="159.0" x2="499.0" y2="231.0" stroke="black" stroke-width="0.5"/>
  <line x1="1084.0" y1="318.0" x2="1108.0" y2="322.0" stroke="black" stroke-width="0.5"/>
  <line x1="810.0" y1="484.0" x2="878.0" y2="484.0" stroke="black" stroke-width="0.5"/>
  <line x1="414.0" y1="280.0" x2="447.0" y2="280.0" stroke="black" stroke-width="0.5"/>
  <line x1="413.0" y1="834.0" x2="417.0" y2="763.0" stroke="black" stroke-width="0.5"/>
  <line x1="578.0" y1="204.0" x2="590.0" y2="234.0" stroke="black" stroke-width="0.5"/>
  <line x1="1095.0" y1="265.0" x2="1098.0" y2="208.0" stroke="black" stroke-width="0.5"/>
  <line x1="773.0" y1="37.0" x2="878.0" y2="41.0" stroke="black" stroke-width="0.5"/>
  <line x1="623.0" y1="712.0" x2="644.0" y2="665.0" stroke="black" stroke-width="0.5"/>
  <line x1="298.0" y1="392.0" x2="347.0" y2="464.0" stroke="black" stroke-width="0.5"/>
  <line x1="1141.0" y1="316.0" x2="1228.0" y2="317.0" stroke="black" stroke-width="0.5"/>
  <line x1="1053.0" y1="327.0" x2="1073.0" y2="327.0" stroke="black" stroke-width="0.5"/>
  <line x1="700.0" y1="775.0" x2="709.0" y2="726.0" stroke="black" stroke-width="0.5"/>
  <line x1="846.0" y1="20.0" x2="879.0" y2="20.0" stroke="black" stroke-width="0.5"/>
  <line x1="490.0" y1="37.0" x2="527.0" y2="93.0" stroke="black" stroke-width="0.5"/>
  <line x1="490.0" y1="27.0" x2="545.0" y2="109.0" stroke="black" stroke-width="0.5"/>
  <line x1="937.0" y1="329.0" x2="977.0" y2="329.0" stroke="black" stroke-width="0.5"/>
  <line x1="782.0" y1="20.0" x2="824.0" y2="19.0" stroke="black" stroke-width="0.5"/>
  <line x1="824.0" y1="31.0" x2="879.0" y2="31.0" stroke="black" stroke-width="0.5"/>
  <line x1="1098.0" y1="287.0" x2="1099.0" y2="207.0" stroke="black" stroke-width="0.5"/>
  <line x1="1095.0" y1="331.0" x2="1160.0" y2="331.0" stroke="black" stroke-width="0.5"/>
  <line x1="626.0" y1="25.0" x2="670.0" y2="26.0" stroke="black" stroke-width="0.5"/>
  <line x1="204.0" y1="425.0" x2="204.0" y2="326.0" stroke="black" stroke-width="0.5"/>
  <line x1="417.0" y1="26.0" x2="491.0" y2="131.0" stroke="black" stroke-width="0.5"/>
  <line x1="1244.0" y1="327.0" x2="1248.0" y2="208.0" stroke="black" stroke-width="0.5"/>
  <line x1="564.0" y1="208.0" x2="567.0" y2="237.0" stroke="black" stroke-width="0.5"/>
  <line x1="727.0" y1="512.0" x2="781.0" y2="512.0" stroke="black" stroke-width="0.5"/>
  <line x1="796.0" y1="30.0" x2="837.0" y2="30.0" stroke="black" stroke-width="0.5"/>
  <line x1="215.0" y1="306.0" x2="254.0" y2="305.0" stroke="black" stroke-width="0.5"/>
  <line x1="200.0" y1="420.0" x2="200.0" y2="335.0" stroke="black" stroke-width="0.5"/>
  <line x1="911.0" y1="285.0" x2="992.0" y2="285.0" stroke="black" stroke-width="0.5"/>
  <line x1="398.0" y1="76.0" x2="439.0" y2="106.0" stroke="black" stroke-width="0.5"/>
  <line x1="813.0" y1="210.0" x2="847.0" y2="221.0" stroke="black" stroke-width="0.5"/>
  <line x1="363.0" y1="49.0" x2="424.0" y2="102.0" stroke="black" stroke-width="0.5"/>
  <line x1="642.0" y1="22.0" x2="671.0" y2="21.0" stroke="black" stroke-width="0.5"/>
  <line x1="913.0" y1="81.0" x2="913.0" y2="55.0" stroke="black" stroke-width="0.5"/>
  <line x1="806.0" y1="46.0" x2="869.0" y2="46.0" stroke="black" stroke-width="0.5"/>
  <line x1="634.0" y1="318.0" x2="685.0" y2="320.0" stroke="black" stroke-width="0.5"/>
  <line x1="764.0" y1="185.0" x2="860.0" y2="162.0" stroke="black" stroke-width="0.5"/>
  <line x1="552.0" y1="317.0" x2="595.0" y2="318.0" stroke="black" stroke-width="0.5"/>
  <line x1="1069.0" y1="124.0" x2="1070.0" y2="103.0" stroke="black" stroke-width="0.5"/>
  <line x1="585.0" y1="717.0" x2="598.0" y2="692.0" stroke="black" stroke-width="0.5"/>
  <line x1="810.0" y1="27.0" x2="878.0" y2="27.0" stroke="black" stroke-width="0.5"/>
  <line x1="730.0" y1="316.0" x2="758.0" y2="316.0" stroke="black" stroke-width="0.5"/>
  <line x1="974.0" y1="781.0" x2="976.0" y2="828.0" stroke="black" stroke-width="0.5"/>
  <line x1="1080.0" y1="323.0" x2="1152.0" y2="322.0" stroke="black" stroke-width="0.5"/>
  <line x1="857.0" y1="75.0" x2="869.0" y2="15.0" stroke="black" stroke-width="0.5"/>
  <line x1="554.0" y1="279.0" x2="636.0" y2="274.0" stroke="black" stroke-width="0.5"/>
  <line x1="764.0" y1="187.0" x2="863.0" y2="163.0" stroke="black" stroke-width="0.5"/>
  <line x1="596.0" y1="95.0" x2="608.0" y2="118.0" stroke="black" stroke-width="0.5"/>
  <line x1="346.0" y1="464.0" x2="371.0" y2="464.0" stroke="black" stroke-width="0.5"/>
  <line x1="733.0" y1="746.0" x2="740.0" y2="700.0" stroke="black" stroke-width="0.5"/>
  <line x1="762.0" y1="632.0" x2="774.0" y2="673.0" stroke="black" stroke-width="0.5"/>
  <line x1="771.0" y1="675.0" x2="773.0" y2="640.0" stroke="black" stroke-width="0.5"/>
  <line x1="967.0" y1="628.0" x2="969.0" y2="662.0" stroke="black" stroke-width="0.5"/>
  <line x1="967.0" y1="550.0" x2="971.0" y2="635.0" stroke="black" stroke-width="0.5"/>
  <line x1="756.0" y1="40.0" x2="817.0" y2="42.0" stroke="black" stroke-width="0.5"/>
  <line x1="971.0" y1="781.0" x2="974.0" y2="845.0" stroke="black" stroke-width="0.5"/>
  <line x1="694.0" y1="764.0" x2="699.0" y2="723.0" stroke="black" stroke-width="0.5"/>
  <line x1="939.0" y1="143.0" x2="941.0" y2="178.0" stroke="black" stroke-width="0.5"/>
  <line x1="853.0" y1="77.0" x2="857.0" y2="50.0" stroke="black" stroke-width="0.5"/>
  <line x1="1070.0" y1="85.0" x2="1072.0" y2="18.0" stroke="black" stroke-width="0.5"/>
  <line x1="557.0" y1="151.0" x2="570.0" y2="180.0" stroke="black" stroke-width="0.5"/>
  <line x1="207.0" y1="429.0" x2="285.0" y2="429.0" stroke="black" stroke-width="0.5"/>
  <line x1="1184.0" y1="449.0" x2="1184.0" y2="356.0" stroke="black" stroke-width="0.5"/>
  <line x1="805.0" y1="49.0" x2="878.0" y2="51.0" stroke="black" stroke-width="0.5"/>
  <line x1="1105.0" y1="441.0" x2="1150.0" y2="442.0" stroke="black" stroke-width="0.5"/>
  <line x1="458.0" y1="322.0" x2="483.0" y2="322.0" stroke="black" stroke-width="0.5"/>
  <line x1="603.0" y1="99.0" x2="613.0" y2="171.0" stroke="black" stroke-width="0.5"/>
  <line x1="819.0" y1="287.0" x2="822.0" y2="239.0" stroke="black" stroke-width="0.5"/>
  <line x1="425.0" y1="699.0" x2="426.0" y2="653.0" stroke="black" stroke-width="0.5"/>
  <line x1="830.0" y1="225.0" x2="860.0" y2="202.0" stroke="black" stroke-width="0.5"/>
  <line x1="766.0" y1="180.0" x2="826.0" y2="164.0" stroke="black" stroke-width="0.5"/>
  <line x1="269.0" y1="425.0" x2="299.0" y2="425.0" stroke="black" stroke-width="0.5"/>
  <line x1="777.0" y1="26.0" x2="868.0" y2="26.0" stroke="black" stroke-width="0.5"/>
  <line x1="974.0" y1="741.0" x2="975.0" y2="763.0" stroke="black" stroke-width="0.5"/>
  <line x1="1159.0" y1="328.0" x2="1181.0" y2="336.0" stroke="black" stroke-width="0.5"/>
  <line x1="1256.0" y1="69.0" x2="1257.0" y2="5.0" stroke="black" stroke-width="0.5"/>
  <line x1="800.0" y1="232.0" x2="835.0" y2="166.0" stroke="black" stroke-width="0.5"/>
  <line x1="554.0" y1="10.0" x2="601.0" y2="107.0" stroke="black" stroke-width="0.5"/>
  <line x1="572.0" y1="481.0" x2="629.0" y2="481.0" stroke="black" stroke-width="0.5"/>
  <line x1="707.0" y1="994.0" x2="756.0" y2="994.0" stroke="black" stroke-width="0.5"/>
  <line x1="932.0" y1="239.0" x2="937.0" y2="111.0" stroke="black" stroke-width="0.5"/>
  <line x1="797.0" y1="232.0" x2="827.0" y2="175.0" stroke="black" stroke-width="0.5"/>
  <line x1="846.0" y1="76.0" x2="855.0" y2="16.0" stroke="black" stroke-width="0.5"/>
  <line x1="326.0" y1="33.0" x2="326.0" y2="59.0" stroke="black" stroke-width="0.5"/>
  <line x1="1254.0" y1="124.0" x2="1254.0" y2="164.0" stroke="black" stroke-width="0.5"/>
  <line x1="1056.0" y1="455.0" x2="1096.0" y2="400.0" stroke="black" stroke-width="0.5"/>
  <line x1="1030.0" y1="332.0" x2="1151.0" y2="328.0" stroke="black" stroke-width="0.5"/>
  <line x1="174.0" y1="306.0" x2="214.0" y2="305.0" stroke="black" stroke-width="0.5"/>
  <line x1="621.0" y1="524.0" x2="746.0" y2="524.0" stroke="black" stroke-width="0.5"/>
  <line x1="590.0" y1="86.0" x2="619.0" y2="83.0" stroke="black" stroke-width="0.5"/>
  <line x1="558.0" y1="155.0" x2="568.0" y2="179.0" stroke="black" stroke-width="0.5"/>
  <line x1="631.0" y1="41.0" x2="636.0" y2="80.0" stroke="black" stroke-width="0.5"/>
  <line x1="826.0" y1="707.0" x2="852.0" y2="709.0" stroke="black" stroke-width="0.5"/>
  <line x1="568.0" y1="206.0" x2="576.0" y2="235.0" stroke="black" stroke-width="0.5"/>
  <line x1="672.0" y1="514.0" x2="782.0" y2="516.0" stroke="black" stroke-width="0.5"/>
  <line x1="463.0" y1="468.0" x2="491.0" y2="468.0" stroke="black" stroke-width="0.5"/>
  <line x1="754.0" y1="692.0" x2="769.0" y2="636.0" stroke="black" stroke-width="0.5"/>
  <line x1="1158.0" y1="329.0" x2="1184.0" y2="339.0" stroke="black" stroke-width="0.5"/>
  <line x1="870.0" y1="86.0" x2="878.0" y2="48.0" stroke="black" stroke-width="0.5"/>
  <line x1="798.0" y1="698.0" x2="830.0" y2="698.0" stroke="black" stroke-width="0.5"/>
  <line x1="476.0" y1="317.0" x2="507.0" y2="319.0" stroke="black" stroke-width="0.5"/>
  <line x1="225.0" y1="314.0" x2="302.0" y2="314.0" stroke="black" stroke-width="0.5"/>
  <line x1="1071.0" y1="102.0" x2="1076.0" y2="15.0" stroke="black" stroke-width="0.5"/>
  <line x1="939.0" y1="43.0" x2="939.0" y2="15.0" stroke="black" stroke-width="0.5"/>
  <line x1="650.0" y1="691.0" x2="678.0" y2="685.0" stroke="black" stroke-width="0.5"/>
  <line x1="532.0" y1="97.0" x2="548.0" y2="131.0" stroke="black" stroke-width="0.5"/>
  <line x1="497.0" y1="233.0" x2="499.0" y2="297.0" stroke="black" stroke-width="0.5"/>
  <line x1="519.0" y1="315.0" x2="554.0" y2="313.0" stroke="black" stroke-width="0.5"/>
  <line x1="997.0" y1="292.0" x2="1031.0" y2="293.0" stroke="black" stroke-width="0.5"/>
  <line x1="718.0" y1="707.0" x2="725.0" y2="673.0" stroke="black" stroke-width="0.5"/>
  <line x1="669.0" y1="517.0" x2="757.0" y2="518.0" stroke="black" stroke-width="0.5"/>
  <line x1="437.0" y1="23.0" x2="459.0" y2="24.0" stroke="black" stroke-width="0.5"/>
  <line x1="852.0" y1="187.0" x2="855.0" y2="164.0" stroke="black" stroke-width="0.5"/>
  <line x1="279.0" y1="18.0" x2="309.0" y2="20.0" stroke="black" stroke-width="0.5"/>
  <line x1="570.0" y1="699.0" x2="666.0" y2="652.0" stroke="black" stroke-width="0.5"/>
  <line x1="621.0" y1="512.0" x2="648.0" y2="517.0" stroke="black" stroke-width="0.5"/>
  <line x1="1188.0" y1="403.0" x2="1188.0" y2="349.0" stroke="black" stroke-width="0.5"/>
  <line x1="537.0" y1="277.0" x2="588.0" y2="275.0" stroke="black" stroke-width="0.5"/>
  <line x1="795.0" y1="76.0" x2="878.0" y2="76.0" stroke="black" stroke-width="0.5"/>
  <line x1="942.0" y1="324.0" x2="1026.0" y2="326.0" stroke="black" stroke-width="0.5"/>
  <line x1="603.0" y1="277.0" x2="637.0" y2="275.0" stroke="black" stroke-width="0.5"/>
  <line x1="569.0" y1="315.0" x2="610.0" y2="314.0" stroke="black" stroke-width="0.5"/>
  <line x1="606.0" y1="693.0" x2="663.0" y2="674.0" stroke="black" stroke-width="0.5"/>
  <line x1="406.0" y1="26.0" x2="453.0" y2="28.0" stroke="black" stroke-width="0.5"/>
  <line x1="1126.0" y1="436.0" x2="1164.0" y2="436.0" stroke="black" stroke-width="0.5"/>
  <line x1="778.0" y1="264.0" x2="802.0" y2="262.0" stroke="black" stroke-width="0.5"/>
  <line x1="521.0" y1="658.0" x2="523.0" y2="696.0" stroke="black" stroke-width="0.5"/>
  <line x1="789.0" y1="726.0" x2="799.0" y2="749.0" stroke="black" stroke-width="0.5"/>
  <line x1="970.0" y1="744.0" x2="971.0" y2="765.0" stroke="black" stroke-width="0.5"/>
  <line x1="420.0" y1="34.0" x2="446.0" y2="34.0" stroke="black" stroke-width="0.5"/>
  <line x1="725.0" y1="24.0" x2="752.0" y2="24.0" stroke="black" stroke-width="0.5"/>
  <line x1="1065.0" y1="239.0" x2="1068.0" y2="179.0" stroke="black" stroke-width="0.5"/>
  <line x1="1102.0" y1="99.0" x2="1105.0" y2="29.0" stroke="black" stroke-width="0.5"/>
  <line x1="279.0" y1="17.0" x2="315.0" y2="18.0" stroke="black" stroke-width="0.5"/>
  <line x1="566.0" y1="206.0" x2="594.0" y2="230.0" stroke="black" stroke-width="0.5"/>
  <line x1="879.0" y1="473.0" x2="908.0" y2="474.0" stroke="black" stroke-width="0.5"/>
  <line x1="527.0" y1="654.0" x2="557.0" y2="658.0" stroke="black" stroke-width="0.5"/>
  <line x1="655.0" y1="698.0" x2="673.0" y2="644.0" stroke="black" stroke-width="0.5"/>
  <line x1="631.0" y1="908.0" x2="746.0" y2="908.0" stroke="black" stroke-width="0.5"/>
  <line x1="725.0" y1="483.0" x2="809.0" y2="485.0" stroke="black" stroke-width="0.5"/>
  <line x1="813.0" y1="37.0" x2="839.0" y2="37.0" stroke="black" stroke-width="0.5"/>
  <line x1="542.0" y1="213.0" x2="613.0" y2="224.0" stroke="black" stroke-width="0.5"/>
  <line x1="933.0" y1="182.0" x2="934.0" y2="130.0" stroke="black" stroke-width="0.5"/>
  <line x1="582.0" y1="699.0" x2="596.0" y2="662.0" stroke="black" stroke-width="0.5"/>
  <line x1="546.0" y1="124.0" x2="555.0" y2="160.0" stroke="black" stroke-width="0.5"/>
  <line x1="485.0" y1="32.0" x2="513.0" y2="33.0" stroke="black" stroke-width="0.5"/>
  <line x1="492.0" y1="0.0" x2="493.0" y2="30.0" stroke="black" stroke-width="0.5"/>
  <line x1="835.0" y1="62.0" x2="855.0" y2="60.0" stroke="black" stroke-width="0.5"/>
  <line x1="434.0" y1="25.0" x2="458.0" y2="25.0" stroke="black" stroke-width="0.5"/>
  <line x1="499.0" y1="203.0" x2="501.0" y2="253.0" stroke="black" stroke-width="0.5"/>
  <line x1="783.0" y1="714.0" x2="797.0" y2="749.0" stroke="black" stroke-width="0.5"/>
  <line x1="279.0" y1="12.0" x2="301.0" y2="19.0" stroke="black" stroke-width="0.5"/>
  <line x1="827.0" y1="177.0" x2="866.0" y2="169.0" stroke="black" stroke-width="0.5"/>
  <line x1="871.0" y1="70.0" x2="879.0" y2="28.0" stroke="black" stroke-width="0.5"/>
  <line x1="590.0" y1="690.0" x2="635.0" y2="678.0" stroke="black" stroke-width="0.5"/>
  <line x1="910.0" y1="216.0" x2="911.0" y2="187.0" stroke="black" stroke-width="0.5"/>
  <line x1="427.0" y1="616.0" x2="429.0" y2="580.0" stroke="black" stroke-width="0.5"/>
  <line x1="597.0" y1="671.0" x2="660.0" y2="682.0" stroke="black" stroke-width="0.5"/>
  <line x1="673.0" y1="701.0" x2="677.0" y2="679.0" stroke="black" stroke-width="0.5"/>
  <line x1="941.0" y1="111.0" x2="942.0" y2="134.0" stroke="black" stroke-width="0.5"/>
  <line x1="316.0" y1="24.0" x2="345.0" y2="33.0" stroke="black" stroke-width="0.5"/>
  <line x1="932.0" y1="227.0" x2="942.0" y2="203.0" stroke="black" stroke-width="0.5"/>
  <line x1="872.0" y1="71.0" x2="878.0" y2="42.0" stroke="black" stroke-width="0.5"/>
  <line x1="781.0" y1="14.0" x2="810.0" y2="14.0" stroke="black" stroke-width="0.5"/>
  <line x1="570.0" y1="206.0" x2="574.0" y2="226.0" stroke="black" stroke-width="0.5"/>
  <line x1="542.0" y1="211.0" x2="615.0" y2="223.0" stroke="black" stroke-width="0.5"/>
  <line x1="658.0" y1="652.0" x2="663.0" y2="701.0" stroke="black" stroke-width="0.5"/>
  <line x1="437.0" y1="527.0" x2="516.0" y2="490.0" stroke="black" stroke-width="0.5"/>
  <line x1="572.0" y1="277.0" x2="593.0" y2="278.0" stroke="black" stroke-width="0.5"/>
  <line x1="912.0" y1="140.0" x2="912.0" y2="105.0" stroke="black" stroke-width="0.5"/>
  <line x1="542.0" y1="710.0" x2="584.0" y2="709.0" stroke="black" stroke-width="0.5"/>
  <line x1="612.0" y1="137.0" x2="616.0" y2="170.0" stroke="black" stroke-width="0.5"/>
  <line x1="826.0" y1="262.0" x2="870.0" y2="260.0" stroke="black" stroke-width="0.5"/>
  <line x1="993.0" y1="286.0" x2="1019.0" y2="286.0" stroke="black" stroke-width="0.5"/>
  <line x1="735.0" y1="749.0" x2="739.0" y2="729.0" stroke="black" stroke-width="0.5"/>
  <line x1="331.0" y1="24.0" x2="352.0" y2="24.0" stroke="black" stroke-width="0.5"/>
  <line x1="620.0" y1="519.0" x2="775.0" y2="522.0" stroke="black" stroke-width="0.5"/>
  <line x1="558.0" y1="6.0" x2="593.0" y2="75.0" stroke="black" stroke-width="0.5"/>
  <line x1="621.0" y1="511.0" x2="678.0" y2="511.0" stroke="black" stroke-width="0.5"/>
  <line x1="939.0" y1="167.0" x2="941.0" y2="210.0" stroke="black" stroke-width="0.5"/>
  <line x1="468.0" y1="7.0" x2="488.0" y2="36.0" stroke="black" stroke-width="0.5"/>
  <line x1="798.0" y1="749.0" x2="804.0" y2="693.0" stroke="black" stroke-width="0.5"/>
  <line x1="297.0" y1="391.0" x2="345.0" y2="463.0" stroke="black" stroke-width="0.5"/>
  <line x1="836.0" y1="170.0" x2="863.0" y2="164.0" stroke="black" stroke-width="0.5"/>
  <line x1="599.0" y1="684.0" x2="629.0" y2="688.0" stroke="black" stroke-width="0.5"/>
  <line x1="577.0" y1="257.0" x2="609.0" y2="257.0" stroke="black" stroke-width="0.5"/>
  <line x1="327.0" y1="60.0" x2="327.0" y2="94.0" stroke="black" stroke-width="0.5"/>
  <line x1="522.0" y1="724.0" x2="558.0" y2="708.0" stroke="black" stroke-width="0.5"/>
  <line x1="862.0" y1="71.0" x2="868.0" y2="38.0" stroke="black" stroke-width="0.5"/>
  <line x1="564.0" y1="678.0" x2="569.0" y2="699.0" stroke="black" stroke-width="0.5"/>
  <line x1="877.0" y1="495.0" x2="880.0" y2="470.0" stroke="black" stroke-width="0.5"/>
  <line x1="962.0" y1="551.0" x2="965.0" y2="608.0" stroke="black" stroke-width="0.5"/>
  <line x1="859.0" y1="19.0" x2="879.0" y2="19.0" stroke="black" stroke-width="0.5"/>
  <line x1="926.0" y1="327.0" x2="955.0" y2="328.0" stroke="black" stroke-width="0.5"/>
  <line x1="542.0" y1="215.0" x2="621.0" y2="228.0" stroke="black" stroke-width="0.5"/>
  <line x1="765.0" y1="182.0" x2="826.0" y2="166.0" stroke="black" stroke-width="0.5"/>
  <line x1="426.0" y1="652.0" x2="430.0" y2="606.0" stroke="black" stroke-width="0.5"/>
  <line x1="846.0" y1="695.0" x2="848.0" y2="742.0" stroke="black" stroke-width="0.5"/>
  <line x1="309.0" y1="320.0" x2="340.0" y2="321.0" stroke="black" stroke-width="0.5"/>
  <line x1="552.0" y1="692.0" x2="591.0" y2="694.0" stroke="black" stroke-width="0.5"/>
  <line x1="713.0" y1="680.0" x2="745.0" y2="684.0" stroke="black" stroke-width="0.5"/>
  <line x1="764.0" y1="705.0" x2="784.0" y2="736.0" stroke="black" stroke-width="0.5"/>
  <line x1="541.0" y1="100.0" x2="552.0" y2="127.0" stroke="black" stroke-width="0.5"/>
  <line x1="738.0" y1="317.0" x2="779.0" y2="317.0" stroke="red" stroke-width="0.5" stroke-dasharray="5,3"/>
  <line x1="863.0" y1="76.0" x2="880.0" y2="1.0" stroke="red" stroke-width="0.5" stroke-dasharray="5,3"/>
  <line x1="611.0" y1="314.0" x2="696.0" y2="316.0" stroke="red" stroke-width="0.5" stroke-dasharray="5,3"/>
  <line x1="705.0" y1="743.0" x2="718.0" y2="681.0" stroke="red" stroke-width="0.5" stroke-dasharray="5,3"/>
  <line x1="446.0" y1="56.0" x2="516.0" y2="163.0" stroke="red" stroke-width="0.5" stroke-dasharray="5,3"/>
  <line x1="474.0" y1="108.0" x2="488.0" y2="128.0" stroke="red" stroke-width="0.5" stroke-dasharray="5,3"/>
  <line x1="772.0" y1="723.0" x2="774.0" y2="698.0" stroke="red" stroke-width="0.5" stroke-dasharray="5,3"/>
  <line x1="140.0" y1="124.0" x2="140.0" y2="12.0" stroke="red" stroke-width="0.5" stroke-dasharray="5,3"/>
  <line x1="606.0" y1="283.0" x2="637.0" y2="282.0" stroke="red" stroke-width="0.5" stroke-dasharray="5,3"/>
  <line x1="756.0" y1="36.0" x2="878.0" y2="40.0" stroke="red" stroke-width="0.5" stroke-dasharray="5,3"/>
  <line x1="539.0" y1="97.0" x2="553.0" y2="132.0" stroke="red" stroke-width="0.5" stroke-dasharray="5,3"/>
  <line x1="712.0" y1="711.0" x2="724.0" y2="657.0" stroke="red" stroke-width="0.5" stroke-dasharray="5,3"/>
  <line x1="895.0" y1="317.0" x2="903.0" y2="297.0" stroke="red" stroke-width="0.5" stroke-dasharray="5,3"/>
  <line x1="618.0" y1="713.0" x2="643.0" y2="660.0" stroke="red" stroke-width="0.5" stroke-dasharray="5,3"/>
  <line x1="528.0" y1="724.0" x2="548.0" y2="690.0" stroke="red" stroke-width="0.5" stroke-dasharray="5,3"/>
  <line x1="747.0" y1="695.0" x2="752.0" y2="666.0" stroke="red" stroke-width="0.5" stroke-dasharray="5,3"/>
  <line x1="314.0" y1="409.0" x2="346.0" y2="457.0" stroke="red" stroke-width="0.5" stroke-dasharray="5,3"/>
  <line x1="603.0" y1="80.0" x2="631.0" y2="80.0" stroke="red" stroke-width="0.5" stroke-dasharray="5,3"/>
  <line x1="772.0" y1="696.0" x2="786.0" y2="732.0" stroke="red" stroke-width="0.5" stroke-dasharray="5,3"/>
  <line x1="794.0" y1="749.0" x2="798.0" y2="697.0" stroke="red" stroke-width="0.5" stroke-dasharray="5,3"/>
  <line x1="664.0" y1="991.0" x2="763.0" y2="989.0" stroke="red" stroke-width="0.5" stroke-dasharray="5,3"/>
  <line x1="750.0" y1="694.0" x2="759.0" y2="663.0" stroke="red" stroke-width="0.5" stroke-dasharray="5,3"/>
  <line x1="408.0" y1="84.0" x2="434.0" y2="105.0" stroke="red" stroke-width="0.5" stroke-dasharray="5,3"/>
  <line x1="790.0" y1="183.0" x2="864.0" y2="165.0" stroke="red" stroke-width="0.5" stroke-dasharray="5,3"/>
  <line x1="824.0" y1="57.0" x2="855.0" y2="59.0" stroke="red" stroke-width="0.5" stroke-dasharray="5,3"/>
  <line x1="900.0" y1="497.0" x2="947.0" y2="520.0" stroke="red" stroke-width="0.5" stroke-dasharray="5,3"/>
  <line x1="517.0" y1="721.0" x2="694.0" y2="653.0" stroke="red" stroke-width="0.5" stroke-dasharray="5,3"/>
  <line x1="518.0" y1="695.0" x2="525.0" y2="655.0" stroke="red" stroke-width="0.5" stroke-dasharray="5,3"/>
  <line x1="834.0" y1="72.0" x2="865.0" y2="70.0" stroke="red" stroke-width="0.5" stroke-dasharray="5,3"/>
  <line x1="534.0" y1="279.0" x2="606.0" y2="275.0" stroke="red" stroke-width="0.5" stroke-dasharray="5,3"/>
  <line x1="708.0" y1="898.0" x2="765.0" y2="899.0" stroke="red" stroke-width="0.5" stroke-dasharray="5,3"/>
</svg>