  0
SECTION
  2
HEADER
  9
$ACADVER
  1
AC1024
  9
$ACADMAINTVER
 70
6
  9
$DWGCODEPAGE
  3
ANSI_1252
  9
$LASTSAVEDBY
  1
ezdxf
  9
$INSBASE
 10
0.0
 20
0.0
 30
0.0
  9
$EXTMIN
 10
1e+20
 20
1e+20
 30
1e+20
  9
$EXTMAX
 10
-1e+20
 20
-1e+20
 30
-1e+20
  9
$LIMMIN
 10
0.0
 20
0.0
  9
$LIMMAX
 10
420.0
 20
297.0
  9
$ORTHOMODE
 70
0
  9
$REGENMODE
 70
1
  9
$FILLMODE
 70
1
  9
$QTEXTMODE
 70
0
  9
$MIRRTEXT
 70
1
  9
$LTSCALE
 40
1.0
  9
$ATTMODE
 70
1
  9
$TEXTSIZE
 40
2.5
  9
$TRACEWID
 40
1.0
  9
$TEXTSTYLE
  7
Standard
  9
$CLAYER
  8
0
  9
$CELTYPE
  6
ByLayer
  9
$CECOLOR
 62
256
  9
$CELTSCALE
 40
1.0
  9
$DISPSILH
 70
0
  9
$DIMSCALE
 40
1.0
  9
$DIMASZ
 40
2.5
  9
$DIMEXO
 40
0.625
  9
$DIMDLI
 40
3.75
  9
$DIMRND
 40
0.0
  9
$DIMDLE
 40
0.0
  9
$DIMEXE
 40
1.25
  9
$DIMTP
 40
0.0
  9
$DIMTM
 40
0.0
  9
$DIMTXT
 40
2.5
  9
$DIMCEN
 40
2.5
  9
$DIMTSZ
 40
0.0
  9
$DIMTOL
 70
0
  9
$DIMLIM
 70
0
  9
$DIMTIH
 70
0
  9
$DIMTOH
 70
0
  9
$DIMSE1
 70
0
  9
$DIMSE2
 70
0
  9
$DIMTAD
 70
1
  9
$DIMZIN
 70
8
  9
$DIMBLK
  1

  9
$DIMASO
 70
1
  9
$DIMSHO
 70
1
  9
$DIMPOST
  1

  9
$DIMAPOST
  1

  9
$DIMALT
 70
0
  9
$DIMALTD
 70
3
  9
$DIMALTF
 40
0.03937007874
  9
$DIMLFAC
 40
1.0
  9
$DIMTOFL
 70
1
  9
$DIMTVP
 40
0.0
  9
$DIMTIX
 70
0
  9
$DIMSOXD
 70
0
  9
$DIMSAH
 70
0
  9
$DIMBLK1
  1

  9
$DIMBLK2
  1

  9
$DIMSTYLE
  2
ISO-25
  9
$DIMCLRD
 70
0
  9
$DIMCLRE
 70
0
  9
$DIMCLRT
 70
0
  9
$DIMTFAC
 40
1.0
  9
$DIMGAP
 40
0.625
  9
$DIMJUST
 70
0
  9
$DIMSD1
 70
0
  9
$DIMSD2
 70
0
  9
$DIMTOLJ
 70
0
  9
$DIMTZIN
 70
8
  9
$DIMALTZ
 70
0
  9
$DIMALTTZ
 70
0
  9
$DIMUPT
 70
0
  9
$DIMDEC
 70
2
  9
$DIMTDEC
 70
2
  9
$DIMALTU
 70
2
  9
$DIMALTTD
 70
3
  9
$DIMTXSTY
  7
Standard
  9
$DIMAUNIT
 70
0
  9
$DIMADEC
 70
0
  9
$DIMALTRND
 40
0.0
  9
$DIMAZIN
 70
0
  9
$DIMDSEP
 70
44
  9
$DIMATFIT
 70
3
  9
$DIMFRAC
 70
0
  9
$DIMLDRBLK
  1

  9
$DIMLUNIT
 70
2
  9
$DIMLWD
 70
-2
  9
$DIMLWE
 70
-2
  9
$DIMTMOVE
 70
0
  9
$DIMFXL
 40
1.0
  9
$DIMFXLON
 70
0
  9
$DIMJOGANG
 40
0.785398163397
  9
$DIMTFILL
 70
0
  9
$DIMTFILLCLR
 70
0
  9
$DIMARCSYM
 70
0
  9
$DIMLTYPE
  6

  9
$DIMLTEX1
  6

  9
$DIMLTEX2
  6

  9
$DIMTXTDIRECTION
 70
0
  9
$LUNITS
 70
2
  9
$LUPREC
 70
4
  9
$SKETCHINC
 40
1.0
  9
$FILLETRAD
 40
10.0
  9
$AUNITS
 70
0
  9
$AUPREC
 70
2
  9
$MENU
  1
.
  9
$ELEVATION
 40
0.0
  9
$PELEVATION
 40
0.0
  9
$THICKNESS
 40
0.0
  9
$LIMCHECK
 70
0
  9
$CHAMFERA
 40
0.0
  9
$CHAMFERB
 40
0.0
  9
$CHAMFERC
 40
0.0
  9
$CHAMFERD
 40
0.0
  9
$SKPOLY
 70
0
  9
$TDCREATE
 40
2461131.750914352
  9
$TDUCREATE
 40
2458532.153996898
  9
$TDUPDATE
 40
2461131.750914352
  9
$TDUUPDATE
 40
2458532.1544311
  9
$TDINDWG
 40
0.0
  9
$TDUSRTIMER
 40
0.0
  9
$USRTIMER
 70
1
  9
$ANGBASE
 50
0.0
  9
$ANGDIR
 70
0
  9
$PDMODE
 70
0
  9
$PDSIZE
 40
0.0
  9
$PLINEWID
 40
0.0
  9
$SPLFRAME
 70
0
  9
$SPLINETYPE
 70
6
  9
$SPLINESEGS
 70
8
  9
$HANDSEED
  5
168
  9
$SURFTAB1
 70
6
  9
$SURFTAB2
 70
6
  9
$SURFTYPE
 70
6
  9
$SURFU
 70
6
  9
$SURFV
 70
6
  9
$UCSBASE
  2

  9
$UCSNAME
  2

  9
$UCSORG
 10
0.0
 20
0.0
 30
0.0
  9
$UCSXDIR
 10
1.0
 20
0.0
 30
0.0
  9
$UCSYDIR
 10
0.0
 20
1.0
 30
0.0
  9
$UCSORTHOREF
  2

  9
$UCSORTHOVIEW
 70
0
  9
$UCSORGTOP
 10
0.0
 20
0.0
 30
0.0
  9
$UCSORGBOTTOM
 10
0.0
 20
0.0
 30
0.0
  9
$UCSORGLEFT
 10
0.0
 20
0.0
 30
0.0
  9
$UCSORGRIGHT
 10
0.0
 20
0.0
 30
0.0
  9
$UCSORGFRONT
 10
0.0
 20
0.0
 30
0.0
  9
$UCSORGBACK
 10
0.0
 20
0.0
 30
0.0
  9
$PUCSBASE
  2

  9
$PUCSNAME
  2

  9
$PUCSORG
 10
0.0
 20
0.0
 30
0.0
  9
$PUCSXDIR
 10
1.0
 20
0.0
 30
0.0
  9
$PUCSYDIR
 10
0.0
 20
1.0
 30
0.0
  9
$PUCSORTHOREF
  2

  9
$PUCSORTHOVIEW
 70
0
  9
$PUCSORGTOP
 10
0.0
 20
0.0
 30
0.0
  9
$PUCSORGBOTTOM
 10
0.0
 20
0.0
 30
0.0
  9
$PUCSORGLEFT
 10
0.0
 20
0.0
 30
0.0
  9
$PUCSORGRIGHT
 10
0.0
 20
0.0
 30
0.0
  9
$PUCSORGFRONT
 10
0.0
 20
0.0
 30
0.0
  9
$PUCSORGBACK
 10
0.0
 20
0.0
 30
0.0
  9
$USERI1
 70
0
  9
$USERI2
 70
0
  9
$USERI3
 70
0
  9
$USERI4
 70
0
  9
$USERI5
 70
0
  9
$USERR1
 40
0.0
  9
$USERR2
 40
0.0
  9
$USERR3
 40
0.0
  9
$USERR4
 40
0.0
  9
$USERR5
 40
0.0
  9
$WORLDVIEW
 70
1
  9
$SHADEDGE
 70
3
  9
$SHADEDIF
 70
70
  9
$TILEMODE
 70
1
  9
$MAXACTVP
 70
64
  9
$PINSBASE
 10
0.0
 20
0.0
 30
0.0
  9
$PLIMCHECK
 70
0
  9
$PEXTMIN
 10
1e+20
 20
1e+20
 30
1e+20
  9
$PEXTMAX
 10
-1e+20
 20
-1e+20
 30
-1e+20
  9
$PLIMMIN
 10
0.0
 20
0.0
  9
$PLIMMAX
 10
420.0
 20
297.0
  9
$UNITMODE
 70
0
  9
$VISRETAIN
 70
1
  9
$PLINEGEN
 70
0
  9
$PSLTSCALE
 70
1
  9
$TREEDEPTH
 70
3020
  9
$CMLSTYLE
  2
Standard
  9
$CMLJUST
 70
0
  9
$CMLSCALE
 40
20.0
  9
$PROXYGRAPHICS
 70
1
  9
$MEASUREMENT
 70
1
  9
$CELWEIGHT
370
-1
  9
$ENDCAPS
280
0
  9
$JOINSTYLE
280
0
  9
$LWDISPLAY
290
0
  9
$INSUNITS
 70
6
  9
$HYPERLINKBASE
  1

  9
$STYLESHEET
  1

  9
$XEDIT
290
1
  9
$CEPSNTYPE
380
0
  9
$PSTYLEMODE
290
1
  9
$FINGERPRINTGUID
  2
{E6AE7B1D-18CA-47FB-82B5-C997232FC293}
  9
$VERSIONGUID
  2
{BC551E42-7EDF-4C22-BB4F-4CAED300B23B}
  9
$EXTNAMES
290
1
  9
$PSVPSCALE
 40
0.0
  9
$OLESTARTUP
290
0
  9
$SORTENTS
280
127
  9
$INDEXCTL
280
0
  9
$HIDETEXT
280
1
  9
$XCLIPFRAME
280
1
  9
$HALOGAP
280
0
  9
$OBSCOLOR
 70
257
  9
$OBSLTYPE
280
0
  9
$INTERSECTIONDISPLAY
280
0
  9
$INTERSECTIONCOLOR
 70
257
  9
$DIMASSOC
280
2
  9
$PROJECTNAME
  1

  9
$CAMERADISPLAY
290
0
  9
$LENSLENGTH
 40
50.0
  9
$CAMERAHEIGHT
 40
0.0
  9
$STEPSPERSEC
 40
24.0
  9
$STEPSIZE
 40
100.0
  9
$3DDWFPREC
 40
2.0
  9
$PSOLWIDTH
 40
0.005
  9
$PSOLHEIGHT
 40
0.08
  9
$LOFTANG1
 40
1.570796326795
  9
$LOFTANG2
 40
1.570796326795
  9
$LOFTMAG1
 40
0.0
  9
$LOFTMAG2
 40
0.0
  9
$LOFTPARAM
 70
7
  9
$LOFTNORMALS
280
1
  9
$LATITUDE
 40
37.795
  9
$LONGITUDE
 40
-122.394
  9
$NORTHDIRECTION
 40
0.0
  9
$TIMEZONE
 70
-8000
  9
$LIGHTGLYPHDISPLAY
280
1
  9
$TILEMODELIGHTSYNCH
280
1
  9
$CMATERIAL
347
20
  9
$SOLIDHIST
280
0
  9
$SHOWHIST
280
1
  9
$DWFFRAME
280
2
  9
$DGNFRAME
280
2
  9
$REALWORLDSCALE
290
1
  9
$INTERFERECOLOR
 62
256
  9
$CSHADOW
280
0
  9
$SHADOWPLANELOCATION
 40
0.0
  0
ENDSEC
  0
SECTION
  2
CLASSES
  0
CLASS
  1
ACDBDICTIONARYWDFLT
  2
AcDbDictionaryWithDefault
  3
ObjectDBX Classes
 90
0
 91
0
280
0
281
0
  0
CLASS
  1
SUN
  2
AcDbSun
  3
SCENEOE
 90
1153
 91
0
280
0
281
0
  0
CLASS
  1
VISUALSTYLE
  2
AcDbVisualStyle
  3
ObjectDBX Classes
 90
4095
 91
0
280
0
281
0
  0
CLASS
  1
MATERIAL
  2
AcDbMaterial
  3
ObjectDBX Classes
 90
1153
 91
0
280
0
281
0
  0
CLASS
  1
SCALE
  2
AcDbScale
  3
ObjectDBX Classes
 90
1153
 91
0
280
0
281
0
  0
CLASS
  1
TABLESTYLE
  2
AcDbTableStyle
  3
ObjectDBX Classes
 90
4095
 91
0
280
0
281
0
  0
CLASS
  1
MLEADERSTYLE
  2
AcDbMLeaderStyle
  3
ACDB_MLEADERSTYLE_CLASS
 90
4095
 91
0
280
0
281
0
  0
CLASS
  1
DICTIONARYVAR
  2
AcDbDictionaryVar
  3
ObjectDBX Classes
 90
0
 91
0
280
0
281
0
  0
CLASS
  1
CELLSTYLEMAP
  2
AcDbCellStyleMap
  3
ObjectDBX Classes
 90
1152
 91
0
280
0
281
0
  0
CLASS
  1
MENTALRAYRENDERSETTINGS
  2
AcDbMentalRayRenderSettings
  3
SCENEOE
 90
1024
 91
0
280
0
281
0
  0
CLASS
  1
ACDBDETAILVIEWSTYLE
  2
AcDbDetailViewStyle
  3
ObjectDBX Classes
 90
1025
 91
0
280
0
281
0
  0
CLASS
  1
ACDBSECTIONVIEWSTYLE
  2
AcDbSectionViewStyle
  3
ObjectDBX Classes
 90
1025
 91
0
280
0
281
0
  0
CLASS
  1
RASTERVARIABLES
  2
AcDbRasterVariables
  3
ISM
 90
0
 91
0
280
0
281
0
  0
CLASS
  1
LAYOUT
  2
AcDbLayout
  3
ObjectDBX Classes
 90
0
 91
0
280
0
281
0
  0
CLASS
  1
ACDBPLACEHOLDER
  2
AcDbPlaceHolder
  3
ObjectDBX Classes
 90
0
 91
0
280
0
281
0
  0
ENDSEC
  0
SECTION
  2
TABLES
  0
TABLE
  2
VPORT
  5
8
330
0
100
AcDbSymbolTable
 70
1
  0
VPORT
  5
23
330
8
100
AcDbSymbolTableRecord
100
AcDbViewportTableRecord
  2
*Active
 70
0
 10
0.0
 20
0.0
 11
1.0
 21
1.0
 12
0.0
 22
0.0
 13
0.0
 23
0.0
 14
0.5
 24
0.5
 15
0.5
 25
0.5
 16
0.0
 26
0.0
 36
1.0
 17
0.0
 27
0.0
 37
0.0
 40
1000.0
 41
1.34
 42
50.0
 43
0.0
 44
0.0
 50
0.0
 51
0.0
 71
0
 72
1000
 73
1
 74
3
 75
0
 76
0
 77
0
 78
0
281
0
 65
0
146
0.0
  0
ENDTAB
  0
TABLE
  2
LTYPE
  5
2
330
0
100
AcDbSymbolTable
 70
3
  0
LTYPE
  5
24
330
2
100
AcDbSymbolTableRecord
100
AcDbLinetypeTableRecord
  2
ByBlock
 70
0
  3

 72
65
 73
0
 40
0.0
  0
LTYPE
  5
25
330
2
100
AcDbSymbolTableRecord
100
AcDbLinetypeTableRecord
  2
ByLayer
 70
0
  3

 72
65
 73
0
 40
0.0
  0
LTYPE
  5
26
330
2
100
AcDbSymbolTableRecord
100
AcDbLinetypeTableRecord
  2
Continuous
 70
0
  3

 72
65
 73
0
 40
0.0
  0
ENDTAB
  0
TABLE
  2
LAYER
  5
1
330
0
100
AcDbSymbolTable
 70
7
  0
LAYER
  5
27
330
1
100
AcDbSymbolTableRecord
100
AcDbLayerTableRecord
  2
0
 70
0
 62
7
  6
Continuous
370
-3
390
13
347
21
  0
LAYER
  5
28
330
1
100
AcDbSymbolTableRecord
100
AcDbLayerTableRecord
  2
Defpoints
 70
0
 62
7
  6
Continuous
290
0
370
-3
390
13
347
21
  0
LAYER
  5
2F
330
1
100
AcDbSymbolTableRecord
100
AcDbLayerTableRecord
  2
CUT
 70
0
 62
7
  6
Continuous
370
-3
390
13
347
21
  0
LAYER
  5
30
330
1
100
AcDbSymbolTableRecord
100
AcDbLayerTableRecord
  2
FOLD
 70
0
 62
1
  6
Continuous
370
-3
390
13
347
21
  0
LAYER
  5
31
330
1
100
AcDbSymbolTableRecord
100
AcDbLayerTableRecord
  2
CREASE
 70
0
 62
3
  6
Continuous
370
-3
390
13
347
21
  0
LAYER
  5
32
330
1
100
AcDbSymbolTableRecord
100
AcDbLayerTableRecord
  2
SLOT
 70
0
 62
5
  6
Continuous
370
-3
390
13
347
21
  0
LAYER
  5
33
330
1
100
AcDbSymbolTableRecord
100
AcDbLayerTableRecord
  2
BRIDGE
 70
0
 62
6
  6
Continuous
370
-3
390
13
347
21
  0
ENDTAB
  0
TABLE
  2
STYLE
  5
5
330
0
100
AcDbSymbolTable
 70
1
  0
STYLE
  5
29
330
5
100
AcDbSymbolTableRecord
100
AcDbTextStyleTableRecord
  2
Standard
 70
0
 40
0.0
 41
1.0
 50
0.0
 71
0
 42
2.5
  3
txt
  4

  0
ENDTAB
  0
TABLE
  2
VIEW
  5
7
330
0
100
AcDbSymbolTable
 70
0
  0
ENDTAB
  0
TABLE
  2
UCS
  5
6
330
0
100
AcDbSymbolTable
 70
0
  0
ENDTAB
  0
TABLE
  2
APPID
  5
3
330
0
100
AcDbSymbolTable
 70
3
  0
APPID
  5
2A
330
3
100
AcDbSymbolTableRecord
100
AcDbRegAppTableRecord
  2
ACAD
 70
0
  0
APPID
  5
165
330
3
100
AcDbSymbolTableRecord
100
AcDbRegAppTableRecord
  2
HATCHBACKGROUNDCOLOR
 70
0
  0
APPID
  5
166
330
3
100
AcDbSymbolTableRecord
100
AcDbRegAppTableRecord
  2
EZDXF
 70
0
  0
ENDTAB
  0
TABLE
  2
DIMSTYLE
  5
4
330
0
100
AcDbSymbolTable
 70
1
100
AcDbDimStyleTable
  0
DIMSTYLE
105
2B
330
4
100
AcDbSymbolTableRecord
100
AcDbDimStyleTableRecord
  2
Standard
 70
0
 40
1.0
 41
2.5
 42
0.625
 43
3.75
 44
1.25
 45
0.0
 46
0.0
 47
0.0
 48
0.0
 49
2.5
140
2.5
141
2.5
142
0.0
143
0.03937007874
144
1.0
145
0.0
146
1.0
147
0.625
148
0.0
 69
0
 70
0
 71
0
 72
0
 73
0
 74
0
 75
0
 76
0
 77
1
 78
8
 79
3
170
0
171
3
172
1
173
0
174
0
175
0
176
0
177
0
178
0
179
2
271
2
272
2
273
2
274
3
275
0
276
0
277
2
278
44
279
0
280
0
281
0
282
0
283
0
284
8
285
0
286
0
288
0
289
3
290
0
371
-2
372
-2
  0
ENDTAB
  0
TABLE
  2
BLOCK_RECORD
  5
9
330
0
100
AcDbSymbolTable
 70
2
  0
BLOCK_RECORD
  5
17
330
9
100
AcDbSymbolTableRecord
100
AcDbBlockTableRecord
  2
*Model_Space
340
1A
 70
0
280
1
281
0
  0
BLOCK_RECORD
  5
1B
330
9
100
AcDbSymbolTableRecord
100
AcDbBlockTableRecord
  2
*Paper_Space
340
1E
 70
0
280
1
281
0
  0
ENDTAB
  0
ENDSEC
  0
SECTION
  2
BLOCKS
  0
BLOCK
  5
18
330
17
100
AcDbEntity
  8
0
100
AcDbBlockBegin
  2
*Model_Space
 70
0
 10
0.0
 20
0.0
 30
0.0
  3
*Model_Space
  1

  0
ENDBLK
  5
19
330
17
100
AcDbEntity
  8
0
100
AcDbBlockEnd
  0
BLOCK
  5
1C
330
1B
100
AcDbEntity
  8
0
100
AcDbBlockBegin
  2
*Paper_Space
 70
0
 10
0.0
 20
0.0
 30
0.0
  3
*Paper_Space
  1

  0
ENDBLK
  5
1D
330
1B
100
AcDbEntity
  8
0
100
AcDbBlockEnd
  0
ENDSEC
  0
SECTION
  2
ENTITIES
  0
LINE
  5
34
330
17
100
AcDbEntity
  8
CREASE
100
AcDbLine
 10
225.25
 20
919.0
 30
0.0
 11
234.0
 21
919.0
 31
0.0
  0
LINE
  5
35
330
17
100
AcDbEntity
  8
CREASE
100
AcDbLine
 10
184.5
 20
920.75
 30
0.0
 11
194.75
 21
920.75
 31
0.0
  0
LINE
  5
36
330
17
100
AcDbEntity
  8
CUT
100
AcDbLine
 10
75.75
 20
921.5
 30
0.0
 11
83.75
 21
921.5
 31
0.0
  0
LINE
  5
37
330
17
100
AcDbEntity
  8
CREASE
100
AcDbLine
 10
214.75
 20
919.5
 30
0.0
 11
222.25
 21
919.5
 31
0.0
  0
LINE
  5
38
330
17
100
AcDbEntity
  8
CREASE
100
AcDbLine
 10
304.5
 20
920.5
 30
0.0
 11
312.25
 21
920.5
 31
0.0
  0
LINE
  5
39
330
17
100
AcDbEntity
  8
CREASE
100
AcDbLine
 10
82.0
 20
920.25
 30
0.0
 11
101.25
 21
920.0
 31
0.0
  0
LINE
  5
3A
330
17
100
AcDbEntity
  8
FOLD
100
AcDbLine
 10
84.0
 20
921.25
 30
0.0
 11
100.25
 21
921.25
 31
0.0
  0
LINE
  5
3B
330
17
100
AcDbEntity
  8
CREASE
100
AcDbLine
 10
105.75
 20
817.25
 30
0.0
 11
106.0
 21
829.25
 31
0.0
  0
LINE
  5
3C
330
17
100
AcDbEntity
  8
FOLD
100
AcDbLine
 10
197.75
 20
920.75
 30
0.0
 11
210.25
 21
920.75
 31
0.0
  0
LINE
  5
3D
330
17
100
AcDbEntity
  8
CREASE
100
AcDbLine
 10
247.75
 20
917.75
 30
0.0
 11
257.0
 21
917.5
 31
0.0
  0
LINE
  5
3E
330
17
100
AcDbEntity
  8
CREASE
100
AcDbLine
 10
157.5
 20
879.5
 30
0.0
 11
173.25
 21
879.25
 31
0.0
  0
LINE
  5
3F
330
17
100
AcDbEntity
  8
FOLD
100
AcDbLine
 10
34.75
 20
924.5
 30
0.0
 11
58.0
 21
924.75
 31
0.0
  0
LINE
  5
40
330
17
100
AcDbEntity
  8
CREASE
100
AcDbLine
 10
98.5
 20
919.75
 30
0.0
 11
118.0
 21
919.75
 31
0.0
  0
LINE
  5
41
330
17
100
AcDbEntity
  8
FOLD
100
AcDbLine
 10
110.0
 20
930.75
 30
0.0
 11
119.25
 21
930.5
 31
0.0
  0
LINE
  5
42
330
17
100
AcDbEntity
  8
CUT
100
AcDbLine
 10
288.25
 20
919.5
 30
0.0
 11
302.25
 21
919.5
 31
0.0
  0
LINE
  5
43
330
17
100
AcDbEntity
  8
FOLD
100
AcDbLine
 10
100.5
 20
921.0
 30
0.0
 11
112.0
 21
921.0
 31
0.0
  0
LINE
  5
44
330
17
100
AcDbEntity
  8
FOLD
100
AcDbLine
 10
67.0
 20
924.5
 30
0.0
 11
72.25
 21
924.25
 31
0.0
  0
LINE
  5
45
330
17
100
AcDbEntity
  8
SLOT
100
AcDbLine
 10
225.5
 20
919.25
 30
0.0
 11
232.25
 21
919.25
 31
0.0
  0
LINE
  5
46
330
17
100
AcDbEntity
  8
FOLD
100
AcDbLine
 10
33.5
 20
1000.0
 30
0.0
 11
34.0
 21
970.5
 31
0.0
  0
LINE
  5
47
330
17
100
AcDbEntity
  8
FOLD
100
AcDbLine
 10
104.5
 20
815.75
 30
0.0
 11
105.75
 21
844.0
 31
0.0
  0
LINE
  5
48
330
17
100
AcDbEntity
  8
CREASE
100
AcDbLine
 10
181.0
 20
993.75
 30
0.0
 11
204.5
 21
993.75
 31
0.0
  0
LINE
  5
49
330
17
100
AcDbEntity
  8
CREASE
100
AcDbLine
 10
312.5
 20
925.75
 30
0.0
 11
313.25
 21
954.0
 31
0.0
  0
LINE
  5
4A
330
17
100
AcDbEntity
  8
CREASE
100
AcDbLine
 10
275.25
 20
952.25
 30
0.0
 11
276.25
 21
978.5
 31
0.0
  0
LINE
  5
4B
330
17
100
AcDbEntity
  8
FOLD
100
AcDbLine
 10
131.25
 20
881.0
 30
0.0
 11
167.5
 21
881.0
 31
0.0
  0
LINE
  5
4C
330
17
100
AcDbEntity
  8
CUT
100
AcDbLine
 10
215.75
 20
981.0
 30
0.0
 11
220.0
 21
999.75
 31
0.0
  0
LINE
  5
4D
330
17
100
AcDbEntity
  8
CREASE
100
AcDbLine
 10
169.5
 20
920.25
 30
0.0
 11
183.5
 21
920.0
 31
0.0
  0
LINE
  5
4E
330
17
100
AcDbEntity
  8
CREASE
100
AcDbLine
 10
35.25
 20
928.0
 30
0.0
 11
35.25
 21
975.5
 31
0.0
  0
LINE
  5
4F
330
17
100
AcDbEntity
  8
FOLD
100
AcDbLine
 10
234.5
 20
972.25
 30
0.0
 11
235.25
 21
959.75
 31
0.0
  0
LINE
  5
50
330
17
100
AcDbEntity
  8
FOLD
100
AcDbLine
 10
34.25
 20
926.75
 30
0.0
 11
34.25
 21
966.0
 31
0.0
  0
LINE
  5
51
330
17
100
AcDbEntity
  8
CREASE
100
AcDbLine
 10
135.5
 20
880.0
 30
0.0
 11
145.0
 21
880.0
 31
0.0
  0
LINE
  5
52
330
17
100
AcDbEntity
  8
CREASE
100
AcDbLine
 10
165.25
 20
880.75
 30
0.0
 11
207.5
 21
880.75
 31
0.0
  0
LINE
  5
53
330
17
100
AcDbEntity
  8
CUT
100
AcDbLine
 10
181.25
 20
992.75
 30
0.0
 11
198.75
 21
992.75
 31
0.0
  0
LINE
  5
54
330
17
100
AcDbEntity
  8
FOLD
100
AcDbLine
 10
312.25
 20
957.5
 30
0.0
 11
312.75
 21
983.5
 31
0.0
  0
LINE
  5
55
330
17
100
AcDbEntity
  8
CREASE
100
AcDbLine
 10
215.0
 20
920.5
 30
0.0
 11
223.25
 21
920.5
 31
0.0
  0
LINE
  5
56
330
17
100
AcDbEntity
  8
FOLD
100
AcDbLine
 10
152.75
 20
921.5
 30
0.0
 11
174.0
 21
921.0
 31
0.0
  0
LINE
  5
57
330
17
100
AcDbEntity
  8
CREASE
100
AcDbLine
 10
241.75
 20
927.0
 30
0.0
 11
249.0
 21
927.0
 31
0.0
  0
LINE
  5
58
330
17
100
AcDbEntity
  8
CREASE
100
AcDbLine
 10
35.0
 20
955.75
 30
0.0
 11
35.0
 21
966.0
 31
0.0
  0
LINE
  5
59
330
17
100
AcDbEntity
  8
FOLD
100
AcDbLine
 10
89.0
 20
931.25
 30
0.0
 11
109.75
 21
931.0
 31
0.0
  0
LINE
  5
5A
330
17
100
AcDbEntity
  8
CREASE
100
AcDbLine
 10
107.0
 20
845.75
 30
0.0
 11
107.5
 21
855.5
 31
0.0
  0
LINE
  5
5B
330
17
100
AcDbEntity
  8
CUT
100
AcDbLine
 10
176.0
 20
806.25
 30
0.0
 11
180.0
 21
826.25
 31
0.0
  0
LINE
  5
5C
330
17
100
AcDbEntity
  8
FOLD
100
AcDbLine
 10
92.75
 20
884.5
 30
0.0
 11
100.5
 21
884.5
 31
0.0
  0
LINE
  5
5D
330
17
100
AcDbEntity
  8
CUT
100
AcDbLine
 10
175.25
 20
822.0
 30
0.0
 11
179.5
 21
840.75
 31
0.0
  0
LINE
  5
5E
330
17
100
AcDbEntity
  8
CUT
100
AcDbLine
 10
176.25
 20
814.25
 30
0.0
 11
179.5
 21
829.75
 31
0.0
  0
LINE
  5
5F
330
17
100
AcDbEntity
  8
CREASE
100
AcDbLine
 10
227.25
 20
881.75
 30
0.0
 11
249.0
 21
881.5
 31
0.0
  0
LINE
  5
60
330
17
100
AcDbEntity
  8
FOLD
100
AcDbLine
 10
274.5
 20
952.5
 30
0.0
 11
275.0
 21
967.0
 31
0.0
  0
LINE
  5
61
330
17
100
AcDbEntity
  8
CREASE
100
AcDbLine
 10
118.75
 20
929.5
 30
0.0
 11
124.5
 21
929.25
 31
0.0
  0
LINE
  5
62
330
17
100
AcDbEntity
  8
FOLD
100
AcDbLine
 10
155.5
 20
995.25
 30
0.0
 11
169.5
 21
995.25
 31
0.0
  0
LINE
  5
63
330
17
100
AcDbEntity
  8
CREASE
100
AcDbLine
 10
111.5
 20
986.0
 30
0.0
 11
129.0
 21
959.25
 31
0.0
  0
LINE
  5
64
330
17
100
AcDbEntity
  8
CREASE
100
AcDbLine
 10
133.25
 20
929.5
 30
0.0
 11
146.75
 21
929.25
 31
0.0
  0
LINE
  5
65
330
17
100
AcDbEntity
  8
CREASE
100
AcDbLine
 10
234.0
 20
993.75
 30
0.0
 11
234.5
 21
979.75
 31
0.0
  0
LINE
  5
66
330
17
100
AcDbEntity
  8
CREASE
100
AcDbLine
 10
87.0
 20
930.25
 30
0.0
 11
103.25
 21
930.25
 31
0.0
  0
LINE
  5
67
330
17
100
AcDbEntity
  8
BRIDGE
100
AcDbLine
 10
272.0
 20
918.25
 30
0.0
 11
277.25
 21
918.25
 31
0.0
  0
LINE
  5
68
330
17
100
AcDbEntity
  8
CREASE
100
AcDbLine
 10
104.5
 20
790.5
 30
0.0
 11
105.5
 21
810.25
 31
0.0
  0
LINE
  5
69
330
17
100
AcDbEntity
  8
FOLD
100
AcDbLine
 10
81.5
 20
994.25
 30
0.0
 11
87.75
 21
994.25
 31
0.0
  0
LINE
  5
6A
330
17
100
AcDbEntity
  8
CREASE
100
AcDbLine
 10
97.75
 20
883.5
 30
0.0
 11
115.5
 21
883.25
 31
0.0
  0
LINE
  5
6B
330
17
100
AcDbEntity
  8
FOLD
100
AcDbLine
 10
241.5
 20
839.25
 30
0.0
 11
242.5
 21
819.25
 31
0.0
  0
LINE
  5
6C
330
17
100
AcDbEntity
  8
CREASE
100
AcDbLine
 10
242.75
 20
840.5
 30
0.0
 11
243.25
 21
819.5
 31
0.0
  0
LINE
  5
6D
330
17
100
AcDbEntity
  8
FOLD
100
AcDbLine
 10
242.5
 20
882.5
 30
0.0
 11
253.75
 21
882.5
 31
0.0
  0
LINE
  5
6E
330
17
100
AcDbEntity
  8
CREASE
100
AcDbLine
 10
149.5
 20
920.5
 30
0.0
 11
161.25
 21
920.25
 31
0.0
  0
LINE
  5
6F
330
17
100
AcDbEntity
  8
CREASE
100
AcDbLine
 10
313.5
 20
972.5
 30
0.0
 11
314.0
 21
982.5
 31
0.0
  0
LINE
  5
70
330
17
100
AcDbEntity
  8
FOLD
100
AcDbLine
 10
178.25
 20
829.5
 30
0.0
 11
180.5
 21
841.5
 31
0.0
  0
LINE
  5
71
330
17
100
AcDbEntity
  8
CREASE
100
AcDbLine
 10
194.0
 20
832.5
 30
0.0
 11
194.5
 21
838.0
 31
0.0
  0
LINE
  5
72
330
17
100
AcDbEntity
  8
CREASE
100
AcDbLine
 10
267.0
 20
940.0
 30
0.0
 11
267.75
 21
962.75
 31
0.0
  0
LINE
  5
73
330
17
100
AcDbEntity
  8
FOLD
100
AcDbLine
 10
109.5
 20
884.25
 30
0.0
 11
129.5
 21
883.75
 31
0.0
  0
LINE
  5
74
330
17
100
AcDbEntity
  8
CUT
100
AcDbLine
 10
60.5
 20
923.5
 30
0.0
 11
79.0
 21
923.5
 31
0.0
  0
LINE
  5
75
330
17
100
AcDbEntity
  8
FOLD
100
AcDbLine
 10
203.0
 20
996.25
 30
0.0
 11
210.0
 21
996.25
 31
0.0
  0
LINE
  5
76
330
17
100
AcDbEntity
  8
FOLD
100
AcDbLine
 10
224.5
 20
882.75
 30
0.0
 11
242.25
 21
882.75
 31
0.0
  0
LINE
  5
77
330
17
100
AcDbEntity
  8
FOLD
100
AcDbLine
 10
80.5
 20
994.75
 30
0.0
 11
81.25
 21
975.0
 31
0.0
  0
LINE
  5
78
330
17
100
AcDbEntity
  8
CREASE
100
AcDbLine
 10
204.5
 20
934.5
 30
0.0
 11
215.25
 21
935.25
 31
0.0
  0
LINE
  5
79
330
17
100
AcDbEntity
  8
FOLD
100
AcDbLine
 10
122.75
 20
968.5
 30
0.0
 11
124.0
 21
948.0
 31
0.0
  0
LINE
  5
7A
330
17
100
AcDbEntity
  8
CUT
100
AcDbLine
 10
174.0
 20
807.0
 30
0.0
 11
178.25
 21
831.0
 31
0.0
  0
LINE
  5
7B
330
17
100
AcDbEntity
  8
FOLD
100
AcDbLine
 10
200.25
 20
919.75
 30
0.0
 11
214.25
 21
919.75
 31
0.0
  0
LINE
  5
7C
330
17
100
AcDbEntity
  8
CREASE
100
AcDbLine
 10
227.0
 20
927.0
 30
0.0
 11
236.75
 21
927.25
 31
0.0
  0
LINE
  5
7D
330
17
100
AcDbEntity
  8
CREASE
100
AcDbLine
 10
160.25
 20
993.0
 30
0.0
 11
167.75
 21
992.75
 31
0.0
  0
LINE
  5
7E
330
17
100
AcDbEntity
  8
CREASE
100
AcDbLine
 10
124.25
 20
960.25
 30
0.0
 11
124.75
 21
942.25
 31
0.0
  0
LINE
  5
7F
330
17
100
AcDbEntity
  8
CREASE
100
AcDbLine
 10
271.0
 20
920.5
 30
0.0
 11
277.0
 21
919.5
 31
0.0
  0
LINE
  5
80
330
17
100
AcDbEntity
  8
CREASE
100
AcDbLine
 10
202.5
 20
879.0
 30
0.0
 11
219.5
 21
879.0
 31
0.0
  0
LINE
  5
81
330
17
100
AcDbEntity
  8
CREASE
100
AcDbLine
 10
103.5
 20
930.0
 30
0.0
 11
111.75
 21
930.0
 31
0.0
  0
LINE
  5
82
330
17
100
AcDbEntity
  8
FOLD
100
AcDbLine
 10
103.25
 20
791.5
 30
0.0
 11
104.25
 21
809.25
 31
0.0
  0
LINE
  5
83
330
17
100
AcDbEntity
  8
CREASE
100
AcDbLine
 10
144.5
 20
949.0
 30
0.0
 11
147.5
 21
941.5
 31
0.0
  0
LINE
  5
84
330
17
100
AcDbEntity
  8
FOLD
100
AcDbLine
 10
273.75
 20
933.75
 30
0.0
 11
274.5
 21
948.0
 31
0.0
  0
LINE
  5
85
330
17
100
AcDbEntity
  8
CUT
100
AcDbLine
 10
193.25
 20
990.75
 30
0.0
 11
219.5
 21
989.75
 31
0.0
  0
LINE
  5
86
330
17
100
AcDbEntity
  8
CREASE
100
AcDbLine
 10
155.75
 20
822.0
 30
0.0
 11
161.0
 21
833.75
 31
0.0
  0
LINE
  5
87
330
17
100
AcDbEntity
  8
CREASE
100
AcDbLine
 10
74.5
 20
902.0
 30
0.0
 11
86.75
 21
884.0
 31
0.0
  0
LINE
  5
88
330
17
100
AcDbEntity
  8
FOLD
100
AcDbLine
 10
285.25
 20
921.0
 30
0.0
 11
307.0
 21
920.75
 31
0.0
  0
LINE
  5
89
330
17
100
AcDbEntity
  8
BRIDGE
100
AcDbLine
 10
263.25
 20
918.25
 30
0.0
 11
268.25
 21
918.25
 31
0.0
  0
LINE
  5
8A
330
17
100
AcDbEntity
  8
FOLD
100
AcDbLine
 10
175.0
 20
806.25
 30
0.0
 11
177.25
 21
818.5
 31
0.0
  0
LINE
  5
8B
330
17
100
AcDbEntity
  8
CREASE
100
AcDbLine
 10
211.5
 20
995.0
 30
0.0
 11
219.75
 21
995.0
 31
0.0
  0
LINE
  5
8C
330
17
100
AcDbEntity
  8
CREASE
100
AcDbLine
 10
122.5
 20
990.75
 30
0.0
 11
131.75
 21
976.75
 31
0.0
  0
LINE
  5
8D
330
17
100
AcDbEntity
  8
CREASE
100
AcDbLine
 10
122.5
 20
993.25
 30
0.0
 11
136.25
 21
972.75
 31
0.0
  0
LINE
  5
8E
330
17
100
AcDbEntity
  8
CREASE
100
AcDbLine
 10
234.25
 20
917.75
 30
0.0
 11
244.25
 21
917.75
 31
0.0
  0
LINE
  5
8F
330
17
100
AcDbEntity
  8
CREASE
100
AcDbLine
 10
118.5
 20
973.0
 30
0.0
 11
122.0
 21
968.0
 31
0.0
  0
LINE
  5
90
330
17
100
AcDbEntity
  8
CREASE
100
AcDbLine
 10
195.5
 20
995.0
 30
0.0
 11
206.0
 21
995.25
 31
0.0
  0
LINE
  5
91
330
17
100
AcDbEntity
  8
CUT
100
AcDbLine
 10
206.0
 20
992.25
 30
0.0
 11
219.75
 21
992.25
 31
0.0
  0
LINE
  5
92
330
17
100
AcDbEntity
  8
CREASE
100
AcDbLine
 10
193.0
 20
819.25
 30
0.0
 11
193.5
 21
825.5
 31
0.0
  0
LINE
  5
93
330
17
100
AcDbEntity
  8
CREASE
100
AcDbLine
 10
274.5
 20
928.25
 30
0.0
 11
274.75
 21
948.25
 31
0.0
  0
LINE
  5
94
330
17
100
AcDbEntity
  8
CUT
100
AcDbLine
 10
273.75
 20
917.25
 30
0.0
 11
290.0
 21
917.25
 31
0.0
  0
LINE
  5
95
330
17
100
AcDbEntity
  8
FOLD
100
AcDbLine
 10
156.5
 20
993.75
 30
0.0
 11
167.5
 21
993.5
 31
0.0
  0
LINE
  5
96
330
17
100
AcDbEntity
  8
CREASE
100
AcDbLine
 10
51.0
 20
893.75
 30
0.0
 11
51.0
 21
918.5
 31
0.0
  0
LINE
  5
97
330
17
100
AcDbEntity
  8
CREASE
100
AcDbLine
 10
104.25
 20
993.5
 30
0.0
 11
122.75
 21
967.25
 31
0.0
  0
LINE
  5
98
330
17
100
AcDbEntity
  8
FOLD
100
AcDbLine
 10
311.0
 20
918.25
 30
0.0
 11
312.0
 21
948.0
 31
0.0
  0
LINE
  5
99
330
17
100
AcDbEntity
  8
CREASE
100
AcDbLine
 10
35.0
 20
969.0
 30
0.0
 11
35.0
 21
997.0
 31
0.0
  0
LINE
  5
9A
330
17
100
AcDbEntity
  8
SLOT
100
AcDbLine
 10
141.0
 20
948.0
 30
0.0
 11
141.75
 21
940.75
 31
0.0
  0
LINE
  5
9B
330
17
100
AcDbEntity
  8
FOLD
100
AcDbLine
 10
181.75
 20
872.0
 30
0.0
 11
195.25
 21
872.0
 31
0.0
  0
LINE
  5
9C
330
17
100
AcDbEntity
  8
CREASE
100
AcDbLine
 10
199.0
 20
992.5
 30
0.0
 11
209.25
 21
992.5
 31
0.0
  0
LINE
  5
9D
330
17
100
AcDbEntity
  8
BRIDGE
100
AcDbLine
 10
53.75
 20
923.5
 30
0.0
 11
63.5
 21
923.75
 31
0.0
  0
LINE
  5
9E
330
17
100
AcDbEntity
  8
FOLD
100
AcDbLine
 10
50.0
 20
895.0
 30
0.0
 11
50.0
 21
916.25
 31
0.0
  0
LINE
  5
9F
330
17
100
AcDbEntity
  8
FOLD
100
AcDbLine
 10
227.75
 20
928.75
 30
0.0
 11
248.0
 21
928.75
 31
0.0
  0
LINE
  5
A0
330
17
100
AcDbEntity
  8
CREASE
100
AcDbLine
 10
99.5
 20
981.0
 30
0.0
 11
109.75
 21
973.5
 31
0.0
  0
LINE
  5
A1
330
17
100
AcDbEntity
  8
CREASE
100
AcDbLine
 10
203.25
 20
947.5
 30
0.0
 11
211.75
 21
944.75
 31
0.0
  0
LINE
  5
A2
330
17
100
AcDbEntity
  8
CREASE
100
AcDbLine
 10
90.75
 20
987.75
 30
0.0
 11
106.0
 21
974.5
 31
0.0
  0
LINE
  5
A3
330
17
100
AcDbEntity
  8
CREASE
100
AcDbLine
 10
160.5
 20
994.5
 30
0.0
 11
167.75
 21
994.75
 31
0.0
  0
LINE
  5
A4
330
17
100
AcDbEntity
  8
CREASE
100
AcDbLine
 10
228.25
 20
979.75
 30
0.0
 11
228.25
 21
986.25
 31
0.0
  0
LINE
  5
A5
330
17
100
AcDbEntity
  8
CUT
100
AcDbLine
 10
201.5
 20
988.5
 30
0.0
 11
217.25
 21
988.5
 31
0.0
  0
LINE
  5
A6
330
17
100
AcDbEntity
  8
CREASE
100
AcDbLine
 10
158.5
 20
920.5
 30
0.0
 11
171.25
 21
920.0
 31
0.0
  0
LINE
  5
A7
330
17
100
AcDbEntity
  8
CREASE
100
AcDbLine
 10
191.0
 20
953.75
 30
0.0
 11
215.0
 21
959.5
 31
0.0
  0
LINE
  5
A8
330
17
100
AcDbEntity
  8
CREASE
100
AcDbLine
 10
138.0
 20
920.75
 30
0.0
 11
148.75
 21
920.5
 31
0.0
  0
LINE
  5
A9
330
17
100
AcDbEntity
  8
FOLD
100
AcDbLine
 10
267.25
 20
969.0
 30
0.0
 11
267.5
 21
974.25
 31
0.0
  0
LINE
  5
AA
330
17
100
AcDbEntity
  8
CREASE
100
AcDbLine
 10
151.5
 20
929.25
 30
0.0
 11
159.25
 21
929.5
 31
0.0
  0
LINE
  5
AB
330
17
100
AcDbEntity
  8
CREASE
100
AcDbLine
 10
146.25
 20
820.75
 30
0.0
 11
149.5
 21
827.0
 31
0.0
  0
LINE
  5
AC
330
17
100
AcDbEntity
  8
CUT
100
AcDbLine
 10
202.5
 20
993.25
 30
0.0
 11
219.5
 21
993.25
 31
0.0
  0
LINE
  5
AD
330
17
100
AcDbEntity
  8
FOLD
100
AcDbLine
 10
182.5
 20
921.0
 30
0.0
 11
189.5
 21
921.0
 31
0.0
  0
LINE
  5
AE
330
17
100
AcDbEntity
  8
CUT
100
AcDbLine
 10
189.0
 20
991.0
 30
0.0
 11
219.5
 21
990.0
 31
0.0
  0
LINE
  5
AF
330
17
100
AcDbEntity
  8
CREASE
100
AcDbLine
 10
243.5
 20
804.75
 30
0.0
 11
244.0
 21
793.0
 31
0.0
  0
LINE
  5
B0
330
17
100
AcDbEntity
  8
CUT
100
AcDbLine
 10
270.0
 20
919.25
 30
0.0
 11
288.0
 21
919.5
 31
0.0
  0
LINE
  5
B1
330
17
100
AcDbEntity
  8
CUT
100
AcDbLine
 10
214.25
 20
981.25
 30
0.0
 11
217.25
 21
996.25
 31
0.0
  0
LINE
  5
B2
330
17
100
AcDbEntity
  8
CUT
100
AcDbLine
 10
138.5
 20
930.25
 30
0.0
 11
159.0
 21
931.5
 31
0.0
  0
LINE
  5
B3
330
17
100
AcDbEntity
  8
CUT
100
AcDbLine
 10
191.0
 20
953.25
 30
0.0
 11
215.75
 21
959.25
 31
0.0
  0
LINE
  5
B4
330
17
100
AcDbEntity
  8
SLOT
100
AcDbLine
 10
149.0
 20
976.25
 30
0.0
 11
152.0
 21
970.5
 31
0.0
  0
LINE
  5
B5
330
17
100
AcDbEntity
  8
CREASE
100
AcDbLine
 10
86.5
 20
884.0
 30
0.0
 11
92.75
 21
884.0
 31
0.0
  0
LINE
  5
B6
330
17
100
AcDbEntity
  8
CREASE
100
AcDbLine
 10
134.75
 20
975.75
 30
0.0
 11
138.25
 21
967.0
 31
0.0
  0
LINE
  5
B7
330
17
100
AcDbEntity
  8
CREASE
100
AcDbLine
 10
183.25
 20
813.5
 30
0.0
 11
185.0
 21
825.0
 31
0.0
  0
LINE
  5
B8
330
17
100
AcDbEntity
  8
CREASE
100
AcDbLine
 10
190.5
 20
842.0
 30
0.0
 11
193.5
 21
831.75
 31
0.0
  0
LINE
  5
B9
330
17
100
AcDbEntity
  8
CREASE
100
AcDbLine
 10
192.75
 20
831.25
 30
0.0
 11
193.25
 21
840.0
 31
0.0
  0
LINE
  5
BA
330
17
100
AcDbEntity
  8
CREASE
100
AcDbLine
 10
241.75
 20
843.0
 30
0.0
 11
242.25
 21
834.5
 31
0.0
  0
LINE
  5
BB
330
17
100
AcDbEntity
  8
CREASE
100
AcDbLine
 10
241.75
 20
862.5
 30
0.0
 11
242.75
 21
841.25
 31
0.0
  0
LINE
  5
BC
330
17
100
AcDbEntity
  8
CREASE
100
AcDbLine
 10
189.0
 20
990.0
 30
0.0
 11
204.25
 21
989.5
 31
0.0
  0
LINE
  5
BD
330
17
100
AcDbEntity
  8
CREASE
100
AcDbLine
 10
242.75
 20
804.75
 30
0.0
 11
243.5
 21
788.75
 31
0.0
  0
LINE
  5
BE
330
17
100
AcDbEntity
  8
FOLD
100
AcDbLine
 10
173.5
 20
809.0
 30
0.0
 11
174.75
 21
819.25
 31
0.0
  0
LINE
  5
BF
330
17
100
AcDbEntity
  8
CREASE
100
AcDbLine
 10
234.75
 20
964.25
 30
0.0
 11
235.25
 21
955.5
 31
0.0
  0
LINE
  5
C0
330
17
100
AcDbEntity
  8
SLOT
100
AcDbLine
 10
213.25
 20
980.75
 30
0.0
 11
214.25
 21
987.5
 31
0.0
  0
LINE
  5
C1
330
17
100
AcDbEntity
  8
FOLD
100
AcDbLine
 10
267.5
 20
978.75
 30
0.0
 11
268.0
 21
995.5
 31
0.0
  0
LINE
  5
C2
330
17
100
AcDbEntity
  8
CREASE
100
AcDbLine
 10
139.25
 20
962.25
 30
0.0
 11
142.5
 21
955.0
 31
0.0
  0
LINE
  5
C3
330
17
100
AcDbEntity
  8
FOLD
100
AcDbLine
 10
51.75
 20
892.75
 30
0.0
 11
71.25
 21
892.75
 31
0.0
  0
LINE
  5
C4
330
17
100
AcDbEntity
  8
FOLD
100
AcDbLine
 10
296.0
 20
887.75
 30
0.0
 11
296.0
 21
911.0
 31
0.0
  0
LINE
  5
C5
330
17
100
AcDbEntity
  8
CUT
100
AcDbLine
 10
201.25
 20
987.75
 30
0.0
 11
219.5
 21
987.25
 31
0.0
  0
LINE
  5
C6
330
17
100
AcDbEntity
  8
CREASE
100
AcDbLine
 10
276.25
 20
889.75
 30
0.0
 11
287.5
 21
889.5
 31
0.0
  0
LINE
  5
C7
330
17
100
AcDbEntity
  8
CREASE
100
AcDbLine
 10
114.5
 20
919.5
 30
0.0
 11
120.75
 21
919.5
 31
0.0
  0
LINE
  5
C8
330
17
100
AcDbEntity
  8
CREASE
100
AcDbLine
 10
150.75
 20
975.25
 30
0.0
 11
153.25
 21
957.25
 31
0.0
  0
LINE
  5
C9
330
17
100
AcDbEntity
  8
CUT
100
AcDbLine
 10
204.75
 20
928.25
 30
0.0
 11
205.5
 21
940.25
 31
0.0
  0
LINE
  5
CA
330
17
100
AcDbEntity
  8
CREASE
100
AcDbLine
 10
106.25
 20
825.25
 30
0.0
 11
106.5
 21
836.75
 31
0.0
  0
LINE
  5
CB
330
17
100
AcDbEntity
  8
BRIDGE
100
AcDbLine
 10
207.5
 20
943.75
 30
0.0
 11
215.0
 21
949.5
 31
0.0
  0
LINE
  5
CC
330
17
100
AcDbEntity
  8
CREASE
100
AcDbLine
 10
191.5
 20
955.0
 30
0.0
 11
206.5
 21
959.0
 31
0.0
  0
LINE
  5
CD
330
17
100
AcDbEntity
  8
CREASE
100
AcDbLine
 10
67.25
 20
893.75
 30
0.0
 11
74.75
 21
893.75
 31
0.0
  0
LINE
  5
CE
330
17
100
AcDbEntity
  8
CUT
100
AcDbLine
 10
194.25
 20
993.5
 30
0.0
 11
217.0
 21
993.5
 31
0.0
  0
LINE
  5
CF
330
17
100
AcDbEntity
  8
CREASE
100
AcDbLine
 10
243.5
 20
814.75
 30
0.0
 11
243.75
 21
809.25
 31
0.0
  0
LINE
  5
D0
330
17
100
AcDbEntity
  8
CUT
100
AcDbLine
 10
178.0
 20
822.25
 30
0.0
 11
181.0
 21
835.75
 31
0.0
  0
LINE
  5
D1
330
17
100
AcDbEntity
  8
SLOT
100
AcDbLine
 10
289.75
 20
918.0
 30
0.0
 11
295.25
 21
916.0
 31
0.0
  0
LINE
  5
D2
330
17
100
AcDbEntity
  8
CREASE
100
AcDbLine
 10
314.0
 20
982.75
 30
0.0
 11
314.25
 21
998.75
 31
0.0
  0
LINE
  5
D3
330
17
100
AcDbEntity
  8
CREASE
100
AcDbLine
 10
200.0
 20
942.0
 30
0.0
 11
208.75
 21
958.5
 31
0.0
  0
LINE
  5
D4
330
17
100
AcDbEntity
  8
FOLD
100
AcDbLine
 10
138.5
 20
997.5
 30
0.0
 11
150.25
 21
973.25
 31
0.0
  0
LINE
  5
D5
330
17
100
AcDbEntity
  8
CREASE
100
AcDbLine
 10
143.0
 20
879.75
 30
0.0
 11
157.25
 21
879.75
 31
0.0
  0
LINE
  5
D6
330
17
100
AcDbEntity
  8
CREASE
100
AcDbLine
 10
176.75
 20
751.5
 30
0.0
 11
189.0
 21
751.5
 31
0.0
  0
LINE
  5
D7
330
17
100
AcDbEntity
  8
FOLD
100
AcDbLine
 10
233.0
 20
940.25
 30
0.0
 11
234.25
 21
972.25
 31
0.0
  0
LINE
  5
D8
330
17
100
AcDbEntity
  8
CUT
100
AcDbLine
 10
199.25
 20
942.0
 30
0.0
 11
206.75
 21
956.25
 31
0.0
  0
LINE
  5
D9
330
17
100
AcDbEntity
  8
CUT
100
AcDbLine
 10
211.5
 20
981.0
 30
0.0
 11
213.75
 21
996.0
 31
0.0
  0
LINE
  5
DA
330
17
100
AcDbEntity
  8
SLOT
100
AcDbLine
 10
81.5
 20
991.75
 30
0.0
 11
81.5
 21
985.25
 31
0.0
  0
LINE
  5
DB
330
17
100
AcDbEntity
  8
CREASE
100
AcDbLine
 10
313.5
 20
969.0
 30
0.0
 11
313.5
 21
959.0
 31
0.0
  0
LINE
  5
DC
330
17
100
AcDbEntity
  8
FOLD
100
AcDbLine
 10
264.0
 20
886.25
 30
0.0
 11
274.0
 21
900.0
 31
0.0
  0
LINE
  5
DD
330
17
100
AcDbEntity
  8
CREASE
100
AcDbLine
 10
257.5
 20
917.0
 30
0.0
 11
287.75
 21
918.0
 31
0.0
  0
LINE
  5
DE
330
17
100
AcDbEntity
  8
FOLD
100
AcDbLine
 10
43.5
 20
923.5
 30
0.0
 11
53.5
 21
923.75
 31
0.0
  0
LINE
  5
DF
330
17
100
AcDbEntity
  8
FOLD
100
AcDbLine
 10
155.25
 20
869.0
 30
0.0
 11
186.5
 21
869.0
 31
0.0
  0
LINE
  5
E0
330
17
100
AcDbEntity
  8
SLOT
100
AcDbLine
 10
147.5
 20
978.5
 30
0.0
 11
154.75
 21
979.25
 31
0.0
  0
LINE
  5
E1
330
17
100
AcDbEntity
  8
SLOT
100
AcDbLine
 10
223.75
 20
920.75
 30
0.0
 11
225.75
 21
925.75
 31
0.0
  0
LINE
  5
E2
330
17
100
AcDbEntity
  8
CREASE
100
AcDbLine
 10
139.5
 20
961.25
 30
0.0
 11
142.0
 21
955.25
 31
0.0
  0
LINE
  5
E3
330
17
100
AcDbEntity
  8
CREASE
100
AcDbLine
 10
157.75
 20
989.75
 30
0.0
 11
159.0
 21
980.0
 31
0.0
  0
LINE
  5
E4
330
17
100
AcDbEntity
  8
CREASE
100
AcDbLine
 10
206.5
 20
823.25
 30
0.0
 11
213.0
 21
822.75
 31
0.0
  0
LINE
  5
E5
330
17
100
AcDbEntity
  8
CUT
100
AcDbLine
 10
154.5
 20
821.75
 30
0.0
 11
160.75
 21
835.0
 31
0.0
  0
LINE
  5
E6
330
17
100
AcDbEntity
  8
CREASE
100
AcDbLine
 10
142.0
 20
948.5
 30
0.0
 11
144.0
 21
941.25
 31
0.0
  0
LINE
  5
E7
330
17
100
AcDbEntity
  8
CREASE
100
AcDbLine
 10
168.0
 20
871.5
 30
0.0
 11
195.5
 21
871.0
 31
0.0
  0
LINE
  5
E8
330
17
100
AcDbEntity
  8
CREASE
100
AcDbLine
 10
115.75
 20
883.0
 30
0.0
 11
122.75
 21
883.0
 31
0.0
  0
LINE
  5
E9
330
17
100
AcDbEntity
  8
CUT
100
AcDbLine
 10
188.5
 20
827.0
 30
0.0
 11
192.25
 21
841.0
 31
0.0
  0
LINE
  5
EA
330
17
100
AcDbEntity
  8
SLOT
100
AcDbLine
 10
289.5
 20
917.75
 30
0.0
 11
296.0
 21
915.25
 31
0.0
  0
LINE
  5
EB
330
17
100
AcDbEntity
  8
CREASE
100
AcDbLine
 10
217.5
 20
978.5
 30
0.0
 11
219.5
 21
988.0
 31
0.0
  0
LINE
  5
EC
330
17
100
AcDbEntity
  8
CREASE
100
AcDbLine
 10
199.5
 20
825.5
 30
0.0
 11
207.5
 21
825.5
 31
0.0
  0
LINE
  5
ED
330
17
100
AcDbEntity
  8
CUT
100
AcDbLine
 10
119.0
 20
920.75
 30
0.0
 11
126.75
 21
920.25
 31
0.0
  0
LINE
  5
EE
330
17
100
AcDbEntity
  8
CUT
100
AcDbLine
 10
56.25
 20
921.5
 30
0.0
 11
75.5
 21
921.5
 31
0.0
  0
LINE
  5
EF
330
17
100
AcDbEntity
  8
CREASE
100
AcDbLine
 10
267.75
 20
974.5
 30
0.0
 11
269.0
 21
996.25
 31
0.0
  0
LINE
  5
F0
330
17
100
AcDbEntity
  8
BRIDGE
100
AcDbLine
 10
234.75
 20
989.25
 30
0.0
 11
234.75
 21
996.25
 31
0.0
  0
LINE
  5
F1
330
17
100
AcDbEntity
  8
SLOT
100
AcDbLine
 10
162.5
 20
827.25
 30
0.0
 11
169.5
 21
828.75
 31
0.0
  0
LINE
  5
F2
330
17
100
AcDbEntity
  8
FOLD
100
AcDbLine
 10
133.0
 20
975.75
 30
0.0
 11
137.0
 21
967.25
 31
0.0
  0
LINE
  5
F3
330
17
100
AcDbEntity
  8
CREASE
100
AcDbLine
 10
124.25
 20
941.75
 30
0.0
 11
124.75
 21
925.75
 31
0.0
  0
LINE
  5
F4
330
17
100
AcDbEntity
  8
CREASE
100
AcDbLine
 10
132.0
 20
819.0
 30
0.0
 11
137.0
 21
827.5
 31
0.0
  0
LINE
  5
F5
330
17
100
AcDbEntity
  8
CREASE
100
AcDbLine
 10
129.75
 20
921.25
 30
0.0
 11
138.5
 21
921.75
 31
0.0
  0
LINE
  5
F6
330
17
100
AcDbEntity
  8
CREASE
100
AcDbLine
 10
249.25
 20
927.0
 30
0.0
 11
257.75
 21
926.75
 31
0.0
  0
LINE
  5
F7
330
17
100
AcDbEntity
  8
BRIDGE
100
AcDbLine
 10
179.5
 20
823.25
 30
0.0
 11
181.25
 21
831.75
 31
0.0
  0
LINE
  5
F8
330
17
100
AcDbEntity
  8
CREASE
100
AcDbLine
 10
167.25
 20
870.75
 30
0.0
 11
189.25
 21
870.5
 31
0.0
  0
LINE
  5
F9
330
17
100
AcDbEntity
  8
SLOT
100
AcDbLine
 10
186.75
 20
826.25
 30
0.0
 11
188.0
 21
833.5
 31
0.0
  0
LINE
  5
FA
330
17
100
AcDbEntity
  8
FOLD
100
AcDbLine
 10
78.5
 20
897.75
 30
0.0
 11
86.5
 21
885.75
 31
0.0
  0
LINE
  5
FB
330
17
100
AcDbEntity
  8
SLOT
100
AcDbLine
 10
150.75
 20
980.0
 30
0.0
 11
157.75
 21
980.0
 31
0.0
  0
LINE
  5
FC
330
17
100
AcDbEntity
  8
SLOT
100
AcDbLine
 10
109.25
 20
994.25
 30
0.0
 11
114.75
 21
994.0
 31
0.0
  0
LINE
  5
FD
330
17
100
AcDbEntity
  8
CREASE
100
AcDbLine
 10
213.0
 20
953.25
 30
0.0
 11
213.75
 21
959.0
 31
0.0
  0
LINE
  5
FE
330
17
100
AcDbEntity
  8
CREASE
100
AcDbLine
 10
69.75
 20
995.5
 30
0.0
 11
77.25
 21
995.0
 31
0.0
  0
LINE
  5
FF
330
17
100
AcDbEntity
  8
CREASE
100
AcDbLine
 10
193.0
 20
826.0
 30
0.0
 11
196.5
 21
817.0
 31
0.0
  0
LINE
  5
100
330
17
100
AcDbEntity
  8
CUT
100
AcDbLine
 10
142.5
 20
825.25
 30
0.0
 11
166.5
 21
837.0
 31
0.0
  0
LINE
  5
101
330
17
100
AcDbEntity
  8
SLOT
100
AcDbLine
 10
155.25
 20
872.0
 30
0.0
 11
162.0
 21
870.75
 31
0.0
  0
LINE
  5
102
330
17
100
AcDbEntity
  8
CREASE
100
AcDbLine
 10
297.0
 20
899.25
 30
0.0
 11
297.0
 21
912.75
 31
0.0
  0
LINE
  5
103
330
17
100
AcDbEntity
  8
CUT
100
AcDbLine
 10
134.25
 20
930.75
 30
0.0
 11
147.0
 21
931.25
 31
0.0
  0
LINE
  5
104
330
17
100
AcDbEntity
  8
CREASE
100
AcDbLine
 10
198.75
 20
981.0
 30
0.0
 11
219.5
 21
981.0
 31
0.0
  0
LINE
  5
105
330
17
100
AcDbEntity
  8
FOLD
100
AcDbLine
 10
235.5
 20
919.0
 30
0.0
 11
256.5
 21
918.5
 31
0.0
  0
LINE
  5
106
330
17
100
AcDbEntity
  8
CREASE
100
AcDbLine
 10
150.75
 20
930.75
 30
0.0
 11
159.25
 21
931.25
 31
0.0
  0
LINE
  5
107
330
17
100
AcDbEntity
  8
CUT
100
AcDbLine
 10
198.5
 20
812.75
 30
0.0
 11
199.5
 21
825.75
 31
0.0
  0
LINE
  5
108
330
17
100
AcDbEntity
  8
FOLD
100
AcDbLine
 10
142.25
 20
921.25
 30
0.0
 11
152.5
 21
921.5
 31
0.0
  0
LINE
  5
109
330
17
100
AcDbEntity
  8
CUT
100
AcDbLine
 10
151.5
 20
826.75
 30
0.0
 11
165.75
 21
831.5
 31
0.0
  0
LINE
  5
10A
330
17
100
AcDbEntity
  8
CREASE
100
AcDbLine
 10
101.5
 20
993.5
 30
0.0
 11
113.25
 21
993.0
 31
0.0
  0
LINE
  5
10B
330
17
100
AcDbEntity
  8
FOLD
100
AcDbLine
 10
166.0
 20
752.25
 30
0.0
 11
190.75
 21
752.75
 31
0.0
  0
LINE
  5
10C
330
17
100
AcDbEntity
  8
FOLD
100
AcDbLine
 10
281.5
 20
891.0
 30
0.0
 11
291.0
 21
891.0
 31
0.0
  0
LINE
  5
10D
330
17
100
AcDbEntity
  8
CREASE
100
AcDbLine
 10
194.5
 20
934.0
 30
0.0
 11
200.5
 21
934.5
 31
0.0
  0
LINE
  5
10E
330
17
100
AcDbEntity
  8
CREASE
100
AcDbLine
 10
130.25
 20
835.5
 30
0.0
 11
130.75
 21
826.0
 31
0.0
  0
LINE
  5
10F
330
17
100
AcDbEntity
  8
CREASE
100
AcDbLine
 10
197.25
 20
818.5
 30
0.0
 11
199.75
 21
812.75
 31
0.0
  0
LINE
  5
110
330
17
100
AcDbEntity
  8
FOLD
100
AcDbLine
 10
242.5
 20
814.0
 30
0.0
 11
242.75
 21
808.75
 31
0.0
  0
LINE
  5
111
330
17
100
AcDbEntity
  8
SLOT
100
AcDbLine
 10
105.0
 20
991.5
 30
0.0
 11
111.5
 21
991.5
 31
0.0
  0
LINE
  5
112
330
17
100
AcDbEntity
  8
FOLD
100
AcDbLine
 10
181.25
 20
994.0
 30
0.0
 11
188.0
 21
994.0
 31
0.0
  0
LINE
  5
113
330
17
100
AcDbEntity
  8
FOLD
100
AcDbLine
 10
266.25
 20
940.25
 30
0.0
 11
267.0
 21
955.25
 31
0.0
  0
LINE
  5
114
330
17
100
AcDbEntity
  8
FOLD
100
AcDbLine
 10
275.5
 20
975.25
 30
0.0
 11
276.25
 21
992.75
 31
0.0
  0
LINE
  5
115
330
17
100
AcDbEntity
  8
CREASE
100
AcDbLine
 10
69.75
 20
995.75
 30
0.0
 11
78.75
 21
995.5
 31
0.0
  0
LINE
  5
116
330
17
100
AcDbEntity
  8
CREASE
100
AcDbLine
 10
141.5
 20
948.5
 30
0.0
 11
148.5
 21
942.5
 31
0.0
  0
LINE
  5
117
330
17
100
AcDbEntity
  8
CREASE
100
AcDbLine
 10
219.75
 20
881.75
 30
0.0
 11
227.0
 21
881.5
 31
0.0
  0
LINE
  5
118
330
17
100
AcDbEntity
  8
CREASE
100
AcDbLine
 10
131.75
 20
836.5
 30
0.0
 11
139.25
 21
835.5
 31
0.0
  0
LINE
  5
119
330
17
100
AcDbEntity
  8
CUT
100
AcDbLine
 10
163.75
 20
825.5
 30
0.0
 11
168.25
 21
839.0
 31
0.0
  0
LINE
  5
11A
330
17
100
AcDbEntity
  8
FOLD
100
AcDbLine
 10
157.75
 20
773.0
 30
0.0
 11
186.5
 21
773.0
 31
0.0
  0
LINE
  5
11B
330
17
100
AcDbEntity
  8
CREASE
100
AcDbLine
 10
181.25
 20
879.25
 30
0.0
 11
202.25
 21
878.75
 31
0.0
  0
LINE
  5
11C
330
17
100
AcDbEntity
  8
SLOT
100
AcDbLine
 10
203.25
 20
990.75
 30
0.0
 11
209.75
 21
990.75
 31
0.0
  0
LINE
  5
11D
330
17
100
AcDbEntity
  8
CREASE
100
AcDbLine
 10
135.5
 20
946.75
 30
0.0
 11
153.25
 21
944.0
 31
0.0
  0
LINE
  5
11E
330
17
100
AcDbEntity
  8
FOLD
100
AcDbLine
 10
233.25
 20
954.5
 30
0.0
 11
233.5
 21
967.5
 31
0.0
  0
LINE
  5
11F
330
17
100
AcDbEntity
  8
CREASE
100
AcDbLine
 10
145.5
 20
825.25
 30
0.0
 11
149.0
 21
834.5
 31
0.0
  0
LINE
  5
120
330
17
100
AcDbEntity
  8
FOLD
100
AcDbLine
 10
136.5
 20
969.0
 30
0.0
 11
138.75
 21
960.0
 31
0.0
  0
LINE
  5
121
330
17
100
AcDbEntity
  8
CREASE
100
AcDbLine
 10
121.25
 20
992.0
 30
0.0
 11
128.25
 21
991.75
 31
0.0
  0
LINE
  5
122
330
17
100
AcDbEntity
  8
BRIDGE
100
AcDbLine
 10
123.0
 20
1000.0
 30
0.0
 11
123.25
 21
992.5
 31
0.0
  0
LINE
  5
123
330
17
100
AcDbEntity
  8
SLOT
100
AcDbLine
 10
208.75
 20
984.5
 30
0.0
 11
213.75
 21
985.0
 31
0.0
  0
LINE
  5
124
330
17
100
AcDbEntity
  8
CREASE
100
AcDbLine
 10
108.5
 20
993.75
 30
0.0
 11
114.5
 21
993.75
 31
0.0
  0
LINE
  5
125
330
17
100
AcDbEntity
  8
CREASE
100
AcDbLine
 10
187.5
 20
826.5
 30
0.0
 11
189.75
 21
834.25
 31
0.0
  0
LINE
  5
126
330
17
100
AcDbEntity
  8
CREASE
100
AcDbLine
 10
124.75
 20
949.25
 30
0.0
 11
125.25
 21
936.75
 31
0.0
  0
LINE
  5
127
330
17
100
AcDbEntity
  8
CREASE
100
AcDbLine
 10
195.75
 20
821.5
 30
0.0
 11
199.25
 21
812.75
 31
0.0
  0
LINE
  5
128
330
17
100
AcDbEntity
  8
CREASE
100
AcDbLine
 10
69.75
 20
997.0
 30
0.0
 11
75.25
 21
995.25
 31
0.0
  0
LINE
  5
129
330
17
100
AcDbEntity
  8
CREASE
100
AcDbLine
 10
102.0
 20
979.0
 30
0.0
 11
108.5
 21
973.75
 31
0.0
  0
LINE
  5
12A
330
17
100
AcDbEntity
  8
CREASE
100
AcDbLine
 10
206.75
 20
955.75
 30
0.0
 11
216.5
 21
957.75
 31
0.0
  0
LINE
  5
12B
330
17
100
AcDbEntity
  8
CREASE
100
AcDbLine
 10
217.75
 20
982.5
 30
0.0
 11
219.75
 21
993.0
 31
0.0
  0
LINE
  5
12C
330
17
100
AcDbEntity
  8
FOLD
100
AcDbLine
 10
197.5
 20
954.25
 30
0.0
 11
216.0
 21
958.75
 31
0.0
  0
LINE
  5
12D
330
17
100
AcDbEntity
  8
CREASE
100
AcDbLine
 10
206.0
 20
985.75
 30
0.0
 11
213.75
 21
985.25
 31
0.0
  0
LINE
  5
12E
330
17
100
AcDbEntity
  8
CREASE
100
AcDbLine
 10
225.0
 20
875.75
 30
0.0
 11
236.75
 21
870.0
 31
0.0
  0
LINE
  5
12F
330
17
100
AcDbEntity
  8
CREASE
100
AcDbLine
 10
147.5
 20
827.5
 30
0.0
 11
158.75
 21
830.5
 31
0.0
  0
LINE
  5
130
330
17
100
AcDbEntity
  8
CUT
100
AcDbLine
 10
129.25
 20
819.75
 30
0.0
 11
173.5
 21
836.75
 31
0.0
  0
LINE
  5
131
330
17
100
AcDbEntity
  8
CREASE
100
AcDbLine
 10
227.5
 20
946.0
 30
0.0
 11
227.75
 21
953.25
 31
0.0
  0
LINE
  5
132
330
17
100
AcDbEntity
  8
CREASE
100
AcDbLine
 10
106.75
 20
846.0
 30
0.0
 11
107.25
 21
855.0
 31
0.0
  0
LINE
  5
133
330
17
100
AcDbEntity
  8
CUT
100
AcDbLine
 10
149.25
 20
832.25
 30
0.0
 11
165.0
 21
829.5
 31
0.0
  0
LINE
  5
134
330
17
100
AcDbEntity
  8
SLOT
100
AcDbLine
 10
168.25
 20
824.75
 30
0.0
 11
169.25
 21
830.25
 31
0.0
  0
LINE
  5
135
330
17
100
AcDbEntity
  8
CREASE
100
AcDbLine
 10
235.25
 20
972.25
 30
0.0
 11
235.5
 21
966.5
 31
0.0
  0
LINE
  5
136
330
17
100
AcDbEntity
  8
CREASE
100
AcDbLine
 10
79.0
 20
994.0
 30
0.0
 11
86.25
 21
991.75
 31
0.0
  0
LINE
  5
137
330
17
100
AcDbEntity
  8
CREASE
100
AcDbLine
 10
233.0
 20
943.25
 30
0.0
 11
235.5
 21
949.25
 31
0.0
  0
LINE
  5
138
330
17
100
AcDbEntity
  8
CREASE
100
AcDbLine
 10
218.0
 20
982.25
 30
0.0
 11
219.5
 21
989.5
 31
0.0
  0
LINE
  5
139
330
17
100
AcDbEntity
  8
BRIDGE
100
AcDbLine
 10
195.25
 20
996.5
 30
0.0
 11
202.5
 21
996.5
 31
0.0
  0
LINE
  5
13A
330
17
100
AcDbEntity
  8
SLOT
100
AcDbLine
 10
142.5
 20
948.5
 30
0.0
 11
143.5
 21
943.5
 31
0.0
  0
LINE
  5
13B
330
17
100
AcDbEntity
  8
CREASE
100
AcDbLine
 10
129.5
 20
826.25
 30
0.0
 11
131.25
 21
836.25
 31
0.0
  0
LINE
  5
13C
330
17
100
AcDbEntity
  8
CREASE
100
AcDbLine
 10
208.5
 20
982.0
 30
0.0
 11
216.25
 21
982.5
 31
0.0
  0
LINE
  5
13D
330
17
100
AcDbEntity
  8
FOLD
100
AcDbLine
 10
135.5
 20
947.25
 30
0.0
 11
153.75
 21
944.25
 31
0.0
  0
LINE
  5
13E
330
17
100
AcDbEntity
  8
CREASE
100
AcDbLine
 10
164.5
 20
837.0
 30
0.0
 11
165.75
 21
824.75
 31
0.0
  0
LINE
  5
13F
330
17
100
AcDbEntity
  8
CREASE
100
AcDbLine
 10
109.25
 20
868.25
 30
0.0
 11
129.0
 21
877.5
 31
0.0
  0
LINE
  5
140
330
17
100
AcDbEntity
  8
CREASE
100
AcDbLine
 10
143.0
 20
930.75
 30
0.0
 11
148.25
 21
930.5
 31
0.0
  0
LINE
  5
141
330
17
100
AcDbEntity
  8
CREASE
100
AcDbLine
 10
228.0
 20
965.0
 30
0.0
 11
228.0
 21
973.75
 31
0.0
  0
LINE
  5
142
330
17
100
AcDbEntity
  8
CREASE
100
AcDbLine
 10
135.5
 20
822.5
 30
0.0
 11
146.0
 21
822.75
 31
0.0
  0
LINE
  5
143
330
17
100
AcDbEntity
  8
CREASE
100
AcDbLine
 10
153.0
 20
965.75
 30
0.0
 11
154.0
 21
957.5
 31
0.0
  0
LINE
  5
144
330
17
100
AcDbEntity
  8
CREASE
100
AcDbLine
 10
206.5
 20
934.5
 30
0.0
 11
217.5
 21
935.0
 31
0.0
  0
LINE
  5
145
330
17
100
AcDbEntity
  8
SLOT
100
AcDbLine
 10
248.25
 20
928.5
 30
0.0
 11
254.75
 21
928.5
 31
0.0
  0
LINE
  5
146
330
17
100
AcDbEntity
  8
CREASE
100
AcDbLine
 10
183.75
 20
812.75
 30
0.0
 11
184.75
 21
817.75
 31
0.0
  0
LINE
  5
147
330
17
100
AcDbEntity
  8
CREASE
100
AcDbLine
 10
82.75
 20
994.0
 30
0.0
 11
88.0
 21
994.0
 31
0.0
  0
LINE
  5
148
330
17
100
AcDbEntity
  8
CUT
100
AcDbLine
 10
133.5
 20
930.25
 30
0.0
 11
151.5
 21
931.25
 31
0.0
  0
LINE
  5
149
330
17
100
AcDbEntity
  8
CREASE
100
AcDbLine
 10
155.0
 20
870.25
 30
0.0
 11
193.75
 21
869.5
 31
0.0
  0
LINE
  5
14A
330
17
100
AcDbEntity
  8
CUT
100
AcDbLine
 10
139.5
 20
998.5
 30
0.0
 11
148.25
 21
981.25
 31
0.0
  0
LINE
  5
14B
330
17
100
AcDbEntity
  8
FOLD
100
AcDbLine
 10
155.25
 20
872.25
 30
0.0
 11
169.5
 21
872.25
 31
0.0
  0
LINE
  5
14C
330
17
100
AcDbEntity
  8
CREASE
100
AcDbLine
 10
234.75
 20
958.25
 30
0.0
 11
235.25
 21
947.5
 31
0.0
  0
LINE
  5
14D
330
17
100
AcDbEntity
  8
CREASE
100
AcDbLine
 10
117.0
 20
998.25
 30
0.0
 11
122.0
 21
991.0
 31
0.0
  0
LINE
  5
14E
330
17
100
AcDbEntity
  8
CUT
100
AcDbLine
 10
199.5
 20
812.75
 30
0.0
 11
201.0
 21
826.75
 31
0.0
  0
LINE
  5
14F
330
17
100
AcDbEntity
  8
CUT
100
AcDbLine
 10
74.25
 20
902.25
 30
0.0
 11
86.25
 21
884.25
 31
0.0
  0
LINE
  5
150
330
17
100
AcDbEntity
  8
CREASE
100
AcDbLine
 10
209.0
 20
957.5
 30
0.0
 11
215.75
 21
959.0
 31
0.0
  0
LINE
  5
151
330
17
100
AcDbEntity
  8
CREASE
100
AcDbLine
 10
149.75
 20
829.0
 30
0.0
 11
157.25
 21
828.0
 31
0.0
  0
LINE
  5
152
330
17
100
AcDbEntity
  8
BRIDGE
100
AcDbLine
 10
144.25
 20
935.75
 30
0.0
 11
152.25
 21
935.75
 31
0.0
  0
LINE
  5
153
330
17
100
AcDbEntity
  8
CREASE
100
AcDbLine
 10
177.0
 20
775.5
 30
0.0
 11
191.25
 21
775.25
 31
0.0
  0
LINE
  5
154
330
17
100
AcDbEntity
  8
CREASE
100
AcDbLine
 10
81.75
 20
985.0
 30
0.0
 11
81.75
 21
976.5
 31
0.0
  0
LINE
  5
155
330
17
100
AcDbEntity
  8
CREASE
100
AcDbLine
 10
130.5
 20
819.0
 30
0.0
 11
139.5
 21
823.0
 31
0.0
  0
LINE
  5
156
330
17
100
AcDbEntity
  8
CREASE
100
AcDbLine
 10
215.5
 20
982.25
 30
0.0
 11
217.0
 21
990.5
 31
0.0
  0
LINE
  5
157
330
17
100
AcDbEntity
  8
SLOT
100
AcDbLine
 10
141.0
 20
830.5
 30
0.0
 11
142.25
 21
825.25
 31
0.0
  0
LINE
  5
158
330
17
100
AcDbEntity
  8
CREASE
100
AcDbLine
 10
219.25
 20
876.25
 30
0.0
 11
220.0
 21
882.5
 31
0.0
  0
LINE
  5
159
330
17
100
AcDbEntity
  8
FOLD
100
AcDbLine
 10
240.5
 20
862.25
 30
0.0
 11
241.25
 21
848.0
 31
0.0
  0
LINE
  5
15A
330
17
100
AcDbEntity
  8
SLOT
100
AcDbLine
 10
214.75
 20
995.25
 30
0.0
 11
219.75
 21
995.25
 31
0.0
  0
LINE
  5
15B
330
17
100
AcDbEntity
  8
CREASE
100
AcDbLine
 10
231.5
 20
918.25
 30
0.0
 11
238.75
 21
918.0
 31
0.0
  0
LINE
  5
15C
330
17
100
AcDbEntity
  8
CREASE
100
AcDbLine
 10
135.5
 20
946.25
 30
0.0
 11
155.25
 21
943.0
 31
0.0
  0
LINE
  5
15D
330
17
100
AcDbEntity
  8
CREASE
100
AcDbLine
 10
191.25
 20
954.5
 30
0.0
 11
206.5
 21
958.5
 31
0.0
  0
LINE
  5
15E
330
17
100
AcDbEntity
  8
CREASE
100
AcDbLine
 10
106.5
 20
837.0
 30
0.0
 11
107.5
 21
848.5
 31
0.0
  0
LINE
  5
15F
330
17
100
AcDbEntity
  8
CREASE
100
AcDbLine
 10
211.5
 20
826.25
 30
0.0
 11
212.0
 21
814.5
 31
0.0
  0
LINE
  5
160
330
17
100
AcDbEntity
  8
CREASE
100
AcDbLine
 10
77.25
 20
920.0
 30
0.0
 11
85.0
 21
919.75
 31
0.0
  0
LINE
  5
161
330
17
100
AcDbEntity
  8
CREASE
100
AcDbLine
 10
138.0
 20
827.0
 30
0.0
 11
147.75
 21
826.5
 31
0.0
  0
LINE
  5
162
330
17
100
AcDbEntity
  8
CREASE
100
AcDbLine
 10
178.25
 20
830.0
 30
0.0
 11
186.25
 21
829.0
 31
0.0
  0
LINE
  5
163
330
17
100
AcDbEntity
  8
CREASE
100
AcDbLine
 10
191.0
 20
823.75
 30
0.0
 11
196.0
 21
816.0
 31
0.0
  0
LINE
  5
164
330
17
100
AcDbEntity
  8
CREASE
100
AcDbLine
 10
135.25
 20
975.0
 30
0.0
 11
138.0
 21
968.25
 31
0.0
  0
ENDSEC
  0
SECTION
  2
OBJECTS
  0
DICTIONARY
  5
A
330
0
100
AcDbDictionary
281
1
  3
ACAD_COLOR
350
B
  3
ACAD_GROUP
350
C
  3
ACAD_LAYOUT
350
D
  3
ACAD_MATERIAL
350
E
  3
ACAD_MLEADERSTYLE
350
F
  3
ACAD_MLINESTYLE
350
10
  3
ACAD_PLOTSETTINGS
350
11
  3
ACAD_PLOTSTYLENAME
350
12
  3
ACAD_SCALELIST
350
14
  3
ACAD_TABLESTYLE
350
15
  3
ACAD_VISUALSTYLE
350
16
  3
EZDXF_META
350
2D
  0
DICTIONARY
  5
B
330
A
100
AcDbDictionary
281
1
  0
DICTIONARY
  5
C
330
A
100
AcDbDictionary
281
1
  0
DICTIONARY
  5
D
330
A
100
AcDbDictionary
281
1
  3
Model
350
1A
  3
Layout1
350
1E
  0
DICTIONARY
  5
E
330
A
100
AcDbDictionary
281
1
  3
ByBlock
350
1F
  3
ByLayer
350
20
  3
Global
350
21
  0
DICTIONARY
  5
F
330
A
100
AcDbDictionary
281
1
  3
Standard
350
2C
  0
DICTIONARY
  5
10
330
A
100
AcDbDictionary
281
1
  3
Standard
350
22
  0
DICTIONARY
  5
11
330
A
100
AcDbDictionary
281
1
  0
ACDBDICTIONARYWDFLT
  5
12
330
A
100
AcDbDictionary
281
1
  3
Normal
350
13
100
AcDbDictionaryWithDefault
340
13
  0
ACDBPLACEHOLDER
  5
13
330
12
  0
DICTIONARY
  5
14
330
A
100
AcDbDictionary
281
1
  0
DICTIONARY
  5
15
330
A
100
AcDbDictionary
281
1
  0
DICTIONARY
  5
16
330
A
100
AcDbDictionary
281
1
  0
LAYOUT
  5
1A
330
D
100
AcDbPlotSettings
  1

  4
A3
  6

 40
7.5
 41
20.0
 42
7.5
 43
20.0
 44
420.0
 45
297.0
 46
0.0
 47
0.0
 48
0.0
 49
0.0
140
0.0
141
0.0
142
1.0
143
1.0
 70
1024
 72
1
 73
0
 74
5
  7

 75
16
 76
0
 77
2
 78
300
147
1.0
148
0.0
149
0.0
100
AcDbLayout
  1
Model
 70
1
 71
0
 10
0.0
 20
0.0
 11
420.0
 21
297.0
 12
0.0
 22
0.0
 32
0.0
 14
1e+20
 24
1e+20
 34
1e+20
 15
-1e+20
 25
-1e+20
 35
-1e+20
146
0.0
 13
0.0
 23
0.0
 33
0.0
 16
1.0
 26
0.0
 36
0.0
 17
0.0
 27
1.0
 37
0.0
 76
1
330
17
  0
LAYOUT
  5
1E
330
D
100
AcDbPlotSettings
  1

  4
A3
  6

 40
7.5
 41
20.0
 42
7.5
 43
20.0
 44
420.0
 45
297.0
 46
0.0
 47
0.0
 48
0.0
 49
0.0
140
0.0
141
0.0
142
1.0
143
1.0
 70
0
 72
1
 73
0
 74
5
  7

 75
16
 76
0
 77
2
 78
300
147
1.0
148
0.0
149
0.0
100
AcDbLayout
  1
Layout1
 70
1
 71
1
 10
0.0
 20
0.0
 11
420.0
 21
297.0
 12
0.0
 22
0.0
 32
0.0
 14
1e+20
 24
1e+20
 34
1e+20
 15
-1e+20
 25
-1e+20
 35
-1e+20
146
0.0
 13
0.0
 23
0.0
 33
0.0
 16
1.0
 26
0.0
 36
0.0
 17
0.0
 27
1.0
 37
0.0
 76
1
330
1B
  0
MATERIAL
  5
1F
102
{ACAD_REACTORS
330
E
102
}
330
E
100
AcDbMaterial
  1
ByBlock
  2

 70
0
 40
1.0
 71
1
 41
1.0
 91
-1023410177
 42
1.0
 72
1
  3

 73
1
 74
1
 75
1
 44
0.5
 73
0
 45
1.0
 46
1.0
 77
1
  4

 78
1
 79
1
170
1
 48
1.0
171
1
  6

172
1
173
1
174
1
140
1.0
141
1.0
175
1
  7

176
1
177
1
178
1
143
1.0
179
1
  8

270
1
271
1
272
1
145
1.0
146
1.0
273
1
  9

274
1
275
1
276
1
 42
1.0
 72
1
  3

 73
1
 74
1
 75
1
 94
63
  0
MATERIAL
  5
20
102
{ACAD_REACTORS
330
E
102
}
330
E
100
AcDbMaterial
  1
ByLayer
  2

 70
0
 40
1.0
 71
1
 41
1.0
 91
-1023410177
 42
1.0
 72
1
  3

 73
1
 74
1
 75
1
 44
0.5
 73
0
 45
1.0
 46
1.0
 77
1
  4

 78
1
 79
1
170
1
 48
1.0
171
1
  6

172
1
173
1
174
1
140
1.0
141
1.0
175
1
  7

176
1
177
1
178
1
143
1.0
179
1
  8

270
1
271
1
272
1
145
1.0
146
1.0
273
1
  9

274
1
275
1
276
1
 42
1.0
 72
1
  3

 73
1
 74
1
 75
1
 94
63
  0
MATERIAL
  5
21
102
{ACAD_REACTORS
330
E
102
}
330
E
100
AcDbMaterial
  1
Global
  2

 70
0
 40
1.0
 71
1
 41
1.0
 91
-1023410177
 42
1.0
 72
1
  3

 73
1
 74
1
 75
1
 44
0.5
 73
0
 45
1.0
 46
1.0
 77
1
  4

 78
1
 79
1
170
1
 48
1.0
171
1
  6

172
1
173
1
174
1
140
1.0
141
1.0
175
1
  7

176
1
177
1
178
1
143
1.0
179
1
  8

270
1
271
1
272
1
145
1.0
146
1.0
273
1
  9

274
1
275
1
276
1
 42
1.0
 72
1
  3

 73
1
 74
1
 75
1
 94
63
  0
MLINESTYLE
  5
22
102
{ACAD_REACTORS
330
10
102
}
330
10
100
AcDbMlineStyle
  2
Standard
 70
0
  3

 62
256
 51
90.0
 52
90.0
 71
2
 49
0.5
 62
256
  6
BYLAYER
 49
-0.5
 62
256
  6
BYLAYER
  0
MLEADERSTYLE
  5
2C
102
{ACAD_REACTORS
330
F
102
}
330
F
100
AcDbMLeaderStyle
179
2
170
2
171
1
172
0
 90
2
 40
0.0
 41
0.0
173
1
 91
-1056964608
 92
-2
290
1
 42
2.0
291
1
 43
8.0
  3
Standard
 44
4.0
300

342
29
174
1
175
1
176
0
178
1
 93
-1056964608
 45
4.0
292
0
297
0
 46
4.0
 94
-1056964608
 47
1.0
 49
1.0
140
1.0
294
1
141
0.0
177
0
142
1.0
295
0
296
0
143
3.75
271
0
272
9
273
9
  0
DICTIONARY
  5
2D
330
A
100
AcDbDictionary
280
1
281
1
  3
CREATED_BY_EZDXF
350
2E
  3
WRITTEN_BY_EZDXF
350
167
  0
DICTIONARYVAR
  5
2E
330
2D
100
DictionaryVariables
280
0
  1
1.4.2 @ 2026-03-31T10:01:19.354784+00:00
  0
DICTIONARYVAR
  5
167
330
2D
100
DictionaryVariables
280
0
  1
1.4.2 @ 2026-03-31T10:01:19.360867+00:00
  0
ENDSEC
  0
EOF
