  0
SECTION
  2
HEADER
  9
$ACADVER
  1
AC1024
  9
$ACADMAINTVER
 70
6
  9
$DWGCODEPAGE
  3
ANSI_1252
  9
$LASTSAVEDBY
  1
ezdxf
  9
$INSBASE
 10
0.0
 20
0.0
 30
0.0
  9
$EXTMIN
 10
1e+20
 20
1e+20
 30
1e+20
  9
$EXTMAX
 10
-1e+20
 20
-1e+20
 30
-1e+20
  9
$LIMMIN
 10
0.0
 20
0.0
  9
$LIMMAX
 10
420.0
 20
297.0
  9
$ORTHOMODE
 70
0
  9
$REGENMODE
 70
1
  9
$FILLMODE
 70
1
  9
$QTEXTMODE
 70
0
  9
$MIRRTEXT
 70
1
  9
$LTSCALE
 40
1.0
  9
$ATTMODE
 70
1
  9
$TEXTSIZE
 40
2.5
  9
$TRACEWID
 40
1.0
  9
$TEXTSTYLE
  7
Standard
  9
$CLAYER
  8
0
  9
$CELTYPE
  6
ByLayer
  9
$CECOLOR
 62
256
  9
$CELTSCALE
 40
1.0
  9
$DISPSILH
 70
0
  9
$DIMSCALE
 40
1.0
  9
$DIMASZ
 40
2.5
  9
$DIMEXO
 40
0.625
  9
$DIMDLI
 40
3.75
  9
$DIMRND
 40
0.0
  9
$DIMDLE
 40
0.0
  9
$DIMEXE
 40
1.25
  9
$DIMTP
 40
0.0
  9
$DIMTM
 40
0.0
  9
$DIMTXT
 40
2.5
  9
$DIMCEN
 40
2.5
  9
$DIMTSZ
 40
0.0
  9
$DIMTOL
 70
0
  9
$DIMLIM
 70
0
  9
$DIMTIH
 70
0
  9
$DIMTOH
 70
0
  9
$DIMSE1
 70
0
  9
$DIMSE2
 70
0
  9
$DIMTAD
 70
1
  9
$DIMZIN
 70
8
  9
$DIMBLK
  1

  9
$DIMASO
 70
1
  9
$DIMSHO
 70
1
  9
$DIMPOST
  1

  9
$DIMAPOST
  1

  9
$DIMALT
 70
0
  9
$DIMALTD
 70
3
  9
$DIMALTF
 40
0.03937007874
  9
$DIMLFAC
 40
1.0
  9
$DIMTOFL
 70
1
  9
$DIMTVP
 40
0.0
  9
$DIMTIX
 70
0
  9
$DIMSOXD
 70
0
  9
$DIMSAH
 70
0
  9
$DIMBLK1
  1

  9
$DIMBLK2
  1

  9
$DIMSTYLE
  2
ISO-25
  9
$DIMCLRD
 70
0
  9
$DIMCLRE
 70
0
  9
$DIMCLRT
 70
0
  9
$DIMTFAC
 40
1.0
  9
$DIMGAP
 40
0.625
  9
$DIMJUST
 70
0
  9
$DIMSD1
 70
0
  9
$DIMSD2
 70
0
  9
$DIMTOLJ
 70
0
  9
$DIMTZIN
 70
8
  9
$DIMALTZ
 70
0
  9
$DIMALTTZ
 70
0
  9
$DIMUPT
 70
0
  9
$DIMDEC
 70
2
  9
$DIMTDEC
 70
2
  9
$DIMALTU
 70
2
  9
$DIMALTTD
 70
3
  9
$DIMTXSTY
  7
Standard
  9
$DIMAUNIT
 70
0
  9
$DIMADEC
 70
0
  9
$DIMALTRND
 40
0.0
  9
$DIMAZIN
 70
0
  9
$DIMDSEP
 70
44
  9
$DIMATFIT
 70
3
  9
$DIMFRAC
 70
0
  9
$DIMLDRBLK
  1

  9
$DIMLUNIT
 70
2
  9
$DIMLWD
 70
-2
  9
$DIMLWE
 70
-2
  9
$DIMTMOVE
 70
0
  9
$DIMFXL
 40
1.0
  9
$DIMFXLON
 70
0
  9
$DIMJOGANG
 40
0.785398163397
  9
$DIMTFILL
 70
0
  9
$DIMTFILLCLR
 70
0
  9
$DIMARCSYM
 70
0
  9
$DIMLTYPE
  6

  9
$DIMLTEX1
  6

  9
$DIMLTEX2
  6

  9
$DIMTXTDIRECTION
 70
0
  9
$LUNITS
 70
2
  9
$LUPREC
 70
4
  9
$SKETCHINC
 40
1.0
  9
$FILLETRAD
 40
10.0
  9
$AUNITS
 70
0
  9
$AUPREC
 70
2
  9
$MENU
  1
.
  9
$ELEVATION
 40
0.0
  9
$PELEVATION
 40
0.0
  9
$THICKNESS
 40
0.0
  9
$LIMCHECK
 70
0
  9
$CHAMFERA
 40
0.0
  9
$CHAMFERB
 40
0.0
  9
$CHAMFERC
 40
0.0
  9
$CHAMFERD
 40
0.0
  9
$SKPOLY
 70
0
  9
$TDCREATE
 40
2461131.750914352
  9
$TDUCREATE
 40
2458532.153996898
  9
$TDUPDATE
 40
2461131.750914352
  9
$TDUUPDATE
 40
2458532.1544311
  9
$TDINDWG
 40
0.0
  9
$TDUSRTIMER
 40
0.0
  9
$USRTIMER
 70
1
  9
$ANGBASE
 50
0.0
  9
$ANGDIR
 70
0
  9
$PDMODE
 70
0
  9
$PDSIZE
 40
0.0
  9
$PLINEWID
 40
0.0
  9
$SPLFRAME
 70
0
  9
$SPLINETYPE
 70
6
  9
$SPLINESEGS
 70
8
  9
$HANDSEED
  5
267
  9
$SURFTAB1
 70
6
  9
$SURFTAB2
 70
6
  9
$SURFTYPE
 70
6
  9
$SURFU
 70
6
  9
$SURFV
 70
6
  9
$UCSBASE
  2

  9
$UCSNAME
  2

  9
$UCSORG
 10
0.0
 20
0.0
 30
0.0
  9
$UCSXDIR
 10
1.0
 20
0.0
 30
0.0
  9
$UCSYDIR
 10
0.0
 20
1.0
 30
0.0
  9
$UCSORTHOREF
  2

  9
$UCSORTHOVIEW
 70
0
  9
$UCSORGTOP
 10
0.0
 20
0.0
 30
0.0
  9
$UCSORGBOTTOM
 10
0.0
 20
0.0
 30
0.0
  9
$UCSORGLEFT
 10
0.0
 20
0.0
 30
0.0
  9
$UCSORGRIGHT
 10
0.0
 20
0.0
 30
0.0
  9
$UCSORGFRONT
 10
0.0
 20
0.0
 30
0.0
  9
$UCSORGBACK
 10
0.0
 20
0.0
 30
0.0
  9
$PUCSBASE
  2

  9
$PUCSNAME
  2

  9
$PUCSORG
 10
0.0
 20
0.0
 30
0.0
  9
$PUCSXDIR
 10
1.0
 20
0.0
 30
0.0
  9
$PUCSYDIR
 10
0.0
 20
1.0
 30
0.0
  9
$PUCSORTHOREF
  2

  9
$PUCSORTHOVIEW
 70
0
  9
$PUCSORGTOP
 10
0.0
 20
0.0
 30
0.0
  9
$PUCSORGBOTTOM
 10
0.0
 20
0.0
 30
0.0
  9
$PUCSORGLEFT
 10
0.0
 20
0.0
 30
0.0
  9
$PUCSORGRIGHT
 10
0.0
 20
0.0
 30
0.0
  9
$PUCSORGFRONT
 10
0.0
 20
0.0
 30
0.0
  9
$PUCSORGBACK
 10
0.0
 20
0.0
 30
0.0
  9
$USERI1
 70
0
  9
$USERI2
 70
0
  9
$USERI3
 70
0
  9
$USERI4
 70
0
  9
$USERI5
 70
0
  9
$USERR1
 40
0.0
  9
$USERR2
 40
0.0
  9
$USERR3
 40
0.0
  9
$USERR4
 40
0.0
  9
$USERR5
 40
0.0
  9
$WORLDVIEW
 70
1
  9
$SHADEDGE
 70
3
  9
$SHADEDIF
 70
70
  9
$TILEMODE
 70
1
  9
$MAXACTVP
 70
64
  9
$PINSBASE
 10
0.0
 20
0.0
 30
0.0
  9
$PLIMCHECK
 70
0
  9
$PEXTMIN
 10
1e+20
 20
1e+20
 30
1e+20
  9
$PEXTMAX
 10
-1e+20
 20
-1e+20
 30
-1e+20
  9
$PLIMMIN
 10
0.0
 20
0.0
  9
$PLIMMAX
 10
420.0
 20
297.0
  9
$UNITMODE
 70
0
  9
$VISRETAIN
 70
1
  9
$PLINEGEN
 70
0
  9
$PSLTSCALE
 70
1
  9
$TREEDEPTH
 70
3020
  9
$CMLSTYLE
  2
Standard
  9
$CMLJUST
 70
0
  9
$CMLSCALE
 40
20.0
  9
$PROXYGRAPHICS
 70
1
  9
$MEASUREMENT
 70
1
  9
$CELWEIGHT
370
-1
  9
$ENDCAPS
280
0
  9
$JOINSTYLE
280
0
  9
$LWDISPLAY
290
0
  9
$INSUNITS
 70
6
  9
$HYPERLINKBASE
  1

  9
$STYLESHEET
  1

  9
$XEDIT
290
1
  9
$CEPSNTYPE
380
0
  9
$PSTYLEMODE
290
1
  9
$FINGERPRINTGUID
  2
{632BECB8-2A49-44D5-86B1-6B488AB3EFAA}
  9
$VERSIONGUID
  2
{96583557-ADDF-4541-ADC4-2DCCD22BFDE3}
  9
$EXTNAMES
290
1
  9
$PSVPSCALE
 40
0.0
  9
$OLESTARTUP
290
0
  9
$SORTENTS
280
127
  9
$INDEXCTL
280
0
  9
$HIDETEXT
280
1
  9
$XCLIPFRAME
280
1
  9
$HALOGAP
280
0
  9
$OBSCOLOR
 70
257
  9
$OBSLTYPE
280
0
  9
$INTERSECTIONDISPLAY
280
0
  9
$INTERSECTIONCOLOR
 70
257
  9
$DIMASSOC
280
2
  9
$PROJECTNAME
  1

  9
$CAMERADISPLAY
290
0
  9
$LENSLENGTH
 40
50.0
  9
$CAMERAHEIGHT
 40
0.0
  9
$STEPSPERSEC
 40
24.0
  9
$STEPSIZE
 40
100.0
  9
$3DDWFPREC
 40
2.0
  9
$PSOLWIDTH
 40
0.005
  9
$PSOLHEIGHT
 40
0.08
  9
$LOFTANG1
 40
1.570796326795
  9
$LOFTANG2
 40
1.570796326795
  9
$LOFTMAG1
 40
0.0
  9
$LOFTMAG2
 40
0.0
  9
$LOFTPARAM
 70
7
  9
$LOFTNORMALS
280
1
  9
$LATITUDE
 40
37.795
  9
$LONGITUDE
 40
-122.394
  9
$NORTHDIRECTION
 40
0.0
  9
$TIMEZONE
 70
-8000
  9
$LIGHTGLYPHDISPLAY
280
1
  9
$TILEMODELIGHTSYNCH
280
1
  9
$CMATERIAL
347
20
  9
$SOLIDHIST
280
0
  9
$SHOWHIST
280
1
  9
$DWFFRAME
280
2
  9
$DGNFRAME
280
2
  9
$REALWORLDSCALE
290
1
  9
$INTERFERECOLOR
 62
256
  9
$CSHADOW
280
0
  9
$SHADOWPLANELOCATION
 40
0.0
  0
ENDSEC
  0
SECTION
  2
CLASSES
  0
CLASS
  1
ACDBDICTIONARYWDFLT
  2
AcDbDictionaryWithDefault
  3
ObjectDBX Classes
 90
0
 91
0
280
0
281
0
  0
CLASS
  1
SUN
  2
AcDbSun
  3
SCENEOE
 90
1153
 91
0
280
0
281
0
  0
CLASS
  1
VISUALSTYLE
  2
AcDbVisualStyle
  3
ObjectDBX Classes
 90
4095
 91
0
280
0
281
0
  0
CLASS
  1
MATERIAL
  2
AcDbMaterial
  3
ObjectDBX Classes
 90
1153
 91
0
280
0
281
0
  0
CLASS
  1
SCALE
  2
AcDbScale
  3
ObjectDBX Classes
 90
1153
 91
0
280
0
281
0
  0
CLASS
  1
TABLESTYLE
  2
AcDbTableStyle
  3
ObjectDBX Classes
 90
4095
 91
0
280
0
281
0
  0
CLASS
  1
MLEADERSTYLE
  2
AcDbMLeaderStyle
  3
ACDB_MLEADERSTYLE_CLASS
 90
4095
 91
0
280
0
281
0
  0
CLASS
  1
DICTIONARYVAR
  2
AcDbDictionaryVar
  3
ObjectDBX Classes
 90
0
 91
0
280
0
281
0
  0
CLASS
  1
CELLSTYLEMAP
  2
AcDbCellStyleMap
  3
ObjectDBX Classes
 90
1152
 91
0
280
0
281
0
  0
CLASS
  1
MENTALRAYRENDERSETTINGS
  2
AcDbMentalRayRenderSettings
  3
SCENEOE
 90
1024
 91
0
280
0
281
0
  0
CLASS
  1
ACDBDETAILVIEWSTYLE
  2
AcDbDetailViewStyle
  3
ObjectDBX Classes
 90
1025
 91
0
280
0
281
0
  0
CLASS
  1
ACDBSECTIONVIEWSTYLE
  2
AcDbSectionViewStyle
  3
ObjectDBX Classes
 90
1025
 91
0
280
0
281
0
  0
CLASS
  1
RASTERVARIABLES
  2
AcDbRasterVariables
  3
ISM
 90
0
 91
0
280
0
281
0
  0
CLASS
  1
LAYOUT
  2
AcDbLayout
  3
ObjectDBX Classes
 90
0
 91
0
280
0
281
0
  0
CLASS
  1
ACDBPLACEHOLDER
  2
AcDbPlaceHolder
  3
ObjectDBX Classes
 90
0
 91
0
280
0
281
0
  0
ENDSEC
  0
SECTION
  2
TABLES
  0
TABLE
  2
VPORT
  5
8
330
0
100
AcDbSymbolTable
 70
1
  0
VPORT
  5
23
330
8
100
AcDbSymbolTableRecord
100
AcDbViewportTableRecord
  2
*Active
 70
0
 10
0.0
 20
0.0
 11
1.0
 21
1.0
 12
0.0
 22
0.0
 13
0.0
 23
0.0
 14
0.5
 24
0.5
 15
0.5
 25
0.5
 16
0.0
 26
0.0
 36
1.0
 17
0.0
 27
0.0
 37
0.0
 40
1000.0
 41
1.34
 42
50.0
 43
0.0
 44
0.0
 50
0.0
 51
0.0
 71
0
 72
1000
 73
1
 74
3
 75
0
 76
0
 77
0
 78
0
281
0
 65
0
146
0.0
  0
ENDTAB
  0
TABLE
  2
LTYPE
  5
2
330
0
100
AcDbSymbolTable
 70
3
  0
LTYPE
  5
24
330
2
100
AcDbSymbolTableRecord
100
AcDbLinetypeTableRecord
  2
ByBlock
 70
0
  3

 72
65
 73
0
 40
0.0
  0
LTYPE
  5
25
330
2
100
AcDbSymbolTableRecord
100
AcDbLinetypeTableRecord
  2
ByLayer
 70
0
  3

 72
65
 73
0
 40
0.0
  0
LTYPE
  5
26
330
2
100
AcDbSymbolTableRecord
100
AcDbLinetypeTableRecord
  2
Continuous
 70
0
  3

 72
65
 73
0
 40
0.0
  0
ENDTAB
  0
TABLE
  2
LAYER
  5
1
330
0
100
AcDbSymbolTable
 70
7
  0
LAYER
  5
27
330
1
100
AcDbSymbolTableRecord
100
AcDbLayerTableRecord
  2
0
 70
0
 62
7
  6
Continuous
370
-3
390
13
347
21
  0
LAYER
  5
28
330
1
100
AcDbSymbolTableRecord
100
AcDbLayerTableRecord
  2
Defpoints
 70
0
 62
7
  6
Continuous
290
0
370
-3
390
13
347
21
  0
LAYER
  5
2F
330
1
100
AcDbSymbolTableRecord
100
AcDbLayerTableRecord
  2
CUT
 70
0
 62
7
  6
Continuous
370
-3
390
13
347
21
  0
LAYER
  5
30
330
1
100
AcDbSymbolTableRecord
100
AcDbLayerTableRecord
  2
FOLD
 70
0
 62
1
  6
Continuous
370
-3
390
13
347
21
  0
LAYER
  5
31
330
1
100
AcDbSymbolTableRecord
100
AcDbLayerTableRecord
  2
CREASE
 70
0
 62
3
  6
Continuous
370
-3
390
13
347
21
  0
LAYER
  5
32
330
1
100
AcDbSymbolTableRecord
100
AcDbLayerTableRecord
  2
SLOT
 70
0
 62
5
  6
Continuous
370
-3
390
13
347
21
  0
LAYER
  5
33
330
1
100
AcDbSymbolTableRecord
100
AcDbLayerTableRecord
  2
BRIDGE
 70
0
 62
6
  6
Continuous
370
-3
390
13
347
21
  0
ENDTAB
  0
TABLE
  2
STYLE
  5
5
330
0
100
AcDbSymbolTable
 70
1
  0
STYLE
  5
29
330
5
100
AcDbSymbolTableRecord
100
AcDbTextStyleTableRecord
  2
Standard
 70
0
 40
0.0
 41
1.0
 50
0.0
 71
0
 42
2.5
  3
txt
  4

  0
ENDTAB
  0
TABLE
  2
VIEW
  5
7
330
0
100
AcDbSymbolTable
 70
0
  0
ENDTAB
  0
TABLE
  2
UCS
  5
6
330
0
100
AcDbSymbolTable
 70
0
  0
ENDTAB
  0
TABLE
  2
APPID
  5
3
330
0
100
AcDbSymbolTable
 70
3
  0
APPID
  5
2A
330
3
100
AcDbSymbolTableRecord
100
AcDbRegAppTableRecord
  2
ACAD
 70
0
  0
APPID
  5
264
330
3
100
AcDbSymbolTableRecord
100
AcDbRegAppTableRecord
  2
HATCHBACKGROUNDCOLOR
 70
0
  0
APPID
  5
265
330
3
100
AcDbSymbolTableRecord
100
AcDbRegAppTableRecord
  2
EZDXF
 70
0
  0
ENDTAB
  0
TABLE
  2
DIMSTYLE
  5
4
330
0
100
AcDbSymbolTable
 70
1
100
AcDbDimStyleTable
  0
DIMSTYLE
105
2B
330
4
100
AcDbSymbolTableRecord
100
AcDbDimStyleTableRecord
  2
Standard
 70
0
 40
1.0
 41
2.5
 42
0.625
 43
3.75
 44
1.25
 45
0.0
 46
0.0
 47
0.0
 48
0.0
 49
2.5
140
2.5
141
2.5
142
0.0
143
0.03937007874
144
1.0
145
0.0
146
1.0
147
0.625
148
0.0
 69
0
 70
0
 71
0
 72
0
 73
0
 74
0
 75
0
 76
0
 77
1
 78
8
 79
3
170
0
171
3
172
1
173
0
174
0
175
0
176
0
177
0
178
0
179
2
271
2
272
2
273
2
274
3
275
0
276
0
277
2
278
44
279
0
280
0
281
0
282
0
283
0
284
8
285
0
286
0
288
0
289
3
290
0
371
-2
372
-2
  0
ENDTAB
  0
TABLE
  2
BLOCK_RECORD
  5
9
330
0
100
AcDbSymbolTable
 70
2
  0
BLOCK_RECORD
  5
17
330
9
100
AcDbSymbolTableRecord
100
AcDbBlockTableRecord
  2
*Model_Space
340
1A
 70
0
280
1
281
0
  0
BLOCK_RECORD
  5
1B
330
9
100
AcDbSymbolTableRecord
100
AcDbBlockTableRecord
  2
*Paper_Space
340
1E
 70
0
280
1
281
0
  0
ENDTAB
  0
ENDSEC
  0
SECTION
  2
BLOCKS
  0
BLOCK
  5
18
330
17
100
AcDbEntity
  8
0
100
AcDbBlockBegin
  2
*Model_Space
 70
0
 10
0.0
 20
0.0
 30
0.0
  3
*Model_Space
  1

  0
ENDBLK
  5
19
330
17
100
AcDbEntity
  8
0
100
AcDbBlockEnd
  0
BLOCK
  5
1C
330
1B
100
AcDbEntity
  8
0
100
AcDbBlockBegin
  2
*Paper_Space
 70
0
 10
0.0
 20
0.0
 30
0.0
  3
*Paper_Space
  1

  0
ENDBLK
  5
1D
330
1B
100
AcDbEntity
  8
0
100
AcDbBlockEnd
  0
ENDSEC
  0
SECTION
  2
ENTITIES
  0
LINE
  5
34
330
17
100
AcDbEntity
  8
CREASE
100
AcDbLine
 10
42.25
 20
787.0
 30
0.0
 11
66.25
 21
787.25
 31
0.0
  0
LINE
  5
35
330
17
100
AcDbEntity
  8
CREASE
100
AcDbLine
 10
354.0
 20
747.75
 30
0.0
 11
369.25
 21
748.0
 31
0.0
  0
LINE
  5
36
330
17
100
AcDbEntity
  8
SLOT
100
AcDbLine
 10
77.0
 20
974.5
 30
0.0
 11
83.0
 21
974.5
 31
0.0
  0
LINE
  5
37
330
17
100
AcDbEntity
  8
CREASE
100
AcDbLine
 10
275.25
 20
745.5
 30
0.0
 11
301.5
 21
746.0
 31
0.0
  0
LINE
  5
38
330
17
100
AcDbEntity
  8
CREASE
100
AcDbLine
 10
123.75
 20
924.5
 30
0.0
 11
179.0
 21
920.75
 31
0.0
  0
LINE
  5
39
330
17
100
AcDbEntity
  8
CUT
100
AcDbLine
 10
19.75
 20
741.25
 30
0.0
 11
59.75
 21
741.25
 31
0.0
  0
LINE
  5
3A
330
17
100
AcDbEntity
  8
CREASE
100
AcDbLine
 10
326.75
 20
790.25
 30
0.0
 11
348.25
 21
790.5
 31
0.0
  0
LINE
  5
3B
330
17
100
AcDbEntity
  8
CUT
100
AcDbLine
 10
352.0
 20
779.75
 30
0.0
 11
371.75
 21
779.75
 31
0.0
  0
LINE
  5
3C
330
17
100
AcDbEntity
  8
CREASE
100
AcDbLine
 10
1.25
 20
783.75
 30
0.0
 11
1.25
 21
812.25
 31
0.0
  0
LINE
  5
3D
330
17
100
AcDbEntity
  8
FOLD
100
AcDbLine
 10
327.75
 20
748.25
 30
0.0
 11
334.75
 21
748.25
 31
0.0
  0
LINE
  5
3E
330
17
100
AcDbEntity
  8
CREASE
100
AcDbLine
 10
152.0
 20
871.25
 30
0.0
 11
160.25
 21
876.5
 31
0.0
  0
LINE
  5
3F
330
17
100
AcDbEntity
  8
CREASE
100
AcDbLine
 10
88.75
 20
886.5
 30
0.0
 11
91.0
 21
919.25
 31
0.0
  0
LINE
  5
40
330
17
100
AcDbEntity
  8
CREASE
100
AcDbLine
 10
59.75
 20
741.5
 30
0.0
 11
79.0
 21
760.25
 31
0.0
  0
LINE
  5
41
330
17
100
AcDbEntity
  8
CREASE
100
AcDbLine
 10
195.25
 20
744.0
 30
0.0
 11
211.25
 21
744.5
 31
0.0
  0
LINE
  5
42
330
17
100
AcDbEntity
  8
FOLD
100
AcDbLine
 10
192.75
 20
754.25
 30
0.0
 11
193.25
 21
764.75
 31
0.0
  0
LINE
  5
43
330
17
100
AcDbEntity
  8
FOLD
100
AcDbLine
 10
193.5
 20
745.25
 30
0.0
 11
210.25
 21
745.5
 31
0.0
  0
LINE
  5
44
330
17
100
AcDbEntity
  8
CUT
100
AcDbLine
 10
68.25
 20
751.0
 30
0.0
 11
86.0
 21
770.0
 31
0.0
  0
LINE
  5
45
330
17
100
AcDbEntity
  8
FOLD
100
AcDbLine
 10
203.0
 20
924.25
 30
0.0
 11
203.75
 21
935.75
 31
0.0
  0
LINE
  5
46
330
17
100
AcDbEntity
  8
CREASE
100
AcDbLine
 10
256.5
 20
792.5
 30
0.0
 11
265.75
 21
792.0
 31
0.0
  0
LINE
  5
47
330
17
100
AcDbEntity
  8
CREASE
100
AcDbLine
 10
211.5
 20
813.5
 30
0.0
 11
224.75
 21
833.25
 31
0.0
  0
LINE
  5
48
330
17
100
AcDbEntity
  8
CUT
100
AcDbLine
 10
319.25
 20
979.75
 30
0.0
 11
346.75
 21
999.75
 31
0.0
  0
LINE
  5
49
330
17
100
AcDbEntity
  8
FOLD
100
AcDbLine
 10
60.5
 20
788.25
 30
0.0
 11
69.25
 21
788.25
 31
0.0
  0
LINE
  5
4A
330
17
100
AcDbEntity
  8
CUT
100
AcDbLine
 10
66.5
 20
787.5
 30
0.0
 11
81.75
 21
787.5
 31
0.0
  0
LINE
  5
4B
330
17
100
AcDbEntity
  8
CREASE
100
AcDbLine
 10
160.0
 20
860.0
 30
0.0
 11
180.25
 21
880.25
 31
0.0
  0
LINE
  5
4C
330
17
100
AcDbEntity
  8
FOLD
100
AcDbLine
 10
268.25
 20
746.75
 30
0.0
 11
294.25
 21
746.75
 31
0.0
  0
LINE
  5
4D
330
17
100
AcDbEntity
  8
FOLD
100
AcDbLine
 10
334.0
 20
791.75
 30
0.0
 11
362.5
 21
792.5
 31
0.0
  0
LINE
  5
4E
330
17
100
AcDbEntity
  8
CREASE
100
AcDbLine
 10
165.5
 20
974.75
 30
0.0
 11
173.0
 21
974.75
 31
0.0
  0
LINE
  5
4F
330
17
100
AcDbEntity
  8
CUT
100
AcDbLine
 10
17.25
 20
973.0
 30
0.0
 11
37.75
 21
973.0
 31
0.0
  0
LINE
  5
50
330
17
100
AcDbEntity
  8
CUT
100
AcDbLine
 10
0.0
 20
786.5
 30
0.0
 11
22.75
 21
786.75
 31
0.0
  0
LINE
  5
51
330
17
100
AcDbEntity
  8
FOLD
100
AcDbLine
 10
146.0
 20
923.75
 30
0.0
 11
179.5
 21
921.25
 31
0.0
  0
LINE
  5
52
330
17
100
AcDbEntity
  8
CREASE
100
AcDbLine
 10
151.0
 20
916.75
 30
0.0
 11
169.5
 21
915.5
 31
0.0
  0
LINE
  5
53
330
17
100
AcDbEntity
  8
FOLD
100
AcDbLine
 10
1.0
 20
941.5
 30
0.0
 11
1.0
 21
954.5
 31
0.0
  0
LINE
  5
54
330
17
100
AcDbEntity
  8
CREASE
100
AcDbLine
 10
281.75
 20
789.75
 30
0.0
 11
291.25
 21
789.75
 31
0.0
  0
LINE
  5
55
330
17
100
AcDbEntity
  8
CREASE
100
AcDbLine
 10
42.25
 20
725.0
 30
0.0
 11
69.75
 21
750.75
 31
0.0
  0
LINE
  5
56
330
17
100
AcDbEntity
  8
SLOT
100
AcDbLine
 10
38.0
 20
780.0
 30
0.0
 11
44.0
 21
780.0
 31
0.0
  0
LINE
  5
57
330
17
100
AcDbEntity
  8
CUT
100
AcDbLine
 10
321.0
 20
985.25
 30
0.0
 11
341.25
 21
999.5
 31
0.0
  0
LINE
  5
58
330
17
100
AcDbEntity
  8
FOLD
100
AcDbLine
 10
267.75
 20
895.75
 30
0.0
 11
287.75
 21
894.5
 31
0.0
  0
LINE
  5
59
330
17
100
AcDbEntity
  8
CREASE
100
AcDbLine
 10
9.0
 20
741.5
 30
0.0
 11
19.5
 21
741.5
 31
0.0
  0
LINE
  5
5A
330
17
100
AcDbEntity
  8
CUT
100
AcDbLine
 10
331.25
 20
784.5
 30
0.0
 11
348.0
 21
784.5
 31
0.0
  0
LINE
  5
5B
330
17
100
AcDbEntity
  8
FOLD
100
AcDbLine
 10
304.75
 20
975.75
 30
0.0
 11
317.0
 21
984.25
 31
0.0
  0
LINE
  5
5C
330
17
100
AcDbEntity
  8
FOLD
100
AcDbLine
 10
62.25
 20
849.75
 30
0.0
 11
98.0
 21
839.5
 31
0.0
  0
LINE
  5
5D
330
17
100
AcDbEntity
  8
CREASE
100
AcDbLine
 10
310.75
 20
974.5
 30
0.0
 11
319.5
 21
974.5
 31
0.0
  0
LINE
  5
5E
330
17
100
AcDbEntity
  8
CUT
100
AcDbLine
 10
223.25
 20
831.5
 30
0.0
 11
261.75
 21
836.75
 31
0.0
  0
LINE
  5
5F
330
17
100
AcDbEntity
  8
FOLD
100
AcDbLine
 10
223.25
 20
785.25
 30
0.0
 11
224.0
 21
799.25
 31
0.0
  0
LINE
  5
60
330
17
100
AcDbEntity
  8
CREASE
100
AcDbLine
 10
163.25
 20
975.5
 30
0.0
 11
180.0
 21
975.5
 31
0.0
  0
LINE
  5
61
330
17
100
AcDbEntity
  8
CREASE
100
AcDbLine
 10
248.25
 20
895.75
 30
0.0
 11
267.0
 21
895.0
 31
0.0
  0
LINE
  5
62
330
17
100
AcDbEntity
  8
FOLD
100
AcDbLine
 10
32.5
 20
742.25
 30
0.0
 11
39.0
 21
742.25
 31
0.0
  0
LINE
  5
63
330
17
100
AcDbEntity
  8
SLOT
100
AcDbLine
 10
39.0
 20
779.75
 30
0.0
 11
46.25
 21
779.75
 31
0.0
  0
LINE
  5
64
330
17
100
AcDbEntity
  8
CREASE
100
AcDbLine
 10
223.25
 20
829.75
 30
0.0
 11
258.0
 21
834.75
 31
0.0
  0
LINE
  5
65
330
17
100
AcDbEntity
  8
BRIDGE
100
AcDbLine
 10
3.0
 20
780.5
 30
0.0
 11
11.75
 21
780.5
 31
0.0
  0
LINE
  5
66
330
17
100
AcDbEntity
  8
CREASE
100
AcDbLine
 10
43.5
 20
974.75
 30
0.0
 11
61.75
 21
974.75
 31
0.0
  0
LINE
  5
67
330
17
100
AcDbEntity
  8
CREASE
100
AcDbLine
 10
64.5
 20
847.75
 30
0.0
 11
107.0
 21
835.0
 31
0.0
  0
LINE
  5
68
330
17
100
AcDbEntity
  8
CREASE
100
AcDbLine
 10
242.5
 20
792.75
 30
0.0
 11
256.25
 21
792.25
 31
0.0
  0
LINE
  5
69
330
17
100
AcDbEntity
  8
BRIDGE
100
AcDbLine
 10
19.75
 20
975.25
 30
0.0
 11
28.25
 21
975.5
 31
0.0
  0
LINE
  5
6A
330
17
100
AcDbEntity
  8
CREASE
100
AcDbLine
 10
306.0
 20
746.5
 30
0.0
 11
319.0
 21
746.5
 31
0.0
  0
LINE
  5
6B
330
17
100
AcDbEntity
  8
CREASE
100
AcDbLine
 10
121.75
 20
928.0
 30
0.0
 11
123.0
 21
943.0
 31
0.0
  0
LINE
  5
6C
330
17
100
AcDbEntity
  8
CUT
100
AcDbLine
 10
164.0
 20
916.75
 30
0.0
 11
185.0
 21
915.25
 31
0.0
  0
LINE
  5
6D
330
17
100
AcDbEntity
  8
CREASE
100
AcDbLine
 10
1.5
 20
974.25
 30
0.0
 11
28.5
 21
974.75
 31
0.0
  0
LINE
  5
6E
330
17
100
AcDbEntity
  8
CREASE
100
AcDbLine
 10
188.75
 20
882.75
 30
0.0
 11
198.0
 21
878.0
 31
0.0
  0
LINE
  5
6F
330
17
100
AcDbEntity
  8
CUT
100
AcDbLine
 10
247.0
 20
941.25
 30
0.0
 11
257.25
 21
974.5
 31
0.0
  0
LINE
  5
70
330
17
100
AcDbEntity
  8
CREASE
100
AcDbLine
 10
193.5
 20
769.75
 30
0.0
 11
195.75
 21
777.5
 31
0.0
  0
LINE
  5
71
330
17
100
AcDbEntity
  8
CREASE
100
AcDbLine
 10
158.5
 20
755.75
 30
0.0
 11
165.0
 21
761.5
 31
0.0
  0
LINE
  5
72
330
17
100
AcDbEntity
  8
CUT
100
AcDbLine
 10
257.25
 20
847.25
 30
0.0
 11
273.25
 21
843.5
 31
0.0
  0
LINE
  5
73
330
17
100
AcDbEntity
  8
FOLD
100
AcDbLine
 10
239.0
 20
794.25
 30
0.0
 11
265.5
 21
792.75
 31
0.0
  0
LINE
  5
74
330
17
100
AcDbEntity
  8
CREASE
100
AcDbLine
 10
202.5
 20
893.5
 30
0.0
 11
203.0
 21
906.5
 31
0.0
  0
LINE
  5
75
330
17
100
AcDbEntity
  8
CREASE
100
AcDbLine
 10
200.5
 20
882.25
 30
0.0
 11
201.25
 21
893.75
 31
0.0
  0
LINE
  5
76
330
17
100
AcDbEntity
  8
FOLD
100
AcDbLine
 10
16.25
 20
787.75
 30
0.0
 11
47.0
 21
787.75
 31
0.0
  0
LINE
  5
77
330
17
100
AcDbEntity
  8
CREASE
100
AcDbLine
 10
1.25
 20
941.5
 30
0.0
 11
28.75
 21
929.75
 31
0.0
  0
LINE
  5
78
330
17
100
AcDbEntity
  8
CREASE
100
AcDbLine
 10
212.0
 20
732.5
 30
0.0
 11
213.75
 21
742.5
 31
0.0
  0
LINE
  5
79
330
17
100
AcDbEntity
  8
FOLD
100
AcDbLine
 10
132.75
 20
770.5
 30
0.0
 11
149.75
 21
761.5
 31
0.0
  0
LINE
  5
7A
330
17
100
AcDbEntity
  8
FOLD
100
AcDbLine
 10
90.0
 20
900.5
 30
0.0
 11
91.75
 21
919.0
 31
0.0
  0
LINE
  5
7B
330
17
100
AcDbEntity
  8
FOLD
100
AcDbLine
 10
336.25
 20
748.25
 30
0.0
 11
371.75
 21
749.25
 31
0.0
  0
LINE
  5
7C
330
17
100
AcDbEntity
  8
CUT
100
AcDbLine
 10
121.5
 20
777.0
 30
0.0
 11
137.5
 21
766.25
 31
0.0
  0
LINE
  5
7D
330
17
100
AcDbEntity
  8
CREASE
100
AcDbLine
 10
300.0
 20
966.25
 30
0.0
 11
311.75
 21
973.5
 31
0.0
  0
LINE
  5
7E
330
17
100
AcDbEntity
  8
FOLD
100
AcDbLine
 10
311.75
 20
790.5
 30
0.0
 11
331.25
 21
791.75
 31
0.0
  0
LINE
  5
7F
330
17
100
AcDbEntity
  8
FOLD
100
AcDbLine
 10
60.25
 20
824.75
 30
0.0
 11
78.0
 21
823.75
 31
0.0
  0
LINE
  5
80
330
17
100
AcDbEntity
  8
CREASE
100
AcDbLine
 10
70.5
 20
785.25
 30
0.0
 11
81.75
 21
785.0
 31
0.0
  0
LINE
  5
81
330
17
100
AcDbEntity
  8
FOLD
100
AcDbLine
 10
156.5
 20
858.25
 30
0.0
 11
171.5
 21
872.75
 31
0.0
  0
LINE
  5
82
330
17
100
AcDbEntity
  8
CREASE
100
AcDbLine
 10
345.25
 20
747.5
 30
0.0
 11
353.75
 21
747.5
 31
0.0
  0
LINE
  5
83
330
17
100
AcDbEntity
  8
SLOT
100
AcDbLine
 10
354.0
 20
770.25
 30
0.0
 11
359.75
 21
770.25
 31
0.0
  0
LINE
  5
84
330
17
100
AcDbEntity
  8
FOLD
100
AcDbLine
 10
0.25
 20
799.75
 30
0.0
 11
0.25
 21
815.5
 31
0.0
  0
LINE
  5
85
330
17
100
AcDbEntity
  8
CUT
100
AcDbLine
 10
196.75
 20
885.5
 30
0.0
 11
198.5
 21
910.0
 31
0.0
  0
LINE
  5
86
330
17
100
AcDbEntity
  8
FOLD
100
AcDbLine
 10
210.5
 20
732.25
 30
0.0
 11
212.5
 21
744.0
 31
0.0
  0
LINE
  5
87
330
17
100
AcDbEntity
  8
SLOT
100
AcDbLine
 10
127.0
 20
868.0
 30
0.0
 11
133.75
 21
869.5
 31
0.0
  0
LINE
  5
88
330
17
100
AcDbEntity
  8
FOLD
100
AcDbLine
 10
37.5
 20
720.5
 30
0.0
 11
43.75
 21
726.75
 31
0.0
  0
LINE
  5
89
330
17
100
AcDbEntity
  8
CREASE
100
AcDbLine
 10
88.5
 20
858.0
 30
0.0
 11
90.0
 21
873.0
 31
0.0
  0
LINE
  5
8A
330
17
100
AcDbEntity
  8
SLOT
100
AcDbLine
 10
42.0
 20
775.0
 30
0.0
 11
47.0
 21
775.0
 31
0.0
  0
LINE
  5
8B
330
17
100
AcDbEntity
  8
CREASE
100
AcDbLine
 10
72.0
 20
775.25
 30
0.0
 11
81.0
 21
775.25
 31
0.0
  0
LINE
  5
8C
330
17
100
AcDbEntity
  8
FOLD
100
AcDbLine
 10
88.0
 20
772.75
 30
0.0
 11
98.25
 21
788.0
 31
0.0
  0
LINE
  5
8D
330
17
100
AcDbEntity
  8
CREASE
100
AcDbLine
 10
142.5
 20
724.25
 30
0.0
 11
152.5
 21
741.5
 31
0.0
  0
LINE
  5
8E
330
17
100
AcDbEntity
  8
CREASE
100
AcDbLine
 10
17.0
 20
972.0
 30
0.0
 11
25.75
 21
972.0
 31
0.0
  0
LINE
  5
8F
330
17
100
AcDbEntity
  8
CREASE
100
AcDbLine
 10
107.25
 20
791.5
 30
0.0
 11
115.5
 21
783.25
 31
0.0
  0
LINE
  5
90
330
17
100
AcDbEntity
  8
FOLD
100
AcDbLine
 10
228.5
 20
878.5
 30
0.0
 11
230.5
 21
910.5
 31
0.0
  0
LINE
  5
91
330
17
100
AcDbEntity
  8
CREASE
100
AcDbLine
 10
229.75
 20
876.75
 30
0.0
 11
230.25
 21
887.25
 31
0.0
  0
LINE
  5
92
330
17
100
AcDbEntity
  8
SLOT
100
AcDbLine
 10
360.5
 20
781.0
 30
0.0
 11
367.5
 21
781.0
 31
0.0
  0
LINE
  5
93
330
17
100
AcDbEntity
  8
CUT
100
AcDbLine
 10
307.0
 20
975.25
 30
0.0
 11
341.25
 21
999.25
 31
0.0
  0
LINE
  5
94
330
17
100
AcDbEntity
  8
FOLD
100
AcDbLine
 10
196.75
 20
903.0
 30
0.0
 11
197.25
 21
913.5
 31
0.0
  0
LINE
  5
95
330
17
100
AcDbEntity
  8
FOLD
100
AcDbLine
 10
86.5
 20
855.75
 30
0.0
 11
87.5
 21
867.75
 31
0.0
  0
LINE
  5
96
330
17
100
AcDbEntity
  8
FOLD
100
AcDbLine
 10
323.75
 20
989.25
 30
0.0
 11
338.75
 21
999.5
 31
0.0
  0
LINE
  5
97
330
17
100
AcDbEntity
  8
CUT
100
AcDbLine
 10
165.25
 20
973.25
 30
0.0
 11
170.0
 21
1000.0
 31
0.0
  0
LINE
  5
98
330
17
100
AcDbEntity
  8
CREASE
100
AcDbLine
 10
302.75
 20
969.25
 30
0.0
 11
310.5
 21
974.25
 31
0.0
  0
LINE
  5
99
330
17
100
AcDbEntity
  8
CREASE
100
AcDbLine
 10
165.25
 20
762.25
 30
0.0
 11
182.5
 21
776.25
 31
0.0
  0
LINE
  5
9A
330
17
100
AcDbEntity
  8
FOLD
100
AcDbLine
 10
350.75
 20
853.25
 30
0.0
 11
372.25
 21
856.25
 31
0.0
  0
LINE
  5
9B
330
17
100
AcDbEntity
  8
CREASE
100
AcDbLine
 10
204.0
 20
915.75
 30
0.0
 11
205.5
 21
935.5
 31
0.0
  0
LINE
  5
9C
330
17
100
AcDbEntity
  8
CREASE
100
AcDbLine
 10
267.5
 20
836.5
 30
0.0
 11
283.0
 21
838.25
 31
0.0
  0
LINE
  5
9D
330
17
100
AcDbEntity
  8
CREASE
100
AcDbLine
 10
180.5
 20
997.5
 30
0.0
 11
190.25
 21
988.75
 31
0.0
  0
LINE
  5
9E
330
17
100
AcDbEntity
  8
CREASE
100
AcDbLine
 10
107.5
 20
835.25
 30
0.0
 11
112.25
 21
849.5
 31
0.0
  0
LINE
  5
9F
330
17
100
AcDbEntity
  8
CREASE
100
AcDbLine
 10
84.0
 20
814.0
 30
0.0
 11
84.75
 21
820.25
 31
0.0
  0
LINE
  5
A0
330
17
100
AcDbEntity
  8
FOLD
100
AcDbLine
 10
270.0
 20
791.25
 30
0.0
 11
280.5
 21
791.75
 31
0.0
  0
LINE
  5
A1
330
17
100
AcDbEntity
  8
CREASE
100
AcDbLine
 10
291.0
 20
840.5
 30
0.0
 11
297.0
 21
838.75
 31
0.0
  0
LINE
  5
A2
330
17
100
AcDbEntity
  8
CREASE
100
AcDbLine
 10
364.25
 20
775.0
 30
0.0
 11
372.75
 21
774.75
 31
0.0
  0
LINE
  5
A3
330
17
100
AcDbEntity
  8
CREASE
100
AcDbLine
 10
326.75
 20
747.0
 30
0.0
 11
334.75
 21
747.0
 31
0.0
  0
LINE
  5
A4
330
17
100
AcDbEntity
  8
FOLD
100
AcDbLine
 10
118.0
 20
886.0
 30
0.0
 11
120.75
 21
916.5
 31
0.0
  0
LINE
  5
A5
330
17
100
AcDbEntity
  8
CREASE
100
AcDbLine
 10
264.25
 20
745.25
 30
0.0
 11
272.75
 21
745.25
 31
0.0
  0
LINE
  5
A6
330
17
100
AcDbEntity
  8
CREASE
100
AcDbLine
 10
131.5
 20
954.0
 30
0.0
 11
137.25
 21
954.5
 31
0.0
  0
LINE
  5
A7
330
17
100
AcDbEntity
  8
CREASE
100
AcDbLine
 10
93.75
 20
998.25
 30
0.0
 11
101.75
 21
992.25
 31
0.0
  0
LINE
  5
A8
330
17
100
AcDbEntity
  8
CUT
100
AcDbLine
 10
335.0
 20
991.0
 30
0.0
 11
346.75
 21
999.5
 31
0.0
  0
LINE
  5
A9
330
17
100
AcDbEntity
  8
SLOT
100
AcDbLine
 10
83.5
 20
817.5
 30
0.0
 11
84.0
 21
823.5
 31
0.0
  0
LINE
  5
AA
330
17
100
AcDbEntity
  8
CREASE
100
AcDbLine
 10
218.75
 20
947.25
 30
0.0
 11
228.5
 21
944.25
 31
0.0
  0
LINE
  5
AB
330
17
100
AcDbEntity
  8
CREASE
100
AcDbLine
 10
90.0
 20
891.75
 30
0.0
 11
90.5
 21
900.25
 31
0.0
  0
LINE
  5
AC
330
17
100
AcDbEntity
  8
CUT
100
AcDbLine
 10
268.0
 20
959.75
 30
0.0
 11
276.0
 21
958.0
 31
0.0
  0
LINE
  5
AD
330
17
100
AcDbEntity
  8
CREASE
100
AcDbLine
 10
249.75
 20
945.25
 30
0.0
 11
255.75
 21
965.25
 31
0.0
  0
LINE
  5
AE
330
17
100
AcDbEntity
  8
FOLD
100
AcDbLine
 10
249.75
 20
896.75
 30
0.0
 11
261.0
 21
896.0
 31
0.0
  0
LINE
  5
AF
330
17
100
AcDbEntity
  8
CREASE
100
AcDbLine
 10
211.25
 20
836.0
 30
0.0
 11
213.0
 21
842.0
 31
0.0
  0
LINE
  5
B0
330
17
100
AcDbEntity
  8
CREASE
100
AcDbLine
 10
195.5
 20
778.0
 30
0.0
 11
196.0
 21
790.75
 31
0.0
  0
LINE
  5
B1
330
17
100
AcDbEntity
  8
CREASE
100
AcDbLine
 10
317.0
 20
973.5
 30
0.0
 11
323.5
 21
973.75
 31
0.0
  0
LINE
  5
B2
330
17
100
AcDbEntity
  8
FOLD
100
AcDbLine
 10
289.0
 20
972.0
 30
0.0
 11
295.0
 21
972.0
 31
0.0
  0
LINE
  5
B3
330
17
100
AcDbEntity
  8
CREASE
100
AcDbLine
 10
334.0
 20
774.5
 30
0.0
 11
343.5
 21
774.5
 31
0.0
  0
LINE
  5
B4
330
17
100
AcDbEntity
  8
CREASE
100
AcDbLine
 10
316.25
 20
976.5
 30
0.0
 11
333.5
 21
989.0
 31
0.0
  0
LINE
  5
B5
330
17
100
AcDbEntity
  8
SLOT
100
AcDbLine
 10
0.0
 20
784.75
 30
0.0
 11
5.75
 21
784.75
 31
0.0
  0
LINE
  5
B6
330
17
100
AcDbEntity
  8
BRIDGE
100
AcDbLine
 10
355.25
 20
784.25
 30
0.0
 11
364.25
 21
784.5
 31
0.0
  0
LINE
  5
B7
330
17
100
AcDbEntity
  8
CREASE
100
AcDbLine
 10
204.0
 20
976.75
 30
0.0
 11
211.5
 21
969.25
 31
0.0
  0
LINE
  5
B8
330
17
100
AcDbEntity
  8
CUT
100
AcDbLine
 10
124.75
 20
901.25
 30
0.0
 11
126.25
 21
919.25
 31
0.0
  0
LINE
  5
B9
330
17
100
AcDbEntity
  8
FOLD
100
AcDbLine
 10
119.5
 20
780.0
 30
0.0
 11
135.5
 21
768.75
 31
0.0
  0
LINE
  5
BA
330
17
100
AcDbEntity
  8
CUT
100
AcDbLine
 10
120.25
 20
895.0
 30
0.0
 11
121.0
 21
908.0
 31
0.0
  0
LINE
  5
BB
330
17
100
AcDbEntity
  8
FOLD
100
AcDbLine
 10
105.0
 20
801.75
 30
0.0
 11
119.5
 21
788.25
 31
0.0
  0
LINE
  5
BC
330
17
100
AcDbEntity
  8
CREASE
100
AcDbLine
 10
79.75
 20
770.5
 30
0.0
 11
80.5
 21
779.5
 31
0.0
  0
LINE
  5
BD
330
17
100
AcDbEntity
  8
CREASE
100
AcDbLine
 10
49.75
 20
975.5
 30
0.0
 11
55.25
 21
975.5
 31
0.0
  0
LINE
  5
BE
330
17
100
AcDbEntity
  8
FOLD
100
AcDbLine
 10
119.25
 20
859.0
 30
0.0
 11
131.75
 21
867.75
 31
0.0
  0
LINE
  5
BF
330
17
100
AcDbEntity
  8
CREASE
100
AcDbLine
 10
239.0
 20
991.0
 30
0.0
 11
248.0
 21
991.0
 31
0.0
  0
LINE
  5
C0
330
17
100
AcDbEntity
  8
CREASE
100
AcDbLine
 10
75.0
 20
887.75
 30
0.0
 11
87.0
 21
887.0
 31
0.0
  0
LINE
  5
C1
330
17
100
AcDbEntity
  8
CUT
100
AcDbLine
 10
170.0
 20
983.0
 30
0.0
 11
174.25
 21
1000.0
 31
0.0
  0
LINE
  5
C2
330
17
100
AcDbEntity
  8
CREASE
100
AcDbLine
 10
23.5
 20
972.25
 30
0.0
 11
28.75
 21
972.25
 31
0.0
  0
LINE
  5
C3
330
17
100
AcDbEntity
  8
CUT
100
AcDbLine
 10
108.0
 20
788.75
 30
0.0
 11
119.5
 21
778.5
 31
0.0
  0
LINE
  5
C4
330
17
100
AcDbEntity
  8
FOLD
100
AcDbLine
 10
139.5
 20
720.75
 30
0.0
 11
152.0
 21
742.75
 31
0.0
  0
LINE
  5
C5
330
17
100
AcDbEntity
  8
CREASE
100
AcDbLine
 10
96.5
 20
783.75
 30
0.0
 11
103.0
 21
794.0
 31
0.0
  0
LINE
  5
C6
330
17
100
AcDbEntity
  8
CREASE
100
AcDbLine
 10
280.75
 20
966.5
 30
0.0
 11
288.75
 21
966.25
 31
0.0
  0
LINE
  5
C7
330
17
100
AcDbEntity
  8
CREASE
100
AcDbLine
 10
80.75
 20
762.25
 30
0.0
 11
87.5
 21
772.5
 31
0.0
  0
LINE
  5
C8
330
17
100
AcDbEntity
  8
SLOT
100
AcDbLine
 10
179.0
 20
959.25
 30
0.0
 11
185.0
 21
957.25
 31
0.0
  0
LINE
  5
C9
330
17
100
AcDbEntity
  8
CUT
100
AcDbLine
 10
262.75
 20
848.5
 30
0.0
 11
279.75
 21
844.25
 31
0.0
  0
LINE
  5
CA
330
17
100
AcDbEntity
  8
CREASE
100
AcDbLine
 10
249.5
 20
965.25
 30
0.0
 11
253.25
 21
978.5
 31
0.0
  0
LINE
  5
CB
330
17
100
AcDbEntity
  8
CREASE
100
AcDbLine
 10
123.25
 20
873.5
 30
0.0
 11
123.5
 21
879.0
 31
0.0
  0
LINE
  5
CC
330
17
100
AcDbEntity
  8
CREASE
100
AcDbLine
 10
260.5
 20
834.25
 30
0.0
 11
268.75
 21
830.5
 31
0.0
  0
LINE
  5
CD
330
17
100
AcDbEntity
  8
FOLD
100
AcDbLine
 10
2.0
 20
975.0
 30
0.0
 11
19.5
 21
975.5
 31
0.0
  0
LINE
  5
CE
330
17
100
AcDbEntity
  8
CREASE
100
AcDbLine
 10
219.0
 20
917.75
 30
0.0
 11
225.5
 21
921.75
 31
0.0
  0
LINE
  5
CF
330
17
100
AcDbEntity
  8
CREASE
100
AcDbLine
 10
22.0
 20
868.75
 30
0.0
 11
31.0
 21
842.5
 31
0.0
  0
LINE
  5
D0
330
17
100
AcDbEntity
  8
CUT
100
AcDbLine
 10
277.5
 20
839.25
 30
0.0
 11
286.75
 21
839.75
 31
0.0
  0
LINE
  5
D1
330
17
100
AcDbEntity
  8
CUT
100
AcDbLine
 10
351.25
 20
780.75
 30
0.0
 11
360.25
 21
780.75
 31
0.0
  0
LINE
  5
D2
330
17
100
AcDbEntity
  8
FOLD
100
AcDbLine
 10
212.0
 20
816.75
 30
0.0
 11
220.25
 21
828.0
 31
0.0
  0
LINE
  5
D3
330
17
100
AcDbEntity
  8
CREASE
100
AcDbLine
 10
68.0
 20
822.75
 30
0.0
 11
86.0
 21
822.0
 31
0.0
  0
LINE
  5
D4
330
17
100
AcDbEntity
  8
FOLD
100
AcDbLine
 10
161.25
 20
760.0
 30
0.0
 11
184.0
 21
779.0
 31
0.0
  0
LINE
  5
D5
330
17
100
AcDbEntity
  8
CREASE
100
AcDbLine
 10
135.0
 20
882.75
 30
0.0
 11
159.25
 21
880.25
 31
0.0
  0
LINE
  5
D6
330
17
100
AcDbEntity
  8
FOLD
100
AcDbLine
 10
194.75
 20
757.5
 30
0.0
 11
206.75
 21
756.5
 31
0.0
  0
LINE
  5
D7
330
17
100
AcDbEntity
  8
SLOT
100
AcDbLine
 10
178.5
 20
974.0
 30
0.0
 11
185.0
 21
972.75
 31
0.0
  0
LINE
  5
D8
330
17
100
AcDbEntity
  8
CREASE
100
AcDbLine
 10
59.75
 20
742.5
 30
0.0
 11
67.0
 21
749.75
 31
0.0
  0
LINE
  5
D9
330
17
100
AcDbEntity
  8
CREASE
100
AcDbLine
 10
80.5
 20
770.5
 30
0.0
 11
80.75
 21
776.0
 31
0.0
  0
LINE
  5
DA
330
17
100
AcDbEntity
  8
CREASE
100
AcDbLine
 10
311.75
 20
789.75
 30
0.0
 11
319.75
 21
789.75
 31
0.0
  0
LINE
  5
DB
330
17
100
AcDbEntity
  8
CREASE
100
AcDbLine
 10
83.5
 20
810.25
 30
0.0
 11
84.0
 21
816.25
 31
0.0
  0
LINE
  5
DC
330
17
100
AcDbEntity
  8
CREASE
100
AcDbLine
 10
228.25
 20
962.75
 30
0.0
 11
236.25
 21
963.75
 31
0.0
  0
LINE
  5
DD
330
17
100
AcDbEntity
  8
SLOT
100
AcDbLine
 10
225.75
 20
800.5
 30
0.0
 11
226.0
 21
805.75
 31
0.0
  0
LINE
  5
DE
330
17
100
AcDbEntity
  8
CREASE
100
AcDbLine
 10
2.0
 20
961.75
 30
0.0
 11
2.25
 21
947.75
 31
0.0
  0
LINE
  5
DF
330
17
100
AcDbEntity
  8
FOLD
100
AcDbLine
 10
105.0
 20
800.75
 30
0.0
 11
126.75
 21
780.5
 31
0.0
  0
LINE
  5
E0
330
17
100
AcDbEntity
  8
CREASE
100
AcDbLine
 10
353.0
 20
790.75
 30
0.0
 11
358.5
 21
785.5
 31
0.0
  0
LINE
  5
E1
330
17
100
AcDbEntity
  8
CREASE
100
AcDbLine
 10
287.25
 20
956.0
 30
0.0
 11
296.75
 21
963.0
 31
0.0
  0
LINE
  5
E2
330
17
100
AcDbEntity
  8
FOLD
100
AcDbLine
 10
82.5
 20
810.5
 30
0.0
 11
83.5
 21
819.5
 31
0.0
  0
LINE
  5
E3
330
17
100
AcDbEntity
  8
FOLD
100
AcDbLine
 10
202.75
 20
921.0
 30
0.0
 11
203.0
 21
927.75
 31
0.0
  0
LINE
  5
E4
330
17
100
AcDbEntity
  8
SLOT
100
AcDbLine
 10
200.25
 20
952.25
 30
0.0
 11
205.5
 21
950.75
 31
0.0
  0
LINE
  5
E5
330
17
100
AcDbEntity
  8
SLOT
100
AcDbLine
 10
38.0
 20
780.5
 30
0.0
 11
43.0
 21
780.25
 31
0.0
  0
LINE
  5
E6
330
17
100
AcDbEntity
  8
CREASE
100
AcDbLine
 10
284.5
 20
893.75
 30
0.0
 11
292.0
 21
893.25
 31
0.0
  0
LINE
  5
E7
330
17
100
AcDbEntity
  8
CREASE
100
AcDbLine
 10
203.0
 20
822.5
 30
0.0
 11
205.5
 21
827.75
 31
0.0
  0
LINE
  5
E8
330
17
100
AcDbEntity
  8
CREASE
100
AcDbLine
 10
81.5
 20
788.75
 30
0.0
 11
82.0
 21
794.5
 31
0.0
  0
LINE
  5
E9
330
17
100
AcDbEntity
  8
SLOT
100
AcDbLine
 10
268.75
 20
979.25
 30
0.0
 11
273.75
 21
979.0
 31
0.0
  0
LINE
  5
EA
330
17
100
AcDbEntity
  8
FOLD
100
AcDbLine
 10
80.5
 20
788.75
 30
0.0
 11
82.0
 21
807.25
 31
0.0
  0
LINE
  5
EB
330
17
100
AcDbEntity
  8
FOLD
100
AcDbLine
 10
333.0
 20
995.25
 30
0.0
 11
338.0
 21
998.75
 31
0.0
  0
LINE
  5
EC
330
17
100
AcDbEntity
  8
CUT
100
AcDbLine
 10
201.0
 20
896.75
 30
0.0
 11
202.25
 21
911.5
 31
0.0
  0
LINE
  5
ED
330
17
100
AcDbEntity
  8
CUT
100
AcDbLine
 10
113.5
 20
777.0
 30
0.0
 11
138.75
 21
759.5
 31
0.0
  0
LINE
  5
EE
330
17
100
AcDbEntity
  8
CUT
100
AcDbLine
 10
1.25
 20
834.75
 30
0.0
 11
13.0
 21
837.75
 31
0.0
  0
LINE
  5
EF
330
17
100
AcDbEntity
  8
CUT
100
AcDbLine
 10
346.25
 20
770.0
 30
0.0
 11
360.5
 21
769.25
 31
0.0
  0
LINE
  5
F0
330
17
100
AcDbEntity
  8
FOLD
100
AcDbLine
 10
230.5
 20
887.25
 30
0.0
 11
231.5
 21
908.5
 31
0.0
  0
LINE
  5
F1
330
17
100
AcDbEntity
  8
CREASE
100
AcDbLine
 10
181.75
 20
957.5
 30
0.0
 11
188.25
 21
955.75
 31
0.0
  0
LINE
  5
F2
330
17
100
AcDbEntity
  8
CREASE
100
AcDbLine
 10
155.25
 20
875.5
 30
0.0
 11
162.5
 21
877.25
 31
0.0
  0
LINE
  5
F3
330
17
100
AcDbEntity
  8
CREASE
100
AcDbLine
 10
119.5
 20
978.0
 30
0.0
 11
120.0
 21
971.5
 31
0.0
  0
LINE
  5
F4
330
17
100
AcDbEntity
  8
CREASE
100
AcDbLine
 10
145.25
 20
871.5
 30
0.0
 11
152.75
 21
873.25
 31
0.0
  0
LINE
  5
F5
330
17
100
AcDbEntity
  8
CUT
100
AcDbLine
 10
0.25
 20
840.25
 30
0.0
 11
22.5
 21
846.5
 31
0.0
  0
LINE
  5
F6
330
17
100
AcDbEntity
  8
CREASE
100
AcDbLine
 10
137.0
 20
917.75
 30
0.0
 11
180.0
 21
914.75
 31
0.0
  0
LINE
  5
F7
330
17
100
AcDbEntity
  8
CREASE
100
AcDbLine
 10
230.0
 20
990.5
 30
0.0
 11
236.0
 21
991.0
 31
0.0
  0
LINE
  5
F8
330
17
100
AcDbEntity
  8
SLOT
100
AcDbLine
 10
57.75
 20
775.25
 30
0.0
 11
65.0
 21
775.5
 31
0.0
  0
LINE
  5
F9
330
17
100
AcDbEntity
  8
CREASE
100
AcDbLine
 10
54.0
 20
779.75
 30
0.0
 11
63.5
 21
779.75
 31
0.0
  0
LINE
  5
FA
330
17
100
AcDbEntity
  8
FOLD
100
AcDbLine
 10
69.0
 20
889.5
 30
0.0
 11
90.5
 21
887.75
 31
0.0
  0
LINE
  5
FB
330
17
100
AcDbEntity
  8
CUT
100
AcDbLine
 10
3.0
 20
781.0
 30
0.0
 11
12.5
 21
781.5
 31
0.0
  0
LINE
  5
FC
330
17
100
AcDbEntity
  8
CREASE
100
AcDbLine
 10
95.25
 20
997.0
 30
0.0
 11
114.25
 21
982.75
 31
0.0
  0
LINE
  5
FD
330
17
100
AcDbEntity
  8
CREASE
100
AcDbLine
 10
19.25
 20
824.75
 30
0.0
 11
27.75
 21
827.5
 31
0.0
  0
LINE
  5
FE
330
17
100
AcDbEntity
  8
FOLD
100
AcDbLine
 10
226.75
 20
944.5
 30
0.0
 11
242.0
 21
940.75
 31
0.0
  0
LINE
  5
FF
330
17
100
AcDbEntity
  8
CREASE
100
AcDbLine
 10
225.5
 20
944.0
 30
0.0
 11
240.5
 21
940.0
 31
0.0
  0
LINE
  5
100
330
17
100
AcDbEntity
  8
CREASE
100
AcDbLine
 10
193.25
 20
744.0
 30
0.0
 11
194.25
 21
757.0
 31
0.0
  0
LINE
  5
101
330
17
100
AcDbEntity
  8
CREASE
100
AcDbLine
 10
69.5
 20
752.0
 30
0.0
 11
74.25
 21
757.25
 31
0.0
  0
LINE
  5
102
330
17
100
AcDbEntity
  8
CREASE
100
AcDbLine
 10
144.25
 20
871.5
 30
0.0
 11
150.75
 21
875.5
 31
0.0
  0
LINE
  5
103
330
17
100
AcDbEntity
  8
CREASE
100
AcDbLine
 10
184.0
 20
849.0
 30
0.0
 11
193.0
 21
861.0
 31
0.0
  0
LINE
  5
104
330
17
100
AcDbEntity
  8
CREASE
100
AcDbLine
 10
205.0
 20
936.0
 30
0.0
 11
205.5
 21
944.75
 31
0.0
  0
LINE
  5
105
330
17
100
AcDbEntity
  8
FOLD
100
AcDbLine
 10
165.75
 20
764.0
 30
0.0
 11
174.0
 21
771.0
 31
0.0
  0
LINE
  5
106
330
17
100
AcDbEntity
  8
CREASE
100
AcDbLine
 10
115.25
 20
933.5
 30
0.0
 11
116.0
 21
941.0
 31
0.0
  0
LINE
  5
107
330
17
100
AcDbEntity
  8
CREASE
100
AcDbLine
 10
149.75
 20
974.0
 30
0.0
 11
154.75
 21
975.0
 31
0.0
  0
LINE
  5
108
330
17
100
AcDbEntity
  8
CREASE
100
AcDbLine
 10
44.0
 20
955.5
 30
0.0
 11
66.75
 21
965.0
 31
0.0
  0
LINE
  5
109
330
17
100
AcDbEntity
  8
CREASE
100
AcDbLine
 10
141.25
 20
959.25
 30
0.0
 11
147.0
 21
965.0
 31
0.0
  0
LINE
  5
10A
330
17
100
AcDbEntity
  8
CREASE
100
AcDbLine
 10
342.0
 20
785.25
 30
0.0
 11
347.75
 21
785.25
 31
0.0
  0
LINE
  5
10B
330
17
100
AcDbEntity
  8
SLOT
100
AcDbLine
 10
252.25
 20
983.5
 30
0.0
 11
253.25
 21
990.25
 31
0.0
  0
LINE
  5
10C
330
17
100
AcDbEntity
  8
BRIDGE
100
AcDbLine
 10
348.5
 20
790.75
 30
0.0
 11
358.5
 21
790.75
 31
0.0
  0
LINE
  5
10D
330
17
100
AcDbEntity
  8
CREASE
100
AcDbLine
 10
256.0
 20
985.25
 30
0.0
 11
259.0
 21
994.5
 31
0.0
  0
LINE
  5
10E
330
17
100
AcDbEntity
  8
CREASE
100
AcDbLine
 10
170.0
 20
880.75
 30
0.0
 11
176.75
 21
876.0
 31
0.0
  0
LINE
  5
10F
330
17
100
AcDbEntity
  8
CREASE
100
AcDbLine
 10
92.25
 20
924.0
 30
0.0
 11
92.5
 21
930.5
 31
0.0
  0
LINE
  5
110
330
17
100
AcDbEntity
  8
CREASE
100
AcDbLine
 10
133.0
 20
955.5
 30
0.0
 11
141.25
 21
956.5
 31
0.0
  0
LINE
  5
111
330
17
100
AcDbEntity
  8
SLOT
100
AcDbLine
 10
124.5
 20
920.0
 30
0.0
 11
126.5
 21
914.5
 31
0.0
  0
LINE
  5
112
330
17
100
AcDbEntity
  8
CREASE
100
AcDbLine
 10
293.25
 20
958.0
 30
0.0
 11
305.25
 21
969.75
 31
0.0
  0
LINE
  5
113
330
17
100
AcDbEntity
  8
FOLD
100
AcDbLine
 10
142.5
 20
962.0
 30
0.0
 11
151.25
 21
971.5
 31
0.0
  0
LINE
  5
114
330
17
100
AcDbEntity
  8
CREASE
100
AcDbLine
 10
245.0
 20
838.5
 30
0.0
 11
256.75
 21
838.5
 31
0.0
  0
LINE
  5
115
330
17
100
AcDbEntity
  8
CREASE
100
AcDbLine
 10
224.5
 20
919.25
 30
0.0
 11
224.5
 21
928.5
 31
0.0
  0
LINE
  5
116
330
17
100
AcDbEntity
  8
CREASE
100
AcDbLine
 10
282.25
 20
964.0
 30
0.0
 11
289.75
 21
964.0
 31
0.0
  0
LINE
  5
117
330
17
100
AcDbEntity
  8
CREASE
100
AcDbLine
 10
191.25
 20
784.25
 30
0.0
 11
208.5
 21
807.25
 31
0.0
  0
LINE
  5
118
330
17
100
AcDbEntity
  8
SLOT
100
AcDbLine
 10
200.5
 20
953.0
 30
0.0
 11
206.0
 21
951.5
 31
0.0
  0
LINE
  5
119
330
17
100
AcDbEntity
  8
SLOT
100
AcDbLine
 10
8.0
 20
784.0
 30
0.0
 11
13.75
 21
784.0
 31
0.0
  0
LINE
  5
11A
330
17
100
AcDbEntity
  8
CREASE
100
AcDbLine
 10
57.5
 20
937.0
 30
0.0
 11
58.0
 21
944.25
 31
0.0
  0
LINE
  5
11B
330
17
100
AcDbEntity
  8
SLOT
100
AcDbLine
 10
267.75
 20
861.0
 30
0.0
 11
273.5
 21
860.5
 31
0.0
  0
LINE
  5
11C
330
17
100
AcDbEntity
  8
BRIDGE
100
AcDbLine
 10
122.5
 20
879.0
 30
0.0
 11
129.5
 21
882.75
 31
0.0
  0
LINE
  5
11D
330
17
100
AcDbEntity
  8
FOLD
100
AcDbLine
 10
1.25
 20
973.0
 30
0.0
 11
1.25
 21
963.5
 31
0.0
  0
LINE
  5
11E
330
17
100
AcDbEntity
  8
CUT
100
AcDbLine
 10
123.75
 20
895.75
 30
0.0
 11
124.5
 21
912.75
 31
0.0
  0
LINE
  5
11F
330
17
100
AcDbEntity
  8
CREASE
100
AcDbLine
 10
56.5
 20
850.0
 30
0.0
 11
62.0
 21
848.5
 31
0.0
  0
LINE
  5
120
330
17
100
AcDbEntity
  8
CREASE
100
AcDbLine
 10
19.5
 20
824.25
 30
0.0
 11
29.0
 21
826.75
 31
0.0
  0
LINE
  5
121
330
17
100
AcDbEntity
  8
CREASE
100
AcDbLine
 10
88.75
 20
772.25
 30
0.0
 11
99.75
 21
788.5
 31
0.0
  0
LINE
  5
122
330
17
100
AcDbEntity
  8
CREASE
100
AcDbLine
 10
338.75
 20
992.75
 30
0.0
 11
347.25
 21
998.0
 31
0.0
  0
LINE
  5
123
330
17
100
AcDbEntity
  8
CUT
100
AcDbLine
 10
351.0
 20
785.5
 30
0.0
 11
364.25
 21
785.5
 31
0.0
  0
LINE
  5
124
330
17
100
AcDbEntity
  8
SLOT
100
AcDbLine
 10
229.0
 20
804.0
 30
0.0
 11
231.0
 21
798.25
 31
0.0
  0
LINE
  5
125
330
17
100
AcDbEntity
  8
CREASE
100
AcDbLine
 10
194.0
 20
778.5
 30
0.0
 11
194.0
 21
787.75
 31
0.0
  0
LINE
  5
126
330
17
100
AcDbEntity
  8
BRIDGE
100
AcDbLine
 10
330.75
 20
783.75
 30
0.0
 11
338.75
 21
784.0
 31
0.0
  0
LINE
  5
127
330
17
100
AcDbEntity
  8
FOLD
100
AcDbLine
 10
182.0
 20
848.5
 30
0.0
 11
198.0
 21
871.25
 31
0.0
  0
LINE
  5
128
330
17
100
AcDbEntity
  8
CREASE
100
AcDbLine
 10
178.5
 20
974.25
 30
0.0
 11
189.0
 21
972.25
 31
0.0
  0
LINE
  5
129
330
17
100
AcDbEntity
  8
FOLD
100
AcDbLine
 10
318.25
 20
984.5
 30
0.0
 11
324.25
 21
989.5
 31
0.0
  0
LINE
  5
12A
330
17
100
AcDbEntity
  8
SLOT
100
AcDbLine
 10
268.0
 20
980.5
 30
0.0
 11
273.0
 21
980.5
 31
0.0
  0
LINE
  5
12B
330
17
100
AcDbEntity
  8
CREASE
100
AcDbLine
 10
141.0
 20
951.75
 30
0.0
 11
147.5
 21
952.5
 31
0.0
  0
LINE
  5
12C
330
17
100
AcDbEntity
  8
CREASE
100
AcDbLine
 10
51.25
 20
840.5
 30
0.0
 11
52.0
 21
851.0
 31
0.0
  0
LINE
  5
12D
330
17
100
AcDbEntity
  8
CREASE
100
AcDbLine
 10
104.25
 20
944.75
 30
0.0
 11
109.25
 21
945.25
 31
0.0
  0
LINE
  5
12E
330
17
100
AcDbEntity
  8
CUT
100
AcDbLine
 10
138.0
 20
918.25
 30
0.0
 11
166.5
 21
916.75
 31
0.0
  0
LINE
  5
12F
330
17
100
AcDbEntity
  8
SLOT
100
AcDbLine
 10
247.75
 20
953.25
 30
0.0
 11
249.0
 21
960.0
 31
0.0
  0
LINE
  5
130
330
17
100
AcDbEntity
  8
FOLD
100
AcDbLine
 10
195.75
 20
885.25
 30
0.0
 11
196.25
 21
898.75
 31
0.0
  0
LINE
  5
131
330
17
100
AcDbEntity
  8
SLOT
100
AcDbLine
 10
65.25
 20
775.25
 30
0.0
 11
71.75
 21
775.25
 31
0.0
  0
LINE
  5
132
330
17
100
AcDbEntity
  8
CREASE
100
AcDbLine
 10
81.25
 20
784.25
 30
0.0
 11
81.75
 21
790.25
 31
0.0
  0
LINE
  5
133
330
17
100
AcDbEntity
  8
CREASE
100
AcDbLine
 10
96.5
 20
785.75
 30
0.0
 11
102.25
 21
794.75
 31
0.0
  0
LINE
  5
134
330
17
100
AcDbEntity
  8
SLOT
100
AcDbLine
 10
217.25
 20
971.75
 30
0.0
 11
222.25
 21
971.75
 31
0.0
  0
LINE
  5
135
330
17
100
AcDbEntity
  8
CUT
100
AcDbLine
 10
263.0
 20
843.25
 30
0.0
 11
270.75
 21
842.75
 31
0.0
  0
LINE
  5
136
330
17
100
AcDbEntity
  8
CUT
100
AcDbLine
 10
314.75
 20
976.75
 30
0.0
 11
336.25
 21
992.25
 31
0.0
  0
LINE
  5
137
330
17
100
AcDbEntity
  8
CUT
100
AcDbLine
 10
22.75
 20
846.0
 30
0.0
 11
29.5
 21
827.5
 31
0.0
  0
LINE
  5
138
330
17
100
AcDbEntity
  8
SLOT
100
AcDbLine
 10
233.5
 20
887.0
 30
0.0
 11
235.75
 21
892.0
 31
0.0
  0
LINE
  5
139
330
17
100
AcDbEntity
  8
CUT
100
AcDbLine
 10
155.75
 20
749.25
 30
0.0
 11
178.75
 21
747.5
 31
0.0
  0
LINE
  5
13A
330
17
100
AcDbEntity
  8
FOLD
100
AcDbLine
 10
2.5
 20
942.75
 30
0.0
 11
22.0
 21
934.25
 31
0.0
  0
LINE
  5
13B
330
17
100
AcDbEntity
  8
CREASE
100
AcDbLine
 10
274.75
 20
957.0
 30
0.0
 11
282.75
 21
955.75
 31
0.0
  0
LINE
  5
13C
330
17
100
AcDbEntity
  8
FOLD
100
AcDbLine
 10
274.75
 20
958.0
 30
0.0
 11
282.0
 21
957.0
 31
0.0
  0
LINE
  5
13D
330
17
100
AcDbEntity
  8
CREASE
100
AcDbLine
 10
207.0
 20
874.25
 30
0.0
 11
212.25
 21
871.5
 31
0.0
  0
LINE
  5
13E
330
17
100
AcDbEntity
  8
CREASE
100
AcDbLine
 10
188.25
 20
736.25
 30
0.0
 11
190.75
 21
727.5
 31
0.0
  0
LINE
  5
13F
330
17
100
AcDbEntity
  8
SLOT
100
AcDbLine
 10
116.0
 20
920.0
 30
0.0
 11
122.0
 21
916.25
 31
0.0
  0
LINE
  5
140
330
17
100
AcDbEntity
  8
CREASE
100
AcDbLine
 10
126.75
 20
766.0
 30
0.0
 11
140.25
 21
757.25
 31
0.0
  0
LINE
  5
141
330
17
100
AcDbEntity
  8
CREASE
100
AcDbLine
 10
222.25
 20
917.0
 30
0.0
 11
231.75
 21
907.75
 31
0.0
  0
LINE
  5
142
330
17
100
AcDbEntity
  8
CREASE
100
AcDbLine
 10
126.75
 20
966.5
 30
0.0
 11
136.0
 21
967.0
 31
0.0
  0
LINE
  5
143
330
17
100
AcDbEntity
  8
FOLD
100
AcDbLine
 10
211.25
 20
840.0
 30
0.0
 11
213.75
 21
845.25
 31
0.0
  0
LINE
  5
144
330
17
100
AcDbEntity
  8
CREASE
100
AcDbLine
 10
244.75
 20
965.25
 30
0.0
 11
249.75
 21
970.25
 31
0.0
  0
LINE
  5
145
330
17
100
AcDbEntity
  8
FOLD
100
AcDbLine
 10
107.75
 20
925.5
 30
0.0
 11
119.25
 21
919.25
 31
0.0
  0
LINE
  5
146
330
17
100
AcDbEntity
  8
CREASE
100
AcDbLine
 10
99.5
 20
806.75
 30
0.0
 11
101.5
 21
815.75
 31
0.0
  0
LINE
  5
147
330
17
100
AcDbEntity
  8
CREASE
100
AcDbLine
 10
126.75
 20
966.0
 30
0.0
 11
136.0
 21
966.75
 31
0.0
  0
LINE
  5
148
330
17
100
AcDbEntity
  8
CREASE
100
AcDbLine
 10
162.75
 20
975.25
 30
0.0
 11
168.5
 21
969.5
 31
0.0
  0
LINE
  5
149
330
17
100
AcDbEntity
  8
SLOT
100
AcDbLine
 10
163.25
 20
969.25
 30
0.0
 11
168.5
 21
969.25
 31
0.0
  0
LINE
  5
14A
330
17
100
AcDbEntity
  8
CREASE
100
AcDbLine
 10
8.5
 20
820.5
 30
0.0
 11
16.0
 21
823.0
 31
0.0
  0
LINE
  5
14B
330
17
100
AcDbEntity
  8
CREASE
100
AcDbLine
 10
172.5
 20
965.5
 30
0.0
 11
180.0
 21
961.0
 31
0.0
  0
LINE
  5
14C
330
17
100
AcDbEntity
  8
CREASE
100
AcDbLine
 10
186.0
 20
740.5
 30
0.0
 11
187.75
 21
746.5
 31
0.0
  0
LINE
  5
14D
330
17
100
AcDbEntity
  8
CREASE
100
AcDbLine
 10
202.75
 20
976.5
 30
0.0
 11
211.25
 21
968.5
 31
0.0
  0
LINE
  5
14E
330
17
100
AcDbEntity
  8
SLOT
100
AcDbLine
 10
268.25
 20
980.0
 30
0.0
 11
273.5
 21
979.5
 31
0.0
  0
LINE
  5
14F
330
17
100
AcDbEntity
  8
CREASE
100
AcDbLine
 10
62.75
 20
964.0
 30
0.0
 11
74.25
 21
968.5
 31
0.0
  0
LINE
  5
150
330
17
100
AcDbEntity
  8
CREASE
100
AcDbLine
 10
67.0
 20
784.75
 30
0.0
 11
74.5
 21
784.5
 31
0.0
  0
LINE
  5
151
330
17
100
AcDbEntity
  8
CREASE
100
AcDbLine
 10
194.75
 20
763.75
 30
0.0
 11
195.25
 21
771.5
 31
0.0
  0
LINE
  5
152
330
17
100
AcDbEntity
  8
CREASE
100
AcDbLine
 10
162.0
 20
877.25
 30
0.0
 11
171.0
 21
880.5
 31
0.0
  0
LINE
  5
153
330
17
100
AcDbEntity
  8
CREASE
100
AcDbLine
 10
124.25
 20
925.0
 30
0.0
 11
135.5
 21
924.5
 31
0.0
  0
LINE
  5
154
330
17
100
AcDbEntity
  8
FOLD
100
AcDbLine
 10
258.25
 20
995.25
 30
0.0
 11
271.5
 21
997.75
 31
0.0
  0
LINE
  5
155
330
17
100
AcDbEntity
  8
SLOT
100
AcDbLine
 10
62.0
 20
784.75
 30
0.0
 11
69.0
 21
784.5
 31
0.0
  0
LINE
  5
156
330
17
100
AcDbEntity
  8
BRIDGE
100
AcDbLine
 10
215.5
 20
848.25
 30
0.0
 11
219.0
 21
855.0
 31
0.0
  0
LINE
  5
157
330
17
100
AcDbEntity
  8
CREASE
100
AcDbLine
 10
358.75
 20
853.25
 30
0.0
 11
372.75
 21
855.0
 31
0.0
  0
LINE
  5
158
330
17
100
AcDbEntity
  8
CREASE
100
AcDbLine
 10
42.25
 20
852.25
 30
0.0
 11
53.25
 21
849.5
 31
0.0
  0
LINE
  5
159
330
17
100
AcDbEntity
  8
CREASE
100
AcDbLine
 10
148.5
 20
968.0
 30
0.0
 11
154.25
 21
973.75
 31
0.0
  0
LINE
  5
15A
330
17
100
AcDbEntity
  8
FOLD
100
AcDbLine
 10
0.25
 20
788.0
 30
0.0
 11
0.25
 21
794.0
 31
0.0
  0
LINE
  5
15B
330
17
100
AcDbEntity
  8
CREASE
100
AcDbLine
 10
228.5
 20
962.5
 30
0.0
 11
235.25
 21
962.75
 31
0.0
  0
LINE
  5
15C
330
17
100
AcDbEntity
  8
CREASE
100
AcDbLine
 10
105.0
 20
802.0
 30
0.0
 11
117.5
 21
790.5
 31
0.0
  0
LINE
  5
15D
330
17
100
AcDbEntity
  8
CREASE
100
AcDbLine
 10
317.0
 20
976.75
 30
0.0
 11
344.0
 21
996.25
 31
0.0
  0
LINE
  5
15E
330
17
100
AcDbEntity
  8
CREASE
100
AcDbLine
 10
81.5
 20
764.5
 30
0.0
 11
87.5
 21
770.5
 31
0.0
  0
LINE
  5
15F
330
17
100
AcDbEntity
  8
CREASE
100
AcDbLine
 10
267.25
 20
895.0
 30
0.0
 11
280.0
 21
894.0
 31
0.0
  0
LINE
  5
160
330
17
100
AcDbEntity
  8
FOLD
100
AcDbLine
 10
232.25
 20
991.5
 30
0.0
 11
242.75
 21
992.0
 31
0.0
  0
LINE
  5
161
330
17
100
AcDbEntity
  8
CREASE
100
AcDbLine
 10
58.25
 20
779.5
 30
0.0
 11
67.5
 21
779.5
 31
0.0
  0
LINE
  5
162
330
17
100
AcDbEntity
  8
CREASE
100
AcDbLine
 10
141.0
 20
993.5
 30
0.0
 11
157.25
 21
985.75
 31
0.0
  0
LINE
  5
163
330
17
100
AcDbEntity
  8
CUT
100
AcDbLine
 10
54.25
 20
780.5
 30
0.0
 11
63.75
 21
780.0
 31
0.0
  0
LINE
  5
164
330
17
100
AcDbEntity
  8
CUT
100
AcDbLine
 10
118.0
 20
781.25
 30
0.0
 11
134.75
 21
769.5
 31
0.0
  0
LINE
  5
165
330
17
100
AcDbEntity
  8
CREASE
100
AcDbLine
 10
23.25
 20
918.75
 30
0.0
 11
29.0
 21
924.5
 31
0.0
  0
LINE
  5
166
330
17
100
AcDbEntity
  8
CUT
100
AcDbLine
 10
247.0
 20
953.5
 30
0.0
 11
248.25
 21
961.0
 31
0.0
  0
LINE
  5
167
330
17
100
AcDbEntity
  8
FOLD
100
AcDbLine
 10
164.5
 20
978.5
 30
0.0
 11
168.25
 21
999.0
 31
0.0
  0
LINE
  5
168
330
17
100
AcDbEntity
  8
CREASE
100
AcDbLine
 10
255.75
 20
987.25
 30
0.0
 11
258.75
 21
996.0
 31
0.0
  0
LINE
  5
169
330
17
100
AcDbEntity
  8
CREASE
100
AcDbLine
 10
196.75
 20
756.25
 30
0.0
 11
203.25
 21
755.5
 31
0.0
  0
LINE
  5
16A
330
17
100
AcDbEntity
  8
CREASE
100
AcDbLine
 10
180.5
 20
880.25
 30
0.0
 11
190.0
 21
882.5
 31
0.0
  0
LINE
  5
16B
330
17
100
AcDbEntity
  8
CREASE
100
AcDbLine
 10
169.25
 20
960.75
 30
0.0
 11
174.25
 21
959.5
 31
0.0
  0
LINE
  5
16C
330
17
100
AcDbEntity
  8
FOLD
100
AcDbLine
 10
117.25
 20
859.5
 30
0.0
 11
118.25
 21
869.5
 31
0.0
  0
LINE
  5
16D
330
17
100
AcDbEntity
  8
CREASE
100
AcDbLine
 10
269.5
 20
850.5
 30
0.0
 11
277.0
 21
851.0
 31
0.0
  0
LINE
  5
16E
330
17
100
AcDbEntity
  8
SLOT
100
AcDbLine
 10
152.0
 20
987.0
 30
0.0
 11
157.25
 21
986.5
 31
0.0
  0
LINE
  5
16F
330
17
100
AcDbEntity
  8
SLOT
100
AcDbLine
 10
247.0
 20
953.75
 30
0.0
 11
248.0
 21
960.0
 31
0.0
  0
LINE
  5
170
330
17
100
AcDbEntity
  8
CREASE
100
AcDbLine
 10
224.25
 20
807.75
 30
0.0
 11
229.5
 21
806.5
 31
0.0
  0
LINE
  5
171
330
17
100
AcDbEntity
  8
CREASE
100
AcDbLine
 10
155.25
 20
748.25
 30
0.0
 11
163.75
 21
747.5
 31
0.0
  0
LINE
  5
172
330
17
100
AcDbEntity
  8
CREASE
100
AcDbLine
 10
39.25
 20
721.25
 30
0.0
 11
58.0
 21
738.25
 31
0.0
  0
LINE
  5
173
330
17
100
AcDbEntity
  8
CREASE
100
AcDbLine
 10
92.5
 20
945.5
 30
0.0
 11
107.5
 21
944.5
 31
0.0
  0
LINE
  5
174
330
17
100
AcDbEntity
  8
FOLD
100
AcDbLine
 10
252.0
 20
745.25
 30
0.0
 11
264.0
 21
745.0
 31
0.0
  0
LINE
  5
175
330
17
100
AcDbEntity
  8
CREASE
100
AcDbLine
 10
78.75
 20
770.0
 30
0.0
 11
79.5
 21
776.0
 31
0.0
  0
LINE
  5
176
330
17
100
AcDbEntity
  8
CREASE
100
AcDbLine
 10
225.75
 20
920.0
 30
0.0
 11
225.75
 21
933.75
 31
0.0
  0
LINE
  5
177
330
17
100
AcDbEntity
  8
CUT
100
AcDbLine
 10
197.0
 20
885.5
 30
0.0
 11
197.75
 21
898.5
 31
0.0
  0
LINE
  5
178
330
17
100
AcDbEntity
  8
CREASE
100
AcDbLine
 10
166.75
 20
868.0
 30
0.0
 11
174.25
 21
875.0
 31
0.0
  0
LINE
  5
179
330
17
100
AcDbEntity
  8
CREASE
100
AcDbLine
 10
132.25
 20
868.0
 30
0.0
 11
140.75
 21
871.0
 31
0.0
  0
LINE
  5
17A
330
17
100
AcDbEntity
  8
SLOT
100
AcDbLine
 10
60.5
 20
771.5
 30
0.0
 11
66.25
 21
771.5
 31
0.0
  0
LINE
  5
17B
330
17
100
AcDbEntity
  8
CREASE
100
AcDbLine
 10
114.25
 20
923.0
 30
0.0
 11
115.5
 21
934.75
 31
0.0
  0
LINE
  5
17C
330
17
100
AcDbEntity
  8
FOLD
100
AcDbLine
 10
42.25
 20
742.25
 30
0.0
 11
51.25
 21
742.25
 31
0.0
  0
LINE
  5
17D
330
17
100
AcDbEntity
  8
CREASE
100
AcDbLine
 10
125.25
 20
904.25
 30
0.0
 11
125.5
 21
896.0
 31
0.0
  0
LINE
  5
17E
330
17
100
AcDbEntity
  8
SLOT
100
AcDbLine
 10
163.5
 20
967.5
 30
0.0
 11
168.5
 21
969.0
 31
0.0
  0
LINE
  5
17F
330
17
100
AcDbEntity
  8
FOLD
100
AcDbLine
 10
104.25
 20
826.0
 30
0.0
 11
105.5
 21
833.25
 31
0.0
  0
LINE
  5
180
330
17
100
AcDbEntity
  8
FOLD
100
AcDbLine
 10
193.25
 20
767.5
 30
0.0
 11
194.0
 21
773.25
 31
0.0
  0
LINE
  5
181
330
17
100
AcDbEntity
  8
FOLD
100
AcDbLine
 10
113.5
 20
922.0
 30
0.0
 11
115.0
 21
944.5
 31
0.0
  0
LINE
  5
182
330
17
100
AcDbEntity
  8
CREASE
100
AcDbLine
 10
210.0
 20
720.75
 30
0.0
 11
210.75
 21
726.0
 31
0.0
  0
LINE
  5
183
330
17
100
AcDbEntity
  8
FOLD
100
AcDbLine
 10
47.25
 20
788.0
 30
0.0
 11
60.25
 21
788.0
 31
0.0
  0
LINE
  5
184
330
17
100
AcDbEntity
  8
CREASE
100
AcDbLine
 10
184.75
 20
746.75
 30
0.0
 11
186.5
 21
739.25
 31
0.0
  0
LINE
  5
185
330
17
100
AcDbEntity
  8
CREASE
100
AcDbLine
 10
118.5
 20
890.25
 30
0.0
 11
125.75
 21
890.25
 31
0.0
  0
LINE
  5
186
330
17
100
AcDbEntity
  8
CREASE
100
AcDbLine
 10
227.25
 20
815.25
 30
0.0
 11
232.25
 21
796.75
 31
0.0
  0
LINE
  5
187
330
17
100
AcDbEntity
  8
CREASE
100
AcDbLine
 10
126.5
 20
883.25
 30
0.0
 11
136.25
 21
880.25
 31
0.0
  0
LINE
  5
188
330
17
100
AcDbEntity
  8
CREASE
100
AcDbLine
 10
296.0
 20
838.25
 30
0.0
 11
302.25
 21
838.0
 31
0.0
  0
LINE
  5
189
330
17
100
AcDbEntity
  8
SLOT
100
AcDbLine
 10
350.75
 20
773.25
 30
0.0
 11
355.75
 21
773.5
 31
0.0
  0
LINE
  5
18A
330
17
100
AcDbEntity
  8
CREASE
100
AcDbLine
 10
172.75
 20
872.0
 30
0.0
 11
179.0
 21
878.0
 31
0.0
  0
LINE
  5
18B
330
17
100
AcDbEntity
  8
CREASE
100
AcDbLine
 10
11.5
 20
886.25
 30
0.0
 11
21.0
 21
874.25
 31
0.0
  0
LINE
  5
18C
330
17
100
AcDbEntity
  8
FOLD
100
AcDbLine
 10
316.25
 20
747.75
 30
0.0
 11
323.5
 21
747.75
 31
0.0
  0
LINE
  5
18D
330
17
100
AcDbEntity
  8
FOLD
100
AcDbLine
 10
121.5
 20
792.5
 30
0.0
 11
151.25
 21
775.5
 31
0.0
  0
LINE
  5
18E
330
17
100
AcDbEntity
  8
CREASE
100
AcDbLine
 10
225.5
 20
789.5
 30
0.0
 11
225.5
 21
800.25
 31
0.0
  0
LINE
  5
18F
330
17
100
AcDbEntity
  8
FOLD
100
AcDbLine
 10
223.75
 20
796.0
 30
0.0
 11
224.75
 21
813.75
 31
0.0
  0
LINE
  5
190
330
17
100
AcDbEntity
  8
FOLD
100
AcDbLine
 10
183.5
 20
994.75
 30
0.0
 11
198.75
 21
980.25
 31
0.0
  0
LINE
  5
191
330
17
100
AcDbEntity
  8
CREASE
100
AcDbLine
 10
156.25
 20
878.25
 30
0.0
 11
161.25
 21
877.75
 31
0.0
  0
LINE
  5
192
330
17
100
AcDbEntity
  8
CREASE
100
AcDbLine
 10
264.5
 20
995.5
 30
0.0
 11
271.5
 21
996.75
 31
0.0
  0
LINE
  5
193
330
17
100
AcDbEntity
  8
SLOT
100
AcDbLine
 10
124.25
 20
910.5
 30
0.0
 11
124.75
 21
904.25
 31
0.0
  0
LINE
  5
194
330
17
100
AcDbEntity
  8
CREASE
100
AcDbLine
 10
1.25
 20
962.25
 30
0.0
 11
1.25
 21
954.75
 31
0.0
  0
LINE
  5
195
330
17
100
AcDbEntity
  8
CREASE
100
AcDbLine
 10
256.75
 20
842.5
 30
0.0
 11
266.75
 21
841.75
 31
0.0
  0
LINE
  5
196
330
17
100
AcDbEntity
  8
CREASE
100
AcDbLine
 10
95.75
 20
839.75
 30
0.0
 11
107.75
 21
836.75
 31
0.0
  0
LINE
  5
197
330
17
100
AcDbEntity
  8
CREASE
100
AcDbLine
 10
137.0
 20
871.25
 30
0.0
 11
142.25
 21
872.5
 31
0.0
  0
LINE
  5
198
330
17
100
AcDbEntity
  8
CREASE
100
AcDbLine
 10
80.75
 20
776.25
 30
0.0
 11
81.0
 21
781.5
 31
0.0
  0
LINE
  5
199
330
17
100
AcDbEntity
  8
CREASE
100
AcDbLine
 10
82.25
 20
798.0
 30
0.0
 11
83.0
 21
807.25
 31
0.0
  0
LINE
  5
19A
330
17
100
AcDbEntity
  8
FOLD
100
AcDbLine
 10
204.0
 20
802.75
 30
0.0
 11
208.75
 21
810.0
 31
0.0
  0
LINE
  5
19B
330
17
100
AcDbEntity
  8
CREASE
100
AcDbLine
 10
202.0
 20
883.0
 30
0.0
 11
202.25
 21
890.0
 31
0.0
  0
LINE
  5
19C
330
17
100
AcDbEntity
  8
CREASE
100
AcDbLine
 10
118.25
 20
857.75
 30
0.0
 11
118.75
 21
869.5
 31
0.0
  0
LINE
  5
19D
330
17
100
AcDbEntity
  8
FOLD
100
AcDbLine
 10
8.0
 20
787.5
 30
0.0
 11
16.0
 21
787.5
 31
0.0
  0
LINE
  5
19E
330
17
100
AcDbEntity
  8
CREASE
100
AcDbLine
 10
52.25
 20
823.0
 30
0.0
 11
59.0
 21
822.75
 31
0.0
  0
LINE
  5
19F
330
17
100
AcDbEntity
  8
CREASE
100
AcDbLine
 10
179.75
 20
999.5
 30
0.0
 11
190.25
 21
990.75
 31
0.0
  0
LINE
  5
1A0
330
17
100
AcDbEntity
  8
SLOT
100
AcDbLine
 10
202.5
 20
822.75
 30
0.0
 11
204.75
 21
828.75
 31
0.0
  0
LINE
  5
1A1
330
17
100
AcDbEntity
  8
CREASE
100
AcDbLine
 10
53.25
 20
854.25
 30
0.0
 11
53.5
 21
859.5
 31
0.0
  0
LINE
  5
1A2
330
17
100
AcDbEntity
  8
CREASE
100
AcDbLine
 10
266.75
 20
854.75
 30
0.0
 11
274.0
 21
848.75
 31
0.0
  0
LINE
  5
1A3
330
17
100
AcDbEntity
  8
CREASE
100
AcDbLine
 10
264.25
 20
855.75
 30
0.0
 11
274.0
 21
855.5
 31
0.0
  0
LINE
  5
1A4
330
17
100
AcDbEntity
  8
FOLD
100
AcDbLine
 10
140.25
 20
992.25
 30
0.0
 11
156.25
 21
985.0
 31
0.0
  0
LINE
  5
1A5
330
17
100
AcDbEntity
  8
CREASE
100
AcDbLine
 10
205.75
 20
803.25
 30
0.0
 11
212.0
 21
814.0
 31
0.0
  0
LINE
  5
1A6
330
17
100
AcDbEntity
  8
FOLD
100
AcDbLine
 10
243.75
 20
991.25
 30
0.0
 11
253.0
 21
994.25
 31
0.0
  0
LINE
  5
1A7
330
17
100
AcDbEntity
  8
CREASE
100
AcDbLine
 10
52.25
 20
838.25
 30
0.0
 11
52.75
 21
850.75
 31
0.0
  0
LINE
  5
1A8
330
17
100
AcDbEntity
  8
CREASE
100
AcDbLine
 10
128.25
 20
967.5
 30
0.0
 11
136.0
 21
967.5
 31
0.0
  0
LINE
  5
1A9
330
17
100
AcDbEntity
  8
CUT
100
AcDbLine
 10
295.75
 20
962.0
 30
0.0
 11
305.0
 21
971.0
 31
0.0
  0
LINE
  5
1AA
330
17
100
AcDbEntity
  8
BRIDGE
100
AcDbLine
 10
6.0
 20
785.0
 30
0.0
 11
15.25
 21
785.0
 31
0.0
  0
LINE
  5
1AB
330
17
100
AcDbEntity
  8
CREASE
100
AcDbLine
 10
112.75
 20
922.5
 30
0.0
 11
119.75
 21
918.75
 31
0.0
  0
LINE
  5
1AC
330
17
100
AcDbEntity
  8
CREASE
100
AcDbLine
 10
146.0
 20
951.75
 30
0.0
 11
152.5
 21
952.5
 31
0.0
  0
LINE
  5
1AD
330
17
100
AcDbEntity
  8
CREASE
100
AcDbLine
 10
127.25
 20
767.0
 30
0.0
 11
135.0
 21
762.25
 31
0.0
  0
LINE
  5
1AE
330
17
100
AcDbEntity
  8
CREASE
100
AcDbLine
 10
6.5
 20
998.75
 30
0.0
 11
15.75
 21
997.5
 31
0.0
  0
LINE
  5
1AF
330
17
100
AcDbEntity
  8
CREASE
100
AcDbLine
 10
139.5
 20
782.75
 30
0.0
 11
151.75
 21
776.0
 31
0.0
  0
LINE
  5
1B0
330
17
100
AcDbEntity
  8
CREASE
100
AcDbLine
 10
62.25
 20
774.75
 30
0.0
 11
70.25
 21
774.75
 31
0.0
  0
LINE
  5
1B1
330
17
100
AcDbEntity
  8
FOLD
100
AcDbLine
 10
344.25
 20
769.0
 30
0.0
 11
354.5
 21
769.25
 31
0.0
  0
LINE
  5
1B2
330
17
100
AcDbEntity
  8
CREASE
100
AcDbLine
 10
120.25
 20
946.0
 30
0.0
 11
126.0
 21
946.75
 31
0.0
  0
LINE
  5
1B3
330
17
100
AcDbEntity
  8
CREASE
100
AcDbLine
 10
135.0
 20
882.25
 30
0.0
 11
159.0
 21
880.0
 31
0.0
  0
LINE
  5
1B4
330
17
100
AcDbEntity
  8
CREASE
100
AcDbLine
 10
113.25
 20
968.0
 30
0.0
 11
125.75
 21
955.75
 31
0.0
  0
LINE
  5
1B5
330
17
100
AcDbEntity
  8
CREASE
100
AcDbLine
 10
308.0
 20
812.75
 30
0.0
 11
308.5
 21
820.25
 31
0.0
  0
LINE
  5
1B6
330
17
100
AcDbEntity
  8
SLOT
100
AcDbLine
 10
22.75
 20
929.0
 30
0.0
 11
29.25
 21
927.0
 31
0.0
  0
LINE
  5
1B7
330
17
100
AcDbEntity
  8
CREASE
100
AcDbLine
 10
265.25
 20
986.75
 30
0.0
 11
270.25
 21
987.25
 31
0.0
  0
LINE
  5
1B8
330
17
100
AcDbEntity
  8
CREASE
100
AcDbLine
 10
192.0
 20
744.0
 30
0.0
 11
194.0
 21
751.25
 31
0.0
  0
LINE
  5
1B9
330
17
100
AcDbEntity
  8
CUT
100
AcDbLine
 10
98.5
 20
789.5
 30
0.0
 11
104.5
 21
799.0
 31
0.0
  0
LINE
  5
1BA
330
17
100
AcDbEntity
  8
CREASE
100
AcDbLine
 10
127.75
 20
967.75
 30
0.0
 11
134.25
 21
968.0
 31
0.0
  0
LINE
  5
1BB
330
17
100
AcDbEntity
  8
CREASE
100
AcDbLine
 10
121.0
 20
945.75
 30
0.0
 11
130.25
 21
947.25
 31
0.0
  0
LINE
  5
1BC
330
17
100
AcDbEntity
  8
CREASE
100
AcDbLine
 10
15.0
 20
937.0
 30
0.0
 11
28.75
 21
930.75
 31
0.0
  0
LINE
  5
1BD
330
17
100
AcDbEntity
  8
CUT
100
AcDbLine
 10
89.0
 20
899.5
 30
0.0
 11
90.75
 21
919.5
 31
0.0
  0
LINE
  5
1BE
330
17
100
AcDbEntity
  8
CREASE
100
AcDbLine
 10
96.0
 20
945.0
 30
0.0
 11
104.0
 21
945.75
 31
0.0
  0
LINE
  5
1BF
330
17
100
AcDbEntity
  8
CREASE
100
AcDbLine
 10
175.0
 20
892.0
 30
0.0
 11
182.5
 21
892.0
 31
0.0
  0
LINE
  5
1C0
330
17
100
AcDbEntity
  8
BRIDGE
100
AcDbLine
 10
70.5
 20
774.5
 30
0.0
 11
80.5
 21
774.5
 31
0.0
  0
LINE
  5
1C1
330
17
100
AcDbEntity
  8
BRIDGE
100
AcDbLine
 10
291.5
 20
970.25
 30
0.0
 11
297.5
 21
971.0
 31
0.0
  0
LINE
  5
1C2
330
17
100
AcDbEntity
  8
CREASE
100
AcDbLine
 10
294.75
 20
840.5
 30
0.0
 11
301.75
 21
833.5
 31
0.0
  0
LINE
  5
1C3
330
17
100
AcDbEntity
  8
CREASE
100
AcDbLine
 10
270.5
 20
958.0
 30
0.0
 11
275.75
 21
957.0
 31
0.0
  0
LINE
  5
1C4
330
17
100
AcDbEntity
  8
CREASE
100
AcDbLine
 10
186.75
 20
736.25
 30
0.0
 11
191.25
 21
722.0
 31
0.0
  0
LINE
  5
1C5
330
17
100
AcDbEntity
  8
CREASE
100
AcDbLine
 10
260.75
 20
988.25
 30
0.0
 11
269.5
 21
988.75
 31
0.0
  0
LINE
  5
1C6
330
17
100
AcDbEntity
  8
CREASE
100
AcDbLine
 10
168.0
 20
976.0
 30
0.0
 11
173.0
 21
975.25
 31
0.0
  0
LINE
  5
1C7
330
17
100
AcDbEntity
  8
CREASE
100
AcDbLine
 10
0.25
 20
837.5
 30
0.0
 11
11.25
 21
841.5
 31
0.0
  0
LINE
  5
1C8
330
17
100
AcDbEntity
  8
SLOT
100
AcDbLine
 10
144.5
 20
879.75
 30
0.0
 11
151.0
 21
879.0
 31
0.0
  0
LINE
  5
1C9
330
17
100
AcDbEntity
  8
CREASE
100
AcDbLine
 10
198.0
 20
953.5
 30
0.0
 11
206.25
 21
951.25
 31
0.0
  0
LINE
  5
1CA
330
17
100
AcDbEntity
  8
SLOT
100
AcDbLine
 10
41.75
 20
775.5
 30
0.0
 11
48.5
 21
775.75
 31
0.0
  0
LINE
  5
1CB
330
17
100
AcDbEntity
  8
CUT
100
AcDbLine
 10
265.5
 20
814.5
 30
0.0
 11
266.0
 21
827.75
 31
0.0
  0
LINE
  5
1CC
330
17
100
AcDbEntity
  8
SLOT
100
AcDbLine
 10
19.25
 20
833.5
 30
0.0
 11
25.0
 21
833.0
 31
0.0
  0
LINE
  5
1CD
330
17
100
AcDbEntity
  8
FOLD
100
AcDbLine
 10
36.75
 20
771.0
 30
0.0
 11
49.75
 21
770.5
 31
0.0
  0
LINE
  5
1CE
330
17
100
AcDbEntity
  8
BRIDGE
100
AcDbLine
 10
195.5
 20
865.75
 30
0.0
 11
201.0
 21
872.5
 31
0.0
  0
LINE
  5
1CF
330
17
100
AcDbEntity
  8
SLOT
100
AcDbLine
 10
43.75
 20
975.0
 30
0.0
 11
49.25
 21
975.0
 31
0.0
  0
LINE
  5
1D0
330
17
100
AcDbEntity
  8
CREASE
100
AcDbLine
 10
169.75
 20
869.5
 30
0.0
 11
178.0
 21
877.25
 31
0.0
  0
LINE
  5
1D1
330
17
100
AcDbEntity
  8
FOLD
100
AcDbLine
 10
307.5
 20
818.5
 30
0.0
 11
308.0
 21
828.25
 31
0.0
  0
LINE
  5
1D2
330
17
100
AcDbEntity
  8
CREASE
100
AcDbLine
 10
249.75
 20
737.5
 30
0.0
 11
255.25
 21
724.5
 31
0.0
  0
LINE
  5
1D3
330
17
100
AcDbEntity
  8
CREASE
100
AcDbLine
 10
1.0
 20
808.5
 30
0.0
 11
1.0
 21
819.75
 31
0.0
  0
LINE
  5
1D4
330
17
100
AcDbEntity
  8
SLOT
100
AcDbLine
 10
358.75
 20
765.75
 30
0.0
 11
364.5
 21
765.75
 31
0.0
  0
LINE
  5
1D5
330
17
100
AcDbEntity
  8
CREASE
100
AcDbLine
 10
247.75
 20
985.25
 30
0.0
 11
255.25
 21
986.0
 31
0.0
  0
LINE
  5
1D6
330
17
100
AcDbEntity
  8
FOLD
100
AcDbLine
 10
176.75
 20
772.5
 30
0.0
 11
182.5
 21
778.25
 31
0.0
  0
LINE
  5
1D7
330
17
100
AcDbEntity
  8
CREASE
100
AcDbLine
 10
289.25
 20
839.25
 30
0.0
 11
296.0
 21
839.5
 31
0.0
  0
LINE
  5
1D8
330
17
100
AcDbEntity
  8
CUT
100
AcDbLine
 10
45.75
 20
728.5
 30
0.0
 11
53.5
 21
735.75
 31
0.0
  0
LINE
  5
1D9
330
17
100
AcDbEntity
  8
SLOT
100
AcDbLine
 10
357.5
 20
773.75
 30
0.0
 11
364.0
 21
773.75
 31
0.0
  0
LINE
  5
1DA
330
17
100
AcDbEntity
  8
CREASE
100
AcDbLine
 10
189.75
 20
781.25
 30
0.0
 11
195.75
 21
790.5
 31
0.0
  0
LINE
  5
1DB
330
17
100
AcDbEntity
  8
CREASE
100
AcDbLine
 10
111.5
 20
981.0
 30
0.0
 11
113.0
 21
971.5
 31
0.0
  0
LINE
  5
1DC
330
17
100
AcDbEntity
  8
CUT
100
AcDbLine
 10
256.0
 20
835.75
 30
0.0
 11
266.75
 21
825.0
 31
0.0
  0
LINE
  5
1DD
330
17
100
AcDbEntity
  8
CREASE
100
AcDbLine
 10
44.5
 20
956.75
 30
0.0
 11
56.25
 21
961.5
 31
0.0
  0
LINE
  5
1DE
330
17
100
AcDbEntity
  8
SLOT
100
AcDbLine
 10
148.5
 20
970.25
 30
0.0
 11
150.5
 21
977.0
 31
0.0
  0
LINE
  5
1DF
330
17
100
AcDbEntity
  8
FOLD
100
AcDbLine
 10
87.5
 20
772.25
 30
0.0
 11
93.25
 21
780.75
 31
0.0
  0
LINE
  5
1E0
330
17
100
AcDbEntity
  8
CUT
100
AcDbLine
 10
300.0
 20
830.5
 30
0.0
 11
301.0
 21
849.5
 31
0.0
  0
LINE
  5
1E1
330
17
100
AcDbEntity
  8
CREASE
100
AcDbLine
 10
43.5
 20
853.25
 30
0.0
 11
53.0
 21
850.5
 31
0.0
  0
LINE
  5
1E2
330
17
100
AcDbEntity
  8
CREASE
100
AcDbLine
 10
230.5
 20
876.5
 30
0.0
 11
237.75
 21
894.5
 31
0.0
  0
LINE
  5
1E3
330
17
100
AcDbEntity
  8
CREASE
100
AcDbLine
 10
186.25
 20
740.0
 30
0.0
 11
193.5
 21
748.5
 31
0.0
  0
LINE
  5
1E4
330
17
100
AcDbEntity
  8
CUT
100
AcDbLine
 10
243.25
 20
981.5
 30
0.0
 11
258.5
 21
992.75
 31
0.0
  0
LINE
  5
1E5
330
17
100
AcDbEntity
  8
CREASE
100
AcDbLine
 10
104.0
 20
819.75
 30
0.0
 11
106.25
 21
833.5
 31
0.0
  0
LINE
  5
1E6
330
17
100
AcDbEntity
  8
CUT
100
AcDbLine
 10
119.75
 20
794.25
 30
0.0
 11
139.5
 21
783.25
 31
0.0
  0
LINE
  5
1E7
330
17
100
AcDbEntity
  8
CREASE
100
AcDbLine
 10
181.75
 20
775.75
 30
0.0
 11
191.0
 21
784.75
 31
0.0
  0
LINE
  5
1E8
330
17
100
AcDbEntity
  8
SLOT
100
AcDbLine
 10
268.25
 20
990.0
 30
0.0
 11
270.0
 21
985.0
 31
0.0
  0
LINE
  5
1E9
330
17
100
AcDbEntity
  8
FOLD
100
AcDbLine
 10
197.0
 20
793.75
 30
0.0
 11
205.0
 21
804.0
 31
0.0
  0
LINE
  5
1EA
330
17
100
AcDbEntity
  8
SLOT
100
AcDbLine
 10
125.75
 20
912.0
 30
0.0
 11
127.25
 21
918.75
 31
0.0
  0
LINE
  5
1EB
330
17
100
AcDbEntity
  8
CREASE
100
AcDbLine
 10
167.75
 20
975.0
 30
0.0
 11
173.0
 21
975.0
 31
0.0
  0
LINE
  5
1EC
330
17
100
AcDbEntity
  8
CREASE
100
AcDbLine
 10
93.25
 20
999.25
 30
0.0
 11
102.75
 21
993.25
 31
0.0
  0
LINE
  5
1ED
330
17
100
AcDbEntity
  8
CREASE
100
AcDbLine
 10
49.75
 20
850.0
 30
0.0
 11
59.5
 21
850.25
 31
0.0
  0
LINE
  5
1EE
330
17
100
AcDbEntity
  8
CUT
100
AcDbLine
 10
115.5
 20
856.75
 30
0.0
 11
127.75
 21
867.75
 31
0.0
  0
LINE
  5
1EF
330
17
100
AcDbEntity
  8
CREASE
100
AcDbLine
 10
163.75
 20
973.75
 30
0.0
 11
172.5
 21
973.5
 31
0.0
  0
LINE
  5
1F0
330
17
100
AcDbEntity
  8
CREASE
100
AcDbLine
 10
132.5
 20
985.75
 30
0.0
 11
140.25
 21
984.0
 31
0.0
  0
LINE
  5
1F1
330
17
100
AcDbEntity
  8
CREASE
100
AcDbLine
 10
80.5
 20
733.0
 30
0.0
 11
83.25
 21
726.25
 31
0.0
  0
LINE
  5
1F2
330
17
100
AcDbEntity
  8
CREASE
100
AcDbLine
 10
190.75
 20
728.0
 30
0.0
 11
192.75
 21
720.5
 31
0.0
  0
LINE
  5
1F3
330
17
100
AcDbEntity
  8
CREASE
100
AcDbLine
 10
219.5
 20
946.75
 30
0.0
 11
225.0
 21
944.25
 31
0.0
  0
LINE
  5
1F4
330
17
100
AcDbEntity
  8
SLOT
100
AcDbLine
 10
54.25
 20
774.75
 30
0.0
 11
59.5
 21
780.0
 31
0.0
  0
LINE
  5
1F5
330
17
100
AcDbEntity
  8
CREASE
100
AcDbLine
 10
181.75
 20
974.0
 30
0.0
 11
188.0
 21
972.75
 31
0.0
  0
LINE
  5
1F6
330
17
100
AcDbEntity
  8
CREASE
100
AcDbLine
 10
61.0
 20
823.25
 30
0.0
 11
67.75
 21
822.75
 31
0.0
  0
LINE
  5
1F7
330
17
100
AcDbEntity
  8
CREASE
100
AcDbLine
 10
239.0
 20
793.0
 30
0.0
 11
246.75
 21
792.75
 31
0.0
  0
LINE
  5
1F8
330
17
100
AcDbEntity
  8
SLOT
100
AcDbLine
 10
169.25
 20
962.0
 30
0.0
 11
176.25
 21
960.0
 31
0.0
  0
LINE
  5
1F9
330
17
100
AcDbEntity
  8
CUT
100
AcDbLine
 10
99.75
 20
993.25
 30
0.0
 11
112.5
 21
988.25
 31
0.0
  0
LINE
  5
1FA
330
17
100
AcDbEntity
  8
CREASE
100
AcDbLine
 10
3.75
 20
900.75
 30
0.0
 11
17.25
 21
911.75
 31
0.0
  0
LINE
  5
1FB
330
17
100
AcDbEntity
  8
CREASE
100
AcDbLine
 10
352.0
 20
923.75
 30
0.0
 11
359.75
 21
923.5
 31
0.0
  0
LINE
  5
1FC
330
17
100
AcDbEntity
  8
CREASE
100
AcDbLine
 10
219.75
 20
844.25
 30
0.0
 11
227.75
 21
841.25
 31
0.0
  0
LINE
  5
1FD
330
17
100
AcDbEntity
  8
SLOT
100
AcDbLine
 10
52.75
 20
845.0
 30
0.0
 11
53.0
 21
850.75
 31
0.0
  0
LINE
  5
1FE
330
17
100
AcDbEntity
  8
FOLD
100
AcDbLine
 10
138.75
 20
924.25
 30
0.0
 11
151.5
 21
923.5
 31
0.0
  0
LINE
  5
1FF
330
17
100
AcDbEntity
  8
CREASE
100
AcDbLine
 10
132.0
 20
986.25
 30
0.0
 11
139.75
 21
982.0
 31
0.0
  0
LINE
  5
200
330
17
100
AcDbEntity
  8
CREASE
100
AcDbLine
 10
365.5
 20
923.0
 30
0.0
 11
371.0
 21
923.0
 31
0.0
  0
LINE
  5
201
330
17
100
AcDbEntity
  8
CREASE
100
AcDbLine
 10
241.75
 20
895.5
 30
0.0
 11
247.0
 21
895.75
 31
0.0
  0
LINE
  5
202
330
17
100
AcDbEntity
  8
CREASE
100
AcDbLine
 10
169.0
 20
961.0
 30
0.0
 11
188.5
 21
955.75
 31
0.0
  0
LINE
  5
203
330
17
100
AcDbEntity
  8
CREASE
100
AcDbLine
 10
226.0
 20
984.0
 30
0.0
 11
230.5
 21
990.75
 31
0.0
  0
LINE
  5
204
330
17
100
AcDbEntity
  8
CREASE
100
AcDbLine
 10
24.75
 20
845.25
 30
0.0
 11
29.75
 21
850.25
 31
0.0
  0
LINE
  5
205
330
17
100
AcDbEntity
  8
CREASE
100
AcDbLine
 10
116.75
 20
773.5
 30
0.0
 11
128.5
 21
765.0
 31
0.0
  0
LINE
  5
206
330
17
100
AcDbEntity
  8
FOLD
100
AcDbLine
 10
250.75
 20
974.0
 30
0.0
 11
252.5
 21
980.0
 31
0.0
  0
LINE
  5
207
330
17
100
AcDbEntity
  8
CREASE
100
AcDbLine
 10
250.25
 20
740.5
 30
0.0
 11
254.5
 21
729.0
 31
0.0
  0
LINE
  5
208
330
17
100
AcDbEntity
  8
CREASE
100
AcDbLine
 10
157.25
 20
858.5
 30
0.0
 11
162.0
 21
863.5
 31
0.0
  0
LINE
  5
209
330
17
100
AcDbEntity
  8
CREASE
100
AcDbLine
 10
59.75
 20
771.75
 30
0.0
 11
68.5
 21
771.75
 31
0.0
  0
LINE
  5
20A
330
17
100
AcDbEntity
  8
CREASE
100
AcDbLine
 10
22.0
 20
927.5
 30
0.0
 11
28.75
 21
929.5
 31
0.0
  0
LINE
  5
20B
330
17
100
AcDbEntity
  8
SLOT
100
AcDbLine
 10
2.75
 20
859.0
 30
0.0
 11
2.75
 21
852.25
 31
0.0
  0
LINE
  5
20C
330
17
100
AcDbEntity
  8
CREASE
100
AcDbLine
 10
335.0
 20
747.25
 30
0.0
 11
342.0
 21
747.25
 31
0.0
  0
LINE
  5
20D
330
17
100
AcDbEntity
  8
CREASE
100
AcDbLine
 10
310.0
 20
862.75
 30
0.0
 11
312.25
 21
856.0
 31
0.0
  0
LINE
  5
20E
330
17
100
AcDbEntity
  8
CREASE
100
AcDbLine
 10
215.75
 20
758.75
 30
0.0
 11
216.25
 21
772.75
 31
0.0
  0
LINE
  5
20F
330
17
100
AcDbEntity
  8
CREASE
100
AcDbLine
 10
84.5
 20
887.0
 30
0.0
 11
90.75
 21
886.5
 31
0.0
  0
LINE
  5
210
330
17
100
AcDbEntity
  8
CREASE
100
AcDbLine
 10
262.5
 20
992.0
 30
0.0
 11
266.5
 21
984.25
 31
0.0
  0
LINE
  5
211
330
17
100
AcDbEntity
  8
CREASE
100
AcDbLine
 10
58.75
 20
963.0
 30
0.0
 11
63.75
 21
963.25
 31
0.0
  0
LINE
  5
212
330
17
100
AcDbEntity
  8
CREASE
100
AcDbLine
 10
80.0
 20
761.25
 30
0.0
 11
91.75
 21
776.25
 31
0.0
  0
LINE
  5
213
330
17
100
AcDbEntity
  8
CREASE
100
AcDbLine
 10
128.0
 20
991.25
 30
0.0
 11
134.0
 21
990.0
 31
0.0
  0
LINE
  5
214
330
17
100
AcDbEntity
  8
SLOT
100
AcDbLine
 10
262.75
 20
851.5
 30
0.0
 11
268.5
 21
851.5
 31
0.0
  0
LINE
  5
215
330
17
100
AcDbEntity
  8
CREASE
100
AcDbLine
 10
3.0
 20
834.5
 30
0.0
 11
11.75
 21
835.0
 31
0.0
  0
LINE
  5
216
330
17
100
AcDbEntity
  8
CUT
100
AcDbLine
 10
139.25
 20
871.75
 30
0.0
 11
153.0
 21
874.0
 31
0.0
  0
LINE
  5
217
330
17
100
AcDbEntity
  8
CREASE
100
AcDbLine
 10
3.5
 20
875.25
 30
0.0
 11
9.75
 21
881.5
 31
0.0
  0
LINE
  5
218
330
17
100
AcDbEntity
  8
CREASE
100
AcDbLine
 10
136.5
 20
767.0
 30
0.0
 11
148.75
 21
760.5
 31
0.0
  0
LINE
  5
219
330
17
100
AcDbEntity
  8
CREASE
100
AcDbLine
 10
218.25
 20
919.5
 30
0.0
 11
223.5
 21
914.25
 31
0.0
  0
LINE
  5
21A
330
17
100
AcDbEntity
  8
SLOT
100
AcDbLine
 10
72.25
 20
944.75
 30
0.0
 11
77.5
 21
945.75
 31
0.0
  0
LINE
  5
21B
330
17
100
AcDbEntity
  8
SLOT
100
AcDbLine
 10
134.0
 20
985.0
 30
0.0
 11
140.25
 21
983.75
 31
0.0
  0
LINE
  5
21C
330
17
100
AcDbEntity
  8
CREASE
100
AcDbLine
 10
107.25
 20
926.25
 30
0.0
 11
114.75
 21
922.5
 31
0.0
  0
LINE
  5
21D
330
17
100
AcDbEntity
  8
CREASE
100
AcDbLine
 10
137.75
 20
954.75
 30
0.0
 11
151.5
 21
970.5
 31
0.0
  0
LINE
  5
21E
330
17
100
AcDbEntity
  8
CREASE
100
AcDbLine
 10
172.5
 20
891.0
 30
0.0
 11
183.75
 21
891.0
 31
0.0
  0
LINE
  5
21F
330
17
100
AcDbEntity
  8
CREASE
100
AcDbLine
 10
171.5
 20
988.0
 30
0.0
 11
175.25
 21
999.5
 31
0.0
  0
LINE
  5
220
330
17
100
AcDbEntity
  8
CREASE
100
AcDbLine
 10
21.75
 20
927.25
 30
0.0
 11
26.75
 21
928.25
 31
0.0
  0
LINE
  5
221
330
17
100
AcDbEntity
  8
CREASE
100
AcDbLine
 10
52.5
 20
833.5
 30
0.0
 11
52.75
 21
838.5
 31
0.0
  0
LINE
  5
222
330
17
100
AcDbEntity
  8
SLOT
100
AcDbLine
 10
268.75
 20
979.5
 30
0.0
 11
273.75
 21
979.25
 31
0.0
  0
LINE
  5
223
330
17
100
AcDbEntity
  8
CREASE
100
AcDbLine
 10
11.5
 20
908.75
 30
0.0
 11
18.25
 21
915.5
 31
0.0
  0
LINE
  5
224
330
17
100
AcDbEntity
  8
CREASE
100
AcDbLine
 10
69.75
 20
953.0
 30
0.0
 11
75.25
 21
953.5
 31
0.0
  0
LINE
  5
225
330
17
100
AcDbEntity
  8
FOLD
100
AcDbLine
 10
120.0
 20
929.75
 30
0.0
 11
122.75
 21
937.5
 31
0.0
  0
LINE
  5
226
330
17
100
AcDbEntity
  8
CREASE
100
AcDbLine
 10
262.0
 20
858.0
 30
0.0
 11
273.0
 21
848.5
 31
0.0
  0
LINE
  5
227
330
17
100
AcDbEntity
  8
CREASE
100
AcDbLine
 10
334.5
 20
989.0
 30
0.0
 11
341.0
 21
993.75
 31
0.0
  0
LINE
  5
228
330
17
100
AcDbEntity
  8
CREASE
100
AcDbLine
 10
308.75
 20
825.0
 30
0.0
 11
316.75
 21
828.5
 31
0.0
  0
LINE
  5
229
330
17
100
AcDbEntity
  8
CREASE
100
AcDbLine
 10
120.5
 20
926.5
 30
0.0
 11
121.25
 21
933.0
 31
0.0
  0
LINE
  5
22A
330
17
100
AcDbEntity
  8
CREASE
100
AcDbLine
 10
24.5
 20
864.75
 30
0.0
 11
28.25
 21
856.0
 31
0.0
  0
LINE
  5
22B
330
17
100
AcDbEntity
  8
CREASE
100
AcDbLine
 10
204.25
 20
936.25
 30
0.0
 11
204.5
 21
943.0
 31
0.0
  0
LINE
  5
22C
330
17
100
AcDbEntity
  8
FOLD
100
AcDbLine
 10
81.5
 20
798.25
 30
0.0
 11
82.0
 21
804.25
 31
0.0
  0
LINE
  5
22D
330
17
100
AcDbEntity
  8
FOLD
100
AcDbLine
 10
52.25
 20
859.25
 30
0.0
 11
53.0
 21
867.75
 31
0.0
  0
LINE
  5
22E
330
17
100
AcDbEntity
  8
CREASE
100
AcDbLine
 10
129.75
 20
989.0
 30
0.0
 11
137.25
 21
984.5
 31
0.0
  0
LINE
  5
22F
330
17
100
AcDbEntity
  8
CREASE
100
AcDbLine
 10
151.25
 20
871.25
 30
0.0
 11
157.75
 21
875.25
 31
0.0
  0
LINE
  5
230
330
17
100
AcDbEntity
  8
CREASE
100
AcDbLine
 10
30.75
 20
787.0
 30
0.0
 11
36.0
 21
786.75
 31
0.0
  0
LINE
  5
231
330
17
100
AcDbEntity
  8
CREASE
100
AcDbLine
 10
78.5
 20
823.75
 30
0.0
 11
87.5
 21
823.25
 31
0.0
  0
LINE
  5
232
330
17
100
AcDbEntity
  8
FOLD
100
AcDbLine
 10
107.75
 20
791.25
 30
0.0
 11
116.5
 21
782.5
 31
0.0
  0
LINE
  5
233
330
17
100
AcDbEntity
  8
CREASE
100
AcDbLine
 10
120.0
 20
925.5
 30
0.0
 11
120.5
 21
930.5
 31
0.0
  0
LINE
  5
234
330
17
100
AcDbEntity
  8
CREASE
100
AcDbLine
 10
300.75
 20
803.0
 30
0.0
 11
301.0
 21
808.75
 31
0.0
  0
LINE
  5
235
330
17
100
AcDbEntity
  8
CREASE
100
AcDbLine
 10
110.75
 20
795.0
 30
0.0
 11
127.5
 21
780.75
 31
0.0
  0
LINE
  5
236
330
17
100
AcDbEntity
  8
SLOT
100
AcDbLine
 10
262.25
 20
852.5
 30
0.0
 11
268.5
 21
852.5
 31
0.0
  0
LINE
  5
237
330
17
100
AcDbEntity
  8
BRIDGE
100
AcDbLine
 10
260.75
 20
825.75
 30
0.0
 11
269.5
 21
822.5
 31
0.0
  0
LINE
  5
238
330
17
100
AcDbEntity
  8
SLOT
100
AcDbLine
 10
15.25
 20
833.25
 30
0.0
 11
21.25
 21
833.25
 31
0.0
  0
LINE
  5
239
330
17
100
AcDbEntity
  8
CREASE
100
AcDbLine
 10
186.75
 20
992.25
 30
0.0
 11
195.75
 21
982.75
 31
0.0
  0
LINE
  5
23A
330
17
100
AcDbEntity
  8
CREASE
100
AcDbLine
 10
71.0
 20
753.75
 30
0.0
 11
78.0
 21
760.75
 31
0.0
  0
LINE
  5
23B
330
17
100
AcDbEntity
  8
SLOT
100
AcDbLine
 10
294.25
 20
965.25
 30
0.0
 11
300.25
 21
969.0
 31
0.0
  0
LINE
  5
23C
330
17
100
AcDbEntity
  8
CREASE
100
AcDbLine
 10
39.0
 20
721.0
 30
0.0
 11
54.0
 21
734.5
 31
0.0
  0
LINE
  5
23D
330
17
100
AcDbEntity
  8
SLOT
100
AcDbLine
 10
18.75
 20
871.5
 30
0.0
 11
24.5
 21
866.75
 31
0.0
  0
LINE
  5
23E
330
17
100
AcDbEntity
  8
CREASE
100
AcDbLine
 10
251.25
 20
950.75
 30
0.0
 11
253.75
 21
959.25
 31
0.0
  0
LINE
  5
23F
330
17
100
AcDbEntity
  8
CREASE
100
AcDbLine
 10
20.75
 20
910.5
 30
0.0
 11
24.5
 21
918.25
 31
0.0
  0
LINE
  5
240
330
17
100
AcDbEntity
  8
CREASE
100
AcDbLine
 10
304.0
 20
747.75
 30
0.0
 11
312.25
 21
748.0
 31
0.0
  0
LINE
  5
241
330
17
100
AcDbEntity
  8
CREASE
100
AcDbLine
 10
11.25
 20
937.0
 30
0.0
 11
21.25
 21
932.75
 31
0.0
  0
LINE
  5
242
330
17
100
AcDbEntity
  8
CUT
100
AcDbLine
 10
268.75
 20
990.5
 30
0.0
 11
274.25
 21
977.75
 31
0.0
  0
LINE
  5
243
330
17
100
AcDbEntity
  8
SLOT
100
AcDbLine
 10
160.0
 20
877.25
 30
0.0
 11
165.5
 21
879.75
 31
0.0
  0
LINE
  5
244
330
17
100
AcDbEntity
  8
CREASE
100
AcDbLine
 10
282.0
 20
894.0
 30
0.0
 11
287.25
 21
893.75
 31
0.0
  0
LINE
  5
245
330
17
100
AcDbEntity
  8
CREASE
100
AcDbLine
 10
358.0
 20
907.75
 30
0.0
 11
370.5
 21
907.25
 31
0.0
  0
LINE
  5
246
330
17
100
AcDbEntity
  8
FOLD
100
AcDbLine
 10
192.5
 20
748.5
 30
0.0
 11
193.0
 21
757.5
 31
0.0
  0
LINE
  5
247
330
17
100
AcDbEntity
  8
CREASE
100
AcDbLine
 10
147.25
 20
871.75
 30
0.0
 11
152.5
 21
873.0
 31
0.0
  0
LINE
  5
248
330
17
100
AcDbEntity
  8
CREASE
100
AcDbLine
 10
15.0
 20
843.0
 30
0.0
 11
21.25
 21
845.25
 31
0.0
  0
LINE
  5
249
330
17
100
AcDbEntity
  8
CREASE
100
AcDbLine
 10
169.75
 20
747.0
 30
0.0
 11
181.75
 21
745.75
 31
0.0
  0
LINE
  5
24A
330
17
100
AcDbEntity
  8
CREASE
100
AcDbLine
 10
171.25
 20
880.5
 30
0.0
 11
178.0
 21
878.25
 31
0.0
  0
LINE
  5
24B
330
17
100
AcDbEntity
  8
CUT
100
AcDbLine
 10
358.25
 20
789.25
 30
0.0
 11
371.75
 21
789.0
 31
0.0
  0
LINE
  5
24C
330
17
100
AcDbEntity
  8
FOLD
100
AcDbLine
 10
288.5
 20
840.5
 30
0.0
 11
293.5
 21
840.75
 31
0.0
  0
LINE
  5
24D
330
17
100
AcDbEntity
  8
FOLD
100
AcDbLine
 10
165.75
 20
986.75
 30
0.0
 11
168.25
 21
999.5
 31
0.0
  0
LINE
  5
24E
330
17
100
AcDbEntity
  8
CREASE
100
AcDbLine
 10
180.25
 20
891.75
 30
0.0
 11
186.75
 21
891.75
 31
0.0
  0
LINE
  5
24F
330
17
100
AcDbEntity
  8
FOLD
100
AcDbLine
 10
269.0
 20
870.0
 30
0.0
 11
274.0
 21
870.5
 31
0.0
  0
LINE
  5
250
330
17
100
AcDbEntity
  8
SLOT
100
AcDbLine
 10
52.5
 20
824.0
 30
0.0
 11
59.25
 21
824.25
 31
0.0
  0
LINE
  5
251
330
17
100
AcDbEntity
  8
FOLD
100
AcDbLine
 10
1.25
 20
819.0
 30
0.0
 11
14.75
 21
823.75
 31
0.0
  0
LINE
  5
252
330
17
100
AcDbEntity
  8
SLOT
100
AcDbLine
 10
22.5
 20
928.5
 30
0.0
 11
28.75
 21
930.25
 31
0.0
  0
LINE
  5
253
330
17
100
AcDbEntity
  8
FOLD
100
AcDbLine
 10
255.5
 20
896.5
 30
0.0
 11
269.75
 21
895.75
 31
0.0
  0
LINE
  5
254
330
17
100
AcDbEntity
  8
FOLD
100
AcDbLine
 10
324.5
 20
989.5
 30
0.0
 11
335.75
 21
997.25
 31
0.0
  0
LINE
  5
255
330
17
100
AcDbEntity
  8
CREASE
100
AcDbLine
 10
107.25
 20
998.0
 30
0.0
 11
113.5
 21
996.0
 31
0.0
  0
LINE
  5
256
330
17
100
AcDbEntity
  8
CREASE
100
AcDbLine
 10
172.75
 20
963.75
 30
0.0
 11
182.75
 21
960.25
 31
0.0
  0
LINE
  5
257
330
17
100
AcDbEntity
  8
SLOT
100
AcDbLine
 10
52.25
 20
851.0
 30
0.0
 11
58.25
 21
850.5
 31
0.0
  0
LINE
  5
258
330
17
100
AcDbEntity
  8
CREASE
100
AcDbLine
 10
59.0
 20
907.25
 30
0.0
 11
65.0
 21
906.0
 31
0.0
  0
LINE
  5
259
330
17
100
AcDbEntity
  8
CUT
100
AcDbLine
 10
358.0
 20
770.5
 30
0.0
 11
369.75
 21
771.25
 31
0.0
  0
LINE
  5
25A
330
17
100
AcDbEntity
  8
CREASE
100
AcDbLine
 10
245.0
 20
983.25
 30
0.0
 11
251.5
 21
985.5
 31
0.0
  0
LINE
  5
25B
330
17
100
AcDbEntity
  8
CREASE
100
AcDbLine
 10
273.0
 20
989.0
 30
0.0
 11
278.75
 21
979.25
 31
0.0
  0
LINE
  5
25C
330
17
100
AcDbEntity
  8
CREASE
100
AcDbLine
 10
302.0
 20
834.75
 30
0.0
 11
302.75
 21
853.25
 31
0.0
  0
LINE
  5
25D
330
17
100
AcDbEntity
  8
CREASE
100
AcDbLine
 10
171.25
 20
986.25
 30
0.0
 11
173.75
 21
993.5
 31
0.0
  0
LINE
  5
25E
330
17
100
AcDbEntity
  8
CREASE
100
AcDbLine
 10
141.75
 20
991.5
 30
0.0
 11
147.0
 21
999.0
 31
0.0
  0
LINE
  5
25F
330
17
100
AcDbEntity
  8
BRIDGE
100
AcDbLine
 10
0.0
 20
783.75
 30
0.0
 11
7.75
 21
783.75
 31
0.0
  0
LINE
  5
260
330
17
100
AcDbEntity
  8
CREASE
100
AcDbLine
 10
192.75
 20
983.75
 30
0.0
 11
199.5
 21
978.25
 31
0.0
  0
LINE
  5
261
330
17
100
AcDbEntity
  8
CREASE
100
AcDbLine
 10
238.5
 20
894.75
 30
0.0
 11
243.5
 21
895.75
 31
0.0
  0
LINE
  5
262
330
17
100
AcDbEntity
  8
SLOT
100
AcDbLine
 10
225.75
 20
989.25
 30
0.0
 11
231.25
 21
990.0
 31
0.0
  0
LINE
  5
263
330
17
100
AcDbEntity
  8
SLOT
100
AcDbLine
 10
144.75
 20
882.5
 30
0.0
 11
151.0
 21
882.0
 31
0.0
  0
ENDSEC
  0
SECTION
  2
OBJECTS
  0
DICTIONARY
  5
A
330
0
100
AcDbDictionary
281
1
  3
ACAD_COLOR
350
B
  3
ACAD_GROUP
350
C
  3
ACAD_LAYOUT
350
D
  3
ACAD_MATERIAL
350
E
  3
ACAD_MLEADERSTYLE
350
F
  3
ACAD_MLINESTYLE
350
10
  3
ACAD_PLOTSETTINGS
350
11
  3
ACAD_PLOTSTYLENAME
350
12
  3
ACAD_SCALELIST
350
14
  3
ACAD_TABLESTYLE
350
15
  3
ACAD_VISUALSTYLE
350
16
  3
EZDXF_META
350
2D
  0
DICTIONARY
  5
B
330
A
100
AcDbDictionary
281
1
  0
DICTIONARY
  5
C
330
A
100
AcDbDictionary
281
1
  0
DICTIONARY
  5
D
330
A
100
AcDbDictionary
281
1
  3
Model
350
1A
  3
Layout1
350
1E
  0
DICTIONARY
  5
E
330
A
100
AcDbDictionary
281
1
  3
ByBlock
350
1F
  3
ByLayer
350
20
  3
Global
350
21
  0
DICTIONARY
  5
F
330
A
100
AcDbDictionary
281
1
  3
Standard
350
2C
  0
DICTIONARY
  5
10
330
A
100
AcDbDictionary
281
1
  3
Standard
350
22
  0
DICTIONARY
  5
11
330
A
100
AcDbDictionary
281
1
  0
ACDBDICTIONARYWDFLT
  5
12
330
A
100
AcDbDictionary
281
1
  3
Normal
350
13
100
AcDbDictionaryWithDefault
340
13
  0
ACDBPLACEHOLDER
  5
13
330
12
  0
DICTIONARY
  5
14
330
A
100
AcDbDictionary
281
1
  0
DICTIONARY
  5
15
330
A
100
AcDbDictionary
281
1
  0
DICTIONARY
  5
16
330
A
100
AcDbDictionary
281
1
  0
LAYOUT
  5
1A
330
D
100
AcDbPlotSettings
  1

  4
A3
  6

 40
7.5
 41
20.0
 42
7.5
 43
20.0
 44
420.0
 45
297.0
 46
0.0
 47
0.0
 48
0.0
 49
0.0
140
0.0
141
0.0
142
1.0
143
1.0
 70
1024
 72
1
 73
0
 74
5
  7

 75
16
 76
0
 77
2
 78
300
147
1.0
148
0.0
149
0.0
100
AcDbLayout
  1
Model
 70
1
 71
0
 10
0.0
 20
0.0
 11
420.0
 21
297.0
 12
0.0
 22
0.0
 32
0.0
 14
1e+20
 24
1e+20
 34
1e+20
 15
-1e+20
 25
-1e+20
 35
-1e+20
146
0.0
 13
0.0
 23
0.0
 33
0.0
 16
1.0
 26
0.0
 36
0.0
 17
0.0
 27
1.0
 37
0.0
 76
1
330
17
  0
LAYOUT
  5
1E
330
D
100
AcDbPlotSettings
  1

  4
A3
  6

 40
7.5
 41
20.0
 42
7.5
 43
20.0
 44
420.0
 45
297.0
 46
0.0
 47
0.0
 48
0.0
 49
0.0
140
0.0
141
0.0
142
1.0
143
1.0
 70
0
 72
1
 73
0
 74
5
  7

 75
16
 76
0
 77
2
 78
300
147
1.0
148
0.0
149
0.0
100
AcDbLayout
  1
Layout1
 70
1
 71
1
 10
0.0
 20
0.0
 11
420.0
 21
297.0
 12
0.0
 22
0.0
 32
0.0
 14
1e+20
 24
1e+20
 34
1e+20
 15
-1e+20
 25
-1e+20
 35
-1e+20
146
0.0
 13
0.0
 23
0.0
 33
0.0
 16
1.0
 26
0.0
 36
0.0
 17
0.0
 27
1.0
 37
0.0
 76
1
330
1B
  0
MATERIAL
  5
1F
102
{ACAD_REACTORS
330
E
102
}
330
E
100
AcDbMaterial
  1
ByBlock
  2

 70
0
 40
1.0
 71
1
 41
1.0
 91
-1023410177
 42
1.0
 72
1
  3

 73
1
 74
1
 75
1
 44
0.5
 73
0
 45
1.0
 46
1.0
 77
1
  4

 78
1
 79
1
170
1
 48
1.0
171
1
  6

172
1
173
1
174
1
140
1.0
141
1.0
175
1
  7

176
1
177
1
178
1
143
1.0
179
1
  8

270
1
271
1
272
1
145
1.0
146
1.0
273
1
  9

274
1
275
1
276
1
 42
1.0
 72
1
  3

 73
1
 74
1
 75
1
 94
63
  0
MATERIAL
  5
20
102
{ACAD_REACTORS
330
E
102
}
330
E
100
AcDbMaterial
  1
ByLayer
  2

 70
0
 40
1.0
 71
1
 41
1.0
 91
-1023410177
 42
1.0
 72
1
  3

 73
1
 74
1
 75
1
 44
0.5
 73
0
 45
1.0
 46
1.0
 77
1
  4

 78
1
 79
1
170
1
 48
1.0
171
1
  6

172
1
173
1
174
1
140
1.0
141
1.0
175
1
  7

176
1
177
1
178
1
143
1.0
179
1
  8

270
1
271
1
272
1
145
1.0
146
1.0
273
1
  9

274
1
275
1
276
1
 42
1.0
 72
1
  3

 73
1
 74
1
 75
1
 94
63
  0
MATERIAL
  5
21
102
{ACAD_REACTORS
330
E
102
}
330
E
100
AcDbMaterial
  1
Global
  2

 70
0
 40
1.0
 71
1
 41
1.0
 91
-1023410177
 42
1.0
 72
1
  3

 73
1
 74
1
 75
1
 44
0.5
 73
0
 45
1.0
 46
1.0
 77
1
  4

 78
1
 79
1
170
1
 48
1.0
171
1
  6

172
1
173
1
174
1
140
1.0
141
1.0
175
1
  7

176
1
177
1
178
1
143
1.0
179
1
  8

270
1
271
1
272
1
145
1.0
146
1.0
273
1
  9

274
1
275
1
276
1
 42
1.0
 72
1
  3

 73
1
 74
1
 75
1
 94
63
  0
MLINESTYLE
  5
22
102
{ACAD_REACTORS
330
10
102
}
330
10
100
AcDbMlineStyle
  2
Standard
 70
0
  3

 62
256
 51
90.0
 52
90.0
 71
2
 49
0.5
 62
256
  6
BYLAYER
 49
-0.5
 62
256
  6
BYLAYER
  0
MLEADERSTYLE
  5
2C
102
{ACAD_REACTORS
330
F
102
}
330
F
100
AcDbMLeaderStyle
179
2
170
2
171
1
172
0
 90
2
 40
0.0
 41
0.0
173
1
 91
-1056964608
 92
-2
290
1
 42
2.0
291
1
 43
8.0
  3
Standard
 44
4.0
300

342
29
174
1
175
1
176
0
178
1
 93
-1056964608
 45
4.0
292
0
297
0
 46
4.0
 94
-1056964608
 47
1.0
 49
1.0
140
1.0
294
1
141
0.0
177
0
142
1.0
295
0
296
0
143
3.75
271
0
272
9
273
9
  0
DICTIONARY
  5
2D
330
A
100
AcDbDictionary
280
1
281
1
  3
CREATED_BY_EZDXF
350
2E
  3
WRITTEN_BY_EZDXF
350
266
  0
DICTIONARYVAR
  5
2E
330
2D
100
DictionaryVariables
280
0
  1
1.4.2 @ 2026-03-31T10:01:19.377383+00:00
  0
DICTIONARYVAR
  5
266
330
2D
100
DictionaryVariables
280
0
  1
1.4.2 @ 2026-03-31T10:01:19.388400+00:00
  0
ENDSEC
  0
EOF
