  0
SECTION
  2
HEADER
  9
$ACADVER
  1
AC1024
  9
$ACADMAINTVER
 70
6
  9
$DWGCODEPAGE
  3
ANSI_1252
  9
$LASTSAVEDBY
  1
ezdxf
  9
$INSBASE
 10
0.0
 20
0.0
 30
0.0
  9
$EXTMIN
 10
1e+20
 20
1e+20
 30
1e+20
  9
$EXTMAX
 10
-1e+20
 20
-1e+20
 30
-1e+20
  9
$LIMMIN
 10
0.0
 20
0.0
  9
$LIMMAX
 10
420.0
 20
297.0
  9
$ORTHOMODE
 70
0
  9
$REGENMODE
 70
1
  9
$FILLMODE
 70
1
  9
$QTEXTMODE
 70
0
  9
$MIRRTEXT
 70
1
  9
$LTSCALE
 40
1.0
  9
$ATTMODE
 70
1
  9
$TEXTSIZE
 40
2.5
  9
$TRACEWID
 40
1.0
  9
$TEXTSTYLE
  7
Standard
  9
$CLAYER
  8
0
  9
$CELTYPE
  6
ByLayer
  9
$CECOLOR
 62
256
  9
$CELTSCALE
 40
1.0
  9
$DISPSILH
 70
0
  9
$DIMSCALE
 40
1.0
  9
$DIMASZ
 40
2.5
  9
$DIMEXO
 40
0.625
  9
$DIMDLI
 40
3.75
  9
$DIMRND
 40
0.0
  9
$DIMDLE
 40
0.0
  9
$DIMEXE
 40
1.25
  9
$DIMTP
 40
0.0
  9
$DIMTM
 40
0.0
  9
$DIMTXT
 40
2.5
  9
$DIMCEN
 40
2.5
  9
$DIMTSZ
 40
0.0
  9
$DIMTOL
 70
0
  9
$DIMLIM
 70
0
  9
$DIMTIH
 70
0
  9
$DIMTOH
 70
0
  9
$DIMSE1
 70
0
  9
$DIMSE2
 70
0
  9
$DIMTAD
 70
1
  9
$DIMZIN
 70
8
  9
$DIMBLK
  1

  9
$DIMASO
 70
1
  9
$DIMSHO
 70
1
  9
$DIMPOST
  1

  9
$DIMAPOST
  1

  9
$DIMALT
 70
0
  9
$DIMALTD
 70
3
  9
$DIMALTF
 40
0.03937007874
  9
$DIMLFAC
 40
1.0
  9
$DIMTOFL
 70
1
  9
$DIMTVP
 40
0.0
  9
$DIMTIX
 70
0
  9
$DIMSOXD
 70
0
  9
$DIMSAH
 70
0
  9
$DIMBLK1
  1

  9
$DIMBLK2
  1

  9
$DIMSTYLE
  2
ISO-25
  9
$DIMCLRD
 70
0
  9
$DIMCLRE
 70
0
  9
$DIMCLRT
 70
0
  9
$DIMTFAC
 40
1.0
  9
$DIMGAP
 40
0.625
  9
$DIMJUST
 70
0
  9
$DIMSD1
 70
0
  9
$DIMSD2
 70
0
  9
$DIMTOLJ
 70
0
  9
$DIMTZIN
 70
8
  9
$DIMALTZ
 70
0
  9
$DIMALTTZ
 70
0
  9
$DIMUPT
 70
0
  9
$DIMDEC
 70
2
  9
$DIMTDEC
 70
2
  9
$DIMALTU
 70
2
  9
$DIMALTTD
 70
3
  9
$DIMTXSTY
  7
Standard
  9
$DIMAUNIT
 70
0
  9
$DIMADEC
 70
0
  9
$DIMALTRND
 40
0.0
  9
$DIMAZIN
 70
0
  9
$DIMDSEP
 70
44
  9
$DIMATFIT
 70
3
  9
$DIMFRAC
 70
0
  9
$DIMLDRBLK
  1

  9
$DIMLUNIT
 70
2
  9
$DIMLWD
 70
-2
  9
$DIMLWE
 70
-2
  9
$DIMTMOVE
 70
0
  9
$DIMFXL
 40
1.0
  9
$DIMFXLON
 70
0
  9
$DIMJOGANG
 40
0.785398163397
  9
$DIMTFILL
 70
0
  9
$DIMTFILLCLR
 70
0
  9
$DIMARCSYM
 70
0
  9
$DIMLTYPE
  6

  9
$DIMLTEX1
  6

  9
$DIMLTEX2
  6

  9
$DIMTXTDIRECTION
 70
0
  9
$LUNITS
 70
2
  9
$LUPREC
 70
4
  9
$SKETCHINC
 40
1.0
  9
$FILLETRAD
 40
10.0
  9
$AUNITS
 70
0
  9
$AUPREC
 70
2
  9
$MENU
  1
.
  9
$ELEVATION
 40
0.0
  9
$PELEVATION
 40
0.0
  9
$THICKNESS
 40
0.0
  9
$LIMCHECK
 70
0
  9
$CHAMFERA
 40
0.0
  9
$CHAMFERB
 40
0.0
  9
$CHAMFERC
 40
0.0
  9
$CHAMFERD
 40
0.0
  9
$SKPOLY
 70
0
  9
$TDCREATE
 40
2461131.750914352
  9
$TDUCREATE
 40
2458532.153996898
  9
$TDUPDATE
 40
2461131.750914352
  9
$TDUUPDATE
 40
2458532.1544311
  9
$TDINDWG
 40
0.0
  9
$TDUSRTIMER
 40
0.0
  9
$USRTIMER
 70
1
  9
$ANGBASE
 50
0.0
  9
$ANGDIR
 70
0
  9
$PDMODE
 70
0
  9
$PDSIZE
 40
0.0
  9
$PLINEWID
 40
0.0
  9
$SPLFRAME
 70
0
  9
$SPLINETYPE
 70
6
  9
$SPLINESEGS
 70
8
  9
$HANDSEED
  5
397
  9
$SURFTAB1
 70
6
  9
$SURFTAB2
 70
6
  9
$SURFTYPE
 70
6
  9
$SURFU
 70
6
  9
$SURFV
 70
6
  9
$UCSBASE
  2

  9
$UCSNAME
  2

  9
$UCSORG
 10
0.0
 20
0.0
 30
0.0
  9
$UCSXDIR
 10
1.0
 20
0.0
 30
0.0
  9
$UCSYDIR
 10
0.0
 20
1.0
 30
0.0
  9
$UCSORTHOREF
  2

  9
$UCSORTHOVIEW
 70
0
  9
$UCSORGTOP
 10
0.0
 20
0.0
 30
0.0
  9
$UCSORGBOTTOM
 10
0.0
 20
0.0
 30
0.0
  9
$UCSORGLEFT
 10
0.0
 20
0.0
 30
0.0
  9
$UCSORGRIGHT
 10
0.0
 20
0.0
 30
0.0
  9
$UCSORGFRONT
 10
0.0
 20
0.0
 30
0.0
  9
$UCSORGBACK
 10
0.0
 20
0.0
 30
0.0
  9
$PUCSBASE
  2

  9
$PUCSNAME
  2

  9
$PUCSORG
 10
0.0
 20
0.0
 30
0.0
  9
$PUCSXDIR
 10
1.0
 20
0.0
 30
0.0
  9
$PUCSYDIR
 10
0.0
 20
1.0
 30
0.0
  9
$PUCSORTHOREF
  2

  9
$PUCSORTHOVIEW
 70
0
  9
$PUCSORGTOP
 10
0.0
 20
0.0
 30
0.0
  9
$PUCSORGBOTTOM
 10
0.0
 20
0.0
 30
0.0
  9
$PUCSORGLEFT
 10
0.0
 20
0.0
 30
0.0
  9
$PUCSORGRIGHT
 10
0.0
 20
0.0
 30
0.0
  9
$PUCSORGFRONT
 10
0.0
 20
0.0
 30
0.0
  9
$PUCSORGBACK
 10
0.0
 20
0.0
 30
0.0
  9
$USERI1
 70
0
  9
$USERI2
 70
0
  9
$USERI3
 70
0
  9
$USERI4
 70
0
  9
$USERI5
 70
0
  9
$USERR1
 40
0.0
  9
$USERR2
 40
0.0
  9
$USERR3
 40
0.0
  9
$USERR4
 40
0.0
  9
$USERR5
 40
0.0
  9
$WORLDVIEW
 70
1
  9
$SHADEDGE
 70
3
  9
$SHADEDIF
 70
70
  9
$TILEMODE
 70
1
  9
$MAXACTVP
 70
64
  9
$PINSBASE
 10
0.0
 20
0.0
 30
0.0
  9
$PLIMCHECK
 70
0
  9
$PEXTMIN
 10
1e+20
 20
1e+20
 30
1e+20
  9
$PEXTMAX
 10
-1e+20
 20
-1e+20
 30
-1e+20
  9
$PLIMMIN
 10
0.0
 20
0.0
  9
$PLIMMAX
 10
420.0
 20
297.0
  9
$UNITMODE
 70
0
  9
$VISRETAIN
 70
1
  9
$PLINEGEN
 70
0
  9
$PSLTSCALE
 70
1
  9
$TREEDEPTH
 70
3020
  9
$CMLSTYLE
  2
Standard
  9
$CMLJUST
 70
0
  9
$CMLSCALE
 40
20.0
  9
$PROXYGRAPHICS
 70
1
  9
$MEASUREMENT
 70
1
  9
$CELWEIGHT
370
-1
  9
$ENDCAPS
280
0
  9
$JOINSTYLE
280
0
  9
$LWDISPLAY
290
0
  9
$INSUNITS
 70
6
  9
$HYPERLINKBASE
  1

  9
$STYLESHEET
  1

  9
$XEDIT
290
1
  9
$CEPSNTYPE
380
0
  9
$PSTYLEMODE
290
1
  9
$FINGERPRINTGUID
  2
{95FF629A-F394-4666-B918-44BB9E9702F0}
  9
$VERSIONGUID
  2
{DA21D8C8-AD5A-43D1-837D-0B72D5A65A39}
  9
$EXTNAMES
290
1
  9
$PSVPSCALE
 40
0.0
  9
$OLESTARTUP
290
0
  9
$SORTENTS
280
127
  9
$INDEXCTL
280
0
  9
$HIDETEXT
280
1
  9
$XCLIPFRAME
280
1
  9
$HALOGAP
280
0
  9
$OBSCOLOR
 70
257
  9
$OBSLTYPE
280
0
  9
$INTERSECTIONDISPLAY
280
0
  9
$INTERSECTIONCOLOR
 70
257
  9
$DIMASSOC
280
2
  9
$PROJECTNAME
  1

  9
$CAMERADISPLAY
290
0
  9
$LENSLENGTH
 40
50.0
  9
$CAMERAHEIGHT
 40
0.0
  9
$STEPSPERSEC
 40
24.0
  9
$STEPSIZE
 40
100.0
  9
$3DDWFPREC
 40
2.0
  9
$PSOLWIDTH
 40
0.005
  9
$PSOLHEIGHT
 40
0.08
  9
$LOFTANG1
 40
1.570796326795
  9
$LOFTANG2
 40
1.570796326795
  9
$LOFTMAG1
 40
0.0
  9
$LOFTMAG2
 40
0.0
  9
$LOFTPARAM
 70
7
  9
$LOFTNORMALS
280
1
  9
$LATITUDE
 40
37.795
  9
$LONGITUDE
 40
-122.394
  9
$NORTHDIRECTION
 40
0.0
  9
$TIMEZONE
 70
-8000
  9
$LIGHTGLYPHDISPLAY
280
1
  9
$TILEMODELIGHTSYNCH
280
1
  9
$CMATERIAL
347
20
  9
$SOLIDHIST
280
0
  9
$SHOWHIST
280
1
  9
$DWFFRAME
280
2
  9
$DGNFRAME
280
2
  9
$REALWORLDSCALE
290
1
  9
$INTERFERECOLOR
 62
256
  9
$CSHADOW
280
0
  9
$SHADOWPLANELOCATION
 40
0.0
  0
ENDSEC
  0
SECTION
  2
CLASSES
  0
CLASS
  1
ACDBDICTIONARYWDFLT
  2
AcDbDictionaryWithDefault
  3
ObjectDBX Classes
 90
0
 91
0
280
0
281
0
  0
CLASS
  1
SUN
  2
AcDbSun
  3
SCENEOE
 90
1153
 91
0
280
0
281
0
  0
CLASS
  1
VISUALSTYLE
  2
AcDbVisualStyle
  3
ObjectDBX Classes
 90
4095
 91
0
280
0
281
0
  0
CLASS
  1
MATERIAL
  2
AcDbMaterial
  3
ObjectDBX Classes
 90
1153
 91
0
280
0
281
0
  0
CLASS
  1
SCALE
  2
AcDbScale
  3
ObjectDBX Classes
 90
1153
 91
0
280
0
281
0
  0
CLASS
  1
TABLESTYLE
  2
AcDbTableStyle
  3
ObjectDBX Classes
 90
4095
 91
0
280
0
281
0
  0
CLASS
  1
MLEADERSTYLE
  2
AcDbMLeaderStyle
  3
ACDB_MLEADERSTYLE_CLASS
 90
4095
 91
0
280
0
281
0
  0
CLASS
  1
DICTIONARYVAR
  2
AcDbDictionaryVar
  3
ObjectDBX Classes
 90
0
 91
0
280
0
281
0
  0
CLASS
  1
CELLSTYLEMAP
  2
AcDbCellStyleMap
  3
ObjectDBX Classes
 90
1152
 91
0
280
0
281
0
  0
CLASS
  1
MENTALRAYRENDERSETTINGS
  2
AcDbMentalRayRenderSettings
  3
SCENEOE
 90
1024
 91
0
280
0
281
0
  0
CLASS
  1
ACDBDETAILVIEWSTYLE
  2
AcDbDetailViewStyle
  3
ObjectDBX Classes
 90
1025
 91
0
280
0
281
0
  0
CLASS
  1
ACDBSECTIONVIEWSTYLE
  2
AcDbSectionViewStyle
  3
ObjectDBX Classes
 90
1025
 91
0
280
0
281
0
  0
CLASS
  1
RASTERVARIABLES
  2
AcDbRasterVariables
  3
ISM
 90
0
 91
0
280
0
281
0
  0
CLASS
  1
LAYOUT
  2
AcDbLayout
  3
ObjectDBX Classes
 90
0
 91
0
280
0
281
0
  0
CLASS
  1
ACDBPLACEHOLDER
  2
AcDbPlaceHolder
  3
ObjectDBX Classes
 90
0
 91
0
280
0
281
0
  0
ENDSEC
  0
SECTION
  2
TABLES
  0
TABLE
  2
VPORT
  5
8
330
0
100
AcDbSymbolTable
 70
1
  0
VPORT
  5
23
330
8
100
AcDbSymbolTableRecord
100
AcDbViewportTableRecord
  2
*Active
 70
0
 10
0.0
 20
0.0
 11
1.0
 21
1.0
 12
0.0
 22
0.0
 13
0.0
 23
0.0
 14
0.5
 24
0.5
 15
0.5
 25
0.5
 16
0.0
 26
0.0
 36
1.0
 17
0.0
 27
0.0
 37
0.0
 40
1000.0
 41
1.34
 42
50.0
 43
0.0
 44
0.0
 50
0.0
 51
0.0
 71
0
 72
1000
 73
1
 74
3
 75
0
 76
0
 77
0
 78
0
281
0
 65
0
146
0.0
  0
ENDTAB
  0
TABLE
  2
LTYPE
  5
2
330
0
100
AcDbSymbolTable
 70
3
  0
LTYPE
  5
24
330
2
100
AcDbSymbolTableRecord
100
AcDbLinetypeTableRecord
  2
ByBlock
 70
0
  3

 72
65
 73
0
 40
0.0
  0
LTYPE
  5
25
330
2
100
AcDbSymbolTableRecord
100
AcDbLinetypeTableRecord
  2
ByLayer
 70
0
  3

 72
65
 73
0
 40
0.0
  0
LTYPE
  5
26
330
2
100
AcDbSymbolTableRecord
100
AcDbLinetypeTableRecord
  2
Continuous
 70
0
  3

 72
65
 73
0
 40
0.0
  0
ENDTAB
  0
TABLE
  2
LAYER
  5
1
330
0
100
AcDbSymbolTable
 70
7
  0
LAYER
  5
27
330
1
100
AcDbSymbolTableRecord
100
AcDbLayerTableRecord
  2
0
 70
0
 62
7
  6
Continuous
370
-3
390
13
347
21
  0
LAYER
  5
28
330
1
100
AcDbSymbolTableRecord
100
AcDbLayerTableRecord
  2
Defpoints
 70
0
 62
7
  6
Continuous
290
0
370
-3
390
13
347
21
  0
LAYER
  5
2F
330
1
100
AcDbSymbolTableRecord
100
AcDbLayerTableRecord
  2
CUT
 70
0
 62
7
  6
Continuous
370
-3
390
13
347
21
  0
LAYER
  5
30
330
1
100
AcDbSymbolTableRecord
100
AcDbLayerTableRecord
  2
FOLD
 70
0
 62
1
  6
Continuous
370
-3
390
13
347
21
  0
LAYER
  5
31
330
1
100
AcDbSymbolTableRecord
100
AcDbLayerTableRecord
  2
CREASE
 70
0
 62
3
  6
Continuous
370
-3
390
13
347
21
  0
LAYER
  5
32
330
1
100
AcDbSymbolTableRecord
100
AcDbLayerTableRecord
  2
SLOT
 70
0
 62
5
  6
Continuous
370
-3
390
13
347
21
  0
LAYER
  5
33
330
1
100
AcDbSymbolTableRecord
100
AcDbLayerTableRecord
  2
BRIDGE
 70
0
 62
6
  6
Continuous
370
-3
390
13
347
21
  0
ENDTAB
  0
TABLE
  2
STYLE
  5
5
330
0
100
AcDbSymbolTable
 70
1
  0
STYLE
  5
29
330
5
100
AcDbSymbolTableRecord
100
AcDbTextStyleTableRecord
  2
Standard
 70
0
 40
0.0
 41
1.0
 50
0.0
 71
0
 42
2.5
  3
txt
  4

  0
ENDTAB
  0
TABLE
  2
VIEW
  5
7
330
0
100
AcDbSymbolTable
 70
0
  0
ENDTAB
  0
TABLE
  2
UCS
  5
6
330
0
100
AcDbSymbolTable
 70
0
  0
ENDTAB
  0
TABLE
  2
APPID
  5
3
330
0
100
AcDbSymbolTable
 70
3
  0
APPID
  5
2A
330
3
100
AcDbSymbolTableRecord
100
AcDbRegAppTableRecord
  2
ACAD
 70
0
  0
APPID
  5
394
330
3
100
AcDbSymbolTableRecord
100
AcDbRegAppTableRecord
  2
HATCHBACKGROUNDCOLOR
 70
0
  0
APPID
  5
395
330
3
100
AcDbSymbolTableRecord
100
AcDbRegAppTableRecord
  2
EZDXF
 70
0
  0
ENDTAB
  0
TABLE
  2
DIMSTYLE
  5
4
330
0
100
AcDbSymbolTable
 70
1
100
AcDbDimStyleTable
  0
DIMSTYLE
105
2B
330
4
100
AcDbSymbolTableRecord
100
AcDbDimStyleTableRecord
  2
Standard
 70
0
 40
1.0
 41
2.5
 42
0.625
 43
3.75
 44
1.25
 45
0.0
 46
0.0
 47
0.0
 48
0.0
 49
2.5
140
2.5
141
2.5
142
0.0
143
0.03937007874
144
1.0
145
0.0
146
1.0
147
0.625
148
0.0
 69
0
 70
0
 71
0
 72
0
 73
0
 74
0
 75
0
 76
0
 77
1
 78
8
 79
3
170
0
171
3
172
1
173
0
174
0
175
0
176
0
177
0
178
0
179
2
271
2
272
2
273
2
274
3
275
0
276
0
277
2
278
44
279
0
280
0
281
0
282
0
283
0
284
8
285
0
286
0
288
0
289
3
290
0
371
-2
372
-2
  0
ENDTAB
  0
TABLE
  2
BLOCK_RECORD
  5
9
330
0
100
AcDbSymbolTable
 70
2
  0
BLOCK_RECORD
  5
17
330
9
100
AcDbSymbolTableRecord
100
AcDbBlockTableRecord
  2
*Model_Space
340
1A
 70
0
280
1
281
0
  0
BLOCK_RECORD
  5
1B
330
9
100
AcDbSymbolTableRecord
100
AcDbBlockTableRecord
  2
*Paper_Space
340
1E
 70
0
280
1
281
0
  0
ENDTAB
  0
ENDSEC
  0
SECTION
  2
BLOCKS
  0
BLOCK
  5
18
330
17
100
AcDbEntity
  8
0
100
AcDbBlockBegin
  2
*Model_Space
 70
0
 10
0.0
 20
0.0
 30
0.0
  3
*Model_Space
  1

  0
ENDBLK
  5
19
330
17
100
AcDbEntity
  8
0
100
AcDbBlockEnd
  0
BLOCK
  5
1C
330
1B
100
AcDbEntity
  8
0
100
AcDbBlockBegin
  2
*Paper_Space
 70
0
 10
0.0
 20
0.0
 30
0.0
  3
*Paper_Space
  1

  0
ENDBLK
  5
1D
330
1B
100
AcDbEntity
  8
0
100
AcDbBlockEnd
  0
ENDSEC
  0
SECTION
  2
ENTITIES
  0
LINE
  5
34
330
17
100
AcDbEntity
  8
FOLD
100
AcDbLine
 10
202.75
 20
745.25
 30
0.0
 11
203.0
 21
720.75
 31
0.0
  0
LINE
  5
35
330
17
100
AcDbEntity
  8
FOLD
100
AcDbLine
 10
47.5
 20
773.5
 30
0.0
 11
47.75
 21
758.25
 31
0.0
  0
LINE
  5
36
330
17
100
AcDbEntity
  8
FOLD
100
AcDbLine
 10
250.25
 20
824.5
 30
0.0
 11
251.0
 21
772.25
 31
0.0
  0
LINE
  5
37
330
17
100
AcDbEntity
  8
CREASE
100
AcDbLine
 10
251.75
 20
783.25
 30
0.0
 11
252.25
 21
752.5
 31
0.0
  0
LINE
  5
38
330
17
100
AcDbEntity
  8
CUT
100
AcDbLine
 10
57.0
 20
848.5
 30
0.0
 11
64.75
 21
848.5
 31
0.0
  0
LINE
  5
39
330
17
100
AcDbEntity
  8
FOLD
100
AcDbLine
 10
114.5
 20
851.25
 30
0.0
 11
126.5
 21
851.5
 31
0.0
  0
LINE
  5
3A
330
17
100
AcDbEntity
  8
CREASE
100
AcDbLine
 10
47.0
 20
848.75
 30
0.0
 11
48.75
 21
758.25
 31
0.0
  0
LINE
  5
3B
330
17
100
AcDbEntity
  8
CREASE
100
AcDbLine
 10
203.5
 20
750.0
 30
0.0
 11
203.75
 21
721.75
 31
0.0
  0
LINE
  5
3C
330
17
100
AcDbEntity
  8
FOLD
100
AcDbLine
 10
199.25
 20
905.25
 30
0.0
 11
199.5
 21
885.25
 31
0.0
  0
LINE
  5
3D
330
17
100
AcDbEntity
  8
CREASE
100
AcDbLine
 10
126.75
 20
688.0
 30
0.0
 11
128.0
 21
697.25
 31
0.0
  0
LINE
  5
3E
330
17
100
AcDbEntity
  8
FOLD
100
AcDbLine
 10
80.5
 20
807.5
 30
0.0
 11
80.5
 21
796.75
 31
0.0
  0
LINE
  5
3F
330
17
100
AcDbEntity
  8
CUT
100
AcDbLine
 10
144.75
 20
756.75
 30
0.0
 11
183.5
 21
756.75
 31
0.0
  0
LINE
  5
40
330
17
100
AcDbEntity
  8
CREASE
100
AcDbLine
 10
198.5
 20
721.75
 30
0.0
 11
200.0
 21
713.25
 31
0.0
  0
LINE
  5
41
330
17
100
AcDbEntity
  8
CREASE
100
AcDbLine
 10
128.5
 20
931.0
 30
0.0
 11
128.75
 21
923.5
 31
0.0
  0
LINE
  5
42
330
17
100
AcDbEntity
  8
CREASE
100
AcDbLine
 10
81.0
 20
822.75
 30
0.0
 11
82.0
 21
762.25
 31
0.0
  0
LINE
  5
43
330
17
100
AcDbEntity
  8
CREASE
100
AcDbLine
 10
161.75
 20
940.5
 30
0.0
 11
163.0
 21
933.5
 31
0.0
  0
LINE
  5
44
330
17
100
AcDbEntity
  8
CREASE
100
AcDbLine
 10
209.5
 20
768.25
 30
0.0
 11
209.5
 21
762.75
 31
0.0
  0
LINE
  5
45
330
17
100
AcDbEntity
  8
CREASE
100
AcDbLine
 10
222.5
 20
903.5
 30
0.0
 11
222.5
 21
958.75
 31
0.0
  0
LINE
  5
46
330
17
100
AcDbEntity
  8
FOLD
100
AcDbLine
 10
121.0
 20
843.25
 30
0.0
 11
122.25
 21
801.5
 31
0.0
  0
LINE
  5
47
330
17
100
AcDbEntity
  8
FOLD
100
AcDbLine
 10
216.0
 20
853.0
 30
0.0
 11
253.75
 21
854.75
 31
0.0
  0
LINE
  5
48
330
17
100
AcDbEntity
  8
CREASE
100
AcDbLine
 10
158.5
 20
755.25
 30
0.0
 11
186.75
 21
755.0
 31
0.0
  0
LINE
  5
49
330
17
100
AcDbEntity
  8
FOLD
100
AcDbLine
 10
201.0
 20
882.25
 30
0.0
 11
201.5
 21
861.0
 31
0.0
  0
LINE
  5
4A
330
17
100
AcDbEntity
  8
FOLD
100
AcDbLine
 10
126.5
 20
973.0
 30
0.0
 11
127.75
 21
937.0
 31
0.0
  0
LINE
  5
4B
330
17
100
AcDbEntity
  8
CREASE
100
AcDbLine
 10
208.5
 20
819.75
 30
0.0
 11
209.0
 21
791.5
 31
0.0
  0
LINE
  5
4C
330
17
100
AcDbEntity
  8
FOLD
100
AcDbLine
 10
243.25
 20
837.0
 30
0.0
 11
244.25
 21
788.25
 31
0.0
  0
LINE
  5
4D
330
17
100
AcDbEntity
  8
CREASE
100
AcDbLine
 10
168.0
 20
913.5
 30
0.0
 11
170.0
 21
900.25
 31
0.0
  0
LINE
  5
4E
330
17
100
AcDbEntity
  8
CREASE
100
AcDbLine
 10
284.75
 20
802.75
 30
0.0
 11
285.5
 21
755.5
 31
0.0
  0
LINE
  5
4F
330
17
100
AcDbEntity
  8
CREASE
100
AcDbLine
 10
127.25
 20
976.25
 30
0.0
 11
128.5
 21
936.75
 31
0.0
  0
LINE
  5
50
330
17
100
AcDbEntity
  8
CUT
100
AcDbLine
 10
97.0
 20
721.5
 30
0.0
 11
134.0
 21
722.0
 31
0.0
  0
LINE
  5
51
330
17
100
AcDbEntity
  8
FOLD
100
AcDbLine
 10
87.0
 20
842.5
 30
0.0
 11
107.5
 21
843.0
 31
0.0
  0
LINE
  5
52
330
17
100
AcDbEntity
  8
FOLD
100
AcDbLine
 10
46.25
 20
848.5
 30
0.0
 11
56.75
 21
848.75
 31
0.0
  0
LINE
  5
53
330
17
100
AcDbEntity
  8
CREASE
100
AcDbLine
 10
220.25
 20
852.5
 30
0.0
 11
241.25
 21
853.25
 31
0.0
  0
LINE
  5
54
330
17
100
AcDbEntity
  8
FOLD
100
AcDbLine
 10
172.25
 20
852.25
 30
0.0
 11
179.25
 21
852.25
 31
0.0
  0
LINE
  5
55
330
17
100
AcDbEntity
  8
CREASE
100
AcDbLine
 10
141.75
 20
884.0
 30
0.0
 11
157.75
 21
884.25
 31
0.0
  0
LINE
  5
56
330
17
100
AcDbEntity
  8
CREASE
100
AcDbLine
 10
284.5
 20
755.5
 30
0.0
 11
284.5
 21
768.75
 31
0.0
  0
LINE
  5
57
330
17
100
AcDbEntity
  8
FOLD
100
AcDbLine
 10
81.25
 20
772.25
 30
0.0
 11
81.25
 21
765.25
 31
0.0
  0
LINE
  5
58
330
17
100
AcDbEntity
  8
CREASE
100
AcDbLine
 10
88.25
 20
810.5
 30
0.0
 11
88.75
 21
776.5
 31
0.0
  0
LINE
  5
59
330
17
100
AcDbEntity
  8
SLOT
100
AcDbLine
 10
145.75
 20
822.75
 30
0.0
 11
145.75
 21
828.25
 31
0.0
  0
LINE
  5
5A
330
17
100
AcDbEntity
  8
FOLD
100
AcDbLine
 10
83.25
 20
851.0
 30
0.0
 11
114.25
 21
851.0
 31
0.0
  0
LINE
  5
5B
330
17
100
AcDbEntity
  8
FOLD
100
AcDbLine
 10
61.25
 20
721.5
 30
0.0
 11
77.25
 21
721.25
 31
0.0
  0
LINE
  5
5C
330
17
100
AcDbEntity
  8
CREASE
100
AcDbLine
 10
261.75
 20
850.75
 30
0.0
 11
273.75
 21
850.75
 31
0.0
  0
LINE
  5
5D
330
17
100
AcDbEntity
  8
CREASE
100
AcDbLine
 10
88.25
 20
764.0
 30
0.0
 11
88.25
 21
753.25
 31
0.0
  0
LINE
  5
5E
330
17
100
AcDbEntity
  8
FOLD
100
AcDbLine
 10
166.75
 20
721.75
 30
0.0
 11
180.75
 21
721.5
 31
0.0
  0
LINE
  5
5F
330
17
100
AcDbEntity
  8
CREASE
100
AcDbLine
 10
122.25
 20
834.25
 30
0.0
 11
122.75
 21
806.5
 31
0.0
  0
LINE
  5
60
330
17
100
AcDbEntity
  8
FOLD
100
AcDbLine
 10
208.25
 20
790.5
 30
0.0
 11
208.25
 21
799.75
 31
0.0
  0
LINE
  5
61
330
17
100
AcDbEntity
  8
CREASE
100
AcDbLine
 10
161.75
 20
885.75
 30
0.0
 11
168.75
 21
885.75
 31
0.0
  0
LINE
  5
62
330
17
100
AcDbEntity
  8
CUT
100
AcDbLine
 10
141.5
 20
850.25
 30
0.0
 11
168.0
 21
850.25
 31
0.0
  0
LINE
  5
63
330
17
100
AcDbEntity
  8
CUT
100
AcDbLine
 10
245.5
 20
850.75
 30
0.0
 11
284.0
 21
853.5
 31
0.0
  0
LINE
  5
64
330
17
100
AcDbEntity
  8
FOLD
100
AcDbLine
 10
188.25
 20
722.25
 30
0.0
 11
193.5
 21
722.0
 31
0.0
  0
LINE
  5
65
330
17
100
AcDbEntity
  8
FOLD
100
AcDbLine
 10
142.25
 20
679.75
 30
0.0
 11
153.25
 21
679.5
 31
0.0
  0
LINE
  5
66
330
17
100
AcDbEntity
  8
FOLD
100
AcDbLine
 10
221.5
 20
939.25
 30
0.0
 11
221.5
 21
959.0
 31
0.0
  0
LINE
  5
67
330
17
100
AcDbEntity
  8
CUT
100
AcDbLine
 10
196.75
 20
955.75
 30
0.0
 11
214.75
 21
973.75
 31
0.0
  0
LINE
  5
68
330
17
100
AcDbEntity
  8
FOLD
100
AcDbLine
 10
128.0
 20
699.5
 30
0.0
 11
129.0
 21
707.25
 31
0.0
  0
LINE
  5
69
330
17
100
AcDbEntity
  8
CREASE
100
AcDbLine
 10
148.0
 20
963.75
 30
0.0
 11
148.25
 21
953.25
 31
0.0
  0
LINE
  5
6A
330
17
100
AcDbEntity
  8
CREASE
100
AcDbLine
 10
168.25
 20
850.5
 30
0.0
 11
188.0
 21
850.5
 31
0.0
  0
LINE
  5
6B
330
17
100
AcDbEntity
  8
CREASE
100
AcDbLine
 10
140.0
 20
907.0
 30
0.0
 11
146.75
 21
901.5
 31
0.0
  0
LINE
  5
6C
330
17
100
AcDbEntity
  8
CUT
100
AcDbLine
 10
181.0
 20
831.5
 30
0.0
 11
182.5
 21
821.75
 31
0.0
  0
LINE
  5
6D
330
17
100
AcDbEntity
  8
FOLD
100
AcDbLine
 10
181.75
 20
831.5
 30
0.0
 11
184.5
 21
814.25
 31
0.0
  0
LINE
  5
6E
330
17
100
AcDbEntity
  8
CREASE
100
AcDbLine
 10
161.75
 20
895.5
 30
0.0
 11
162.75
 21
903.75
 31
0.0
  0
LINE
  5
6F
330
17
100
AcDbEntity
  8
FOLD
100
AcDbLine
 10
93.25
 20
754.5
 30
0.0
 11
124.25
 21
754.5
 31
0.0
  0
LINE
  5
70
330
17
100
AcDbEntity
  8
FOLD
100
AcDbLine
 10
249.75
 20
718.0
 30
0.0
 11
274.0
 21
716.25
 31
0.0
  0
LINE
  5
71
330
17
100
AcDbEntity
  8
CREASE
100
AcDbLine
 10
199.5
 20
924.0
 30
0.0
 11
200.0
 21
894.5
 31
0.0
  0
LINE
  5
72
330
17
100
AcDbEntity
  8
CUT
100
AcDbLine
 10
154.5
 20
925.5
 30
0.0
 11
178.5
 21
940.0
 31
0.0
  0
LINE
  5
73
330
17
100
AcDbEntity
  8
CUT
100
AcDbLine
 10
152.5
 20
910.5
 30
0.0
 11
174.25
 21
932.25
 31
0.0
  0
LINE
  5
74
330
17
100
AcDbEntity
  8
CREASE
100
AcDbLine
 10
241.75
 20
717.5
 30
0.0
 11
270.75
 21
715.5
 31
0.0
  0
LINE
  5
75
330
17
100
AcDbEntity
  8
CREASE
100
AcDbLine
 10
147.5
 20
955.75
 30
0.0
 11
147.75
 21
963.25
 31
0.0
  0
LINE
  5
76
330
17
100
AcDbEntity
  8
CREASE
100
AcDbLine
 10
148.25
 20
971.0
 30
0.0
 11
148.75
 21
961.0
 31
0.0
  0
LINE
  5
77
330
17
100
AcDbEntity
  8
FOLD
100
AcDbLine
 10
87.5
 20
793.0
 30
0.0
 11
87.5
 21
800.5
 31
0.0
  0
LINE
  5
78
330
17
100
AcDbEntity
  8
CREASE
100
AcDbLine
 10
88.0
 20
753.25
 30
0.0
 11
88.0
 21
764.0
 31
0.0
  0
LINE
  5
79
330
17
100
AcDbEntity
  8
CUT
100
AcDbLine
 10
151.0
 20
966.5
 30
0.0
 11
151.25
 21
946.5
 31
0.0
  0
LINE
  5
7A
330
17
100
AcDbEntity
  8
CUT
100
AcDbLine
 10
182.25
 20
956.5
 30
0.0
 11
192.0
 21
966.25
 31
0.0
  0
LINE
  5
7B
330
17
100
AcDbEntity
  8
CUT
100
AcDbLine
 10
169.75
 20
956.0
 30
0.0
 11
185.5
 21
971.75
 31
0.0
  0
LINE
  5
7C
330
17
100
AcDbEntity
  8
CUT
100
AcDbLine
 10
160.0
 20
923.75
 30
0.0
 11
162.75
 21
942.5
 31
0.0
  0
LINE
  5
7D
330
17
100
AcDbEntity
  8
CREASE
100
AcDbLine
 10
123.25
 20
769.5
 30
0.0
 11
123.5
 21
778.5
 31
0.0
  0
LINE
  5
7E
330
17
100
AcDbEntity
  8
SLOT
100
AcDbLine
 10
163.0
 20
917.0
 30
0.0
 11
164.25
 21
923.5
 31
0.0
  0
LINE
  5
7F
330
17
100
AcDbEntity
  8
CUT
100
AcDbLine
 10
199.0
 20
902.75
 30
0.0
 11
199.0
 21
928.25
 31
0.0
  0
LINE
  5
80
330
17
100
AcDbEntity
  8
SLOT
100
AcDbLine
 10
185.5
 20
938.5
 30
0.0
 11
186.0
 21
933.0
 31
0.0
  0
LINE
  5
81
330
17
100
AcDbEntity
  8
CREASE
100
AcDbLine
 10
244.5
 20
810.75
 30
0.0
 11
244.75
 21
793.75
 31
0.0
  0
LINE
  5
82
330
17
100
AcDbEntity
  8
CREASE
100
AcDbLine
 10
208.0
 20
803.5
 30
0.0
 11
208.25
 21
831.75
 31
0.0
  0
LINE
  5
83
330
17
100
AcDbEntity
  8
FOLD
100
AcDbLine
 10
202.25
 20
699.75
 30
0.0
 11
202.5
 21
694.25
 31
0.0
  0
LINE
  5
84
330
17
100
AcDbEntity
  8
FOLD
100
AcDbLine
 10
46.5
 20
833.0
 30
0.0
 11
46.75
 21
808.75
 31
0.0
  0
LINE
  5
85
330
17
100
AcDbEntity
  8
CUT
100
AcDbLine
 10
157.0
 20
921.25
 30
0.0
 11
157.5
 21
938.5
 31
0.0
  0
LINE
  5
86
330
17
100
AcDbEntity
  8
SLOT
100
AcDbLine
 10
150.25
 20
935.0
 30
0.0
 11
150.5
 21
927.75
 31
0.0
  0
LINE
  5
87
330
17
100
AcDbEntity
  8
CREASE
100
AcDbLine
 10
192.0
 20
760.0
 30
0.0
 11
202.0
 21
759.75
 31
0.0
  0
LINE
  5
88
330
17
100
AcDbEntity
  8
SLOT
100
AcDbLine
 10
158.0
 20
903.0
 30
0.0
 11
158.0
 21
908.5
 31
0.0
  0
LINE
  5
89
330
17
100
AcDbEntity
  8
CUT
100
AcDbLine
 10
148.25
 20
910.75
 30
0.0
 11
148.75
 21
926.5
 31
0.0
  0
LINE
  5
8A
330
17
100
AcDbEntity
  8
CUT
100
AcDbLine
 10
156.0
 20
954.75
 30
0.0
 11
157.0
 21
968.25
 31
0.0
  0
LINE
  5
8B
330
17
100
AcDbEntity
  8
CUT
100
AcDbLine
 10
112.75
 20
881.5
 30
0.0
 11
127.0
 21
881.25
 31
0.0
  0
LINE
  5
8C
330
17
100
AcDbEntity
  8
FOLD
100
AcDbLine
 10
104.25
 20
932.75
 30
0.0
 11
104.25
 21
925.0
 31
0.0
  0
LINE
  5
8D
330
17
100
AcDbEntity
  8
CREASE
100
AcDbLine
 10
146.5
 20
782.5
 30
0.0
 11
146.75
 21
793.0
 31
0.0
  0
LINE
  5
8E
330
17
100
AcDbEntity
  8
CREASE
100
AcDbLine
 10
142.0
 20
775.0
 30
0.0
 11
150.0
 21
775.0
 31
0.0
  0
LINE
  5
8F
330
17
100
AcDbEntity
  8
FOLD
100
AcDbLine
 10
127.5
 20
979.5
 30
0.0
 11
143.75
 21
980.0
 31
0.0
  0
LINE
  5
90
330
17
100
AcDbEntity
  8
SLOT
100
AcDbLine
 10
157.75
 20
795.75
 30
0.0
 11
158.0
 21
784.0
 31
0.0
  0
LINE
  5
91
330
17
100
AcDbEntity
  8
CREASE
100
AcDbLine
 10
147.0
 20
814.0
 30
0.0
 11
147.0
 21
822.25
 31
0.0
  0
LINE
  5
92
330
17
100
AcDbEntity
  8
FOLD
100
AcDbLine
 10
129.5
 20
892.5
 30
0.0
 11
129.75
 21
883.5
 31
0.0
  0
LINE
  5
93
330
17
100
AcDbEntity
  8
SLOT
100
AcDbLine
 10
156.25
 20
894.0
 30
0.0
 11
157.0
 21
900.0
 31
0.0
  0
LINE
  5
94
330
17
100
AcDbEntity
  8
CREASE
100
AcDbLine
 10
283.5
 20
835.5
 30
0.0
 11
283.5
 21
853.5
 31
0.0
  0
LINE
  5
95
330
17
100
AcDbEntity
  8
CREASE
100
AcDbLine
 10
166.75
 20
967.25
 30
0.0
 11
167.5
 21
973.25
 31
0.0
  0
LINE
  5
96
330
17
100
AcDbEntity
  8
CREASE
100
AcDbLine
 10
149.25
 20
928.75
 30
0.0
 11
149.5
 21
922.0
 31
0.0
  0
LINE
  5
97
330
17
100
AcDbEntity
  8
FOLD
100
AcDbLine
 10
81.0
 20
781.25
 30
0.0
 11
81.0
 21
772.5
 31
0.0
  0
LINE
  5
98
330
17
100
AcDbEntity
  8
CREASE
100
AcDbLine
 10
195.5
 20
947.0
 30
0.0
 11
204.25
 21
955.5
 31
0.0
  0
LINE
  5
99
330
17
100
AcDbEntity
  8
CREASE
100
AcDbLine
 10
141.0
 20
777.5
 30
0.0
 11
141.75
 21
786.25
 31
0.0
  0
LINE
  5
9A
330
17
100
AcDbEntity
  8
CUT
100
AcDbLine
 10
183.75
 20
969.75
 30
0.0
 11
185.0
 21
953.0
 31
0.0
  0
LINE
  5
9B
330
17
100
AcDbEntity
  8
CREASE
100
AcDbLine
 10
89.5
 20
880.75
 30
0.0
 11
102.5
 21
880.75
 31
0.0
  0
LINE
  5
9C
330
17
100
AcDbEntity
  8
SLOT
100
AcDbLine
 10
147.0
 20
950.0
 30
0.0
 11
147.0
 21
956.25
 31
0.0
  0
LINE
  5
9D
330
17
100
AcDbEntity
  8
CREASE
100
AcDbLine
 10
80.75
 20
823.0
 30
0.0
 11
80.75
 21
840.0
 31
0.0
  0
LINE
  5
9E
330
17
100
AcDbEntity
  8
CUT
100
AcDbLine
 10
167.5
 20
914.0
 30
0.0
 11
170.0
 21
895.75
 31
0.0
  0
LINE
  5
9F
330
17
100
AcDbEntity
  8
CREASE
100
AcDbLine
 10
82.75
 20
849.25
 30
0.0
 11
104.0
 21
849.75
 31
0.0
  0
LINE
  5
A0
330
17
100
AcDbEntity
  8
CREASE
100
AcDbLine
 10
175.75
 20
957.25
 30
0.0
 11
177.0
 21
946.0
 31
0.0
  0
LINE
  5
A1
330
17
100
AcDbEntity
  8
CREASE
100
AcDbLine
 10
154.5
 20
931.5
 30
0.0
 11
154.75
 21
939.0
 31
0.0
  0
LINE
  5
A2
330
17
100
AcDbEntity
  8
CREASE
100
AcDbLine
 10
161.75
 20
916.75
 30
0.0
 11
162.75
 21
929.0
 31
0.0
  0
LINE
  5
A3
330
17
100
AcDbEntity
  8
CREASE
100
AcDbLine
 10
208.75
 20
929.75
 30
0.0
 11
209.0
 21
939.5
 31
0.0
  0
LINE
  5
A4
330
17
100
AcDbEntity
  8
CREASE
100
AcDbLine
 10
251.25
 20
802.75
 30
0.0
 11
251.25
 21
814.0
 31
0.0
  0
LINE
  5
A5
330
17
100
AcDbEntity
  8
CREASE
100
AcDbLine
 10
144.5
 20
786.5
 30
0.0
 11
146.25
 21
796.25
 31
0.0
  0
LINE
  5
A6
330
17
100
AcDbEntity
  8
CUT
100
AcDbLine
 10
196.25
 20
955.75
 30
0.0
 11
207.25
 21
971.75
 31
0.0
  0
LINE
  5
A7
330
17
100
AcDbEntity
  8
CUT
100
AcDbLine
 10
207.25
 20
960.5
 30
0.0
 11
208.0
 21
975.0
 31
0.0
  0
LINE
  5
A8
330
17
100
AcDbEntity
  8
CREASE
100
AcDbLine
 10
130.25
 20
914.5
 30
0.0
 11
130.75
 21
926.0
 31
0.0
  0
LINE
  5
A9
330
17
100
AcDbEntity
  8
CUT
100
AcDbLine
 10
162.5
 20
907.75
 30
0.0
 11
164.5
 21
921.5
 31
0.0
  0
LINE
  5
AA
330
17
100
AcDbEntity
  8
CUT
100
AcDbLine
 10
192.25
 20
831.5
 30
0.0
 11
194.0
 21
818.75
 31
0.0
  0
LINE
  5
AB
330
17
100
AcDbEntity
  8
FOLD
100
AcDbLine
 10
122.5
 20
769.0
 30
0.0
 11
122.75
 21
778.25
 31
0.0
  0
LINE
  5
AC
330
17
100
AcDbEntity
  8
CREASE
100
AcDbLine
 10
180.25
 20
953.25
 30
0.0
 11
180.75
 21
945.25
 31
0.0
  0
LINE
  5
AD
330
17
100
AcDbEntity
  8
FOLD
100
AcDbLine
 10
126.25
 20
881.75
 30
0.0
 11
127.0
 21
842.25
 31
0.0
  0
LINE
  5
AE
330
17
100
AcDbEntity
  8
CREASE
100
AcDbLine
 10
151.5
 20
955.5
 30
0.0
 11
151.5
 21
966.0
 31
0.0
  0
LINE
  5
AF
330
17
100
AcDbEntity
  8
SLOT
100
AcDbLine
 10
176.5
 20
986.25
 30
0.0
 11
177.0
 21
980.25
 31
0.0
  0
LINE
  5
B0
330
17
100
AcDbEntity
  8
FOLD
100
AcDbLine
 10
208.25
 20
885.0
 30
0.0
 11
214.25
 21
885.0
 31
0.0
  0
LINE
  5
B1
330
17
100
AcDbEntity
  8
CREASE
100
AcDbLine
 10
146.0
 20
969.5
 30
0.0
 11
146.25
 21
961.5
 31
0.0
  0
LINE
  5
B2
330
17
100
AcDbEntity
  8
FOLD
100
AcDbLine
 10
221.25
 20
898.75
 30
0.0
 11
221.75
 21
935.5
 31
0.0
  0
LINE
  5
B3
330
17
100
AcDbEntity
  8
FOLD
100
AcDbLine
 10
87.25
 20
813.0
 30
0.0
 11
87.25
 21
840.25
 31
0.0
  0
LINE
  5
B4
330
17
100
AcDbEntity
  8
CREASE
100
AcDbLine
 10
143.25
 20
715.25
 30
0.0
 11
143.25
 21
723.5
 31
0.0
  0
LINE
  5
B5
330
17
100
AcDbEntity
  8
SLOT
100
AcDbLine
 10
199.5
 20
760.75
 30
0.0
 11
206.0
 21
760.75
 31
0.0
  0
LINE
  5
B6
330
17
100
AcDbEntity
  8
FOLD
100
AcDbLine
 10
129.5
 20
704.75
 30
0.0
 11
131.0
 21
718.25
 31
0.0
  0
LINE
  5
B7
330
17
100
AcDbEntity
  8
CREASE
100
AcDbLine
 10
179.0
 20
930.75
 30
0.0
 11
179.75
 21
923.0
 31
0.0
  0
LINE
  5
B8
330
17
100
AcDbEntity
  8
CUT
100
AcDbLine
 10
155.25
 20
943.75
 30
0.0
 11
157.0
 21
963.5
 31
0.0
  0
LINE
  5
B9
330
17
100
AcDbEntity
  8
CREASE
100
AcDbLine
 10
221.5
 20
759.75
 30
0.0
 11
231.5
 21
758.0
 31
0.0
  0
LINE
  5
BA
330
17
100
AcDbEntity
  8
CREASE
100
AcDbLine
 10
88.0
 20
814.75
 30
0.0
 11
88.0
 21
843.0
 31
0.0
  0
LINE
  5
BB
330
17
100
AcDbEntity
  8
CREASE
100
AcDbLine
 10
191.0
 20
677.25
 30
0.0
 11
200.5
 21
677.25
 31
0.0
  0
LINE
  5
BC
330
17
100
AcDbEntity
  8
SLOT
100
AcDbLine
 10
142.0
 20
809.5
 30
0.0
 11
142.0
 21
814.5
 31
0.0
  0
LINE
  5
BD
330
17
100
AcDbEntity
  8
CREASE
100
AcDbLine
 10
226.0
 20
884.0
 30
0.0
 11
234.0
 21
884.0
 31
0.0
  0
LINE
  5
BE
330
17
100
AcDbEntity
  8
CREASE
100
AcDbLine
 10
129.25
 20
728.0
 30
0.0
 11
129.25
 21
740.5
 31
0.0
  0
LINE
  5
BF
330
17
100
AcDbEntity
  8
FOLD
100
AcDbLine
 10
126.5
 20
884.5
 30
0.0
 11
146.25
 21
885.0
 31
0.0
  0
LINE
  5
C0
330
17
100
AcDbEntity
  8
CREASE
100
AcDbLine
 10
154.5
 20
979.5
 30
0.0
 11
154.75
 21
984.5
 31
0.0
  0
LINE
  5
C1
330
17
100
AcDbEntity
  8
CREASE
100
AcDbLine
 10
198.0
 20
961.5
 30
0.0
 11
199.0
 21
976.75
 31
0.0
  0
LINE
  5
C2
330
17
100
AcDbEntity
  8
CUT
100
AcDbLine
 10
190.0
 20
831.75
 30
0.0
 11
191.5
 21
818.5
 31
0.0
  0
LINE
  5
C3
330
17
100
AcDbEntity
  8
CUT
100
AcDbLine
 10
173.0
 20
715.5
 30
0.0
 11
187.5
 21
714.75
 31
0.0
  0
LINE
  5
C4
330
17
100
AcDbEntity
  8
CUT
100
AcDbLine
 10
152.5
 20
814.5
 30
0.0
 11
154.25
 21
829.25
 31
0.0
  0
LINE
  5
C5
330
17
100
AcDbEntity
  8
CREASE
100
AcDbLine
 10
111.5
 20
850.0
 30
0.0
 11
121.0
 21
850.0
 31
0.0
  0
LINE
  5
C6
330
17
100
AcDbEntity
  8
FOLD
100
AcDbLine
 10
80.0
 20
819.25
 30
0.0
 11
80.0
 21
839.75
 31
0.0
  0
LINE
  5
C7
330
17
100
AcDbEntity
  8
CUT
100
AcDbLine
 10
152.5
 20
947.5
 30
0.0
 11
153.5
 21
964.25
 31
0.0
  0
LINE
  5
C8
330
17
100
AcDbEntity
  8
CREASE
100
AcDbLine
 10
192.75
 20
953.0
 30
0.0
 11
194.75
 21
961.5
 31
0.0
  0
LINE
  5
C9
330
17
100
AcDbEntity
  8
CUT
100
AcDbLine
 10
148.0
 20
910.75
 30
0.0
 11
148.25
 21
929.5
 31
0.0
  0
LINE
  5
CA
330
17
100
AcDbEntity
  8
CUT
100
AcDbLine
 10
186.75
 20
933.0
 30
0.0
 11
187.75
 21
917.75
 31
0.0
  0
LINE
  5
CB
330
17
100
AcDbEntity
  8
SLOT
100
AcDbLine
 10
167.5
 20
967.0
 30
0.0
 11
168.0
 21
973.5
 31
0.0
  0
LINE
  5
CC
330
17
100
AcDbEntity
  8
CREASE
100
AcDbLine
 10
177.75
 20
929.25
 30
0.0
 11
178.5
 21
920.5
 31
0.0
  0
LINE
  5
CD
330
17
100
AcDbEntity
  8
CREASE
100
AcDbLine
 10
155.25
 20
894.0
 30
0.0
 11
155.75
 21
904.25
 31
0.0
  0
LINE
  5
CE
330
17
100
AcDbEntity
  8
SLOT
100
AcDbLine
 10
148.5
 20
929.25
 30
0.0
 11
148.5
 21
922.25
 31
0.0
  0
LINE
  5
CF
330
17
100
AcDbEntity
  8
SLOT
100
AcDbLine
 10
154.25
 20
787.0
 30
0.0
 11
154.25
 21
792.0
 31
0.0
  0
LINE
  5
D0
330
17
100
AcDbEntity
  8
CUT
100
AcDbLine
 10
175.75
 20
915.0
 30
0.0
 11
178.75
 21
929.25
 31
0.0
  0
LINE
  5
D1
330
17
100
AcDbEntity
  8
CREASE
100
AcDbLine
 10
146.5
 20
951.0
 30
0.0
 11
147.25
 21
962.75
 31
0.0
  0
LINE
  5
D2
330
17
100
AcDbEntity
  8
SLOT
100
AcDbLine
 10
152.75
 20
906.5
 30
0.0
 11
153.0
 21
900.75
 31
0.0
  0
LINE
  5
D3
330
17
100
AcDbEntity
  8
SLOT
100
AcDbLine
 10
180.0
 20
831.5
 30
0.0
 11
181.0
 21
825.0
 31
0.0
  0
LINE
  5
D4
330
17
100
AcDbEntity
  8
CREASE
100
AcDbLine
 10
156.25
 20
912.75
 30
0.0
 11
156.25
 21
921.75
 31
0.0
  0
LINE
  5
D5
330
17
100
AcDbEntity
  8
FOLD
100
AcDbLine
 10
46.75
 20
977.25
 30
0.0
 11
57.75
 21
974.0
 31
0.0
  0
LINE
  5
D6
330
17
100
AcDbEntity
  8
CREASE
100
AcDbLine
 10
152.25
 20
942.0
 30
0.0
 11
159.5
 21
929.75
 31
0.0
  0
LINE
  5
D7
330
17
100
AcDbEntity
  8
CREASE
100
AcDbLine
 10
172.75
 20
963.5
 30
0.0
 11
173.5
 21
956.0
 31
0.0
  0
LINE
  5
D8
330
17
100
AcDbEntity
  8
CREASE
100
AcDbLine
 10
166.0
 20
939.25
 30
0.0
 11
167.25
 21
948.25
 31
0.0
  0
LINE
  5
D9
330
17
100
AcDbEntity
  8
FOLD
100
AcDbLine
 10
128.25
 20
749.25
 30
0.0
 11
128.5
 21
728.75
 31
0.0
  0
LINE
  5
DA
330
17
100
AcDbEntity
  8
CREASE
100
AcDbLine
 10
284.5
 20
840.75
 30
0.0
 11
284.75
 21
812.5
 31
0.0
  0
LINE
  5
DB
330
17
100
AcDbEntity
  8
SLOT
100
AcDbLine
 10
172.5
 20
974.5
 30
0.0
 11
173.25
 21
967.25
 31
0.0
  0
LINE
  5
DC
330
17
100
AcDbEntity
  8
FOLD
100
AcDbLine
 10
96.0
 20
722.25
 30
0.0
 11
129.0
 21
722.75
 31
0.0
  0
LINE
  5
DD
330
17
100
AcDbEntity
  8
CREASE
100
AcDbLine
 10
148.5
 20
900.75
 30
0.0
 11
153.5
 21
890.75
 31
0.0
  0
LINE
  5
DE
330
17
100
AcDbEntity
  8
CREASE
100
AcDbLine
 10
199.5
 20
760.25
 30
0.0
 11
206.0
 21
760.25
 31
0.0
  0
LINE
  5
DF
330
17
100
AcDbEntity
  8
CREASE
100
AcDbLine
 10
194.75
 20
678.0
 30
0.0
 11
204.5
 21
678.0
 31
0.0
  0
LINE
  5
E0
330
17
100
AcDbEntity
  8
CREASE
100
AcDbLine
 10
147.25
 20
905.5
 30
0.0
 11
147.75
 21
896.75
 31
0.0
  0
LINE
  5
E1
330
17
100
AcDbEntity
  8
CREASE
100
AcDbLine
 10
140.5
 20
715.25
 30
0.0
 11
141.0
 21
723.5
 31
0.0
  0
LINE
  5
E2
330
17
100
AcDbEntity
  8
CUT
100
AcDbLine
 10
172.5
 20
945.0
 30
0.0
 11
184.0
 21
956.5
 31
0.0
  0
LINE
  5
E3
330
17
100
AcDbEntity
  8
CREASE
100
AcDbLine
 10
141.75
 20
715.25
 30
0.0
 11
142.0
 21
723.5
 31
0.0
  0
LINE
  5
E4
330
17
100
AcDbEntity
  8
CREASE
100
AcDbLine
 10
202.25
 20
867.5
 30
0.0
 11
202.75
 21
851.25
 31
0.0
  0
LINE
  5
E5
330
17
100
AcDbEntity
  8
SLOT
100
AcDbLine
 10
158.5
 20
950.0
 30
0.0
 11
159.0
 21
955.25
 31
0.0
  0
LINE
  5
E6
330
17
100
AcDbEntity
  8
CREASE
100
AcDbLine
 10
163.25
 20
914.75
 30
0.0
 11
164.5
 21
922.75
 31
0.0
  0
LINE
  5
E7
330
17
100
AcDbEntity
  8
CUT
100
AcDbLine
 10
163.25
 20
761.25
 30
0.0
 11
179.25
 21
761.25
 31
0.0
  0
LINE
  5
E8
330
17
100
AcDbEntity
  8
SLOT
100
AcDbLine
 10
163.0
 20
949.75
 30
0.0
 11
163.5
 21
955.25
 31
0.0
  0
LINE
  5
E9
330
17
100
AcDbEntity
  8
SLOT
100
AcDbLine
 10
144.25
 20
787.0
 30
0.0
 11
145.0
 21
793.0
 31
0.0
  0
LINE
  5
EA
330
17
100
AcDbEntity
  8
CREASE
100
AcDbLine
 10
143.75
 20
931.5
 30
0.0
 11
144.5
 21
917.5
 31
0.0
  0
LINE
  5
EB
330
17
100
AcDbEntity
  8
CREASE
100
AcDbLine
 10
164.5
 20
760.5
 30
0.0
 11
189.25
 21
761.0
 31
0.0
  0
LINE
  5
EC
330
17
100
AcDbEntity
  8
CREASE
100
AcDbLine
 10
88.75
 20
761.0
 30
0.0
 11
117.25
 21
762.0
 31
0.0
  0
LINE
  5
ED
330
17
100
AcDbEntity
  8
CREASE
100
AcDbLine
 10
192.0
 20
791.0
 30
0.0
 11
192.25
 21
782.5
 31
0.0
  0
LINE
  5
EE
330
17
100
AcDbEntity
  8
CUT
100
AcDbLine
 10
155.0
 20
814.5
 30
0.0
 11
155.0
 21
829.5
 31
0.0
  0
LINE
  5
EF
330
17
100
AcDbEntity
  8
CREASE
100
AcDbLine
 10
125.75
 20
680.25
 30
0.0
 11
127.0
 21
686.5
 31
0.0
  0
LINE
  5
F0
330
17
100
AcDbEntity
  8
CUT
100
AcDbLine
 10
166.5
 20
913.75
 30
0.0
 11
169.0
 21
899.0
 31
0.0
  0
LINE
  5
F1
330
17
100
AcDbEntity
  8
CREASE
100
AcDbLine
 10
194.75
 20
820.25
 30
0.0
 11
195.0
 21
814.75
 31
0.0
  0
LINE
  5
F2
330
17
100
AcDbEntity
  8
SLOT
100
AcDbLine
 10
251.5
 20
760.25
 30
0.0
 11
251.5
 21
752.75
 31
0.0
  0
LINE
  5
F3
330
17
100
AcDbEntity
  8
CREASE
100
AcDbLine
 10
141.75
 20
944.5
 30
0.0
 11
142.0
 21
938.5
 31
0.0
  0
LINE
  5
F4
330
17
100
AcDbEntity
  8
CREASE
100
AcDbLine
 10
185.75
 20
820.0
 30
0.0
 11
186.5
 21
814.5
 31
0.0
  0
LINE
  5
F5
330
17
100
AcDbEntity
  8
SLOT
100
AcDbLine
 10
180.5
 20
952.25
 30
0.0
 11
181.0
 21
945.25
 31
0.0
  0
LINE
  5
F6
330
17
100
AcDbEntity
  8
CUT
100
AcDbLine
 10
199.25
 20
959.0
 30
0.0
 11
214.0
 21
973.75
 31
0.0
  0
LINE
  5
F7
330
17
100
AcDbEntity
  8
BRIDGE
100
AcDbLine
 10
162.0
 20
894.5
 30
0.0
 11
163.0
 21
900.75
 31
0.0
  0
LINE
  5
F8
330
17
100
AcDbEntity
  8
CREASE
100
AcDbLine
 10
70.5
 20
937.25
 30
0.0
 11
79.0
 21
937.25
 31
0.0
  0
LINE
  5
F9
330
17
100
AcDbEntity
  8
CREASE
100
AcDbLine
 10
182.25
 20
959.75
 30
0.0
 11
190.0
 21
966.5
 31
0.0
  0
LINE
  5
FA
330
17
100
AcDbEntity
  8
CUT
100
AcDbLine
 10
145.75
 20
782.75
 30
0.0
 11
146.25
 21
795.5
 31
0.0
  0
LINE
  5
FB
330
17
100
AcDbEntity
  8
CUT
100
AcDbLine
 10
165.5
 20
933.75
 30
0.0
 11
177.5
 21
940.75
 31
0.0
  0
LINE
  5
FC
330
17
100
AcDbEntity
  8
CREASE
100
AcDbLine
 10
155.25
 20
814.5
 30
0.0
 11
155.75
 21
822.5
 31
0.0
  0
LINE
  5
FD
330
17
100
AcDbEntity
  8
CUT
100
AcDbLine
 10
178.25
 20
814.25
 30
0.0
 11
178.25
 21
828.5
 31
0.0
  0
LINE
  5
FE
330
17
100
AcDbEntity
  8
CREASE
100
AcDbLine
 10
151.0
 20
822.0
 30
0.0
 11
151.75
 21
829.75
 31
0.0
  0
LINE
  5
FF
330
17
100
AcDbEntity
  8
FOLD
100
AcDbLine
 10
163.5
 20
981.0
 30
0.0
 11
180.0
 21
981.25
 31
0.0
  0
LINE
  5
100
330
17
100
AcDbEntity
  8
CREASE
100
AcDbLine
 10
156.5
 20
949.5
 30
0.0
 11
156.75
 21
954.5
 31
0.0
  0
LINE
  5
101
330
17
100
AcDbEntity
  8
SLOT
100
AcDbLine
 10
199.25
 20
718.5
 30
0.0
 11
200.5
 21
713.25
 31
0.0
  0
LINE
  5
102
330
17
100
AcDbEntity
  8
CUT
100
AcDbLine
 10
154.75
 20
951.0
 30
0.0
 11
155.75
 21
966.0
 31
0.0
  0
LINE
  5
103
330
17
100
AcDbEntity
  8
CREASE
100
AcDbLine
 10
146.25
 20
969.75
 30
0.0
 11
147.25
 21
959.25
 31
0.0
  0
LINE
  5
104
330
17
100
AcDbEntity
  8
CUT
100
AcDbLine
 10
193.0
 20
953.5
 30
0.0
 11
212.5
 21
973.0
 31
0.0
  0
LINE
  5
105
330
17
100
AcDbEntity
  8
CREASE
100
AcDbLine
 10
245.0
 20
763.75
 30
0.0
 11
245.0
 21
790.75
 31
0.0
  0
LINE
  5
106
330
17
100
AcDbEntity
  8
SLOT
100
AcDbLine
 10
149.5
 20
926.75
 30
0.0
 11
149.5
 21
932.75
 31
0.0
  0
LINE
  5
107
330
17
100
AcDbEntity
  8
CREASE
100
AcDbLine
 10
155.75
 20
965.75
 30
0.0
 11
155.75
 21
956.5
 31
0.0
  0
LINE
  5
108
330
17
100
AcDbEntity
  8
CREASE
100
AcDbLine
 10
215.75
 20
844.75
 30
0.0
 11
224.0
 21
844.75
 31
0.0
  0
LINE
  5
109
330
17
100
AcDbEntity
  8
CREASE
100
AcDbLine
 10
203.25
 20
954.25
 30
0.0
 11
210.25
 21
959.75
 31
0.0
  0
LINE
  5
10A
330
17
100
AcDbEntity
  8
SLOT
100
AcDbLine
 10
178.75
 20
925.75
 30
0.0
 11
180.0
 21
931.75
 31
0.0
  0
LINE
  5
10B
330
17
100
AcDbEntity
  8
CREASE
100
AcDbLine
 10
146.75
 20
937.5
 30
0.0
 11
147.0
 21
929.25
 31
0.0
  0
LINE
  5
10C
330
17
100
AcDbEntity
  8
CREASE
100
AcDbLine
 10
179.75
 20
953.25
 30
0.0
 11
180.5
 21
945.25
 31
0.0
  0
LINE
  5
10D
330
17
100
AcDbEntity
  8
SLOT
100
AcDbLine
 10
193.75
 20
946.25
 30
0.0
 11
193.75
 21
953.25
 31
0.0
  0
LINE
  5
10E
330
17
100
AcDbEntity
  8
CUT
100
AcDbLine
 10
150.25
 20
885.25
 30
0.0
 11
151.5
 21
897.75
 31
0.0
  0
LINE
  5
10F
330
17
100
AcDbEntity
  8
CREASE
100
AcDbLine
 10
193.75
 20
800.0
 30
0.0
 11
194.25
 21
795.0
 31
0.0
  0
LINE
  5
110
330
17
100
AcDbEntity
  8
CREASE
100
AcDbLine
 10
203.0
 20
699.25
 30
0.0
 11
203.25
 21
692.0
 31
0.0
  0
LINE
  5
111
330
17
100
AcDbEntity
  8
CREASE
100
AcDbLine
 10
198.0
 20
971.25
 30
0.0
 11
198.25
 21
982.75
 31
0.0
  0
LINE
  5
112
330
17
100
AcDbEntity
  8
CREASE
100
AcDbLine
 10
156.25
 20
931.0
 30
0.0
 11
156.75
 21
939.25
 31
0.0
  0
LINE
  5
113
330
17
100
AcDbEntity
  8
CUT
100
AcDbLine
 10
155.75
 20
894.0
 30
0.0
 11
156.25
 21
907.0
 31
0.0
  0
LINE
  5
114
330
17
100
AcDbEntity
  8
CREASE
100
AcDbLine
 10
129.0
 20
740.75
 30
0.0
 11
129.0
 21
756.75
 31
0.0
  0
LINE
  5
115
330
17
100
AcDbEntity
  8
CUT
100
AcDbLine
 10
147.25
 20
925.25
 30
0.0
 11
148.0
 21
941.0
 31
0.0
  0
LINE
  5
116
330
17
100
AcDbEntity
  8
SLOT
100
AcDbLine
 10
162.25
 20
907.5
 30
0.0
 11
162.75
 21
914.0
 31
0.0
  0
LINE
  5
117
330
17
100
AcDbEntity
  8
SLOT
100
AcDbLine
 10
168.75
 20
897.0
 30
0.0
 11
169.5
 21
891.75
 31
0.0
  0
LINE
  5
118
330
17
100
AcDbEntity
  8
CREASE
100
AcDbLine
 10
146.5
 20
920.5
 30
0.0
 11
146.75
 21
911.0
 31
0.0
  0
LINE
  5
119
330
17
100
AcDbEntity
  8
FOLD
100
AcDbLine
 10
87.75
 20
761.75
 30
0.0
 11
87.75
 21
796.0
 31
0.0
  0
LINE
  5
11A
330
17
100
AcDbEntity
  8
CREASE
100
AcDbLine
 10
140.25
 20
777.25
 30
0.0
 11
141.5
 21
786.5
 31
0.0
  0
LINE
  5
11B
330
17
100
AcDbEntity
  8
CREASE
100
AcDbLine
 10
175.5
 20
926.75
 30
0.0
 11
176.5
 21
915.0
 31
0.0
  0
LINE
  5
11C
330
17
100
AcDbEntity
  8
CREASE
100
AcDbLine
 10
169.0
 20
949.75
 30
0.0
 11
179.5
 21
953.25
 31
0.0
  0
LINE
  5
11D
330
17
100
AcDbEntity
  8
SLOT
100
AcDbLine
 10
157.75
 20
938.5
 30
0.0
 11
157.75
 21
932.0
 31
0.0
  0
LINE
  5
11E
330
17
100
AcDbEntity
  8
CUT
100
AcDbLine
 10
172.75
 20
929.5
 30
0.0
 11
184.25
 21
939.25
 31
0.0
  0
LINE
  5
11F
330
17
100
AcDbEntity
  8
CREASE
100
AcDbLine
 10
151.0
 20
885.25
 30
0.0
 11
152.25
 21
897.0
 31
0.0
  0
LINE
  5
120
330
17
100
AcDbEntity
  8
CREASE
100
AcDbLine
 10
106.0
 20
904.5
 30
0.0
 11
106.25
 21
894.5
 31
0.0
  0
LINE
  5
121
330
17
100
AcDbEntity
  8
CREASE
100
AcDbLine
 10
198.0
 20
950.75
 30
0.0
 11
204.75
 21
956.75
 31
0.0
  0
LINE
  5
122
330
17
100
AcDbEntity
  8
CREASE
100
AcDbLine
 10
162.5
 20
932.5
 30
0.0
 11
172.0
 21
930.5
 31
0.0
  0
LINE
  5
123
330
17
100
AcDbEntity
  8
SLOT
100
AcDbLine
 10
178.25
 20
784.75
 30
0.0
 11
178.25
 21
792.0
 31
0.0
  0
LINE
  5
124
330
17
100
AcDbEntity
  8
CREASE
100
AcDbLine
 10
105.5
 20
917.75
 30
0.0
 11
106.0
 21
904.75
 31
0.0
  0
LINE
  5
125
330
17
100
AcDbEntity
  8
CUT
100
AcDbLine
 10
161.0
 20
911.75
 30
0.0
 11
162.5
 21
939.75
 31
0.0
  0
LINE
  5
126
330
17
100
AcDbEntity
  8
CREASE
100
AcDbLine
 10
108.25
 20
841.75
 30
0.0
 11
122.0
 21
842.25
 31
0.0
  0
LINE
  5
127
330
17
100
AcDbEntity
  8
CREASE
100
AcDbLine
 10
182.0
 20
940.25
 30
0.0
 11
183.0
 21
928.25
 31
0.0
  0
LINE
  5
128
330
17
100
AcDbEntity
  8
SLOT
100
AcDbLine
 10
192.75
 20
966.25
 30
0.0
 11
197.75
 21
967.5
 31
0.0
  0
LINE
  5
129
330
17
100
AcDbEntity
  8
CREASE
100
AcDbLine
 10
154.5
 20
954.25
 30
0.0
 11
155.0
 21
962.5
 31
0.0
  0
LINE
  5
12A
330
17
100
AcDbEntity
  8
CREASE
100
AcDbLine
 10
204.5
 20
677.25
 30
0.0
 11
204.5
 21
686.25
 31
0.0
  0
LINE
  5
12B
330
17
100
AcDbEntity
  8
SLOT
100
AcDbLine
 10
191.0
 20
940.75
 30
0.0
 11
195.5
 21
935.5
 31
0.0
  0
LINE
  5
12C
330
17
100
AcDbEntity
  8
SLOT
100
AcDbLine
 10
154.75
 20
914.5
 30
0.0
 11
157.25
 21
903.75
 31
0.0
  0
LINE
  5
12D
330
17
100
AcDbEntity
  8
CREASE
100
AcDbLine
 10
62.25
 20
754.0
 30
0.0
 11
77.5
 21
754.25
 31
0.0
  0
LINE
  5
12E
330
17
100
AcDbEntity
  8
CREASE
100
AcDbLine
 10
151.75
 20
946.75
 30
0.0
 11
152.0
 21
958.25
 31
0.0
  0
LINE
  5
12F
330
17
100
AcDbEntity
  8
CUT
100
AcDbLine
 10
167.0
 20
919.0
 30
0.0
 11
169.25
 21
936.75
 31
0.0
  0
LINE
  5
130
330
17
100
AcDbEntity
  8
CREASE
100
AcDbLine
 10
250.5
 20
853.75
 30
0.0
 11
269.75
 21
854.75
 31
0.0
  0
LINE
  5
131
330
17
100
AcDbEntity
  8
CREASE
100
AcDbLine
 10
130.0
 20
712.5
 30
0.0
 11
130.5
 21
718.25
 31
0.0
  0
LINE
  5
132
330
17
100
AcDbEntity
  8
SLOT
100
AcDbLine
 10
162.75
 20
911.5
 30
0.0
 11
166.0
 21
917.75
 31
0.0
  0
LINE
  5
133
330
17
100
AcDbEntity
  8
FOLD
100
AcDbLine
 10
207.25
 20
823.25
 30
0.0
 11
207.25
 21
842.75
 31
0.0
  0
LINE
  5
134
330
17
100
AcDbEntity
  8
CREASE
100
AcDbLine
 10
69.25
 20
964.25
 30
0.0
 11
78.0
 21
957.0
 31
0.0
  0
LINE
  5
135
330
17
100
AcDbEntity
  8
CREASE
100
AcDbLine
 10
146.5
 20
911.25
 30
0.0
 11
146.75
 21
920.75
 31
0.0
  0
LINE
  5
136
330
17
100
AcDbEntity
  8
FOLD
100
AcDbLine
 10
153.0
 20
829.5
 30
0.0
 11
153.25
 21
814.5
 31
0.0
  0
LINE
  5
137
330
17
100
AcDbEntity
  8
SLOT
100
AcDbLine
 10
153.25
 20
715.75
 30
0.0
 11
160.5
 21
715.5
 31
0.0
  0
LINE
  5
138
330
17
100
AcDbEntity
  8
CREASE
100
AcDbLine
 10
182.25
 20
713.75
 30
0.0
 11
194.5
 21
713.25
 31
0.0
  0
LINE
  5
139
330
17
100
AcDbEntity
  8
CREASE
100
AcDbLine
 10
176.25
 20
957.25
 30
0.0
 11
177.25
 21
946.0
 31
0.0
  0
LINE
  5
13A
330
17
100
AcDbEntity
  8
BRIDGE
100
AcDbLine
 10
244.0
 20
838.75
 30
0.0
 11
244.5
 21
829.25
 31
0.0
  0
LINE
  5
13B
330
17
100
AcDbEntity
  8
CREASE
100
AcDbLine
 10
127.25
 20
878.0
 30
0.0
 11
127.75
 21
844.75
 31
0.0
  0
LINE
  5
13C
330
17
100
AcDbEntity
  8
SLOT
100
AcDbLine
 10
148.75
 20
915.75
 30
0.0
 11
151.0
 21
909.75
 31
0.0
  0
LINE
  5
13D
330
17
100
AcDbEntity
  8
CREASE
100
AcDbLine
 10
182.5
 20
949.75
 30
0.0
 11
184.25
 21
957.5
 31
0.0
  0
LINE
  5
13E
330
17
100
AcDbEntity
  8
FOLD
100
AcDbLine
 10
169.0
 20
885.75
 30
0.0
 11
192.5
 21
886.75
 31
0.0
  0
LINE
  5
13F
330
17
100
AcDbEntity
  8
SLOT
100
AcDbLine
 10
153.25
 20
964.5
 30
0.0
 11
154.5
 21
958.25
 31
0.0
  0
LINE
  5
140
330
17
100
AcDbEntity
  8
CREASE
100
AcDbLine
 10
129.25
 20
755.5
 30
0.0
 11
151.75
 21
755.5
 31
0.0
  0
LINE
  5
141
330
17
100
AcDbEntity
  8
CUT
100
AcDbLine
 10
198.25
 20
945.0
 30
0.0
 11
199.25
 21
960.25
 31
0.0
  0
LINE
  5
142
330
17
100
AcDbEntity
  8
CREASE
100
AcDbLine
 10
283.75
 20
795.75
 30
0.0
 11
283.75
 21
789.5
 31
0.0
  0
LINE
  5
143
330
17
100
AcDbEntity
  8
CUT
100
AcDbLine
 10
164.5
 20
894.0
 30
0.0
 11
170.5
 21
910.5
 31
0.0
  0
LINE
  5
144
330
17
100
AcDbEntity
  8
CREASE
100
AcDbLine
 10
201.5
 20
883.75
 30
0.0
 11
214.5
 21
884.25
 31
0.0
  0
LINE
  5
145
330
17
100
AcDbEntity
  8
CREASE
100
AcDbLine
 10
158.25
 20
795.0
 30
0.0
 11
159.0
 21
785.0
 31
0.0
  0
LINE
  5
146
330
17
100
AcDbEntity
  8
CREASE
100
AcDbLine
 10
283.5
 20
807.5
 30
0.0
 11
283.75
 21
817.5
 31
0.0
  0
LINE
  5
147
330
17
100
AcDbEntity
  8
CREASE
100
AcDbLine
 10
153.75
 20
954.5
 30
0.0
 11
154.0
 21
963.25
 31
0.0
  0
LINE
  5
148
330
17
100
AcDbEntity
  8
CUT
100
AcDbLine
 10
163.75
 20
924.0
 30
0.0
 11
184.0
 21
939.75
 31
0.0
  0
LINE
  5
149
330
17
100
AcDbEntity
  8
CREASE
100
AcDbLine
 10
148.5
 20
971.25
 30
0.0
 11
149.25
 21
960.75
 31
0.0
  0
LINE
  5
14A
330
17
100
AcDbEntity
  8
CREASE
100
AcDbLine
 10
174.5
 20
924.0
 30
0.0
 11
189.5
 21
941.25
 31
0.0
  0
LINE
  5
14B
330
17
100
AcDbEntity
  8
FOLD
100
AcDbLine
 10
75.25
 20
721.5
 30
0.0
 11
81.75
 21
721.5
 31
0.0
  0
LINE
  5
14C
330
17
100
AcDbEntity
  8
CREASE
100
AcDbLine
 10
98.0
 20
949.0
 30
0.0
 11
109.0
 21
944.5
 31
0.0
  0
LINE
  5
14D
330
17
100
AcDbEntity
  8
FOLD
100
AcDbLine
 10
149.75
 20
722.5
 30
0.0
 11
165.5
 21
721.75
 31
0.0
  0
LINE
  5
14E
330
17
100
AcDbEntity
  8
CREASE
100
AcDbLine
 10
155.25
 20
714.75
 30
0.0
 11
167.5
 21
714.75
 31
0.0
  0
LINE
  5
14F
330
17
100
AcDbEntity
  8
FOLD
100
AcDbLine
 10
154.25
 20
979.5
 30
0.0
 11
172.0
 21
980.25
 31
0.0
  0
LINE
  5
150
330
17
100
AcDbEntity
  8
SLOT
100
AcDbLine
 10
191.5
 20
713.5
 30
0.0
 11
191.5
 21
720.75
 31
0.0
  0
LINE
  5
151
330
17
100
AcDbEntity
  8
CREASE
100
AcDbLine
 10
185.75
 20
795.5
 30
0.0
 11
189.75
 21
784.5
 31
0.0
  0
LINE
  5
152
330
17
100
AcDbEntity
  8
SLOT
100
AcDbLine
 10
158.0
 20
918.5
 30
0.0
 11
160.5
 21
911.75
 31
0.0
  0
LINE
  5
153
330
17
100
AcDbEntity
  8
FOLD
100
AcDbLine
 10
176.5
 20
775.0
 30
0.0
 11
197.25
 21
775.0
 31
0.0
  0
LINE
  5
154
330
17
100
AcDbEntity
  8
CREASE
100
AcDbLine
 10
131.0
 20
914.5
 30
0.0
 11
148.0
 21
929.75
 31
0.0
  0
LINE
  5
155
330
17
100
AcDbEntity
  8
CUT
100
AcDbLine
 10
190.25
 20
923.25
 30
0.0
 11
190.5
 21
941.0
 31
0.0
  0
LINE
  5
156
330
17
100
AcDbEntity
  8
CREASE
100
AcDbLine
 10
194.5
 20
959.5
 30
0.0
 11
201.5
 21
966.5
 31
0.0
  0
LINE
  5
157
330
17
100
AcDbEntity
  8
CREASE
100
AcDbLine
 10
126.0
 20
680.25
 30
0.0
 11
127.0
 21
685.5
 31
0.0
  0
LINE
  5
158
330
17
100
AcDbEntity
  8
CREASE
100
AcDbLine
 10
251.5
 20
783.5
 30
0.0
 11
251.5
 21
790.5
 31
0.0
  0
LINE
  5
159
330
17
100
AcDbEntity
  8
SLOT
100
AcDbLine
 10
193.0
 20
821.25
 30
0.0
 11
194.75
 21
816.25
 31
0.0
  0
LINE
  5
15A
330
17
100
AcDbEntity
  8
SLOT
100
AcDbLine
 10
144.25
 20
718.5
 30
0.0
 11
144.75
 21
723.5
 31
0.0
  0
LINE
  5
15B
330
17
100
AcDbEntity
  8
CREASE
100
AcDbLine
 10
178.75
 20
957.0
 30
0.0
 11
189.75
 21
966.5
 31
0.0
  0
LINE
  5
15C
330
17
100
AcDbEntity
  8
CREASE
100
AcDbLine
 10
157.5
 20
909.0
 30
0.0
 11
157.5
 21
917.5
 31
0.0
  0
LINE
  5
15D
330
17
100
AcDbEntity
  8
CREASE
100
AcDbLine
 10
162.5
 20
916.5
 30
0.0
 11
163.75
 21
928.5
 31
0.0
  0
LINE
  5
15E
330
17
100
AcDbEntity
  8
CREASE
100
AcDbLine
 10
142.25
 20
715.25
 30
0.0
 11
142.5
 21
723.5
 31
0.0
  0
LINE
  5
15F
330
17
100
AcDbEntity
  8
BRIDGE
100
AcDbLine
 10
186.0
 20
814.5
 30
0.0
 11
194.75
 21
814.5
 31
0.0
  0
LINE
  5
160
330
17
100
AcDbEntity
  8
CREASE
100
AcDbLine
 10
209.25
 20
956.5
 30
0.0
 11
209.25
 21
964.75
 31
0.0
  0
LINE
  5
161
330
17
100
AcDbEntity
  8
CREASE
100
AcDbLine
 10
129.5
 20
712.5
 30
0.0
 11
130.5
 21
719.75
 31
0.0
  0
LINE
  5
162
330
17
100
AcDbEntity
  8
CREASE
100
AcDbLine
 10
284.0
 20
778.0
 30
0.0
 11
284.25
 21
769.0
 31
0.0
  0
LINE
  5
163
330
17
100
AcDbEntity
  8
SLOT
100
AcDbLine
 10
160.25
 20
785.75
 30
0.0
 11
160.25
 21
780.5
 31
0.0
  0
LINE
  5
164
330
17
100
AcDbEntity
  8
SLOT
100
AcDbLine
 10
179.0
 20
830.25
 30
0.0
 11
179.0
 21
820.0
 31
0.0
  0
LINE
  5
165
330
17
100
AcDbEntity
  8
CREASE
100
AcDbLine
 10
182.25
 20
959.25
 30
0.0
 11
189.5
 21
962.25
 31
0.0
  0
LINE
  5
166
330
17
100
AcDbEntity
  8
CREASE
100
AcDbLine
 10
252.5
 20
753.5
 30
0.0
 11
275.75
 21
749.5
 31
0.0
  0
LINE
  5
167
330
17
100
AcDbEntity
  8
FOLD
100
AcDbLine
 10
110.5
 20
891.75
 30
0.0
 11
121.5
 21
887.5
 31
0.0
  0
LINE
  5
168
330
17
100
AcDbEntity
  8
CREASE
100
AcDbLine
 10
77.5
 20
720.75
 30
0.0
 11
83.5
 21
720.75
 31
0.0
  0
LINE
  5
169
330
17
100
AcDbEntity
  8
SLOT
100
AcDbLine
 10
160.0
 20
980.75
 30
0.0
 11
160.5
 21
985.75
 31
0.0
  0
LINE
  5
16A
330
17
100
AcDbEntity
  8
CREASE
100
AcDbLine
 10
49.5
 20
907.5
 30
0.0
 11
56.0
 21
911.0
 31
0.0
  0
LINE
  5
16B
330
17
100
AcDbEntity
  8
SLOT
100
AcDbLine
 10
155.75
 20
824.75
 30
0.0
 11
156.25
 21
829.75
 31
0.0
  0
LINE
  5
16C
330
17
100
AcDbEntity
  8
SLOT
100
AcDbLine
 10
165.25
 20
967.5
 30
0.0
 11
166.0
 21
972.75
 31
0.0
  0
LINE
  5
16D
330
17
100
AcDbEntity
  8
CREASE
100
AcDbLine
 10
147.25
 20
964.0
 30
0.0
 11
147.25
 21
970.5
 31
0.0
  0
LINE
  5
16E
330
17
100
AcDbEntity
  8
CREASE
100
AcDbLine
 10
148.5
 20
910.5
 30
0.0
 11
148.75
 21
918.5
 31
0.0
  0
LINE
  5
16F
330
17
100
AcDbEntity
  8
SLOT
100
AcDbLine
 10
153.25
 20
829.25
 30
0.0
 11
153.25
 21
822.5
 31
0.0
  0
LINE
  5
170
330
17
100
AcDbEntity
  8
SLOT
100
AcDbLine
 10
151.25
 20
819.0
 30
0.0
 11
151.75
 21
824.75
 31
0.0
  0
LINE
  5
171
330
17
100
AcDbEntity
  8
SLOT
100
AcDbLine
 10
139.25
 20
718.5
 30
0.0
 11
140.0
 21
723.5
 31
0.0
  0
LINE
  5
172
330
17
100
AcDbEntity
  8
CREASE
100
AcDbLine
 10
153.75
 20
924.25
 30
0.0
 11
155.5
 21
916.25
 31
0.0
  0
LINE
  5
173
330
17
100
AcDbEntity
  8
SLOT
100
AcDbLine
 10
146.0
 20
902.25
 30
0.0
 11
146.0
 21
908.0
 31
0.0
  0
LINE
  5
174
330
17
100
AcDbEntity
  8
FOLD
100
AcDbLine
 10
176.5
 20
787.5
 30
0.0
 11
176.5
 21
779.25
 31
0.0
  0
LINE
  5
175
330
17
100
AcDbEntity
  8
CREASE
100
AcDbLine
 10
197.5
 20
924.5
 30
0.0
 11
203.5
 21
923.25
 31
0.0
  0
LINE
  5
176
330
17
100
AcDbEntity
  8
CREASE
100
AcDbLine
 10
171.75
 20
890.0
 30
0.0
 11
173.0
 21
882.25
 31
0.0
  0
LINE
  5
177
330
17
100
AcDbEntity
  8
SLOT
100
AcDbLine
 10
171.75
 20
941.0
 30
0.0
 11
172.5
 21
947.5
 31
0.0
  0
LINE
  5
178
330
17
100
AcDbEntity
  8
CREASE
100
AcDbLine
 10
156.0
 20
931.0
 30
0.0
 11
156.25
 21
939.5
 31
0.0
  0
LINE
  5
179
330
17
100
AcDbEntity
  8
SLOT
100
AcDbLine
 10
144.25
 20
968.0
 30
0.0
 11
145.5
 21
962.25
 31
0.0
  0
LINE
  5
17A
330
17
100
AcDbEntity
  8
FOLD
100
AcDbLine
 10
94.75
 20
762.25
 30
0.0
 11
115.75
 21
762.75
 31
0.0
  0
LINE
  5
17B
330
17
100
AcDbEntity
  8
SLOT
100
AcDbLine
 10
183.5
 20
786.25
 30
0.0
 11
184.75
 21
780.5
 31
0.0
  0
LINE
  5
17C
330
17
100
AcDbEntity
  8
FOLD
100
AcDbLine
 10
46.75
 20
808.5
 30
0.0
 11
46.75
 21
802.5
 31
0.0
  0
LINE
  5
17D
330
17
100
AcDbEntity
  8
CREASE
100
AcDbLine
 10
150.25
 20
944.25
 30
0.0
 11
150.25
 21
956.5
 31
0.0
  0
LINE
  5
17E
330
17
100
AcDbEntity
  8
CREASE
100
AcDbLine
 10
144.75
 20
679.25
 30
0.0
 11
168.5
 21
678.0
 31
0.0
  0
LINE
  5
17F
330
17
100
AcDbEntity
  8
CREASE
100
AcDbLine
 10
200.25
 20
959.0
 30
0.0
 11
206.75
 21
964.75
 31
0.0
  0
LINE
  5
180
330
17
100
AcDbEntity
  8
CREASE
100
AcDbLine
 10
209.25
 20
778.0
 30
0.0
 11
209.25
 21
791.25
 31
0.0
  0
LINE
  5
181
330
17
100
AcDbEntity
  8
CUT
100
AcDbLine
 10
190.5
 20
795.0
 30
0.0
 11
191.75
 21
782.5
 31
0.0
  0
LINE
  5
182
330
17
100
AcDbEntity
  8
CREASE
100
AcDbLine
 10
120.5
 20
957.0
 30
0.0
 11
120.5
 21
951.5
 31
0.0
  0
LINE
  5
183
330
17
100
AcDbEntity
  8
CREASE
100
AcDbLine
 10
142.75
 20
715.25
 30
0.0
 11
142.75
 21
723.5
 31
0.0
  0
LINE
  5
184
330
17
100
AcDbEntity
  8
CREASE
100
AcDbLine
 10
264.5
 20
878.25
 30
0.0
 11
272.75
 21
878.25
 31
0.0
  0
LINE
  5
185
330
17
100
AcDbEntity
  8
CREASE
100
AcDbLine
 10
155.5
 20
914.25
 30
0.0
 11
156.75
 21
925.0
 31
0.0
  0
LINE
  5
186
330
17
100
AcDbEntity
  8
FOLD
100
AcDbLine
 10
129.75
 20
920.5
 30
0.0
 11
129.75
 21
931.5
 31
0.0
  0
LINE
  5
187
330
17
100
AcDbEntity
  8
FOLD
100
AcDbLine
 10
150.75
 20
991.0
 30
0.0
 11
173.5
 21
992.75
 31
0.0
  0
LINE
  5
188
330
17
100
AcDbEntity
  8
FOLD
100
AcDbLine
 10
215.0
 20
846.0
 30
0.0
 11
229.0
 21
845.75
 31
0.0
  0
LINE
  5
189
330
17
100
AcDbEntity
  8
CREASE
100
AcDbLine
 10
138.0
 20
932.75
 30
0.0
 11
138.5
 21
925.0
 31
0.0
  0
LINE
  5
18A
330
17
100
AcDbEntity
  8
CREASE
100
AcDbLine
 10
175.25
 20
942.75
 30
0.0
 11
176.5
 21
952.5
 31
0.0
  0
LINE
  5
18B
330
17
100
AcDbEntity
  8
SLOT
100
AcDbLine
 10
185.5
 20
968.5
 30
0.0
 11
185.5
 21
963.0
 31
0.0
  0
LINE
  5
18C
330
17
100
AcDbEntity
  8
CREASE
100
AcDbLine
 10
206.25
 20
959.5
 30
0.0
 11
207.25
 21
970.75
 31
0.0
  0
LINE
  5
18D
330
17
100
AcDbEntity
  8
CREASE
100
AcDbLine
 10
46.0
 20
847.5
 30
0.0
 11
63.5
 21
847.5
 31
0.0
  0
LINE
  5
18E
330
17
100
AcDbEntity
  8
CREASE
100
AcDbLine
 10
168.0
 20
924.25
 30
0.0
 11
169.25
 21
935.0
 31
0.0
  0
LINE
  5
18F
330
17
100
AcDbEntity
  8
SLOT
100
AcDbLine
 10
148.0
 20
933.75
 30
0.0
 11
148.25
 21
939.75
 31
0.0
  0
LINE
  5
190
330
17
100
AcDbEntity
  8
CREASE
100
AcDbLine
 10
150.0
 20
888.25
 30
0.0
 11
151.25
 21
898.0
 31
0.0
  0
LINE
  5
191
330
17
100
AcDbEntity
  8
CREASE
100
AcDbLine
 10
80.25
 20
936.75
 30
0.0
 11
96.25
 21
934.25
 31
0.0
  0
LINE
  5
192
330
17
100
AcDbEntity
  8
FOLD
100
AcDbLine
 10
141.25
 20
715.25
 30
0.0
 11
141.75
 21
722.25
 31
0.0
  0
LINE
  5
193
330
17
100
AcDbEntity
  8
CREASE
100
AcDbLine
 10
174.5
 20
921.0
 30
0.0
 11
175.75
 21
927.25
 31
0.0
  0
LINE
  5
194
330
17
100
AcDbEntity
  8
SLOT
100
AcDbLine
 10
194.0
 20
954.25
 30
0.0
 11
195.75
 21
961.25
 31
0.0
  0
LINE
  5
195
330
17
100
AcDbEntity
  8
CREASE
100
AcDbLine
 10
167.25
 20
940.0
 30
0.0
 11
168.25
 21
949.0
 31
0.0
  0
LINE
  5
196
330
17
100
AcDbEntity
  8
CUT
100
AcDbLine
 10
178.0
 20
678.5
 30
0.0
 11
192.0
 21
678.0
 31
0.0
  0
LINE
  5
197
330
17
100
AcDbEntity
  8
SLOT
100
AcDbLine
 10
160.0
 20
899.0
 30
0.0
 11
165.5
 21
895.0
 31
0.0
  0
LINE
  5
198
330
17
100
AcDbEntity
  8
FOLD
100
AcDbLine
 10
60.0
 20
728.0
 30
0.0
 11
60.0
 21
742.75
 31
0.0
  0
LINE
  5
199
330
17
100
AcDbEntity
  8
CUT
100
AcDbLine
 10
185.0
 20
795.25
 30
0.0
 11
187.25
 21
780.75
 31
0.0
  0
LINE
  5
19A
330
17
100
AcDbEntity
  8
CREASE
100
AcDbLine
 10
147.0
 20
921.0
 30
0.0
 11
147.5
 21
910.75
 31
0.0
  0
LINE
  5
19B
330
17
100
AcDbEntity
  8
SLOT
100
AcDbLine
 10
135.0
 20
719.25
 30
0.0
 11
146.0
 21
719.5
 31
0.0
  0
LINE
  5
19C
330
17
100
AcDbEntity
  8
FOLD
100
AcDbLine
 10
80.5
 20
956.5
 30
0.0
 11
94.0
 21
951.0
 31
0.0
  0
LINE
  5
19D
330
17
100
AcDbEntity
  8
CREASE
100
AcDbLine
 10
208.25
 20
832.0
 30
0.0
 11
208.25
 21
841.5
 31
0.0
  0
LINE
  5
19E
330
17
100
AcDbEntity
  8
SLOT
100
AcDbLine
 10
201.75
 20
962.0
 30
0.0
 11
201.75
 21
969.25
 31
0.0
  0
LINE
  5
19F
330
17
100
AcDbEntity
  8
CUT
100
AcDbLine
 10
152.75
 20
947.75
 30
0.0
 11
153.75
 21
964.0
 31
0.0
  0
LINE
  5
1A0
330
17
100
AcDbEntity
  8
CREASE
100
AcDbLine
 10
208.75
 20
762.5
 30
0.0
 11
217.5
 21
761.0
 31
0.0
  0
LINE
  5
1A1
330
17
100
AcDbEntity
  8
CREASE
100
AcDbLine
 10
147.75
 20
717.0
 30
0.0
 11
148.5
 21
723.0
 31
0.0
  0
LINE
  5
1A2
330
17
100
AcDbEntity
  8
CUT
100
AcDbLine
 10
209.75
 20
956.5
 30
0.0
 11
210.5
 21
974.5
 31
0.0
  0
LINE
  5
1A3
330
17
100
AcDbEntity
  8
CREASE
100
AcDbLine
 10
202.5
 20
693.0
 30
0.0
 11
204.25
 21
683.5
 31
0.0
  0
LINE
  5
1A4
330
17
100
AcDbEntity
  8
CREASE
100
AcDbLine
 10
152.75
 20
779.25
 30
0.0
 11
154.0
 21
790.75
 31
0.0
  0
LINE
  5
1A5
330
17
100
AcDbEntity
  8
SLOT
100
AcDbLine
 10
150.5
 20
824.75
 30
0.0
 11
151.0
 21
829.75
 31
0.0
  0
LINE
  5
1A6
330
17
100
AcDbEntity
  8
SLOT
100
AcDbLine
 10
149.75
 20
824.75
 30
0.0
 11
149.75
 21
829.75
 31
0.0
  0
LINE
  5
1A7
330
17
100
AcDbEntity
  8
SLOT
100
AcDbLine
 10
184.25
 20
814.25
 30
0.0
 11
184.25
 21
820.25
 31
0.0
  0
LINE
  5
1A8
330
17
100
AcDbEntity
  8
CREASE
100
AcDbLine
 10
272.75
 20
878.0
 30
0.0
 11
272.75
 21
872.75
 31
0.0
  0
LINE
  5
1A9
330
17
100
AcDbEntity
  8
SLOT
100
AcDbLine
 10
180.0
 20
830.0
 30
0.0
 11
180.5
 21
818.5
 31
0.0
  0
LINE
  5
1AA
330
17
100
AcDbEntity
  8
CREASE
100
AcDbLine
 10
190.5
 20
832.25
 30
0.0
 11
192.25
 21
820.75
 31
0.0
  0
LINE
  5
1AB
330
17
100
AcDbEntity
  8
CREASE
100
AcDbLine
 10
250.0
 20
830.75
 30
0.0
 11
250.0
 21
854.5
 31
0.0
  0
LINE
  5
1AC
330
17
100
AcDbEntity
  8
CREASE
100
AcDbLine
 10
146.5
 20
778.75
 30
0.0
 11
147.25
 21
784.25
 31
0.0
  0
LINE
  5
1AD
330
17
100
AcDbEntity
  8
CREASE
100
AcDbLine
 10
152.25
 20
947.25
 30
0.0
 11
152.25
 21
958.5
 31
0.0
  0
LINE
  5
1AE
330
17
100
AcDbEntity
  8
CUT
100
AcDbLine
 10
179.0
 20
915.0
 30
0.0
 11
182.5
 21
930.5
 31
0.0
  0
LINE
  5
1AF
330
17
100
AcDbEntity
  8
CUT
100
AcDbLine
 10
142.5
 20
935.0
 30
0.0
 11
143.75
 21
917.0
 31
0.0
  0
LINE
  5
1B0
330
17
100
AcDbEntity
  8
FOLD
100
AcDbLine
 10
227.25
 20
885.0
 30
0.0
 11
238.5
 21
885.75
 31
0.0
  0
LINE
  5
1B1
330
17
100
AcDbEntity
  8
CREASE
100
AcDbLine
 10
184.25
 20
916.25
 30
0.0
 11
186.5
 21
925.0
 31
0.0
  0
LINE
  5
1B2
330
17
100
AcDbEntity
  8
SLOT
100
AcDbLine
 10
171.5
 20
935.5
 30
0.0
 11
174.75
 21
942.25
 31
0.0
  0
LINE
  5
1B3
330
17
100
AcDbEntity
  8
SLOT
100
AcDbLine
 10
144.0
 20
959.5
 30
0.0
 11
145.75
 21
952.25
 31
0.0
  0
LINE
  5
1B4
330
17
100
AcDbEntity
  8
CREASE
100
AcDbLine
 10
170.75
 20
940.75
 30
0.0
 11
172.0
 21
951.75
 31
0.0
  0
LINE
  5
1B5
330
17
100
AcDbEntity
  8
CREASE
100
AcDbLine
 10
168.25
 20
940.25
 30
0.0
 11
170.0
 21
950.25
 31
0.0
  0
LINE
  5
1B6
330
17
100
AcDbEntity
  8
CREASE
100
AcDbLine
 10
150.5
 20
957.25
 30
0.0
 11
151.0
 21
946.5
 31
0.0
  0
LINE
  5
1B7
330
17
100
AcDbEntity
  8
CREASE
100
AcDbLine
 10
147.25
 20
978.5
 30
0.0
 11
147.25
 21
983.75
 31
0.0
  0
LINE
  5
1B8
330
17
100
AcDbEntity
  8
CREASE
100
AcDbLine
 10
144.75
 20
939.5
 30
0.0
 11
150.0
 21
945.25
 31
0.0
  0
LINE
  5
1B9
330
17
100
AcDbEntity
  8
CREASE
100
AcDbLine
 10
192.25
 20
754.75
 30
0.0
 11
202.5
 21
754.75
 31
0.0
  0
LINE
  5
1BA
330
17
100
AcDbEntity
  8
SLOT
100
AcDbLine
 10
158.75
 20
912.0
 30
0.0
 11
159.75
 21
917.5
 31
0.0
  0
LINE
  5
1BB
330
17
100
AcDbEntity
  8
CUT
100
AcDbLine
 10
150.75
 20
815.25
 30
0.0
 11
160.25
 21
815.25
 31
0.0
  0
LINE
  5
1BC
330
17
100
AcDbEntity
  8
SLOT
100
AcDbLine
 10
162.5
 20
971.25
 30
0.0
 11
163.25
 21
966.0
 31
0.0
  0
LINE
  5
1BD
330
17
100
AcDbEntity
  8
CREASE
100
AcDbLine
 10
149.5
 20
952.5
 30
0.0
 11
153.25
 21
964.25
 31
0.0
  0
LINE
  5
1BE
330
17
100
AcDbEntity
  8
CREASE
100
AcDbLine
 10
145.0
 20
851.25
 30
0.0
 11
157.0
 21
851.75
 31
0.0
  0
LINE
  5
1BF
330
17
100
AcDbEntity
  8
CREASE
100
AcDbLine
 10
138.0
 20
926.5
 30
0.0
 11
143.0
 21
931.5
 31
0.0
  0
LINE
  5
1C0
330
17
100
AcDbEntity
  8
SLOT
100
AcDbLine
 10
201.0
 20
760.0
 30
0.0
 11
206.0
 21
759.75
 31
0.0
  0
LINE
  5
1C1
330
17
100
AcDbEntity
  8
CREASE
100
AcDbLine
 10
168.25
 20
884.5
 30
0.0
 11
182.25
 21
884.75
 31
0.0
  0
LINE
  5
1C2
330
17
100
AcDbEntity
  8
CUT
100
AcDbLine
 10
155.5
 20
720.0
 30
0.0
 11
169.5
 21
719.75
 31
0.0
  0
LINE
  5
1C3
330
17
100
AcDbEntity
  8
FOLD
100
AcDbLine
 10
125.0
 20
680.75
 30
0.0
 11
126.5
 21
690.0
 31
0.0
  0
LINE
  5
1C4
330
17
100
AcDbEntity
  8
CREASE
100
AcDbLine
 10
151.5
 20
815.5
 30
0.0
 11
152.75
 21
821.75
 31
0.0
  0
LINE
  5
1C5
330
17
100
AcDbEntity
  8
CREASE
100
AcDbLine
 10
85.5
 20
963.75
 30
0.0
 11
91.25
 21
961.5
 31
0.0
  0
LINE
  5
1C6
330
17
100
AcDbEntity
  8
SLOT
100
AcDbLine
 10
190.0
 20
941.0
 30
0.0
 11
190.25
 21
935.75
 31
0.0
  0
LINE
  5
1C7
330
17
100
AcDbEntity
  8
SLOT
100
AcDbLine
 10
166.75
 20
905.25
 30
0.0
 11
167.75
 21
910.5
 31
0.0
  0
LINE
  5
1C8
330
17
100
AcDbEntity
  8
CUT
100
AcDbLine
 10
187.25
 20
941.0
 30
0.0
 11
188.0
 21
917.75
 31
0.0
  0
LINE
  5
1C9
330
17
100
AcDbEntity
  8
SLOT
100
AcDbLine
 10
176.5
 20
820.0
 30
0.0
 11
177.75
 21
814.5
 31
0.0
  0
LINE
  5
1CA
330
17
100
AcDbEntity
  8
CREASE
100
AcDbLine
 10
96.25
 20
753.5
 30
0.0
 11
125.0
 21
753.5
 31
0.0
  0
LINE
  5
1CB
330
17
100
AcDbEntity
  8
CREASE
100
AcDbLine
 10
180.0
 20
973.5
 30
0.0
 11
187.25
 21
963.0
 31
0.0
  0
LINE
  5
1CC
330
17
100
AcDbEntity
  8
FOLD
100
AcDbLine
 10
18.5
 20
909.25
 30
0.0
 11
24.0
 21
908.25
 31
0.0
  0
LINE
  5
1CD
330
17
100
AcDbEntity
  8
CREASE
100
AcDbLine
 10
142.75
 20
899.0
 30
0.0
 11
143.25
 21
907.0
 31
0.0
  0
LINE
  5
1CE
330
17
100
AcDbEntity
  8
FOLD
100
AcDbLine
 10
75.5
 20
960.75
 30
0.0
 11
80.75
 21
956.5
 31
0.0
  0
LINE
  5
1CF
330
17
100
AcDbEntity
  8
CREASE
100
AcDbLine
 10
61.0
 20
973.25
 30
0.0
 11
66.5
 21
968.5
 31
0.0
  0
LINE
  5
1D0
330
17
100
AcDbEntity
  8
CREASE
100
AcDbLine
 10
168.75
 20
973.75
 30
0.0
 11
170.25
 21
964.75
 31
0.0
  0
LINE
  5
1D1
330
17
100
AcDbEntity
  8
CUT
100
AcDbLine
 10
155.5
 20
904.5
 30
0.0
 11
159.25
 21
917.5
 31
0.0
  0
LINE
  5
1D2
330
17
100
AcDbEntity
  8
CREASE
100
AcDbLine
 10
168.25
 20
924.0
 30
0.0
 11
170.0
 21
936.75
 31
0.0
  0
LINE
  5
1D3
330
17
100
AcDbEntity
  8
CREASE
100
AcDbLine
 10
167.5
 20
940.0
 30
0.0
 11
169.0
 21
948.5
 31
0.0
  0
LINE
  5
1D4
330
17
100
AcDbEntity
  8
SLOT
100
AcDbLine
 10
140.5
 20
782.75
 30
0.0
 11
141.0
 21
788.75
 31
0.0
  0
LINE
  5
1D5
330
17
100
AcDbEntity
  8
CUT
100
AcDbLine
 10
142.0
 20
934.5
 30
0.0
 11
143.5
 21
917.0
 31
0.0
  0
LINE
  5
1D6
330
17
100
AcDbEntity
  8
CREASE
100
AcDbLine
 10
211.5
 20
852.25
 30
0.0
 11
220.0
 21
852.25
 31
0.0
  0
LINE
  5
1D7
330
17
100
AcDbEntity
  8
FOLD
100
AcDbLine
 10
177.25
 20
773.75
 30
0.0
 11
197.5
 21
773.75
 31
0.0
  0
LINE
  5
1D8
330
17
100
AcDbEntity
  8
CREASE
100
AcDbLine
 10
172.5
 20
919.25
 30
0.0
 11
181.25
 21
915.25
 31
0.0
  0
LINE
  5
1D9
330
17
100
AcDbEntity
  8
CREASE
100
AcDbLine
 10
164.75
 20
927.25
 30
0.0
 11
169.0
 21
936.75
 31
0.0
  0
LINE
  5
1DA
330
17
100
AcDbEntity
  8
SLOT
100
AcDbLine
 10
190.25
 20
964.25
 30
0.0
 11
190.25
 21
969.75
 31
0.0
  0
LINE
  5
1DB
330
17
100
AcDbEntity
  8
CREASE
100
AcDbLine
 10
189.5
 20
944.5
 30
0.0
 11
196.75
 21
949.5
 31
0.0
  0
LINE
  5
1DC
330
17
100
AcDbEntity
  8
FOLD
100
AcDbLine
 10
188.25
 20
850.75
 30
0.0
 11
206.25
 21
850.75
 31
0.0
  0
LINE
  5
1DD
330
17
100
AcDbEntity
  8
CREASE
100
AcDbLine
 10
170.5
 20
964.5
 30
0.0
 11
175.75
 21
969.75
 31
0.0
  0
LINE
  5
1DE
330
17
100
AcDbEntity
  8
CREASE
100
AcDbLine
 10
156.5
 20
956.0
 30
0.0
 11
157.75
 21
963.75
 31
0.0
  0
LINE
  5
1DF
330
17
100
AcDbEntity
  8
CREASE
100
AcDbLine
 10
162.5
 20
909.5
 30
0.0
 11
163.25
 21
919.0
 31
0.0
  0
LINE
  5
1E0
330
17
100
AcDbEntity
  8
CREASE
100
AcDbLine
 10
184.0
 20
794.5
 30
0.0
 11
185.25
 21
786.75
 31
0.0
  0
LINE
  5
1E1
330
17
100
AcDbEntity
  8
CREASE
100
AcDbLine
 10
162.75
 20
917.75
 30
0.0
 11
164.0
 21
927.75
 31
0.0
  0
LINE
  5
1E2
330
17
100
AcDbEntity
  8
CREASE
100
AcDbLine
 10
202.75
 20
941.0
 30
0.0
 11
208.25
 21
940.0
 31
0.0
  0
LINE
  5
1E3
330
17
100
AcDbEntity
  8
CUT
100
AcDbLine
 10
166.0
 20
907.75
 30
0.0
 11
172.75
 21
919.75
 31
0.0
  0
LINE
  5
1E4
330
17
100
AcDbEntity
  8
CUT
100
AcDbLine
 10
174.0
 20
948.25
 30
0.0
 11
176.0
 21
932.5
 31
0.0
  0
LINE
  5
1E5
330
17
100
AcDbEntity
  8
CUT
100
AcDbLine
 10
80.75
 20
867.5
 30
0.0
 11
90.25
 21
881.75
 31
0.0
  0
LINE
  5
1E6
330
17
100
AcDbEntity
  8
SLOT
100
AcDbLine
 10
149.25
 20
964.0
 30
0.0
 11
149.25
 21
971.25
 31
0.0
  0
LINE
  5
1E7
330
17
100
AcDbEntity
  8
CREASE
100
AcDbLine
 10
130.5
 20
889.25
 30
0.0
 11
130.75
 21
883.5
 31
0.0
  0
LINE
  5
1E8
330
17
100
AcDbEntity
  8
SLOT
100
AcDbLine
 10
171.5
 20
963.25
 30
0.0
 11
173.75
 21
969.25
 31
0.0
  0
LINE
  5
1E9
330
17
100
AcDbEntity
  8
CREASE
100
AcDbLine
 10
150.75
 20
964.25
 30
0.0
 11
150.75
 21
953.75
 31
0.0
  0
LINE
  5
1EA
330
17
100
AcDbEntity
  8
FOLD
100
AcDbLine
 10
43.0
 20
906.75
 30
0.0
 11
53.75
 21
910.0
 31
0.0
  0
LINE
  5
1EB
330
17
100
AcDbEntity
  8
SLOT
100
AcDbLine
 10
148.25
 20
968.0
 30
0.0
 11
148.25
 21
961.0
 31
0.0
  0
LINE
  5
1EC
330
17
100
AcDbEntity
  8
CREASE
100
AcDbLine
 10
200.25
 20
960.5
 30
0.0
 11
201.0
 21
969.0
 31
0.0
  0
LINE
  5
1ED
330
17
100
AcDbEntity
  8
SLOT
100
AcDbLine
 10
153.0
 20
937.0
 30
0.0
 11
153.5
 21
943.25
 31
0.0
  0
LINE
  5
1EE
330
17
100
AcDbEntity
  8
SLOT
100
AcDbLine
 10
206.5
 20
931.0
 30
0.0
 11
207.25
 21
936.25
 31
0.0
  0
LINE
  5
1EF
330
17
100
AcDbEntity
  8
CREASE
100
AcDbLine
 10
155.0
 20
931.0
 30
0.0
 11
156.0
 21
939.25
 31
0.0
  0
LINE
  5
1F0
330
17
100
AcDbEntity
  8
CREASE
100
AcDbLine
 10
139.25
 20
776.5
 30
0.0
 11
140.5
 21
788.75
 31
0.0
  0
LINE
  5
1F1
330
17
100
AcDbEntity
  8
CUT
100
AcDbLine
 10
190.75
 20
718.75
 30
0.0
 11
201.0
 21
718.25
 31
0.0
  0
LINE
  5
1F2
330
17
100
AcDbEntity
  8
CREASE
100
AcDbLine
 10
176.0
 20
952.5
 30
0.0
 11
184.0
 21
943.75
 31
0.0
  0
LINE
  5
1F3
330
17
100
AcDbEntity
  8
CUT
100
AcDbLine
 10
160.75
 20
922.75
 30
0.0
 11
162.25
 21
936.5
 31
0.0
  0
LINE
  5
1F4
330
17
100
AcDbEntity
  8
CREASE
100
AcDbLine
 10
142.25
 20
941.25
 30
0.0
 11
150.5
 21
939.75
 31
0.0
  0
LINE
  5
1F5
330
17
100
AcDbEntity
  8
CREASE
100
AcDbLine
 10
238.75
 20
884.0
 30
0.0
 11
249.0
 21
870.0
 31
0.0
  0
LINE
  5
1F6
330
17
100
AcDbEntity
  8
CREASE
100
AcDbLine
 10
178.75
 20
922.25
 30
0.0
 11
188.5
 21
918.0
 31
0.0
  0
LINE
  5
1F7
330
17
100
AcDbEntity
  8
CREASE
100
AcDbLine
 10
160.25
 20
911.75
 30
0.0
 11
161.0
 21
919.25
 31
0.0
  0
LINE
  5
1F8
330
17
100
AcDbEntity
  8
SLOT
100
AcDbLine
 10
155.25
 20
950.75
 30
0.0
 11
155.75
 21
956.25
 31
0.0
  0
LINE
  5
1F9
330
17
100
AcDbEntity
  8
FOLD
100
AcDbLine
 10
201.75
 20
852.0
 30
0.0
 11
201.75
 21
858.0
 31
0.0
  0
LINE
  5
1FA
330
17
100
AcDbEntity
  8
CUT
100
AcDbLine
 10
167.25
 20
924.0
 30
0.0
 11
168.5
 21
936.75
 31
0.0
  0
LINE
  5
1FB
330
17
100
AcDbEntity
  8
FOLD
100
AcDbLine
 10
81.75
 20
937.75
 30
0.0
 11
91.0
 21
936.5
 31
0.0
  0
LINE
  5
1FC
330
17
100
AcDbEntity
  8
SLOT
100
AcDbLine
 10
188.5
 20
820.5
 30
0.0
 11
188.5
 21
815.25
 31
0.0
  0
LINE
  5
1FD
330
17
100
AcDbEntity
  8
SLOT
100
AcDbLine
 10
191.5
 20
966.25
 30
0.0
 11
191.5
 21
961.25
 31
0.0
  0
LINE
  5
1FE
330
17
100
AcDbEntity
  8
FOLD
100
AcDbLine
 10
157.25
 20
949.25
 30
0.0
 11
158.75
 21
956.5
 31
0.0
  0
LINE
  5
1FF
330
17
100
AcDbEntity
  8
CREASE
100
AcDbLine
 10
187.5
 20
963.5
 30
0.0
 11
189.0
 21
971.75
 31
0.0
  0
LINE
  5
200
330
17
100
AcDbEntity
  8
CREASE
100
AcDbLine
 10
36.75
 20
982.0
 30
0.0
 11
44.0
 21
980.0
 31
0.0
  0
LINE
  5
201
330
17
100
AcDbEntity
  8
CREASE
100
AcDbLine
 10
125.5
 20
844.25
 30
0.0
 11
128.5
 21
850.75
 31
0.0
  0
LINE
  5
202
330
17
100
AcDbEntity
  8
CUT
100
AcDbLine
 10
122.5
 20
798.25
 30
0.0
 11
122.75
 21
778.5
 31
0.0
  0
LINE
  5
203
330
17
100
AcDbEntity
  8
SLOT
100
AcDbLine
 10
144.0
 20
910.0
 30
0.0
 11
147.0
 21
904.0
 31
0.0
  0
LINE
  5
204
330
17
100
AcDbEntity
  8
CREASE
100
AcDbLine
 10
188.0
 20
949.75
 30
0.0
 11
188.5
 21
938.75
 31
0.0
  0
LINE
  5
205
330
17
100
AcDbEntity
  8
SLOT
100
AcDbLine
 10
173.5
 20
948.25
 30
0.0
 11
174.25
 21
942.75
 31
0.0
  0
LINE
  5
206
330
17
100
AcDbEntity
  8
FOLD
100
AcDbLine
 10
174.0
 20
961.0
 30
0.0
 11
185.75
 21
971.0
 31
0.0
  0
LINE
  5
207
330
17
100
AcDbEntity
  8
SLOT
100
AcDbLine
 10
146.0
 20
927.5
 30
0.0
 11
146.0
 21
932.5
 31
0.0
  0
LINE
  5
208
330
17
100
AcDbEntity
  8
CREASE
100
AcDbLine
 10
169.75
 20
897.25
 30
0.0
 11
171.25
 21
888.75
 31
0.0
  0
LINE
  5
209
330
17
100
AcDbEntity
  8
CREASE
100
AcDbLine
 10
69.5
 20
965.5
 30
0.0
 11
78.75
 21
957.75
 31
0.0
  0
LINE
  5
20A
330
17
100
AcDbEntity
  8
CUT
100
AcDbLine
 10
178.0
 20
929.75
 30
0.0
 11
180.5
 21
915.25
 31
0.0
  0
LINE
  5
20B
330
17
100
AcDbEntity
  8
FOLD
100
AcDbLine
 10
90.75
 20
882.0
 30
0.0
 11
101.5
 21
881.75
 31
0.0
  0
LINE
  5
20C
330
17
100
AcDbEntity
  8
SLOT
100
AcDbLine
 10
160.25
 20
899.75
 30
0.0
 11
162.5
 21
893.75
 31
0.0
  0
LINE
  5
20D
330
17
100
AcDbEntity
  8
CREASE
100
AcDbLine
 10
133.75
 20
978.75
 30
0.0
 11
141.5
 21
979.25
 31
0.0
  0
LINE
  5
20E
330
17
100
AcDbEntity
  8
CREASE
100
AcDbLine
 10
197.75
 20
721.75
 30
0.0
 11
199.75
 21
713.25
 31
0.0
  0
LINE
  5
20F
330
17
100
AcDbEntity
  8
CREASE
100
AcDbLine
 10
87.0
 20
841.5
 30
0.0
 11
102.5
 21
841.5
 31
0.0
  0
LINE
  5
210
330
17
100
AcDbEntity
  8
SLOT
100
AcDbLine
 10
152.0
 20
915.25
 30
0.0
 11
152.0
 21
921.75
 31
0.0
  0
LINE
  5
211
330
17
100
AcDbEntity
  8
SLOT
100
AcDbLine
 10
182.75
 20
940.0
 30
0.0
 11
182.75
 21
933.25
 31
0.0
  0
LINE
  5
212
330
17
100
AcDbEntity
  8
SLOT
100
AcDbLine
 10
154.0
 20
932.0
 30
0.0
 11
154.0
 21
938.75
 31
0.0
  0
LINE
  5
213
330
17
100
AcDbEntity
  8
CUT
100
AcDbLine
 10
130.5
 20
918.0
 30
0.0
 11
139.0
 21
903.25
 31
0.0
  0
LINE
  5
214
330
17
100
AcDbEntity
  8
CUT
100
AcDbLine
 10
177.5
 20
915.0
 30
0.0
 11
203.25
 21
924.25
 31
0.0
  0
LINE
  5
215
330
17
100
AcDbEntity
  8
CREASE
100
AcDbLine
 10
202.75
 20
953.75
 30
0.0
 11
212.0
 21
959.0
 31
0.0
  0
LINE
  5
216
330
17
100
AcDbEntity
  8
CREASE
100
AcDbLine
 10
158.5
 20
918.25
 30
0.0
 11
159.5
 21
928.75
 31
0.0
  0
LINE
  5
217
330
17
100
AcDbEntity
  8
CREASE
100
AcDbLine
 10
189.0
 20
931.25
 30
0.0
 11
189.0
 21
941.5
 31
0.0
  0
LINE
  5
218
330
17
100
AcDbEntity
  8
SLOT
100
AcDbLine
 10
196.5
 20
947.75
 30
0.0
 11
196.5
 21
952.75
 31
0.0
  0
LINE
  5
219
330
17
100
AcDbEntity
  8
CREASE
100
AcDbLine
 10
202.0
 20
870.5
 30
0.0
 11
202.0
 21
880.5
 31
0.0
  0
LINE
  5
21A
330
17
100
AcDbEntity
  8
CREASE
100
AcDbLine
 10
275.25
 20
738.25
 30
0.0
 11
275.75
 21
722.0
 31
0.0
  0
LINE
  5
21B
330
17
100
AcDbEntity
  8
CREASE
100
AcDbLine
 10
129.0
 20
717.25
 30
0.0
 11
129.75
 21
723.0
 31
0.0
  0
LINE
  5
21C
330
17
100
AcDbEntity
  8
FOLD
100
AcDbLine
 10
176.0
 20
817.75
 30
0.0
 11
176.5
 21
812.75
 31
0.0
  0
LINE
  5
21D
330
17
100
AcDbEntity
  8
CREASE
100
AcDbLine
 10
80.5
 20
955.5
 30
0.0
 11
97.75
 21
947.75
 31
0.0
  0
LINE
  5
21E
330
17
100
AcDbEntity
  8
CREASE
100
AcDbLine
 10
154.75
 20
818.0
 30
0.0
 11
156.0
 21
829.5
 31
0.0
  0
LINE
  5
21F
330
17
100
AcDbEntity
  8
FOLD
100
AcDbLine
 10
238.75
 20
885.5
 30
0.0
 11
250.5
 21
869.25
 31
0.0
  0
LINE
  5
220
330
17
100
AcDbEntity
  8
SLOT
100
AcDbLine
 10
160.75
 20
912.75
 30
0.0
 11
161.25
 21
919.75
 31
0.0
  0
LINE
  5
221
330
17
100
AcDbEntity
  8
CREASE
100
AcDbLine
 10
192.0
 20
924.25
 30
0.0
 11
192.25
 21
931.75
 31
0.0
  0
LINE
  5
222
330
17
100
AcDbEntity
  8
CREASE
100
AcDbLine
 10
212.5
 20
759.25
 30
0.0
 11
231.75
 21
758.0
 31
0.0
  0
LINE
  5
223
330
17
100
AcDbEntity
  8
CREASE
100
AcDbLine
 10
188.0
 20
932.0
 30
0.0
 11
190.75
 21
939.75
 31
0.0
  0
LINE
  5
224
330
17
100
AcDbEntity
  8
CREASE
100
AcDbLine
 10
158.25
 20
926.0
 30
0.0
 11
167.75
 21
932.0
 31
0.0
  0
LINE
  5
225
330
17
100
AcDbEntity
  8
CREASE
100
AcDbLine
 10
116.0
 20
717.5
 30
0.0
 11
124.5
 21
717.25
 31
0.0
  0
LINE
  5
226
330
17
100
AcDbEntity
  8
CREASE
100
AcDbLine
 10
175.25
 20
934.25
 30
0.0
 11
179.0
 21
941.25
 31
0.0
  0
LINE
  5
227
330
17
100
AcDbEntity
  8
CREASE
100
AcDbLine
 10
70.25
 20
720.75
 30
0.0
 11
75.5
 21
720.5
 31
0.0
  0
LINE
  5
228
330
17
100
AcDbEntity
  8
FOLD
100
AcDbLine
 10
244.25
 20
764.75
 30
0.0
 11
244.25
 21
784.5
 31
0.0
  0
LINE
  5
229
330
17
100
AcDbEntity
  8
FOLD
100
AcDbLine
 10
109.0
 20
967.0
 30
0.0
 11
127.0
 21
973.25
 31
0.0
  0
LINE
  5
22A
330
17
100
AcDbEntity
  8
SLOT
100
AcDbLine
 10
158.0
 20
917.5
 30
0.0
 11
160.0
 21
911.75
 31
0.0
  0
LINE
  5
22B
330
17
100
AcDbEntity
  8
FOLD
100
AcDbLine
 10
284.0
 20
792.25
 30
0.0
 11
284.25
 21
776.75
 31
0.0
  0
LINE
  5
22C
330
17
100
AcDbEntity
  8
FOLD
100
AcDbLine
 10
47.0
 20
788.5
 30
0.0
 11
47.0
 21
802.25
 31
0.0
  0
LINE
  5
22D
330
17
100
AcDbEntity
  8
CREASE
100
AcDbLine
 10
129.25
 20
717.25
 30
0.0
 11
136.0
 21
717.0
 31
0.0
  0
LINE
  5
22E
330
17
100
AcDbEntity
  8
CREASE
100
AcDbLine
 10
251.25
 20
830.0
 30
0.0
 11
251.25
 21
820.5
 31
0.0
  0
LINE
  5
22F
330
17
100
AcDbEntity
  8
CREASE
100
AcDbLine
 10
174.75
 20
953.0
 30
0.0
 11
175.75
 21
943.5
 31
0.0
  0
LINE
  5
230
330
17
100
AcDbEntity
  8
CREASE
100
AcDbLine
 10
143.75
 20
922.0
 30
0.0
 11
143.75
 21
930.25
 31
0.0
  0
LINE
  5
231
330
17
100
AcDbEntity
  8
CREASE
100
AcDbLine
 10
132.0
 20
717.0
 30
0.0
 11
138.5
 21
717.25
 31
0.0
  0
LINE
  5
232
330
17
100
AcDbEntity
  8
FOLD
100
AcDbLine
 10
232.5
 20
719.0
 30
0.0
 11
240.5
 21
718.75
 31
0.0
  0
LINE
  5
233
330
17
100
AcDbEntity
  8
CUT
100
AcDbLine
 10
187.0
 20
795.75
 30
0.0
 11
189.25
 21
782.75
 31
0.0
  0
LINE
  5
234
330
17
100
AcDbEntity
  8
CREASE
100
AcDbLine
 10
196.75
 20
935.25
 30
0.0
 11
203.0
 21
941.5
 31
0.0
  0
LINE
  5
235
330
17
100
AcDbEntity
  8
SLOT
100
AcDbLine
 10
173.75
 20
956.75
 30
0.0
 11
180.25
 21
958.75
 31
0.0
  0
LINE
  5
236
330
17
100
AcDbEntity
  8
CREASE
100
AcDbLine
 10
138.75
 20
930.5
 30
0.0
 11
139.75
 21
921.25
 31
0.0
  0
LINE
  5
237
330
17
100
AcDbEntity
  8
CREASE
100
AcDbLine
 10
173.0
 20
933.0
 30
0.0
 11
177.75
 21
941.75
 31
0.0
  0
LINE
  5
238
330
17
100
AcDbEntity
  8
FOLD
100
AcDbLine
 10
208.5
 20
780.0
 30
0.0
 11
208.5
 21
790.25
 31
0.0
  0
LINE
  5
239
330
17
100
AcDbEntity
  8
SLOT
100
AcDbLine
 10
165.0
 20
967.25
 30
0.0
 11
165.5
 21
972.5
 31
0.0
  0
LINE
  5
23A
330
17
100
AcDbEntity
  8
CREASE
100
AcDbLine
 10
152.75
 20
957.25
 30
0.0
 11
152.75
 21
965.0
 31
0.0
  0
LINE
  5
23B
330
17
100
AcDbEntity
  8
SLOT
100
AcDbLine
 10
149.0
 20
921.5
 30
0.0
 11
149.0
 21
926.5
 31
0.0
  0
LINE
  5
23C
330
17
100
AcDbEntity
  8
CREASE
100
AcDbLine
 10
193.25
 20
821.25
 30
0.0
 11
193.75
 21
827.0
 31
0.0
  0
LINE
  5
23D
330
17
100
AcDbEntity
  8
BRIDGE
100
AcDbLine
 10
127.0
 20
849.5
 30
0.0
 11
134.5
 21
850.0
 31
0.0
  0
LINE
  5
23E
330
17
100
AcDbEntity
  8
CUT
100
AcDbLine
 10
109.0
 20
891.0
 30
0.0
 11
129.5
 21
883.5
 31
0.0
  0
LINE
  5
23F
330
17
100
AcDbEntity
  8
FOLD
100
AcDbLine
 10
260.75
 20
753.0
 30
0.0
 11
275.75
 21
750.25
 31
0.0
  0
LINE
  5
240
330
17
100
AcDbEntity
  8
FOLD
100
AcDbLine
 10
271.75
 20
859.25
 30
0.0
 11
271.75
 21
879.0
 31
0.0
  0
LINE
  5
241
330
17
100
AcDbEntity
  8
CREASE
100
AcDbLine
 10
236.0
 20
718.0
 30
0.0
 11
247.25
 21
717.25
 31
0.0
  0
LINE
  5
242
330
17
100
AcDbEntity
  8
CREASE
100
AcDbLine
 10
178.75
 20
779.25
 30
0.0
 11
179.25
 21
788.0
 31
0.0
  0
LINE
  5
243
330
17
100
AcDbEntity
  8
CREASE
100
AcDbLine
 10
150.25
 20
760.75
 30
0.0
 11
159.75
 21
760.75
 31
0.0
  0
LINE
  5
244
330
17
100
AcDbEntity
  8
CUT
100
AcDbLine
 10
155.5
 20
950.5
 30
0.0
 11
156.5
 21
967.5
 31
0.0
  0
LINE
  5
245
330
17
100
AcDbEntity
  8
CREASE
100
AcDbLine
 10
81.5
 20
866.75
 30
0.0
 11
89.5
 21
878.75
 31
0.0
  0
LINE
  5
246
330
17
100
AcDbEntity
  8
CUT
100
AcDbLine
 10
171.0
 20
956.0
 30
0.0
 11
186.0
 21
970.5
 31
0.0
  0
LINE
  5
247
330
17
100
AcDbEntity
  8
SLOT
100
AcDbLine
 10
152.75
 20
937.0
 30
0.0
 11
152.75
 21
942.5
 31
0.0
  0
LINE
  5
248
330
17
100
AcDbEntity
  8
SLOT
100
AcDbLine
 10
157.75
 20
922.5
 30
0.0
 11
158.5
 21
929.25
 31
0.0
  0
LINE
  5
249
330
17
100
AcDbEntity
  8
SLOT
100
AcDbLine
 10
147.0
 20
717.0
 30
0.0
 11
147.25
 21
723.25
 31
0.0
  0
LINE
  5
24A
330
17
100
AcDbEntity
  8
CREASE
100
AcDbLine
 10
66.25
 20
873.5
 30
0.0
 11
78.0
 21
873.25
 31
0.0
  0
LINE
  5
24B
330
17
100
AcDbEntity
  8
CREASE
100
AcDbLine
 10
164.75
 20
945.5
 30
0.0
 11
170.75
 21
951.0
 31
0.0
  0
LINE
  5
24C
330
17
100
AcDbEntity
  8
CREASE
100
AcDbLine
 10
179.5
 20
831.0
 30
0.0
 11
181.75
 21
818.25
 31
0.0
  0
LINE
  5
24D
330
17
100
AcDbEntity
  8
FOLD
100
AcDbLine
 10
152.75
 20
885.25
 30
0.0
 11
162.5
 21
886.0
 31
0.0
  0
LINE
  5
24E
330
17
100
AcDbEntity
  8
CREASE
100
AcDbLine
 10
201.75
 20
880.75
 30
0.0
 11
202.5
 21
888.25
 31
0.0
  0
LINE
  5
24F
330
17
100
AcDbEntity
  8
CREASE
100
AcDbLine
 10
169.5
 20
929.75
 30
0.0
 11
170.0
 21
924.75
 31
0.0
  0
LINE
  5
250
330
17
100
AcDbEntity
  8
CUT
100
AcDbLine
 10
172.0
 20
933.5
 30
0.0
 11
173.75
 21
948.25
 31
0.0
  0
LINE
  5
251
330
17
100
AcDbEntity
  8
SLOT
100
AcDbLine
 10
185.25
 20
795.5
 30
0.0
 11
186.25
 21
788.5
 31
0.0
  0
LINE
  5
252
330
17
100
AcDbEntity
  8
CUT
100
AcDbLine
 10
165.75
 20
972.75
 30
0.0
 11
174.0
 21
959.25
 31
0.0
  0
LINE
  5
253
330
17
100
AcDbEntity
  8
SLOT
100
AcDbLine
 10
150.25
 20
824.75
 30
0.0
 11
150.25
 21
829.75
 31
0.0
  0
LINE
  5
254
330
17
100
AcDbEntity
  8
FOLD
100
AcDbLine
 10
104.75
 20
900.75
 30
0.0
 11
104.75
 21
913.0
 31
0.0
  0
LINE
  5
255
330
17
100
AcDbEntity
  8
SLOT
100
AcDbLine
 10
199.0
 20
937.75
 30
0.0
 11
199.25
 21
943.0
 31
0.0
  0
LINE
  5
256
330
17
100
AcDbEntity
  8
CREASE
100
AcDbLine
 10
166.5
 20
967.5
 30
0.0
 11
167.0
 21
973.25
 31
0.0
  0
LINE
  5
257
330
17
100
AcDbEntity
  8
CREASE
100
AcDbLine
 10
136.75
 20
951.75
 30
0.0
 11
137.0
 21
945.5
 31
0.0
  0
LINE
  5
258
330
17
100
AcDbEntity
  8
SLOT
100
AcDbLine
 10
145.0
 20
904.0
 30
0.0
 11
145.0
 21
910.5
 31
0.0
  0
LINE
  5
259
330
17
100
AcDbEntity
  8
CREASE
100
AcDbLine
 10
144.75
 20
945.5
 30
0.0
 11
155.5
 21
949.25
 31
0.0
  0
LINE
  5
25A
330
17
100
AcDbEntity
  8
BRIDGE
100
AcDbLine
 10
57.5
 20
753.0
 30
0.0
 11
66.75
 21
753.5
 31
0.0
  0
LINE
  5
25B
330
17
100
AcDbEntity
  8
CREASE
100
AcDbLine
 10
86.75
 20
751.25
 30
0.0
 11
90.0
 21
761.75
 31
0.0
  0
LINE
  5
25C
330
17
100
AcDbEntity
  8
CREASE
100
AcDbLine
 10
163.0
 20
936.0
 30
0.0
 11
163.75
 21
944.0
 31
0.0
  0
LINE
  5
25D
330
17
100
AcDbEntity
  8
CREASE
100
AcDbLine
 10
181.5
 20
919.25
 30
0.0
 11
187.5
 21
925.25
 31
0.0
  0
LINE
  5
25E
330
17
100
AcDbEntity
  8
SLOT
100
AcDbLine
 10
176.75
 20
933.25
 30
0.0
 11
178.25
 21
939.25
 31
0.0
  0
LINE
  5
25F
330
17
100
AcDbEntity
  8
CREASE
100
AcDbLine
 10
133.25
 20
911.5
 30
0.0
 11
135.75
 21
920.75
 31
0.0
  0
LINE
  5
260
330
17
100
AcDbEntity
  8
FOLD
100
AcDbLine
 10
253.25
 20
754.5
 30
0.0
 11
275.75
 21
750.5
 31
0.0
  0
LINE
  5
261
330
17
100
AcDbEntity
  8
CREASE
100
AcDbLine
 10
173.25
 20
947.0
 30
0.0
 11
175.0
 21
931.75
 31
0.0
  0
LINE
  5
262
330
17
100
AcDbEntity
  8
CREASE
100
AcDbLine
 10
165.5
 20
926.0
 30
0.0
 11
166.25
 21
935.25
 31
0.0
  0
LINE
  5
263
330
17
100
AcDbEntity
  8
CUT
100
AcDbLine
 10
83.25
 20
739.25
 30
0.0
 11
92.75
 21
754.25
 31
0.0
  0
LINE
  5
264
330
17
100
AcDbEntity
  8
CUT
100
AcDbLine
 10
187.75
 20
720.75
 30
0.0
 11
201.0
 21
720.5
 31
0.0
  0
LINE
  5
265
330
17
100
AcDbEntity
  8
CREASE
100
AcDbLine
 10
143.5
 20
904.75
 30
0.0
 11
150.0
 21
911.25
 31
0.0
  0
LINE
  5
266
330
17
100
AcDbEntity
  8
CREASE
100
AcDbLine
 10
112.25
 20
753.75
 30
0.0
 11
125.0
 21
753.75
 31
0.0
  0
LINE
  5
267
330
17
100
AcDbEntity
  8
CREASE
100
AcDbLine
 10
130.5
 20
916.5
 30
0.0
 11
137.25
 21
917.5
 31
0.0
  0
LINE
  5
268
330
17
100
AcDbEntity
  8
CUT
100
AcDbLine
 10
133.75
 20
927.5
 30
0.0
 11
135.5
 21
915.0
 31
0.0
  0
LINE
  5
269
330
17
100
AcDbEntity
  8
CREASE
100
AcDbLine
 10
152.25
 20
788.0
 30
0.0
 11
152.5
 21
779.25
 31
0.0
  0
LINE
  5
26A
330
17
100
AcDbEntity
  8
SLOT
100
AcDbLine
 10
185.0
 20
937.75
 30
0.0
 11
185.25
 21
932.5
 31
0.0
  0
LINE
  5
26B
330
17
100
AcDbEntity
  8
FOLD
100
AcDbLine
 10
185.0
 20
982.0
 30
0.0
 11
198.0
 21
983.0
 31
0.0
  0
LINE
  5
26C
330
17
100
AcDbEntity
  8
SLOT
100
AcDbLine
 10
145.75
 20
963.5
 30
0.0
 11
145.75
 21
969.25
 31
0.0
  0
LINE
  5
26D
330
17
100
AcDbEntity
  8
SLOT
100
AcDbLine
 10
166.5
 20
925.25
 30
0.0
 11
167.0
 21
930.25
 31
0.0
  0
LINE
  5
26E
330
17
100
AcDbEntity
  8
SLOT
100
AcDbLine
 10
187.25
 20
960.25
 30
0.0
 11
190.5
 21
966.25
 31
0.0
  0
LINE
  5
26F
330
17
100
AcDbEntity
  8
CREASE
100
AcDbLine
 10
139.0
 20
960.0
 30
0.0
 11
139.25
 21
954.75
 31
0.0
  0
LINE
  5
270
330
17
100
AcDbEntity
  8
FOLD
100
AcDbLine
 10
274.75
 20
725.5
 30
0.0
 11
274.75
 21
739.25
 31
0.0
  0
LINE
  5
271
330
17
100
AcDbEntity
  8
CREASE
100
AcDbLine
 10
167.75
 20
930.5
 30
0.0
 11
169.25
 21
923.0
 31
0.0
  0
LINE
  5
272
330
17
100
AcDbEntity
  8
CREASE
100
AcDbLine
 10
243.5
 20
847.75
 30
0.0
 11
244.0
 21
836.5
 31
0.0
  0
LINE
  5
273
330
17
100
AcDbEntity
  8
CREASE
100
AcDbLine
 10
147.25
 20
911.0
 30
0.0
 11
147.75
 21
921.75
 31
0.0
  0
LINE
  5
274
330
17
100
AcDbEntity
  8
CREASE
100
AcDbLine
 10
203.75
 20
851.0
 30
0.0
 11
210.75
 21
845.25
 31
0.0
  0
LINE
  5
275
330
17
100
AcDbEntity
  8
CREASE
100
AcDbLine
 10
200.25
 20
961.0
 30
0.0
 11
200.75
 21
969.0
 31
0.0
  0
LINE
  5
276
330
17
100
AcDbEntity
  8
FOLD
100
AcDbLine
 10
80.75
 20
802.25
 30
0.0
 11
81.0
 21
781.5
 31
0.0
  0
LINE
  5
277
330
17
100
AcDbEntity
  8
CREASE
100
AcDbLine
 10
154.25
 20
821.75
 30
0.0
 11
154.25
 21
826.75
 31
0.0
  0
LINE
  5
278
330
17
100
AcDbEntity
  8
CREASE
100
AcDbLine
 10
238.5
 20
761.0
 30
0.0
 11
244.75
 21
761.25
 31
0.0
  0
LINE
  5
279
330
17
100
AcDbEntity
  8
SLOT
100
AcDbLine
 10
207.5
 20
962.0
 30
0.0
 11
211.25
 21
968.0
 31
0.0
  0
LINE
  5
27A
330
17
100
AcDbEntity
  8
CREASE
100
AcDbLine
 10
191.5
 20
788.75
 30
0.0
 11
192.0
 21
795.75
 31
0.0
  0
LINE
  5
27B
330
17
100
AcDbEntity
  8
FOLD
100
AcDbLine
 10
159.25
 20
679.0
 30
0.0
 11
165.0
 21
679.0
 31
0.0
  0
LINE
  5
27C
330
17
100
AcDbEntity
  8
SLOT
100
AcDbLine
 10
169.75
 20
948.0
 30
0.0
 11
170.25
 21
940.75
 31
0.0
  0
LINE
  5
27D
330
17
100
AcDbEntity
  8
CREASE
100
AcDbLine
 10
85.5
 20
750.75
 30
0.0
 11
87.5
 21
756.0
 31
0.0
  0
LINE
  5
27E
330
17
100
AcDbEntity
  8
CREASE
100
AcDbLine
 10
197.25
 20
964.75
 30
0.0
 11
198.75
 21
970.0
 31
0.0
  0
LINE
  5
27F
330
17
100
AcDbEntity
  8
FOLD
100
AcDbLine
 10
166.75
 20
925.0
 30
0.0
 11
181.5
 21
937.0
 31
0.0
  0
LINE
  5
280
330
17
100
AcDbEntity
  8
SLOT
100
AcDbLine
 10
152.5
 20
890.5
 30
0.0
 11
153.25
 21
896.25
 31
0.0
  0
LINE
  5
281
330
17
100
AcDbEntity
  8
BRIDGE
100
AcDbLine
 10
159.25
 20
895.0
 30
0.0
 11
160.75
 21
903.5
 31
0.0
  0
LINE
  5
282
330
17
100
AcDbEntity
  8
SLOT
100
AcDbLine
 10
186.0
 20
815.25
 30
0.0
 11
186.5
 21
820.25
 31
0.0
  0
LINE
  5
283
330
17
100
AcDbEntity
  8
CREASE
100
AcDbLine
 10
180.5
 20
932.5
 30
0.0
 11
181.0
 21
923.25
 31
0.0
  0
LINE
  5
284
330
17
100
AcDbEntity
  8
CREASE
100
AcDbLine
 10
152.5
 20
821.75
 30
0.0
 11
152.5
 21
828.75
 31
0.0
  0
LINE
  5
285
330
17
100
AcDbEntity
  8
SLOT
100
AcDbLine
 10
182.75
 20
714.75
 30
0.0
 11
183.25
 21
721.75
 31
0.0
  0
LINE
  5
286
330
17
100
AcDbEntity
  8
CREASE
100
AcDbLine
 10
166.25
 20
932.0
 30
0.0
 11
174.25
 21
936.75
 31
0.0
  0
LINE
  5
287
330
17
100
AcDbEntity
  8
CREASE
100
AcDbLine
 10
150.75
 20
911.0
 30
0.0
 11
157.5
 21
906.5
 31
0.0
  0
LINE
  5
288
330
17
100
AcDbEntity
  8
CREASE
100
AcDbLine
 10
130.25
 20
896.75
 30
0.0
 11
130.25
 21
889.5
 31
0.0
  0
LINE
  5
289
330
17
100
AcDbEntity
  8
CREASE
100
AcDbLine
 10
188.5
 20
810.0
 30
0.0
 11
195.25
 21
810.0
 31
0.0
  0
LINE
  5
28A
330
17
100
AcDbEntity
  8
CREASE
100
AcDbLine
 10
192.25
 20
794.5
 30
0.0
 11
198.75
 21
797.25
 31
0.0
  0
LINE
  5
28B
330
17
100
AcDbEntity
  8
CREASE
100
AcDbLine
 10
198.5
 20
940.5
 30
0.0
 11
199.25
 21
947.25
 31
0.0
  0
LINE
  5
28C
330
17
100
AcDbEntity
  8
CREASE
100
AcDbLine
 10
59.0
 20
911.5
 30
0.0
 11
68.5
 21
918.5
 31
0.0
  0
LINE
  5
28D
330
17
100
AcDbEntity
  8
SLOT
100
AcDbLine
 10
142.0
 20
961.5
 30
0.0
 11
143.5
 21
955.0
 31
0.0
  0
LINE
  5
28E
330
17
100
AcDbEntity
  8
SLOT
100
AcDbLine
 10
206.5
 20
935.25
 30
0.0
 11
212.75
 21
936.25
 31
0.0
  0
LINE
  5
28F
330
17
100
AcDbEntity
  8
CREASE
100
AcDbLine
 10
169.25
 20
940.5
 30
0.0
 11
170.0
 21
949.25
 31
0.0
  0
LINE
  5
290
330
17
100
AcDbEntity
  8
CREASE
100
AcDbLine
 10
144.25
 20
954.25
 30
0.0
 11
145.5
 21
964.0
 31
0.0
  0
LINE
  5
291
330
17
100
AcDbEntity
  8
SLOT
100
AcDbLine
 10
195.75
 20
966.0
 30
0.0
 11
206.75
 21
970.25
 31
0.0
  0
LINE
  5
292
330
17
100
AcDbEntity
  8
CREASE
100
AcDbLine
 10
150.5
 20
819.25
 30
0.0
 11
151.5
 21
829.75
 31
0.0
  0
LINE
  5
293
330
17
100
AcDbEntity
  8
CREASE
100
AcDbLine
 10
142.25
 20
956.0
 30
0.0
 11
142.5
 21
962.75
 31
0.0
  0
LINE
  5
294
330
17
100
AcDbEntity
  8
FOLD
100
AcDbLine
 10
138.5
 20
851.25
 30
0.0
 11
144.75
 21
851.5
 31
0.0
  0
LINE
  5
295
330
17
100
AcDbEntity
  8
CUT
100
AcDbLine
 10
181.5
 20
961.25
 30
0.0
 11
191.0
 21
944.0
 31
0.0
  0
LINE
  5
296
330
17
100
AcDbEntity
  8
CREASE
100
AcDbLine
 10
35.75
 20
905.25
 30
0.0
 11
44.5
 21
906.0
 31
0.0
  0
LINE
  5
297
330
17
100
AcDbEntity
  8
CUT
100
AcDbLine
 10
141.25
 20
809.75
 30
0.0
 11
157.5
 21
809.75
 31
0.0
  0
LINE
  5
298
330
17
100
AcDbEntity
  8
CREASE
100
AcDbLine
 10
186.5
 20
791.25
 30
0.0
 11
189.75
 21
783.75
 31
0.0
  0
LINE
  5
299
330
17
100
AcDbEntity
  8
CREASE
100
AcDbLine
 10
188.0
 20
795.75
 30
0.0
 11
189.25
 21
787.75
 31
0.0
  0
LINE
  5
29A
330
17
100
AcDbEntity
  8
CREASE
100
AcDbLine
 10
189.75
 20
928.5
 30
0.0
 11
191.0
 21
933.5
 31
0.0
  0
LINE
  5
29B
330
17
100
AcDbEntity
  8
CREASE
100
AcDbLine
 10
170.25
 20
966.0
 30
0.0
 11
171.25
 21
974.5
 31
0.0
  0
LINE
  5
29C
330
17
100
AcDbEntity
  8
SLOT
100
AcDbLine
 10
208.5
 20
764.75
 30
0.0
 11
209.25
 21
759.25
 31
0.0
  0
LINE
  5
29D
330
17
100
AcDbEntity
  8
CREASE
100
AcDbLine
 10
180.0
 20
915.0
 30
0.0
 11
203.5
 21
923.5
 31
0.0
  0
LINE
  5
29E
330
17
100
AcDbEntity
  8
CUT
100
AcDbLine
 10
178.5
 20
815.0
 30
0.0
 11
194.0
 21
815.25
 31
0.0
  0
LINE
  5
29F
330
17
100
AcDbEntity
  8
CREASE
100
AcDbLine
 10
171.5
 20
903.75
 30
0.0
 11
172.25
 21
909.75
 31
0.0
  0
LINE
  5
2A0
330
17
100
AcDbEntity
  8
CUT
100
AcDbLine
 10
189.75
 20
944.25
 30
0.0
 11
202.5
 21
953.25
 31
0.0
  0
LINE
  5
2A1
330
17
100
AcDbEntity
  8
CREASE
100
AcDbLine
 10
162.25
 20
941.5
 30
0.0
 11
170.5
 21
949.75
 31
0.0
  0
LINE
  5
2A2
330
17
100
AcDbEntity
  8
SLOT
100
AcDbLine
 10
154.25
 20
920.0
 30
0.0
 11
155.0
 21
926.0
 31
0.0
  0
LINE
  5
2A3
330
17
100
AcDbEntity
  8
CREASE
100
AcDbLine
 10
123.0
 20
804.0
 30
0.0
 11
123.25
 21
790.0
 31
0.0
  0
LINE
  5
2A4
330
17
100
AcDbEntity
  8
CREASE
100
AcDbLine
 10
144.0
 20
902.0
 30
0.0
 11
144.0
 21
911.75
 31
0.0
  0
LINE
  5
2A5
330
17
100
AcDbEntity
  8
CREASE
100
AcDbLine
 10
230.5
 20
845.25
 30
0.0
 11
235.5
 21
845.25
 31
0.0
  0
LINE
  5
2A6
330
17
100
AcDbEntity
  8
SLOT
100
AcDbLine
 10
176.75
 20
820.25
 30
0.0
 11
178.0
 21
814.5
 31
0.0
  0
LINE
  5
2A7
330
17
100
AcDbEntity
  8
CREASE
100
AcDbLine
 10
144.75
 20
904.5
 30
0.0
 11
144.75
 21
911.5
 31
0.0
  0
LINE
  5
2A8
330
17
100
AcDbEntity
  8
CREASE
100
AcDbLine
 10
198.25
 20
934.75
 30
0.0
 11
205.5
 21
942.0
 31
0.0
  0
LINE
  5
2A9
330
17
100
AcDbEntity
  8
CREASE
100
AcDbLine
 10
152.75
 20
788.25
 30
0.0
 11
152.75
 21
783.0
 31
0.0
  0
LINE
  5
2AA
330
17
100
AcDbEntity
  8
CREASE
100
AcDbLine
 10
153.25
 20
923.75
 30
0.0
 11
161.75
 21
920.25
 31
0.0
  0
LINE
  5
2AB
330
17
100
AcDbEntity
  8
CREASE
100
AcDbLine
 10
150.0
 20
889.75
 30
0.0
 11
151.0
 21
898.25
 31
0.0
  0
LINE
  5
2AC
330
17
100
AcDbEntity
  8
CUT
100
AcDbLine
 10
187.75
 20
756.75
 30
0.0
 11
201.75
 21
756.25
 31
0.0
  0
LINE
  5
2AD
330
17
100
AcDbEntity
  8
CREASE
100
AcDbLine
 10
183.0
 20
793.75
 30
0.0
 11
184.75
 21
786.25
 31
0.0
  0
LINE
  5
2AE
330
17
100
AcDbEntity
  8
CUT
100
AcDbLine
 10
132.75
 20
912.0
 30
0.0
 11
133.0
 21
926.75
 31
0.0
  0
LINE
  5
2AF
330
17
100
AcDbEntity
  8
SLOT
100
AcDbLine
 10
152.5
 20
957.75
 30
0.0
 11
152.5
 21
965.0
 31
0.0
  0
LINE
  5
2B0
330
17
100
AcDbEntity
  8
CREASE
100
AcDbLine
 10
170.0
 20
940.75
 30
0.0
 11
171.0
 21
951.0
 31
0.0
  0
LINE
  5
2B1
330
17
100
AcDbEntity
  8
CREASE
100
AcDbLine
 10
143.25
 20
943.75
 30
0.0
 11
147.5
 21
932.75
 31
0.0
  0
LINE
  5
2B2
330
17
100
AcDbEntity
  8
SLOT
100
AcDbLine
 10
176.75
 20
921.0
 30
0.0
 11
178.0
 21
927.25
 31
0.0
  0
LINE
  5
2B3
330
17
100
AcDbEntity
  8
CREASE
100
AcDbLine
 10
168.5
 20
908.75
 30
0.0
 11
170.0
 21
899.5
 31
0.0
  0
LINE
  5
2B4
330
17
100
AcDbEntity
  8
CREASE
100
AcDbLine
 10
157.0
 20
931.0
 30
0.0
 11
157.0
 21
936.5
 31
0.0
  0
LINE
  5
2B5
330
17
100
AcDbEntity
  8
CUT
100
AcDbLine
 10
183.25
 20
940.0
 30
0.0
 11
185.75
 21
924.75
 31
0.0
  0
LINE
  5
2B6
330
17
100
AcDbEntity
  8
CREASE
100
AcDbLine
 10
178.25
 20
915.0
 30
0.0
 11
184.0
 21
923.0
 31
0.0
  0
LINE
  5
2B7
330
17
100
AcDbEntity
  8
SLOT
100
AcDbLine
 10
153.75
 20
760.5
 30
0.0
 11
159.75
 21
760.5
 31
0.0
  0
LINE
  5
2B8
330
17
100
AcDbEntity
  8
CREASE
100
AcDbLine
 10
177.5
 20
919.75
 30
0.0
 11
184.0
 21
924.5
 31
0.0
  0
LINE
  5
2B9
330
17
100
AcDbEntity
  8
CREASE
100
AcDbLine
 10
196.75
 20
961.0
 30
0.0
 11
206.75
 21
967.75
 31
0.0
  0
LINE
  5
2BA
330
17
100
AcDbEntity
  8
SLOT
100
AcDbLine
 10
157.25
 20
921.5
 30
0.0
 11
158.0
 21
928.75
 31
0.0
  0
LINE
  5
2BB
330
17
100
AcDbEntity
  8
CUT
100
AcDbLine
 10
169.5
 20
941.75
 30
0.0
 11
184.75
 21
937.25
 31
0.0
  0
LINE
  5
2BC
330
17
100
AcDbEntity
  8
SLOT
100
AcDbLine
 10
164.0
 20
966.5
 30
0.0
 11
164.5
 21
972.0
 31
0.0
  0
LINE
  5
2BD
330
17
100
AcDbEntity
  8
CREASE
100
AcDbLine
 10
105.0
 20
933.0
 30
0.0
 11
105.5
 21
919.75
 31
0.0
  0
LINE
  5
2BE
330
17
100
AcDbEntity
  8
SLOT
100
AcDbLine
 10
146.75
 20
903.0
 30
0.0
 11
147.0
 21
897.25
 31
0.0
  0
LINE
  5
2BF
330
17
100
AcDbEntity
  8
CREASE
100
AcDbLine
 10
253.0
 20
871.5
 30
0.0
 11
253.0
 21
877.75
 31
0.0
  0
LINE
  5
2C0
330
17
100
AcDbEntity
  8
SLOT
100
AcDbLine
 10
146.0
 20
818.25
 30
0.0
 11
146.25
 21
823.5
 31
0.0
  0
LINE
  5
2C1
330
17
100
AcDbEntity
  8
CREASE
100
AcDbLine
 10
170.25
 20
901.25
 30
0.0
 11
172.75
 21
908.75
 31
0.0
  0
LINE
  5
2C2
330
17
100
AcDbEntity
  8
CREASE
100
AcDbLine
 10
186.75
 20
928.75
 30
0.0
 11
203.5
 21
924.75
 31
0.0
  0
LINE
  5
2C3
330
17
100
AcDbEntity
  8
SLOT
100
AcDbLine
 10
183.5
 20
955.5
 30
0.0
 11
189.5
 21
944.75
 31
0.0
  0
LINE
  5
2C4
330
17
100
AcDbEntity
  8
SLOT
100
AcDbLine
 10
188.0
 20
795.25
 30
0.0
 11
188.5
 21
788.75
 31
0.0
  0
LINE
  5
2C5
330
17
100
AcDbEntity
  8
CUT
100
AcDbLine
 10
142.25
 20
774.0
 30
0.0
 11
157.75
 21
774.0
 31
0.0
  0
LINE
  5
2C6
330
17
100
AcDbEntity
  8
FOLD
100
AcDbLine
 10
184.0
 20
938.25
 30
0.0
 11
189.25
 21
936.75
 31
0.0
  0
LINE
  5
2C7
330
17
100
AcDbEntity
  8
SLOT
100
AcDbLine
 10
175.75
 20
969.5
 30
0.0
 11
176.5
 21
974.5
 31
0.0
  0
LINE
  5
2C8
330
17
100
AcDbEntity
  8
CREASE
100
AcDbLine
 10
61.25
 20
721.75
 30
0.0
 11
61.25
 21
744.25
 31
0.0
  0
LINE
  5
2C9
330
17
100
AcDbEntity
  8
CREASE
100
AcDbLine
 10
130.25
 20
922.25
 30
0.0
 11
137.5
 21
930.0
 31
0.0
  0
LINE
  5
2CA
330
17
100
AcDbEntity
  8
FOLD
100
AcDbLine
 10
26.25
 20
983.75
 30
0.0
 11
33.0
 21
982.0
 31
0.0
  0
LINE
  5
2CB
330
17
100
AcDbEntity
  8
SLOT
100
AcDbLine
 10
165.75
 20
967.5
 30
0.0
 11
166.25
 21
973.0
 31
0.0
  0
LINE
  5
2CC
330
17
100
AcDbEntity
  8
SLOT
100
AcDbLine
 10
150.25
 20
918.75
 30
0.0
 11
150.25
 21
913.5
 31
0.0
  0
LINE
  5
2CD
330
17
100
AcDbEntity
  8
FOLD
100
AcDbLine
 10
283.25
 20
829.75
 30
0.0
 11
283.25
 21
822.5
 31
0.0
  0
LINE
  5
2CE
330
17
100
AcDbEntity
  8
CREASE
100
AcDbLine
 10
47.5
 20
758.75
 30
0.0
 11
59.25
 21
759.0
 31
0.0
  0
LINE
  5
2CF
330
17
100
AcDbEntity
  8
CREASE
100
AcDbLine
 10
171.0
 20
944.0
 30
0.0
 11
171.75
 21
951.5
 31
0.0
  0
LINE
  5
2D0
330
17
100
AcDbEntity
  8
CREASE
100
AcDbLine
 10
146.5
 20
936.25
 30
0.0
 11
154.0
 21
943.75
 31
0.0
  0
LINE
  5
2D1
330
17
100
AcDbEntity
  8
SLOT
100
AcDbLine
 10
144.0
 20
923.5
 30
0.0
 11
144.5
 21
930.75
 31
0.0
  0
LINE
  5
2D2
330
17
100
AcDbEntity
  8
CREASE
100
AcDbLine
 10
188.5
 20
922.75
 30
0.0
 11
191.25
 21
933.5
 31
0.0
  0
LINE
  5
2D3
330
17
100
AcDbEntity
  8
FOLD
100
AcDbLine
 10
104.5
 20
913.5
 30
0.0
 11
104.5
 21
924.75
 31
0.0
  0
LINE
  5
2D4
330
17
100
AcDbEntity
  8
SLOT
100
AcDbLine
 10
163.75
 20
966.25
 30
0.0
 11
164.0
 21
972.0
 31
0.0
  0
LINE
  5
2D5
330
17
100
AcDbEntity
  8
CREASE
100
AcDbLine
 10
250.75
 20
844.25
 30
0.0
 11
251.0
 21
854.5
 31
0.0
  0
LINE
  5
2D6
330
17
100
AcDbEntity
  8
FOLD
100
AcDbLine
 10
55.5
 20
974.25
 30
0.0
 11
60.75
 21
971.75
 31
0.0
  0
LINE
  5
2D7
330
17
100
AcDbEntity
  8
CREASE
100
AcDbLine
 10
185.5
 20
916.75
 30
0.0
 11
188.75
 21
928.0
 31
0.0
  0
LINE
  5
2D8
330
17
100
AcDbEntity
  8
CREASE
100
AcDbLine
 10
159.25
 20
785.75
 30
0.0
 11
159.75
 21
780.5
 31
0.0
  0
LINE
  5
2D9
330
17
100
AcDbEntity
  8
CREASE
100
AcDbLine
 10
244.5
 20
826.5
 30
0.0
 11
245.5
 21
811.25
 31
0.0
  0
LINE
  5
2DA
330
17
100
AcDbEntity
  8
CREASE
100
AcDbLine
 10
59.75
 20
853.0
 30
0.0
 11
59.75
 21
862.0
 31
0.0
  0
LINE
  5
2DB
330
17
100
AcDbEntity
  8
SLOT
100
AcDbLine
 10
141.5
 20
809.5
 30
0.0
 11
141.75
 21
814.5
 31
0.0
  0
LINE
  5
2DC
330
17
100
AcDbEntity
  8
CREASE
100
AcDbLine
 10
144.5
 20
905.0
 30
0.0
 11
144.5
 21
911.5
 31
0.0
  0
LINE
  5
2DD
330
17
100
AcDbEntity
  8
CUT
100
AcDbLine
 10
131.0
 20
924.25
 30
0.0
 11
137.75
 21
932.0
 31
0.0
  0
LINE
  5
2DE
330
17
100
AcDbEntity
  8
CREASE
100
AcDbLine
 10
182.25
 20
956.25
 30
0.0
 11
189.5
 21
962.5
 31
0.0
  0
LINE
  5
2DF
330
17
100
AcDbEntity
  8
FOLD
100
AcDbLine
 10
9.75
 20
913.5
 30
0.0
 11
15.5
 21
912.0
 31
0.0
  0
LINE
  5
2E0
330
17
100
AcDbEntity
  8
SLOT
100
AcDbLine
 10
155.0
 20
914.5
 30
0.0
 11
155.25
 21
919.5
 31
0.0
  0
LINE
  5
2E1
330
17
100
AcDbEntity
  8
FOLD
100
AcDbLine
 10
117.5
 20
762.75
 30
0.0
 11
122.5
 21
762.75
 31
0.0
  0
LINE
  5
2E2
330
17
100
AcDbEntity
  8
CREASE
100
AcDbLine
 10
164.25
 20
966.5
 30
0.0
 11
165.0
 21
972.25
 31
0.0
  0
LINE
  5
2E3
330
17
100
AcDbEntity
  8
CREASE
100
AcDbLine
 10
186.0
 20
939.0
 30
0.0
 11
187.25
 21
933.25
 31
0.0
  0
LINE
  5
2E4
330
17
100
AcDbEntity
  8
CREASE
100
AcDbLine
 10
163.25
 20
934.0
 30
0.0
 11
163.75
 21
942.25
 31
0.0
  0
LINE
  5
2E5
330
17
100
AcDbEntity
  8
CREASE
100
AcDbLine
 10
166.0
 20
967.75
 30
0.0
 11
166.75
 21
973.25
 31
0.0
  0
LINE
  5
2E6
330
17
100
AcDbEntity
  8
CUT
100
AcDbLine
 10
183.25
 20
938.0
 30
0.0
 11
184.5
 21
925.25
 31
0.0
  0
LINE
  5
2E7
330
17
100
AcDbEntity
  8
CREASE
100
AcDbLine
 10
189.75
 20
929.75
 30
0.0
 11
190.0
 21
938.0
 31
0.0
  0
LINE
  5
2E8
330
17
100
AcDbEntity
  8
CUT
100
AcDbLine
 10
177.5
 20
929.25
 30
0.0
 11
193.25
 21
925.5
 31
0.0
  0
LINE
  5
2E9
330
17
100
AcDbEntity
  8
SLOT
100
AcDbLine
 10
141.5
 20
899.5
 30
0.0
 11
144.25
 21
893.75
 31
0.0
  0
LINE
  5
2EA
330
17
100
AcDbEntity
  8
FOLD
100
AcDbLine
 10
107.75
 20
842.75
 30
0.0
 11
119.0
 21
843.25
 31
0.0
  0
LINE
  5
2EB
330
17
100
AcDbEntity
  8
CREASE
100
AcDbLine
 10
204.25
 20
852.5
 30
0.0
 11
211.0
 21
845.25
 31
0.0
  0
LINE
  5
2EC
330
17
100
AcDbEntity
  8
SLOT
100
AcDbLine
 10
152.25
 20
890.5
 30
0.0
 11
152.75
 21
895.5
 31
0.0
  0
LINE
  5
2ED
330
17
100
AcDbEntity
  8
CREASE
100
AcDbLine
 10
161.5
 20
785.75
 30
0.0
 11
161.75
 21
780.75
 31
0.0
  0
LINE
  5
2EE
330
17
100
AcDbEntity
  8
SLOT
100
AcDbLine
 10
153.5
 20
954.5
 30
0.0
 11
153.75
 21
959.75
 31
0.0
  0
LINE
  5
2EF
330
17
100
AcDbEntity
  8
SLOT
100
AcDbLine
 10
153.75
 20
932.0
 30
0.0
 11
153.75
 21
938.75
 31
0.0
  0
LINE
  5
2F0
330
17
100
AcDbEntity
  8
CUT
100
AcDbLine
 10
195.25
 20
952.25
 30
0.0
 11
200.0
 21
966.0
 31
0.0
  0
LINE
  5
2F1
330
17
100
AcDbEntity
  8
CUT
100
AcDbLine
 10
197.0
 20
967.5
 30
0.0
 11
209.25
 21
972.25
 31
0.0
  0
LINE
  5
2F2
330
17
100
AcDbEntity
  8
CREASE
100
AcDbLine
 10
284.25
 20
765.75
 30
0.0
 11
284.25
 21
758.5
 31
0.0
  0
LINE
  5
2F3
330
17
100
AcDbEntity
  8
BRIDGE
100
AcDbLine
 10
77.25
 20
957.75
 30
0.0
 11
82.75
 21
954.25
 31
0.0
  0
LINE
  5
2F4
330
17
100
AcDbEntity
  8
CUT
100
AcDbLine
 10
162.75
 20
932.75
 30
0.0
 11
169.5
 21
949.0
 31
0.0
  0
LINE
  5
2F5
330
17
100
AcDbEntity
  8
SLOT
100
AcDbLine
 10
140.25
 20
782.5
 30
0.0
 11
140.75
 21
789.0
 31
0.0
  0
LINE
  5
2F6
330
17
100
AcDbEntity
  8
CREASE
100
AcDbLine
 10
182.75
 20
945.5
 30
0.0
 11
190.75
 21
944.0
 31
0.0
  0
LINE
  5
2F7
330
17
100
AcDbEntity
  8
CUT
100
AcDbLine
 10
192.25
 20
944.5
 30
0.0
 11
193.0
 21
955.5
 31
0.0
  0
LINE
  5
2F8
330
17
100
AcDbEntity
  8
SLOT
100
AcDbLine
 10
158.5
 20
921.25
 30
0.0
 11
161.0
 21
926.75
 31
0.0
  0
LINE
  5
2F9
330
17
100
AcDbEntity
  8
SLOT
100
AcDbLine
 10
150.0
 20
951.75
 30
0.0
 11
150.0
 21
945.5
 31
0.0
  0
LINE
  5
2FA
330
17
100
AcDbEntity
  8
CREASE
100
AcDbLine
 10
170.0
 20
965.0
 30
0.0
 11
171.0
 21
974.25
 31
0.0
  0
LINE
  5
2FB
330
17
100
AcDbEntity
  8
FOLD
100
AcDbLine
 10
58.5
 20
856.0
 30
0.0
 11
58.5
 21
869.5
 31
0.0
  0
LINE
  5
2FC
330
17
100
AcDbEntity
  8
CREASE
100
AcDbLine
 10
45.0
 20
978.0
 30
0.0
 11
52.75
 21
976.0
 31
0.0
  0
LINE
  5
2FD
330
17
100
AcDbEntity
  8
CREASE
100
AcDbLine
 10
142.25
 20
939.75
 30
0.0
 11
143.25
 21
946.25
 31
0.0
  0
LINE
  5
2FE
330
17
100
AcDbEntity
  8
CREASE
100
AcDbLine
 10
1.0
 20
916.0
 30
0.0
 11
17.5
 21
908.5
 31
0.0
  0
LINE
  5
2FF
330
17
100
AcDbEntity
  8
CREASE
100
AcDbLine
 10
109.0
 20
880.75
 30
0.0
 11
115.25
 21
880.75
 31
0.0
  0
LINE
  5
300
330
17
100
AcDbEntity
  8
CREASE
100
AcDbLine
 10
180.25
 20
945.25
 30
0.0
 11
182.25
 21
952.75
 31
0.0
  0
LINE
  5
301
330
17
100
AcDbEntity
  8
CREASE
100
AcDbLine
 10
177.0
 20
956.5
 30
0.0
 11
185.0
 21
963.75
 31
0.0
  0
LINE
  5
302
330
17
100
AcDbEntity
  8
CREASE
100
AcDbLine
 10
143.0
 20
963.75
 30
0.0
 11
145.25
 21
956.25
 31
0.0
  0
LINE
  5
303
330
17
100
AcDbEntity
  8
CREASE
100
AcDbLine
 10
162.5
 20
896.25
 30
0.0
 11
163.25
 21
901.5
 31
0.0
  0
LINE
  5
304
330
17
100
AcDbEntity
  8
CREASE
100
AcDbLine
 10
150.5
 20
885.25
 30
0.0
 11
151.5
 21
896.5
 31
0.0
  0
LINE
  5
305
330
17
100
AcDbEntity
  8
SLOT
100
AcDbLine
 10
149.25
 20
720.25
 30
0.0
 11
155.25
 21
720.25
 31
0.0
  0
LINE
  5
306
330
17
100
AcDbEntity
  8
FOLD
100
AcDbLine
 10
37.25
 20
906.75
 30
0.0
 11
42.75
 21
906.75
 31
0.0
  0
LINE
  5
307
330
17
100
AcDbEntity
  8
SLOT
100
AcDbLine
 10
181.0
 20
930.0
 30
0.0
 11
181.25
 21
922.75
 31
0.0
  0
LINE
  5
308
330
17
100
AcDbEntity
  8
FOLD
100
AcDbLine
 10
198.75
 20
976.75
 30
0.0
 11
217.5
 21
973.0
 31
0.0
  0
LINE
  5
309
330
17
100
AcDbEntity
  8
SLOT
100
AcDbLine
 10
158.25
 20
918.75
 30
0.0
 11
158.25
 21
912.0
 31
0.0
  0
LINE
  5
30A
330
17
100
AcDbEntity
  8
CREASE
100
AcDbLine
 10
162.0
 20
922.25
 30
0.0
 11
162.5
 21
932.25
 31
0.0
  0
LINE
  5
30B
330
17
100
AcDbEntity
  8
SLOT
100
AcDbLine
 10
138.25
 20
900.5
 30
0.0
 11
138.75
 21
905.5
 31
0.0
  0
LINE
  5
30C
330
17
100
AcDbEntity
  8
CUT
100
AcDbLine
 10
202.5
 20
933.0
 30
0.0
 11
213.0
 21
927.5
 31
0.0
  0
LINE
  5
30D
330
17
100
AcDbEntity
  8
SLOT
100
AcDbLine
 10
175.25
 20
969.0
 30
0.0
 11
176.0
 21
974.75
 31
0.0
  0
LINE
  5
30E
330
17
100
AcDbEntity
  8
SLOT
100
AcDbLine
 10
154.5
 20
895.5
 30
0.0
 11
155.25
 21
901.5
 31
0.0
  0
LINE
  5
30F
330
17
100
AcDbEntity
  8
CREASE
100
AcDbLine
 10
170.5
 20
940.75
 30
0.0
 11
171.5
 21
951.25
 31
0.0
  0
LINE
  5
310
330
17
100
AcDbEntity
  8
BRIDGE
100
AcDbLine
 10
185.0
 20
962.0
 30
0.0
 11
186.5
 21
967.5
 31
0.0
  0
LINE
  5
311
330
17
100
AcDbEntity
  8
CUT
100
AcDbLine
 10
144.25
 20
917.25
 30
0.0
 11
145.0
 21
930.75
 31
0.0
  0
LINE
  5
312
330
17
100
AcDbEntity
  8
CREASE
100
AcDbLine
 10
182.25
 20
950.75
 30
0.0
 11
183.75
 21
958.25
 31
0.0
  0
LINE
  5
313
330
17
100
AcDbEntity
  8
SLOT
100
AcDbLine
 10
169.25
 20
909.75
 30
0.0
 11
170.25
 21
903.5
 31
0.0
  0
LINE
  5
314
330
17
100
AcDbEntity
  8
CREASE
100
AcDbLine
 10
137.0
 20
901.75
 30
0.0
 11
139.0
 21
907.0
 31
0.0
  0
LINE
  5
315
330
17
100
AcDbEntity
  8
CREASE
100
AcDbLine
 10
159.5
 20
920.5
 30
0.0
 11
160.0
 21
930.0
 31
0.0
  0
LINE
  5
316
330
17
100
AcDbEntity
  8
SLOT
100
AcDbLine
 10
156.75
 20
894.0
 30
0.0
 11
157.25
 21
899.25
 31
0.0
  0
LINE
  5
317
330
17
100
AcDbEntity
  8
CREASE
100
AcDbLine
 10
132.0
 20
914.25
 30
0.0
 11
137.5
 21
921.25
 31
0.0
  0
LINE
  5
318
330
17
100
AcDbEntity
  8
CREASE
100
AcDbLine
 10
206.0
 20
955.5
 30
0.0
 11
210.75
 21
962.25
 31
0.0
  0
LINE
  5
319
330
17
100
AcDbEntity
  8
SLOT
100
AcDbLine
 10
187.0
 20
794.75
 30
0.0
 11
187.25
 21
788.0
 31
0.0
  0
LINE
  5
31A
330
17
100
AcDbEntity
  8
CREASE
100
AcDbLine
 10
140.5
 20
778.25
 30
0.0
 11
141.75
 21
783.25
 31
0.0
  0
LINE
  5
31B
330
17
100
AcDbEntity
  8
SLOT
100
AcDbLine
 10
201.25
 20
757.5
 30
0.0
 11
203.5
 21
751.75
 31
0.0
  0
LINE
  5
31C
330
17
100
AcDbEntity
  8
CREASE
100
AcDbLine
 10
163.75
 20
922.0
 30
0.0
 11
165.25
 21
930.5
 31
0.0
  0
LINE
  5
31D
330
17
100
AcDbEntity
  8
CREASE
100
AcDbLine
 10
143.25
 20
961.5
 30
0.0
 11
143.75
 21
967.5
 31
0.0
  0
LINE
  5
31E
330
17
100
AcDbEntity
  8
CREASE
100
AcDbLine
 10
169.75
 20
941.75
 30
0.0
 11
177.5
 21
939.75
 31
0.0
  0
LINE
  5
31F
330
17
100
AcDbEntity
  8
SLOT
100
AcDbLine
 10
151.25
 20
779.25
 30
0.0
 11
152.5
 21
786.0
 31
0.0
  0
LINE
  5
320
330
17
100
AcDbEntity
  8
CREASE
100
AcDbLine
 10
98.25
 20
841.75
 30
0.0
 11
107.5
 21
842.0
 31
0.0
  0
LINE
  5
321
330
17
100
AcDbEntity
  8
FOLD
100
AcDbLine
 10
33.0
 20
982.75
 30
0.0
 11
38.25
 21
982.75
 31
0.0
  0
LINE
  5
322
330
17
100
AcDbEntity
  8
FOLD
100
AcDbLine
 10
179.5
 20
852.25
 30
0.0
 11
187.25
 21
852.5
 31
0.0
  0
LINE
  5
323
330
17
100
AcDbEntity
  8
SLOT
100
AcDbLine
 10
185.25
 20
788.25
 30
0.0
 11
186.25
 21
782.0
 31
0.0
  0
LINE
  5
324
330
17
100
AcDbEntity
  8
SLOT
100
AcDbLine
 10
177.0
 20
951.75
 30
0.0
 11
177.5
 21
946.0
 31
0.0
  0
LINE
  5
325
330
17
100
AcDbEntity
  8
SLOT
100
AcDbLine
 10
175.5
 20
956.25
 30
0.0
 11
175.75
 21
950.0
 31
0.0
  0
LINE
  5
326
330
17
100
AcDbEntity
  8
SLOT
100
AcDbLine
 10
169.5
 20
965.25
 30
0.0
 11
170.25
 21
971.25
 31
0.0
  0
LINE
  5
327
330
17
100
AcDbEntity
  8
SLOT
100
AcDbLine
 10
155.0
 20
951.0
 30
0.0
 11
155.5
 21
957.0
 31
0.0
  0
LINE
  5
328
330
17
100
AcDbEntity
  8
SLOT
100
AcDbLine
 10
145.5
 20
783.75
 30
0.0
 11
145.5
 21
788.75
 31
0.0
  0
LINE
  5
329
330
17
100
AcDbEntity
  8
CREASE
100
AcDbLine
 10
183.5
 20
950.25
 30
0.0
 11
185.25
 21
958.5
 31
0.0
  0
LINE
  5
32A
330
17
100
AcDbEntity
  8
CREASE
100
AcDbLine
 10
40.5
 20
982.0
 30
0.0
 11
50.25
 21
976.0
 31
0.0
  0
LINE
  5
32B
330
17
100
AcDbEntity
  8
CREASE
100
AcDbLine
 10
177.25
 20
929.0
 30
0.0
 11
178.25
 21
920.75
 31
0.0
  0
LINE
  5
32C
330
17
100
AcDbEntity
  8
SLOT
100
AcDbLine
 10
163.5
 20
966.25
 30
0.0
 11
163.75
 21
971.75
 31
0.0
  0
LINE
  5
32D
330
17
100
AcDbEntity
  8
SLOT
100
AcDbLine
 10
149.5
 20
960.75
 30
0.0
 11
149.5
 21
967.25
 31
0.0
  0
LINE
  5
32E
330
17
100
AcDbEntity
  8
CREASE
100
AcDbLine
 10
188.5
 20
961.25
 30
0.0
 11
191.25
 21
966.25
 31
0.0
  0
LINE
  5
32F
330
17
100
AcDbEntity
  8
SLOT
100
AcDbLine
 10
172.75
 20
934.25
 30
0.0
 11
175.75
 21
940.5
 31
0.0
  0
LINE
  5
330
330
17
100
AcDbEntity
  8
CUT
100
AcDbLine
 10
182.75
 20
956.0
 30
0.0
 11
185.75
 21
971.25
 31
0.0
  0
LINE
  5
331
330
17
100
AcDbEntity
  8
CREASE
100
AcDbLine
 10
122.5
 20
760.25
 30
0.0
 11
123.5
 21
765.75
 31
0.0
  0
LINE
  5
332
330
17
100
AcDbEntity
  8
SLOT
100
AcDbLine
 10
100.0
 20
945.25
 30
0.0
 11
106.25
 21
944.25
 31
0.0
  0
LINE
  5
333
330
17
100
AcDbEntity
  8
FOLD
100
AcDbLine
 10
54.0
 20
909.0
 30
0.0
 11
70.5
 21
921.0
 31
0.0
  0
LINE
  5
334
330
17
100
AcDbEntity
  8
CREASE
100
AcDbLine
 10
141.0
 20
899.5
 30
0.0
 11
143.75
 21
907.5
 31
0.0
  0
LINE
  5
335
330
17
100
AcDbEntity
  8
CREASE
100
AcDbLine
 10
58.25
 20
872.5
 30
0.0
 11
65.0
 21
875.0
 31
0.0
  0
LINE
  5
336
330
17
100
AcDbEntity
  8
SLOT
100
AcDbLine
 10
84.0
 20
750.75
 30
0.0
 11
86.25
 21
756.5
 31
0.0
  0
LINE
  5
337
330
17
100
AcDbEntity
  8
CUT
100
AcDbLine
 10
161.75
 20
715.75
 30
0.0
 11
172.25
 21
715.25
 31
0.0
  0
LINE
  5
338
330
17
100
AcDbEntity
  8
CREASE
100
AcDbLine
 10
182.0
 20
713.5
 30
0.0
 11
182.5
 21
721.75
 31
0.0
  0
LINE
  5
339
330
17
100
AcDbEntity
  8
FOLD
100
AcDbLine
 10
125.0
 20
681.25
 30
0.0
 11
126.0
 21
689.5
 31
0.0
  0
LINE
  5
33A
330
17
100
AcDbEntity
  8
CREASE
100
AcDbLine
 10
189.25
 20
964.25
 30
0.0
 11
189.25
 21
972.0
 31
0.0
  0
LINE
  5
33B
330
17
100
AcDbEntity
  8
SLOT
100
AcDbLine
 10
147.5
 20
936.0
 30
0.0
 11
147.5
 21
942.25
 31
0.0
  0
LINE
  5
33C
330
17
100
AcDbEntity
  8
CREASE
100
AcDbLine
 10
161.0
 20
922.75
 30
0.0
 11
162.0
 21
931.75
 31
0.0
  0
LINE
  5
33D
330
17
100
AcDbEntity
  8
SLOT
100
AcDbLine
 10
194.25
 20
789.75
 30
0.0
 11
195.0
 21
782.5
 31
0.0
  0
LINE
  5
33E
330
17
100
AcDbEntity
  8
CREASE
100
AcDbLine
 10
130.0
 20
718.5
 30
0.0
 11
130.25
 21
724.0
 31
0.0
  0
LINE
  5
33F
330
17
100
AcDbEntity
  8
SLOT
100
AcDbLine
 10
149.75
 20
960.75
 30
0.0
 11
149.75
 21
967.25
 31
0.0
  0
LINE
  5
340
330
17
100
AcDbEntity
  8
FOLD
100
AcDbLine
 10
71.75
 20
938.75
 30
0.0
 11
79.0
 21
938.75
 31
0.0
  0
LINE
  5
341
330
17
100
AcDbEntity
  8
CREASE
100
AcDbLine
 10
111.75
 20
880.5
 30
0.0
 11
116.75
 21
880.5
 31
0.0
  0
LINE
  5
342
330
17
100
AcDbEntity
  8
CREASE
100
AcDbLine
 10
178.0
 20
915.0
 30
0.0
 11
179.0
 21
920.5
 31
0.0
  0
LINE
  5
343
330
17
100
AcDbEntity
  8
CREASE
100
AcDbLine
 10
152.25
 20
821.75
 30
0.0
 11
152.25
 21
827.5
 31
0.0
  0
LINE
  5
344
330
17
100
AcDbEntity
  8
SLOT
100
AcDbLine
 10
136.25
 20
915.0
 30
0.0
 11
137.25
 21
920.0
 31
0.0
  0
LINE
  5
345
330
17
100
AcDbEntity
  8
CREASE
100
AcDbLine
 10
204.0
 20
852.5
 30
0.0
 11
212.25
 21
845.0
 31
0.0
  0
LINE
  5
346
330
17
100
AcDbEntity
  8
CREASE
100
AcDbLine
 10
173.5
 20
930.25
 30
0.0
 11
173.5
 21
938.75
 31
0.0
  0
LINE
  5
347
330
17
100
AcDbEntity
  8
FOLD
100
AcDbLine
 10
67.0
 20
874.75
 30
0.0
 11
76.0
 21
874.75
 31
0.0
  0
LINE
  5
348
330
17
100
AcDbEntity
  8
CREASE
100
AcDbLine
 10
144.75
 20
786.25
 30
0.0
 11
145.75
 21
791.75
 31
0.0
  0
LINE
  5
349
330
17
100
AcDbEntity
  8
CREASE
100
AcDbLine
 10
273.0
 20
858.75
 30
0.0
 11
273.0
 21
872.5
 31
0.0
  0
LINE
  5
34A
330
17
100
AcDbEntity
  8
SLOT
100
AcDbLine
 10
184.75
 20
931.5
 30
0.0
 11
185.25
 21
936.75
 31
0.0
  0
LINE
  5
34B
330
17
100
AcDbEntity
  8
CREASE
100
AcDbLine
 10
169.25
 20
909.5
 30
0.0
 11
170.25
 21
901.0
 31
0.0
  0
LINE
  5
34C
330
17
100
AcDbEntity
  8
CUT
100
AcDbLine
 10
187.25
 20
928.25
 30
0.0
 11
190.25
 21
941.0
 31
0.0
  0
LINE
  5
34D
330
17
100
AcDbEntity
  8
CREASE
100
AcDbLine
 10
86.75
 20
722.0
 30
0.0
 11
95.75
 21
722.0
 31
0.0
  0
LINE
  5
34E
330
17
100
AcDbEntity
  8
CREASE
100
AcDbLine
 10
167.0
 20
908.5
 30
0.0
 11
168.0
 21
900.0
 31
0.0
  0
LINE
  5
34F
330
17
100
AcDbEntity
  8
FOLD
100
AcDbLine
 10
128.0
 20
750.75
 30
0.0
 11
128.25
 21
756.0
 31
0.0
  0
LINE
  5
350
330
17
100
AcDbEntity
  8
CREASE
100
AcDbLine
 10
134.75
 20
928.0
 30
0.0
 11
144.75
 21
922.25
 31
0.0
  0
LINE
  5
351
330
17
100
AcDbEntity
  8
FOLD
100
AcDbLine
 10
155.75
 20
907.25
 30
0.0
 11
161.75
 21
920.0
 31
0.0
  0
LINE
  5
352
330
17
100
AcDbEntity
  8
SLOT
100
AcDbLine
 10
207.75
 20
967.75
 30
0.0
 11
211.0
 21
973.25
 31
0.0
  0
LINE
  5
353
330
17
100
AcDbEntity
  8
SLOT
100
AcDbLine
 10
124.5
 20
841.25
 30
0.0
 11
127.5
 21
847.75
 31
0.0
  0
LINE
  5
354
330
17
100
AcDbEntity
  8
SLOT
100
AcDbLine
 10
201.25
 20
965.25
 30
0.0
 11
207.75
 21
967.25
 31
0.0
  0
LINE
  5
355
330
17
100
AcDbEntity
  8
SLOT
100
AcDbLine
 10
158.75
 20
913.0
 30
0.0
 11
158.75
 21
918.5
 31
0.0
  0
LINE
  5
356
330
17
100
AcDbEntity
  8
CREASE
100
AcDbLine
 10
197.0
 20
925.75
 30
0.0
 11
200.75
 21
934.75
 31
0.0
  0
LINE
  5
357
330
17
100
AcDbEntity
  8
CUT
100
AcDbLine
 10
135.75
 20
915.0
 30
0.0
 11
143.5
 21
927.25
 31
0.0
  0
LINE
  5
358
330
17
100
AcDbEntity
  8
FOLD
100
AcDbLine
 10
68.5
 20
744.5
 30
0.0
 11
78.75
 21
745.25
 31
0.0
  0
LINE
  5
359
330
17
100
AcDbEntity
  8
CREASE
100
AcDbLine
 10
145.75
 20
902.75
 30
0.0
 11
145.75
 21
908.75
 31
0.0
  0
LINE
  5
35A
330
17
100
AcDbEntity
  8
CREASE
100
AcDbLine
 10
115.25
 20
944.5
 30
0.0
 11
115.75
 21
935.75
 31
0.0
  0
LINE
  5
35B
330
17
100
AcDbEntity
  8
FOLD
100
AcDbLine
 10
193.0
 20
760.5
 30
0.0
 11
198.75
 21
761.25
 31
0.0
  0
LINE
  5
35C
330
17
100
AcDbEntity
  8
SLOT
100
AcDbLine
 10
167.0
 20
967.25
 30
0.0
 11
167.5
 21
972.5
 31
0.0
  0
LINE
  5
35D
330
17
100
AcDbEntity
  8
CREASE
100
AcDbLine
 10
121.25
 20
850.25
 30
0.0
 11
126.25
 21
850.25
 31
0.0
  0
LINE
  5
35E
330
17
100
AcDbEntity
  8
CREASE
100
AcDbLine
 10
166.5
 20
935.25
 30
0.0
 11
168.0
 21
926.25
 31
0.0
  0
LINE
  5
35F
330
17
100
AcDbEntity
  8
CREASE
100
AcDbLine
 10
203.25
 20
932.5
 30
0.0
 11
213.5
 21
932.5
 31
0.0
  0
LINE
  5
360
330
17
100
AcDbEntity
  8
SLOT
100
AcDbLine
 10
144.5
 20
947.25
 30
0.0
 11
147.0
 21
940.5
 31
0.0
  0
LINE
  5
361
330
17
100
AcDbEntity
  8
CREASE
100
AcDbLine
 10
208.5
 20
766.0
 30
0.0
 11
209.5
 21
759.25
 31
0.0
  0
LINE
  5
362
330
17
100
AcDbEntity
  8
CREASE
100
AcDbLine
 10
23.25
 20
906.75
 30
0.0
 11
35.5
 21
905.25
 31
0.0
  0
LINE
  5
363
330
17
100
AcDbEntity
  8
CREASE
100
AcDbLine
 10
122.75
 20
792.25
 30
0.0
 11
123.5
 21
781.25
 31
0.0
  0
LINE
  5
364
330
17
100
AcDbEntity
  8
CREASE
100
AcDbLine
 10
131.0
 20
938.0
 30
0.0
 11
133.0
 21
943.25
 31
0.0
  0
LINE
  5
365
330
17
100
AcDbEntity
  8
CUT
100
AcDbLine
 10
184.25
 20
936.75
 30
0.0
 11
194.25
 21
926.75
 31
0.0
  0
LINE
  5
366
330
17
100
AcDbEntity
  8
CREASE
100
AcDbLine
 10
106.25
 20
965.0
 30
0.0
 11
125.25
 21
971.25
 31
0.0
  0
LINE
  5
367
330
17
100
AcDbEntity
  8
CREASE
100
AcDbLine
 10
177.5
 20
790.5
 30
0.0
 11
177.75
 21
782.0
 31
0.0
  0
LINE
  5
368
330
17
100
AcDbEntity
  8
CREASE
100
AcDbLine
 10
224.25
 20
845.0
 30
0.0
 11
230.25
 21
845.0
 31
0.0
  0
LINE
  5
369
330
17
100
AcDbEntity
  8
CREASE
100
AcDbLine
 10
183.25
 20
884.75
 30
0.0
 11
201.25
 21
885.25
 31
0.0
  0
LINE
  5
36A
330
17
100
AcDbEntity
  8
SLOT
100
AcDbLine
 10
142.25
 20
962.0
 30
0.0
 11
144.0
 21
954.75
 31
0.0
  0
LINE
  5
36B
330
17
100
AcDbEntity
  8
CREASE
100
AcDbLine
 10
128.25
 20
936.75
 30
0.0
 11
133.25
 21
937.0
 31
0.0
  0
LINE
  5
36C
330
17
100
AcDbEntity
  8
CREASE
100
AcDbLine
 10
177.75
 20
790.75
 30
0.0
 11
197.5
 21
797.5
 31
0.0
  0
LINE
  5
36D
330
17
100
AcDbEntity
  8
CREASE
100
AcDbLine
 10
131.0
 20
926.0
 30
0.0
 11
132.25
 21
917.5
 31
0.0
  0
LINE
  5
36E
330
17
100
AcDbEntity
  8
CREASE
100
AcDbLine
 10
154.5
 20
818.0
 30
0.0
 11
154.5
 21
826.75
 31
0.0
  0
LINE
  5
36F
330
17
100
AcDbEntity
  8
CREASE
100
AcDbLine
 10
122.75
 20
763.5
 30
0.0
 11
123.5
 21
768.5
 31
0.0
  0
LINE
  5
370
330
17
100
AcDbEntity
  8
SLOT
100
AcDbLine
 10
155.75
 20
900.25
 30
0.0
 11
157.25
 21
894.0
 31
0.0
  0
LINE
  5
371
330
17
100
AcDbEntity
  8
CREASE
100
AcDbLine
 10
112.5
 20
761.75
 30
0.0
 11
123.25
 21
761.75
 31
0.0
  0
LINE
  5
372
330
17
100
AcDbEntity
  8
CREASE
100
AcDbLine
 10
84.25
 20
750.75
 30
0.0
 11
87.25
 21
757.5
 31
0.0
  0
LINE
  5
373
330
17
100
AcDbEntity
  8
CREASE
100
AcDbLine
 10
167.75
 20
714.5
 30
0.0
 11
179.0
 21
714.5
 31
0.0
  0
LINE
  5
374
330
17
100
AcDbEntity
  8
FOLD
100
AcDbLine
 10
74.75
 20
755.5
 30
0.0
 11
81.0
 21
756.25
 31
0.0
  0
LINE
  5
375
330
17
100
AcDbEntity
  8
CREASE
100
AcDbLine
 10
198.25
 20
963.75
 30
0.0
 11
198.75
 21
971.0
 31
0.0
  0
LINE
  5
376
330
17
100
AcDbEntity
  8
SLOT
100
AcDbLine
 10
205.5
 20
955.75
 30
0.0
 11
210.75
 21
959.0
 31
0.0
  0
LINE
  5
377
330
17
100
AcDbEntity
  8
CREASE
100
AcDbLine
 10
251.5
 20
802.25
 30
0.0
 11
251.5
 21
793.5
 31
0.0
  0
LINE
  5
378
330
17
100
AcDbEntity
  8
SLOT
100
AcDbLine
 10
179.0
 20
953.5
 30
0.0
 11
179.75
 21
948.25
 31
0.0
  0
LINE
  5
379
330
17
100
AcDbEntity
  8
CUT
100
AcDbLine
 10
196.25
 20
921.0
 30
0.0
 11
200.25
 21
933.75
 31
0.0
  0
LINE
  5
37A
330
17
100
AcDbEntity
  8
SLOT
100
AcDbLine
 10
143.5
 20
906.5
 30
0.0
 11
143.75
 21
901.5
 31
0.0
  0
LINE
  5
37B
330
17
100
AcDbEntity
  8
CREASE
100
AcDbLine
 10
151.0
 20
953.75
 30
0.0
 11
151.25
 21
958.75
 31
0.0
  0
LINE
  5
37C
330
17
100
AcDbEntity
  8
SLOT
100
AcDbLine
 10
146.25
 20
951.5
 30
0.0
 11
146.25
 21
957.0
 31
0.0
  0
LINE
  5
37D
330
17
100
AcDbEntity
  8
SLOT
100
AcDbLine
 10
169.0
 20
931.5
 30
0.0
 11
169.75
 21
936.75
 31
0.0
  0
LINE
  5
37E
330
17
100
AcDbEntity
  8
CREASE
100
AcDbLine
 10
69.0
 20
964.75
 30
0.0
 11
75.5
 21
959.25
 31
0.0
  0
LINE
  5
37F
330
17
100
AcDbEntity
  8
SLOT
100
AcDbLine
 10
165.75
 20
919.0
 30
0.0
 11
168.75
 21
924.5
 31
0.0
  0
LINE
  5
380
330
17
100
AcDbEntity
  8
CREASE
100
AcDbLine
 10
222.25
 20
959.0
 30
0.0
 11
222.25
 21
966.25
 31
0.0
  0
LINE
  5
381
330
17
100
AcDbEntity
  8
CREASE
100
AcDbLine
 10
177.75
 20
785.0
 30
0.0
 11
177.75
 21
791.5
 31
0.0
  0
LINE
  5
382
330
17
100
AcDbEntity
  8
SLOT
100
AcDbLine
 10
60.0
 20
852.75
 30
0.0
 11
65.5
 21
851.0
 31
0.0
  0
LINE
  5
383
330
17
100
AcDbEntity
  8
CREASE
100
AcDbLine
 10
208.25
 20
842.0
 30
0.0
 11
208.25
 21
847.5
 31
0.0
  0
LINE
  5
384
330
17
100
AcDbEntity
  8
CREASE
100
AcDbLine
 10
244.0
 20
815.25
 30
0.0
 11
250.25
 21
809.0
 31
0.0
  0
LINE
  5
385
330
17
100
AcDbEntity
  8
CUT
100
AcDbLine
 10
188.75
 20
795.75
 30
0.0
 11
189.0
 21
782.25
 31
0.0
  0
LINE
  5
386
330
17
100
AcDbEntity
  8
FOLD
100
AcDbLine
 10
254.0
 20
878.25
 30
0.0
 11
271.5
 21
879.25
 31
0.0
  0
LINE
  5
387
330
17
100
AcDbEntity
  8
CUT
100
AcDbLine
 10
124.25
 20
718.25
 30
0.0
 11
134.75
 21
718.5
 31
0.0
  0
LINE
  5
388
330
17
100
AcDbEntity
  8
CREASE
100
AcDbLine
 10
168.25
 20
921.0
 30
0.0
 11
169.5
 21
931.25
 31
0.0
  0
LINE
  5
389
330
17
100
AcDbEntity
  8
CREASE
100
AcDbLine
 10
139.25
 20
920.75
 30
0.0
 11
140.25
 21
928.25
 31
0.0
  0
LINE
  5
38A
330
17
100
AcDbEntity
  8
SLOT
100
AcDbLine
 10
163.0
 20
940.75
 30
0.0
 11
166.5
 21
946.0
 31
0.0
  0
LINE
  5
38B
330
17
100
AcDbEntity
  8
CREASE
100
AcDbLine
 10
207.5
 20
840.75
 30
0.0
 11
207.75
 21
846.5
 31
0.0
  0
LINE
  5
38C
330
17
100
AcDbEntity
  8
CUT
100
AcDbLine
 10
176.75
 20
928.75
 30
0.0
 11
183.25
 21
935.25
 31
0.0
  0
LINE
  5
38D
330
17
100
AcDbEntity
  8
CREASE
100
AcDbLine
 10
176.5
 20
677.75
 30
0.0
 11
185.75
 21
677.5
 31
0.0
  0
LINE
  5
38E
330
17
100
AcDbEntity
  8
CREASE
100
AcDbLine
 10
170.0
 20
898.5
 30
0.0
 11
171.0
 21
904.5
 31
0.0
  0
LINE
  5
38F
330
17
100
AcDbEntity
  8
SLOT
100
AcDbLine
 10
192.0
 20
932.0
 30
0.0
 11
192.0
 21
925.25
 31
0.0
  0
LINE
  5
390
330
17
100
AcDbEntity
  8
SLOT
100
AcDbLine
 10
172.0
 20
937.75
 30
0.0
 11
178.0
 21
936.0
 31
0.0
  0
LINE
  5
391
330
17
100
AcDbEntity
  8
SLOT
100
AcDbLine
 10
158.75
 20
923.5
 30
0.0
 11
159.25
 21
929.5
 31
0.0
  0
LINE
  5
392
330
17
100
AcDbEntity
  8
SLOT
100
AcDbLine
 10
150.25
 20
929.5
 30
0.0
 11
150.25
 21
922.75
 31
0.0
  0
LINE
  5
393
330
17
100
AcDbEntity
  8
CREASE
100
AcDbLine
 10
47.75
 20
759.75
 30
0.0
 11
57.0
 21
759.75
 31
0.0
  0
ENDSEC
  0
SECTION
  2
OBJECTS
  0
DICTIONARY
  5
A
330
0
100
AcDbDictionary
281
1
  3
ACAD_COLOR
350
B
  3
ACAD_GROUP
350
C
  3
ACAD_LAYOUT
350
D
  3
ACAD_MATERIAL
350
E
  3
ACAD_MLEADERSTYLE
350
F
  3
ACAD_MLINESTYLE
350
10
  3
ACAD_PLOTSETTINGS
350
11
  3
ACAD_PLOTSTYLENAME
350
12
  3
ACAD_SCALELIST
350
14
  3
ACAD_TABLESTYLE
350
15
  3
ACAD_VISUALSTYLE
350
16
  3
EZDXF_META
350
2D
  0
DICTIONARY
  5
B
330
A
100
AcDbDictionary
281
1
  0
DICTIONARY
  5
C
330
A
100
AcDbDictionary
281
1
  0
DICTIONARY
  5
D
330
A
100
AcDbDictionary
281
1
  3
Model
350
1A
  3
Layout1
350
1E
  0
DICTIONARY
  5
E
330
A
100
AcDbDictionary
281
1
  3
ByBlock
350
1F
  3
ByLayer
350
20
  3
Global
350
21
  0
DICTIONARY
  5
F
330
A
100
AcDbDictionary
281
1
  3
Standard
350
2C
  0
DICTIONARY
  5
10
330
A
100
AcDbDictionary
281
1
  3
Standard
350
22
  0
DICTIONARY
  5
11
330
A
100
AcDbDictionary
281
1
  0
ACDBDICTIONARYWDFLT
  5
12
330
A
100
AcDbDictionary
281
1
  3
Normal
350
13
100
AcDbDictionaryWithDefault
340
13
  0
ACDBPLACEHOLDER
  5
13
330
12
  0
DICTIONARY
  5
14
330
A
100
AcDbDictionary
281
1
  0
DICTIONARY
  5
15
330
A
100
AcDbDictionary
281
1
  0
DICTIONARY
  5
16
330
A
100
AcDbDictionary
281
1
  0
LAYOUT
  5
1A
330
D
100
AcDbPlotSettings
  1

  4
A3
  6

 40
7.5
 41
20.0
 42
7.5
 43
20.0
 44
420.0
 45
297.0
 46
0.0
 47
0.0
 48
0.0
 49
0.0
140
0.0
141
0.0
142
1.0
143
1.0
 70
1024
 72
1
 73
0
 74
5
  7

 75
16
 76
0
 77
2
 78
300
147
1.0
148
0.0
149
0.0
100
AcDbLayout
  1
Model
 70
1
 71
0
 10
0.0
 20
0.0
 11
420.0
 21
297.0
 12
0.0
 22
0.0
 32
0.0
 14
1e+20
 24
1e+20
 34
1e+20
 15
-1e+20
 25
-1e+20
 35
-1e+20
146
0.0
 13
0.0
 23
0.0
 33
0.0
 16
1.0
 26
0.0
 36
0.0
 17
0.0
 27
1.0
 37
0.0
 76
1
330
17
  0
LAYOUT
  5
1E
330
D
100
AcDbPlotSettings
  1

  4
A3
  6

 40
7.5
 41
20.0
 42
7.5
 43
20.0
 44
420.0
 45
297.0
 46
0.0
 47
0.0
 48
0.0
 49
0.0
140
0.0
141
0.0
142
1.0
143
1.0
 70
0
 72
1
 73
0
 74
5
  7

 75
16
 76
0
 77
2
 78
300
147
1.0
148
0.0
149
0.0
100
AcDbLayout
  1
Layout1
 70
1
 71
1
 10
0.0
 20
0.0
 11
420.0
 21
297.0
 12
0.0
 22
0.0
 32
0.0
 14
1e+20
 24
1e+20
 34
1e+20
 15
-1e+20
 25
-1e+20
 35
-1e+20
146
0.0
 13
0.0
 23
0.0
 33
0.0
 16
1.0
 26
0.0
 36
0.0
 17
0.0
 27
1.0
 37
0.0
 76
1
330
1B
  0
MATERIAL
  5
1F
102
{ACAD_REACTORS
330
E
102
}
330
E
100
AcDbMaterial
  1
ByBlock
  2

 70
0
 40
1.0
 71
1
 41
1.0
 91
-1023410177
 42
1.0
 72
1
  3

 73
1
 74
1
 75
1
 44
0.5
 73
0
 45
1.0
 46
1.0
 77
1
  4

 78
1
 79
1
170
1
 48
1.0
171
1
  6

172
1
173
1
174
1
140
1.0
141
1.0
175
1
  7

176
1
177
1
178
1
143
1.0
179
1
  8

270
1
271
1
272
1
145
1.0
146
1.0
273
1
  9

274
1
275
1
276
1
 42
1.0
 72
1
  3

 73
1
 74
1
 75
1
 94
63
  0
MATERIAL
  5
20
102
{ACAD_REACTORS
330
E
102
}
330
E
100
AcDbMaterial
  1
ByLayer
  2

 70
0
 40
1.0
 71
1
 41
1.0
 91
-1023410177
 42
1.0
 72
1
  3

 73
1
 74
1
 75
1
 44
0.5
 73
0
 45
1.0
 46
1.0
 77
1
  4

 78
1
 79
1
170
1
 48
1.0
171
1
  6

172
1
173
1
174
1
140
1.0
141
1.0
175
1
  7

176
1
177
1
178
1
143
1.0
179
1
  8

270
1
271
1
272
1
145
1.0
146
1.0
273
1
  9

274
1
275
1
276
1
 42
1.0
 72
1
  3

 73
1
 74
1
 75
1
 94
63
  0
MATERIAL
  5
21
102
{ACAD_REACTORS
330
E
102
}
330
E
100
AcDbMaterial
  1
Global
  2

 70
0
 40
1.0
 71
1
 41
1.0
 91
-1023410177
 42
1.0
 72
1
  3

 73
1
 74
1
 75
1
 44
0.5
 73
0
 45
1.0
 46
1.0
 77
1
  4

 78
1
 79
1
170
1
 48
1.0
171
1
  6

172
1
173
1
174
1
140
1.0
141
1.0
175
1
  7

176
1
177
1
178
1
143
1.0
179
1
  8

270
1
271
1
272
1
145
1.0
146
1.0
273
1
  9

274
1
275
1
276
1
 42
1.0
 72
1
  3

 73
1
 74
1
 75
1
 94
63
  0
MLINESTYLE
  5
22
102
{ACAD_REACTORS
330
10
102
}
330
10
100
AcDbMlineStyle
  2
Standard
 70
0
  3

 62
256
 51
90.0
 52
90.0
 71
2
 49
0.5
 62
256
  6
BYLAYER
 49
-0.5
 62
256
  6
BYLAYER
  0
MLEADERSTYLE
  5
2C
102
{ACAD_REACTORS
330
F
102
}
330
F
100
AcDbMLeaderStyle
179
2
170
2
171
1
172
0
 90
2
 40
0.0
 41
0.0
173
1
 91
-1056964608
 92
-2
290
1
 42
2.0
291
1
 43
8.0
  3
Standard
 44
4.0
300

342
29
174
1
175
1
176
0
178
1
 93
-1056964608
 45
4.0
292
0
297
0
 46
4.0
 94
-1056964608
 47
1.0
 49
1.0
140
1.0
294
1
141
0.0
177
0
142
1.0
295
0
296
0
143
3.75
271
0
272
9
273
9
  0
DICTIONARY
  5
2D
330
A
100
AcDbDictionary
280
1
281
1
  3
CREATED_BY_EZDXF
350
2E
  3
WRITTEN_BY_EZDXF
350
396
  0
DICTIONARYVAR
  5
2E
330
2D
100
DictionaryVariables
280
0
  1
1.4.2 @ 2026-03-31T10:01:19.555223+00:00
  0
DICTIONARYVAR
  5
396
330
2D
100
DictionaryVariables
280
0
  1
1.4.2 @ 2026-03-31T10:01:19.570510+00:00
  0
ENDSEC
  0
EOF
